G04*
G04 #@! TF.GenerationSoftware,Altium Limited,Altium Designer,20.1.12 (249)*
G04*
G04 Layer_Color=8388736*
%FSLAX25Y25*%
%MOIN*%
G70*
G04*
G04 #@! TF.SameCoordinates,D57ADFAC-2A33-4F97-B865-62DE6D2BA241*
G04*
G04*
G04 #@! TF.FilePolarity,Negative*
G04*
G01*
G75*
%ADD25R,0.06509X0.06706*%
%ADD26O,0.05524X0.02965*%
%ADD27R,0.05524X0.02965*%
%ADD28R,0.07296X0.03359*%
%ADD29O,0.07296X0.03359*%
%ADD30R,0.06706X0.06509*%
%ADD31R,0.04343X0.04540*%
%ADD32R,0.05131X0.02965*%
%ADD33O,0.02572X0.07099*%
%ADD34R,0.09855X0.19107*%
%ADD35R,0.06706X0.06706*%
%ADD36C,0.06706*%
G36*
X174016Y80709D02*
X146457D01*
Y83465D01*
X144488Y85433D01*
X139764D01*
Y96457D01*
X174016D01*
Y80709D01*
D02*
G37*
G36*
Y63779D02*
X145276D01*
X143307Y65748D01*
X139764Y65748D01*
Y75984D01*
X174016D01*
Y63779D01*
D02*
G37*
G36*
X174016Y42520D02*
X146457Y42520D01*
Y43307D01*
X143701Y46063D01*
X139764Y46063D01*
X139764Y54331D01*
X174016D01*
X174016Y42520D01*
D02*
G37*
G36*
X174016Y21654D02*
X146457D01*
X146457Y22835D01*
X144094Y25197D01*
X139764Y25197D01*
X139764Y37402D01*
X174016D01*
Y21654D01*
D02*
G37*
G36*
X135039D02*
X107480D01*
Y96457D01*
X135039D01*
Y21654D01*
D02*
G37*
D25*
X254724Y73228D02*
D03*
X262008D02*
D03*
X236221D02*
D03*
X243504D02*
D03*
X221555Y19685D02*
D03*
X228839D02*
D03*
X221555Y39370D02*
D03*
X228839D02*
D03*
X221555Y79134D02*
D03*
X228839D02*
D03*
X221654Y99213D02*
D03*
X228937D02*
D03*
D26*
X282087Y44291D02*
D03*
Y56890D02*
D03*
D27*
Y48031D02*
D03*
Y51772D02*
D03*
X270669D02*
D03*
Y44291D02*
D03*
X282087Y60630D02*
D03*
Y64370D02*
D03*
X270669D02*
D03*
Y56890D02*
D03*
D28*
X248524Y51555D02*
D03*
D29*
Y56555D02*
D03*
Y61555D02*
D03*
Y66555D02*
D03*
X226279Y51555D02*
D03*
Y56555D02*
D03*
Y61555D02*
D03*
Y66555D02*
D03*
D30*
X252756Y4626D02*
D03*
Y11909D02*
D03*
X252756Y82579D02*
D03*
X252756Y89862D02*
D03*
Y25098D02*
D03*
Y32382D02*
D03*
Y102756D02*
D03*
Y110039D02*
D03*
D31*
X263779Y18898D02*
D03*
X256496D02*
D03*
X241732Y13780D02*
D03*
X234449D02*
D03*
X241732Y3937D02*
D03*
X234449D02*
D03*
X263878Y38976D02*
D03*
X256594D02*
D03*
X241831Y33858D02*
D03*
X234547Y33858D02*
D03*
X241831Y23228D02*
D03*
X234547Y23228D02*
D03*
X264764Y51968D02*
D03*
X257480D02*
D03*
X262697Y96063D02*
D03*
X255413D02*
D03*
X242913Y90945D02*
D03*
X235630D02*
D03*
X242913Y81102D02*
D03*
X235630D02*
D03*
X262598Y116142D02*
D03*
X255315D02*
D03*
X242913Y111024D02*
D03*
X235630D02*
D03*
X242913Y101181D02*
D03*
X235630D02*
D03*
X264764Y64567D02*
D03*
X257480D02*
D03*
D32*
X242126Y18898D02*
D03*
X250787D02*
D03*
X238976Y38976D02*
D03*
X247638Y38976D02*
D03*
X240158Y96063D02*
D03*
X248819D02*
D03*
X240158Y116142D02*
D03*
X248819D02*
D03*
D33*
X266240Y6890D02*
D03*
X268799D02*
D03*
X271358D02*
D03*
X273917D02*
D03*
X276476D02*
D03*
X279035D02*
D03*
X281594D02*
D03*
X284154D02*
D03*
X266240Y30906D02*
D03*
X268799D02*
D03*
X271358D02*
D03*
X273917D02*
D03*
X276476D02*
D03*
X279035D02*
D03*
X281594D02*
D03*
X284154D02*
D03*
X283760Y106890D02*
D03*
X281201D02*
D03*
X278642D02*
D03*
X276083D02*
D03*
X273524D02*
D03*
X270965D02*
D03*
X268406D02*
D03*
X265846D02*
D03*
X283760Y82874D02*
D03*
X281201D02*
D03*
X278642D02*
D03*
X276083D02*
D03*
X273524D02*
D03*
X270965D02*
D03*
X268406D02*
D03*
X265846D02*
D03*
D34*
X84646Y14764D02*
D03*
Y50591D02*
D03*
X42520Y14764D02*
D03*
Y50591D02*
D03*
X84646Y104527D02*
D03*
Y68701D02*
D03*
X42520Y104527D02*
D03*
Y68701D02*
D03*
D35*
X289370Y104567D02*
D03*
X204724D02*
D03*
X6693D02*
D03*
D36*
X289370Y94567D02*
D03*
Y84567D02*
D03*
Y74567D02*
D03*
Y64567D02*
D03*
Y54567D02*
D03*
Y44567D02*
D03*
Y34567D02*
D03*
Y24567D02*
D03*
Y14567D02*
D03*
X214724D02*
D03*
Y24567D02*
D03*
Y34567D02*
D03*
Y44567D02*
D03*
Y54567D02*
D03*
Y64567D02*
D03*
Y74567D02*
D03*
Y84567D02*
D03*
Y94567D02*
D03*
Y104567D02*
D03*
X204724Y14567D02*
D03*
Y24567D02*
D03*
Y34567D02*
D03*
Y44567D02*
D03*
Y54567D02*
D03*
Y64567D02*
D03*
Y74567D02*
D03*
Y84567D02*
D03*
Y94567D02*
D03*
X16693Y14567D02*
D03*
Y24567D02*
D03*
Y34567D02*
D03*
Y44567D02*
D03*
Y54567D02*
D03*
Y64567D02*
D03*
Y74567D02*
D03*
Y84567D02*
D03*
Y94567D02*
D03*
Y104567D02*
D03*
X6693Y14567D02*
D03*
Y24567D02*
D03*
Y34567D02*
D03*
Y44567D02*
D03*
Y54567D02*
D03*
Y64567D02*
D03*
Y74567D02*
D03*
Y84567D02*
D03*
Y94567D02*
D03*
M02*
