G04*
G04 #@! TF.GenerationSoftware,Altium Limited,Altium Designer,20.1.12 (249)*
G04*
G04 Layer_Color=8421504*
%FSLAX25Y25*%
%MOIN*%
G70*
G04*
G04 #@! TF.SameCoordinates,D57ADFAC-2A33-4F97-B865-62DE6D2BA241*
G04*
G04*
G04 #@! TF.FilePolarity,Positive*
G04*
G01*
G75*
%ADD15R,0.05709X0.05906*%
%ADD16O,0.04724X0.02165*%
%ADD17R,0.04724X0.02165*%
%ADD18R,0.06496X0.02559*%
%ADD19O,0.06496X0.02559*%
%ADD20R,0.05906X0.05709*%
%ADD21R,0.03543X0.03740*%
%ADD22R,0.04331X0.02165*%
%ADD23O,0.01772X0.06299*%
%ADD24R,0.09055X0.18307*%
D15*
X254724Y73228D02*
D03*
X262008D02*
D03*
X236221D02*
D03*
X243504D02*
D03*
X221555Y19685D02*
D03*
X228839D02*
D03*
X221555Y39370D02*
D03*
X228839D02*
D03*
X221555Y79134D02*
D03*
X228839D02*
D03*
X221654Y99213D02*
D03*
X228937D02*
D03*
D16*
X282087Y44291D02*
D03*
Y56890D02*
D03*
D17*
Y48031D02*
D03*
Y51772D02*
D03*
X270669D02*
D03*
Y44291D02*
D03*
X282087Y60630D02*
D03*
Y64370D02*
D03*
X270669D02*
D03*
Y56890D02*
D03*
D18*
X248524Y51555D02*
D03*
D19*
Y56555D02*
D03*
Y61555D02*
D03*
Y66555D02*
D03*
X226279Y51555D02*
D03*
Y56555D02*
D03*
Y61555D02*
D03*
Y66555D02*
D03*
D20*
X252756Y4626D02*
D03*
Y11909D02*
D03*
X252756Y82579D02*
D03*
X252756Y89862D02*
D03*
Y25098D02*
D03*
Y32382D02*
D03*
Y102756D02*
D03*
Y110039D02*
D03*
D21*
X263779Y18898D02*
D03*
X256496D02*
D03*
X241732Y13780D02*
D03*
X234449D02*
D03*
X241732Y3937D02*
D03*
X234449D02*
D03*
X263878Y38976D02*
D03*
X256594D02*
D03*
X241831Y33858D02*
D03*
X234547Y33858D02*
D03*
X241831Y23228D02*
D03*
X234547Y23228D02*
D03*
X264764Y51968D02*
D03*
X257480D02*
D03*
X262697Y96063D02*
D03*
X255413D02*
D03*
X242913Y90945D02*
D03*
X235630D02*
D03*
X242913Y81102D02*
D03*
X235630D02*
D03*
X262598Y116142D02*
D03*
X255315D02*
D03*
X242913Y111024D02*
D03*
X235630D02*
D03*
X242913Y101181D02*
D03*
X235630D02*
D03*
X264764Y64567D02*
D03*
X257480D02*
D03*
D22*
X242126Y18898D02*
D03*
X250787D02*
D03*
X238976Y38976D02*
D03*
X247638Y38976D02*
D03*
X240158Y96063D02*
D03*
X248819D02*
D03*
X240158Y116142D02*
D03*
X248819D02*
D03*
D23*
X266240Y6890D02*
D03*
X268799D02*
D03*
X271358D02*
D03*
X273917D02*
D03*
X276476D02*
D03*
X279035D02*
D03*
X281594D02*
D03*
X284154D02*
D03*
X266240Y30906D02*
D03*
X268799D02*
D03*
X271358D02*
D03*
X273917D02*
D03*
X276476D02*
D03*
X279035D02*
D03*
X281594D02*
D03*
X284154D02*
D03*
X283760Y106890D02*
D03*
X281201D02*
D03*
X278642D02*
D03*
X276083D02*
D03*
X273524D02*
D03*
X270965D02*
D03*
X268406D02*
D03*
X265846D02*
D03*
X283760Y82874D02*
D03*
X281201D02*
D03*
X278642D02*
D03*
X276083D02*
D03*
X273524D02*
D03*
X270965D02*
D03*
X268406D02*
D03*
X265846D02*
D03*
D24*
X84646Y14764D02*
D03*
Y50591D02*
D03*
X42520Y14764D02*
D03*
Y50591D02*
D03*
X84646Y104527D02*
D03*
Y68701D02*
D03*
X42520Y104527D02*
D03*
Y68701D02*
D03*
M02*
