G04*
G04 #@! TF.GenerationSoftware,Altium Limited,Altium Designer,20.1.12 (249)*
G04*
G04 Layer_Physical_Order=1*
G04 Layer_Color=255*
%FSLAX25Y25*%
%MOIN*%
G70*
G04*
G04 #@! TF.SameCoordinates,D57ADFAC-2A33-4F97-B865-62DE6D2BA241*
G04*
G04*
G04 #@! TF.FilePolarity,Positive*
G04*
G01*
G75*
%ADD15R,0.05709X0.05906*%
%ADD16O,0.04724X0.02165*%
%ADD17R,0.04724X0.02165*%
%ADD18R,0.06496X0.02559*%
%ADD19O,0.06496X0.02559*%
%ADD20R,0.05906X0.05709*%
%ADD21R,0.03543X0.03740*%
%ADD22R,0.04331X0.02165*%
%ADD23O,0.01772X0.06299*%
%ADD24R,0.09055X0.18307*%
%ADD37C,0.00500*%
%ADD38C,0.01000*%
%ADD39C,0.02000*%
%ADD40R,0.05906X0.05906*%
%ADD41C,0.05906*%
%ADD42C,0.02362*%
%ADD43C,0.02400*%
G36*
X267717Y110939D02*
X267670Y110930D01*
X267126Y110567D01*
X266582Y110930D01*
X265846Y111076D01*
X265111Y110930D01*
X264564Y110564D01*
X264272Y110681D01*
X264103Y110812D01*
X264173Y111161D01*
X264003Y112012D01*
X263521Y112734D01*
X262800Y113216D01*
X261949Y113385D01*
X261098Y113216D01*
X260376Y112734D01*
X259894Y112012D01*
X259725Y111161D01*
X259894Y110310D01*
X260376Y109589D01*
X261098Y109107D01*
X261949Y108938D01*
X262800Y109107D01*
X263497Y109573D01*
X263600Y109546D01*
X263963Y109350D01*
X263924Y109153D01*
Y104626D01*
X264070Y103890D01*
X264487Y103266D01*
X265111Y102850D01*
X265846Y102703D01*
X266248Y102783D01*
X266674Y102362D01*
X266843Y101511D01*
X267325Y100790D01*
X267717Y100528D01*
Y87580D01*
X267216Y87428D01*
X267065Y87655D01*
X266343Y88137D01*
X265492Y88306D01*
X264641Y88137D01*
X263920Y87655D01*
X263438Y86934D01*
X263268Y86083D01*
X263438Y85232D01*
X263920Y84510D01*
X263924Y84508D01*
Y80610D01*
X264070Y79874D01*
X264487Y79251D01*
X265111Y78834D01*
X265846Y78688D01*
X266365Y78791D01*
X266666Y78341D01*
X266449Y78016D01*
X266350Y77516D01*
X265993Y77219D01*
X265806Y77181D01*
X265806Y77181D01*
X258154D01*
Y69276D01*
X265862D01*
Y76681D01*
X265862Y76703D01*
X266087Y76726D01*
X266432Y76400D01*
X266449Y76314D01*
X266931Y75593D01*
X267653Y75111D01*
X267717Y75098D01*
Y67862D01*
X267535Y67437D01*
X261992D01*
Y61697D01*
X267535D01*
X267717Y61272D01*
Y58972D01*
X267307D01*
Y54839D01*
X261992D01*
Y49098D01*
X267535D01*
X267717Y48673D01*
Y46374D01*
X267307D01*
Y42209D01*
X267717D01*
Y36992D01*
X267227Y36665D01*
X266745Y35943D01*
X266575Y35092D01*
X266317Y35077D01*
X266240Y35092D01*
X265504Y34946D01*
X264881Y34529D01*
X264815Y34430D01*
X264284Y34536D01*
X264222Y34847D01*
X263740Y35568D01*
X263018Y36051D01*
X262167Y36220D01*
X261316Y36051D01*
X260595Y35568D01*
X260113Y34847D01*
X259944Y33996D01*
X260113Y33145D01*
X260595Y32424D01*
X261316Y31942D01*
X262167Y31772D01*
X263018Y31942D01*
X263740Y32424D01*
X263817Y32540D01*
X264317Y32388D01*
Y30604D01*
X263817Y30452D01*
X263740Y30569D01*
X263018Y31051D01*
X262167Y31220D01*
X261316Y31051D01*
X260595Y30569D01*
X260113Y29847D01*
X259944Y28996D01*
X260113Y28145D01*
X260595Y27424D01*
X261316Y26941D01*
X262167Y26772D01*
X263018Y26941D01*
X263740Y27424D01*
X263985Y27791D01*
X264089Y27816D01*
X264564Y27757D01*
X264881Y27282D01*
X265504Y26865D01*
X266240Y26719D01*
X266942Y26859D01*
X267717Y26084D01*
Y14273D01*
X267648Y14260D01*
X266927Y13778D01*
X266631Y13336D01*
X266444Y13056D01*
X265959Y13161D01*
X266102Y13878D01*
X265932Y14729D01*
X265451Y15450D01*
X264729Y15933D01*
X263878Y16102D01*
X263027Y15933D01*
X262305Y15450D01*
X261823Y14729D01*
X261654Y13878D01*
X261823Y13027D01*
X262305Y12306D01*
X263027Y11823D01*
X263878Y11654D01*
X264729Y11823D01*
X265451Y12306D01*
X265746Y12747D01*
X265932Y13027D01*
X266418Y12922D01*
X266275Y12205D01*
X266405Y11553D01*
X266369Y11448D01*
X266131Y11102D01*
X266053Y11039D01*
X265504Y10930D01*
X264881Y10513D01*
X264691Y10229D01*
X264089D01*
X263915Y10490D01*
X263193Y10972D01*
X262343Y11141D01*
X261491Y10972D01*
X260770Y10490D01*
X260288Y9768D01*
X260119Y8917D01*
X260153Y8744D01*
X259713Y8392D01*
X259055Y8523D01*
X258204Y8354D01*
X257483Y7872D01*
X257209Y7462D01*
X256709Y7613D01*
Y8480D01*
X248803D01*
Y803D01*
X244895D01*
X244504Y1067D01*
X244504Y1303D01*
Y6807D01*
X238961D01*
Y1303D01*
X238961Y1067D01*
X238570Y803D01*
X237611D01*
X237221Y1067D01*
X237221Y1303D01*
Y6807D01*
X231677D01*
Y1303D01*
X231677Y1067D01*
X231287Y803D01*
X222673D01*
X222673Y15732D01*
X231677D01*
Y10909D01*
X237221D01*
Y16650D01*
X232693D01*
Y18665D01*
X238607D01*
X238961Y18312D01*
X238961Y16815D01*
X238961Y16315D01*
Y10909D01*
X244504D01*
Y16315D01*
X244504Y16650D01*
X244935Y16815D01*
X245291D01*
Y20980D01*
X244602D01*
Y22593D01*
X244966Y23138D01*
X245137Y23996D01*
X244966Y24855D01*
X244602Y25399D01*
Y26098D01*
X243601D01*
X242894Y26239D01*
X242186Y26098D01*
X239059D01*
Y20980D01*
X238961D01*
Y20705D01*
X237319D01*
Y26098D01*
X231776D01*
Y23638D01*
X222673D01*
Y29528D01*
X222596Y29918D01*
X222516Y30037D01*
X222596Y30157D01*
X222673Y30547D01*
Y35417D01*
X231776D01*
Y30988D01*
X237319D01*
Y36728D01*
X237750Y36894D01*
X238267D01*
X238600Y36827D01*
X238978Y36746D01*
X239059Y36265D01*
Y30988D01*
X244602D01*
Y32770D01*
X244848Y33138D01*
X245019Y33996D01*
X244848Y34855D01*
X244602Y35222D01*
Y36394D01*
X244602Y36728D01*
X245034Y36894D01*
X250803D01*
Y37957D01*
X253823D01*
Y36106D01*
X259366D01*
Y41846D01*
X253823D01*
Y39996D01*
X250803D01*
Y41059D01*
X244473D01*
Y37228D01*
X244472Y36894D01*
X244041Y36728D01*
X242573D01*
X242142Y36894D01*
X242142Y37228D01*
Y41059D01*
X239686D01*
X238976Y41200D01*
X238267Y41059D01*
X235811D01*
Y39996D01*
X232693D01*
Y43323D01*
X222673D01*
Y45321D01*
X243281D01*
X243309Y45278D01*
X244031Y44796D01*
X244882Y44627D01*
X245733Y44796D01*
X246454Y45278D01*
X246936Y45999D01*
X247106Y46850D01*
X246936Y47701D01*
X246454Y48423D01*
X245733Y48905D01*
X244882Y49074D01*
X244031Y48905D01*
X243309Y48423D01*
X243281Y48380D01*
X222901D01*
X222638Y48761D01*
X222607Y48880D01*
X222673Y49213D01*
Y49378D01*
X223114Y49613D01*
X223422Y49408D01*
X224311Y49231D01*
X228248D01*
X229137Y49408D01*
X229891Y49912D01*
X230395Y50666D01*
X230572Y51555D01*
X230395Y52445D01*
X229891Y53199D01*
X229293Y53598D01*
X229445Y54098D01*
X251969D01*
X252359Y54176D01*
X252690Y54397D01*
X252910Y54728D01*
X252988Y55118D01*
Y62992D01*
X252910Y63382D01*
X252690Y63713D01*
X252359Y63934D01*
X251969Y64012D01*
X251689D01*
X251537Y64512D01*
X252136Y64912D01*
X252639Y65666D01*
X252816Y66555D01*
X252639Y67445D01*
X252136Y68199D01*
X251382Y68702D01*
X250492Y68879D01*
X247609D01*
X247358Y69276D01*
X247358Y69379D01*
Y77181D01*
X244755D01*
X244355Y77448D01*
X243504Y77618D01*
X242653Y77448D01*
X242253Y77181D01*
X232693D01*
Y77801D01*
X232858Y78232D01*
X233193Y78232D01*
X238402D01*
Y83972D01*
X232858D01*
Y83518D01*
X232693Y83087D01*
X232358Y83087D01*
X229858D01*
Y89834D01*
X232396Y92372D01*
X232858Y92180D01*
Y88075D01*
X238402D01*
Y93815D01*
X238833Y93980D01*
X239448D01*
X239690Y93932D01*
X240142Y93815D01*
X240142Y92692D01*
X240048Y92629D01*
X239562Y91902D01*
X239391Y91043D01*
X239562Y90185D01*
X240048Y89457D01*
X240142Y89394D01*
Y88075D01*
X245685D01*
Y93480D01*
X245685Y93815D01*
X246117Y93980D01*
X251984D01*
Y95043D01*
X252642D01*
Y93193D01*
X258185D01*
Y98933D01*
X256709D01*
Y106610D01*
X248803D01*
Y98902D01*
X252642D01*
Y97083D01*
X251984D01*
Y98146D01*
X246117D01*
X245685Y98311D01*
X245685Y98586D01*
Y104051D01*
X240142D01*
Y98761D01*
X240142Y98311D01*
X239690Y98194D01*
X239448Y98146D01*
X238833D01*
X238402Y98311D01*
X238402Y98646D01*
Y104051D01*
X232858D01*
Y103638D01*
X232791Y103165D01*
X232358Y103165D01*
X230153D01*
Y112963D01*
X232312Y115122D01*
X236639D01*
X236992Y114769D01*
X236992Y114059D01*
X236561Y113894D01*
X232858D01*
Y108153D01*
X238402D01*
Y113559D01*
X238402Y113894D01*
X238833Y114059D01*
X239710D01*
X240142Y113894D01*
X240142Y113559D01*
Y108153D01*
X245685D01*
Y113559D01*
X245685Y113894D01*
X246117Y114059D01*
X251984D01*
Y115122D01*
X252543D01*
Y113272D01*
X258087D01*
Y118882D01*
X267717D01*
Y110939D01*
D02*
G37*
G36*
X294473Y803D02*
X282810D01*
X282658Y1303D01*
X283069Y1577D01*
X283551Y2299D01*
X283651Y2803D01*
X284154Y2703D01*
X284889Y2850D01*
X285513Y3266D01*
X285900Y3845D01*
X286720Y3682D01*
X287572Y3851D01*
X288293Y4333D01*
X288775Y5054D01*
X288944Y5906D01*
X288775Y6757D01*
X288293Y7478D01*
X287572Y7960D01*
X286720Y8129D01*
X286463Y8078D01*
X286076Y8395D01*
Y9154D01*
X285930Y9889D01*
X285513Y10513D01*
X284889Y10930D01*
X284154Y11076D01*
X283418Y10930D01*
X282924Y10600D01*
X282491Y10825D01*
X282359Y11395D01*
X284005Y13042D01*
X284005Y13042D01*
X284171Y13290D01*
X284229Y13583D01*
X284316Y13693D01*
X284939Y14110D01*
X285304Y14018D01*
X285468Y13921D01*
X285519Y13535D01*
X285917Y12573D01*
X286551Y11748D01*
X287377Y11114D01*
X288338Y10716D01*
X289370Y10580D01*
X290402Y10716D01*
X291364Y11114D01*
X292189Y11748D01*
X292823Y12573D01*
X293221Y13535D01*
X293357Y14567D01*
X293221Y15599D01*
X292823Y16560D01*
X292189Y17386D01*
X291364Y18020D01*
X290402Y18418D01*
X289370Y18554D01*
X288338Y18418D01*
X287377Y18020D01*
X286551Y17386D01*
X286012Y16684D01*
X285830Y16652D01*
X285594Y16666D01*
X285441Y16716D01*
X285037Y17321D01*
X284316Y17803D01*
X283465Y17972D01*
X282613Y17803D01*
X281892Y17321D01*
X281410Y16599D01*
X281241Y15748D01*
X281410Y14897D01*
X281892Y14175D01*
X282214Y13960D01*
X282263Y13463D01*
X279737Y10937D01*
X279035Y11076D01*
X278300Y10930D01*
X277756Y10567D01*
X277212Y10930D01*
X276476Y11076D01*
X275741Y10930D01*
X275197Y10567D01*
X274653Y10930D01*
X273917Y11076D01*
X273182Y10930D01*
X272638Y10567D01*
X272094Y10930D01*
X271358Y11076D01*
X270910Y10987D01*
X270736Y11166D01*
X270568Y11429D01*
X270657Y11875D01*
X270866Y12343D01*
X271717Y12512D01*
X272439Y12994D01*
X272921Y13716D01*
X273090Y14567D01*
X272921Y15418D01*
X272439Y16139D01*
X271717Y16622D01*
X270866Y16791D01*
X270015Y16622D01*
X269294Y16139D01*
X269236Y16053D01*
X268736Y16205D01*
Y26084D01*
X269206Y26287D01*
X269208Y26287D01*
X269229Y26274D01*
X269304Y25899D01*
X269786Y25178D01*
X270507Y24696D01*
X271358Y24527D01*
X272055Y24665D01*
X272435Y24096D01*
X273157Y23614D01*
X274008Y23444D01*
X274561Y23554D01*
X274717Y22771D01*
X275199Y22050D01*
X275921Y21567D01*
X276772Y21398D01*
X277623Y21567D01*
X278344Y22050D01*
X278826Y22771D01*
X278952Y23402D01*
X279034Y23634D01*
X279476Y23769D01*
X279959Y23673D01*
X280810Y23842D01*
X281531Y24325D01*
X281834Y24777D01*
X282432Y24782D01*
X282680Y24412D01*
X283401Y23930D01*
X284252Y23760D01*
X284966Y23902D01*
X285505Y23643D01*
X285519Y23535D01*
X285917Y22573D01*
X286551Y21748D01*
X287377Y21114D01*
X288338Y20716D01*
X289370Y20580D01*
X290402Y20716D01*
X291364Y21114D01*
X292189Y21748D01*
X292823Y22573D01*
X293221Y23535D01*
X293357Y24567D01*
X293221Y25599D01*
X292823Y26560D01*
X292189Y27386D01*
X291364Y28020D01*
X290402Y28418D01*
X289370Y28554D01*
X288338Y28418D01*
X287377Y28020D01*
X286551Y27386D01*
X286506Y27327D01*
X286022Y27357D01*
X285826Y27750D01*
X285930Y27906D01*
X286076Y28642D01*
Y31589D01*
X286405Y31700D01*
X286576Y31728D01*
X287377Y31114D01*
X288338Y30716D01*
X289370Y30580D01*
X290402Y30716D01*
X291364Y31114D01*
X292189Y31748D01*
X292823Y32574D01*
X293221Y33535D01*
X293357Y34567D01*
X293221Y35599D01*
X292823Y36560D01*
X292189Y37386D01*
X291364Y38020D01*
X290402Y38418D01*
X289370Y38554D01*
X288338Y38418D01*
X287377Y38020D01*
X286551Y37386D01*
X285917Y36560D01*
X285519Y35599D01*
X285451Y35081D01*
X284996Y34875D01*
X284889Y34946D01*
X284154Y35092D01*
X284108Y35083D01*
X283951Y35873D01*
X283469Y36594D01*
X282748Y37076D01*
X281897Y37246D01*
X281046Y37076D01*
X280519Y36724D01*
X279887Y37147D01*
X279035Y37316D01*
X278184Y37147D01*
X277469Y36669D01*
X277439Y36675D01*
X277000Y36871D01*
X277027Y37008D01*
X276858Y37859D01*
X276376Y38580D01*
X275654Y39062D01*
X274803Y39232D01*
X274382Y39148D01*
X274187Y39619D01*
X274407Y39766D01*
X274889Y40488D01*
X275059Y41339D01*
X274889Y42190D01*
X274407Y42911D01*
X273686Y43393D01*
X272835Y43562D01*
X271984Y43393D01*
X271262Y42911D01*
X270780Y42190D01*
X270611Y41339D01*
X270780Y40488D01*
X270957Y40223D01*
X270802Y39850D01*
X270081Y39368D01*
X269599Y38646D01*
X269434Y37818D01*
X269418Y37786D01*
X269015Y37453D01*
X268736Y37549D01*
Y42209D01*
X268658Y42599D01*
X268438Y42930D01*
X268327Y43004D01*
Y45579D01*
X268438Y45653D01*
X268658Y45984D01*
X268736Y46374D01*
Y48673D01*
X268735Y48679D01*
X268736Y48684D01*
X268696Y48873D01*
X268658Y49064D01*
X268656Y49068D01*
X268654Y49073D01*
X268605Y49189D01*
X268936Y49689D01*
X274031D01*
Y53854D01*
X268454D01*
X268186Y54354D01*
X268249Y54448D01*
X268327Y54839D01*
Y58177D01*
X268438Y58252D01*
X268658Y58582D01*
X268736Y58972D01*
Y61272D01*
X268735Y61277D01*
X268736Y61282D01*
X268696Y61472D01*
X268658Y61662D01*
X268656Y61667D01*
X268654Y61672D01*
X268605Y61787D01*
X268936Y62287D01*
X274031D01*
Y66453D01*
X268682D01*
X268482Y66720D01*
X268416Y66953D01*
X268473Y67037D01*
X268654Y67462D01*
X268656Y67467D01*
X268658Y67472D01*
X268696Y67662D01*
X268736Y67852D01*
X268735Y67857D01*
X268736Y67862D01*
Y74988D01*
X269355Y75111D01*
X270076Y75593D01*
X270559Y76314D01*
X270728Y77165D01*
X270559Y78016D01*
X270372Y78295D01*
X270673Y78746D01*
X270965Y78688D01*
X271401Y78774D01*
X271568Y77935D01*
X272050Y77213D01*
X272771Y76731D01*
X273622Y76562D01*
X273909Y76619D01*
X274028Y76019D01*
X274510Y75298D01*
X275232Y74815D01*
X276083Y74646D01*
X276934Y74815D01*
X277655Y75298D01*
X278137Y76019D01*
X278264Y76657D01*
X278740Y76562D01*
X279027Y76619D01*
X279146Y76019D01*
X279628Y75298D01*
X280350Y74815D01*
X281201Y74646D01*
X282052Y74815D01*
X282773Y75298D01*
X283255Y76019D01*
X283425Y76870D01*
X283255Y77721D01*
X282773Y78443D01*
X282436Y78668D01*
Y79168D01*
X282560Y79251D01*
X282977Y79874D01*
X283123Y80610D01*
Y85138D01*
X282977Y85874D01*
X282560Y86497D01*
X281937Y86914D01*
X281201Y87061D01*
X280465Y86914D01*
X279921Y86551D01*
X279378Y86914D01*
X278642Y87061D01*
X277906Y86914D01*
X277362Y86551D01*
X276818Y86914D01*
X276083Y87061D01*
X275347Y86914D01*
X274803Y86551D01*
X274259Y86914D01*
X273524Y87061D01*
X273172Y86991D01*
X273019Y87761D01*
X272537Y88482D01*
X271816Y88964D01*
X270965Y89133D01*
X270113Y88964D01*
X269392Y88482D01*
X269236Y88248D01*
X268736Y88400D01*
Y100006D01*
X268898Y100138D01*
X269749Y100308D01*
X270470Y100790D01*
X270952Y101511D01*
X271122Y102362D01*
X271050Y102720D01*
X271700Y102850D01*
X272244Y103213D01*
X272788Y102850D01*
X273524Y102703D01*
X274259Y102850D01*
X274803Y103213D01*
X275329Y102862D01*
Y100159D01*
X275253Y100144D01*
X274532Y99662D01*
X274488Y99597D01*
X273887D01*
X273620Y99998D01*
X272898Y100480D01*
X272047Y100649D01*
X271196Y100480D01*
X270475Y99998D01*
X269993Y99276D01*
X269823Y98425D01*
X269993Y97574D01*
X270475Y96853D01*
X271196Y96371D01*
X272047Y96201D01*
X272898Y96371D01*
X273620Y96853D01*
X273663Y96918D01*
X274264D01*
X274532Y96517D01*
X275253Y96035D01*
X276104Y95866D01*
X276955Y96035D01*
X277677Y96517D01*
X278159Y97239D01*
X278210Y97495D01*
X278579Y97554D01*
X278728Y97538D01*
X279186Y96853D01*
X279907Y96371D01*
X280758Y96201D01*
X281609Y96371D01*
X282331Y96853D01*
X282813Y97574D01*
X282982Y98425D01*
X282813Y99276D01*
X282331Y99998D01*
X281744Y100390D01*
Y101507D01*
X282244Y101637D01*
X282909Y101193D01*
X283760Y101024D01*
X284611Y101193D01*
X285332Y101675D01*
X285814Y102397D01*
X285984Y103248D01*
X285814Y104099D01*
X285632Y104372D01*
X285683Y104626D01*
Y109153D01*
X285536Y109889D01*
X285401Y110091D01*
X285431Y110239D01*
X285913Y110960D01*
X286082Y111811D01*
X285913Y112662D01*
X285431Y113383D01*
X284709Y113866D01*
X283858Y114035D01*
X283007Y113866D01*
X282286Y113383D01*
X281804Y112662D01*
X281786Y112576D01*
X280188D01*
X278586Y114178D01*
X278338Y114344D01*
X278045Y114402D01*
X274273D01*
X274006Y114902D01*
X274200Y115192D01*
X274370Y116043D01*
X274200Y116894D01*
X273718Y117616D01*
X272997Y118098D01*
X272146Y118267D01*
X271295Y118098D01*
X270573Y117616D01*
X270091Y116894D01*
X269922Y116043D01*
X270091Y115192D01*
X270573Y114471D01*
X271295Y113989D01*
X272146Y113820D01*
X272297Y113850D01*
X272544Y113389D01*
X270424Y111269D01*
X270258Y111021D01*
X270240Y110932D01*
X270229Y110930D01*
X269685Y110567D01*
X269141Y110930D01*
X268736Y111011D01*
Y118882D01*
X294473D01*
Y803D01*
D02*
G37*
G36*
X195831Y108690D02*
X195399Y108258D01*
X195353Y108190D01*
X195285Y108144D01*
X189493Y102353D01*
X189448Y102285D01*
X189380Y102239D01*
X186586Y99445D01*
X170292D01*
X170079Y99487D01*
X169866Y99445D01*
X167930D01*
X167717Y99487D01*
X167503Y99445D01*
X165567D01*
X165354Y99487D01*
X165141Y99445D01*
X163205D01*
X162992Y99487D01*
X162779Y99445D01*
X160843D01*
X160630Y99487D01*
X160417Y99445D01*
X158481D01*
X158268Y99487D01*
X158055Y99445D01*
X156119D01*
X155905Y99487D01*
X155692Y99445D01*
X153756D01*
X153543Y99487D01*
X153330Y99445D01*
X151394D01*
X151181Y99487D01*
X150968Y99445D01*
X149032D01*
X148819Y99487D01*
X148606Y99445D01*
X146670D01*
X146457Y99487D01*
X146244Y99445D01*
X144308D01*
X144095Y99487D01*
X143881Y99445D01*
X141945D01*
X141732Y99487D01*
X141519Y99445D01*
X139583D01*
X139370Y99487D01*
X139157Y99445D01*
X137795D01*
X137405Y99367D01*
X137285Y99287D01*
X137166Y99367D01*
X136776Y99445D01*
X90173Y99445D01*
X89783Y99367D01*
X89452Y99146D01*
X89231Y98815D01*
X89154Y98425D01*
Y98425D01*
X80138D01*
Y98425D01*
X80060Y98815D01*
X79839Y99146D01*
X79508Y99367D01*
X79118Y99445D01*
X48047Y99445D01*
X47657Y99367D01*
X47326Y99146D01*
X47105Y98815D01*
X47028Y98425D01*
Y98425D01*
X38012D01*
Y114601D01*
X38028Y114681D01*
X38028Y118882D01*
X195831D01*
Y108690D01*
D02*
G37*
G36*
X221654Y89370D02*
X197244D01*
X186614Y78740D01*
X179637D01*
X179485Y79240D01*
X179919Y79530D01*
X180401Y80251D01*
X180570Y81102D01*
X180401Y81953D01*
X179919Y82675D01*
X179198Y83157D01*
X178347Y83326D01*
X177495Y83157D01*
X176774Y82675D01*
X176292Y81953D01*
X176123Y81102D01*
X176292Y80251D01*
X176774Y79530D01*
X177208Y79240D01*
X177056Y78740D01*
X171093D01*
X170937Y78844D01*
X170079Y79015D01*
X169220Y78844D01*
X169065Y78740D01*
X168730D01*
X168575Y78844D01*
X167717Y79015D01*
X166858Y78844D01*
X166703Y78740D01*
X166368D01*
X166213Y78844D01*
X165354Y79015D01*
X164496Y78844D01*
X164340Y78740D01*
X164006D01*
X163850Y78844D01*
X162992Y79015D01*
X162134Y78844D01*
X161978Y78740D01*
X161644D01*
X161488Y78844D01*
X160630Y79015D01*
X159772Y78844D01*
X159616Y78740D01*
X159282D01*
X159126Y78844D01*
X158268Y79015D01*
X157409Y78844D01*
X157254Y78740D01*
X156919D01*
X156764Y78844D01*
X155905Y79015D01*
X155047Y78844D01*
X154892Y78740D01*
X154557D01*
X154402Y78844D01*
X153543Y79015D01*
X152685Y78844D01*
X152530Y78740D01*
X152195D01*
X152040Y78844D01*
X151181Y79015D01*
X150323Y78844D01*
X150167Y78740D01*
X149833D01*
X149677Y78844D01*
X148819Y79015D01*
X147960Y78844D01*
X147805Y78740D01*
X147470D01*
X147315Y78844D01*
X146457Y79015D01*
X145598Y78844D01*
X145443Y78740D01*
X145108D01*
X144953Y78844D01*
X144095Y79015D01*
X143714Y78939D01*
X143519Y79410D01*
X143699Y79530D01*
X144181Y80251D01*
X144350Y81102D01*
X144181Y81953D01*
X143699Y82675D01*
X142977Y83157D01*
X142126Y83326D01*
X141275Y83157D01*
X140553Y82675D01*
X140071Y81953D01*
X139902Y81102D01*
X140071Y80251D01*
X140553Y79530D01*
X140791Y79371D01*
X140692Y78952D01*
X140253Y78827D01*
X140228Y78844D01*
X139370Y79015D01*
X138512Y78844D01*
X138356Y78740D01*
X137795D01*
X137795Y98425D01*
X187008D01*
X190101Y101518D01*
X190169Y101564D01*
X190214Y101632D01*
X196006Y107423D01*
X196074Y107469D01*
X196120Y107537D01*
X196850Y108268D01*
Y118882D01*
X221654D01*
Y89370D01*
D02*
G37*
G36*
Y69291D02*
X197244D01*
X189764Y61811D01*
X180808D01*
X180491Y62198D01*
X180570Y62598D01*
X180401Y63449D01*
X179919Y64171D01*
X179198Y64653D01*
X178347Y64822D01*
X177495Y64653D01*
X176774Y64171D01*
X176292Y63449D01*
X176123Y62598D01*
X176202Y62198D01*
X175885Y61811D01*
X144092D01*
X143956Y62493D01*
X143474Y63214D01*
X142752Y63696D01*
X141901Y63866D01*
X141050Y63696D01*
X140329Y63214D01*
X139847Y62493D01*
X139711Y61811D01*
X137795D01*
Y77721D01*
X137795Y77721D01*
X138356D01*
X138455Y77740D01*
X138555D01*
X138648Y77779D01*
X138747Y77798D01*
X138830Y77854D01*
X138894Y77881D01*
X139257Y77953D01*
X139483D01*
X140000Y77850D01*
X140054Y77827D01*
X140096Y77827D01*
X140136Y77815D01*
X140294Y77827D01*
X140452Y77827D01*
X140491Y77843D01*
X140532Y77847D01*
X140905Y77953D01*
X143482D01*
X143515Y77939D01*
X143616D01*
X143714Y77920D01*
X143813Y77939D01*
X143913D01*
X143982Y77953D01*
X144207D01*
X144571Y77881D01*
X144635Y77854D01*
X144718Y77798D01*
X144817Y77779D01*
X144909Y77740D01*
X145010D01*
X145108Y77721D01*
X145443D01*
X145541Y77740D01*
X145642D01*
X145735Y77779D01*
X145833Y77798D01*
X145917Y77854D01*
X145981Y77881D01*
X146344Y77953D01*
X146569D01*
X146933Y77881D01*
X146997Y77854D01*
X147080Y77798D01*
X147179Y77779D01*
X147272Y77740D01*
X147372D01*
X147470Y77721D01*
X147805D01*
X147904Y77740D01*
X148004D01*
X148097Y77779D01*
X148195Y77798D01*
X148279Y77854D01*
X148343Y77881D01*
X148706Y77953D01*
X148932D01*
X149295Y77881D01*
X149359Y77854D01*
X149443Y77798D01*
X149541Y77779D01*
X149634Y77740D01*
X149734D01*
X149833Y77721D01*
X150167D01*
X150266Y77740D01*
X150366D01*
X150459Y77779D01*
X150557Y77798D01*
X150641Y77854D01*
X150705Y77881D01*
X151068Y77953D01*
X151294D01*
X151657Y77881D01*
X151721Y77854D01*
X151805Y77798D01*
X151903Y77779D01*
X151996Y77740D01*
X152096D01*
X152195Y77721D01*
X152530D01*
X152628Y77740D01*
X152728D01*
X152821Y77779D01*
X152920Y77798D01*
X153003Y77854D01*
X153067Y77881D01*
X153431Y77953D01*
X153656D01*
X154019Y77881D01*
X154083Y77854D01*
X154167Y77798D01*
X154265Y77779D01*
X154358Y77740D01*
X154459D01*
X154557Y77721D01*
X154892D01*
X154990Y77740D01*
X155091D01*
X155183Y77779D01*
X155282Y77798D01*
X155365Y77854D01*
X155429Y77881D01*
X155793Y77953D01*
X156018D01*
X156382Y77881D01*
X156446Y77854D01*
X156529Y77798D01*
X156628Y77779D01*
X156720Y77740D01*
X156821D01*
X156919Y77721D01*
X157254D01*
X157352Y77740D01*
X157453D01*
X157546Y77779D01*
X157644Y77798D01*
X157728Y77854D01*
X157791Y77881D01*
X158155Y77953D01*
X158380D01*
X158744Y77881D01*
X158808Y77854D01*
X158891Y77798D01*
X158990Y77779D01*
X159083Y77740D01*
X159183D01*
X159282Y77721D01*
X159616D01*
X159715Y77740D01*
X159815D01*
X159908Y77779D01*
X160006Y77798D01*
X160090Y77854D01*
X160154Y77881D01*
X160517Y77953D01*
X160743D01*
X161106Y77881D01*
X161170Y77854D01*
X161253Y77798D01*
X161352Y77779D01*
X161445Y77740D01*
X161545D01*
X161644Y77721D01*
X161978D01*
X162077Y77740D01*
X162177D01*
X162270Y77779D01*
X162369Y77798D01*
X162452Y77854D01*
X162516Y77881D01*
X162879Y77953D01*
X163105D01*
X163468Y77881D01*
X163532Y77854D01*
X163616Y77798D01*
X163714Y77779D01*
X163807Y77740D01*
X163907D01*
X164006Y77721D01*
X164340D01*
X164439Y77740D01*
X164539D01*
X164632Y77779D01*
X164731Y77798D01*
X164814Y77854D01*
X164878Y77881D01*
X165242Y77953D01*
X165467D01*
X165831Y77881D01*
X165894Y77854D01*
X165978Y77798D01*
X166077Y77779D01*
X166169Y77740D01*
X166270D01*
X166368Y77721D01*
X166703D01*
X166801Y77740D01*
X166902D01*
X166994Y77779D01*
X167093Y77798D01*
X167176Y77854D01*
X167240Y77881D01*
X167604Y77953D01*
X167829D01*
X168193Y77881D01*
X168257Y77854D01*
X168340Y77798D01*
X168439Y77779D01*
X168531Y77740D01*
X168632D01*
X168730Y77721D01*
X169065D01*
X169163Y77740D01*
X169264D01*
X169357Y77779D01*
X169455Y77798D01*
X169539Y77854D01*
X169603Y77881D01*
X169966Y77953D01*
X170192D01*
X170555Y77881D01*
X170619Y77854D01*
X170702Y77798D01*
X170801Y77779D01*
X170894Y77740D01*
X170994D01*
X171093Y77721D01*
X177056D01*
X177105Y77730D01*
X177156Y77725D01*
X177299Y77769D01*
X177446Y77798D01*
X177488Y77826D01*
X177536Y77841D01*
X177652Y77936D01*
X177677Y77953D01*
X179016D01*
X179041Y77936D01*
X179156Y77841D01*
X179205Y77826D01*
X179247Y77798D01*
X179394Y77769D01*
X179537Y77725D01*
X179587Y77730D01*
X179637Y77721D01*
X186614D01*
X187004Y77798D01*
X187335Y78019D01*
X197666Y88350D01*
X221654D01*
Y69291D01*
D02*
G37*
G36*
X251969Y55118D02*
X222835D01*
Y62992D01*
X251969D01*
Y55118D01*
D02*
G37*
G36*
X37008Y114681D02*
X36992D01*
Y94374D01*
X48047D01*
Y98425D01*
X79118Y98425D01*
Y94374D01*
X90173D01*
Y98425D01*
X136776Y98425D01*
X136776Y78740D01*
X136853Y78350D01*
X136933Y78230D01*
X136853Y78111D01*
X136776Y77721D01*
Y61811D01*
X136853Y61421D01*
X137074Y61090D01*
X137303Y60937D01*
X137405Y60869D01*
X137795Y60791D01*
X139711D01*
X139810Y60811D01*
X139843D01*
X139847Y60791D01*
X140329Y60069D01*
X141050Y59587D01*
X141901Y59418D01*
X142752Y59587D01*
X143474Y60069D01*
X143956Y60791D01*
X143960Y60811D01*
X143993D01*
X144092Y60791D01*
X149787D01*
X150000Y60749D01*
X150213Y60791D01*
X152149D01*
X152362Y60749D01*
X152575Y60791D01*
X154511D01*
X154724Y60749D01*
X154938Y60791D01*
X156874D01*
X157087Y60749D01*
X157300Y60791D01*
X159236D01*
X159449Y60749D01*
X159662Y60791D01*
X161598D01*
X161811Y60749D01*
X162024Y60791D01*
X163960D01*
X164173Y60749D01*
X164386Y60791D01*
X166322D01*
X166535Y60749D01*
X166749Y60791D01*
X168684D01*
X168898Y60749D01*
X169111Y60791D01*
X175885D01*
X175935Y60801D01*
X175985Y60796D01*
X176128Y60840D01*
X176275Y60869D01*
X176277Y60870D01*
X176457Y60937D01*
X176774Y61026D01*
X177495Y60544D01*
X178347Y60375D01*
X179198Y60544D01*
X179919Y61026D01*
X180236Y60937D01*
X180416Y60870D01*
X180418Y60869D01*
X180564Y60840D01*
X180708Y60796D01*
X180758Y60801D01*
X180808Y60791D01*
X189764D01*
X190154Y60869D01*
X190485Y61090D01*
X197666Y68272D01*
X221654D01*
Y49213D01*
X219879D01*
X218404Y50688D01*
X217908Y51019D01*
X217517Y51097D01*
X217372Y51617D01*
X217544Y51748D01*
X218177Y52574D01*
X218575Y53535D01*
X218711Y54567D01*
X218575Y55599D01*
X218177Y56560D01*
X217544Y57386D01*
X216718Y58020D01*
X215756Y58418D01*
X214724Y58554D01*
X213692Y58418D01*
X212731Y58020D01*
X211905Y57386D01*
X211272Y56560D01*
X210873Y55599D01*
X210738Y54567D01*
X210873Y53535D01*
X211272Y52574D01*
X211905Y51748D01*
X212086Y51609D01*
X211925Y51136D01*
X210318D01*
X208383Y53071D01*
X208575Y53535D01*
X208711Y54567D01*
X208575Y55599D01*
X208177Y56560D01*
X207544Y57386D01*
X206718Y58020D01*
X205756Y58418D01*
X204724Y58554D01*
X203693Y58418D01*
X202731Y58020D01*
X201905Y57386D01*
X201272Y56560D01*
X200873Y55599D01*
X200738Y54567D01*
X200873Y53535D01*
X201272Y52574D01*
X201905Y51748D01*
X202731Y51114D01*
X203693Y50716D01*
X203607Y50232D01*
X197273D01*
X190485Y57020D01*
X190154Y57241D01*
X189764Y57319D01*
X170292D01*
X170079Y57361D01*
X169866Y57319D01*
X167930D01*
X167717Y57361D01*
X167503Y57319D01*
X165568D01*
X165354Y57361D01*
X165141Y57319D01*
X163205D01*
X162992Y57361D01*
X162779Y57319D01*
X160843D01*
X160630Y57361D01*
X160417Y57319D01*
X158481D01*
X158268Y57361D01*
X158054Y57319D01*
X156119D01*
X155905Y57361D01*
X155692Y57319D01*
X153756D01*
X153543Y57361D01*
X153330Y57319D01*
X151394D01*
X151181Y57361D01*
X150968Y57319D01*
X149032D01*
X148819Y57361D01*
X148606Y57319D01*
X146670D01*
X146457Y57361D01*
X146244Y57319D01*
X144308D01*
X144095Y57361D01*
X143881Y57319D01*
X141946D01*
X141732Y57361D01*
X141519Y57319D01*
X139583D01*
X139370Y57361D01*
X139157Y57319D01*
X137795D01*
X137405Y57241D01*
X137074Y57020D01*
X136853Y56689D01*
X136776Y56299D01*
X136776Y40890D01*
X136776Y40390D01*
X136853Y39999D01*
X136933Y39880D01*
X136853Y39760D01*
X136776Y39370D01*
X136776Y19685D01*
X136276Y19685D01*
X90173Y19685D01*
Y24917D01*
X79118D01*
Y20083D01*
X78852Y19685D01*
X48047Y19685D01*
Y24917D01*
X36992D01*
Y4610D01*
X37008D01*
Y803D01*
X803D01*
Y118882D01*
X37008D01*
X37008Y114681D01*
D02*
G37*
G36*
X196850Y49213D02*
X207916D01*
X208604Y48525D01*
X209100Y48193D01*
X209685Y48077D01*
X216689D01*
X218997Y45769D01*
X219494Y45437D01*
X220079Y45321D01*
X221654D01*
Y30547D01*
X197273D01*
X187729Y40091D01*
X187398Y40312D01*
X187008Y40390D01*
X180603D01*
X180367Y40831D01*
X180401Y40881D01*
X180570Y41732D01*
X180401Y42583D01*
X179919Y43305D01*
X179198Y43787D01*
X178347Y43956D01*
X177495Y43787D01*
X176774Y43305D01*
X176292Y42583D01*
X176123Y41732D01*
X176292Y40881D01*
X176326Y40831D01*
X176090Y40390D01*
X170292D01*
X170079Y40432D01*
X169866Y40390D01*
X167930D01*
X167717Y40432D01*
X167503Y40390D01*
X165568D01*
X165354Y40432D01*
X165141Y40390D01*
X163205D01*
X162992Y40432D01*
X162779Y40390D01*
X160843D01*
X160630Y40432D01*
X160417Y40390D01*
X158481D01*
X158268Y40432D01*
X158054Y40390D01*
X156119D01*
X155905Y40432D01*
X155692Y40390D01*
X153756D01*
X153543Y40432D01*
X153330Y40390D01*
X151394D01*
X151181Y40432D01*
X150968Y40390D01*
X149032D01*
X148819Y40432D01*
X148606Y40390D01*
X146670D01*
X146457Y40432D01*
X146244Y40390D01*
X144453D01*
X144228Y40699D01*
X144181Y40881D01*
X144181Y40886D01*
X144350Y41732D01*
X144181Y42583D01*
X143699Y43305D01*
X142977Y43787D01*
X142126Y43956D01*
X141275Y43787D01*
X140553Y43305D01*
X140071Y42583D01*
X139902Y41732D01*
X140071Y40881D01*
X140105Y40831D01*
X139870Y40390D01*
X139583D01*
X139370Y40432D01*
X139157Y40390D01*
X137795D01*
X137795Y40890D01*
X137795Y56299D01*
X189764D01*
X196850Y49213D01*
D02*
G37*
G36*
X89231Y19295D02*
X89452Y18964D01*
X89783Y18743D01*
X90173Y18665D01*
X136276Y18665D01*
X136776Y18665D01*
X137166Y18743D01*
X137285Y18823D01*
X137405Y18743D01*
X137795Y18665D01*
X139736D01*
X139858Y18690D01*
X139982Y18695D01*
X140051Y18728D01*
X140127Y18743D01*
X140230Y18812D01*
X140342Y18865D01*
X140394Y18921D01*
X140457Y18964D01*
X140526Y19067D01*
X140610Y19159D01*
X140719Y19183D01*
X141275Y18812D01*
X142126Y18642D01*
X142977Y18812D01*
X143533Y19183D01*
X143642Y19159D01*
X143726Y19067D01*
X143795Y18964D01*
X143858Y18922D01*
X143910Y18865D01*
X144022Y18812D01*
X144125Y18743D01*
X144201Y18728D01*
X144270Y18695D01*
X144394Y18690D01*
X144516Y18665D01*
X176174Y18665D01*
X176321Y18695D01*
X176470Y18709D01*
X176515Y18733D01*
X176564Y18743D01*
X176689Y18826D01*
X176821Y18897D01*
X176853Y18936D01*
X176895Y18964D01*
X176978Y19089D01*
X177073Y19204D01*
X177381Y19282D01*
X177495Y19205D01*
X178347Y19036D01*
X179198Y19205D01*
X179312Y19282D01*
X179620Y19204D01*
X179715Y19089D01*
X179798Y18964D01*
X179840Y18936D01*
X179872Y18897D01*
X180004Y18826D01*
X180129Y18743D01*
X180178Y18733D01*
X180223Y18709D01*
X180372Y18695D01*
X180519Y18665D01*
X186585D01*
X191742Y13509D01*
X191810Y13464D01*
X191856Y13395D01*
X195831Y9420D01*
X195831Y803D01*
X38028D01*
Y4610D01*
X38012Y4689D01*
Y19685D01*
X47028D01*
Y19685D01*
X47105Y19295D01*
X47326Y18964D01*
X47657Y18743D01*
X48047Y18665D01*
X78852Y18665D01*
X78950Y18685D01*
X79051D01*
X79144Y18723D01*
X79242Y18743D01*
X79326Y18799D01*
X79418Y18837D01*
X79489Y18908D01*
X79573Y18964D01*
X79629Y19048D01*
X79700Y19119D01*
X79966Y19517D01*
X80004Y19610D01*
X80055Y19685D01*
X89154D01*
X89231Y19295D01*
D02*
G37*
G36*
X196850Y29528D02*
X221654D01*
X221654Y803D01*
X196850D01*
X196850Y9843D01*
X192577Y14116D01*
X192531Y14185D01*
X192463Y14230D01*
X187008Y19685D01*
X180519D01*
X180252Y20185D01*
X180401Y20409D01*
X180570Y21260D01*
X180401Y22111D01*
X179919Y22832D01*
X179198Y23314D01*
X178347Y23484D01*
X177495Y23314D01*
X176774Y22832D01*
X176292Y22111D01*
X176123Y21260D01*
X176292Y20409D01*
X176441Y20185D01*
X176174Y19685D01*
X144516Y19685D01*
X144214Y20185D01*
X144350Y20866D01*
X144181Y21717D01*
X143699Y22439D01*
X142977Y22921D01*
X142126Y23090D01*
X141275Y22921D01*
X140553Y22439D01*
X140071Y21717D01*
X139902Y20866D01*
X140038Y20185D01*
X139736Y19685D01*
X137795D01*
X137795Y39370D01*
X187008D01*
X196850Y29528D01*
D02*
G37*
%LPC*%
G36*
X261949Y93306D02*
X261098Y93137D01*
X260376Y92655D01*
X259894Y91934D01*
X259725Y91083D01*
X259894Y90232D01*
X260376Y89510D01*
X261098Y89028D01*
X261949Y88859D01*
X262800Y89028D01*
X263521Y89510D01*
X264003Y90232D01*
X264173Y91083D01*
X264003Y91934D01*
X263521Y92655D01*
X262800Y93137D01*
X261949Y93306D01*
D02*
G37*
G36*
X256709Y86433D02*
X248803D01*
Y78724D01*
X256709D01*
Y86433D01*
D02*
G37*
G36*
X245685Y83972D02*
X240142D01*
Y82679D01*
X240126Y82669D01*
X239640Y81941D01*
X239470Y81083D01*
X239640Y80224D01*
X240126Y79497D01*
X240142Y79486D01*
Y78232D01*
X245685D01*
Y83972D01*
D02*
G37*
G36*
X260252Y67437D02*
X254709D01*
Y65754D01*
X254621Y65622D01*
X254450Y64764D01*
X254621Y63905D01*
X254709Y63774D01*
Y61697D01*
X260252D01*
Y67437D01*
D02*
G37*
G36*
Y54839D02*
X254709D01*
Y53156D01*
X254621Y53024D01*
X254450Y52165D01*
X254621Y51307D01*
X254709Y51175D01*
Y49098D01*
X260252D01*
Y54839D01*
D02*
G37*
G36*
X256709Y28953D02*
X248803D01*
Y21244D01*
X248412Y20980D01*
X247622D01*
Y16815D01*
X253724D01*
Y16028D01*
X259268D01*
Y21768D01*
X256709D01*
Y28953D01*
D02*
G37*
G36*
X288976Y113641D02*
X288125Y113472D01*
X287404Y112990D01*
X286922Y112268D01*
X286753Y111417D01*
X286922Y110566D01*
X287404Y109845D01*
X288125Y109363D01*
X288976Y109194D01*
X289827Y109363D01*
X290549Y109845D01*
X291031Y110566D01*
X291200Y111417D01*
X291031Y112268D01*
X290549Y112990D01*
X289827Y113472D01*
X288976Y113641D01*
D02*
G37*
G36*
X281042Y93099D02*
X280191Y92930D01*
X279470Y92447D01*
X278988Y91726D01*
X278818Y90875D01*
X278988Y90024D01*
X279470Y89302D01*
X280191Y88820D01*
X281042Y88651D01*
X281893Y88820D01*
X282615Y89302D01*
X282828Y89621D01*
X283299Y89426D01*
X283209Y88976D01*
X283379Y88125D01*
X283861Y87404D01*
X284582Y86922D01*
X285433Y86752D01*
X285462Y86758D01*
X285818Y86319D01*
X285519Y85599D01*
X285383Y84567D01*
X285519Y83535D01*
X285917Y82573D01*
X286551Y81748D01*
X287377Y81114D01*
X288338Y80716D01*
X289370Y80580D01*
X290402Y80716D01*
X291364Y81114D01*
X292189Y81748D01*
X292823Y82573D01*
X293221Y83535D01*
X293357Y84567D01*
X293221Y85599D01*
X292823Y86560D01*
X292189Y87386D01*
X291364Y88020D01*
X290402Y88418D01*
X289370Y88554D01*
X288338Y88418D01*
X288030Y88290D01*
X287592Y88650D01*
X287657Y88976D01*
X287488Y89827D01*
X287006Y90549D01*
X286284Y91031D01*
X285433Y91200D01*
X284582Y91031D01*
X283861Y90549D01*
X283647Y90230D01*
X283176Y90425D01*
X283266Y90875D01*
X283097Y91726D01*
X282615Y92447D01*
X281893Y92930D01*
X281042Y93099D01*
D02*
G37*
G36*
X289370Y78554D02*
X288338Y78418D01*
X287377Y78020D01*
X286551Y77386D01*
X285917Y76560D01*
X285519Y75599D01*
X285383Y74567D01*
X285519Y73535D01*
X285917Y72574D01*
X286551Y71748D01*
X287377Y71114D01*
X288338Y70716D01*
X289370Y70580D01*
X290402Y70716D01*
X291364Y71114D01*
X292189Y71748D01*
X292823Y72574D01*
X293221Y73535D01*
X293357Y74567D01*
X293221Y75599D01*
X292823Y76560D01*
X292189Y77386D01*
X291364Y78020D01*
X290402Y78418D01*
X289370Y78554D01*
D02*
G37*
G36*
Y68554D02*
X288338Y68418D01*
X287377Y68020D01*
X286551Y67386D01*
X285930Y66576D01*
X285449Y66453D01*
Y66453D01*
X285449Y66453D01*
X282796D01*
X282087Y66594D01*
X281377Y66453D01*
X278724D01*
Y63030D01*
X278224Y62721D01*
X277559Y62854D01*
X276708Y62685D01*
X275987Y62202D01*
X275504Y61481D01*
X275335Y60630D01*
X275504Y59779D01*
X275987Y59057D01*
X276708Y58575D01*
X277559Y58406D01*
X278228Y58539D01*
X278724Y58547D01*
X279012Y58166D01*
X279076Y58047D01*
X278845Y57702D01*
X278684Y56890D01*
X278845Y56077D01*
X279306Y55388D01*
X279995Y54928D01*
X280807Y54766D01*
X283366D01*
X284179Y54928D01*
X284868Y55388D01*
X285016Y55611D01*
X285497Y55430D01*
X285383Y54567D01*
X285411Y54354D01*
X284973Y53854D01*
X282796D01*
X282087Y53996D01*
X281377Y53854D01*
X278724D01*
Y50096D01*
X278677Y50086D01*
X277955Y49604D01*
X277473Y48882D01*
X277304Y48031D01*
X277473Y47181D01*
X277955Y46459D01*
X278677Y45977D01*
X278724Y45967D01*
Y45949D01*
X278818D01*
X279040Y45395D01*
X278845Y45104D01*
X278684Y44291D01*
X278845Y43479D01*
X279306Y42790D01*
X279995Y42329D01*
X280807Y42168D01*
X283366D01*
X284179Y42329D01*
X284868Y42790D01*
X285126Y43177D01*
X285690Y43121D01*
X285917Y42573D01*
X286551Y41748D01*
X287377Y41114D01*
X288338Y40716D01*
X289370Y40580D01*
X290402Y40716D01*
X291364Y41114D01*
X292189Y41748D01*
X292823Y42573D01*
X293221Y43535D01*
X293357Y44567D01*
X293221Y45599D01*
X292823Y46560D01*
X292189Y47386D01*
X291364Y48020D01*
X290402Y48418D01*
X289370Y48554D01*
X288338Y48418D01*
X287377Y48020D01*
X286551Y47386D01*
X285949Y46601D01*
X285893Y46601D01*
X285449Y46936D01*
Y49689D01*
Y52198D01*
X285893Y52533D01*
X285949Y52533D01*
X286551Y51748D01*
X287377Y51114D01*
X288338Y50716D01*
X289370Y50580D01*
X290402Y50716D01*
X291364Y51114D01*
X292189Y51748D01*
X292823Y52574D01*
X293221Y53535D01*
X293357Y54567D01*
X293221Y55599D01*
X292823Y56560D01*
X292189Y57386D01*
X291364Y58020D01*
X290402Y58418D01*
X289370Y58554D01*
X288338Y58418D01*
X287377Y58020D01*
X286551Y57386D01*
X285917Y56560D01*
X285464Y56760D01*
X285490Y56890D01*
X285328Y57702D01*
X285098Y58047D01*
X285365Y58547D01*
X285449D01*
Y62198D01*
X285893Y62533D01*
X285949Y62533D01*
X286551Y61748D01*
X287377Y61114D01*
X288338Y60716D01*
X289370Y60580D01*
X290402Y60716D01*
X291364Y61114D01*
X292189Y61748D01*
X292823Y62573D01*
X293221Y63535D01*
X293357Y64567D01*
X293221Y65599D01*
X292823Y66560D01*
X292189Y67386D01*
X291364Y68020D01*
X290402Y68418D01*
X289370Y68554D01*
D02*
G37*
G36*
X275858Y16255D02*
X275007Y16086D01*
X274286Y15604D01*
X273804Y14882D01*
X273635Y14031D01*
X273804Y13180D01*
X274286Y12459D01*
X275007Y11977D01*
X275858Y11808D01*
X276709Y11977D01*
X277431Y12459D01*
X277913Y13180D01*
X278082Y14031D01*
X277913Y14882D01*
X277431Y15604D01*
X276709Y16086D01*
X275858Y16255D01*
D02*
G37*
G36*
X10646Y108520D02*
X2740D01*
Y100614D01*
X10646D01*
Y108520D01*
D02*
G37*
G36*
X6693Y98554D02*
X5661Y98418D01*
X4699Y98020D01*
X3874Y97386D01*
X3240Y96560D01*
X2842Y95599D01*
X2706Y94567D01*
X2842Y93535D01*
X3240Y92573D01*
X3874Y91748D01*
X4699Y91114D01*
X5661Y90716D01*
X6693Y90580D01*
X7725Y90716D01*
X8686Y91114D01*
X9512Y91748D01*
X10146Y92573D01*
X10544Y93535D01*
X10680Y94567D01*
X10544Y95599D01*
X10146Y96560D01*
X9512Y97386D01*
X8686Y98020D01*
X7725Y98418D01*
X6693Y98554D01*
D02*
G37*
G36*
Y88554D02*
X5661Y88418D01*
X4699Y88020D01*
X3874Y87386D01*
X3240Y86560D01*
X2842Y85599D01*
X2706Y84567D01*
X2842Y83535D01*
X3240Y82573D01*
X3874Y81748D01*
X4699Y81114D01*
X5661Y80716D01*
X6693Y80580D01*
X7725Y80716D01*
X8686Y81114D01*
X9512Y81748D01*
X10146Y82573D01*
X10544Y83535D01*
X10680Y84567D01*
X10544Y85599D01*
X10146Y86560D01*
X9512Y87386D01*
X8686Y88020D01*
X7725Y88418D01*
X6693Y88554D01*
D02*
G37*
G36*
Y78554D02*
X5661Y78418D01*
X4699Y78020D01*
X3874Y77386D01*
X3240Y76560D01*
X2842Y75599D01*
X2706Y74567D01*
X2842Y73535D01*
X3240Y72574D01*
X3874Y71748D01*
X4699Y71114D01*
X5661Y70716D01*
X6693Y70580D01*
X7725Y70716D01*
X8686Y71114D01*
X9512Y71748D01*
X10146Y72574D01*
X10544Y73535D01*
X10680Y74567D01*
X10544Y75599D01*
X10146Y76560D01*
X9512Y77386D01*
X8686Y78020D01*
X7725Y78418D01*
X6693Y78554D01*
D02*
G37*
G36*
Y68554D02*
X5661Y68418D01*
X4699Y68020D01*
X3874Y67386D01*
X3240Y66560D01*
X2842Y65599D01*
X2706Y64567D01*
X2842Y63535D01*
X3240Y62573D01*
X3874Y61748D01*
X4699Y61114D01*
X5661Y60716D01*
X6693Y60580D01*
X7725Y60716D01*
X8686Y61114D01*
X9512Y61748D01*
X10146Y62573D01*
X10544Y63535D01*
X10680Y64567D01*
X10544Y65599D01*
X10146Y66560D01*
X9512Y67386D01*
X8686Y68020D01*
X7725Y68418D01*
X6693Y68554D01*
D02*
G37*
G36*
Y58554D02*
X5661Y58418D01*
X4699Y58020D01*
X3874Y57386D01*
X3240Y56560D01*
X2842Y55599D01*
X2706Y54567D01*
X2842Y53535D01*
X3240Y52574D01*
X3874Y51748D01*
X4699Y51114D01*
X5661Y50716D01*
X6693Y50580D01*
X7725Y50716D01*
X8686Y51114D01*
X9512Y51748D01*
X10146Y52574D01*
X10544Y53535D01*
X10680Y54567D01*
X10544Y55599D01*
X10146Y56560D01*
X9512Y57386D01*
X8686Y58020D01*
X7725Y58418D01*
X6693Y58554D01*
D02*
G37*
G36*
Y48554D02*
X5661Y48418D01*
X4699Y48020D01*
X3874Y47386D01*
X3240Y46560D01*
X2842Y45599D01*
X2706Y44567D01*
X2842Y43535D01*
X3240Y42573D01*
X3874Y41748D01*
X4699Y41114D01*
X5661Y40716D01*
X6693Y40580D01*
X7725Y40716D01*
X8686Y41114D01*
X9512Y41748D01*
X10146Y42573D01*
X10544Y43535D01*
X10680Y44567D01*
X10544Y45599D01*
X10146Y46560D01*
X9512Y47386D01*
X8686Y48020D01*
X7725Y48418D01*
X6693Y48554D01*
D02*
G37*
G36*
Y38554D02*
X5661Y38418D01*
X4699Y38020D01*
X3874Y37386D01*
X3240Y36560D01*
X2842Y35599D01*
X2706Y34567D01*
X2842Y33535D01*
X3240Y32574D01*
X3874Y31748D01*
X4699Y31114D01*
X5661Y30716D01*
X6693Y30580D01*
X7725Y30716D01*
X8686Y31114D01*
X9512Y31748D01*
X10146Y32574D01*
X10544Y33535D01*
X10680Y34567D01*
X10544Y35599D01*
X10146Y36560D01*
X9512Y37386D01*
X8686Y38020D01*
X7725Y38418D01*
X6693Y38554D01*
D02*
G37*
G36*
Y28554D02*
X5661Y28418D01*
X4699Y28020D01*
X3874Y27386D01*
X3240Y26560D01*
X2842Y25599D01*
X2706Y24567D01*
X2842Y23535D01*
X3240Y22573D01*
X3874Y21748D01*
X4699Y21114D01*
X5661Y20716D01*
X6693Y20580D01*
X7725Y20716D01*
X8686Y21114D01*
X9512Y21748D01*
X10146Y22573D01*
X10544Y23535D01*
X10680Y24567D01*
X10544Y25599D01*
X10146Y26560D01*
X9512Y27386D01*
X8686Y28020D01*
X7725Y28418D01*
X6693Y28554D01*
D02*
G37*
G36*
Y18554D02*
X5661Y18418D01*
X4699Y18020D01*
X3874Y17386D01*
X3240Y16560D01*
X2842Y15599D01*
X2706Y14567D01*
X2842Y13535D01*
X3240Y12573D01*
X3874Y11748D01*
X4699Y11114D01*
X5661Y10716D01*
X6693Y10580D01*
X7725Y10716D01*
X8686Y11114D01*
X9512Y11748D01*
X10146Y12573D01*
X10544Y13535D01*
X10680Y14567D01*
X10544Y15599D01*
X10146Y16560D01*
X9512Y17386D01*
X8686Y18020D01*
X7725Y18418D01*
X6693Y18554D01*
D02*
G37*
%LPD*%
D15*
X254724Y73228D02*
D03*
X262008D02*
D03*
X236221D02*
D03*
X243504D02*
D03*
X221555Y19685D02*
D03*
X228839D02*
D03*
X221555Y39370D02*
D03*
X228839D02*
D03*
X221555Y79134D02*
D03*
X228839D02*
D03*
X221654Y99213D02*
D03*
X228937D02*
D03*
D16*
X282087Y44291D02*
D03*
Y56890D02*
D03*
D17*
Y48031D02*
D03*
Y51772D02*
D03*
X270669D02*
D03*
Y44291D02*
D03*
X282087Y60630D02*
D03*
Y64370D02*
D03*
X270669D02*
D03*
Y56890D02*
D03*
D18*
X248524Y51555D02*
D03*
D19*
Y56555D02*
D03*
Y61555D02*
D03*
Y66555D02*
D03*
X226279Y51555D02*
D03*
Y56555D02*
D03*
Y61555D02*
D03*
Y66555D02*
D03*
D20*
X252756Y4626D02*
D03*
Y11909D02*
D03*
X252756Y82579D02*
D03*
X252756Y89862D02*
D03*
Y25098D02*
D03*
Y32382D02*
D03*
Y102756D02*
D03*
Y110039D02*
D03*
D21*
X263779Y18898D02*
D03*
X256496D02*
D03*
X241732Y13780D02*
D03*
X234449D02*
D03*
X241732Y3937D02*
D03*
X234449D02*
D03*
X263878Y38976D02*
D03*
X256594D02*
D03*
X241831Y33858D02*
D03*
X234547Y33858D02*
D03*
X241831Y23228D02*
D03*
X234547Y23228D02*
D03*
X264764Y51968D02*
D03*
X257480D02*
D03*
X262697Y96063D02*
D03*
X255413D02*
D03*
X242913Y90945D02*
D03*
X235630D02*
D03*
X242913Y81102D02*
D03*
X235630D02*
D03*
X262598Y116142D02*
D03*
X255315D02*
D03*
X242913Y111024D02*
D03*
X235630D02*
D03*
X242913Y101181D02*
D03*
X235630D02*
D03*
X264764Y64567D02*
D03*
X257480D02*
D03*
D22*
X242126Y18898D02*
D03*
X250787D02*
D03*
X238976Y38976D02*
D03*
X247638Y38976D02*
D03*
X240158Y96063D02*
D03*
X248819D02*
D03*
X240158Y116142D02*
D03*
X248819D02*
D03*
D23*
X266240Y6890D02*
D03*
X268799D02*
D03*
X271358D02*
D03*
X273917D02*
D03*
X276476D02*
D03*
X279035D02*
D03*
X281594D02*
D03*
X284154D02*
D03*
X266240Y30906D02*
D03*
X268799D02*
D03*
X271358D02*
D03*
X273917D02*
D03*
X276476D02*
D03*
X279035D02*
D03*
X281594D02*
D03*
X284154D02*
D03*
X283760Y106890D02*
D03*
X281201D02*
D03*
X278642D02*
D03*
X276083D02*
D03*
X273524D02*
D03*
X270965D02*
D03*
X268406D02*
D03*
X265846D02*
D03*
X283760Y82874D02*
D03*
X281201D02*
D03*
X278642D02*
D03*
X276083D02*
D03*
X273524D02*
D03*
X270965D02*
D03*
X268406D02*
D03*
X265846D02*
D03*
D24*
X84646Y14764D02*
D03*
Y50591D02*
D03*
X42520Y14764D02*
D03*
Y50591D02*
D03*
X84646Y104527D02*
D03*
Y68701D02*
D03*
X42520Y104527D02*
D03*
Y68701D02*
D03*
D37*
X273873Y113637D02*
X278045D01*
X279871Y111811D01*
X270965Y110728D02*
X273873Y113637D01*
X270965Y106890D02*
Y110728D01*
X281201Y76870D02*
Y82874D01*
X283760Y103248D02*
Y106890D01*
X279871Y111811D02*
X283858D01*
X268455Y82726D02*
X268504Y82776D01*
X268455Y77215D02*
Y82726D01*
Y77215D02*
X268504Y77165D01*
X268406Y82874D02*
X268504Y82776D01*
X276083Y76870D02*
Y82874D01*
X278642D02*
X278691Y82825D01*
Y78835D02*
Y82825D01*
Y78835D02*
X278740Y78786D01*
X270965Y82874D02*
Y86910D01*
X273524Y82874D02*
X273573Y82825D01*
Y78835D02*
Y82825D01*
Y78835D02*
X273622Y78786D01*
X276083Y106890D02*
X276094Y106879D01*
Y98101D02*
Y106879D01*
Y98101D02*
X276104Y98090D01*
X278642Y110581D02*
X279871Y111811D01*
X278642Y106890D02*
Y110581D01*
X277559Y60630D02*
X282087D01*
X243504Y73228D02*
Y75394D01*
X261811Y73228D02*
X262008D01*
X252756Y82579D02*
Y82677D01*
X280980Y106669D02*
X281201Y106890D01*
X280980Y98646D02*
Y106669D01*
X280758Y98425D02*
X280980Y98646D01*
X276556Y111226D02*
X276912Y111583D01*
Y111024D02*
Y111583D01*
X275596Y111226D02*
X276556D01*
X273524Y109153D02*
X275596Y111226D01*
X273524Y106890D02*
Y109153D01*
X268406Y106890D02*
X268649Y106646D01*
Y102611D02*
Y106646D01*
Y102611D02*
X268898Y102362D01*
X282087Y64370D02*
Y64370D01*
X268799Y30906D02*
Y35092D01*
X276624Y23770D02*
Y30758D01*
Y23770D02*
X276772Y23622D01*
X259055Y6299D02*
X265653D01*
X266240Y6887D02*
Y6890D01*
X265653Y6299D02*
X266240Y6887D01*
X273917Y30906D02*
Y34154D01*
X268499Y12205D02*
X268499Y12205D01*
X268499Y12205D01*
X268504D01*
X268799Y11909D01*
Y6890D02*
Y11909D01*
X276849Y2440D02*
Y2745D01*
X276838Y2756D02*
X276849Y2745D01*
X276830Y2756D02*
X276838D01*
X276537Y3049D02*
X276830Y2756D01*
X276537Y3049D02*
Y6829D01*
X276476Y6890D02*
X276537Y6829D01*
X273917Y6890D02*
X273967Y6841D01*
Y3199D02*
X274016Y3150D01*
X273967Y3199D02*
Y6841D01*
X281594Y30906D02*
X281746Y31057D01*
Y34871D01*
X281897Y35022D01*
X279035Y30906D02*
Y35092D01*
X271358Y26750D02*
Y30906D01*
X283465Y13583D02*
Y15748D01*
X279035Y6890D02*
Y9154D01*
X283465Y13583D01*
X276476Y30906D02*
X276624Y30758D01*
X270472Y2362D02*
X271358Y3248D01*
Y6890D01*
X266240Y28642D02*
Y30906D01*
Y28642D02*
X269291Y25591D01*
X252756Y25098D02*
Y25197D01*
X252756Y4626D02*
Y4724D01*
X284154Y30906D02*
X284203Y30856D01*
Y26033D02*
Y30856D01*
Y26033D02*
X284252Y25984D01*
X228937Y99213D02*
X229134D01*
X264764Y51968D02*
X270669D01*
Y51772D02*
Y51968D01*
X264764Y64567D02*
X270669D01*
Y64370D02*
Y64567D01*
D38*
X250787Y18898D02*
X256496D01*
X247638Y38976D02*
X256594D01*
X256594Y38976D01*
X248819Y96063D02*
X255413D01*
X248819Y116142D02*
X255315D01*
X229232Y38976D02*
X238976D01*
X228839Y39370D02*
X229232Y38976D01*
X234646Y96063D02*
X240158D01*
X228839Y90256D02*
X234646Y96063D01*
X228839Y79134D02*
Y90256D01*
Y19685D02*
X240256D01*
X241043Y18898D01*
X240158Y116142D02*
X241339D01*
X229134Y99213D02*
Y113386D01*
X231890Y116142D02*
X240158D01*
X229134Y113386D02*
X231890Y116142D01*
D39*
X233071Y70079D02*
X233140Y70148D01*
X233239D01*
X236221Y73130D01*
Y73228D01*
X220079Y46850D02*
X244882D01*
X217323Y49606D02*
X220079Y46850D01*
X209685Y49606D02*
X217323D01*
X204724Y54567D02*
X209685Y49606D01*
X220098Y51555D02*
X226279D01*
D40*
X289370Y104567D02*
D03*
X204724D02*
D03*
X6693D02*
D03*
D41*
X289370Y94567D02*
D03*
Y84567D02*
D03*
Y74567D02*
D03*
Y64567D02*
D03*
Y54567D02*
D03*
Y44567D02*
D03*
Y34567D02*
D03*
Y24567D02*
D03*
Y14567D02*
D03*
X214724D02*
D03*
Y24567D02*
D03*
Y34567D02*
D03*
Y44567D02*
D03*
Y54567D02*
D03*
Y64567D02*
D03*
Y74567D02*
D03*
Y84567D02*
D03*
Y94567D02*
D03*
Y104567D02*
D03*
X204724Y14567D02*
D03*
Y24567D02*
D03*
Y34567D02*
D03*
Y44567D02*
D03*
Y54567D02*
D03*
Y64567D02*
D03*
Y74567D02*
D03*
Y84567D02*
D03*
Y94567D02*
D03*
X16693Y14567D02*
D03*
Y24567D02*
D03*
Y34567D02*
D03*
Y44567D02*
D03*
Y54567D02*
D03*
Y64567D02*
D03*
Y74567D02*
D03*
Y84567D02*
D03*
Y94567D02*
D03*
Y104567D02*
D03*
X6693Y14567D02*
D03*
Y24567D02*
D03*
Y34567D02*
D03*
Y44567D02*
D03*
Y54567D02*
D03*
Y64567D02*
D03*
Y74567D02*
D03*
Y84567D02*
D03*
Y94567D02*
D03*
D42*
X238976Y38976D02*
D03*
X240158Y96063D02*
D03*
X141901Y61642D02*
D03*
X142126Y81102D02*
D03*
X281201Y76870D02*
D03*
X283760Y103248D02*
D03*
X288976Y111417D02*
D03*
X283858Y111811D02*
D03*
X285433Y88976D02*
D03*
X281042Y90875D02*
D03*
X268504Y77165D02*
D03*
X276083Y76870D02*
D03*
X278740Y78786D02*
D03*
X270965Y86910D02*
D03*
X265492Y86083D02*
D03*
X273622Y78786D02*
D03*
X261949Y91083D02*
D03*
X276104Y98090D02*
D03*
X277559Y60630D02*
D03*
X243504Y75394D02*
D03*
X233071Y70079D02*
D03*
X261811Y73228D02*
D03*
X252756Y82677D02*
D03*
X252756Y102756D02*
D03*
X280758Y98425D02*
D03*
X272047D02*
D03*
X276912Y111583D02*
D03*
X261949Y111161D02*
D03*
X276378Y116142D02*
D03*
X272146Y116043D02*
D03*
X268898Y102362D02*
D03*
X282087Y51772D02*
D03*
Y64370D02*
D03*
X268799Y35092D02*
D03*
X271654Y37795D02*
D03*
X272835Y41339D02*
D03*
X274803Y37008D02*
D03*
X287008Y29528D02*
D03*
X279959Y25897D02*
D03*
X276772Y23622D02*
D03*
X279528Y48031D02*
D03*
X262167Y28996D02*
D03*
Y33996D02*
D03*
X259055Y6299D02*
D03*
X262343Y8917D02*
D03*
X288189Y9449D02*
D03*
X273917Y34154D02*
D03*
X268499Y12205D02*
D03*
X276849Y2745D02*
D03*
X274016Y3150D02*
D03*
X279035Y35092D02*
D03*
X281897Y35022D02*
D03*
X271358Y26750D02*
D03*
X274008Y25668D02*
D03*
X283465Y15748D02*
D03*
X286720Y5906D02*
D03*
X270866Y14567D02*
D03*
X275858Y14031D02*
D03*
X270472Y2362D02*
D03*
X281496Y3150D02*
D03*
X252756Y25197D02*
D03*
X252756Y4724D02*
D03*
X284252Y25984D02*
D03*
X263878Y13878D02*
D03*
X234646Y33858D02*
D03*
Y23228D02*
D03*
Y13780D02*
D03*
Y3937D02*
D03*
X235827Y81102D02*
D03*
Y90945D02*
D03*
X235433Y101181D02*
D03*
Y111024D02*
D03*
X178347Y21260D02*
D03*
X142126Y20866D02*
D03*
X178347Y41732D02*
D03*
X142126Y41732D02*
D03*
X178347Y62598D02*
D03*
Y81102D02*
D03*
X244882Y46850D02*
D03*
X242126Y18898D02*
D03*
X241339Y116142D02*
D03*
X263799Y116161D02*
D03*
Y38996D02*
D03*
D43*
X78347Y100787D02*
D03*
X75984D02*
D03*
X73622D02*
D03*
X71260D02*
D03*
X68898D02*
D03*
X66535D02*
D03*
X64173D02*
D03*
X61811D02*
D03*
X59449D02*
D03*
X57087D02*
D03*
X54724D02*
D03*
X52362D02*
D03*
X50000D02*
D03*
X47638D02*
D03*
X45276Y96850D02*
D03*
X42913D02*
D03*
X40551D02*
D03*
X41732Y98819D02*
D03*
X44094D02*
D03*
X39370D02*
D03*
X42913Y100787D02*
D03*
X45276D02*
D03*
X44094Y102756D02*
D03*
X41732D02*
D03*
X39370D02*
D03*
X40551Y100787D02*
D03*
X45276Y104724D02*
D03*
X42913D02*
D03*
X40551D02*
D03*
X41732Y106693D02*
D03*
X39370D02*
D03*
X44094D02*
D03*
X42913Y108661D02*
D03*
X40551D02*
D03*
X41732Y110630D02*
D03*
X39370D02*
D03*
X40551Y112598D02*
D03*
X42913D02*
D03*
X41732Y114567D02*
D03*
X39370D02*
D03*
X40551Y116535D02*
D03*
X44094Y110630D02*
D03*
X45276Y108661D02*
D03*
Y112598D02*
D03*
X44094Y114567D02*
D03*
X42913Y116535D02*
D03*
X46457Y114567D02*
D03*
X45276Y116535D02*
D03*
X46457Y110630D02*
D03*
Y106693D02*
D03*
Y102756D02*
D03*
X47638Y104724D02*
D03*
Y108661D02*
D03*
Y112598D02*
D03*
Y116535D02*
D03*
X48819Y102756D02*
D03*
Y106693D02*
D03*
Y110630D02*
D03*
Y114567D02*
D03*
X53543D02*
D03*
Y110630D02*
D03*
Y106693D02*
D03*
Y102756D02*
D03*
X52362Y116535D02*
D03*
Y112598D02*
D03*
Y108661D02*
D03*
Y104724D02*
D03*
X51181Y102756D02*
D03*
Y106693D02*
D03*
Y110630D02*
D03*
X50000Y116535D02*
D03*
X51181Y114567D02*
D03*
X50000Y112598D02*
D03*
Y108661D02*
D03*
Y104724D02*
D03*
X58268Y114567D02*
D03*
Y110630D02*
D03*
Y106693D02*
D03*
Y102756D02*
D03*
X57087Y116535D02*
D03*
Y112598D02*
D03*
Y108661D02*
D03*
Y104724D02*
D03*
X55905Y102756D02*
D03*
Y106693D02*
D03*
Y110630D02*
D03*
X54724Y116535D02*
D03*
X55905Y114567D02*
D03*
X54724Y112598D02*
D03*
Y108661D02*
D03*
Y104724D02*
D03*
X62992Y114567D02*
D03*
Y110630D02*
D03*
Y106693D02*
D03*
Y102756D02*
D03*
X61811Y116535D02*
D03*
Y112598D02*
D03*
Y108661D02*
D03*
Y104724D02*
D03*
X60630Y102756D02*
D03*
Y106693D02*
D03*
Y110630D02*
D03*
X59449Y116535D02*
D03*
X60630Y114567D02*
D03*
X59449Y112598D02*
D03*
Y108661D02*
D03*
Y104724D02*
D03*
X67716Y114567D02*
D03*
Y110630D02*
D03*
Y106693D02*
D03*
Y102756D02*
D03*
X66535Y116535D02*
D03*
Y112598D02*
D03*
Y108661D02*
D03*
Y104724D02*
D03*
X65354Y102756D02*
D03*
Y106693D02*
D03*
Y110630D02*
D03*
X64173Y116535D02*
D03*
X65354Y114567D02*
D03*
X64173Y112598D02*
D03*
Y108661D02*
D03*
Y104724D02*
D03*
X72441Y114567D02*
D03*
Y110630D02*
D03*
Y106693D02*
D03*
Y102756D02*
D03*
X71260Y116535D02*
D03*
Y112598D02*
D03*
Y108661D02*
D03*
Y104724D02*
D03*
X70079Y102756D02*
D03*
Y106693D02*
D03*
Y110630D02*
D03*
X68898Y116535D02*
D03*
X70079Y114567D02*
D03*
X68898Y112598D02*
D03*
Y108661D02*
D03*
Y104724D02*
D03*
X77165Y114567D02*
D03*
Y110630D02*
D03*
Y106693D02*
D03*
Y102756D02*
D03*
X75984Y116535D02*
D03*
Y112598D02*
D03*
Y108661D02*
D03*
Y104724D02*
D03*
X74803Y102756D02*
D03*
Y106693D02*
D03*
Y110630D02*
D03*
X73622Y116535D02*
D03*
X74803Y114567D02*
D03*
X73622Y112598D02*
D03*
Y108661D02*
D03*
Y104724D02*
D03*
X81890Y114567D02*
D03*
Y110630D02*
D03*
Y106693D02*
D03*
Y102756D02*
D03*
X80709Y116535D02*
D03*
Y112598D02*
D03*
Y108661D02*
D03*
Y104724D02*
D03*
X79527Y102756D02*
D03*
Y106693D02*
D03*
Y110630D02*
D03*
X78347Y116535D02*
D03*
X79527Y114567D02*
D03*
X78347Y112598D02*
D03*
Y108661D02*
D03*
Y104724D02*
D03*
X86614Y114567D02*
D03*
Y110630D02*
D03*
Y106693D02*
D03*
Y102756D02*
D03*
X85433Y116535D02*
D03*
Y112598D02*
D03*
Y108661D02*
D03*
Y104724D02*
D03*
X84252Y102756D02*
D03*
Y106693D02*
D03*
Y110630D02*
D03*
X83071Y116535D02*
D03*
X84252Y114567D02*
D03*
X83071Y112598D02*
D03*
Y108661D02*
D03*
Y104724D02*
D03*
X87795D02*
D03*
Y108661D02*
D03*
Y112598D02*
D03*
Y116535D02*
D03*
X83071Y100787D02*
D03*
X85433D02*
D03*
X84252Y98819D02*
D03*
X81890D02*
D03*
X83071Y96850D02*
D03*
X85433D02*
D03*
X87751Y96885D02*
D03*
X86614Y98819D02*
D03*
X87795Y100787D02*
D03*
X80709D02*
D03*
Y18504D02*
D03*
X87795D02*
D03*
X86614Y20472D02*
D03*
X87751Y22407D02*
D03*
X85433Y22441D02*
D03*
X83071D02*
D03*
X81890Y20472D02*
D03*
X84252D02*
D03*
X85433Y18504D02*
D03*
X83071D02*
D03*
X87795Y2756D02*
D03*
Y6693D02*
D03*
Y10630D02*
D03*
Y14567D02*
D03*
X83071D02*
D03*
Y10630D02*
D03*
Y6693D02*
D03*
X84252Y4724D02*
D03*
X83071Y2756D02*
D03*
X84252Y8661D02*
D03*
Y12598D02*
D03*
Y16535D02*
D03*
X85433Y14567D02*
D03*
Y10630D02*
D03*
Y6693D02*
D03*
Y2756D02*
D03*
X86614Y16535D02*
D03*
Y12598D02*
D03*
Y8661D02*
D03*
Y4724D02*
D03*
X78347Y14567D02*
D03*
Y10630D02*
D03*
Y6693D02*
D03*
X79527Y4724D02*
D03*
X78347Y2756D02*
D03*
X79527Y8661D02*
D03*
Y12598D02*
D03*
Y16535D02*
D03*
X80709Y14567D02*
D03*
Y10630D02*
D03*
Y6693D02*
D03*
Y2756D02*
D03*
X81890Y16535D02*
D03*
Y12598D02*
D03*
Y8661D02*
D03*
Y4724D02*
D03*
X73622Y14567D02*
D03*
Y10630D02*
D03*
Y6693D02*
D03*
X74803Y4724D02*
D03*
X73622Y2756D02*
D03*
X74803Y8661D02*
D03*
Y12598D02*
D03*
Y16535D02*
D03*
X75984Y14567D02*
D03*
Y10630D02*
D03*
Y6693D02*
D03*
Y2756D02*
D03*
X77165Y16535D02*
D03*
Y12598D02*
D03*
Y8661D02*
D03*
Y4724D02*
D03*
X68898Y14567D02*
D03*
Y10630D02*
D03*
Y6693D02*
D03*
X70079Y4724D02*
D03*
X68898Y2756D02*
D03*
X70079Y8661D02*
D03*
Y12598D02*
D03*
Y16535D02*
D03*
X71260Y14567D02*
D03*
Y10630D02*
D03*
Y6693D02*
D03*
Y2756D02*
D03*
X72441Y16535D02*
D03*
Y12598D02*
D03*
Y8661D02*
D03*
Y4724D02*
D03*
X64173Y14567D02*
D03*
Y10630D02*
D03*
Y6693D02*
D03*
X65354Y4724D02*
D03*
X64173Y2756D02*
D03*
X65354Y8661D02*
D03*
Y12598D02*
D03*
Y16535D02*
D03*
X66535Y14567D02*
D03*
Y10630D02*
D03*
Y6693D02*
D03*
Y2756D02*
D03*
X67716Y16535D02*
D03*
Y12598D02*
D03*
Y8661D02*
D03*
Y4724D02*
D03*
X59449Y14567D02*
D03*
Y10630D02*
D03*
Y6693D02*
D03*
X60630Y4724D02*
D03*
X59449Y2756D02*
D03*
X60630Y8661D02*
D03*
Y12598D02*
D03*
Y16535D02*
D03*
X61811Y14567D02*
D03*
Y10630D02*
D03*
Y6693D02*
D03*
Y2756D02*
D03*
X62992Y16535D02*
D03*
Y12598D02*
D03*
Y8661D02*
D03*
Y4724D02*
D03*
X54724Y14567D02*
D03*
Y10630D02*
D03*
Y6693D02*
D03*
X55905Y4724D02*
D03*
X54724Y2756D02*
D03*
X55905Y8661D02*
D03*
Y12598D02*
D03*
Y16535D02*
D03*
X57087Y14567D02*
D03*
Y10630D02*
D03*
Y6693D02*
D03*
Y2756D02*
D03*
X58268Y16535D02*
D03*
Y12598D02*
D03*
Y8661D02*
D03*
Y4724D02*
D03*
X50000Y14567D02*
D03*
Y10630D02*
D03*
Y6693D02*
D03*
X51181Y4724D02*
D03*
X50000Y2756D02*
D03*
X51181Y8661D02*
D03*
Y12598D02*
D03*
Y16535D02*
D03*
X52362Y14567D02*
D03*
Y10630D02*
D03*
Y6693D02*
D03*
Y2756D02*
D03*
X53543Y16535D02*
D03*
Y12598D02*
D03*
Y8661D02*
D03*
Y4724D02*
D03*
X48819D02*
D03*
Y8661D02*
D03*
Y12598D02*
D03*
Y16535D02*
D03*
X47638Y2756D02*
D03*
Y6693D02*
D03*
Y10630D02*
D03*
Y14567D02*
D03*
X46457Y16535D02*
D03*
Y12598D02*
D03*
Y8661D02*
D03*
X45276Y2756D02*
D03*
X46457Y4724D02*
D03*
X42913Y2756D02*
D03*
X44094Y4724D02*
D03*
X45276Y6693D02*
D03*
Y10630D02*
D03*
X44094Y8661D02*
D03*
X40551Y2756D02*
D03*
X39370Y4724D02*
D03*
X41732D02*
D03*
X42913Y6693D02*
D03*
X40551D02*
D03*
X39370Y8661D02*
D03*
X41732D02*
D03*
X40551Y10630D02*
D03*
X42913D02*
D03*
X44094Y12598D02*
D03*
X39370D02*
D03*
X41732D02*
D03*
X40551Y14567D02*
D03*
X42913D02*
D03*
X45276D02*
D03*
X40551Y18504D02*
D03*
X39370Y16535D02*
D03*
X41732D02*
D03*
X44094D02*
D03*
X45276Y18504D02*
D03*
X42913D02*
D03*
X39370Y20472D02*
D03*
X44094D02*
D03*
X41732D02*
D03*
X40551Y22441D02*
D03*
X42913D02*
D03*
X45276D02*
D03*
X190945Y12598D02*
D03*
Y4724D02*
D03*
X193307D02*
D03*
X186221D02*
D03*
X188583D02*
D03*
X181496D02*
D03*
X183858D02*
D03*
X176772D02*
D03*
X179134D02*
D03*
X172047D02*
D03*
X174409D02*
D03*
X192126Y2756D02*
D03*
X194488D02*
D03*
X187402D02*
D03*
X189764D02*
D03*
X182677D02*
D03*
X185039D02*
D03*
X177953D02*
D03*
X180315D02*
D03*
X173228D02*
D03*
X175591D02*
D03*
X173228Y14567D02*
D03*
Y10630D02*
D03*
X175591Y6693D02*
D03*
X173228D02*
D03*
X180315D02*
D03*
X177953D02*
D03*
X185039D02*
D03*
X182677D02*
D03*
X189764D02*
D03*
X187402D02*
D03*
X194488D02*
D03*
X192126D02*
D03*
X174409Y8661D02*
D03*
X172047D02*
D03*
X179134D02*
D03*
X176772D02*
D03*
X183858D02*
D03*
X181496D02*
D03*
X188583D02*
D03*
X186221D02*
D03*
X193307D02*
D03*
X190945D02*
D03*
X177953Y10630D02*
D03*
X175591D02*
D03*
X182677D02*
D03*
X180315D02*
D03*
X187402D02*
D03*
X185039D02*
D03*
X192126D02*
D03*
X189764D02*
D03*
X174409Y12598D02*
D03*
X172047D02*
D03*
X179134D02*
D03*
X176772D02*
D03*
X183858D02*
D03*
X181496D02*
D03*
X188583D02*
D03*
X186221D02*
D03*
X177953Y14567D02*
D03*
X175591D02*
D03*
X182677D02*
D03*
X180315D02*
D03*
X187402D02*
D03*
X185039D02*
D03*
X174409Y16535D02*
D03*
X172047D02*
D03*
X179134D02*
D03*
X176772D02*
D03*
X181496D02*
D03*
X183858D02*
D03*
X186221D02*
D03*
X173228Y116929D02*
D03*
X175591D02*
D03*
X177953D02*
D03*
X173228Y105118D02*
D03*
X174409Y107087D02*
D03*
X176772D02*
D03*
X175591Y105118D02*
D03*
X174409Y103150D02*
D03*
X176772D02*
D03*
X179134Y107087D02*
D03*
Y111024D02*
D03*
X176772D02*
D03*
X174409D02*
D03*
X173228Y109055D02*
D03*
X175591D02*
D03*
X177953D02*
D03*
X179134Y114961D02*
D03*
X176772D02*
D03*
X174409D02*
D03*
X173228Y112992D02*
D03*
X175591D02*
D03*
X177953D02*
D03*
X185039Y101181D02*
D03*
X182677D02*
D03*
X180315D02*
D03*
X173228D02*
D03*
X175591D02*
D03*
X177953D02*
D03*
X189764Y105118D02*
D03*
X187402D02*
D03*
X185039D02*
D03*
X177953D02*
D03*
X180315D02*
D03*
X182677D02*
D03*
X183858Y103150D02*
D03*
X186221D02*
D03*
X188583D02*
D03*
X179134D02*
D03*
X181496D02*
D03*
X194488Y109055D02*
D03*
X192126D02*
D03*
X189764D02*
D03*
X187402D02*
D03*
X180315D02*
D03*
X182677D02*
D03*
X185039D02*
D03*
X186221Y107087D02*
D03*
X188583D02*
D03*
X190945D02*
D03*
X181496D02*
D03*
X183858D02*
D03*
X194488Y112992D02*
D03*
X192126D02*
D03*
X189764D02*
D03*
X187402D02*
D03*
X180315D02*
D03*
X182677D02*
D03*
X185039D02*
D03*
X186221Y111024D02*
D03*
X188583D02*
D03*
X190945D02*
D03*
X193307D02*
D03*
X181496D02*
D03*
X183858D02*
D03*
X194488Y116929D02*
D03*
X192126D02*
D03*
X189764D02*
D03*
X187402D02*
D03*
X180315D02*
D03*
X182677D02*
D03*
X185039D02*
D03*
X186221Y114961D02*
D03*
X188583D02*
D03*
X190945D02*
D03*
X193307D02*
D03*
X181496D02*
D03*
X183858D02*
D03*
X108661Y21654D02*
D03*
X111024D02*
D03*
X113386D02*
D03*
X115748D02*
D03*
X118110D02*
D03*
X134646D02*
D03*
X132283D02*
D03*
X129921D02*
D03*
X127559D02*
D03*
X120472D02*
D03*
X122835D02*
D03*
X125197D02*
D03*
X114567Y23622D02*
D03*
X116929D02*
D03*
X119291D02*
D03*
X107480D02*
D03*
X108661Y25591D02*
D03*
X109843Y23622D02*
D03*
X111024Y25591D02*
D03*
X112205Y23622D02*
D03*
X113386Y25591D02*
D03*
X115748D02*
D03*
X118110D02*
D03*
X134646D02*
D03*
X132283D02*
D03*
X129921D02*
D03*
X127559D02*
D03*
X120472D02*
D03*
X122835D02*
D03*
X125197D02*
D03*
X126378Y23622D02*
D03*
X128740D02*
D03*
X131102D02*
D03*
X133465D02*
D03*
X121653D02*
D03*
X124016D02*
D03*
Y35433D02*
D03*
X121653D02*
D03*
X133465D02*
D03*
X131102D02*
D03*
X128740D02*
D03*
X126378D02*
D03*
X125197Y37402D02*
D03*
X122835D02*
D03*
X120472D02*
D03*
X127559D02*
D03*
X129921D02*
D03*
X132283D02*
D03*
X134646D02*
D03*
X124016Y31496D02*
D03*
X121653D02*
D03*
X133465D02*
D03*
X131102D02*
D03*
X128740D02*
D03*
X126378D02*
D03*
X125197Y33465D02*
D03*
X122835D02*
D03*
X120472D02*
D03*
X127559D02*
D03*
X129921D02*
D03*
X132283D02*
D03*
X134646D02*
D03*
X124016Y27559D02*
D03*
X121653D02*
D03*
X133465D02*
D03*
X131102D02*
D03*
X128740D02*
D03*
X126378D02*
D03*
X125197Y29528D02*
D03*
X122835D02*
D03*
X120472D02*
D03*
X127559D02*
D03*
X129921D02*
D03*
X132283D02*
D03*
X134646D02*
D03*
X118110Y37402D02*
D03*
X116929Y35433D02*
D03*
X115748Y37402D02*
D03*
X114567Y35433D02*
D03*
X113386Y37402D02*
D03*
X112205Y35433D02*
D03*
X111024Y37402D02*
D03*
X109843Y35433D02*
D03*
X108661Y37402D02*
D03*
X107480Y35433D02*
D03*
X119291D02*
D03*
X118110Y33465D02*
D03*
X115748D02*
D03*
X114567Y31496D02*
D03*
X113386Y33465D02*
D03*
X112205Y31496D02*
D03*
X111024Y33465D02*
D03*
X109843Y31496D02*
D03*
X108661Y33465D02*
D03*
X107480Y31496D02*
D03*
X119291Y31496D02*
D03*
X118110Y29528D02*
D03*
X116929Y31496D02*
D03*
X115748Y29528D02*
D03*
X113386D02*
D03*
X112205Y27559D02*
D03*
X111024Y29528D02*
D03*
X109843Y27559D02*
D03*
X108661Y29528D02*
D03*
X107480Y27559D02*
D03*
X119291D02*
D03*
X116929D02*
D03*
X114567D02*
D03*
X124016Y47244D02*
D03*
X121653D02*
D03*
X133465D02*
D03*
X131102D02*
D03*
X128740D02*
D03*
X126378D02*
D03*
X125197Y49213D02*
D03*
X122835D02*
D03*
X120472D02*
D03*
X127559D02*
D03*
X129921D02*
D03*
X132283D02*
D03*
X134646D02*
D03*
X124016Y43307D02*
D03*
X121653D02*
D03*
X133465D02*
D03*
X131102D02*
D03*
X128740D02*
D03*
X126378D02*
D03*
X125197Y45276D02*
D03*
X122835D02*
D03*
X120472D02*
D03*
X127559D02*
D03*
X129921D02*
D03*
X132283D02*
D03*
X134646D02*
D03*
X124016Y39370D02*
D03*
X121653D02*
D03*
X133465D02*
D03*
X131102D02*
D03*
X128740D02*
D03*
X126378D02*
D03*
X125197Y41339D02*
D03*
X122835D02*
D03*
X120472D02*
D03*
X127559D02*
D03*
X129921D02*
D03*
X132283D02*
D03*
X134646D02*
D03*
X118110Y49213D02*
D03*
X116929Y47244D02*
D03*
X115748Y49213D02*
D03*
X114567Y47244D02*
D03*
X113386Y49213D02*
D03*
X112205Y47244D02*
D03*
X111024Y49213D02*
D03*
X109843Y47244D02*
D03*
X108661Y49213D02*
D03*
X107480Y47244D02*
D03*
X119291D02*
D03*
X118110Y45276D02*
D03*
X115748D02*
D03*
X114567Y43307D02*
D03*
X113386Y45276D02*
D03*
X112205Y43307D02*
D03*
X111024Y45276D02*
D03*
X109843Y43307D02*
D03*
X108661Y45276D02*
D03*
X107480Y43307D02*
D03*
X119291Y43307D02*
D03*
X118110Y41339D02*
D03*
X116929Y43307D02*
D03*
X115748Y41339D02*
D03*
X113386D02*
D03*
X112205Y39370D02*
D03*
X111024Y41339D02*
D03*
X109843Y39370D02*
D03*
X108661Y41339D02*
D03*
X107480Y39370D02*
D03*
X119291D02*
D03*
X116929D02*
D03*
X114567D02*
D03*
X124016Y59055D02*
D03*
X121653D02*
D03*
X133465D02*
D03*
X131102D02*
D03*
X128740D02*
D03*
X126378D02*
D03*
X125197Y61024D02*
D03*
X122835D02*
D03*
X120472D02*
D03*
X127559D02*
D03*
X129921D02*
D03*
X132283D02*
D03*
X134646D02*
D03*
X124016Y55118D02*
D03*
X121653D02*
D03*
X133465D02*
D03*
X131102D02*
D03*
X128740D02*
D03*
X126378D02*
D03*
X125197Y57087D02*
D03*
X122835D02*
D03*
X120472D02*
D03*
X127559D02*
D03*
X129921D02*
D03*
X132283D02*
D03*
X134646D02*
D03*
X124016Y51181D02*
D03*
X121653D02*
D03*
X133465D02*
D03*
X131102D02*
D03*
X128740D02*
D03*
X126378D02*
D03*
X125197Y53150D02*
D03*
X122835D02*
D03*
X120472D02*
D03*
X127559D02*
D03*
X129921D02*
D03*
X132283D02*
D03*
X134646D02*
D03*
X118110Y61024D02*
D03*
X116929Y59055D02*
D03*
X115748Y61024D02*
D03*
X114567Y59055D02*
D03*
X113386Y61024D02*
D03*
X112205Y59055D02*
D03*
X111024Y61024D02*
D03*
X109843Y59055D02*
D03*
X108661Y61024D02*
D03*
X107480Y59055D02*
D03*
X119291D02*
D03*
X118110Y57087D02*
D03*
X115748D02*
D03*
X114567Y55118D02*
D03*
X113386Y57087D02*
D03*
X112205Y55118D02*
D03*
X111024Y57087D02*
D03*
X109843Y55118D02*
D03*
X108661Y57087D02*
D03*
X107480Y55118D02*
D03*
X119291Y55118D02*
D03*
X118110Y53150D02*
D03*
X116929Y55118D02*
D03*
X115748Y53150D02*
D03*
X113386D02*
D03*
X112205Y51181D02*
D03*
X111024Y53150D02*
D03*
X109843Y51181D02*
D03*
X108661Y53150D02*
D03*
X107480Y51181D02*
D03*
X119291D02*
D03*
X116929D02*
D03*
X114567D02*
D03*
X124016Y70866D02*
D03*
X121653D02*
D03*
X133465D02*
D03*
X131102D02*
D03*
X128740D02*
D03*
X126378D02*
D03*
X125197Y72835D02*
D03*
X122835D02*
D03*
X120472D02*
D03*
X127559D02*
D03*
X129921D02*
D03*
X132283D02*
D03*
X134646D02*
D03*
X124016Y66929D02*
D03*
X121653D02*
D03*
X133465D02*
D03*
X131102D02*
D03*
X128740D02*
D03*
X126378D02*
D03*
X125197Y68898D02*
D03*
X122835D02*
D03*
X120472D02*
D03*
X127559D02*
D03*
X129921D02*
D03*
X132283D02*
D03*
X134646D02*
D03*
X124016Y62992D02*
D03*
X121653D02*
D03*
X133465D02*
D03*
X131102D02*
D03*
X128740D02*
D03*
X126378D02*
D03*
X125197Y64961D02*
D03*
X122835D02*
D03*
X120472D02*
D03*
X127559D02*
D03*
X129921D02*
D03*
X132283D02*
D03*
X134646D02*
D03*
X118110Y72835D02*
D03*
X116929Y70866D02*
D03*
X115748Y72835D02*
D03*
X114567Y70866D02*
D03*
X113386Y72835D02*
D03*
X112205Y70866D02*
D03*
X111024Y72835D02*
D03*
X109843Y70866D02*
D03*
X108661Y72835D02*
D03*
X107480Y70866D02*
D03*
X119291D02*
D03*
X118110Y68898D02*
D03*
X115748D02*
D03*
X114567Y66929D02*
D03*
X113386Y68898D02*
D03*
X112205Y66929D02*
D03*
X111024Y68898D02*
D03*
X109843Y66929D02*
D03*
X108661Y68898D02*
D03*
X107480Y66929D02*
D03*
X119291Y66929D02*
D03*
X118110Y64961D02*
D03*
X116929Y66929D02*
D03*
X115748Y64961D02*
D03*
X113386D02*
D03*
X112205Y62992D02*
D03*
X111024Y64961D02*
D03*
X109843Y62992D02*
D03*
X108661Y64961D02*
D03*
X107480Y62992D02*
D03*
X119291D02*
D03*
X116929D02*
D03*
X114567D02*
D03*
X124016Y82677D02*
D03*
X121653D02*
D03*
X133465D02*
D03*
X131102D02*
D03*
X128740D02*
D03*
X126378D02*
D03*
X125197Y84646D02*
D03*
X122835D02*
D03*
X120472D02*
D03*
X127559D02*
D03*
X129921D02*
D03*
X132283D02*
D03*
X134646D02*
D03*
X124016Y78740D02*
D03*
X121653D02*
D03*
X133465D02*
D03*
X131102D02*
D03*
X128740D02*
D03*
X126378D02*
D03*
X125197Y80709D02*
D03*
X122835D02*
D03*
X120472D02*
D03*
X127559D02*
D03*
X129921D02*
D03*
X132283D02*
D03*
X134646D02*
D03*
X124016Y74803D02*
D03*
X121653D02*
D03*
X133465D02*
D03*
X131102D02*
D03*
X128740D02*
D03*
X126378D02*
D03*
X125197Y76772D02*
D03*
X122835D02*
D03*
X120472D02*
D03*
X127559D02*
D03*
X129921D02*
D03*
X132283D02*
D03*
X134646D02*
D03*
X118110Y84646D02*
D03*
X116929Y82677D02*
D03*
X115748Y84646D02*
D03*
X114567Y82677D02*
D03*
X113386Y84646D02*
D03*
X112205Y82677D02*
D03*
X111024Y84646D02*
D03*
X109843Y82677D02*
D03*
X108661Y84646D02*
D03*
X107480Y82677D02*
D03*
X119291D02*
D03*
X118110Y80709D02*
D03*
X115748D02*
D03*
X114567Y78740D02*
D03*
X113386Y80709D02*
D03*
X112205Y78740D02*
D03*
X111024Y80709D02*
D03*
X109843Y78740D02*
D03*
X108661Y80709D02*
D03*
X107480Y78740D02*
D03*
X119291Y78740D02*
D03*
X118110Y76772D02*
D03*
X116929Y78740D02*
D03*
X115748Y76772D02*
D03*
X113386D02*
D03*
X112205Y74803D02*
D03*
X111024Y76772D02*
D03*
X109843Y74803D02*
D03*
X108661Y76772D02*
D03*
X107480Y74803D02*
D03*
X119291D02*
D03*
X116929D02*
D03*
X114567D02*
D03*
Y86614D02*
D03*
X116929D02*
D03*
X119291D02*
D03*
X107480D02*
D03*
X108661Y88583D02*
D03*
X109843Y86614D02*
D03*
X111024Y88583D02*
D03*
X112205Y86614D02*
D03*
X113386Y88583D02*
D03*
X115748D02*
D03*
X116929Y90551D02*
D03*
X118110Y88583D02*
D03*
X119291Y90551D02*
D03*
X107480Y90551D02*
D03*
X108661Y92520D02*
D03*
X109843Y90551D02*
D03*
X111024Y92520D02*
D03*
X112205Y90551D02*
D03*
X113386Y92520D02*
D03*
X114567Y90551D02*
D03*
X115748Y92520D02*
D03*
X118110D02*
D03*
X119291Y94488D02*
D03*
X107480D02*
D03*
X108661Y96457D02*
D03*
X109843Y94488D02*
D03*
X111024Y96457D02*
D03*
X112205Y94488D02*
D03*
X113386Y96457D02*
D03*
X114567Y94488D02*
D03*
X115748Y96457D02*
D03*
X116929Y94488D02*
D03*
X118110Y96457D02*
D03*
X134646Y88583D02*
D03*
X132283D02*
D03*
X129921D02*
D03*
X127559D02*
D03*
X120472D02*
D03*
X122835D02*
D03*
X125197D02*
D03*
X126378Y86614D02*
D03*
X128740D02*
D03*
X131102D02*
D03*
X133465D02*
D03*
X121653D02*
D03*
X124016D02*
D03*
X134646Y92520D02*
D03*
X132283D02*
D03*
X129921D02*
D03*
X127559D02*
D03*
X120472D02*
D03*
X122835D02*
D03*
X125197D02*
D03*
X126378Y90551D02*
D03*
X128740D02*
D03*
X131102D02*
D03*
X133465D02*
D03*
X121653D02*
D03*
X124016D02*
D03*
X134646Y96457D02*
D03*
X132283D02*
D03*
X129921D02*
D03*
X127559D02*
D03*
X120472D02*
D03*
X122835D02*
D03*
X125197D02*
D03*
X126378Y94488D02*
D03*
X128740D02*
D03*
X131102D02*
D03*
X133465D02*
D03*
X121653D02*
D03*
X124016D02*
D03*
X139370Y26378D02*
D03*
X141732D02*
D03*
X148819Y22441D02*
D03*
X151181D02*
D03*
X150000Y24409D02*
D03*
X153543Y22441D02*
D03*
X155905D02*
D03*
X158268D02*
D03*
X160630D02*
D03*
X152362Y24409D02*
D03*
X154724D02*
D03*
X157087D02*
D03*
X159449D02*
D03*
X162992Y22441D02*
D03*
X165354D02*
D03*
X167717D02*
D03*
X170079D02*
D03*
X161811Y24409D02*
D03*
X164173D02*
D03*
X166535D02*
D03*
X168898D02*
D03*
X144095Y26378D02*
D03*
X146457D02*
D03*
X148819D02*
D03*
X151181D02*
D03*
X153543D02*
D03*
X155905D02*
D03*
X158268D02*
D03*
X160630D02*
D03*
X162992D02*
D03*
X165354D02*
D03*
X167717D02*
D03*
X170079D02*
D03*
Y30315D02*
D03*
X167717D02*
D03*
X165354D02*
D03*
X162992D02*
D03*
X153543D02*
D03*
X155905D02*
D03*
X158268D02*
D03*
X160630D02*
D03*
X146457D02*
D03*
X148819D02*
D03*
X151181D02*
D03*
X161811Y28346D02*
D03*
X164173D02*
D03*
X166535D02*
D03*
X168898D02*
D03*
X152362D02*
D03*
X154724D02*
D03*
X157087D02*
D03*
X159449D02*
D03*
X147638D02*
D03*
X150000D02*
D03*
X144095Y30315D02*
D03*
X139370D02*
D03*
X145276Y28346D02*
D03*
X141732Y30315D02*
D03*
X140551Y28346D02*
D03*
X142913D02*
D03*
X170079Y34252D02*
D03*
X167717D02*
D03*
X165354D02*
D03*
X162992D02*
D03*
X153543D02*
D03*
X155905D02*
D03*
X158268D02*
D03*
X160630D02*
D03*
X146457D02*
D03*
X148819D02*
D03*
X151181D02*
D03*
X161811Y32283D02*
D03*
X164173D02*
D03*
X166535D02*
D03*
X168898D02*
D03*
X152362D02*
D03*
X154724D02*
D03*
X157087D02*
D03*
X159449D02*
D03*
X147638D02*
D03*
X150000D02*
D03*
X144095Y34252D02*
D03*
X139370D02*
D03*
X145276Y32283D02*
D03*
X141732Y34252D02*
D03*
X140551Y32283D02*
D03*
X142913D02*
D03*
X170079Y38189D02*
D03*
X167717D02*
D03*
X165354D02*
D03*
X162992D02*
D03*
X153543D02*
D03*
X155905D02*
D03*
X158268D02*
D03*
X160630D02*
D03*
X146457D02*
D03*
X148819D02*
D03*
X151181D02*
D03*
X161811Y36220D02*
D03*
X164173D02*
D03*
X166535D02*
D03*
X168898D02*
D03*
X152362D02*
D03*
X154724D02*
D03*
X157087D02*
D03*
X159449D02*
D03*
X147638D02*
D03*
X150000D02*
D03*
X144095Y38189D02*
D03*
X139370D02*
D03*
X145276Y36220D02*
D03*
X141732Y38189D02*
D03*
X140551Y36220D02*
D03*
X142913D02*
D03*
X170079Y43307D02*
D03*
X167717D02*
D03*
X165354D02*
D03*
X162992D02*
D03*
X153543D02*
D03*
X155905D02*
D03*
X158268D02*
D03*
X160630D02*
D03*
X148819D02*
D03*
X151181D02*
D03*
X162992Y47244D02*
D03*
X165354D02*
D03*
X167717D02*
D03*
X170079D02*
D03*
X153543D02*
D03*
X155905D02*
D03*
X158268D02*
D03*
X160630D02*
D03*
X144095D02*
D03*
X146457D02*
D03*
X148819D02*
D03*
X151181D02*
D03*
X141732D02*
D03*
X139370D02*
D03*
X142913Y45276D02*
D03*
X140551D02*
D03*
X145276D02*
D03*
X150000D02*
D03*
X147638D02*
D03*
X159449D02*
D03*
X157087D02*
D03*
X154724D02*
D03*
X152362D02*
D03*
X168898D02*
D03*
X166535D02*
D03*
X164173D02*
D03*
X161811D02*
D03*
Y49213D02*
D03*
X164173D02*
D03*
X166535D02*
D03*
X168898D02*
D03*
X152362D02*
D03*
X154724D02*
D03*
X157087D02*
D03*
X159449D02*
D03*
X147638D02*
D03*
X150000D02*
D03*
X145276D02*
D03*
X140551D02*
D03*
X142913D02*
D03*
Y53150D02*
D03*
X140551D02*
D03*
X141732Y55118D02*
D03*
X145276Y53150D02*
D03*
X139370Y55118D02*
D03*
X144095D02*
D03*
X139370Y51181D02*
D03*
X141732D02*
D03*
X151181D02*
D03*
X148819D02*
D03*
X146457D02*
D03*
X144095D02*
D03*
X160630D02*
D03*
X158268D02*
D03*
X155905D02*
D03*
X153543D02*
D03*
X170079D02*
D03*
X167717D02*
D03*
X165354D02*
D03*
X162992D02*
D03*
X150000Y53150D02*
D03*
X147638D02*
D03*
X159449D02*
D03*
X157087D02*
D03*
X154724D02*
D03*
X152362D02*
D03*
X168898D02*
D03*
X166535D02*
D03*
X164173D02*
D03*
X161811D02*
D03*
X151181Y55118D02*
D03*
X148819D02*
D03*
X146457D02*
D03*
X160630D02*
D03*
X158268D02*
D03*
X155905D02*
D03*
X153543D02*
D03*
X162992D02*
D03*
X165354D02*
D03*
X167717D02*
D03*
X170079D02*
D03*
Y76772D02*
D03*
X167717D02*
D03*
X165354D02*
D03*
X162992D02*
D03*
X153543D02*
D03*
X155905D02*
D03*
X158268D02*
D03*
X160630D02*
D03*
X146457D02*
D03*
X148819D02*
D03*
X151181D02*
D03*
X161811Y74803D02*
D03*
X164173D02*
D03*
X166535D02*
D03*
X168898D02*
D03*
X152362D02*
D03*
X154724D02*
D03*
X157087D02*
D03*
X159449D02*
D03*
X147638D02*
D03*
X150000D02*
D03*
X162992Y72835D02*
D03*
X165354D02*
D03*
X167717D02*
D03*
X170079D02*
D03*
X153543D02*
D03*
X155905D02*
D03*
X158268D02*
D03*
X160630D02*
D03*
X144095D02*
D03*
X146457D02*
D03*
X148819D02*
D03*
X151181D02*
D03*
X141732D02*
D03*
X139370D02*
D03*
X144095Y76772D02*
D03*
X139370D02*
D03*
X145276Y74803D02*
D03*
X141732Y76772D02*
D03*
X140551Y74803D02*
D03*
X142913D02*
D03*
Y70866D02*
D03*
X140551D02*
D03*
X145276D02*
D03*
X150000D02*
D03*
X147638D02*
D03*
X159449D02*
D03*
X157087D02*
D03*
X154724D02*
D03*
X152362D02*
D03*
X168898D02*
D03*
X166535D02*
D03*
X164173D02*
D03*
X161811D02*
D03*
X142913Y66929D02*
D03*
X140551D02*
D03*
X141732Y68898D02*
D03*
X145276Y66929D02*
D03*
X139370Y68898D02*
D03*
X144095D02*
D03*
X150000Y66929D02*
D03*
X147638D02*
D03*
X159449D02*
D03*
X157087D02*
D03*
X154724D02*
D03*
X152362D02*
D03*
X168898D02*
D03*
X166535D02*
D03*
X164173D02*
D03*
X161811D02*
D03*
X151181Y68898D02*
D03*
X148819D02*
D03*
X146457D02*
D03*
X160630D02*
D03*
X158268D02*
D03*
X155905D02*
D03*
X153543D02*
D03*
X162992D02*
D03*
X165354D02*
D03*
X167717D02*
D03*
X170079D02*
D03*
Y64961D02*
D03*
X167717D02*
D03*
X165354D02*
D03*
X162992D02*
D03*
X153543D02*
D03*
X155905D02*
D03*
X158268D02*
D03*
X160630D02*
D03*
X146457D02*
D03*
X148819D02*
D03*
X151181D02*
D03*
X144095D02*
D03*
X139370D02*
D03*
X141732D02*
D03*
X150000Y62992D02*
D03*
X159449D02*
D03*
X157087D02*
D03*
X154724D02*
D03*
X152362D02*
D03*
X161811D02*
D03*
X164173D02*
D03*
X166535D02*
D03*
X168898D02*
D03*
X147638Y83465D02*
D03*
X148819Y81496D02*
D03*
X170079D02*
D03*
X167717D02*
D03*
X165354D02*
D03*
X162992D02*
D03*
X153543D02*
D03*
X155905D02*
D03*
X158268D02*
D03*
X160630D02*
D03*
X151181D02*
D03*
X168898Y83465D02*
D03*
X166535D02*
D03*
X164173D02*
D03*
X161811D02*
D03*
X152362D02*
D03*
X154724D02*
D03*
X157087D02*
D03*
X159449D02*
D03*
X150000D02*
D03*
X141732Y85433D02*
D03*
X139370D02*
D03*
X144095D02*
D03*
X151181D02*
D03*
X148819D02*
D03*
X146457D02*
D03*
X160630D02*
D03*
X158268D02*
D03*
X155905D02*
D03*
X153543D02*
D03*
X162992D02*
D03*
X165354D02*
D03*
X167717D02*
D03*
X170079D02*
D03*
Y89370D02*
D03*
X167717D02*
D03*
X165354D02*
D03*
X162992D02*
D03*
X153543D02*
D03*
X155905D02*
D03*
X158268D02*
D03*
X160630D02*
D03*
X146457D02*
D03*
X148819D02*
D03*
X151181D02*
D03*
X161811Y87402D02*
D03*
X164173D02*
D03*
X166535D02*
D03*
X168898D02*
D03*
X152362D02*
D03*
X154724D02*
D03*
X157087D02*
D03*
X159449D02*
D03*
X147638D02*
D03*
X150000D02*
D03*
X144095Y89370D02*
D03*
X139370D02*
D03*
X145276Y87402D02*
D03*
X141732Y89370D02*
D03*
X140551Y87402D02*
D03*
X142913D02*
D03*
X161811Y91339D02*
D03*
X164173D02*
D03*
X166535D02*
D03*
X168898D02*
D03*
X152362D02*
D03*
X154724D02*
D03*
X157087D02*
D03*
X159449D02*
D03*
X147638D02*
D03*
X150000D02*
D03*
X145276D02*
D03*
X140551D02*
D03*
X142913D02*
D03*
Y95276D02*
D03*
X140551D02*
D03*
X141732Y97244D02*
D03*
X145276Y95276D02*
D03*
X139370Y97244D02*
D03*
X144095D02*
D03*
X139370Y93307D02*
D03*
X141732D02*
D03*
X151181D02*
D03*
X148819D02*
D03*
X146457D02*
D03*
X144095D02*
D03*
X160630D02*
D03*
X158268D02*
D03*
X155905D02*
D03*
X153543D02*
D03*
X170079D02*
D03*
X167717D02*
D03*
X165354D02*
D03*
X162992D02*
D03*
X150000Y95276D02*
D03*
X147638D02*
D03*
X159449D02*
D03*
X157087D02*
D03*
X154724D02*
D03*
X152362D02*
D03*
X168898D02*
D03*
X166535D02*
D03*
X164173D02*
D03*
X161811D02*
D03*
X151181Y97244D02*
D03*
X148819D02*
D03*
X146457D02*
D03*
X160630D02*
D03*
X158268D02*
D03*
X155905D02*
D03*
X153543D02*
D03*
X162992D02*
D03*
X165354D02*
D03*
X167717D02*
D03*
X170079D02*
D03*
X225590Y58268D02*
D03*
X227559Y59842D02*
D03*
X229528Y58268D02*
D03*
X231496Y59842D02*
D03*
X233465Y58268D02*
D03*
X235433Y59842D02*
D03*
X237402Y58268D02*
D03*
X239370Y59842D02*
D03*
X249213Y58268D02*
D03*
X247244Y59842D02*
D03*
X245276Y58268D02*
D03*
X243307Y59842D02*
D03*
X241339Y58268D02*
D03*
X263799Y96083D02*
D03*
Y18917D02*
D03*
X256693Y52165D02*
D03*
Y64764D02*
D03*
X242776Y111161D02*
D03*
X242894Y101161D02*
D03*
X242776Y33996D02*
D03*
X242894Y23996D02*
D03*
X241634Y91043D02*
D03*
X241713Y81083D02*
D03*
X241732Y13780D02*
D03*
Y3937D02*
D03*
M02*
