G04*
G04 #@! TF.GenerationSoftware,Altium Limited,Altium Designer,20.1.12 (249)*
G04*
G04 Layer_Color=16711935*
%FSLAX25Y25*%
%MOIN*%
G70*
G04*
G04 #@! TF.SameCoordinates,D57ADFAC-2A33-4F97-B865-62DE6D2BA241*
G04*
G04*
G04 #@! TF.FilePolarity,Negative*
G04*
G01*
G75*
%ADD26O,0.05524X0.02965*%
%ADD27R,0.05524X0.02965*%
%ADD28R,0.07296X0.03359*%
%ADD29O,0.07296X0.03359*%
%ADD35R,0.06706X0.06706*%
%ADD36C,0.06706*%
%ADD51R,0.18123X0.18517*%
%ADD52R,0.08871X0.03359*%
%ADD53R,0.02178X0.04737*%
%ADD54O,0.02178X0.04737*%
%ADD55O,0.04737X0.02572*%
%ADD56R,0.04737X0.02572*%
%ADD57R,0.07690X0.10839*%
D26*
X254528Y57284D02*
D03*
Y44685D02*
D03*
D27*
X265945Y57284D02*
D03*
Y61024D02*
D03*
Y64764D02*
D03*
X254528D02*
D03*
Y61024D02*
D03*
X265945Y44685D02*
D03*
Y48425D02*
D03*
Y52165D02*
D03*
X254528D02*
D03*
Y48425D02*
D03*
D28*
X263878Y38996D02*
D03*
Y116161D02*
D03*
Y96083D02*
D03*
X263878Y18917D02*
D03*
D29*
X263878Y33996D02*
D03*
Y28996D02*
D03*
Y23996D02*
D03*
X241634Y38996D02*
D03*
Y33996D02*
D03*
Y28996D02*
D03*
Y23996D02*
D03*
X263878Y111161D02*
D03*
Y106161D02*
D03*
Y101161D02*
D03*
X241634Y116161D02*
D03*
Y111161D02*
D03*
Y106161D02*
D03*
Y101161D02*
D03*
X263878Y91083D02*
D03*
Y86083D02*
D03*
Y81083D02*
D03*
X241634Y96083D02*
D03*
Y91083D02*
D03*
Y86083D02*
D03*
Y81083D02*
D03*
X263878Y13917D02*
D03*
Y8917D02*
D03*
Y3917D02*
D03*
X241634Y18917D02*
D03*
Y13917D02*
D03*
Y8917D02*
D03*
Y3917D02*
D03*
D35*
X289370Y104567D02*
D03*
X204724D02*
D03*
X6693D02*
D03*
D36*
X289370Y94567D02*
D03*
Y84567D02*
D03*
Y74567D02*
D03*
Y64567D02*
D03*
Y54567D02*
D03*
Y44567D02*
D03*
Y34567D02*
D03*
Y24567D02*
D03*
Y14567D02*
D03*
X214724D02*
D03*
Y24567D02*
D03*
Y34567D02*
D03*
Y44567D02*
D03*
Y54567D02*
D03*
Y64567D02*
D03*
Y74567D02*
D03*
Y84567D02*
D03*
Y94567D02*
D03*
Y104567D02*
D03*
X204724Y14567D02*
D03*
Y24567D02*
D03*
Y34567D02*
D03*
Y44567D02*
D03*
Y54567D02*
D03*
Y64567D02*
D03*
Y74567D02*
D03*
Y84567D02*
D03*
Y94567D02*
D03*
X16693Y14567D02*
D03*
Y24567D02*
D03*
Y34567D02*
D03*
Y44567D02*
D03*
Y54567D02*
D03*
Y64567D02*
D03*
Y74567D02*
D03*
Y84567D02*
D03*
Y94567D02*
D03*
Y104567D02*
D03*
X6693Y14567D02*
D03*
Y24567D02*
D03*
Y34567D02*
D03*
Y44567D02*
D03*
Y54567D02*
D03*
Y64567D02*
D03*
Y74567D02*
D03*
Y84567D02*
D03*
Y94567D02*
D03*
D51*
X125984Y88583D02*
D03*
X162205Y68898D02*
D03*
Y49213D02*
D03*
Y88583D02*
D03*
X125984Y49213D02*
D03*
Y68898D02*
D03*
Y29528D02*
D03*
X162205Y29528D02*
D03*
D52*
X142126Y81083D02*
D03*
Y86083D02*
D03*
Y91083D02*
D03*
Y96083D02*
D03*
X178347Y61398D02*
D03*
Y66398D02*
D03*
Y71398D02*
D03*
Y76398D02*
D03*
Y56713D02*
D03*
Y51713D02*
D03*
Y46713D02*
D03*
Y41713D02*
D03*
Y96083D02*
D03*
Y91083D02*
D03*
Y86083D02*
D03*
Y81083D02*
D03*
X142126Y56713D02*
D03*
Y51713D02*
D03*
Y46713D02*
D03*
Y41713D02*
D03*
Y76398D02*
D03*
Y71398D02*
D03*
Y66398D02*
D03*
Y61398D02*
D03*
Y37028D02*
D03*
Y32028D02*
D03*
Y27028D02*
D03*
Y22028D02*
D03*
X178347Y37028D02*
D03*
Y32028D02*
D03*
Y27028D02*
D03*
Y22027D02*
D03*
D53*
X279795Y17033D02*
D03*
X279724Y90551D02*
D03*
D54*
X277827Y17033D02*
D03*
X275858D02*
D03*
X273890D02*
D03*
X279795Y30419D02*
D03*
X277827D02*
D03*
X275858D02*
D03*
X273890D02*
D03*
X277756Y90551D02*
D03*
X275787D02*
D03*
X273819D02*
D03*
X279724Y103937D02*
D03*
X277756D02*
D03*
X275787D02*
D03*
X273819D02*
D03*
D55*
X272146Y6102D02*
D03*
X281398Y114370D02*
D03*
D56*
X272146Y8661D02*
D03*
Y11220D02*
D03*
X281398D02*
D03*
Y8661D02*
D03*
Y6102D02*
D03*
X281398Y111811D02*
D03*
Y109252D02*
D03*
X272146D02*
D03*
Y111811D02*
D03*
Y114370D02*
D03*
D57*
X233071Y67323D02*
D03*
Y50787D02*
D03*
X244488Y67323D02*
D03*
Y50787D02*
D03*
M02*
