G04*
G04 #@! TF.GenerationSoftware,Altium Limited,Altium Designer,20.1.12 (249)*
G04*
G04 Layer_Color=32896*
%FSLAX25Y25*%
%MOIN*%
G70*
G04*
G04 #@! TF.SameCoordinates,D57ADFAC-2A33-4F97-B865-62DE6D2BA241*
G04*
G04*
G04 #@! TF.FilePolarity,Positive*
G04*
G01*
G75*
%ADD10C,0.00984*%
%ADD11C,0.02362*%
%ADD13C,0.00787*%
%ADD14C,0.00600*%
D10*
X283142Y17033D02*
X282404Y17459D01*
Y16607D01*
X283142Y17033D01*
X272638Y3051D02*
X271900Y3477D01*
Y2625D01*
X272638Y3051D01*
X283071Y90551D02*
X282333Y90977D01*
Y90125D01*
X283071Y90551D01*
X281890Y117421D02*
X281152Y117848D01*
Y116995D01*
X281890Y117421D01*
X255020Y54035D02*
X254281Y54462D01*
Y53609D01*
X255020Y54035D01*
Y41437D02*
X254281Y41863D01*
Y41011D01*
X255020Y41437D01*
X227953Y71358D02*
X227215Y71785D01*
Y70932D01*
X227953Y71358D01*
X239370D02*
X238632Y71785D01*
Y70932D01*
X239370Y71358D01*
X264370Y42441D02*
X263632Y42867D01*
Y42015D01*
X264370Y42441D01*
Y119606D02*
X263632Y120033D01*
Y119180D01*
X264370Y119606D01*
Y99528D02*
X263632Y99954D01*
Y99101D01*
X264370Y99528D01*
X264370Y22362D02*
X263632Y22788D01*
Y21936D01*
X264370Y22362D01*
D11*
X256299Y37402D02*
X255855Y38325D01*
X254855Y38553D01*
X254054Y37914D01*
Y36889D01*
X254855Y36250D01*
X255855Y36478D01*
X256299Y37402D01*
Y114567D02*
X255855Y115490D01*
X254855Y115718D01*
X254054Y115079D01*
Y114055D01*
X254855Y113415D01*
X255855Y113644D01*
X256299Y114567D01*
Y94488D02*
X255855Y95412D01*
X254855Y95640D01*
X254054Y95001D01*
Y93976D01*
X254855Y93337D01*
X255855Y93565D01*
X256299Y94488D01*
X256299Y17323D02*
X255855Y18246D01*
X254855Y18474D01*
X254054Y17835D01*
Y16810D01*
X254855Y16171D01*
X255855Y16399D01*
X256299Y17323D01*
D13*
X136221Y78740D02*
X136516D01*
Y98425D01*
X136221D02*
X136516D01*
X172441Y59055D02*
X172736D01*
Y78740D01*
X172441D02*
X172736D01*
X272709Y20576D02*
X280977D01*
X272709Y26875D02*
X280977D01*
Y20576D02*
Y26875D01*
X272709Y20576D02*
Y26875D01*
X275590Y4331D02*
X277953D01*
X275590Y12992D02*
X277953D01*
X275590Y4331D02*
Y12992D01*
X277953D02*
X277953Y4331D01*
X272638Y94095D02*
X280906D01*
X272638Y100394D02*
X280906D01*
Y94095D02*
Y100394D01*
X272638Y94095D02*
Y100394D01*
X275590Y116142D02*
X277953D01*
X275590Y107480D02*
X277953D01*
Y116142D01*
X275590D02*
X275590Y107480D01*
X262008Y54921D02*
Y67126D01*
X258465Y54921D02*
Y67126D01*
X262008D01*
X258465Y54921D02*
X262008D01*
Y42323D02*
Y54528D01*
X258465Y42323D02*
Y54528D01*
X262008D01*
X258465Y42323D02*
X262008D01*
X227362Y49606D02*
Y68504D01*
X238779Y49606D02*
Y68504D01*
X227362D02*
X228051Y68504D01*
X227362Y49606D02*
X228051Y49606D01*
X238091Y68504D02*
X238779D01*
X238091Y49606D02*
X238779D01*
X227559Y61417D02*
X238583D01*
X238779Y49606D02*
Y68504D01*
X250197Y49606D02*
Y68504D01*
X238779D02*
X239469Y68504D01*
X238779Y49606D02*
X239469Y49606D01*
X249508Y68504D02*
X250197D01*
X249508Y49606D02*
X250197D01*
X238976Y61417D02*
X250000D01*
X259055Y21654D02*
Y41339D01*
X246457Y21654D02*
Y41339D01*
X259055D01*
X246457Y21654D02*
X259055D01*
Y98819D02*
Y118504D01*
X246457Y98819D02*
Y118504D01*
X259055D01*
X246457Y98819D02*
X259055D01*
Y78740D02*
Y98425D01*
X246457Y78740D02*
Y98425D01*
X259055D01*
X246457Y78740D02*
X259055D01*
X259055Y1575D02*
Y21260D01*
X246457Y1575D02*
Y21260D01*
X259055D01*
X246457Y1575D02*
X259055D01*
X172441Y59055D02*
X172736D01*
Y39370D02*
Y59055D01*
X172441Y39370D02*
X172736D01*
X172441Y98425D02*
X172736D01*
Y78740D02*
Y98425D01*
X172441Y78740D02*
X172736D01*
X136221Y59055D02*
X136516D01*
Y39370D02*
Y59055D01*
X136221Y39370D02*
X136516D01*
X136221Y78740D02*
X136516D01*
Y59055D02*
Y78740D01*
X136221Y59055D02*
X136516D01*
X136221Y39370D02*
X136516D01*
Y19685D02*
Y39370D01*
X136221Y19685D02*
X136516D01*
X172441Y39370D02*
X172736D01*
Y19685D02*
Y39370D01*
X172441Y19685D02*
X172736D01*
D14*
X270854Y45087D02*
X272986D01*
X273520Y44554D01*
Y43487D01*
X272986Y42954D01*
X270854D01*
X270321Y43487D01*
Y44554D01*
X271387Y44020D02*
X270321Y45087D01*
Y44554D02*
X270854Y45087D01*
X272986Y46153D02*
X273520Y46686D01*
Y47753D01*
X272986Y48286D01*
X272453D01*
X271920Y47753D01*
Y47219D01*
Y47753D01*
X271387Y48286D01*
X270854D01*
X270321Y47753D01*
Y46686D01*
X270854Y46153D01*
X269788Y49352D02*
Y51485D01*
X270321Y54684D02*
Y52551D01*
X272453Y54684D01*
X272986D01*
X273520Y54150D01*
Y53084D01*
X272986Y52551D01*
X270854Y58218D02*
X272986D01*
X273520Y57685D01*
Y56619D01*
X272986Y56086D01*
X270854D01*
X270321Y56619D01*
Y57685D01*
X271387Y57152D02*
X270321Y58218D01*
Y57685D02*
X270854Y58218D01*
X272986Y59285D02*
X273520Y59818D01*
Y60884D01*
X272986Y61417D01*
X272453D01*
X271920Y60884D01*
Y60351D01*
Y60884D01*
X271387Y61417D01*
X270854D01*
X270321Y60884D01*
Y59818D01*
X270854Y59285D01*
X269788Y62484D02*
Y64616D01*
X270321Y65683D02*
Y66749D01*
Y66216D01*
X273520D01*
X272986Y65683D01*
X282636Y37299D02*
Y34633D01*
X282103Y34100D01*
X281037D01*
X280504Y34633D01*
Y37299D01*
X279437Y36766D02*
X278904Y37299D01*
X277838D01*
X277305Y36766D01*
Y36233D01*
X277838Y35700D01*
X278371D01*
X277838D01*
X277305Y35166D01*
Y34633D01*
X277838Y34100D01*
X278904D01*
X279437Y34633D01*
X276238Y33567D02*
X274106D01*
X270907Y34100D02*
X273040D01*
X270907Y36233D01*
Y36766D01*
X271440Y37299D01*
X272506D01*
X273040Y36766D01*
X282891Y85724D02*
Y83059D01*
X282358Y82525D01*
X281291D01*
X280758Y83059D01*
Y85724D01*
X279692Y85191D02*
X279158Y85724D01*
X278092D01*
X277559Y85191D01*
Y84658D01*
X278092Y84125D01*
X278625D01*
X278092D01*
X277559Y83592D01*
Y83059D01*
X278092Y82525D01*
X279158D01*
X279692Y83059D01*
X276493Y81992D02*
X274360D01*
X273294Y82525D02*
X272227D01*
X272761D01*
Y85724D01*
X273294Y85191D01*
X293266Y5016D02*
Y2350D01*
X292733Y1817D01*
X291667D01*
X291134Y2350D01*
Y5016D01*
X287935Y1817D02*
X290067D01*
X287935Y3949D01*
Y4482D01*
X288468Y5016D01*
X289534D01*
X290067Y4482D01*
X286868Y1283D02*
X284736D01*
X281537Y1817D02*
X283669D01*
X281537Y3949D01*
Y4482D01*
X282070Y5016D01*
X283136D01*
X283669Y4482D01*
X293521Y118008D02*
Y115342D01*
X292987Y114809D01*
X291921D01*
X291388Y115342D01*
Y118008D01*
X288189Y114809D02*
X290322D01*
X288189Y116941D01*
Y117475D01*
X288722Y118008D01*
X289789D01*
X290322Y117475D01*
X287123Y114276D02*
X284990D01*
X283924Y114809D02*
X282857D01*
X283390D01*
Y118008D01*
X283924Y117475D01*
X254228Y5425D02*
X251562D01*
X251029Y5959D01*
Y7025D01*
X251562Y7558D01*
X254228D01*
X251029Y8624D02*
Y9691D01*
Y9158D01*
X254228D01*
X253695Y8624D01*
X250496Y11290D02*
Y13423D01*
X251029Y16089D02*
X254228D01*
X252629Y14489D01*
Y16622D01*
X254228Y25504D02*
X251562D01*
X251029Y26037D01*
Y27104D01*
X251562Y27637D01*
X254228D01*
X251029Y28703D02*
Y29770D01*
Y29236D01*
X254228D01*
X253695Y28703D01*
X250496Y31369D02*
Y33502D01*
X253695Y34568D02*
X254228Y35101D01*
Y36167D01*
X253695Y36700D01*
X253162D01*
X252629Y36167D01*
Y35634D01*
Y36167D01*
X252096Y36700D01*
X251562D01*
X251029Y36167D01*
Y35101D01*
X251562Y34568D01*
X254622Y82591D02*
X251956D01*
X251423Y83124D01*
Y84190D01*
X251956Y84723D01*
X254622D01*
X251423Y85790D02*
Y86856D01*
Y86323D01*
X254622D01*
X254089Y85790D01*
X250890Y88456D02*
Y90588D01*
X251423Y93787D02*
Y91654D01*
X253556Y93787D01*
X254089D01*
X254622Y93254D01*
Y92188D01*
X254089Y91654D01*
X254622Y103203D02*
X251956D01*
X251423Y103736D01*
Y104802D01*
X251956Y105335D01*
X254622D01*
X251423Y106402D02*
Y107468D01*
Y106935D01*
X254622D01*
X254089Y106402D01*
X250890Y109067D02*
Y111200D01*
X251423Y112266D02*
Y113333D01*
Y112800D01*
X254622D01*
X254089Y112266D01*
X185421Y26189D02*
X187553D01*
X188086Y25656D01*
Y24590D01*
X187553Y24057D01*
X185421D01*
X184888Y24590D01*
Y25656D01*
X185954Y25123D02*
X184888Y26189D01*
Y25656D02*
X185421Y26189D01*
X184888Y29388D02*
Y27255D01*
X187020Y29388D01*
X187553D01*
X188086Y28855D01*
Y27789D01*
X187553Y27255D01*
X184354Y30454D02*
Y32587D01*
X184888Y35253D02*
X188086D01*
X186487Y33653D01*
Y35786D01*
X185421Y45480D02*
X187553D01*
X188086Y44947D01*
Y43881D01*
X187553Y43348D01*
X185421D01*
X184888Y43881D01*
Y44947D01*
X185954Y44414D02*
X184888Y45480D01*
Y44947D02*
X185421Y45480D01*
X184888Y48679D02*
Y46547D01*
X187020Y48679D01*
X187553D01*
X188086Y48146D01*
Y47080D01*
X187553Y46547D01*
X184354Y49746D02*
Y51878D01*
X187553Y52945D02*
X188086Y53478D01*
Y54544D01*
X187553Y55077D01*
X187020D01*
X186487Y54544D01*
Y54011D01*
Y54544D01*
X185954Y55077D01*
X185421D01*
X184888Y54544D01*
Y53478D01*
X185421Y52945D01*
X185027Y65166D02*
X187160D01*
X187693Y64632D01*
Y63566D01*
X187160Y63033D01*
X185027D01*
X184494Y63566D01*
Y64632D01*
X185560Y64099D02*
X184494Y65166D01*
Y64632D02*
X185027Y65166D01*
X184494Y68365D02*
Y66232D01*
X186627Y68365D01*
X187160D01*
X187693Y67831D01*
Y66765D01*
X187160Y66232D01*
X183961Y69431D02*
Y71564D01*
X184494Y74762D02*
Y72630D01*
X186627Y74762D01*
X187160D01*
X187693Y74229D01*
Y73163D01*
X187160Y72630D01*
X185027Y85777D02*
X187160D01*
X187693Y85244D01*
Y84178D01*
X187160Y83645D01*
X185027D01*
X184494Y84178D01*
Y85244D01*
X185560Y84711D02*
X184494Y85777D01*
Y85244D02*
X185027Y85777D01*
X184494Y88976D02*
Y86844D01*
X186627Y88976D01*
X187160D01*
X187693Y88443D01*
Y87377D01*
X187160Y86844D01*
X183961Y90043D02*
Y92175D01*
X184494Y93242D02*
Y94308D01*
Y93775D01*
X187693D01*
X187160Y93242D01*
X100775Y26062D02*
X102908D01*
X103441Y25529D01*
Y24463D01*
X102908Y23929D01*
X100775D01*
X100242Y24463D01*
Y25529D01*
X101308Y24996D02*
X100242Y26062D01*
Y25529D02*
X100775Y26062D01*
X100242Y27128D02*
Y28195D01*
Y27661D01*
X103441D01*
X102908Y27128D01*
X99709Y29794D02*
Y31927D01*
X100242Y34593D02*
X103441D01*
X101841Y32993D01*
Y35126D01*
X100775Y45747D02*
X102908D01*
X103441Y45214D01*
Y44148D01*
X102908Y43614D01*
X100775D01*
X100242Y44148D01*
Y45214D01*
X101308Y44681D02*
X100242Y45747D01*
Y45214D02*
X100775Y45747D01*
X100242Y46813D02*
Y47880D01*
Y47346D01*
X103441D01*
X102908Y46813D01*
X99709Y49479D02*
Y51612D01*
X102908Y52678D02*
X103441Y53211D01*
Y54278D01*
X102908Y54811D01*
X102374D01*
X101841Y54278D01*
Y53745D01*
Y54278D01*
X101308Y54811D01*
X100775D01*
X100242Y54278D01*
Y53211D01*
X100775Y52678D01*
X100775Y65432D02*
X102908D01*
X103441Y64899D01*
Y63833D01*
X102908Y63299D01*
X100775D01*
X100242Y63833D01*
Y64899D01*
X101308Y64366D02*
X100242Y65432D01*
Y64899D02*
X100775Y65432D01*
X100242Y66498D02*
Y67565D01*
Y67032D01*
X103441D01*
X102908Y66498D01*
X99709Y69164D02*
Y71297D01*
X100242Y74496D02*
Y72363D01*
X102374Y74496D01*
X102908D01*
X103441Y73963D01*
Y72896D01*
X102908Y72363D01*
X100775Y86044D02*
X102908D01*
X103441Y85511D01*
Y84444D01*
X102908Y83911D01*
X100775D01*
X100242Y84444D01*
Y85511D01*
X101308Y84978D02*
X100242Y86044D01*
Y85511D02*
X100775Y86044D01*
X100242Y87110D02*
Y88177D01*
Y87643D01*
X103441D01*
X102908Y87110D01*
X99709Y89776D02*
Y91909D01*
X100242Y92975D02*
Y94041D01*
Y93508D01*
X103441D01*
X102908Y92975D01*
X282817Y73647D02*
X283883D01*
X283350D01*
Y70981D01*
X283883Y70448D01*
X284416D01*
X284949Y70981D01*
X281750Y73114D02*
X281217Y73647D01*
X280151D01*
X279618Y73114D01*
Y72580D01*
X280151Y72047D01*
X280684D01*
X280151D01*
X279618Y71514D01*
Y70981D01*
X280151Y70448D01*
X281217D01*
X281750Y70981D01*
X236967Y77063D02*
Y73864D01*
X235368D01*
X234835Y74397D01*
Y76530D01*
X235368Y77063D01*
X236967D01*
X231635Y73864D02*
X233768D01*
X231635Y75997D01*
Y76530D01*
X232169Y77063D01*
X233235D01*
X233768Y76530D01*
X230569Y73331D02*
X228436D01*
X225238Y73864D02*
X227370D01*
X225238Y75997D01*
Y76530D01*
X225771Y77063D01*
X226837D01*
X227370Y76530D01*
X251001Y77457D02*
Y74258D01*
X249401D01*
X248868Y74791D01*
Y76924D01*
X249401Y77457D01*
X251001D01*
X245669Y74258D02*
X247802D01*
X245669Y76390D01*
Y76924D01*
X246202Y77457D01*
X247269D01*
X247802Y76924D01*
X244603Y73725D02*
X242470D01*
X241404Y74258D02*
X240338D01*
X240871D01*
Y77457D01*
X241404Y76924D01*
M02*
