G04*
G04 #@! TF.GenerationSoftware,Altium Limited,Altium Designer,20.1.12 (249)*
G04*
G04 Layer_Color=65535*
%FSLAX25Y25*%
%MOIN*%
G70*
G04*
G04 #@! TF.SameCoordinates,D57ADFAC-2A33-4F97-B865-62DE6D2BA241*
G04*
G04*
G04 #@! TF.FilePolarity,Positive*
G04*
G01*
G75*
%ADD10C,0.00984*%
%ADD11C,0.02362*%
%ADD12C,0.00394*%
%ADD13C,0.00787*%
%ADD14C,0.00600*%
D10*
X282579Y41043D02*
X281840Y41469D01*
Y40617D01*
X282579Y41043D01*
Y53642D02*
X281840Y54068D01*
Y53215D01*
X282579Y53642D01*
X249016Y48110D02*
X248278Y48536D01*
Y47684D01*
X249016Y48110D01*
X263681Y6890D02*
X262943Y7316D01*
Y6464D01*
X263681Y6890D01*
X287303Y106890D02*
X286565Y107316D01*
Y106464D01*
X287303Y106890D01*
D11*
X240945Y53150D02*
X240500Y54073D01*
X239501Y54301D01*
X238700Y53662D01*
Y52637D01*
X239501Y51998D01*
X240500Y52226D01*
X240945Y53150D01*
X270276Y15551D02*
X269831Y16475D01*
X268832Y16703D01*
X268030Y16064D01*
Y15039D01*
X268832Y14400D01*
X269831Y14628D01*
X270276Y15551D01*
X282087Y98228D02*
X281642Y99152D01*
X280643Y99380D01*
X279841Y98741D01*
Y97716D01*
X280643Y97077D01*
X281642Y97305D01*
X282087Y98228D01*
D12*
X240551Y21161D02*
D03*
X237402Y41240D02*
D03*
X238583Y98327D02*
D03*
Y118405D02*
D03*
D13*
X274606Y41929D02*
X278150D01*
X274606Y54134D02*
X278150D01*
Y41929D02*
Y54134D01*
X274606Y41929D02*
Y54134D01*
Y54528D02*
X278150D01*
X274606Y66732D02*
X278150D01*
Y54528D02*
Y66732D01*
X274606Y54528D02*
Y66732D01*
X243701Y49213D02*
Y68898D01*
X231102Y49213D02*
Y68898D01*
Y49213D02*
X243701D01*
X231102Y68898D02*
X243701D01*
X259744Y17421D02*
X260531D01*
X259744Y20374D02*
X260531D01*
X242913Y21654D02*
X250000D01*
X242913Y16142D02*
X250000D01*
X242913Y21161D02*
X242913Y21654D01*
X250000Y21161D02*
X250000Y21654D01*
X242913Y16634D02*
X242913Y16142D01*
X250000Y16634D02*
X250000Y16142D01*
X244882D02*
Y21654D01*
X237697Y12303D02*
X238484D01*
X237697Y15256D02*
X238484D01*
X237697Y2461D02*
X238484D01*
X237697Y5413D02*
X238484D01*
X239764Y41732D02*
X246850D01*
X239764Y36220D02*
X246850D01*
X239764Y41732D02*
X239764Y41240D01*
X246850D02*
Y41732D01*
X239764Y36220D02*
Y36713D01*
X246850Y36220D02*
Y36713D01*
X241732Y36220D02*
Y41732D01*
X259842Y37500D02*
X260630D01*
X259842Y40453D02*
X260630D01*
X237795Y32382D02*
X238583D01*
X237795Y35335D02*
X238583D01*
X237795Y21752D02*
X238583D01*
X237795Y24705D02*
X238583D01*
X265158Y11614D02*
X285236D01*
X265158Y26181D02*
X285236D01*
X265158Y11614D02*
Y26181D01*
X285236Y11614D02*
Y26181D01*
X63976Y12008D02*
Y45276D01*
Y12008D02*
X78937D01*
X90354D02*
X105315D01*
Y45276D01*
X72047Y53347D02*
X78937D01*
X63976Y45276D02*
X72047Y53347D01*
X97244D02*
X105315Y45276D01*
X90354Y53347D02*
X97244D01*
X21850Y12008D02*
Y45276D01*
Y12008D02*
X36811D01*
X48228D02*
X63189D01*
Y45276D01*
X29921Y53347D02*
X36811D01*
X21850Y45276D02*
X29921Y53347D01*
X55118D02*
X63189Y45276D01*
X48228Y53347D02*
X55118D01*
X260728Y50492D02*
X261516D01*
X260728Y53445D02*
X261516D01*
X240945Y98819D02*
X248031D01*
X240945Y93307D02*
X248031D01*
X240945Y98819D02*
X240945Y98327D01*
X248031D02*
Y98819D01*
X240945Y93307D02*
X240945Y93799D01*
X248031Y93307D02*
Y93799D01*
X242913Y93307D02*
Y98819D01*
X258661Y94587D02*
X259449D01*
X258661Y97539D02*
X259449D01*
X238878Y89468D02*
X239665D01*
X238878Y92421D02*
X239665D01*
X238878Y79626D02*
X239665D01*
X238878Y82579D02*
X239665D01*
X240945Y118898D02*
X248031D01*
X240945Y113386D02*
X248031D01*
X240945Y118898D02*
X240945Y118405D01*
X248031D02*
Y118898D01*
X240945Y113386D02*
X240945Y113878D01*
X248031Y113386D02*
Y113878D01*
X242913Y113386D02*
Y118898D01*
X258563Y114665D02*
X259350D01*
X258563Y117618D02*
X259350D01*
X238878Y109547D02*
X239665D01*
X238878Y112500D02*
X239665D01*
X238878Y99705D02*
X239665D01*
X238878Y102657D02*
X239665D01*
X264764Y102165D02*
X284842D01*
X264764Y87598D02*
X284842D01*
Y102165D01*
X264764Y87598D02*
Y102165D01*
X105315Y74016D02*
Y107283D01*
X90354D02*
X105315D01*
X63976D02*
X78937D01*
X63976Y74016D02*
Y107283D01*
X90354Y65945D02*
X97244D01*
X105315Y74016D01*
X63976D02*
X72047Y65945D01*
X78937D01*
X63189Y74016D02*
Y107283D01*
X48228D02*
X63189D01*
X21850D02*
X36811D01*
X21850Y74016D02*
Y107283D01*
X48228Y65945D02*
X55118D01*
X63189Y74016D01*
X21850D02*
X29921Y65945D01*
X36811D01*
X260728Y63090D02*
X261516D01*
X260728Y66043D02*
X261516D01*
D14*
X222137Y72466D02*
Y69800D01*
X222671Y69267D01*
X223737D01*
X224270Y69800D01*
Y72466D01*
X227469D02*
X226403Y71933D01*
X225336Y70866D01*
Y69800D01*
X225869Y69267D01*
X226936D01*
X227469Y69800D01*
Y70333D01*
X226936Y70866D01*
X225336D01*
X272088Y25094D02*
Y22429D01*
X272621Y21895D01*
X273688D01*
X274221Y22429D01*
Y25094D01*
X277420D02*
X275287D01*
Y23495D01*
X276353Y24028D01*
X276886D01*
X277420Y23495D01*
Y22429D01*
X276886Y21895D01*
X275820D01*
X275287Y22429D01*
X278486Y21362D02*
X280619D01*
X283818Y21895D02*
X281685D01*
X283818Y24028D01*
Y24561D01*
X283284Y25094D01*
X282218D01*
X281685Y24561D01*
X273409Y78638D02*
Y75972D01*
X273942Y75439D01*
X275008D01*
X275541Y75972D01*
Y78638D01*
X278740D02*
X276607D01*
Y77038D01*
X277674Y77571D01*
X278207D01*
X278740Y77038D01*
Y75972D01*
X278207Y75439D01*
X277141D01*
X276607Y75972D01*
X279806Y74906D02*
X281939D01*
X283005Y75439D02*
X284072D01*
X283539D01*
Y78638D01*
X283005Y78105D01*
X274844Y40843D02*
Y38177D01*
X275377Y37644D01*
X276443D01*
X276976Y38177D01*
Y40843D01*
X279642Y37644D02*
Y40843D01*
X278043Y39243D01*
X280175D01*
X281242Y37110D02*
X283375D01*
X286573Y37644D02*
X284441D01*
X286573Y39776D01*
Y40309D01*
X286040Y40843D01*
X284974D01*
X284441Y40309D01*
X274983Y71157D02*
Y68492D01*
X275517Y67958D01*
X276583D01*
X277116Y68492D01*
Y71157D01*
X279782Y67958D02*
Y71157D01*
X278182Y69558D01*
X280315D01*
X281381Y67425D02*
X283514D01*
X284580Y67958D02*
X285647D01*
X285113D01*
Y71157D01*
X284580Y70624D01*
X254765Y55360D02*
Y58559D01*
X256365D01*
X256898Y58026D01*
Y56959D01*
X256365Y56426D01*
X254765D01*
X255832D02*
X256898Y55360D01*
X259564D02*
Y58559D01*
X257964Y56959D01*
X260097D01*
X261163Y54827D02*
X263296D01*
X266495Y55360D02*
X264362D01*
X266495Y57493D01*
Y58026D01*
X265962Y58559D01*
X264895D01*
X264362Y58026D01*
X256479Y59297D02*
Y62496D01*
X258079D01*
X258612Y61963D01*
Y60896D01*
X258079Y60363D01*
X256479D01*
X257546D02*
X258612Y59297D01*
X261278D02*
Y62496D01*
X259678Y60896D01*
X261811D01*
X262877Y58764D02*
X265010D01*
X266076Y59297D02*
X267143D01*
X266610D01*
Y62496D01*
X266076Y61963D01*
X266576Y17171D02*
Y20370D01*
X268176D01*
X268709Y19837D01*
Y18770D01*
X268176Y18237D01*
X266576D01*
X267642D02*
X268709Y17171D01*
X269775Y19837D02*
X270308Y20370D01*
X271375D01*
X271908Y19837D01*
Y19304D01*
X271375Y18770D01*
X270842D01*
X271375D01*
X271908Y18237D01*
Y17704D01*
X271375Y17171D01*
X270308D01*
X269775Y17704D01*
X272974Y16638D02*
X275107D01*
X277773Y17171D02*
Y20370D01*
X276173Y18770D01*
X278306D01*
X253978Y42368D02*
Y45567D01*
X255577D01*
X256110Y45034D01*
Y43967D01*
X255577Y43434D01*
X253978D01*
X255044D02*
X256110Y42368D01*
X257177Y45034D02*
X257710Y45567D01*
X258776D01*
X259309Y45034D01*
Y44500D01*
X258776Y43967D01*
X258243D01*
X258776D01*
X259309Y43434D01*
Y42901D01*
X258776Y42368D01*
X257710D01*
X257177Y42901D01*
X260376Y41835D02*
X262508D01*
X263575Y45034D02*
X264108Y45567D01*
X265174D01*
X265707Y45034D01*
Y44500D01*
X265174Y43967D01*
X264641D01*
X265174D01*
X265707Y43434D01*
Y42901D01*
X265174Y42368D01*
X264108D01*
X263575Y42901D01*
X265789Y94336D02*
Y97535D01*
X267388D01*
X267921Y97002D01*
Y95936D01*
X267388Y95403D01*
X265789D01*
X266855D02*
X267921Y94336D01*
X268988Y97002D02*
X269521Y97535D01*
X270587D01*
X271120Y97002D01*
Y96469D01*
X270587Y95936D01*
X270054D01*
X270587D01*
X271120Y95403D01*
Y94870D01*
X270587Y94336D01*
X269521D01*
X268988Y94870D01*
X272187Y93803D02*
X274319D01*
X277518Y94336D02*
X275386D01*
X277518Y96469D01*
Y97002D01*
X276985Y97535D01*
X275919D01*
X275386Y97002D01*
X265141Y114415D02*
Y117614D01*
X266740D01*
X267273Y117081D01*
Y116015D01*
X266740Y115481D01*
X265141D01*
X266207D02*
X267273Y114415D01*
X268340Y117081D02*
X268873Y117614D01*
X269939D01*
X270472Y117081D01*
Y116548D01*
X269939Y116015D01*
X269406D01*
X269939D01*
X270472Y115481D01*
Y114948D01*
X269939Y114415D01*
X268873D01*
X268340Y114948D01*
X271539Y113882D02*
X273671D01*
X274738Y114415D02*
X275804D01*
X275271D01*
Y117614D01*
X274738Y117081D01*
X220120Y2998D02*
Y6197D01*
X221719D01*
X222252Y5664D01*
Y4597D01*
X221719Y4064D01*
X220120D01*
X221186D02*
X222252Y2998D01*
X225451D02*
X223318D01*
X225451Y5130D01*
Y5664D01*
X224918Y6197D01*
X223852D01*
X223318Y5664D01*
X226517Y2465D02*
X228650D01*
X231316Y2998D02*
Y6197D01*
X229716Y4597D01*
X231849D01*
X220120Y24258D02*
Y27457D01*
X221719D01*
X222252Y26923D01*
Y25857D01*
X221719Y25324D01*
X220120D01*
X221186D02*
X222252Y24258D01*
X225451D02*
X223318D01*
X225451Y26390D01*
Y26923D01*
X224918Y27457D01*
X223852D01*
X223318Y26923D01*
X226517Y23724D02*
X228650D01*
X229716Y26923D02*
X230250Y27457D01*
X231316D01*
X231849Y26923D01*
Y26390D01*
X231316Y25857D01*
X230783D01*
X231316D01*
X231849Y25324D01*
Y24791D01*
X231316Y24258D01*
X230250D01*
X229716Y24791D01*
X231930Y84494D02*
Y87693D01*
X233530D01*
X234063Y87160D01*
Y86093D01*
X233530Y85560D01*
X231930D01*
X232997D02*
X234063Y84494D01*
X237262D02*
X235129D01*
X237262Y86626D01*
Y87160D01*
X236729Y87693D01*
X235663D01*
X235129Y87160D01*
X238329Y83961D02*
X240461D01*
X243660Y84494D02*
X241527D01*
X243660Y86626D01*
Y87160D01*
X243127Y87693D01*
X242061D01*
X241527Y87160D01*
X233645Y104573D02*
Y107772D01*
X235244D01*
X235777Y107238D01*
Y106172D01*
X235244Y105639D01*
X233645D01*
X234711D02*
X235777Y104573D01*
X238976D02*
X236844D01*
X238976Y106705D01*
Y107238D01*
X238443Y107772D01*
X237377D01*
X236844Y107238D01*
X240043Y104040D02*
X242175D01*
X243242Y104573D02*
X244308D01*
X243775D01*
Y107772D01*
X243242Y107238D01*
X220386Y12447D02*
Y15646D01*
X221986D01*
X222519Y15112D01*
Y14046D01*
X221986Y13513D01*
X220386D01*
X221452D02*
X222519Y12447D01*
X223585D02*
X224651D01*
X224118D01*
Y15646D01*
X223585Y15112D01*
X226251Y11913D02*
X228383D01*
X231049Y12447D02*
Y15646D01*
X229450Y14046D01*
X231582D01*
X220780Y32132D02*
Y35331D01*
X222379D01*
X222912Y34797D01*
Y33731D01*
X222379Y33198D01*
X220780D01*
X221846D02*
X222912Y32132D01*
X223979D02*
X225045D01*
X224512D01*
Y35331D01*
X223979Y34797D01*
X226644Y31598D02*
X228777D01*
X229843Y34797D02*
X230377Y35331D01*
X231443D01*
X231976Y34797D01*
Y34264D01*
X231443Y33731D01*
X230910D01*
X231443D01*
X231976Y33198D01*
Y32665D01*
X231443Y32132D01*
X230377D01*
X229843Y32665D01*
X221567Y89612D02*
Y92811D01*
X223167D01*
X223700Y92278D01*
Y91211D01*
X223167Y90678D01*
X221567D01*
X222634D02*
X223700Y89612D01*
X224766D02*
X225833D01*
X225299D01*
Y92811D01*
X224766Y92278D01*
X227432Y89079D02*
X229565D01*
X232764Y89612D02*
X230631D01*
X232764Y91745D01*
Y92278D01*
X232230Y92811D01*
X231164D01*
X230631Y92278D01*
X222888Y109691D02*
Y112890D01*
X224487D01*
X225020Y112356D01*
Y111290D01*
X224487Y110757D01*
X222888D01*
X223954D02*
X225020Y109691D01*
X226087D02*
X227153D01*
X226620D01*
Y112890D01*
X226087Y112356D01*
X228752Y109158D02*
X230885D01*
X231951Y109691D02*
X233018D01*
X232485D01*
Y112890D01*
X231951Y112356D01*
X209309Y114198D02*
X208243D01*
X208776D01*
Y111532D01*
X208243Y110999D01*
X207710D01*
X207177Y111532D01*
X212508Y110999D02*
X210376D01*
X212508Y113132D01*
Y113665D01*
X211975Y114198D01*
X210909D01*
X210376Y113665D01*
X4724Y117348D02*
X3658D01*
X4191D01*
Y114682D01*
X3658Y114149D01*
X3125D01*
X2592Y114682D01*
X5791Y114149D02*
X6857D01*
X6324D01*
Y117348D01*
X5791Y116814D01*
X244984Y3851D02*
X248183D01*
Y5450D01*
X247650Y5983D01*
X245517D01*
X244984Y5450D01*
Y3851D01*
X248183Y7050D02*
Y8116D01*
Y7583D01*
X244984D01*
X245517Y7050D01*
X248716Y9715D02*
Y11848D01*
X248183Y14514D02*
X244984D01*
X246584Y12914D01*
Y15047D01*
X244984Y24717D02*
X248183D01*
Y26316D01*
X247650Y26849D01*
X245517D01*
X244984Y26316D01*
Y24717D01*
X248183Y27916D02*
Y28982D01*
Y28449D01*
X244984D01*
X245517Y27916D01*
X248716Y30582D02*
Y32714D01*
X245517Y33781D02*
X244984Y34314D01*
Y35380D01*
X245517Y35913D01*
X246051D01*
X246584Y35380D01*
Y34847D01*
Y35380D01*
X247117Y35913D01*
X247650D01*
X248183Y35380D01*
Y34314D01*
X247650Y33781D01*
X249110Y92212D02*
X245911D01*
Y90613D01*
X246444Y90080D01*
X248577D01*
X249110Y90613D01*
Y92212D01*
X245911Y89013D02*
Y87947D01*
Y88480D01*
X249110D01*
X248577Y89013D01*
X245378Y86348D02*
Y84215D01*
X245911Y81016D02*
Y83149D01*
X248044Y81016D01*
X248577D01*
X249110Y81549D01*
Y82616D01*
X248577Y83149D01*
X245378Y102415D02*
X248577D01*
Y104015D01*
X248044Y104548D01*
X245911D01*
X245378Y104015D01*
Y102415D01*
X248577Y105614D02*
Y106681D01*
Y106147D01*
X245378D01*
X245911Y105614D01*
X249110Y108280D02*
Y110413D01*
X248577Y111479D02*
Y112545D01*
Y112012D01*
X245378D01*
X245911Y111479D01*
X230036Y72695D02*
X229503Y72162D01*
Y71096D01*
X230036Y70562D01*
X232169D01*
X232702Y71096D01*
Y72162D01*
X232169Y72695D01*
X229503Y75894D02*
X230036Y74828D01*
X231102Y73761D01*
X232169D01*
X232702Y74295D01*
Y75361D01*
X232169Y75894D01*
X231635D01*
X231102Y75361D01*
Y73761D01*
X266650Y72695D02*
X266117Y72162D01*
Y71096D01*
X266650Y70562D01*
X268783D01*
X269316Y71096D01*
Y72162D01*
X268783Y72695D01*
X266117Y75894D02*
Y73761D01*
X267717D01*
X267183Y74828D01*
Y75361D01*
X267717Y75894D01*
X268783D01*
X269316Y75361D01*
Y74295D01*
X268783Y73761D01*
X100599Y7238D02*
X100065Y7772D01*
X98999D01*
X98466Y7238D01*
Y5106D01*
X98999Y4573D01*
X100065D01*
X100599Y5106D01*
X103264Y4573D02*
Y7772D01*
X101665Y6172D01*
X103798D01*
X104864Y4039D02*
X106997D01*
X110196Y4573D02*
X108063D01*
X110196Y6705D01*
Y7238D01*
X109662Y7772D01*
X108596D01*
X108063Y7238D01*
X99951Y112356D02*
X99418Y112890D01*
X98351D01*
X97818Y112356D01*
Y110224D01*
X98351Y109691D01*
X99418D01*
X99951Y110224D01*
X102617Y109691D02*
Y112890D01*
X101017Y111290D01*
X103150D01*
X104216Y109158D02*
X106349D01*
X107415Y109691D02*
X108481D01*
X107948D01*
Y112890D01*
X107415Y112356D01*
X19103Y7238D02*
X18569Y7772D01*
X17503D01*
X16970Y7238D01*
Y5106D01*
X17503Y4573D01*
X18569D01*
X19103Y5106D01*
X20169Y7238D02*
X20702Y7772D01*
X21768D01*
X22301Y7238D01*
Y6705D01*
X21768Y6172D01*
X21235D01*
X21768D01*
X22301Y5639D01*
Y5106D01*
X21768Y4573D01*
X20702D01*
X20169Y5106D01*
X23368Y4039D02*
X25501D01*
X28699Y4573D02*
X26567D01*
X28699Y6705D01*
Y7238D01*
X28166Y7772D01*
X27100D01*
X26567Y7238D01*
X20817Y112750D02*
X20284Y113283D01*
X19217D01*
X18684Y112750D01*
Y110618D01*
X19217Y110084D01*
X20284D01*
X20817Y110618D01*
X21883Y112750D02*
X22416Y113283D01*
X23483D01*
X24016Y112750D01*
Y112217D01*
X23483Y111684D01*
X22949D01*
X23483D01*
X24016Y111151D01*
Y110618D01*
X23483Y110084D01*
X22416D01*
X21883Y110618D01*
X25082Y109551D02*
X27215D01*
X28281Y110084D02*
X29347D01*
X28814D01*
Y113283D01*
X28281Y112750D01*
X256935Y4142D02*
X256402Y3609D01*
Y2542D01*
X256935Y2009D01*
X259068D01*
X259601Y2542D01*
Y3609D01*
X259068Y4142D01*
X259601Y7341D02*
Y5208D01*
X257468Y7341D01*
X256935D01*
X256402Y6808D01*
Y5741D01*
X256935Y5208D01*
X260134Y8407D02*
Y10540D01*
X259601Y13206D02*
X256402D01*
X258001Y11606D01*
Y13739D01*
X257329Y82095D02*
X256795Y81561D01*
Y80495D01*
X257329Y79962D01*
X259461D01*
X259994Y80495D01*
Y81561D01*
X259461Y82095D01*
X259994Y85294D02*
Y83161D01*
X257862Y85294D01*
X257329D01*
X256795Y84760D01*
Y83694D01*
X257329Y83161D01*
X260527Y86360D02*
Y88493D01*
X257329Y89559D02*
X256795Y90092D01*
Y91158D01*
X257329Y91691D01*
X257862D01*
X258395Y91158D01*
Y90625D01*
Y91158D01*
X258928Y91691D01*
X259461D01*
X259994Y91158D01*
Y90092D01*
X259461Y89559D01*
X257329Y25008D02*
X256795Y24475D01*
Y23408D01*
X257329Y22875D01*
X259461D01*
X259994Y23408D01*
Y24475D01*
X259461Y25008D01*
X259994Y28207D02*
Y26074D01*
X257862Y28207D01*
X257329D01*
X256795Y27674D01*
Y26607D01*
X257329Y26074D01*
X260527Y29273D02*
Y31406D01*
X259994Y34605D02*
Y32472D01*
X257862Y34605D01*
X257329D01*
X256795Y34072D01*
Y33005D01*
X257329Y32472D01*
Y102707D02*
X256795Y102173D01*
Y101107D01*
X257329Y100574D01*
X259461D01*
X259994Y101107D01*
Y102173D01*
X259461Y102707D01*
X259994Y105905D02*
Y103773D01*
X257862Y105905D01*
X257329D01*
X256795Y105372D01*
Y104306D01*
X257329Y103773D01*
X260527Y106972D02*
Y109105D01*
X259994Y110171D02*
Y111237D01*
Y110704D01*
X256795D01*
X257329Y110171D01*
X209133Y21412D02*
X208600Y21945D01*
X207533D01*
X207000Y21412D01*
Y19279D01*
X207533Y18746D01*
X208600D01*
X209133Y19279D01*
X210199Y18746D02*
X211265D01*
X210732D01*
Y21945D01*
X210199Y21412D01*
X212865Y18213D02*
X214998D01*
X217664Y18746D02*
Y21945D01*
X216064Y20345D01*
X218197D01*
X208739Y41097D02*
X208206Y41630D01*
X207140D01*
X206607Y41097D01*
Y38964D01*
X207140Y38431D01*
X208206D01*
X208739Y38964D01*
X209805Y38431D02*
X210872D01*
X210339D01*
Y41630D01*
X209805Y41097D01*
X212471Y37898D02*
X214604D01*
X215670Y41097D02*
X216203Y41630D01*
X217270D01*
X217803Y41097D01*
Y40563D01*
X217270Y40030D01*
X216737D01*
X217270D01*
X217803Y39497D01*
Y38964D01*
X217270Y38431D01*
X216203D01*
X215670Y38964D01*
X209133Y81254D02*
X208600Y81787D01*
X207533D01*
X207000Y81254D01*
Y79122D01*
X207533Y78588D01*
X208600D01*
X209133Y79122D01*
X210199Y78588D02*
X211265D01*
X210732D01*
Y81787D01*
X210199Y81254D01*
X212865Y78055D02*
X214998D01*
X218197Y78588D02*
X216064D01*
X218197Y80721D01*
Y81254D01*
X217664Y81787D01*
X216597D01*
X216064Y81254D01*
X210060Y101333D02*
X209527Y101866D01*
X208460D01*
X207927Y101333D01*
Y99200D01*
X208460Y98667D01*
X209527D01*
X210060Y99200D01*
X211126Y98667D02*
X212192D01*
X211659D01*
Y101866D01*
X211126Y101333D01*
X213792Y98134D02*
X215925D01*
X216991Y98667D02*
X218057D01*
X217524D01*
Y101866D01*
X216991Y101333D01*
M02*
