M48
;Layer_Color=9474304
;FILE_FORMAT=2:5
INCH,TZ
;TYPE=PLATED
T1F00S00C0.01181
T2F00S00C0.01200
T3F00S00C0.01201
T4F00S00C0.03937
%
T01
X142126Y20866
Y41732
X141901Y61642
X178347Y62598
Y41732
X178347Y21260
X234646Y23228
Y13780
Y3937
X252756Y4724
X259055Y6299
X262343Y8917
X263878Y13878
X268499Y12205
X270866Y14567
X275858Y14031
X283465Y15748
X288189Y9449
X286720Y5906
X281496Y3150
X276849Y2745
X274016Y3150
X270472Y2362
X271358Y26750
X274008Y25668
X276772Y23622
X279959Y25897
X284252Y25984
X287008Y29528
X281897Y35022
X279035Y35092
X273917Y34154
X274803Y37008
X271654Y37795
X272835Y41339
X268799Y35092
X262167Y33996
Y28996
X263799Y38996
X279528Y48031
X282087Y51772
Y64370
X277559Y60630
X261811Y73228
X233071Y70079
X244882Y46850
X238976Y38976
X234646Y33858
X242126Y18898
X252756Y25197
X252756Y82677
X265492Y86083
X270965Y86910
X273622Y78786
X276083Y76870
X278740Y78786
X281201Y76870
X268504Y77165
X261949Y91083
X272047Y98425
X276104Y98090
X280758Y98425
X283760Y103248
X283858Y111811
X288976Y111417
X276912Y111583
X276378Y116142
X272146Y116043
X263799Y116161
X261949Y111161
X268898Y102362
X252756Y102756
X235433Y101181
Y111024
X241339Y116142
X240158Y96063
X235827Y90945
Y81102
X243504Y75394
X281042Y90875
X285433Y88976
X178347Y81102
X142126Y81102
T02
X241732Y3937
Y13780
X242894Y23996
X242776Y33996
X256693Y52165
Y64764
X263799Y18917
Y96083
X242894Y101161
X242776Y111161
X241634Y91043
X241713Y81083
T03
X40551Y2756
X42913
X45276
X47638
X50000
X52362
X54724
X57087
X59449
X61811
X64173
X66535
X68898
X71260
X73622
X74803Y4724
X72441
X70079
X67716
X65354
X62992
X60630
X58268
X55905
X53543
X51181
X48819
X46457
X44094
X41732
X39370
X40551Y6693
X42913
X45276
X47638
X50000
X52362
X54724
X57087
X59449
X61811
X64173
X66535
X68898
X71260
X73622
X74803Y8661
X72441
X70079
X67716
X65354
X62992
X60630
X58268
X55905
X53543
X51181
X48819
X46457
X44094
X41732
X39370
X40551Y10630
X42913
X45276
X47638
X50000
X52362
X54724
X57087
X59449
X61811
X64173
X66535
X68898
X71260
X73622
X74803Y12598
X72441
X70079
X67716
X65354
X62992
X60630
X58268
X55905
X53543
X51181
X48819
X46457
X44094
X41732
X39370
X40551Y14567
X42913
X45276
X47638
X50000
X52362
X54724
X57087
X59449
X61811
X64173
X66535
X68898
X71260
X73622
X74803Y16535
X72441
X70079
X67716
X65354
X62992
X60630
X58268
X55905
X53543
X51181
X48819
X46457
X44094
X41732
X39370
X40551Y18504
X42913
X45276
X44094Y20472
X41732
X39370
X40551Y22441
X42913
X45276
X77165Y16535
X79527
X81890
X84252
X86614
X85433Y14567
X87795
X86614Y12598
X84252
X81890
X79527
X77165
X78347Y14567
X75984
Y10630
X78347
X80709
X83071
X85433
X87795
X86614Y8661
X84252
X81890
X79527
X77165
X78347Y6693
X75984
X77165Y4724
X79527
X81890
X84252
X86614
X85433Y6693
X87795
Y2756
X85433
X83071
X80709
X78347
X75984
X80709Y6693
X83071
Y14567
X80709
Y18504
X83071
X85433
X87795
X86614Y20472
X84252
X81890
X83071Y22441
X85433
X87751Y22407
X107480Y23622
X109843
X112205
X114567
X116929
X119291
X121653
X124016
X126378
X128740
X131102
X133465
X134646Y25591
X132283
X129921
X127559
X125197
X122835
X120472
X118110
X115748
X113386
X111024
X108661
X109843Y27559
X107480
X108661Y29528
X111024
X113386
X115748
X118110
X120472
X122835
X125197
X127559
X129921
X132283
X134646
X133465Y27559
X131102
X128740
X126378
X124016
X121653
X119291
X116929
X114567
X112205
Y31496
X114567
X116929Y31496
X119291
X121653Y31496
X124016
X126378
X128740
X131102
X133465
X132283Y33465
X134646
X133465Y35433
X131102
X128740
X126378
X124016
X121653
X119291
X116929
X114567
X112205
X109843
X107480
X108661Y37402
X111024
X113386
X115748
X118110
X120472
X122835
X125197
X127559
X129921
X132283
X134646
X133465Y39370
X131102
X128740
X126378
X124016
X121653
X119291
X116929
X114567
X112205
X109843
X107480
X108661Y41339
X111024
X113386
X115748
X118110
X120472
X122835
X125197
X127559
X129921
X132283
X134646
X133465Y43307
X131102
X128740
X126378
X124016
X121653
X119291Y43307
X116929
X114567Y43307
X112205
X109843
X107480
X108661Y45276
X111024
X113386
X115748
X118110
X120472
X122835
X125197
X127559
X129921
X132283
X134646
X133465Y47244
X131102
X128740
X126378
X124016
X121653
X119291
X116929
X114567
X112205
X109843
X107480
X108661Y49213
X111024
X113386
X115748
X118110
X120472
X122835
X125197
X127559
X129921
X132283
X134646
X133465Y51181
X131102
X128740
X126378
X124016
X121653
X119291
X116929
X114567
X112205
X109843
X107480
X108661Y53150
X111024
X113386
X115748
X118110
X120472
X122835
X125197
X127559
X129921
X132283
X134646
X133465Y55118
X131102
X128740
X126378
X124016
X121653
X119291Y55118
X116929
X114567Y55118
X112205
X109843
X107480
X108661Y57087
X111024
X113386
X115748
X118110
X120472
X122835
X125197
X127559
X129921
X132283
X134646
X133465Y59055
X131102
X128740
X126378
X124016
X121653
X119291
X116929
X114567
X112205
X109843
X107480
X108661Y61024
X111024
X113386
X115748
X118110
X120472
X122835
X125197
X127559
X129921
X132283
X134646
X133465Y62992
X131102
X128740
X126378
X124016
X121653
X119291
X116929
X114567
X112205
X109843
X107480
X108661Y64961
X111024
X113386
X115748
X118110
X120472
X122835
X125197
X127559
X129921
X132283
X134646
X133465Y66929
X131102
X128740
X126378
X124016
X121653
X119291Y66929
X116929
X114567Y66929
X112205
X109843
X107480
X108661Y68898
X111024
X113386
X115748
X118110
X120472
X122835
X125197
X127559
X129921
X132283
X134646
X133465Y70866
X131102
X128740
X126378
X124016
X121653
X119291
X116929
X114567
X112205
X109843
X107480
X108661Y72835
X111024
X113386
X115748
X118110
X120472
X122835
X125197
X127559
X129921
X132283
X134646
X133465Y74803
X131102
X128740
X126378
X124016
X121653
X119291
X116929
X114567
X112205
X109843
X107480
X140551Y74803
X142913
X145276
X147638
X150000
X152362
X154724
X157087
X159449
X161811
X164173
X166535
X168898
X167717Y72835
X170079
X168898Y70866
X166535
X164173
X161811
X159449
X157087
X154724
X152362
X150000
X147638
X145276
X142913
X140551
X141732Y68898
X139370
X140551Y66929
X142913
X145276
X147638
X150000
X152362
X154724
X157087
X159449
X161811
X164173
X166535
X168898
X167717Y68898
X170079
Y64961
X167717
X165354
X162992
X160630
X158268
X155905
X153543
X151181
X148819
X146457
X144095
X141732
X139370
Y72835
X141732
X144095
X146457
X148819
X151181
X153543
X155905
X158268
X160630
X162992
X165354
Y68898
X162992
X160630
X158268
X155905
X153543
X151181
X148819
X146457
X144095
X150000Y62992
X152362
X154724
X157087
X159449
X161811
X164173
X166535
X168898
X167717Y55118
X170079
X168898Y53150
X166535
X164173
X161811
X159449
X157087
X154724
X152362
X150000
X147638
X145276
X142913
X140551
X141732Y55118
X139370
Y51181
X141732
X144095
X146457
X148819
X151181
X153543
X155905
X158268
X160630
X162992
X165354
X167717
X170079
X168898Y49213
X166535
X164173
X161811
X159449
X157087
X154724
X152362
X150000
X147638
X145276
X142913
X140551
X141732Y47244
X139370
X140551Y45276
X142913
X145276
X147638
X150000
X152362
X154724
X157087
X159449
X161811
X164173
X166535
X168898
X170079Y43307
X167717
X165354
X162992
X160630
X158268
X155905
X153543
X151181
X148819
Y47244
X151181
X153543
X155905
X158268
X160630
X162992
X165354
X167717
X170079
Y38189
X167717
X165354
X162992
X160630
X158268
X155905
X153543
X151181
X148819
X146457
X144095
X141732
X139370
X140551Y36220
X142913
X145276
X147638
X150000
X152362
X154724
X157087
X159449
X161811
X164173
X166535
X168898
X170079Y34252
X167717
X165354
X162992
X160630
X158268
X155905
X153543
X151181
X148819
X146457
X144095
X141732
X139370
X140551Y32283
X142913
X145276
X147638
X150000
X152362
X154724
X157087
X159449
X161811
X164173
X166535
X168898
X170079Y30315
X167717
X165354
X162992
X160630
X158268
X155905
X153543
X151181
X148819
X146457
X144095
X141732
X139370
X140551Y28346
X142913
X145276
X147638
X150000
X152362
X154724
X157087
X159449
X161811
X164173
X166535
X168898
X167717Y26378
X170079
X168898Y24409
X166535
X164173
X161811
X159449
X157087
X154724
X152362
X150000
X151181Y26378
X148819
X146457
X144095
X141732
X139370
X134646Y21654
X132283
X129921
X127559
X125197
X122835
X120472
X118110
X115748
X113386
X111024
X108661
X109843Y31496
X107480
X108661Y33465
X111024
X113386
X115748
X118110
X120472
X122835
X125197
X127559
X129921
X144095Y47244
X146457
Y55118
X144095
X148819
X151181
X153543
X155905
X158268
X160630
X162992
X165354
Y26378
X162992
X160630
X158268
X155905
X153543
Y22441
X151181
X148819
X155905
X158268
X160630
X162992
X165354
X167717
X170079
X172047Y16535
X174409
X176772
X179134
X181496
X183858
X186221
X187402Y14567
X185039
X182677
X180315
X177953
X175591
X173228
X174409Y12598
X176772
X179134
X181496
X183858
X186221
X188583
X190945
X192126Y10630
X189764
X187402
X185039
X182677
X180315
X177953
X175591
X173228
X174409Y8661
X176772
X179134
X181496
X183858
X186221
X188583
X190945
X193307
X194488Y6693
X192126
X189764
X187402
X185039
X182677
X180315
X177953
X175591
X173228
X172047Y4724
X174409
X176772
X179134
X181496
X183858
X186221
X188583
X190945
X193307
X194488Y2756
X192126
X189764
X187402
X185039
X182677
X180315
X177953
X175591
X173228
X172047Y8661
Y12598
X225590Y58268
X227559Y59842
X229528Y58268
X231496Y59842
X233465Y58268
X235433Y59842
X237402Y58268
X239370Y59842
X241339Y58268
X243307Y59842
X245276Y58268
X247244Y59842
X249213Y58268
X170079Y76772
X167717
X165354
X162992
X160630
X158268
X155905
X153543
X151181
X148819
X146457
X144095
X141732
X139370
X134646Y76772
X132283
X129921
X127559
X125197
X122835
X120472
X118110
X115748
X113386
X111024
X108661
X109843Y78740
X107480
X108661Y80709
X111024
X113386
X115748
X118110
X120472
X122835
X125197
X127559
X129921
X132283
X134646
X133465Y82677
X131102
X128740
X126378
X124016
X121653
X119291
X116929
X114567
X112205
X109843
X107480
X108661Y84646
X111024
X113386
X115748
X118110
X120472
X122835
X125197
X127559
X129921
X132283
X134646
X133465Y86614
X131102
X128740
X126378
X124016
X121653
X119291
X116929
X114567
X112205
X109843
X107480
X108661Y88583
X111024
X113386
X115748
X118110
X120472
X122835
X125197
X127559
X129921
X132283
X134646
X133465Y90551
X131102
X128740
X126378
X124016
X121653
X119291Y90551
X116929
X114567Y90551
X112205
X109843
X107480
X108661Y92520
X111024
X113386
X115748
X118110
X120472
X122835
X125197
X127559
X129921
X132283
X134646
X133465Y94488
X131102
X128740
X126378
X124016
X121653
X119291
X116929
X114567
X112205
X109843
X107480
X108661Y96457
X111024
X113386
X115748
X118110
X120472
X122835
X125197
X127559
X129921
X132283
X134646
X139370Y97244
X141732
X144095
X146457
X148819
X151181
X153543
X155905
X158268
X160630
X162992
X165354
X167717
X170079
X168898Y95276
X166535
X164173
X161811
X159449
X157087
X154724
X152362
X150000
X147638
X145276
X142913
X140551
X139370Y93307
X141732
X144095
X146457
X148819
X151181
X153543
X155905
X158268
X160630
X162992
X165354
X167717
X170079
X168898Y91339
X166535
X164173
X161811
X159449
X157087
X154724
X152362
X150000
X147638
X145276
X142913
X140551
X139370Y89370
X141732
X144095
X146457
X148819
X151181
X153543
X155905
X158268
X160630
X162992
X165354
X167717
X170079
X168898Y87402
X166535
X164173
X161811
X159449
X157087
X154724
X152362
X150000
X147638
X145276
X142913
X140551
X141732Y85433
X139370
X144095
X146457
X148819
X151181
X153543
X155905
X158268
X160630
X162992
X165354
X167717
X170079
X168898Y83465
X166535
X164173
X161811
X159449
X157087
X154724
X152362
X150000
X147638
X148819Y81496
X151181
X153543
X155905
X158268
X160630
X162992
X165354
X167717
X170079
X173228Y101181
X175591
X177953
X180315
X182677
X185039
X183858Y103150
X186221
X188583
X189764Y105118
X187402
X185039
X182677
X180315
X177953
X175591
X173228
X174409Y103150
X176772
X179134
X181496
X181496Y107087
X183858
X186221
X188583
X190945
X192126Y109055
X194488
X193307Y111024
X190945
X188583
X186221
X183858
X181496
X179134Y111024
X176772
X174409
X173228Y109055
X175591
X177953
X180315
X182677
X185039
X187402
X189764
Y112992
X187402
X185039
X182677
X180315
X177953
X175591
X173228
X174409Y114961
X176772
X179134
X181496Y114961
X183858
X186221
X188583
X190945
X193307
X194488Y116929
X192126
X189764
X187402
X185039
X182677
X180315
X177953
X175591
X173228
X174409Y107087
X176772
X179134
X192126Y112992
X194488
X133465Y78740
X131102
X128740
X126378
X124016
X121653
X119291Y78740
X116929
X114567Y78740
X112205
X87751Y96885
X85433Y96850
X83071
X84252Y98819
X86614
X85433Y100787
X83071
X80709
X78347
X75984
X77165Y102756
X79527
X81890
X84252
X86614
X85433Y104724
X83071
X80709
X78347
X75984
X77165Y106693
X79527
X81890
X84252
X86614
X85433Y108661
X83071
X80709
X78347
X75984
X77165Y110630
X79527
X81890
X84252
X86614
X85433Y112598
X83071
X80709
X78347
X75984
X77165Y114567
X79527
X81890
X84252
X86614
X85433Y116535
X83071
X80709
X78347
X75984
X87795
Y112598
Y108661
Y104724
Y100787
X81890Y98819
X73622Y100787
X71260
X68898
X66535
X64173
X61811
X59449
X57087
X54724
X52362
X50000
X47638
X45276
X42913
X40551
X41732Y98819
X39370
X40551Y96850
X42913
X45276
X44094Y98819
Y102756
X46457
X48819
X51181
X53543
X55905
X58268
X60630
X62992
X65354
X67716
X70079
X72441
X74803
X73622Y104724
X71260
X68898
X66535
X64173
X61811
X59449
X57087
X54724
X52362
X50000
X47638
X45276
X42913
X40551
X41732Y102756
X39370
Y106693
X41732
X44094
X46457
X48819
X51181
X53543
X55905
X58268
X60630
X62992
X65354
X67716
X70079
X72441
X74803
X73622Y108661
X71260
X68898
X66535
X64173
X61811
X59449
X57087
X54724
X52362
X50000
X47638
X45276
X42913
X40551
X41732Y110630
X39370
X40551Y112598
X42913
X45276
X47638
X50000
X52362
X54724
X57087
X59449
X61811
X64173
X66535
X68898
X71260
X73622
X72441Y114567
X74803
X73622Y116535
X71260
X68898
X66535
X64173
X61811
X59449
X57087
X54724
X52362
X50000
X47638
X45276
X42913
X40551
X41732Y114567
X39370
X44094
X46457
X48819
X51181
X53543
X55905
X58268
X60630
X62992
X65354
X67716
X70079
Y110630
X67716
X65354
X62992
X60630
X58268
X55905
X53543
X51181
X48819
X46457
X44094
X72441
X74803
T04
X6693Y14567
X16693
Y24567
Y34567
Y44567
Y54567
Y64567
Y74567
X6693
Y64567
Y54567
Y44567
Y34567
Y24567
X204724
X214724
Y14567
X204724
Y34567
X214724
Y44567
Y54567
Y64567
Y74567
X204724
Y64567
Y54567
Y44567
X289370Y44567
Y34567
Y24567
Y14567
Y54567
Y64567
Y74567
Y84567
Y94567
Y104567
X214724
Y94567
Y84567
X204724
Y94567
Y104567
X16693
Y94567
Y84567
X6693
Y94567
Y104567
M30
