G04*
G04 #@! TF.GenerationSoftware,Altium Limited,Altium Designer,20.1.12 (249)*
G04*
G04 Layer_Color=128*
%FSLAX25Y25*%
%MOIN*%
G70*
G04*
G04 #@! TF.SameCoordinates,D57ADFAC-2A33-4F97-B865-62DE6D2BA241*
G04*
G04*
G04 #@! TF.FilePolarity,Positive*
G04*
G01*
G75*
%ADD16O,0.04724X0.02165*%
%ADD17R,0.04724X0.02165*%
%ADD18R,0.06496X0.02559*%
%ADD19O,0.06496X0.02559*%
%ADD44R,0.17323X0.17717*%
%ADD45R,0.08071X0.02559*%
%ADD46R,0.01378X0.03937*%
%ADD47O,0.01378X0.03937*%
%ADD48O,0.03937X0.01772*%
%ADD49R,0.03937X0.01772*%
%ADD50R,0.06890X0.10039*%
D16*
X254528Y57284D02*
D03*
Y44685D02*
D03*
D17*
X265945Y57284D02*
D03*
Y61024D02*
D03*
Y64764D02*
D03*
X254528D02*
D03*
Y61024D02*
D03*
X265945Y44685D02*
D03*
Y48425D02*
D03*
Y52165D02*
D03*
X254528D02*
D03*
Y48425D02*
D03*
D18*
X263878Y38996D02*
D03*
Y116161D02*
D03*
Y96083D02*
D03*
X263878Y18917D02*
D03*
D19*
X263878Y33996D02*
D03*
Y28996D02*
D03*
Y23996D02*
D03*
X241634Y38996D02*
D03*
Y33996D02*
D03*
Y28996D02*
D03*
Y23996D02*
D03*
X263878Y111161D02*
D03*
Y106161D02*
D03*
Y101161D02*
D03*
X241634Y116161D02*
D03*
Y111161D02*
D03*
Y106161D02*
D03*
Y101161D02*
D03*
X263878Y91083D02*
D03*
Y86083D02*
D03*
Y81083D02*
D03*
X241634Y96083D02*
D03*
Y91083D02*
D03*
Y86083D02*
D03*
Y81083D02*
D03*
X263878Y13917D02*
D03*
Y8917D02*
D03*
Y3917D02*
D03*
X241634Y18917D02*
D03*
Y13917D02*
D03*
Y8917D02*
D03*
Y3917D02*
D03*
D44*
X125984Y88583D02*
D03*
X162205Y68898D02*
D03*
Y49213D02*
D03*
Y88583D02*
D03*
X125984Y49213D02*
D03*
Y68898D02*
D03*
Y29528D02*
D03*
X162205Y29528D02*
D03*
D45*
X142126Y81083D02*
D03*
Y86083D02*
D03*
Y91083D02*
D03*
Y96083D02*
D03*
X178347Y61398D02*
D03*
Y66398D02*
D03*
Y71398D02*
D03*
Y76398D02*
D03*
Y56713D02*
D03*
Y51713D02*
D03*
Y46713D02*
D03*
Y41713D02*
D03*
Y96083D02*
D03*
Y91083D02*
D03*
Y86083D02*
D03*
Y81083D02*
D03*
X142126Y56713D02*
D03*
Y51713D02*
D03*
Y46713D02*
D03*
Y41713D02*
D03*
Y76398D02*
D03*
Y71398D02*
D03*
Y66398D02*
D03*
Y61398D02*
D03*
Y37028D02*
D03*
Y32028D02*
D03*
Y27028D02*
D03*
Y22028D02*
D03*
X178347Y37028D02*
D03*
Y32028D02*
D03*
Y27028D02*
D03*
Y22027D02*
D03*
D46*
X279795Y17033D02*
D03*
X279724Y90551D02*
D03*
D47*
X277827Y17033D02*
D03*
X275858D02*
D03*
X273890D02*
D03*
X279795Y30419D02*
D03*
X277827D02*
D03*
X275858D02*
D03*
X273890D02*
D03*
X277756Y90551D02*
D03*
X275787D02*
D03*
X273819D02*
D03*
X279724Y103937D02*
D03*
X277756D02*
D03*
X275787D02*
D03*
X273819D02*
D03*
D48*
X272146Y6102D02*
D03*
X281398Y114370D02*
D03*
D49*
X272146Y8661D02*
D03*
Y11220D02*
D03*
X281398D02*
D03*
Y8661D02*
D03*
Y6102D02*
D03*
X281398Y111811D02*
D03*
Y109252D02*
D03*
X272146D02*
D03*
Y111811D02*
D03*
Y114370D02*
D03*
D50*
X233071Y67323D02*
D03*
Y50787D02*
D03*
X244488Y67323D02*
D03*
Y50787D02*
D03*
M02*
