G04*
G04 #@! TF.GenerationSoftware,Altium Limited,Altium Designer,20.1.12 (249)*
G04*
G04 Layer_Physical_Order=2*
G04 Layer_Color=16711680*
%FSLAX25Y25*%
%MOIN*%
G70*
G04*
G04 #@! TF.SameCoordinates,38A4389A-7558-4E28-873A-C6C5AD051B8D*
G04*
G04*
G04 #@! TF.FilePolarity,Positive*
G04*
G01*
G75*
%ADD27R,0.03740X0.03543*%
%ADD28R,0.05906X0.05709*%
%ADD30C,0.04000*%
%ADD32C,0.00500*%
%ADD33C,0.02000*%
%ADD35C,0.05906*%
%ADD36R,0.05906X0.05906*%
G04:AMPARAMS|DCode=37|XSize=240mil|YSize=80mil|CornerRadius=20mil|HoleSize=0mil|Usage=FLASHONLY|Rotation=180.000|XOffset=0mil|YOffset=0mil|HoleType=Round|Shape=RoundedRectangle|*
%AMROUNDEDRECTD37*
21,1,0.24000,0.04000,0,0,180.0*
21,1,0.20000,0.08000,0,0,180.0*
1,1,0.04000,-0.10000,0.02000*
1,1,0.04000,0.10000,0.02000*
1,1,0.04000,0.10000,-0.02000*
1,1,0.04000,-0.10000,-0.02000*
%
%ADD37ROUNDEDRECTD37*%
%ADD38R,0.05906X0.05906*%
%ADD39C,0.09449*%
%ADD40C,0.05118*%
%ADD41C,0.10630*%
%ADD42C,0.07874*%
%ADD43C,0.12795*%
%ADD44C,0.03150*%
%ADD45C,0.02400*%
G36*
X236221Y432486D02*
Y414961D01*
X209842Y414961D01*
X195276Y474409D01*
Y491339D01*
X219340D01*
X236221Y432486D01*
D02*
G37*
G36*
X190157Y474409D02*
X208661Y413779D01*
X236221D01*
Y394488D01*
X196850D01*
X164173Y474409D01*
Y491339D01*
X190157D01*
Y474409D01*
D02*
G37*
G36*
X314158Y411377D02*
X313658Y411225D01*
X313220Y411881D01*
X306305Y418796D01*
X306349Y419134D01*
X306213Y420166D01*
X305815Y421127D01*
X305181Y421953D01*
X304911Y422160D01*
Y425181D01*
X306315D01*
Y433087D01*
X298410D01*
Y425181D01*
X299813D01*
Y422160D01*
X299543Y421953D01*
X298909Y421127D01*
X298511Y420166D01*
X298375Y419134D01*
X298511Y418102D01*
X298909Y417140D01*
X299543Y416315D01*
X300369Y415681D01*
X301330Y415283D01*
X302362Y415147D01*
X302700Y415191D01*
X308868Y409023D01*
Y313515D01*
X308368Y313268D01*
X307820Y313689D01*
X306859Y314087D01*
X305827Y314223D01*
X304795Y314087D01*
X303833Y313689D01*
X303008Y313055D01*
X302839Y312836D01*
X302340Y313006D01*
Y335127D01*
X302362Y335147D01*
X303394Y335283D01*
X304356Y335681D01*
X305181Y336315D01*
X305815Y337140D01*
X306213Y338102D01*
X306349Y339134D01*
X306213Y340166D01*
X305815Y341127D01*
X305181Y341953D01*
X304356Y342587D01*
X303394Y342985D01*
X302362Y343121D01*
X301330Y342985D01*
X300369Y342587D01*
X299543Y341953D01*
X298909Y341127D01*
X298511Y340166D01*
X298509Y340147D01*
X298009Y340180D01*
Y343699D01*
X300155Y345845D01*
X300369Y345681D01*
X301330Y345283D01*
X302362Y345147D01*
X303394Y345283D01*
X304356Y345681D01*
X305181Y346315D01*
X305815Y347140D01*
X306213Y348102D01*
X306349Y349134D01*
X306213Y350166D01*
X305815Y351127D01*
X305181Y351953D01*
X304356Y352587D01*
X303394Y352985D01*
X302362Y353121D01*
X301330Y352985D01*
X300369Y352587D01*
X299543Y351953D01*
X298909Y351127D01*
X298511Y350166D01*
X298375Y349134D01*
X298511Y348102D01*
X298909Y347140D01*
X299074Y346927D01*
X296703Y344556D01*
X296538Y344308D01*
X296479Y344016D01*
Y334646D01*
X296538Y334353D01*
X296703Y334105D01*
X299629Y331179D01*
Y312596D01*
X299129Y312426D01*
X298646Y313055D01*
X297820Y313689D01*
X296859Y314087D01*
X295827Y314223D01*
X294795Y314087D01*
X293833Y313689D01*
X293008Y313055D01*
X292603Y312528D01*
X292103Y312698D01*
Y347794D01*
X300155Y355845D01*
X300369Y355681D01*
X301330Y355283D01*
X302362Y355147D01*
X303394Y355283D01*
X304356Y355681D01*
X305181Y356315D01*
X305815Y357140D01*
X306213Y358102D01*
X306349Y359134D01*
X306213Y360166D01*
X305815Y361127D01*
X305181Y361953D01*
X304356Y362587D01*
X303394Y362985D01*
X302362Y363121D01*
X301330Y362985D01*
X300369Y362587D01*
X299543Y361953D01*
X298909Y361127D01*
X298511Y360166D01*
X298375Y359134D01*
X298511Y358102D01*
X298909Y357140D01*
X299074Y356927D01*
X291384Y349237D01*
X290922Y349429D01*
Y356612D01*
X300155Y365845D01*
X300369Y365681D01*
X301330Y365283D01*
X302362Y365147D01*
X303394Y365283D01*
X304356Y365681D01*
X305181Y366315D01*
X305815Y367140D01*
X306213Y368102D01*
X306349Y369134D01*
X306213Y370166D01*
X305815Y371127D01*
X305181Y371953D01*
X304356Y372587D01*
X303394Y372985D01*
X302362Y373121D01*
X301330Y372985D01*
X300369Y372587D01*
X299543Y371953D01*
X298909Y371127D01*
X298511Y370166D01*
X298375Y369134D01*
X298511Y368102D01*
X298909Y367140D01*
X299074Y366927D01*
X289617Y357470D01*
X289451Y357222D01*
X289393Y356929D01*
Y312903D01*
X288893Y312734D01*
X288646Y313055D01*
X287820Y313689D01*
X286859Y314087D01*
X285827Y314223D01*
X284795Y314087D01*
X283833Y313689D01*
X283008Y313055D01*
X282761Y312734D01*
X282261Y312903D01*
Y357951D01*
X300155Y375845D01*
X300369Y375681D01*
X301330Y375283D01*
X302362Y375147D01*
X303394Y375283D01*
X304356Y375681D01*
X305181Y376315D01*
X305815Y377140D01*
X306213Y378102D01*
X306349Y379134D01*
X306213Y380166D01*
X305815Y381127D01*
X305181Y381953D01*
X304356Y382587D01*
X303394Y382985D01*
X302362Y383121D01*
X301330Y382985D01*
X300369Y382587D01*
X299543Y381953D01*
X298909Y381127D01*
X298511Y380166D01*
X298375Y379134D01*
X298511Y378102D01*
X298909Y377140D01*
X299074Y376927D01*
X281723Y359576D01*
X281261Y359767D01*
Y366951D01*
X300155Y385845D01*
X300369Y385681D01*
X301330Y385283D01*
X302362Y385147D01*
X303394Y385283D01*
X304356Y385681D01*
X305181Y386315D01*
X305815Y387140D01*
X306213Y388102D01*
X306349Y389134D01*
X306213Y390166D01*
X305815Y391127D01*
X305181Y391953D01*
X304356Y392587D01*
X303394Y392985D01*
X302362Y393121D01*
X301330Y392985D01*
X300369Y392587D01*
X299543Y391953D01*
X298909Y391127D01*
X298511Y390166D01*
X298375Y389134D01*
X298511Y388102D01*
X298909Y387140D01*
X299074Y386927D01*
X279955Y367808D01*
X279790Y367560D01*
X279731Y367268D01*
Y312431D01*
X279456Y312308D01*
X279231Y312292D01*
X278646Y313055D01*
X277820Y313689D01*
X276859Y314087D01*
X275827Y314223D01*
X274795Y314087D01*
X273833Y313689D01*
X273008Y313055D01*
X272892Y312904D01*
X272418Y313065D01*
Y368108D01*
X300155Y395845D01*
X300369Y395681D01*
X301330Y395283D01*
X302362Y395147D01*
X303394Y395283D01*
X304356Y395681D01*
X305181Y396315D01*
X305815Y397140D01*
X306213Y398102D01*
X306349Y399134D01*
X306213Y400166D01*
X305815Y401127D01*
X305181Y401953D01*
X304356Y402587D01*
X303394Y402985D01*
X302362Y403121D01*
X301330Y402985D01*
X300369Y402587D01*
X299543Y401953D01*
X298909Y401127D01*
X298511Y400166D01*
X298375Y399134D01*
X298511Y398102D01*
X298909Y397140D01*
X299074Y396927D01*
X271699Y369552D01*
X271237Y369743D01*
Y376927D01*
X300155Y405845D01*
X300369Y405681D01*
X301330Y405283D01*
X302362Y405147D01*
X303394Y405283D01*
X304356Y405681D01*
X305181Y406315D01*
X305815Y407140D01*
X306213Y408102D01*
X306349Y409134D01*
X306213Y410166D01*
X305815Y411127D01*
X305181Y411953D01*
X304356Y412587D01*
X303394Y412985D01*
X302362Y413121D01*
X301330Y412985D01*
X300369Y412587D01*
X299543Y411953D01*
X298909Y411127D01*
X298511Y410166D01*
X298375Y409134D01*
X298511Y408102D01*
X298909Y407140D01*
X299074Y406927D01*
X269932Y377785D01*
X269766Y377537D01*
X269708Y377244D01*
Y312455D01*
X269594Y312395D01*
X269208Y312323D01*
X268646Y313055D01*
X267820Y313689D01*
X266859Y314087D01*
X265827Y314223D01*
X264795Y314087D01*
X263833Y313689D01*
X263008Y313055D01*
X262374Y312230D01*
X261976Y311268D01*
X261840Y310236D01*
X261976Y309204D01*
X262374Y308243D01*
X263008Y307417D01*
X263833Y306784D01*
X264795Y306385D01*
X265827Y306249D01*
X266859Y306385D01*
X267820Y306784D01*
X268646Y307417D01*
X269208Y308149D01*
X269594Y308077D01*
X269708Y308018D01*
Y306062D01*
X260868Y297221D01*
X235039D01*
X234747Y297163D01*
X234499Y296997D01*
X225444Y287942D01*
X225278Y287694D01*
X225220Y287402D01*
Y282600D01*
X224319Y281700D01*
X223895Y281983D01*
X224245Y282826D01*
X224381Y283858D01*
X224245Y284890D01*
X223846Y285852D01*
X223213Y286677D01*
X222387Y287311D01*
X221426Y287709D01*
X220394Y287845D01*
X219362Y287709D01*
X218400Y287311D01*
X217575Y286677D01*
X216941Y285852D01*
X216543Y284890D01*
X216407Y283858D01*
X216543Y282826D01*
X216941Y281865D01*
X217575Y281039D01*
X218400Y280406D01*
X218417Y280399D01*
X218318Y279899D01*
X215669D01*
X215669Y279899D01*
X215377Y279840D01*
X215129Y279675D01*
X212601Y277147D01*
X212387Y277311D01*
X211426Y277709D01*
X210394Y277845D01*
X209362Y277709D01*
X208400Y277311D01*
X207575Y276677D01*
X206941Y275852D01*
X206543Y274890D01*
X206407Y273858D01*
X206543Y272826D01*
X206941Y271865D01*
X207575Y271039D01*
X208400Y270406D01*
X209362Y270007D01*
X210394Y269871D01*
X211426Y270007D01*
X212387Y270406D01*
X213213Y271039D01*
X213846Y271865D01*
X214245Y272826D01*
X214381Y273858D01*
X214245Y274890D01*
X213846Y275852D01*
X213682Y276065D01*
X215986Y278369D01*
X222835D01*
X223127Y278427D01*
X223269Y278522D01*
X223587Y278134D01*
X222601Y277147D01*
X222387Y277311D01*
X221426Y277709D01*
X220394Y277845D01*
X219362Y277709D01*
X218400Y277311D01*
X217575Y276677D01*
X216941Y275852D01*
X216543Y274890D01*
X216407Y273858D01*
X216543Y272826D01*
X216941Y271865D01*
X217575Y271039D01*
X218400Y270406D01*
X219362Y270007D01*
X220394Y269871D01*
X221426Y270007D01*
X222387Y270406D01*
X223213Y271039D01*
X223846Y271865D01*
X224245Y272826D01*
X224381Y273858D01*
X224245Y274890D01*
X223846Y275852D01*
X223682Y276065D01*
X225986Y278369D01*
X232283D01*
X232576Y278427D01*
X232824Y278593D01*
X235777Y281546D01*
X235943Y281794D01*
X236001Y282087D01*
Y283111D01*
X236501Y283144D01*
X236543Y282826D01*
X236941Y281865D01*
X237575Y281039D01*
X238400Y280406D01*
X239362Y280007D01*
X239380Y280005D01*
X239347Y279505D01*
X235276D01*
X234983Y279447D01*
X234735Y279281D01*
X232601Y277147D01*
X232387Y277311D01*
X231426Y277709D01*
X230394Y277845D01*
X229362Y277709D01*
X228400Y277311D01*
X227575Y276677D01*
X226941Y275852D01*
X226543Y274890D01*
X226407Y273858D01*
X226543Y272826D01*
X226941Y271865D01*
X227575Y271039D01*
X228400Y270406D01*
X229362Y270007D01*
X230394Y269871D01*
X231426Y270007D01*
X232387Y270406D01*
X233213Y271039D01*
X233846Y271865D01*
X234245Y272826D01*
X234381Y273858D01*
X234245Y274890D01*
X233846Y275852D01*
X233682Y276065D01*
X235592Y277976D01*
X238698D01*
X238797Y277476D01*
X238400Y277311D01*
X237575Y276677D01*
X236941Y275852D01*
X236543Y274890D01*
X236407Y273858D01*
X236543Y272826D01*
X236941Y271865D01*
X237575Y271039D01*
X238400Y270406D01*
X239362Y270007D01*
X240394Y269871D01*
X241426Y270007D01*
X242387Y270406D01*
X242601Y270570D01*
X244420Y268751D01*
X244668Y268585D01*
X244961Y268527D01*
X252756D01*
X253048Y268585D01*
X253297Y268751D01*
X256052Y271507D01*
X256218Y271755D01*
X256276Y272047D01*
Y272163D01*
X256776Y272262D01*
X256941Y271865D01*
X257575Y271039D01*
X258400Y270406D01*
X259362Y270007D01*
X260394Y269871D01*
X261426Y270007D01*
X262387Y270406D01*
X263213Y271039D01*
X263846Y271865D01*
X264245Y272826D01*
X264381Y273858D01*
X264245Y274890D01*
X263846Y275852D01*
X263682Y276065D01*
X265986Y278369D01*
X272835D01*
X273127Y278427D01*
X273269Y278522D01*
X273587Y278134D01*
X272601Y277147D01*
X272387Y277311D01*
X271426Y277709D01*
X270394Y277845D01*
X269362Y277709D01*
X268400Y277311D01*
X267575Y276677D01*
X266941Y275852D01*
X266543Y274890D01*
X266407Y273858D01*
X266543Y272826D01*
X266941Y271865D01*
X267575Y271039D01*
X268400Y270406D01*
X269362Y270007D01*
X270394Y269871D01*
X271426Y270007D01*
X272387Y270406D01*
X273213Y271039D01*
X273846Y271865D01*
X274245Y272826D01*
X274381Y273858D01*
X274245Y274890D01*
X273846Y275852D01*
X273682Y276065D01*
X275592Y277976D01*
X278698D01*
X278797Y277476D01*
X278400Y277311D01*
X277575Y276677D01*
X276941Y275852D01*
X276543Y274890D01*
X276407Y273858D01*
X276543Y272826D01*
X276941Y271865D01*
X277575Y271039D01*
X278400Y270406D01*
X279362Y270007D01*
X280394Y269871D01*
X281426Y270007D01*
X282387Y270406D01*
X283213Y271039D01*
X283846Y271865D01*
X284245Y272826D01*
X284381Y273858D01*
X284245Y274890D01*
X283846Y275852D01*
X283682Y276065D01*
X285986Y278369D01*
X293701D01*
X293993Y278427D01*
X294241Y278593D01*
X302116Y286467D01*
X302281Y286715D01*
X302340Y287008D01*
Y307467D01*
X302839Y307636D01*
X303008Y307417D01*
X303833Y306784D01*
X304795Y306385D01*
X305827Y306249D01*
X306859Y306385D01*
X307820Y306784D01*
X308368Y307204D01*
X308868Y306958D01*
Y282946D01*
X281621Y255699D01*
X192097D01*
X191732Y255747D01*
X191060Y255658D01*
X190434Y255399D01*
X189896Y254986D01*
X189483Y254448D01*
X189224Y253822D01*
X189135Y253150D01*
X189224Y252477D01*
X189483Y251851D01*
X189896Y251313D01*
X190434Y250901D01*
X191060Y250641D01*
X191732Y250553D01*
X192097Y250601D01*
X282677D01*
X283653Y250795D01*
X284480Y251347D01*
X313220Y280087D01*
X313658Y280743D01*
X314158Y280591D01*
X314158Y803D01*
X803D01*
Y491323D01*
X92681D01*
Y474409D01*
X92699Y474317D01*
X92698Y474223D01*
X92738Y474124D01*
X92759Y474019D01*
X92811Y473941D01*
X92846Y473854D01*
X184184Y333303D01*
X184259Y333226D01*
X184318Y333137D01*
X184397Y333085D01*
X184462Y333018D01*
X184560Y332976D01*
X184649Y332916D01*
X184741Y332898D01*
X184828Y332861D01*
X184935Y332859D01*
X185039Y332839D01*
X236221D01*
X236611Y332916D01*
X236941Y333137D01*
X237162Y333468D01*
X237240Y333858D01*
Y353543D01*
X237162Y353934D01*
X237029Y354134D01*
X237162Y354334D01*
X237240Y354724D01*
Y373622D01*
X237162Y374012D01*
X236941Y374343D01*
X236611Y374564D01*
X236221Y374642D01*
X209228D01*
X197777Y393032D01*
X198020Y393469D01*
X216599D01*
X216685Y392985D01*
X215723Y392587D01*
X214897Y391953D01*
X214264Y391127D01*
X213865Y390166D01*
X213730Y389134D01*
X213865Y388102D01*
X214264Y387140D01*
X214897Y386315D01*
X215723Y385681D01*
X216685Y385283D01*
X217717Y385147D01*
X218748Y385283D01*
X219710Y385681D01*
X220536Y386315D01*
X221169Y387140D01*
X221568Y388102D01*
X221703Y389134D01*
X221568Y390166D01*
X221169Y391127D01*
X220536Y391953D01*
X219710Y392587D01*
X218748Y392985D01*
X218834Y393469D01*
X226599D01*
X226685Y392985D01*
X225723Y392587D01*
X224897Y391953D01*
X224264Y391127D01*
X223866Y390166D01*
X223730Y389134D01*
X223866Y388102D01*
X224264Y387140D01*
X224897Y386315D01*
X225723Y385681D01*
X226685Y385283D01*
X227716Y385147D01*
X228748Y385283D01*
X229710Y385681D01*
X230536Y386315D01*
X230743Y386585D01*
X237953D01*
X238928Y386779D01*
X239755Y387332D01*
X280834Y428410D01*
X281386Y429237D01*
X281580Y430213D01*
Y474502D01*
X289032D01*
X289815Y474605D01*
X290545Y474907D01*
X291171Y475388D01*
X291652Y476015D01*
X291954Y476744D01*
X292057Y477528D01*
Y481528D01*
X291954Y482311D01*
X291652Y483041D01*
X291171Y483667D01*
X290545Y484148D01*
X289815Y484450D01*
X289032Y484553D01*
X269032D01*
X268248Y484450D01*
X267519Y484148D01*
X266892Y483667D01*
X266411Y483041D01*
X266109Y482311D01*
X266006Y481528D01*
Y477528D01*
X266109Y476744D01*
X266411Y476015D01*
X266892Y475388D01*
X267519Y474907D01*
X268248Y474605D01*
X269032Y474502D01*
X276483D01*
Y431268D01*
X236897Y391683D01*
X230743D01*
X230536Y391953D01*
X229710Y392587D01*
X228748Y392985D01*
X228835Y393469D01*
X236221D01*
X236611Y393546D01*
X236941Y393767D01*
X237162Y394098D01*
X237240Y394488D01*
Y413779D01*
X237162Y414170D01*
X237029Y414370D01*
X237162Y414570D01*
X237240Y414961D01*
Y432486D01*
X237212Y432625D01*
X237200Y432767D01*
X220520Y490924D01*
X220821Y491323D01*
X314158D01*
Y411377D01*
D02*
G37*
G36*
X195669Y394488D02*
X208661Y373622D01*
X236221D01*
Y354724D01*
X196850D01*
X124803Y474409D01*
Y491339D01*
X147456D01*
X195669Y394488D01*
D02*
G37*
G36*
X119685Y474409D02*
X195669Y353543D01*
X236221D01*
Y333858D01*
X185039D01*
X93701Y474409D01*
Y491339D01*
X119685D01*
Y474409D01*
D02*
G37*
%LPC*%
G36*
X76929Y484553D02*
X56929D01*
X56146Y484450D01*
X55416Y484148D01*
X54790Y483667D01*
X54309Y483041D01*
X54006Y482311D01*
X53903Y481528D01*
Y477528D01*
X54006Y476744D01*
X54309Y476015D01*
X54790Y475388D01*
X55416Y474907D01*
X56146Y474605D01*
X56929Y474502D01*
X76929D01*
X77712Y474605D01*
X78442Y474907D01*
X79069Y475388D01*
X79550Y476015D01*
X79852Y476744D01*
X79955Y477528D01*
Y481528D01*
X79852Y482311D01*
X79550Y483041D01*
X79069Y483667D01*
X78442Y484148D01*
X77712Y484450D01*
X76929Y484553D01*
D02*
G37*
G36*
X45929D02*
X25929D01*
X25146Y484450D01*
X24416Y484148D01*
X23789Y483667D01*
X23309Y483041D01*
X23006Y482311D01*
X22903Y481528D01*
Y477528D01*
X23006Y476744D01*
X23309Y476015D01*
X23789Y475388D01*
X24416Y474907D01*
X25146Y474605D01*
X25929Y474502D01*
X45929D01*
X46712Y474605D01*
X47442Y474907D01*
X48069Y475388D01*
X48550Y476015D01*
X48852Y476744D01*
X48955Y477528D01*
Y481528D01*
X48852Y482311D01*
X48550Y483041D01*
X48069Y483667D01*
X47442Y484148D01*
X46712Y484450D01*
X45929Y484553D01*
D02*
G37*
G36*
X29685Y433121D02*
X28653Y432985D01*
X27692Y432587D01*
X26866Y431953D01*
X26232Y431127D01*
X25834Y430166D01*
X25698Y429134D01*
X25834Y428102D01*
X26232Y427140D01*
X26866Y426315D01*
X27692Y425681D01*
X28653Y425283D01*
X29685Y425147D01*
X30717Y425283D01*
X31679Y425681D01*
X32504Y426315D01*
X33138Y427140D01*
X33536Y428102D01*
X33672Y429134D01*
X33536Y430166D01*
X33138Y431127D01*
X32504Y431953D01*
X31679Y432587D01*
X30717Y432985D01*
X29685Y433121D01*
D02*
G37*
G36*
Y423121D02*
X28653Y422985D01*
X27692Y422587D01*
X26866Y421953D01*
X26232Y421127D01*
X25834Y420166D01*
X25698Y419134D01*
X25834Y418102D01*
X26232Y417140D01*
X26866Y416315D01*
X27692Y415681D01*
X28653Y415283D01*
X29685Y415147D01*
X30717Y415283D01*
X31679Y415681D01*
X32504Y416315D01*
X33138Y417140D01*
X33536Y418102D01*
X33672Y419134D01*
X33536Y420166D01*
X33138Y421127D01*
X32504Y421953D01*
X31679Y422587D01*
X30717Y422985D01*
X29685Y423121D01*
D02*
G37*
G36*
X258032Y484553D02*
X238032D01*
X237248Y484450D01*
X236519Y484148D01*
X235892Y483667D01*
X235411Y483041D01*
X235109Y482311D01*
X235006Y481528D01*
Y477528D01*
X235109Y476744D01*
X235411Y476015D01*
X235892Y475388D01*
X236519Y474907D01*
X237248Y474605D01*
X238032Y474502D01*
X245482D01*
Y411388D01*
X245434Y411024D01*
X245523Y410352D01*
X245782Y409725D01*
X246195Y409187D01*
X246733Y408775D01*
X247359Y408515D01*
X248031Y408427D01*
X248704Y408515D01*
X249330Y408775D01*
X249868Y409187D01*
X250281Y409725D01*
X250540Y410352D01*
X250628Y411024D01*
X250581Y411388D01*
Y474502D01*
X258032D01*
X258815Y474605D01*
X259544Y474907D01*
X260171Y475388D01*
X260652Y476015D01*
X260954Y476744D01*
X261057Y477528D01*
Y481528D01*
X260954Y482311D01*
X260652Y483041D01*
X260171Y483667D01*
X259544Y484148D01*
X258815Y484450D01*
X258032Y484553D01*
D02*
G37*
G36*
X29685Y413121D02*
X28653Y412985D01*
X27692Y412587D01*
X26866Y411953D01*
X26232Y411127D01*
X25834Y410166D01*
X25698Y409134D01*
X25834Y408102D01*
X26232Y407140D01*
X26866Y406315D01*
X27692Y405681D01*
X28653Y405283D01*
X29685Y405147D01*
X30717Y405283D01*
X31679Y405681D01*
X32504Y406315D01*
X33138Y407140D01*
X33536Y408102D01*
X33672Y409134D01*
X33536Y410166D01*
X33138Y411127D01*
X32504Y411953D01*
X31679Y412587D01*
X30717Y412985D01*
X29685Y413121D01*
D02*
G37*
G36*
Y403121D02*
X28653Y402985D01*
X27692Y402587D01*
X26866Y401953D01*
X26232Y401127D01*
X25834Y400166D01*
X25698Y399134D01*
X25834Y398102D01*
X26232Y397140D01*
X26866Y396315D01*
X27692Y395681D01*
X28653Y395283D01*
X29685Y395147D01*
X30717Y395283D01*
X31679Y395681D01*
X32504Y396315D01*
X33138Y397140D01*
X33536Y398102D01*
X33672Y399134D01*
X33536Y400166D01*
X33138Y401127D01*
X32504Y401953D01*
X31679Y402587D01*
X30717Y402985D01*
X29685Y403121D01*
D02*
G37*
G36*
Y393121D02*
X28653Y392985D01*
X27692Y392587D01*
X26866Y391953D01*
X26232Y391127D01*
X25834Y390166D01*
X25698Y389134D01*
X25834Y388102D01*
X26232Y387140D01*
X26866Y386315D01*
X27692Y385681D01*
X28653Y385283D01*
X29685Y385147D01*
X30717Y385283D01*
X31679Y385681D01*
X32504Y386315D01*
X33138Y387140D01*
X33536Y388102D01*
X33672Y389134D01*
X33536Y390166D01*
X33138Y391127D01*
X32504Y391953D01*
X31679Y392587D01*
X30717Y392985D01*
X29685Y393121D01*
D02*
G37*
G36*
X248031Y388818D02*
X247359Y388729D01*
X246733Y388470D01*
X246195Y388057D01*
X245971Y387765D01*
X239889Y381683D01*
X230743D01*
X230536Y381953D01*
X229710Y382587D01*
X228748Y382985D01*
X227716Y383121D01*
X226685Y382985D01*
X225723Y382587D01*
X224897Y381953D01*
X224264Y381127D01*
X223866Y380166D01*
X223730Y379134D01*
X223866Y378102D01*
X224264Y377140D01*
X224897Y376315D01*
X225723Y375681D01*
X226685Y375283D01*
X227716Y375147D01*
X228748Y375283D01*
X229710Y375681D01*
X230536Y376315D01*
X230743Y376585D01*
X240945D01*
X241920Y376779D01*
X242747Y377331D01*
X249576Y384160D01*
X249868Y384384D01*
X250281Y384922D01*
X250540Y385548D01*
X250628Y386221D01*
X250540Y386893D01*
X250281Y387519D01*
X249868Y388057D01*
X249330Y388470D01*
X248704Y388729D01*
X248031Y388818D01*
D02*
G37*
G36*
X217717Y383121D02*
X216685Y382985D01*
X215723Y382587D01*
X214897Y381953D01*
X214264Y381127D01*
X213865Y380166D01*
X213730Y379134D01*
X213865Y378102D01*
X214264Y377140D01*
X214897Y376315D01*
X215723Y375681D01*
X216685Y375283D01*
X217717Y375147D01*
X218748Y375283D01*
X219710Y375681D01*
X220536Y376315D01*
X221169Y377140D01*
X221568Y378102D01*
X221703Y379134D01*
X221568Y380166D01*
X221169Y381127D01*
X220536Y381953D01*
X219710Y382587D01*
X218748Y382985D01*
X217717Y383121D01*
D02*
G37*
G36*
X29685D02*
X28653Y382985D01*
X27692Y382587D01*
X26866Y381953D01*
X26232Y381127D01*
X25834Y380166D01*
X25698Y379134D01*
X25834Y378102D01*
X26232Y377140D01*
X26866Y376315D01*
X27692Y375681D01*
X28653Y375283D01*
X29685Y375147D01*
X30717Y375283D01*
X31679Y375681D01*
X32504Y376315D01*
X33138Y377140D01*
X33536Y378102D01*
X33672Y379134D01*
X33536Y380166D01*
X33138Y381127D01*
X32504Y381953D01*
X31679Y382587D01*
X30717Y382985D01*
X29685Y383121D01*
D02*
G37*
G36*
Y373121D02*
X28653Y372985D01*
X27692Y372587D01*
X26866Y371953D01*
X26232Y371127D01*
X25834Y370166D01*
X25698Y369134D01*
X25834Y368102D01*
X26232Y367140D01*
X26866Y366315D01*
X27692Y365681D01*
X28653Y365283D01*
X29685Y365147D01*
X30717Y365283D01*
X31679Y365681D01*
X32504Y366315D01*
X33138Y367140D01*
X33536Y368102D01*
X33672Y369134D01*
X33536Y370166D01*
X33138Y371127D01*
X32504Y371953D01*
X31679Y372587D01*
X30717Y372985D01*
X29685Y373121D01*
D02*
G37*
G36*
Y363121D02*
X28653Y362985D01*
X27692Y362587D01*
X26866Y361953D01*
X26232Y361127D01*
X25834Y360166D01*
X25698Y359134D01*
X25834Y358102D01*
X26232Y357140D01*
X26866Y356315D01*
X27692Y355681D01*
X28653Y355283D01*
X29685Y355147D01*
X30717Y355283D01*
X31679Y355681D01*
X32504Y356315D01*
X33138Y357140D01*
X33536Y358102D01*
X33672Y359134D01*
X33536Y360166D01*
X33138Y361127D01*
X32504Y361953D01*
X31679Y362587D01*
X30717Y362985D01*
X29685Y363121D01*
D02*
G37*
G36*
Y353121D02*
X28653Y352985D01*
X27692Y352587D01*
X26866Y351953D01*
X26232Y351127D01*
X25834Y350166D01*
X25698Y349134D01*
X25834Y348102D01*
X26232Y347140D01*
X26866Y346315D01*
X27692Y345681D01*
X28653Y345283D01*
X29685Y345147D01*
X30717Y345283D01*
X31679Y345681D01*
X32504Y346315D01*
X33138Y347140D01*
X33536Y348102D01*
X33672Y349134D01*
X33536Y350166D01*
X33138Y351127D01*
X32504Y351953D01*
X31679Y352587D01*
X30717Y352985D01*
X29685Y353121D01*
D02*
G37*
G36*
Y343121D02*
X28653Y342985D01*
X27692Y342587D01*
X26866Y341953D01*
X26232Y341127D01*
X25834Y340166D01*
X25698Y339134D01*
X25834Y338102D01*
X26232Y337140D01*
X26866Y336315D01*
X27692Y335681D01*
X28653Y335283D01*
X29685Y335147D01*
X30717Y335283D01*
X31679Y335681D01*
X32504Y336315D01*
X33138Y337140D01*
X33536Y338102D01*
X33672Y339134D01*
X33536Y340166D01*
X33138Y341127D01*
X32504Y341953D01*
X31679Y342587D01*
X30717Y342985D01*
X29685Y343121D01*
D02*
G37*
G36*
X219779Y314189D02*
X211874D01*
Y306283D01*
X219779D01*
Y314189D01*
D02*
G37*
G36*
X225827Y314223D02*
X224795Y314087D01*
X223833Y313689D01*
X223008Y313055D01*
X222374Y312230D01*
X221976Y311268D01*
X221840Y310236D01*
X221976Y309204D01*
X222374Y308243D01*
X223008Y307417D01*
X223833Y306784D01*
X224795Y306385D01*
X225827Y306249D01*
X226859Y306385D01*
X227820Y306784D01*
X228646Y307417D01*
X229279Y308243D01*
X229678Y309204D01*
X229814Y310236D01*
X229678Y311268D01*
X229279Y312230D01*
X228646Y313055D01*
X227820Y313689D01*
X226859Y314087D01*
X225827Y314223D01*
D02*
G37*
G36*
X255827Y314223D02*
X254795Y314087D01*
X253833Y313689D01*
X253008Y313055D01*
X252374Y312230D01*
X251976Y311268D01*
X251840Y310236D01*
X251976Y309204D01*
X252374Y308243D01*
X253008Y307417D01*
X253833Y306784D01*
X254795Y306385D01*
X255827Y306249D01*
X256859Y306385D01*
X257820Y306784D01*
X258646Y307417D01*
X259279Y308243D01*
X259678Y309204D01*
X259814Y310236D01*
X259678Y311268D01*
X259279Y312230D01*
X258646Y313055D01*
X257820Y313689D01*
X256859Y314087D01*
X255827Y314223D01*
D02*
G37*
G36*
X245827D02*
X244795Y314087D01*
X243833Y313689D01*
X243008Y313055D01*
X242374Y312230D01*
X241976Y311268D01*
X241840Y310236D01*
X241976Y309204D01*
X242374Y308243D01*
X243008Y307417D01*
X243833Y306784D01*
X244795Y306385D01*
X245827Y306249D01*
X246859Y306385D01*
X247820Y306784D01*
X248646Y307417D01*
X249279Y308243D01*
X249678Y309204D01*
X249814Y310236D01*
X249678Y311268D01*
X249279Y312230D01*
X248646Y313055D01*
X247820Y313689D01*
X246859Y314087D01*
X245827Y314223D01*
D02*
G37*
G36*
X235827D02*
X234795Y314087D01*
X233833Y313689D01*
X233008Y313055D01*
X232374Y312230D01*
X231976Y311268D01*
X231840Y310236D01*
X231976Y309204D01*
X232374Y308243D01*
X233008Y307417D01*
X233833Y306784D01*
X234795Y306385D01*
X235827Y306249D01*
X236859Y306385D01*
X237820Y306784D01*
X238646Y307417D01*
X239280Y308243D01*
X239678Y309204D01*
X239814Y310236D01*
X239678Y311268D01*
X239280Y312230D01*
X238646Y313055D01*
X237820Y313689D01*
X236859Y314087D01*
X235827Y314223D01*
D02*
G37*
G36*
X104347Y287811D02*
X96441D01*
Y279906D01*
X104347D01*
Y287811D01*
D02*
G37*
G36*
X210394Y287845D02*
X209362Y287709D01*
X208400Y287311D01*
X207575Y286677D01*
X206941Y285852D01*
X206543Y284890D01*
X206407Y283858D01*
X206543Y282826D01*
X206941Y281865D01*
X207575Y281039D01*
X208400Y280406D01*
X209362Y280007D01*
X210394Y279871D01*
X211426Y280007D01*
X212387Y280406D01*
X213213Y281039D01*
X213846Y281865D01*
X214245Y282826D01*
X214381Y283858D01*
X214245Y284890D01*
X213846Y285852D01*
X213213Y286677D01*
X212387Y287311D01*
X211426Y287709D01*
X210394Y287845D01*
D02*
G37*
G36*
X190394D02*
X189362Y287709D01*
X188400Y287311D01*
X187575Y286677D01*
X186941Y285852D01*
X186543Y284890D01*
X186407Y283858D01*
X186543Y282826D01*
X186941Y281865D01*
X187575Y281039D01*
X188400Y280406D01*
X189362Y280007D01*
X190394Y279871D01*
X191426Y280007D01*
X192387Y280406D01*
X193213Y281039D01*
X193846Y281865D01*
X194245Y282826D01*
X194381Y283858D01*
X194245Y284890D01*
X193846Y285852D01*
X193213Y286677D01*
X192387Y287311D01*
X191426Y287709D01*
X190394Y287845D01*
D02*
G37*
G36*
X180394D02*
X179362Y287709D01*
X178400Y287311D01*
X177575Y286677D01*
X176941Y285852D01*
X176543Y284890D01*
X176407Y283858D01*
X176543Y282826D01*
X176941Y281865D01*
X177575Y281039D01*
X178400Y280406D01*
X179362Y280007D01*
X180394Y279871D01*
X181426Y280007D01*
X182387Y280406D01*
X183213Y281039D01*
X183846Y281865D01*
X184245Y282826D01*
X184381Y283858D01*
X184245Y284890D01*
X183846Y285852D01*
X183213Y286677D01*
X182387Y287311D01*
X181426Y287709D01*
X180394Y287845D01*
D02*
G37*
G36*
X170394D02*
X169362Y287709D01*
X168400Y287311D01*
X167575Y286677D01*
X166941Y285852D01*
X166543Y284890D01*
X166407Y283858D01*
X166543Y282826D01*
X166941Y281865D01*
X167575Y281039D01*
X168400Y280406D01*
X169362Y280007D01*
X170394Y279871D01*
X171426Y280007D01*
X172387Y280406D01*
X173213Y281039D01*
X173846Y281865D01*
X174245Y282826D01*
X174381Y283858D01*
X174245Y284890D01*
X173846Y285852D01*
X173213Y286677D01*
X172387Y287311D01*
X171426Y287709D01*
X170394Y287845D01*
D02*
G37*
G36*
X160394D02*
X159362Y287709D01*
X158400Y287311D01*
X157575Y286677D01*
X156941Y285852D01*
X156543Y284890D01*
X156407Y283858D01*
X156543Y282826D01*
X156941Y281865D01*
X157575Y281039D01*
X158400Y280406D01*
X159362Y280007D01*
X160394Y279871D01*
X161426Y280007D01*
X162387Y280406D01*
X163213Y281039D01*
X163846Y281865D01*
X164245Y282826D01*
X164381Y283858D01*
X164245Y284890D01*
X163846Y285852D01*
X163213Y286677D01*
X162387Y287311D01*
X161426Y287709D01*
X160394Y287845D01*
D02*
G37*
G36*
X110394D02*
X109362Y287709D01*
X108400Y287311D01*
X107575Y286677D01*
X106941Y285852D01*
X106543Y284890D01*
X106407Y283858D01*
X106543Y282826D01*
X106941Y281865D01*
X107575Y281039D01*
X108400Y280406D01*
X109362Y280007D01*
X110394Y279871D01*
X111426Y280007D01*
X112387Y280406D01*
X113213Y281039D01*
X113846Y281865D01*
X114245Y282826D01*
X114381Y283858D01*
X114245Y284890D01*
X113846Y285852D01*
X113213Y286677D01*
X112387Y287311D01*
X111426Y287709D01*
X110394Y287845D01*
D02*
G37*
G36*
X200394Y287845D02*
X199362Y287709D01*
X198400Y287311D01*
X197575Y286677D01*
X196941Y285852D01*
X196543Y284890D01*
X196407Y283858D01*
X196543Y282826D01*
X196941Y281865D01*
X197575Y281039D01*
X198400Y280405D01*
X199362Y280007D01*
X200394Y279871D01*
X201426Y280007D01*
X202387Y280405D01*
X203213Y281039D01*
X203846Y281865D01*
X204245Y282826D01*
X204381Y283858D01*
X204245Y284890D01*
X203846Y285852D01*
X203213Y286677D01*
X202387Y287311D01*
X201426Y287709D01*
X200394Y287845D01*
D02*
G37*
G36*
X150394D02*
X149362Y287709D01*
X148400Y287311D01*
X147574Y286677D01*
X146941Y285852D01*
X146543Y284890D01*
X146407Y283858D01*
X146543Y282826D01*
X146941Y281865D01*
X147574Y281039D01*
X148400Y280405D01*
X149362Y280007D01*
X150394Y279871D01*
X151426Y280007D01*
X152387Y280405D01*
X153213Y281039D01*
X153846Y281865D01*
X154245Y282826D01*
X154381Y283858D01*
X154245Y284890D01*
X153846Y285852D01*
X153213Y286677D01*
X152387Y287311D01*
X151426Y287709D01*
X150394Y287845D01*
D02*
G37*
G36*
X140394D02*
X139362Y287709D01*
X138400Y287311D01*
X137575Y286677D01*
X136941Y285852D01*
X136543Y284890D01*
X136407Y283858D01*
X136543Y282826D01*
X136941Y281865D01*
X137575Y281039D01*
X138400Y280405D01*
X139362Y280007D01*
X140394Y279871D01*
X141426Y280007D01*
X142387Y280405D01*
X143213Y281039D01*
X143846Y281865D01*
X144245Y282826D01*
X144381Y283858D01*
X144245Y284890D01*
X143846Y285852D01*
X143213Y286677D01*
X142387Y287311D01*
X141426Y287709D01*
X140394Y287845D01*
D02*
G37*
G36*
X120394Y287845D02*
X119362Y287709D01*
X118400Y287311D01*
X117575Y286677D01*
X116941Y285852D01*
X116543Y284890D01*
X116407Y283858D01*
X116543Y282826D01*
X116941Y281865D01*
X117575Y281039D01*
X118400Y280406D01*
X119362Y280007D01*
X120394Y279871D01*
X121426Y280007D01*
X122387Y280406D01*
X122601Y280570D01*
X124826Y278345D01*
Y274307D01*
X124326Y274274D01*
X124245Y274890D01*
X123846Y275852D01*
X123213Y276677D01*
X122387Y277311D01*
X121426Y277709D01*
X120394Y277845D01*
X119362Y277709D01*
X118400Y277311D01*
X117575Y276677D01*
X116941Y275852D01*
X116543Y274890D01*
X116407Y273858D01*
X116543Y272826D01*
X116941Y271865D01*
X117575Y271039D01*
X118400Y270406D01*
X119362Y270007D01*
X120394Y269871D01*
X121426Y270007D01*
X122387Y270406D01*
X122601Y270570D01*
X134668Y258502D01*
Y247760D01*
X134575Y247742D01*
X133847Y247255D01*
X133361Y246528D01*
X133190Y245669D01*
X133361Y244811D01*
X133847Y244083D01*
X134575Y243597D01*
X134668Y243578D01*
Y149347D01*
X134168Y149248D01*
X133846Y150025D01*
X133213Y150851D01*
X132387Y151484D01*
X131426Y151883D01*
X130394Y152018D01*
X129362Y151883D01*
X128400Y151484D01*
X127575Y150851D01*
X126941Y150025D01*
X126855Y149818D01*
X126355Y149917D01*
Y151181D01*
X126355Y151181D01*
X126297Y151474D01*
X126131Y151722D01*
X115501Y162352D01*
X115253Y162517D01*
X114961Y162576D01*
X99234D01*
X65946Y195864D01*
X66110Y196077D01*
X66509Y197039D01*
X66644Y198071D01*
X66509Y199103D01*
X66110Y200064D01*
X65477Y200890D01*
X64651Y201524D01*
X63689Y201922D01*
X62657Y202058D01*
X61626Y201922D01*
X60664Y201524D01*
X59838Y200890D01*
X59205Y200064D01*
X58807Y199103D01*
X58671Y198071D01*
X58807Y197039D01*
X59205Y196077D01*
X59838Y195252D01*
X60664Y194618D01*
X61626Y194220D01*
X62657Y194084D01*
X63689Y194220D01*
X64651Y194618D01*
X64865Y194782D01*
X97790Y161856D01*
X97599Y161395D01*
X70501D01*
X70401Y161895D01*
X71289Y162262D01*
X72320Y163054D01*
X73112Y164085D01*
X73609Y165286D01*
X73779Y166575D01*
X73609Y167864D01*
X73112Y169065D01*
X72320Y170096D01*
X71289Y170887D01*
X70088Y171385D01*
X68799Y171554D01*
X67510Y171385D01*
X66309Y170887D01*
X65278Y170096D01*
X64487Y169065D01*
X63989Y167864D01*
X63820Y166575D01*
X63989Y165286D01*
X64487Y164085D01*
X65278Y163054D01*
X66309Y162262D01*
X67197Y161895D01*
X67098Y161395D01*
X60533D01*
X26064Y195864D01*
X26228Y196077D01*
X26627Y197039D01*
X26763Y198071D01*
X26627Y199103D01*
X26228Y200064D01*
X25595Y200890D01*
X24769Y201524D01*
X23808Y201922D01*
X22776Y202058D01*
X21744Y201922D01*
X20782Y201524D01*
X19956Y200890D01*
X19323Y200064D01*
X18925Y199103D01*
X18789Y198071D01*
X18925Y197039D01*
X19323Y196077D01*
X19956Y195252D01*
X20782Y194618D01*
X21744Y194220D01*
X22776Y194084D01*
X23808Y194220D01*
X24769Y194618D01*
X24983Y194782D01*
X59676Y160089D01*
X59676Y160089D01*
X59924Y159923D01*
X60216Y159865D01*
X60217Y159865D01*
X107478D01*
X117105Y150239D01*
X116941Y150025D01*
X116543Y149063D01*
X116407Y148031D01*
X116543Y147000D01*
X116941Y146038D01*
X117575Y145212D01*
X118400Y144579D01*
X119362Y144181D01*
X120394Y144045D01*
X121426Y144181D01*
X122387Y144579D01*
X123213Y145212D01*
X123846Y146038D01*
X124245Y147000D01*
X124326Y147616D01*
X124826Y147583D01*
Y143545D01*
X122601Y141320D01*
X122387Y141484D01*
X121426Y141883D01*
X120394Y142018D01*
X119362Y141883D01*
X118400Y141484D01*
X117575Y140851D01*
X116941Y140025D01*
X116543Y139063D01*
X116407Y138031D01*
X116543Y137000D01*
X116941Y136038D01*
X117575Y135212D01*
X118400Y134579D01*
X119362Y134180D01*
X120394Y134045D01*
X121426Y134180D01*
X122387Y134579D01*
X123213Y135212D01*
X123846Y136038D01*
X124245Y137000D01*
X124381Y138031D01*
X124245Y139063D01*
X123846Y140025D01*
X123682Y140239D01*
X126131Y142688D01*
X126297Y142936D01*
X126355Y143228D01*
Y146146D01*
X126855Y146245D01*
X126941Y146038D01*
X127575Y145212D01*
X128400Y144579D01*
X129362Y144181D01*
X130394Y144045D01*
X131426Y144181D01*
X132387Y144579D01*
X133213Y145212D01*
X133846Y146038D01*
X134168Y146815D01*
X134668Y146716D01*
Y139347D01*
X134168Y139248D01*
X133846Y140025D01*
X133213Y140851D01*
X132387Y141484D01*
X131426Y141883D01*
X130394Y142018D01*
X129362Y141883D01*
X128400Y141484D01*
X127575Y140851D01*
X126941Y140025D01*
X126543Y139063D01*
X126407Y138031D01*
X126543Y137000D01*
X126941Y136038D01*
X127575Y135212D01*
X128400Y134579D01*
X129362Y134180D01*
X130394Y134045D01*
X131426Y134180D01*
X132387Y134579D01*
X133213Y135212D01*
X133846Y136038D01*
X134168Y136815D01*
X134668Y136716D01*
Y134962D01*
X130168Y130462D01*
X130002Y130214D01*
X129944Y129921D01*
Y111932D01*
X129444Y111833D01*
X129279Y112230D01*
X128646Y113055D01*
X127820Y113689D01*
X126859Y114087D01*
X125827Y114223D01*
X124795Y114087D01*
X123833Y113689D01*
X123008Y113055D01*
X122374Y112230D01*
X121976Y111268D01*
X121840Y110236D01*
X121976Y109204D01*
X122374Y108243D01*
X123008Y107417D01*
X123833Y106783D01*
X124795Y106385D01*
X125827Y106249D01*
X126859Y106385D01*
X127820Y106783D01*
X128646Y107417D01*
X129279Y108243D01*
X129444Y108640D01*
X129944Y108540D01*
Y107874D01*
X130002Y107581D01*
X130168Y107333D01*
X134668Y102833D01*
Y88506D01*
X130955Y84793D01*
X130790Y84545D01*
X130749Y84341D01*
X130505Y84226D01*
X130231Y84194D01*
X129901Y84625D01*
X129157Y85195D01*
X128291Y85554D01*
X127362Y85676D01*
X126433Y85554D01*
X125567Y85195D01*
X124824Y84625D01*
X124253Y83881D01*
X123895Y83016D01*
X123773Y82087D01*
X123895Y81157D01*
X124253Y80292D01*
X124824Y79548D01*
X125567Y78978D01*
X126433Y78619D01*
X127362Y78497D01*
X128291Y78619D01*
X129157Y78978D01*
X129901Y79548D01*
X130231Y79979D01*
X130731Y79810D01*
Y75984D01*
X130790Y75692D01*
X130955Y75444D01*
X132228Y74171D01*
X132127Y74039D01*
X131769Y73173D01*
X131647Y72244D01*
X131769Y71315D01*
X132127Y70449D01*
X132698Y69706D01*
X133441Y69135D01*
X134307Y68777D01*
X135236Y68654D01*
X136165Y68777D01*
X137031Y69135D01*
X137775Y69706D01*
X137908Y69880D01*
X138409Y69711D01*
Y67859D01*
X138244Y67838D01*
X137378Y67479D01*
X136635Y66908D01*
X136064Y66165D01*
X135706Y65299D01*
X135583Y64370D01*
X135706Y63441D01*
X136064Y62575D01*
X136635Y61832D01*
X137378Y61261D01*
X138244Y60903D01*
X139173Y60780D01*
X140102Y60903D01*
X140968Y61261D01*
X141712Y61832D01*
X142282Y62575D01*
X142641Y63441D01*
X142763Y64370D01*
X142641Y65299D01*
X142282Y66165D01*
X141712Y66908D01*
X140968Y67479D01*
X140102Y67838D01*
X139938Y67859D01*
Y79553D01*
X140438Y79723D01*
X140572Y79548D01*
X141315Y78978D01*
X142181Y78619D01*
X143110Y78497D01*
X144039Y78619D01*
X144905Y78978D01*
X145649Y79548D01*
X146219Y80292D01*
X146578Y81157D01*
X146700Y82087D01*
X146578Y83016D01*
X146219Y83881D01*
X145649Y84625D01*
X144905Y85195D01*
X144039Y85554D01*
X143110Y85676D01*
X142956Y85656D01*
X142723Y86130D01*
X143454Y86861D01*
X143454Y86861D01*
X143620Y87109D01*
X143678Y87402D01*
Y87684D01*
X144178Y87853D01*
X144509Y87422D01*
X145252Y86852D01*
X146118Y86493D01*
X147047Y86371D01*
X147976Y86493D01*
X148842Y86852D01*
X149586Y87422D01*
X150156Y88166D01*
X150515Y89031D01*
X150637Y89961D01*
X150515Y90890D01*
X150156Y91755D01*
X149586Y92499D01*
X148842Y93069D01*
X147976Y93428D01*
X147047Y93550D01*
X146118Y93428D01*
X145252Y93069D01*
X144509Y92499D01*
X144178Y92068D01*
X143678Y92238D01*
Y104724D01*
X143620Y105017D01*
X143454Y105265D01*
X141316Y107403D01*
Y128423D01*
X145816Y132924D01*
X145816Y132924D01*
X145982Y133172D01*
X146040Y133465D01*
Y136985D01*
X146540Y137018D01*
X146543Y137000D01*
X146941Y136038D01*
X147575Y135212D01*
X148400Y134579D01*
X149362Y134180D01*
X150394Y134045D01*
X151426Y134180D01*
X152387Y134579D01*
X153213Y135212D01*
X153846Y136038D01*
X153853Y136055D01*
X154353Y135956D01*
Y132994D01*
X150640Y129281D01*
X150475Y129033D01*
X150416Y128740D01*
Y106299D01*
X150475Y106007D01*
X150640Y105759D01*
X158290Y98109D01*
Y92238D01*
X157790Y92068D01*
X157460Y92499D01*
X156716Y93069D01*
X155850Y93428D01*
X154921Y93550D01*
X153992Y93428D01*
X153126Y93069D01*
X152383Y92499D01*
X151812Y91755D01*
X151454Y90890D01*
X151331Y89961D01*
X151454Y89031D01*
X151812Y88166D01*
X152383Y87422D01*
X153126Y86852D01*
X153992Y86493D01*
X154921Y86371D01*
X155528Y86451D01*
X155762Y85977D01*
X154264Y84480D01*
X153918Y84437D01*
X153635Y84478D01*
X153523Y84625D01*
X152779Y85195D01*
X151913Y85554D01*
X150984Y85676D01*
X150055Y85554D01*
X149189Y85195D01*
X148446Y84625D01*
X147875Y83881D01*
X147517Y83016D01*
X147395Y82087D01*
X147517Y81157D01*
X147875Y80292D01*
X148446Y79548D01*
X149189Y78978D01*
X150055Y78619D01*
X150984Y78497D01*
X151913Y78619D01*
X152779Y78978D01*
X153460Y79500D01*
X153960Y79382D01*
Y76378D01*
X154018Y76085D01*
X154184Y75837D01*
X155850Y74171D01*
X155749Y74039D01*
X155391Y73173D01*
X155269Y72244D01*
X155391Y71315D01*
X155749Y70449D01*
X156320Y69706D01*
X157063Y69135D01*
X157929Y68777D01*
X158858Y68654D01*
X159787Y68777D01*
X160653Y69135D01*
X161397Y69706D01*
X161967Y70449D01*
X162326Y71315D01*
X162372Y71664D01*
X162917Y71979D01*
X163860Y71588D01*
X165354Y71391D01*
X166849Y71588D01*
X168241Y72165D01*
X169437Y73083D01*
X170355Y74278D01*
X170931Y75671D01*
X171128Y77165D01*
X170931Y78660D01*
X170355Y80052D01*
X169437Y81248D01*
X168241Y82166D01*
X166849Y82742D01*
X165354Y82939D01*
X163860Y82742D01*
X162917Y82352D01*
X162372Y82667D01*
X162326Y83016D01*
X161967Y83881D01*
X161397Y84625D01*
X160653Y85195D01*
X159787Y85554D01*
X158858Y85676D01*
X158251Y85596D01*
X158018Y86070D01*
X159596Y87648D01*
X159762Y87896D01*
X159820Y88189D01*
Y98425D01*
X159820Y98425D01*
X159762Y98718D01*
X159596Y98966D01*
X159596Y98966D01*
X151946Y106616D01*
Y128423D01*
X155659Y132136D01*
X155825Y132385D01*
X155883Y132677D01*
Y259134D01*
X155825Y259426D01*
X155659Y259675D01*
X143682Y271651D01*
X143846Y271865D01*
X144245Y272826D01*
X144381Y273858D01*
X144245Y274890D01*
X143846Y275852D01*
X143213Y276677D01*
X142387Y277311D01*
X141426Y277709D01*
X140394Y277845D01*
X139362Y277709D01*
X138400Y277311D01*
X137575Y276677D01*
X136941Y275852D01*
X136543Y274890D01*
X136407Y273858D01*
X136543Y272826D01*
X136941Y271865D01*
X137575Y271039D01*
X138400Y270406D01*
X139362Y270007D01*
X140394Y269871D01*
X141426Y270007D01*
X142387Y270406D01*
X142601Y270570D01*
X154353Y258817D01*
Y150108D01*
X153853Y150008D01*
X153846Y150025D01*
X153213Y150851D01*
X152387Y151484D01*
X151426Y151883D01*
X150394Y152018D01*
X149362Y151883D01*
X148400Y151484D01*
X147575Y150851D01*
X146941Y150025D01*
X146543Y149063D01*
X146540Y149045D01*
X146040Y149078D01*
Y243578D01*
X146134Y243597D01*
X146862Y244083D01*
X147348Y244811D01*
X147519Y245669D01*
X147348Y246528D01*
X146862Y247255D01*
X146134Y247742D01*
X146040Y247760D01*
Y251969D01*
X145982Y252261D01*
X145816Y252509D01*
X126355Y271970D01*
Y278661D01*
X126355Y278661D01*
X126297Y278954D01*
X126131Y279202D01*
X126131Y279202D01*
X123682Y281651D01*
X123846Y281865D01*
X124245Y282826D01*
X124381Y283858D01*
X124245Y284890D01*
X123846Y285852D01*
X123213Y286677D01*
X122387Y287311D01*
X121426Y287709D01*
X120394Y287845D01*
D02*
G37*
G36*
X290394Y277845D02*
X289362Y277709D01*
X288400Y277311D01*
X287575Y276677D01*
X286941Y275852D01*
X286543Y274890D01*
X286407Y273858D01*
X286543Y272826D01*
X286941Y271865D01*
X287575Y271039D01*
X288400Y270406D01*
X289362Y270007D01*
X290394Y269871D01*
X291426Y270007D01*
X292387Y270406D01*
X293213Y271039D01*
X293846Y271865D01*
X294245Y272826D01*
X294381Y273858D01*
X294245Y274890D01*
X293846Y275852D01*
X293213Y276677D01*
X292387Y277311D01*
X291426Y277709D01*
X290394Y277845D01*
D02*
G37*
G36*
X200394D02*
X199362Y277709D01*
X198400Y277311D01*
X197575Y276677D01*
X196941Y275852D01*
X196543Y274890D01*
X196407Y273858D01*
X196543Y272826D01*
X196941Y271865D01*
X197575Y271039D01*
X198400Y270406D01*
X199362Y270007D01*
X200394Y269871D01*
X201426Y270007D01*
X202387Y270406D01*
X203213Y271039D01*
X203846Y271865D01*
X204245Y272826D01*
X204381Y273858D01*
X204245Y274890D01*
X203846Y275852D01*
X203213Y276677D01*
X202387Y277311D01*
X201426Y277709D01*
X200394Y277845D01*
D02*
G37*
G36*
X190394D02*
X189362Y277709D01*
X188400Y277311D01*
X187575Y276677D01*
X186941Y275852D01*
X186543Y274890D01*
X186407Y273858D01*
X186543Y272826D01*
X186941Y271865D01*
X187575Y271039D01*
X188400Y270406D01*
X189362Y270007D01*
X190394Y269871D01*
X191426Y270007D01*
X192387Y270406D01*
X193213Y271039D01*
X193846Y271865D01*
X194245Y272826D01*
X194381Y273858D01*
X194245Y274890D01*
X193846Y275852D01*
X193213Y276677D01*
X192387Y277311D01*
X191426Y277709D01*
X190394Y277845D01*
D02*
G37*
G36*
X180394D02*
X179362Y277709D01*
X178400Y277311D01*
X177575Y276677D01*
X176941Y275852D01*
X176543Y274890D01*
X176407Y273858D01*
X176543Y272826D01*
X176941Y271865D01*
X177575Y271039D01*
X178400Y270406D01*
X179362Y270007D01*
X180394Y269871D01*
X181426Y270007D01*
X182387Y270406D01*
X183213Y271039D01*
X183846Y271865D01*
X184245Y272826D01*
X184381Y273858D01*
X184245Y274890D01*
X183846Y275852D01*
X183213Y276677D01*
X182387Y277311D01*
X181426Y277709D01*
X180394Y277845D01*
D02*
G37*
G36*
X170394D02*
X169362Y277709D01*
X168400Y277311D01*
X167575Y276677D01*
X166941Y275852D01*
X166543Y274890D01*
X166407Y273858D01*
X166543Y272826D01*
X166941Y271865D01*
X167575Y271039D01*
X168400Y270406D01*
X169362Y270007D01*
X170394Y269871D01*
X171426Y270007D01*
X172387Y270406D01*
X173213Y271039D01*
X173846Y271865D01*
X174245Y272826D01*
X174381Y273858D01*
X174245Y274890D01*
X173846Y275852D01*
X173213Y276677D01*
X172387Y277311D01*
X171426Y277709D01*
X170394Y277845D01*
D02*
G37*
G36*
X160394D02*
X159362Y277709D01*
X158400Y277311D01*
X157575Y276677D01*
X156941Y275852D01*
X156543Y274890D01*
X156407Y273858D01*
X156543Y272826D01*
X156941Y271865D01*
X157575Y271039D01*
X158400Y270406D01*
X159362Y270007D01*
X160394Y269871D01*
X161426Y270007D01*
X162387Y270406D01*
X163213Y271039D01*
X163846Y271865D01*
X164245Y272826D01*
X164381Y273858D01*
X164245Y274890D01*
X163846Y275852D01*
X163213Y276677D01*
X162387Y277311D01*
X161426Y277709D01*
X160394Y277845D01*
D02*
G37*
G36*
X150394D02*
X149362Y277709D01*
X148400Y277311D01*
X147575Y276677D01*
X146941Y275852D01*
X146543Y274890D01*
X146407Y273858D01*
X146543Y272826D01*
X146941Y271865D01*
X147575Y271039D01*
X148400Y270406D01*
X149362Y270007D01*
X150394Y269871D01*
X151426Y270007D01*
X152387Y270406D01*
X153213Y271039D01*
X153846Y271865D01*
X154245Y272826D01*
X154381Y273858D01*
X154245Y274890D01*
X153846Y275852D01*
X153213Y276677D01*
X152387Y277311D01*
X151426Y277709D01*
X150394Y277845D01*
D02*
G37*
G36*
X110394D02*
X109362Y277709D01*
X108400Y277311D01*
X107575Y276677D01*
X106941Y275852D01*
X106543Y274890D01*
X106407Y273858D01*
X106543Y272826D01*
X106941Y271865D01*
X107575Y271039D01*
X108400Y270406D01*
X109362Y270007D01*
X110394Y269871D01*
X111426Y270007D01*
X112387Y270406D01*
X113213Y271039D01*
X113846Y271865D01*
X114245Y272826D01*
X114381Y273858D01*
X114245Y274890D01*
X113846Y275852D01*
X113213Y276677D01*
X112387Y277311D01*
X111426Y277709D01*
X110394Y277845D01*
D02*
G37*
G36*
X33331Y274317D02*
X13331D01*
X12548Y274214D01*
X11818Y273912D01*
X11191Y273431D01*
X10710Y272804D01*
X10408Y272075D01*
X10305Y271291D01*
Y267291D01*
X10408Y266508D01*
X10710Y265778D01*
X11191Y265152D01*
X11818Y264671D01*
X12548Y264369D01*
X13331Y264265D01*
X33331D01*
X34114Y264369D01*
X34844Y264671D01*
X35470Y265152D01*
X35951Y265778D01*
X36253Y266508D01*
X36357Y267291D01*
Y271291D01*
X36253Y272075D01*
X35951Y272804D01*
X35470Y273431D01*
X34844Y273912D01*
X34114Y274214D01*
X33331Y274317D01*
D02*
G37*
G36*
X100394Y277845D02*
X99362Y277709D01*
X98400Y277311D01*
X97575Y276677D01*
X96941Y275852D01*
X96543Y274890D01*
X96407Y273858D01*
X96543Y272826D01*
X96941Y271865D01*
X97575Y271039D01*
X97845Y270832D01*
Y205512D01*
X98039Y204536D01*
X98591Y203709D01*
X98727Y203574D01*
X98951Y203282D01*
X99489Y202869D01*
X100115Y202610D01*
X100787Y202521D01*
X101460Y202610D01*
X102086Y202869D01*
X102624Y203282D01*
X103036Y203820D01*
X103296Y204446D01*
X103384Y205118D01*
X103296Y205790D01*
X103036Y206417D01*
X102943Y206539D01*
Y270832D01*
X103213Y271039D01*
X103846Y271865D01*
X104245Y272826D01*
X104381Y273858D01*
X104245Y274890D01*
X103846Y275852D01*
X103213Y276677D01*
X102387Y277311D01*
X101426Y277709D01*
X100394Y277845D01*
D02*
G37*
G36*
X15862Y208480D02*
X10122D01*
Y202937D01*
X12168D01*
Y201957D01*
X11901Y201922D01*
X10940Y201524D01*
X10114Y200890D01*
X9480Y200064D01*
X9082Y199103D01*
X8946Y198071D01*
X9082Y197039D01*
X9480Y196077D01*
X10114Y195252D01*
X10940Y194618D01*
X11901Y194220D01*
X12933Y194084D01*
X13965Y194220D01*
X14927Y194618D01*
X15752Y195252D01*
X16386Y196077D01*
X16784Y197039D01*
X16920Y198071D01*
X16784Y199103D01*
X16386Y200064D01*
X15752Y200890D01*
X14927Y201524D01*
X13965Y201922D01*
X13698Y201957D01*
Y202937D01*
X15862D01*
Y208480D01*
D02*
G37*
G36*
X55626Y208579D02*
X49886D01*
Y203035D01*
X52050D01*
Y201957D01*
X51783Y201922D01*
X50822Y201524D01*
X49996Y200890D01*
X49362Y200064D01*
X48964Y199103D01*
X48828Y198071D01*
X48964Y197039D01*
X49362Y196077D01*
X49996Y195252D01*
X50822Y194618D01*
X51783Y194220D01*
X52815Y194084D01*
X53847Y194220D01*
X54808Y194618D01*
X55634Y195252D01*
X56268Y196077D01*
X56666Y197039D01*
X56802Y198071D01*
X56666Y199103D01*
X56268Y200064D01*
X55634Y200890D01*
X54808Y201524D01*
X53847Y201922D01*
X53580Y201957D01*
Y203035D01*
X55626D01*
Y208579D01*
D02*
G37*
G36*
X60295Y189323D02*
X58845Y189180D01*
X57451Y188757D01*
X56165Y188070D01*
X55039Y187146D01*
X54115Y186020D01*
X53428Y184734D01*
X53005Y183340D01*
X52862Y181890D01*
X53005Y180440D01*
X53428Y179045D01*
X54115Y177760D01*
X55039Y176634D01*
X56165Y175709D01*
X57451Y175022D01*
X58845Y174599D01*
X60295Y174456D01*
X61746Y174599D01*
X63140Y175022D01*
X64425Y175709D01*
X65552Y176634D01*
X66476Y177760D01*
X67163Y179045D01*
X67586Y180440D01*
X67729Y181890D01*
X67586Y183340D01*
X67163Y184734D01*
X66476Y186020D01*
X65552Y187146D01*
X64425Y188070D01*
X63140Y188757D01*
X61746Y189180D01*
X60295Y189323D01*
D02*
G37*
G36*
X15295D02*
X13845Y189180D01*
X12451Y188757D01*
X11165Y188070D01*
X10039Y187146D01*
X9115Y186020D01*
X8428Y184734D01*
X8005Y183340D01*
X7862Y181890D01*
X8005Y180440D01*
X8428Y179045D01*
X9115Y177760D01*
X10039Y176634D01*
X11165Y175709D01*
X12451Y175022D01*
X13845Y174599D01*
X15295Y174456D01*
X16746Y174599D01*
X18140Y175022D01*
X19425Y175709D01*
X20551Y176634D01*
X21476Y177760D01*
X22163Y179045D01*
X22586Y180440D01*
X22729Y181890D01*
X22586Y183340D01*
X22163Y184734D01*
X21476Y186020D01*
X20551Y187146D01*
X19425Y188070D01*
X18140Y188757D01*
X16746Y189180D01*
X15295Y189323D01*
D02*
G37*
G36*
X25295Y160479D02*
X24366Y160357D01*
X23500Y159999D01*
X22757Y159428D01*
X22186Y158685D01*
X21828Y157819D01*
X21705Y156890D01*
X21828Y155961D01*
X22186Y155095D01*
X22757Y154351D01*
X23500Y153781D01*
X24366Y153422D01*
X25295Y153300D01*
X26224Y153422D01*
X27090Y153781D01*
X27834Y154351D01*
X28404Y155095D01*
X28763Y155961D01*
X28885Y156890D01*
X28763Y157819D01*
X28404Y158685D01*
X27834Y159428D01*
X27090Y159999D01*
X26224Y160357D01*
X25295Y160479D01*
D02*
G37*
G36*
X55295Y160479D02*
X54366Y160357D01*
X53500Y159999D01*
X52757Y159428D01*
X52187Y158685D01*
X51828Y157819D01*
X51705Y156890D01*
X51828Y155961D01*
X52187Y155095D01*
X52757Y154351D01*
X53500Y153781D01*
X54366Y153422D01*
X55295Y153300D01*
X56224Y153422D01*
X57090Y153781D01*
X57834Y154351D01*
X58404Y155095D01*
X58763Y155961D01*
X58885Y156890D01*
X58763Y157819D01*
X58404Y158685D01*
X57834Y159428D01*
X57090Y159999D01*
X56224Y160357D01*
X55295Y160479D01*
D02*
G37*
G36*
X45295D02*
X44366Y160357D01*
X43500Y159999D01*
X42757Y159428D01*
X42186Y158685D01*
X41828Y157819D01*
X41706Y156890D01*
X41828Y155961D01*
X42186Y155095D01*
X42757Y154351D01*
X43500Y153781D01*
X44366Y153422D01*
X45295Y153300D01*
X46224Y153422D01*
X47090Y153781D01*
X47834Y154351D01*
X48404Y155095D01*
X48763Y155961D01*
X48885Y156890D01*
X48763Y157819D01*
X48404Y158685D01*
X47834Y159428D01*
X47090Y159999D01*
X46224Y160357D01*
X45295Y160479D01*
D02*
G37*
G36*
X290394Y152018D02*
X289362Y151883D01*
X288400Y151484D01*
X287575Y150851D01*
X286941Y150025D01*
X286543Y149063D01*
X286407Y148031D01*
X286543Y147000D01*
X286941Y146038D01*
X287575Y145212D01*
X288400Y144579D01*
X289362Y144181D01*
X290394Y144045D01*
X291426Y144181D01*
X292387Y144579D01*
X293213Y145212D01*
X293846Y146038D01*
X294245Y147000D01*
X294381Y148031D01*
X294245Y149063D01*
X293846Y150025D01*
X293213Y150851D01*
X292387Y151484D01*
X291426Y151883D01*
X290394Y152018D01*
D02*
G37*
G36*
X280394D02*
X279362Y151883D01*
X278400Y151484D01*
X277575Y150851D01*
X276941Y150025D01*
X276543Y149063D01*
X276407Y148031D01*
X276543Y147000D01*
X276941Y146038D01*
X277575Y145212D01*
X278400Y144579D01*
X279362Y144181D01*
X280394Y144045D01*
X281426Y144181D01*
X282387Y144579D01*
X283213Y145212D01*
X283846Y146038D01*
X284245Y147000D01*
X284381Y148031D01*
X284245Y149063D01*
X283846Y150025D01*
X283213Y150851D01*
X282387Y151484D01*
X281426Y151883D01*
X280394Y152018D01*
D02*
G37*
G36*
X270394D02*
X269362Y151883D01*
X268400Y151484D01*
X267575Y150851D01*
X266941Y150025D01*
X266543Y149063D01*
X266407Y148031D01*
X266543Y147000D01*
X266941Y146038D01*
X267575Y145212D01*
X268400Y144579D01*
X269362Y144181D01*
X270394Y144045D01*
X271426Y144181D01*
X272387Y144579D01*
X273213Y145212D01*
X273846Y146038D01*
X274245Y147000D01*
X274381Y148031D01*
X274245Y149063D01*
X273846Y150025D01*
X273213Y150851D01*
X272387Y151484D01*
X271426Y151883D01*
X270394Y152018D01*
D02*
G37*
G36*
X260394D02*
X259362Y151883D01*
X258400Y151484D01*
X257575Y150851D01*
X256941Y150025D01*
X256543Y149063D01*
X256407Y148031D01*
X256543Y147000D01*
X256941Y146038D01*
X257575Y145212D01*
X258400Y144579D01*
X259362Y144181D01*
X260394Y144045D01*
X261426Y144181D01*
X262387Y144579D01*
X263213Y145212D01*
X263846Y146038D01*
X264245Y147000D01*
X264381Y148031D01*
X264245Y149063D01*
X263846Y150025D01*
X263213Y150851D01*
X262387Y151484D01*
X261426Y151883D01*
X260394Y152018D01*
D02*
G37*
G36*
X250394D02*
X249362Y151883D01*
X248400Y151484D01*
X247575Y150851D01*
X246941Y150025D01*
X246543Y149063D01*
X246407Y148031D01*
X246543Y147000D01*
X246941Y146038D01*
X247575Y145212D01*
X248400Y144579D01*
X249362Y144181D01*
X250394Y144045D01*
X251426Y144181D01*
X252387Y144579D01*
X253213Y145212D01*
X253846Y146038D01*
X254245Y147000D01*
X254381Y148031D01*
X254245Y149063D01*
X253846Y150025D01*
X253213Y150851D01*
X252387Y151484D01*
X251426Y151883D01*
X250394Y152018D01*
D02*
G37*
G36*
X240394D02*
X239362Y151883D01*
X238400Y151484D01*
X237575Y150851D01*
X236941Y150025D01*
X236543Y149063D01*
X236407Y148031D01*
X236543Y147000D01*
X236941Y146038D01*
X237575Y145212D01*
X238400Y144579D01*
X239362Y144181D01*
X240394Y144045D01*
X241426Y144181D01*
X242387Y144579D01*
X243213Y145212D01*
X243846Y146038D01*
X244245Y147000D01*
X244381Y148031D01*
X244245Y149063D01*
X243846Y150025D01*
X243213Y150851D01*
X242387Y151484D01*
X241426Y151883D01*
X240394Y152018D01*
D02*
G37*
G36*
X230394D02*
X229362Y151883D01*
X228400Y151484D01*
X227575Y150851D01*
X226941Y150025D01*
X226543Y149063D01*
X226407Y148031D01*
X226543Y147000D01*
X226941Y146038D01*
X227575Y145212D01*
X228400Y144579D01*
X229362Y144181D01*
X230394Y144045D01*
X231426Y144181D01*
X232387Y144579D01*
X233213Y145212D01*
X233846Y146038D01*
X234245Y147000D01*
X234381Y148031D01*
X234245Y149063D01*
X233846Y150025D01*
X233213Y150851D01*
X232387Y151484D01*
X231426Y151883D01*
X230394Y152018D01*
D02*
G37*
G36*
X220394D02*
X219362Y151883D01*
X218400Y151484D01*
X217575Y150851D01*
X216941Y150025D01*
X216543Y149063D01*
X216407Y148031D01*
X216543Y147000D01*
X216941Y146038D01*
X217575Y145212D01*
X218400Y144579D01*
X219362Y144181D01*
X220394Y144045D01*
X221426Y144181D01*
X222387Y144579D01*
X223213Y145212D01*
X223846Y146038D01*
X224245Y147000D01*
X224381Y148031D01*
X224245Y149063D01*
X223846Y150025D01*
X223213Y150851D01*
X222387Y151484D01*
X221426Y151883D01*
X220394Y152018D01*
D02*
G37*
G36*
X210394D02*
X209362Y151883D01*
X208400Y151484D01*
X207575Y150851D01*
X206941Y150025D01*
X206543Y149063D01*
X206407Y148031D01*
X206543Y147000D01*
X206941Y146038D01*
X207575Y145212D01*
X208400Y144579D01*
X209362Y144181D01*
X210394Y144045D01*
X211426Y144181D01*
X212387Y144579D01*
X213213Y145212D01*
X213846Y146038D01*
X214245Y147000D01*
X214381Y148031D01*
X214245Y149063D01*
X213846Y150025D01*
X213213Y150851D01*
X212387Y151484D01*
X211426Y151883D01*
X210394Y152018D01*
D02*
G37*
G36*
X200394D02*
X199362Y151883D01*
X198400Y151484D01*
X197575Y150851D01*
X196941Y150025D01*
X196543Y149063D01*
X196407Y148031D01*
X196543Y147000D01*
X196941Y146038D01*
X197575Y145212D01*
X198400Y144579D01*
X199362Y144181D01*
X200394Y144045D01*
X201426Y144181D01*
X202387Y144579D01*
X203213Y145212D01*
X203846Y146038D01*
X204245Y147000D01*
X204381Y148031D01*
X204245Y149063D01*
X203846Y150025D01*
X203213Y150851D01*
X202387Y151484D01*
X201426Y151883D01*
X200394Y152018D01*
D02*
G37*
G36*
X190394D02*
X189362Y151883D01*
X188400Y151484D01*
X187575Y150851D01*
X186941Y150025D01*
X186543Y149063D01*
X186407Y148031D01*
X186543Y147000D01*
X186941Y146038D01*
X187575Y145212D01*
X188400Y144579D01*
X189362Y144181D01*
X190394Y144045D01*
X191426Y144181D01*
X192387Y144579D01*
X193213Y145212D01*
X193846Y146038D01*
X194245Y147000D01*
X194381Y148031D01*
X194245Y149063D01*
X193846Y150025D01*
X193213Y150851D01*
X192387Y151484D01*
X191426Y151883D01*
X190394Y152018D01*
D02*
G37*
G36*
X180394D02*
X179362Y151883D01*
X178400Y151484D01*
X177575Y150851D01*
X176941Y150025D01*
X176543Y149063D01*
X176407Y148031D01*
X176543Y147000D01*
X176941Y146038D01*
X177575Y145212D01*
X178400Y144579D01*
X179362Y144181D01*
X180394Y144045D01*
X181426Y144181D01*
X182387Y144579D01*
X183213Y145212D01*
X183846Y146038D01*
X184245Y147000D01*
X184381Y148031D01*
X184245Y149063D01*
X183846Y150025D01*
X183213Y150851D01*
X182387Y151484D01*
X181426Y151883D01*
X180394Y152018D01*
D02*
G37*
G36*
X170394D02*
X169362Y151883D01*
X168400Y151484D01*
X167575Y150851D01*
X166941Y150025D01*
X166543Y149063D01*
X166407Y148031D01*
X166543Y147000D01*
X166941Y146038D01*
X167575Y145212D01*
X168400Y144579D01*
X169362Y144181D01*
X170394Y144045D01*
X171426Y144181D01*
X172387Y144579D01*
X173213Y145212D01*
X173846Y146038D01*
X174245Y147000D01*
X174381Y148031D01*
X174245Y149063D01*
X173846Y150025D01*
X173213Y150851D01*
X172387Y151484D01*
X171426Y151883D01*
X170394Y152018D01*
D02*
G37*
G36*
X160394D02*
X159362Y151883D01*
X158400Y151484D01*
X157575Y150851D01*
X156941Y150025D01*
X156543Y149063D01*
X156407Y148031D01*
X156543Y147000D01*
X156941Y146038D01*
X157575Y145212D01*
X158400Y144579D01*
X159362Y144181D01*
X160394Y144045D01*
X161426Y144181D01*
X162387Y144579D01*
X163213Y145212D01*
X163846Y146038D01*
X164245Y147000D01*
X164381Y148031D01*
X164245Y149063D01*
X163846Y150025D01*
X163213Y150851D01*
X162387Y151484D01*
X161426Y151883D01*
X160394Y152018D01*
D02*
G37*
G36*
X39386Y169209D02*
X31480D01*
Y161500D01*
X33835D01*
Y160137D01*
X33500Y159999D01*
X32757Y159428D01*
X32186Y158685D01*
X31828Y157819D01*
X31705Y156890D01*
X31828Y155961D01*
X32186Y155095D01*
X32757Y154351D01*
X33500Y153781D01*
X34366Y153422D01*
X35295Y153300D01*
X36224Y153422D01*
X37013Y153749D01*
X39885Y150878D01*
X39724Y150404D01*
X39366Y150357D01*
X38500Y149999D01*
X37757Y149428D01*
X37187Y148685D01*
X36828Y147819D01*
X36806Y147654D01*
X36088D01*
X35796Y147596D01*
X35548Y147431D01*
X35295Y147178D01*
X35043Y147431D01*
X34795Y147596D01*
X34502Y147654D01*
X33784D01*
X33763Y147819D01*
X33404Y148685D01*
X32834Y149428D01*
X32090Y149999D01*
X31224Y150357D01*
X30295Y150479D01*
X29366Y150357D01*
X28500Y149999D01*
X27757Y149428D01*
X27187Y148685D01*
X26828Y147819D01*
X26706Y146890D01*
X26828Y145961D01*
X27187Y145095D01*
X27757Y144351D01*
X28500Y143781D01*
X29366Y143422D01*
X30295Y143300D01*
X31224Y143422D01*
X32090Y143781D01*
X32834Y144351D01*
X33404Y145095D01*
X33531Y145400D01*
X34031Y145301D01*
Y142243D01*
X34089Y141951D01*
X34255Y141703D01*
X37734Y138223D01*
X37982Y138057D01*
X38275Y137999D01*
X59236D01*
X59529Y138057D01*
X59777Y138223D01*
X75695Y154141D01*
X101900D01*
X103595Y152446D01*
X103403Y151984D01*
X96441D01*
Y144385D01*
X73655D01*
X73503Y144571D01*
X73332Y145429D01*
X72846Y146157D01*
X72118Y146643D01*
X71260Y146814D01*
X70401Y146643D01*
X69674Y146157D01*
X69187Y145429D01*
X69017Y144571D01*
X69187Y143712D01*
X69583Y143121D01*
X69187Y142529D01*
X69017Y141671D01*
X69187Y140812D01*
X69674Y140084D01*
X70401Y139598D01*
X71260Y139427D01*
X72118Y139598D01*
X72846Y140084D01*
X73332Y140812D01*
X73503Y141671D01*
X73655Y141856D01*
X98063D01*
X98233Y141356D01*
X97575Y140851D01*
X96941Y140025D01*
X96543Y139063D01*
X96407Y138031D01*
X96543Y137000D01*
X96941Y136038D01*
X97575Y135212D01*
X98400Y134579D01*
X99362Y134180D01*
X100394Y134045D01*
X101426Y134180D01*
X102387Y134579D01*
X103213Y135212D01*
X103846Y136038D01*
X104245Y137000D01*
X104280Y137267D01*
X104601D01*
X104893Y137325D01*
X105141Y137491D01*
X105394Y137743D01*
X105646Y137491D01*
X105894Y137325D01*
X106187Y137267D01*
X106508D01*
X106543Y137000D01*
X106941Y136038D01*
X107575Y135212D01*
X108400Y134579D01*
X109362Y134180D01*
X110394Y134045D01*
X111426Y134180D01*
X112387Y134579D01*
X113213Y135212D01*
X113846Y136038D01*
X114245Y137000D01*
X114381Y138031D01*
X114245Y139063D01*
X113846Y140025D01*
X113213Y140851D01*
X112387Y141484D01*
X111426Y141883D01*
X110394Y142018D01*
X109362Y141883D01*
X108400Y141484D01*
X107575Y140851D01*
X106941Y140025D01*
X106900Y139926D01*
X106746Y139859D01*
X106322Y139836D01*
X102541Y143617D01*
X102732Y144079D01*
X104347D01*
Y147267D01*
X104601D01*
X104893Y147325D01*
X105141Y147491D01*
X105394Y147743D01*
X105646Y147491D01*
X105894Y147325D01*
X106187Y147267D01*
X106508D01*
X106543Y147000D01*
X106941Y146038D01*
X107575Y145212D01*
X108400Y144579D01*
X109362Y144181D01*
X110394Y144045D01*
X111426Y144181D01*
X112387Y144579D01*
X113213Y145212D01*
X113846Y146038D01*
X114245Y147000D01*
X114381Y148031D01*
X114245Y149063D01*
X113846Y150025D01*
X113213Y150851D01*
X112387Y151484D01*
X111426Y151883D01*
X110394Y152018D01*
X109362Y151883D01*
X108400Y151484D01*
X107575Y150851D01*
X107158Y150308D01*
X106658Y150478D01*
Y152643D01*
X106600Y152936D01*
X106434Y153184D01*
X103172Y156446D01*
X102924Y156612D01*
X102631Y156670D01*
X74964D01*
X74671Y156612D01*
X74423Y156446D01*
X58505Y140529D01*
X39006D01*
X36560Y142974D01*
Y145301D01*
X37060Y145400D01*
X37187Y145095D01*
X37757Y144351D01*
X38500Y143781D01*
X39366Y143422D01*
X40295Y143300D01*
X41224Y143422D01*
X42090Y143781D01*
X42834Y144351D01*
X43404Y145095D01*
X43763Y145961D01*
X43810Y146318D01*
X44283Y146479D01*
X44358Y146405D01*
X44854Y146073D01*
X45439Y145957D01*
X46829D01*
X47186Y145095D01*
X47757Y144351D01*
X48500Y143781D01*
X49366Y143422D01*
X50295Y143300D01*
X51224Y143422D01*
X52090Y143781D01*
X52834Y144351D01*
X53404Y145095D01*
X53763Y145961D01*
X53885Y146890D01*
X53763Y147819D01*
X53404Y148685D01*
X52834Y149428D01*
X52090Y149999D01*
X51224Y150357D01*
X50295Y150479D01*
X49366Y150357D01*
X48500Y149999D01*
X47757Y149428D01*
X47441Y149016D01*
X46073D01*
X38805Y156283D01*
X38885Y156890D01*
X38763Y157819D01*
X38404Y158685D01*
X37834Y159428D01*
X37090Y159999D01*
X36894Y160080D01*
Y161500D01*
X39386D01*
Y169209D01*
D02*
G37*
G36*
X6791Y171554D02*
X5503Y171385D01*
X4301Y170887D01*
X3270Y170096D01*
X2479Y169065D01*
X1981Y167864D01*
X1812Y166575D01*
X1981Y165286D01*
X2479Y164085D01*
X3270Y163054D01*
X4301Y162262D01*
X5503Y161765D01*
X6018Y161697D01*
Y159638D01*
X6134Y159053D01*
X6466Y158556D01*
X16938Y148084D01*
X16828Y147819D01*
X16705Y146890D01*
X16828Y145961D01*
X17187Y145095D01*
X17757Y144351D01*
X18500Y143781D01*
X19366Y143422D01*
X20295Y143300D01*
X21224Y143422D01*
X22090Y143781D01*
X22834Y144351D01*
X23404Y145095D01*
X23763Y145961D01*
X23885Y146890D01*
X23763Y147819D01*
X23404Y148685D01*
X22834Y149428D01*
X22090Y149999D01*
X21224Y150357D01*
X20295Y150479D01*
X19366Y150357D01*
X19101Y150247D01*
X9077Y160271D01*
Y162178D01*
X9281Y162262D01*
X10312Y163054D01*
X11104Y164085D01*
X11601Y165286D01*
X11771Y166575D01*
X11601Y167864D01*
X11104Y169065D01*
X10312Y170096D01*
X9281Y170887D01*
X8080Y171385D01*
X6791Y171554D01*
D02*
G37*
G36*
X250394Y142018D02*
X249362Y141883D01*
X248400Y141484D01*
X247575Y140851D01*
X246941Y140025D01*
X246543Y139063D01*
X246407Y138031D01*
X246543Y137000D01*
X246941Y136038D01*
X247575Y135212D01*
X248400Y134579D01*
X249362Y134180D01*
X250394Y134045D01*
X251426Y134180D01*
X252387Y134579D01*
X253213Y135212D01*
X253846Y136038D01*
X254245Y137000D01*
X254381Y138031D01*
X254245Y139063D01*
X253846Y140025D01*
X253213Y140851D01*
X252387Y141484D01*
X251426Y141883D01*
X250394Y142018D01*
D02*
G37*
G36*
X220394D02*
X219362Y141883D01*
X218400Y141484D01*
X217575Y140851D01*
X216941Y140025D01*
X216543Y139063D01*
X216407Y138031D01*
X216543Y137000D01*
X216941Y136038D01*
X217575Y135212D01*
X218400Y134579D01*
X219362Y134180D01*
X220394Y134045D01*
X221426Y134180D01*
X222387Y134579D01*
X223213Y135212D01*
X223846Y136038D01*
X224245Y137000D01*
X224380Y138031D01*
X224245Y139063D01*
X223846Y140025D01*
X223213Y140851D01*
X222387Y141484D01*
X221426Y141883D01*
X220394Y142018D01*
D02*
G37*
G36*
X210394D02*
X209362Y141883D01*
X208400Y141484D01*
X207575Y140851D01*
X206941Y140025D01*
X206543Y139063D01*
X206407Y138031D01*
X206543Y137000D01*
X206941Y136038D01*
X207575Y135212D01*
X208400Y134579D01*
X209362Y134180D01*
X210394Y134045D01*
X211426Y134180D01*
X212387Y134579D01*
X213213Y135212D01*
X213846Y136038D01*
X214245Y137000D01*
X214381Y138031D01*
X214245Y139063D01*
X213846Y140025D01*
X213213Y140851D01*
X212387Y141484D01*
X211426Y141883D01*
X210394Y142018D01*
D02*
G37*
G36*
X160394D02*
X159362Y141883D01*
X158400Y141484D01*
X157575Y140851D01*
X156941Y140025D01*
X156543Y139063D01*
X156407Y138031D01*
X156543Y137000D01*
X156941Y136038D01*
X157575Y135212D01*
X158400Y134579D01*
X159362Y134180D01*
X160394Y134045D01*
X161426Y134180D01*
X162387Y134579D01*
X163213Y135212D01*
X163846Y136038D01*
X164245Y137000D01*
X164381Y138031D01*
X164245Y139063D01*
X163846Y140025D01*
X163213Y140851D01*
X162387Y141484D01*
X161426Y141883D01*
X160394Y142018D01*
D02*
G37*
G36*
X290394Y142018D02*
X289362Y141883D01*
X288400Y141484D01*
X287575Y140851D01*
X286941Y140025D01*
X286543Y139063D01*
X286407Y138031D01*
X286543Y137000D01*
X286941Y136038D01*
X287575Y135212D01*
X288400Y134579D01*
X289362Y134180D01*
X290394Y134045D01*
X291426Y134180D01*
X292387Y134579D01*
X293213Y135212D01*
X293846Y136038D01*
X294245Y137000D01*
X294381Y138031D01*
X294245Y139063D01*
X293846Y140025D01*
X293213Y140851D01*
X292387Y141484D01*
X291426Y141883D01*
X290394Y142018D01*
D02*
G37*
G36*
X280394D02*
X279362Y141883D01*
X278400Y141484D01*
X277575Y140851D01*
X276941Y140025D01*
X276543Y139063D01*
X276407Y138031D01*
X276543Y137000D01*
X276941Y136038D01*
X277575Y135212D01*
X278400Y134579D01*
X279362Y134180D01*
X280394Y134045D01*
X281426Y134180D01*
X282387Y134579D01*
X283213Y135212D01*
X283846Y136038D01*
X284245Y137000D01*
X284381Y138031D01*
X284245Y139063D01*
X283846Y140025D01*
X283213Y140851D01*
X282387Y141484D01*
X281426Y141883D01*
X280394Y142018D01*
D02*
G37*
G36*
X270394D02*
X269362Y141883D01*
X268400Y141484D01*
X267575Y140851D01*
X266941Y140025D01*
X266543Y139063D01*
X266407Y138031D01*
X266543Y137000D01*
X266941Y136038D01*
X267575Y135212D01*
X268400Y134579D01*
X269362Y134180D01*
X270394Y134045D01*
X271426Y134180D01*
X272387Y134579D01*
X273213Y135212D01*
X273846Y136038D01*
X274245Y137000D01*
X274381Y138031D01*
X274245Y139063D01*
X273846Y140025D01*
X273213Y140851D01*
X272387Y141484D01*
X271426Y141883D01*
X270394Y142018D01*
D02*
G37*
G36*
X260394D02*
X259362Y141883D01*
X258400Y141484D01*
X257575Y140851D01*
X256941Y140025D01*
X256543Y139063D01*
X256407Y138031D01*
X256543Y137000D01*
X256941Y136038D01*
X257575Y135212D01*
X258400Y134579D01*
X259362Y134180D01*
X260394Y134045D01*
X261426Y134180D01*
X262387Y134579D01*
X263213Y135212D01*
X263846Y136038D01*
X264245Y137000D01*
X264381Y138031D01*
X264245Y139063D01*
X263846Y140025D01*
X263213Y140851D01*
X262387Y141484D01*
X261426Y141883D01*
X260394Y142018D01*
D02*
G37*
G36*
X240394D02*
X239362Y141883D01*
X238400Y141484D01*
X237575Y140851D01*
X236941Y140025D01*
X236543Y139063D01*
X236407Y138031D01*
X236543Y137000D01*
X236941Y136038D01*
X237575Y135212D01*
X238400Y134579D01*
X239362Y134180D01*
X240394Y134045D01*
X241426Y134180D01*
X242387Y134579D01*
X243213Y135212D01*
X243846Y136038D01*
X244245Y137000D01*
X244381Y138031D01*
X244245Y139063D01*
X243846Y140025D01*
X243213Y140851D01*
X242387Y141484D01*
X241426Y141883D01*
X240394Y142018D01*
D02*
G37*
G36*
X230394D02*
X229362Y141883D01*
X228400Y141484D01*
X227575Y140851D01*
X226941Y140025D01*
X226543Y139063D01*
X226407Y138031D01*
X226543Y137000D01*
X226941Y136038D01*
X227575Y135212D01*
X228400Y134579D01*
X229362Y134180D01*
X230394Y134045D01*
X231426Y134180D01*
X232387Y134579D01*
X233213Y135212D01*
X233846Y136038D01*
X234245Y137000D01*
X234381Y138031D01*
X234245Y139063D01*
X233846Y140025D01*
X233213Y140851D01*
X232387Y141484D01*
X231426Y141883D01*
X230394Y142018D01*
D02*
G37*
G36*
X200394D02*
X199362Y141883D01*
X198400Y141484D01*
X197575Y140851D01*
X196941Y140025D01*
X196543Y139063D01*
X196407Y138031D01*
X196543Y137000D01*
X196941Y136038D01*
X197575Y135212D01*
X198400Y134579D01*
X199362Y134180D01*
X200394Y134045D01*
X201426Y134180D01*
X202387Y134579D01*
X203213Y135212D01*
X203846Y136038D01*
X204245Y137000D01*
X204381Y138031D01*
X204245Y139063D01*
X203846Y140025D01*
X203213Y140851D01*
X202387Y141484D01*
X201426Y141883D01*
X200394Y142018D01*
D02*
G37*
G36*
X190394D02*
X189362Y141883D01*
X188400Y141484D01*
X187575Y140851D01*
X186941Y140025D01*
X186543Y139063D01*
X186407Y138031D01*
X186543Y137000D01*
X186941Y136038D01*
X187575Y135212D01*
X188400Y134579D01*
X189362Y134180D01*
X190394Y134045D01*
X191426Y134180D01*
X192387Y134579D01*
X193213Y135212D01*
X193846Y136038D01*
X194245Y137000D01*
X194381Y138031D01*
X194245Y139063D01*
X193846Y140025D01*
X193213Y140851D01*
X192387Y141484D01*
X191426Y141883D01*
X190394Y142018D01*
D02*
G37*
G36*
X180394D02*
X179362Y141883D01*
X178400Y141484D01*
X177575Y140851D01*
X176941Y140025D01*
X176543Y139063D01*
X176407Y138031D01*
X176543Y137000D01*
X176941Y136038D01*
X177575Y135212D01*
X178400Y134579D01*
X179362Y134180D01*
X180394Y134045D01*
X181426Y134180D01*
X182387Y134579D01*
X183213Y135212D01*
X183846Y136038D01*
X184245Y137000D01*
X184381Y138031D01*
X184245Y139063D01*
X183846Y140025D01*
X183213Y140851D01*
X182387Y141484D01*
X181426Y141883D01*
X180394Y142018D01*
D02*
G37*
G36*
X170394D02*
X169362Y141883D01*
X168400Y141484D01*
X167575Y140851D01*
X166941Y140025D01*
X166543Y139063D01*
X166407Y138031D01*
X166543Y137000D01*
X166941Y136038D01*
X167575Y135212D01*
X168400Y134579D01*
X169362Y134180D01*
X170394Y134045D01*
X171426Y134180D01*
X172387Y134579D01*
X173213Y135212D01*
X173846Y136038D01*
X174245Y137000D01*
X174381Y138031D01*
X174245Y139063D01*
X173846Y140025D01*
X173213Y140851D01*
X172387Y141484D01*
X171426Y141883D01*
X170394Y142018D01*
D02*
G37*
G36*
X59161Y129703D02*
Y128059D01*
X60805D01*
X60734Y128418D01*
X60247Y129145D01*
X59520Y129631D01*
X59161Y129703D01*
D02*
G37*
G36*
X58161D02*
X57803Y129631D01*
X57075Y129145D01*
X56589Y128418D01*
X56518Y128059D01*
X58161D01*
Y129703D01*
D02*
G37*
G36*
X50894D02*
Y128059D01*
X52537D01*
X52466Y128418D01*
X51980Y129145D01*
X51252Y129631D01*
X50894Y129703D01*
D02*
G37*
G36*
X49894D02*
X49535Y129631D01*
X48808Y129145D01*
X48321Y128418D01*
X48250Y128059D01*
X49894D01*
Y129703D01*
D02*
G37*
G36*
X60805Y127059D02*
X59161D01*
Y125415D01*
X59520Y125487D01*
X60247Y125973D01*
X60734Y126701D01*
X60805Y127059D01*
D02*
G37*
G36*
X58161D02*
X56518D01*
X56589Y126701D01*
X57075Y125973D01*
X57803Y125487D01*
X58161Y125415D01*
Y127059D01*
D02*
G37*
G36*
X52537D02*
X50894D01*
Y125415D01*
X51252Y125487D01*
X51980Y125973D01*
X52466Y126701D01*
X52537Y127059D01*
D02*
G37*
G36*
X49894D02*
X48250D01*
X48321Y126701D01*
X48808Y125973D01*
X49535Y125487D01*
X49894Y125415D01*
Y127059D01*
D02*
G37*
G36*
X89780Y114189D02*
X81874D01*
Y106283D01*
X89780D01*
Y114189D01*
D02*
G37*
G36*
X305827Y114223D02*
X304795Y114087D01*
X303833Y113689D01*
X303008Y113055D01*
X302374Y112230D01*
X301976Y111268D01*
X301840Y110236D01*
X301976Y109204D01*
X302374Y108243D01*
X303008Y107417D01*
X303833Y106783D01*
X304795Y106385D01*
X305827Y106249D01*
X306859Y106385D01*
X307820Y106783D01*
X308646Y107417D01*
X309279Y108243D01*
X309678Y109204D01*
X309814Y110236D01*
X309678Y111268D01*
X309279Y112230D01*
X308646Y113055D01*
X307820Y113689D01*
X306859Y114087D01*
X305827Y114223D01*
D02*
G37*
G36*
X115827D02*
X114795Y114087D01*
X113833Y113689D01*
X113008Y113055D01*
X112374Y112230D01*
X111976Y111268D01*
X111840Y110236D01*
X111976Y109204D01*
X112374Y108243D01*
X113008Y107417D01*
X113833Y106783D01*
X114795Y106385D01*
X115827Y106249D01*
X116859Y106385D01*
X117820Y106783D01*
X118646Y107417D01*
X119280Y108243D01*
X119678Y109204D01*
X119814Y110236D01*
X119678Y111268D01*
X119280Y112230D01*
X118646Y113055D01*
X117820Y113689D01*
X116859Y114087D01*
X115827Y114223D01*
D02*
G37*
G36*
X105827D02*
X104795Y114087D01*
X103833Y113689D01*
X103008Y113055D01*
X102374Y112230D01*
X101976Y111268D01*
X101840Y110236D01*
X101976Y109204D01*
X102374Y108243D01*
X103008Y107417D01*
X103833Y106783D01*
X104795Y106385D01*
X105827Y106249D01*
X106859Y106385D01*
X107820Y106783D01*
X108646Y107417D01*
X109280Y108243D01*
X109678Y109204D01*
X109814Y110236D01*
X109678Y111268D01*
X109280Y112230D01*
X108646Y113055D01*
X107820Y113689D01*
X106859Y114087D01*
X105827Y114223D01*
D02*
G37*
G36*
X95827D02*
X94795Y114087D01*
X93833Y113689D01*
X93008Y113055D01*
X92374Y112230D01*
X91976Y111268D01*
X91840Y110236D01*
X91976Y109204D01*
X92374Y108243D01*
X93008Y107417D01*
X93833Y106783D01*
X94795Y106385D01*
X95827Y106249D01*
X96859Y106385D01*
X97820Y106783D01*
X98646Y107417D01*
X99279Y108243D01*
X99678Y109204D01*
X99814Y110236D01*
X99678Y111268D01*
X99279Y112230D01*
X98646Y113055D01*
X97820Y113689D01*
X96859Y114087D01*
X95827Y114223D01*
D02*
G37*
G36*
X186417Y93550D02*
X185488Y93428D01*
X184622Y93069D01*
X183879Y92499D01*
X183308Y91755D01*
X182950Y90890D01*
X182828Y89961D01*
X182950Y89031D01*
X183308Y88166D01*
X183879Y87422D01*
X184622Y86852D01*
X185488Y86493D01*
X186417Y86371D01*
X187346Y86493D01*
X188212Y86852D01*
X188956Y87422D01*
X189526Y88166D01*
X189885Y89031D01*
X190007Y89961D01*
X189885Y90890D01*
X189526Y91755D01*
X188956Y92499D01*
X188212Y93069D01*
X187346Y93428D01*
X186417Y93550D01*
D02*
G37*
G36*
X178543D02*
X177614Y93428D01*
X176748Y93069D01*
X176005Y92499D01*
X175435Y91755D01*
X175076Y90890D01*
X174953Y89961D01*
X175076Y89031D01*
X175435Y88166D01*
X176005Y87422D01*
X176748Y86852D01*
X177614Y86493D01*
X178543Y86371D01*
X179472Y86493D01*
X180338Y86852D01*
X181082Y87422D01*
X181652Y88166D01*
X182011Y89031D01*
X182133Y89961D01*
X182011Y90890D01*
X181652Y91755D01*
X181082Y92499D01*
X180338Y93069D01*
X179472Y93428D01*
X178543Y93550D01*
D02*
G37*
G36*
X123425D02*
X122496Y93428D01*
X121630Y93069D01*
X120887Y92499D01*
X120316Y91755D01*
X119958Y90890D01*
X119835Y89961D01*
X119958Y89031D01*
X120316Y88166D01*
X120887Y87422D01*
X121630Y86852D01*
X122496Y86493D01*
X123425Y86371D01*
X124354Y86493D01*
X125220Y86852D01*
X125963Y87422D01*
X126534Y88166D01*
X126893Y89031D01*
X127015Y89961D01*
X126893Y90890D01*
X126534Y91755D01*
X125963Y92499D01*
X125220Y93069D01*
X124354Y93428D01*
X123425Y93550D01*
D02*
G37*
G36*
X170669Y93550D02*
X169740Y93428D01*
X168874Y93069D01*
X168131Y92499D01*
X167561Y91755D01*
X167202Y90890D01*
X167079Y89961D01*
X167202Y89031D01*
X167561Y88166D01*
X168131Y87422D01*
X168874Y86852D01*
X169740Y86493D01*
X170669Y86371D01*
X171598Y86493D01*
X172464Y86852D01*
X173208Y87422D01*
X173778Y88166D01*
X174137Y89031D01*
X174259Y89961D01*
X174137Y90890D01*
X173778Y91755D01*
X173208Y92499D01*
X172464Y93069D01*
X171598Y93428D01*
X170669Y93550D01*
D02*
G37*
G36*
X226378Y97330D02*
X225140Y97208D01*
X223950Y96847D01*
X222853Y96260D01*
X221891Y95471D01*
X221102Y94510D01*
X220515Y93413D01*
X220154Y92222D01*
X220032Y90984D01*
X220154Y89746D01*
X220515Y88556D01*
X221102Y87459D01*
X221891Y86497D01*
X222853Y85708D01*
X223950Y85122D01*
X225140Y84761D01*
X226378Y84639D01*
X227616Y84761D01*
X228806Y85122D01*
X229903Y85708D01*
X230865Y86497D01*
X231654Y87459D01*
X232241Y88556D01*
X232601Y89746D01*
X232723Y90984D01*
X232601Y92222D01*
X232241Y93413D01*
X231654Y94510D01*
X230865Y95471D01*
X229903Y96260D01*
X228806Y96847D01*
X227616Y97208D01*
X226378Y97330D01*
D02*
G37*
G36*
X88583D02*
X87345Y97208D01*
X86154Y96847D01*
X85057Y96260D01*
X84096Y95471D01*
X83307Y94510D01*
X82720Y93413D01*
X82359Y92222D01*
X82237Y90984D01*
X82359Y89746D01*
X82720Y88556D01*
X83307Y87459D01*
X84096Y86497D01*
X85057Y85708D01*
X86154Y85122D01*
X87345Y84761D01*
X88583Y84639D01*
X89821Y84761D01*
X91011Y85122D01*
X92108Y85708D01*
X93070Y86497D01*
X93859Y87459D01*
X94445Y88556D01*
X94806Y89746D01*
X94928Y90984D01*
X94806Y92222D01*
X94445Y93413D01*
X93859Y94510D01*
X93070Y95471D01*
X92108Y96260D01*
X91011Y96847D01*
X89821Y97208D01*
X88583Y97330D01*
D02*
G37*
G36*
X295827Y114223D02*
X294795Y114087D01*
X293833Y113689D01*
X293008Y113055D01*
X292374Y112230D01*
X291976Y111268D01*
X291840Y110236D01*
X291976Y109204D01*
X292374Y108243D01*
X293008Y107417D01*
X293833Y106783D01*
X294795Y106385D01*
X294983Y106360D01*
Y86359D01*
X294811Y86324D01*
X294083Y85838D01*
X293597Y85110D01*
X293426Y84252D01*
X293597Y83394D01*
X294083Y82666D01*
X294811Y82180D01*
X295669Y82009D01*
X296528Y82180D01*
X297255Y82666D01*
X297742Y83394D01*
X297912Y84252D01*
X297742Y85110D01*
X297255Y85838D01*
X296528Y86324D01*
X296513Y86327D01*
Y106340D01*
X296859Y106385D01*
X297820Y106783D01*
X298646Y107417D01*
X299279Y108243D01*
X299678Y109204D01*
X299814Y110236D01*
X299678Y111268D01*
X299279Y112230D01*
X298646Y113055D01*
X297820Y113689D01*
X296859Y114087D01*
X295827Y114223D01*
D02*
G37*
G36*
X190354Y85676D02*
X189425Y85554D01*
X188559Y85195D01*
X187816Y84625D01*
X187246Y83881D01*
X186887Y83016D01*
X186765Y82087D01*
X186887Y81157D01*
X187246Y80292D01*
X187816Y79548D01*
X188559Y78978D01*
X189425Y78619D01*
X190354Y78497D01*
X191283Y78619D01*
X192149Y78978D01*
X192893Y79548D01*
X193463Y80292D01*
X193822Y81157D01*
X193944Y82087D01*
X193822Y83016D01*
X193463Y83881D01*
X192893Y84625D01*
X192149Y85195D01*
X191283Y85554D01*
X190354Y85676D01*
D02*
G37*
G36*
X174606D02*
X173677Y85554D01*
X172811Y85195D01*
X172068Y84625D01*
X171497Y83881D01*
X171139Y83016D01*
X171017Y82087D01*
X171139Y81157D01*
X171497Y80292D01*
X172068Y79548D01*
X172811Y78978D01*
X173677Y78619D01*
X174606Y78497D01*
X175535Y78619D01*
X176401Y78978D01*
X177145Y79548D01*
X177715Y80292D01*
X178074Y81157D01*
X178196Y82087D01*
X178074Y83016D01*
X177715Y83881D01*
X177145Y84625D01*
X176401Y85195D01*
X175535Y85554D01*
X174606Y85676D01*
D02*
G37*
G36*
X119488Y85676D02*
X118559Y85554D01*
X117693Y85195D01*
X116950Y84625D01*
X116379Y83881D01*
X116021Y83016D01*
X115898Y82087D01*
X116021Y81157D01*
X116379Y80292D01*
X116950Y79548D01*
X117693Y78978D01*
X118559Y78619D01*
X119488Y78497D01*
X120417Y78619D01*
X121283Y78978D01*
X122027Y79548D01*
X122597Y80292D01*
X122956Y81157D01*
X123078Y82087D01*
X122956Y83016D01*
X122597Y83881D01*
X122027Y84625D01*
X121283Y85195D01*
X120417Y85554D01*
X119488Y85676D01*
D02*
G37*
G36*
X201378Y82939D02*
X199884Y82742D01*
X198491Y82166D01*
X197295Y81248D01*
X196378Y80052D01*
X195801Y78660D01*
X195604Y77165D01*
X195801Y75671D01*
X196378Y74278D01*
X197295Y73083D01*
X198491Y72165D01*
X199884Y71588D01*
X201378Y71391D01*
X202872Y71588D01*
X204265Y72165D01*
X205461Y73083D01*
X206378Y74278D01*
X206955Y75671D01*
X207152Y77165D01*
X206955Y78660D01*
X206378Y80052D01*
X205461Y81248D01*
X204265Y82166D01*
X202872Y82742D01*
X201378Y82939D01*
D02*
G37*
G36*
X182480Y75834D02*
X181551Y75712D01*
X180685Y75353D01*
X179942Y74782D01*
X179372Y74039D01*
X179013Y73173D01*
X178891Y72244D01*
X179013Y71315D01*
X179372Y70449D01*
X179942Y69706D01*
X180685Y69135D01*
X181551Y68777D01*
X182480Y68654D01*
X183409Y68777D01*
X184275Y69135D01*
X185019Y69706D01*
X185589Y70449D01*
X185948Y71315D01*
X186070Y72244D01*
X185948Y73173D01*
X185589Y74039D01*
X185019Y74782D01*
X184275Y75353D01*
X183409Y75712D01*
X182480Y75834D01*
D02*
G37*
G36*
X127362D02*
X126433Y75712D01*
X125567Y75353D01*
X124824Y74782D01*
X124253Y74039D01*
X123895Y73173D01*
X123773Y72244D01*
X123895Y71315D01*
X124253Y70449D01*
X124824Y69706D01*
X125567Y69135D01*
X126433Y68777D01*
X127362Y68654D01*
X128291Y68777D01*
X129157Y69135D01*
X129901Y69706D01*
X130471Y70449D01*
X130830Y71315D01*
X130952Y72244D01*
X130830Y73173D01*
X130471Y74039D01*
X129901Y74782D01*
X129157Y75353D01*
X128291Y75712D01*
X127362Y75834D01*
D02*
G37*
G36*
X119488D02*
X118559Y75712D01*
X117693Y75353D01*
X116950Y74782D01*
X116379Y74039D01*
X116021Y73173D01*
X115898Y72244D01*
X116021Y71315D01*
X116379Y70449D01*
X116950Y69706D01*
X117693Y69135D01*
X118559Y68777D01*
X119488Y68654D01*
X120417Y68777D01*
X121283Y69135D01*
X122027Y69706D01*
X122597Y70449D01*
X122956Y71315D01*
X123078Y72244D01*
X122956Y73173D01*
X122597Y74039D01*
X122027Y74782D01*
X121283Y75353D01*
X120417Y75712D01*
X119488Y75834D01*
D02*
G37*
G36*
X190354Y75834D02*
X189425Y75712D01*
X188559Y75353D01*
X187816Y74782D01*
X187246Y74039D01*
X186887Y73173D01*
X186765Y72244D01*
X186887Y71315D01*
X187246Y70449D01*
X187816Y69706D01*
X188559Y69135D01*
X189425Y68777D01*
X190354Y68654D01*
X191283Y68777D01*
X192149Y69135D01*
X192893Y69706D01*
X193463Y70449D01*
X193822Y71315D01*
X193944Y72244D01*
X193822Y73173D01*
X193463Y74039D01*
X192893Y74782D01*
X192149Y75353D01*
X191283Y75712D01*
X190354Y75834D01*
D02*
G37*
G36*
X150984D02*
X150055Y75712D01*
X149189Y75353D01*
X148446Y74782D01*
X147875Y74039D01*
X147517Y73173D01*
X147395Y72244D01*
X147517Y71315D01*
X147875Y70449D01*
X148446Y69706D01*
X149189Y69135D01*
X150055Y68777D01*
X150984Y68654D01*
X151913Y68777D01*
X152779Y69135D01*
X153523Y69706D01*
X154093Y70449D01*
X154452Y71315D01*
X154574Y72244D01*
X154452Y73173D01*
X154093Y74039D01*
X153523Y74782D01*
X152779Y75353D01*
X151913Y75712D01*
X150984Y75834D01*
D02*
G37*
G36*
X170669Y67960D02*
X169740Y67838D01*
X168874Y67479D01*
X168131Y66908D01*
X167561Y66165D01*
X167202Y65299D01*
X167079Y64370D01*
X167202Y63441D01*
X167561Y62575D01*
X168131Y61832D01*
X168874Y61261D01*
X169740Y60903D01*
X170669Y60780D01*
X171598Y60903D01*
X172464Y61261D01*
X173208Y61832D01*
X173778Y62575D01*
X174137Y63441D01*
X174259Y64370D01*
X174137Y65299D01*
X173778Y66165D01*
X173208Y66908D01*
X172464Y67479D01*
X171598Y67838D01*
X170669Y67960D01*
D02*
G37*
G36*
X154921D02*
X153992Y67838D01*
X153126Y67479D01*
X152383Y66908D01*
X151812Y66165D01*
X151454Y65299D01*
X151331Y64370D01*
X151454Y63441D01*
X151812Y62575D01*
X152383Y61832D01*
X153126Y61261D01*
X153992Y60903D01*
X154921Y60780D01*
X155850Y60903D01*
X156716Y61261D01*
X157460Y61832D01*
X158030Y62575D01*
X158389Y63441D01*
X158511Y64370D01*
X158389Y65299D01*
X158030Y66165D01*
X157460Y66908D01*
X156716Y67479D01*
X155850Y67838D01*
X154921Y67960D01*
D02*
G37*
G36*
X178543Y67960D02*
X177614Y67838D01*
X176748Y67479D01*
X176005Y66908D01*
X175435Y66165D01*
X175076Y65299D01*
X174953Y64370D01*
X175076Y63441D01*
X175435Y62575D01*
X176005Y61832D01*
X176748Y61261D01*
X177614Y60903D01*
X178543Y60780D01*
X179472Y60903D01*
X180338Y61261D01*
X181082Y61832D01*
X181652Y62575D01*
X182011Y63441D01*
X182133Y64370D01*
X182011Y65299D01*
X181652Y66165D01*
X181082Y66908D01*
X180338Y67479D01*
X179472Y67838D01*
X178543Y67960D01*
D02*
G37*
G36*
X147047D02*
X146118Y67838D01*
X145252Y67479D01*
X144509Y66908D01*
X143938Y66165D01*
X143580Y65299D01*
X143457Y64370D01*
X143580Y63441D01*
X143938Y62575D01*
X144509Y61832D01*
X145252Y61261D01*
X146118Y60903D01*
X147047Y60780D01*
X147976Y60903D01*
X148842Y61261D01*
X149586Y61832D01*
X150156Y62575D01*
X150515Y63441D01*
X150637Y64370D01*
X150515Y65299D01*
X150156Y66165D01*
X149586Y66908D01*
X148842Y67479D01*
X147976Y67838D01*
X147047Y67960D01*
D02*
G37*
G36*
X123425D02*
X122496Y67838D01*
X121630Y67479D01*
X120887Y66908D01*
X120316Y66165D01*
X119958Y65299D01*
X119835Y64370D01*
X119958Y63441D01*
X120316Y62575D01*
X120887Y61832D01*
X121630Y61261D01*
X122496Y60903D01*
X123425Y60780D01*
X124354Y60903D01*
X125220Y61261D01*
X125963Y61832D01*
X126534Y62575D01*
X126893Y63441D01*
X127015Y64370D01*
X126893Y65299D01*
X126534Y66165D01*
X125963Y66908D01*
X125220Y67479D01*
X124354Y67838D01*
X123425Y67960D01*
D02*
G37*
G36*
X226378Y69338D02*
X225140Y69216D01*
X223950Y68855D01*
X222853Y68268D01*
X221891Y67479D01*
X221102Y66518D01*
X220515Y65421D01*
X220154Y64230D01*
X220032Y62992D01*
X220154Y61754D01*
X220515Y60564D01*
X221102Y59467D01*
X221891Y58505D01*
X222853Y57716D01*
X223950Y57130D01*
X225140Y56769D01*
X226378Y56647D01*
X227616Y56769D01*
X228806Y57130D01*
X229903Y57716D01*
X230865Y58505D01*
X231654Y59467D01*
X232241Y60564D01*
X232601Y61754D01*
X232723Y62992D01*
X232601Y64230D01*
X232241Y65421D01*
X231654Y66518D01*
X230865Y67479D01*
X229903Y68268D01*
X228806Y68855D01*
X227616Y69216D01*
X226378Y69338D01*
D02*
G37*
G36*
X88583D02*
X87345Y69216D01*
X86154Y68855D01*
X85057Y68268D01*
X84096Y67479D01*
X83307Y66518D01*
X82720Y65421D01*
X82359Y64230D01*
X82237Y62992D01*
X82359Y61754D01*
X82720Y60564D01*
X83307Y59467D01*
X84096Y58505D01*
X85057Y57716D01*
X86154Y57130D01*
X87345Y56769D01*
X88583Y56647D01*
X89821Y56769D01*
X91011Y57130D01*
X92108Y57716D01*
X93070Y58505D01*
X93859Y59467D01*
X94445Y60564D01*
X94806Y61754D01*
X94928Y62992D01*
X94806Y64230D01*
X94445Y65421D01*
X93859Y66518D01*
X93070Y67479D01*
X92108Y68268D01*
X91011Y68855D01*
X89821Y69216D01*
X88583Y69338D01*
D02*
G37*
G36*
X186417Y41976D02*
X185488Y41853D01*
X184622Y41495D01*
X183879Y40924D01*
X183308Y40181D01*
X182950Y39315D01*
X182828Y38386D01*
X182950Y37457D01*
X183308Y36591D01*
X183879Y35847D01*
X184622Y35277D01*
X185488Y34918D01*
X186417Y34796D01*
X187346Y34918D01*
X188212Y35277D01*
X188956Y35847D01*
X189526Y36591D01*
X189885Y37457D01*
X190007Y38386D01*
X189885Y39315D01*
X189526Y40181D01*
X188956Y40924D01*
X188212Y41495D01*
X187346Y41853D01*
X186417Y41976D01*
D02*
G37*
G36*
X178543D02*
X177614Y41853D01*
X176748Y41495D01*
X176005Y40924D01*
X175435Y40181D01*
X175076Y39315D01*
X174953Y38386D01*
X175076Y37457D01*
X175435Y36591D01*
X176005Y35847D01*
X176748Y35277D01*
X177614Y34918D01*
X178543Y34796D01*
X179472Y34918D01*
X180338Y35277D01*
X181082Y35847D01*
X181652Y36591D01*
X182011Y37457D01*
X182133Y38386D01*
X182011Y39315D01*
X181652Y40181D01*
X181082Y40924D01*
X180338Y41495D01*
X179472Y41853D01*
X178543Y41976D01*
D02*
G37*
G36*
X147047D02*
X146118Y41853D01*
X145252Y41495D01*
X144509Y40924D01*
X143938Y40181D01*
X143580Y39315D01*
X143457Y38386D01*
X143580Y37457D01*
X143938Y36591D01*
X144509Y35847D01*
X145252Y35277D01*
X146118Y34918D01*
X147047Y34796D01*
X147976Y34918D01*
X148842Y35277D01*
X149586Y35847D01*
X150156Y36591D01*
X150515Y37457D01*
X150637Y38386D01*
X150515Y39315D01*
X150156Y40181D01*
X149586Y40924D01*
X148842Y41495D01*
X147976Y41853D01*
X147047Y41976D01*
D02*
G37*
G36*
X139173D02*
X138244Y41853D01*
X137378Y41495D01*
X136635Y40924D01*
X136064Y40181D01*
X135706Y39315D01*
X135583Y38386D01*
X135706Y37457D01*
X136064Y36591D01*
X136635Y35847D01*
X137378Y35277D01*
X138244Y34918D01*
X139173Y34796D01*
X140102Y34918D01*
X140968Y35277D01*
X141712Y35847D01*
X142282Y36591D01*
X142641Y37457D01*
X142763Y38386D01*
X142641Y39315D01*
X142282Y40181D01*
X141712Y40924D01*
X140968Y41495D01*
X140102Y41853D01*
X139173Y41976D01*
D02*
G37*
G36*
X123425D02*
X122496Y41853D01*
X121630Y41495D01*
X120887Y40924D01*
X120316Y40181D01*
X119958Y39315D01*
X119835Y38386D01*
X119958Y37457D01*
X120316Y36591D01*
X120887Y35847D01*
X121630Y35277D01*
X122496Y34918D01*
X123425Y34796D01*
X124354Y34918D01*
X125220Y35277D01*
X125963Y35847D01*
X126534Y36591D01*
X126893Y37457D01*
X127015Y38386D01*
X126893Y39315D01*
X126534Y40181D01*
X125963Y40924D01*
X125220Y41495D01*
X124354Y41853D01*
X123425Y41976D01*
D02*
G37*
G36*
X170669Y41976D02*
X169740Y41853D01*
X168874Y41495D01*
X168131Y40924D01*
X167561Y40181D01*
X167202Y39315D01*
X167079Y38386D01*
X167202Y37457D01*
X167561Y36591D01*
X168131Y35847D01*
X168874Y35277D01*
X169740Y34918D01*
X170669Y34796D01*
X171598Y34918D01*
X172464Y35277D01*
X173208Y35847D01*
X173778Y36591D01*
X174137Y37457D01*
X174259Y38386D01*
X174137Y39315D01*
X173778Y40181D01*
X173208Y40924D01*
X172464Y41495D01*
X171598Y41853D01*
X170669Y41976D01*
D02*
G37*
G36*
X154921D02*
X153992Y41853D01*
X153126Y41495D01*
X152383Y40924D01*
X151812Y40181D01*
X151454Y39315D01*
X151331Y38386D01*
X151454Y37457D01*
X151812Y36591D01*
X152383Y35847D01*
X153126Y35277D01*
X153992Y34918D01*
X154921Y34796D01*
X155850Y34918D01*
X156716Y35277D01*
X157460Y35847D01*
X158030Y36591D01*
X158389Y37457D01*
X158511Y38386D01*
X158389Y39315D01*
X158030Y40181D01*
X157460Y40924D01*
X156716Y41495D01*
X155850Y41853D01*
X154921Y41976D01*
D02*
G37*
G36*
X226378Y45361D02*
X225140Y45239D01*
X223950Y44878D01*
X222853Y44292D01*
X221891Y43503D01*
X221102Y42541D01*
X220515Y41444D01*
X220154Y40254D01*
X220032Y39016D01*
X220154Y37778D01*
X220515Y36587D01*
X221102Y35490D01*
X221891Y34529D01*
X222853Y33740D01*
X223950Y33153D01*
X225140Y32792D01*
X226378Y32670D01*
X227616Y32792D01*
X228806Y33153D01*
X229903Y33740D01*
X230865Y34529D01*
X231654Y35490D01*
X232241Y36587D01*
X232601Y37778D01*
X232723Y39016D01*
X232601Y40254D01*
X232241Y41444D01*
X231654Y42541D01*
X230865Y43503D01*
X229903Y44292D01*
X228806Y44878D01*
X227616Y45239D01*
X226378Y45361D01*
D02*
G37*
G36*
X88583D02*
X87345Y45239D01*
X86154Y44878D01*
X85057Y44292D01*
X84096Y43503D01*
X83307Y42541D01*
X82720Y41444D01*
X82359Y40254D01*
X82237Y39016D01*
X82359Y37778D01*
X82720Y36587D01*
X83307Y35490D01*
X84096Y34529D01*
X85057Y33740D01*
X86154Y33153D01*
X87345Y32792D01*
X88583Y32670D01*
X89821Y32792D01*
X91011Y33153D01*
X92108Y33740D01*
X93070Y34529D01*
X93859Y35490D01*
X94445Y36587D01*
X94806Y37778D01*
X94928Y39016D01*
X94806Y40254D01*
X94445Y41444D01*
X93859Y42541D01*
X93070Y43503D01*
X92108Y44292D01*
X91011Y44878D01*
X89821Y45239D01*
X88583Y45361D01*
D02*
G37*
G36*
X190354Y34102D02*
X189425Y33979D01*
X188559Y33621D01*
X187816Y33050D01*
X187246Y32307D01*
X186887Y31441D01*
X186765Y30512D01*
X186887Y29583D01*
X187246Y28717D01*
X187816Y27973D01*
X188559Y27403D01*
X189425Y27044D01*
X190354Y26922D01*
X191283Y27044D01*
X192149Y27403D01*
X192893Y27973D01*
X193463Y28717D01*
X193822Y29583D01*
X193944Y30512D01*
X193822Y31441D01*
X193463Y32307D01*
X192893Y33050D01*
X192149Y33621D01*
X191283Y33979D01*
X190354Y34102D01*
D02*
G37*
G36*
X174606D02*
X173677Y33979D01*
X172811Y33621D01*
X172068Y33050D01*
X171497Y32307D01*
X171139Y31441D01*
X171017Y30512D01*
X171139Y29583D01*
X171497Y28717D01*
X172068Y27973D01*
X172811Y27403D01*
X173677Y27044D01*
X174606Y26922D01*
X175535Y27044D01*
X176401Y27403D01*
X177145Y27973D01*
X177715Y28717D01*
X178074Y29583D01*
X178196Y30512D01*
X178074Y31441D01*
X177715Y32307D01*
X177145Y33050D01*
X176401Y33621D01*
X175535Y33979D01*
X174606Y34102D01*
D02*
G37*
G36*
X150984D02*
X150055Y33979D01*
X149189Y33621D01*
X148446Y33050D01*
X147875Y32307D01*
X147517Y31441D01*
X147395Y30512D01*
X147517Y29583D01*
X147875Y28717D01*
X148446Y27973D01*
X149189Y27403D01*
X150055Y27044D01*
X150984Y26922D01*
X151913Y27044D01*
X152779Y27403D01*
X153523Y27973D01*
X154093Y28717D01*
X154452Y29583D01*
X154574Y30512D01*
X154452Y31441D01*
X154093Y32307D01*
X153523Y33050D01*
X152779Y33621D01*
X151913Y33979D01*
X150984Y34102D01*
D02*
G37*
G36*
X135236D02*
X134307Y33979D01*
X133441Y33621D01*
X132698Y33050D01*
X132127Y32307D01*
X131769Y31441D01*
X131647Y30512D01*
X131769Y29583D01*
X132127Y28717D01*
X132698Y27973D01*
X133441Y27403D01*
X134307Y27044D01*
X135236Y26922D01*
X136165Y27044D01*
X137031Y27403D01*
X137775Y27973D01*
X138345Y28717D01*
X138704Y29583D01*
X138826Y30512D01*
X138704Y31441D01*
X138345Y32307D01*
X137775Y33050D01*
X137031Y33621D01*
X136165Y33979D01*
X135236Y34102D01*
D02*
G37*
G36*
X143110Y34102D02*
X142181Y33979D01*
X141315Y33621D01*
X140572Y33050D01*
X140001Y32307D01*
X139643Y31441D01*
X139521Y30512D01*
X139643Y29583D01*
X140001Y28717D01*
X140572Y27973D01*
X141315Y27403D01*
X142181Y27044D01*
X143110Y26922D01*
X144039Y27044D01*
X144905Y27403D01*
X145649Y27973D01*
X146219Y28717D01*
X146578Y29583D01*
X146700Y30512D01*
X146578Y31441D01*
X146219Y32307D01*
X145649Y33050D01*
X144905Y33621D01*
X144039Y33979D01*
X143110Y34102D01*
D02*
G37*
G36*
X127362D02*
X126433Y33979D01*
X125567Y33621D01*
X124824Y33050D01*
X124253Y32307D01*
X123895Y31441D01*
X123773Y30512D01*
X123895Y29583D01*
X124253Y28717D01*
X124824Y27973D01*
X125567Y27403D01*
X126433Y27044D01*
X127362Y26922D01*
X128291Y27044D01*
X129157Y27403D01*
X129901Y27973D01*
X130471Y28717D01*
X130830Y29583D01*
X130952Y30512D01*
X130830Y31441D01*
X130471Y32307D01*
X129901Y33050D01*
X129157Y33621D01*
X128291Y33979D01*
X127362Y34102D01*
D02*
G37*
G36*
X119488D02*
X118559Y33979D01*
X117693Y33621D01*
X116950Y33050D01*
X116379Y32307D01*
X116021Y31441D01*
X115898Y30512D01*
X116021Y29583D01*
X116379Y28717D01*
X116950Y27973D01*
X117693Y27403D01*
X118559Y27044D01*
X119488Y26922D01*
X120417Y27044D01*
X121283Y27403D01*
X122027Y27973D01*
X122597Y28717D01*
X122956Y29583D01*
X123078Y30512D01*
X122956Y31441D01*
X122597Y32307D01*
X122027Y33050D01*
X121283Y33621D01*
X120417Y33979D01*
X119488Y34102D01*
D02*
G37*
G36*
X158858D02*
X157929Y33979D01*
X157063Y33621D01*
X156320Y33050D01*
X155749Y32307D01*
X155391Y31441D01*
X155269Y30512D01*
X155391Y29583D01*
X155749Y28717D01*
X156320Y27973D01*
X157063Y27403D01*
X157929Y27044D01*
X158858Y26922D01*
X159364Y26989D01*
X159718Y26635D01*
X159581Y25591D01*
X159718Y24546D01*
X159364Y24192D01*
X158858Y24259D01*
X157929Y24137D01*
X157063Y23778D01*
X156320Y23208D01*
X155749Y22464D01*
X155391Y21598D01*
X155269Y20669D01*
X155391Y19740D01*
X155749Y18874D01*
X156320Y18131D01*
X157063Y17560D01*
X157929Y17202D01*
X158858Y17079D01*
X159787Y17202D01*
X160653Y17560D01*
X161397Y18131D01*
X161967Y18874D01*
X162326Y19740D01*
X162372Y20089D01*
X162917Y20404D01*
X163860Y20013D01*
X165354Y19817D01*
X166849Y20013D01*
X168241Y20590D01*
X169437Y21508D01*
X170355Y22704D01*
X170931Y24096D01*
X171128Y25591D01*
X170931Y27085D01*
X170355Y28477D01*
X169437Y29673D01*
X168241Y30591D01*
X166849Y31168D01*
X165354Y31364D01*
X163860Y31168D01*
X162917Y30777D01*
X162372Y31092D01*
X162326Y31441D01*
X161967Y32307D01*
X161397Y33050D01*
X160653Y33621D01*
X159787Y33979D01*
X158858Y34102D01*
D02*
G37*
G36*
X201378Y31364D02*
X199884Y31168D01*
X198491Y30591D01*
X197295Y29673D01*
X196378Y28477D01*
X195801Y27085D01*
X195604Y25591D01*
X195801Y24096D01*
X196378Y22704D01*
X197295Y21508D01*
X198491Y20590D01*
X199884Y20013D01*
X201378Y19817D01*
X202872Y20013D01*
X204265Y20590D01*
X205461Y21508D01*
X206378Y22704D01*
X206955Y24096D01*
X207152Y25591D01*
X206955Y27085D01*
X206378Y28477D01*
X205461Y29673D01*
X204265Y30591D01*
X202872Y31168D01*
X201378Y31364D01*
D02*
G37*
G36*
X182480Y24259D02*
X181551Y24137D01*
X180685Y23778D01*
X179942Y23208D01*
X179372Y22464D01*
X179013Y21598D01*
X178891Y20669D01*
X179013Y19740D01*
X179372Y18874D01*
X179942Y18131D01*
X180685Y17560D01*
X181551Y17202D01*
X182480Y17079D01*
X183409Y17202D01*
X184275Y17560D01*
X185019Y18131D01*
X185589Y18874D01*
X185948Y19740D01*
X186070Y20669D01*
X185948Y21598D01*
X185589Y22464D01*
X185019Y23208D01*
X184275Y23778D01*
X183409Y24137D01*
X182480Y24259D01*
D02*
G37*
G36*
X127362D02*
X126433Y24137D01*
X125567Y23778D01*
X124824Y23208D01*
X124253Y22464D01*
X123895Y21598D01*
X123773Y20669D01*
X123895Y19740D01*
X124253Y18874D01*
X124824Y18131D01*
X125567Y17560D01*
X126433Y17202D01*
X127362Y17079D01*
X128291Y17202D01*
X129157Y17560D01*
X129901Y18131D01*
X130471Y18874D01*
X130830Y19740D01*
X130952Y20669D01*
X130830Y21598D01*
X130471Y22464D01*
X129901Y23208D01*
X129157Y23778D01*
X128291Y24137D01*
X127362Y24259D01*
D02*
G37*
G36*
X119488D02*
X118559Y24137D01*
X117693Y23778D01*
X116950Y23208D01*
X116379Y22464D01*
X116021Y21598D01*
X115898Y20669D01*
X116021Y19740D01*
X116379Y18874D01*
X116950Y18131D01*
X117693Y17560D01*
X118559Y17202D01*
X119488Y17079D01*
X120417Y17202D01*
X121283Y17560D01*
X122027Y18131D01*
X122597Y18874D01*
X122956Y19740D01*
X123078Y20669D01*
X122956Y21598D01*
X122597Y22464D01*
X122027Y23208D01*
X121283Y23778D01*
X120417Y24137D01*
X119488Y24259D01*
D02*
G37*
G36*
X190354Y24259D02*
X189425Y24137D01*
X188559Y23778D01*
X187816Y23208D01*
X187246Y22464D01*
X186887Y21598D01*
X186765Y20669D01*
X186887Y19740D01*
X187246Y18874D01*
X187816Y18131D01*
X188559Y17560D01*
X189425Y17202D01*
X190354Y17079D01*
X191283Y17202D01*
X192149Y17560D01*
X192893Y18131D01*
X193463Y18874D01*
X193822Y19740D01*
X193944Y20669D01*
X193822Y21598D01*
X193463Y22464D01*
X192893Y23208D01*
X192149Y23778D01*
X191283Y24137D01*
X190354Y24259D01*
D02*
G37*
G36*
X150984D02*
X150055Y24137D01*
X149189Y23778D01*
X148446Y23208D01*
X147875Y22464D01*
X147517Y21598D01*
X147395Y20669D01*
X147517Y19740D01*
X147875Y18874D01*
X148446Y18131D01*
X149189Y17560D01*
X150055Y17202D01*
X150984Y17079D01*
X151913Y17202D01*
X152779Y17560D01*
X153523Y18131D01*
X154093Y18874D01*
X154452Y19740D01*
X154574Y20669D01*
X154452Y21598D01*
X154093Y22464D01*
X153523Y23208D01*
X152779Y23778D01*
X151913Y24137D01*
X150984Y24259D01*
D02*
G37*
G36*
X135236D02*
X134307Y24137D01*
X133441Y23778D01*
X132698Y23208D01*
X132127Y22464D01*
X131769Y21598D01*
X131647Y20669D01*
X131769Y19740D01*
X132127Y18874D01*
X132698Y18131D01*
X133441Y17560D01*
X134307Y17202D01*
X135236Y17079D01*
X136165Y17202D01*
X137031Y17560D01*
X137775Y18131D01*
X138345Y18874D01*
X138704Y19740D01*
X138826Y20669D01*
X138704Y21598D01*
X138345Y22464D01*
X137775Y23208D01*
X137031Y23778D01*
X136165Y24137D01*
X135236Y24259D01*
D02*
G37*
G36*
X170669Y16385D02*
X169740Y16263D01*
X168874Y15904D01*
X168131Y15334D01*
X167561Y14590D01*
X167202Y13724D01*
X167079Y12795D01*
X167202Y11866D01*
X167561Y11000D01*
X168131Y10257D01*
X168874Y9686D01*
X169740Y9328D01*
X170669Y9206D01*
X171598Y9328D01*
X172464Y9686D01*
X173208Y10257D01*
X173778Y11000D01*
X174137Y11866D01*
X174259Y12795D01*
X174137Y13724D01*
X173778Y14590D01*
X173208Y15334D01*
X172464Y15904D01*
X171598Y16263D01*
X170669Y16385D01*
D02*
G37*
G36*
X154921D02*
X153992Y16263D01*
X153126Y15904D01*
X152383Y15334D01*
X151812Y14590D01*
X151454Y13724D01*
X151331Y12795D01*
X151454Y11866D01*
X151812Y11000D01*
X152383Y10257D01*
X153126Y9686D01*
X153992Y9328D01*
X154921Y9206D01*
X155850Y9328D01*
X156716Y9686D01*
X157460Y10257D01*
X158030Y11000D01*
X158389Y11866D01*
X158511Y12795D01*
X158389Y13724D01*
X158030Y14590D01*
X157460Y15334D01*
X156716Y15904D01*
X155850Y16263D01*
X154921Y16385D01*
D02*
G37*
G36*
X178543Y16385D02*
X177614Y16263D01*
X176748Y15904D01*
X176005Y15334D01*
X175435Y14590D01*
X175076Y13724D01*
X174953Y12795D01*
X175076Y11866D01*
X175435Y11000D01*
X176005Y10257D01*
X176748Y9686D01*
X177614Y9328D01*
X178543Y9206D01*
X179472Y9328D01*
X180338Y9686D01*
X181082Y10257D01*
X181652Y11000D01*
X182011Y11866D01*
X182133Y12795D01*
X182011Y13724D01*
X181652Y14590D01*
X181082Y15334D01*
X180338Y15904D01*
X179472Y16263D01*
X178543Y16385D01*
D02*
G37*
G36*
X147047D02*
X146118Y16263D01*
X145252Y15904D01*
X144509Y15334D01*
X143938Y14590D01*
X143580Y13724D01*
X143457Y12795D01*
X143580Y11866D01*
X143938Y11000D01*
X144509Y10257D01*
X145252Y9686D01*
X146118Y9328D01*
X147047Y9206D01*
X147976Y9328D01*
X148842Y9686D01*
X149586Y10257D01*
X150156Y11000D01*
X150515Y11866D01*
X150637Y12795D01*
X150515Y13724D01*
X150156Y14590D01*
X149586Y15334D01*
X148842Y15904D01*
X147976Y16263D01*
X147047Y16385D01*
D02*
G37*
G36*
X139173D02*
X138244Y16263D01*
X137378Y15904D01*
X136635Y15334D01*
X136064Y14590D01*
X135706Y13724D01*
X135583Y12795D01*
X135706Y11866D01*
X136064Y11000D01*
X136635Y10257D01*
X137378Y9686D01*
X138244Y9328D01*
X139173Y9206D01*
X140102Y9328D01*
X140968Y9686D01*
X141712Y10257D01*
X142282Y11000D01*
X142641Y11866D01*
X142763Y12795D01*
X142641Y13724D01*
X142282Y14590D01*
X141712Y15334D01*
X140968Y15904D01*
X140102Y16263D01*
X139173Y16385D01*
D02*
G37*
G36*
X123425D02*
X122496Y16263D01*
X121630Y15904D01*
X120887Y15334D01*
X120316Y14590D01*
X119958Y13724D01*
X119835Y12795D01*
X119958Y11866D01*
X120316Y11000D01*
X120887Y10257D01*
X121630Y9686D01*
X122496Y9328D01*
X123425Y9206D01*
X124354Y9328D01*
X125220Y9686D01*
X125963Y10257D01*
X126534Y11000D01*
X126893Y11866D01*
X127015Y12795D01*
X126893Y13724D01*
X126534Y14590D01*
X125963Y15334D01*
X125220Y15904D01*
X124354Y16263D01*
X123425Y16385D01*
D02*
G37*
G36*
X226378Y17369D02*
X225140Y17247D01*
X223950Y16886D01*
X222853Y16300D01*
X221891Y15511D01*
X221102Y14549D01*
X220515Y13452D01*
X220154Y12262D01*
X220032Y11024D01*
X220154Y9786D01*
X220515Y8595D01*
X221102Y7498D01*
X221891Y6537D01*
X222853Y5748D01*
X223950Y5161D01*
X225140Y4800D01*
X226378Y4678D01*
X227616Y4800D01*
X228806Y5161D01*
X229903Y5748D01*
X230865Y6537D01*
X231654Y7498D01*
X232241Y8595D01*
X232601Y9786D01*
X232723Y11024D01*
X232601Y12262D01*
X232241Y13452D01*
X231654Y14549D01*
X230865Y15511D01*
X229903Y16300D01*
X228806Y16886D01*
X227616Y17247D01*
X226378Y17369D01*
D02*
G37*
G36*
X88583D02*
X87345Y17247D01*
X86154Y16886D01*
X85057Y16300D01*
X84096Y15511D01*
X83307Y14549D01*
X82720Y13452D01*
X82359Y12262D01*
X82237Y11024D01*
X82359Y9786D01*
X82720Y8595D01*
X83307Y7498D01*
X84096Y6537D01*
X85057Y5748D01*
X86154Y5161D01*
X87345Y4800D01*
X88583Y4678D01*
X89821Y4800D01*
X91011Y5161D01*
X92108Y5748D01*
X93070Y6537D01*
X93859Y7498D01*
X94445Y8595D01*
X94806Y9786D01*
X94928Y11024D01*
X94806Y12262D01*
X94445Y13452D01*
X93859Y14549D01*
X93070Y15511D01*
X92108Y16300D01*
X91011Y16886D01*
X89821Y17247D01*
X88583Y17369D01*
D02*
G37*
%LPD*%
G36*
X136941Y136038D02*
X137575Y135212D01*
X138400Y134579D01*
X139362Y134180D01*
X140394Y134045D01*
X141426Y134180D01*
X142387Y134579D01*
X143213Y135212D01*
X143846Y136038D01*
X144011Y136435D01*
X144511Y136336D01*
Y133781D01*
X140010Y129281D01*
X139845Y129033D01*
X139787Y128740D01*
Y107087D01*
X139845Y106794D01*
X140010Y106546D01*
X142149Y104408D01*
Y92666D01*
X141649Y92547D01*
X140968Y93069D01*
X140102Y93428D01*
X139173Y93550D01*
X138244Y93428D01*
X137378Y93069D01*
X136698Y92547D01*
X136198Y92666D01*
Y103150D01*
X136140Y103442D01*
X135974Y103690D01*
X135974Y103690D01*
X131473Y108191D01*
Y129604D01*
X135974Y134105D01*
X135974Y134105D01*
X136140Y134353D01*
X136198Y134646D01*
Y136526D01*
X136698Y136625D01*
X136941Y136038D01*
D02*
G37*
D27*
X52756Y213090D02*
D03*
Y205807D02*
D03*
X12992Y212992D02*
D03*
Y205709D02*
D03*
D28*
X35433Y172638D02*
D03*
Y165354D02*
D03*
D30*
X191732Y253150D02*
X282677D01*
X100394Y205512D02*
Y273858D01*
Y205512D02*
X100787Y205118D01*
X282677Y253150D02*
X311417Y281890D01*
Y410079D01*
X302362Y419134D02*
X311417Y410079D01*
X302362Y419134D02*
Y429134D01*
X248031Y411024D02*
Y479528D01*
X240945Y379134D02*
X248031Y386221D01*
X227716Y379134D02*
X240945D01*
X279031Y430213D02*
Y479528D01*
X237953Y389134D02*
X279031Y430213D01*
X227716Y389134D02*
X237953D01*
D32*
X295748Y110158D02*
X295827Y110236D01*
X295748Y84331D02*
Y110158D01*
X295669Y84252D02*
X295748Y84331D01*
X145276Y245669D02*
Y251969D01*
Y133465D02*
Y245669D01*
X135433D02*
Y258819D01*
Y134646D02*
Y245669D01*
X140394Y273858D02*
X155118Y259134D01*
Y132677D02*
Y259134D01*
X151181Y128740D02*
X155118Y132677D01*
X151181Y106299D02*
Y128740D01*
Y106299D02*
X159055Y98425D01*
Y88189D02*
Y98425D01*
X154724Y83858D02*
X159055Y88189D01*
X154724Y76378D02*
Y83858D01*
Y76378D02*
X158858Y72244D01*
X120394Y283858D02*
X125591Y278661D01*
Y271654D02*
Y278661D01*
Y271654D02*
X145276Y251969D01*
X140551Y128740D02*
X145276Y133465D01*
X140551Y107087D02*
Y128740D01*
Y107087D02*
X142913Y104724D01*
Y87402D02*
Y104724D01*
X139173Y83661D02*
X142913Y87402D01*
X139173Y64370D02*
Y83661D01*
X120394Y273858D02*
X135433Y258819D01*
X130709Y129921D02*
X135433Y134646D01*
X130709Y107874D02*
Y129921D01*
Y107874D02*
X135433Y103150D01*
Y88189D02*
Y103150D01*
X131496Y84252D02*
X135433Y88189D01*
X131496Y75984D02*
Y84252D01*
Y75984D02*
X135236Y72244D01*
X120394Y138031D02*
X125591Y143228D01*
Y151181D01*
X114961Y161811D02*
X125591Y151181D01*
X98917Y161811D02*
X114961D01*
X62657Y198071D02*
X98917Y161811D01*
X107795Y160630D02*
X120394Y148031D01*
X60216Y160630D02*
X107795D01*
X22776Y198071D02*
X60216Y160630D01*
X12933Y205650D02*
X12992Y205709D01*
X12933Y198071D02*
Y205650D01*
X52756Y205807D02*
X52815Y205748D01*
Y198071D02*
Y205748D01*
X74964Y155905D02*
X102631D01*
X105894Y152643D01*
X58822Y139764D02*
X74964Y155905D01*
X102217Y154905D02*
X104894Y152229D01*
X75378Y154905D02*
X102217D01*
X59236Y138764D02*
X75378Y154905D01*
X105894Y148324D02*
Y152643D01*
X104894Y148324D02*
Y152229D01*
X101455Y143621D02*
X105894Y139182D01*
X101041Y142621D02*
X104894Y138768D01*
X71967Y143621D02*
X101455D01*
X71967Y142621D02*
X101041D01*
X71260Y141671D02*
Y141913D01*
Y144328D02*
Y144571D01*
Y144328D02*
X71967Y143621D01*
X71260Y141913D02*
X71967Y142621D01*
X104601Y138031D02*
X104894Y138324D01*
X100394Y138031D02*
X104601D01*
X105894Y138324D02*
Y139182D01*
X106187Y138031D02*
X110394D01*
X104894Y138324D02*
Y138768D01*
X105894Y138324D02*
X106187Y138031D01*
X38275Y138764D02*
X59236D01*
X35795Y142657D02*
Y146597D01*
X34502Y146890D02*
X34795Y146597D01*
Y142243D02*
X38275Y138764D01*
X38689Y139764D02*
X58822D01*
X36088Y146890D02*
X40295D01*
X35795Y142657D02*
X38689Y139764D01*
X30295Y146890D02*
X34502D01*
X34795Y142243D02*
Y146597D01*
X35795D02*
X36088Y146890D01*
X100394Y148031D02*
X104601D01*
X104894Y148324D01*
X106187Y148031D02*
X110394D01*
X105894Y148324D02*
X106187Y148031D01*
X252756Y278740D02*
X255118Y281102D01*
Y286847D01*
X261972Y293701D01*
X256118Y286433D02*
X262386Y292701D01*
X256118Y279583D02*
Y286433D01*
X250394Y273858D02*
X256118Y279583D01*
X272835Y279134D02*
X275590Y281890D01*
Y287795D02*
X291339Y303543D01*
X275590Y281890D02*
Y287795D01*
X265354Y281890D02*
Y285827D01*
X268504Y288976D02*
X273622D01*
X265354Y285827D02*
X268504Y288976D01*
X273622D02*
X290158Y305512D01*
X255512Y272047D02*
Y276378D01*
X257874Y278740D02*
X262205D01*
X255512Y276378D02*
X257874Y278740D01*
X262205D02*
X265354Y281890D01*
X252756Y269291D02*
X255512Y272047D01*
X244961Y269291D02*
X252756D01*
X240394Y273858D02*
X244961Y269291D01*
X281496Y358268D02*
X302362Y379134D01*
X281496Y301575D02*
Y358268D01*
X272622Y292701D02*
X281496Y301575D01*
X261184Y296457D02*
X270472Y305745D01*
Y377244D02*
X302362Y409134D01*
X270472Y305745D02*
Y377244D01*
X271654Y305512D02*
Y368425D01*
X302362Y399134D01*
X261417Y295276D02*
X271654Y305512D01*
X285433Y286614D02*
X300394Y301575D01*
X297244Y334646D02*
X300394Y331496D01*
Y301575D02*
Y331496D01*
X301575Y287008D02*
Y338347D01*
X302362Y339134D01*
X293701Y279134D02*
X301575Y287008D01*
X291339Y348110D02*
X302362Y359134D01*
X291339Y303543D02*
Y348110D01*
X290158Y305512D02*
Y356929D01*
X302362Y369134D01*
X235039Y296457D02*
X261184D01*
X225984Y287402D02*
X235039Y296457D01*
X225984Y282283D02*
Y287402D01*
X222835Y279134D02*
X225984Y282283D01*
X215669Y279134D02*
X222835D01*
X210394Y273858D02*
X215669Y279134D01*
X242913Y295276D02*
X261417D01*
X235236Y287598D02*
X242913Y295276D01*
X232283Y279134D02*
X235236Y282087D01*
Y287598D01*
X225669Y279134D02*
X232283D01*
X220394Y273858D02*
X225669Y279134D01*
X280496Y367268D02*
X302362Y389134D01*
X280496Y301989D02*
Y367268D01*
X272208Y293701D02*
X280496Y301989D01*
X261972Y293701D02*
X272208D01*
X262386Y292701D02*
X272622D01*
X235276Y278740D02*
X252756D01*
X230394Y273858D02*
X235276Y278740D01*
X265669Y279134D02*
X272835D01*
X260394Y273858D02*
X265669Y279134D01*
X297244Y344016D02*
X302362Y349134D01*
X297244Y334646D02*
Y344016D01*
X285433Y281496D02*
Y286614D01*
X282677Y278740D02*
X285433Y281496D01*
X275276Y278740D02*
X282677D01*
X270394Y273858D02*
X275276Y278740D01*
X285669Y279134D02*
X293701D01*
X280394Y273858D02*
X285669Y279134D01*
D33*
X35295Y156890D02*
X36036D01*
X45439Y147486D01*
X49699D01*
X50295Y146890D01*
X35364Y165285D02*
X35433Y165354D01*
X35364Y156959D02*
Y165285D01*
X35295Y156890D02*
X35364Y156959D01*
X7547Y159638D02*
X20295Y146890D01*
X7547Y159638D02*
Y165819D01*
X6791Y166575D02*
X7547Y165819D01*
D35*
X280394Y138031D02*
D03*
X270394D02*
D03*
X260394D02*
D03*
X250394Y138031D02*
D03*
X240394Y138031D02*
D03*
X230394D02*
D03*
X220394Y138031D02*
D03*
X210394D02*
D03*
X200394Y138031D02*
D03*
X190394D02*
D03*
X180394D02*
D03*
X170394D02*
D03*
X160394Y138031D02*
D03*
X150394Y138031D02*
D03*
X140394D02*
D03*
X130394Y138031D02*
D03*
X120394Y138031D02*
D03*
X110394D02*
D03*
X100394D02*
D03*
X290394Y148031D02*
D03*
X280394D02*
D03*
X270394D02*
D03*
X260394D02*
D03*
X250394D02*
D03*
X240394D02*
D03*
X230394D02*
D03*
X220394D02*
D03*
X210394D02*
D03*
X200394D02*
D03*
X190394D02*
D03*
X180394D02*
D03*
X170394D02*
D03*
X160394D02*
D03*
X150394D02*
D03*
X140394D02*
D03*
X130394D02*
D03*
X120394D02*
D03*
X110394D02*
D03*
X290394Y138031D02*
D03*
X280394Y273858D02*
D03*
X270394D02*
D03*
X260394D02*
D03*
X250394D02*
D03*
X240394D02*
D03*
X230394D02*
D03*
X220394D02*
D03*
X210394D02*
D03*
X200394D02*
D03*
X190394D02*
D03*
X180394D02*
D03*
X170394D02*
D03*
X160394D02*
D03*
X150394D02*
D03*
X140394D02*
D03*
X130394D02*
D03*
X120394D02*
D03*
X110394D02*
D03*
X100394D02*
D03*
X290394Y283858D02*
D03*
X280394Y283858D02*
D03*
X270394D02*
D03*
X260394D02*
D03*
X250394D02*
D03*
X240394D02*
D03*
X230394Y283858D02*
D03*
X220394Y283858D02*
D03*
X210394D02*
D03*
X200394Y283858D02*
D03*
X190394Y283858D02*
D03*
X180394D02*
D03*
X170394D02*
D03*
X160394D02*
D03*
X150394Y283858D02*
D03*
X140394D02*
D03*
X130394Y283858D02*
D03*
X120394D02*
D03*
X110394D02*
D03*
X290394Y273858D02*
D03*
X227716Y339134D02*
D03*
Y349134D02*
D03*
Y359134D02*
D03*
Y369134D02*
D03*
Y379134D02*
D03*
Y389134D02*
D03*
Y399134D02*
D03*
Y409134D02*
D03*
Y419134D02*
D03*
Y429134D02*
D03*
X217717Y339134D02*
D03*
Y349134D02*
D03*
Y359134D02*
D03*
Y369134D02*
D03*
Y379134D02*
D03*
Y389134D02*
D03*
Y399134D02*
D03*
Y409134D02*
D03*
Y419134D02*
D03*
X29685Y339134D02*
D03*
Y349134D02*
D03*
Y359134D02*
D03*
Y369134D02*
D03*
Y379134D02*
D03*
Y389134D02*
D03*
Y399134D02*
D03*
Y409134D02*
D03*
Y419134D02*
D03*
Y429134D02*
D03*
X19685Y339134D02*
D03*
Y349134D02*
D03*
Y359134D02*
D03*
Y369134D02*
D03*
Y379134D02*
D03*
Y389134D02*
D03*
Y399134D02*
D03*
Y409134D02*
D03*
Y419134D02*
D03*
X302362Y339134D02*
D03*
Y349134D02*
D03*
Y359134D02*
D03*
Y369134D02*
D03*
Y379134D02*
D03*
Y389134D02*
D03*
Y399134D02*
D03*
Y409134D02*
D03*
Y419134D02*
D03*
X225827Y310236D02*
D03*
X235827Y310236D02*
D03*
X245827D02*
D03*
X255827D02*
D03*
X265827D02*
D03*
X275827Y310236D02*
D03*
X285827Y310236D02*
D03*
X295827D02*
D03*
X305827D02*
D03*
X62657Y198071D02*
D03*
X52815Y198071D02*
D03*
X12933Y198071D02*
D03*
X22776Y198071D02*
D03*
X175827Y110236D02*
D03*
X165827D02*
D03*
X155827D02*
D03*
X145827D02*
D03*
X135827D02*
D03*
X125827D02*
D03*
X115827D02*
D03*
X105827D02*
D03*
X95827D02*
D03*
X175827Y310236D02*
D03*
X165827Y310236D02*
D03*
X155827D02*
D03*
X145827D02*
D03*
X135827Y310236D02*
D03*
X125827Y310236D02*
D03*
X115827Y310236D02*
D03*
X105827D02*
D03*
X95827D02*
D03*
X305827Y110236D02*
D03*
X295827D02*
D03*
X285827D02*
D03*
X275827D02*
D03*
X265827D02*
D03*
X255827D02*
D03*
X245827D02*
D03*
X235827D02*
D03*
X225827D02*
D03*
D36*
X100394Y148031D02*
D03*
Y283858D02*
D03*
X215827Y310236D02*
D03*
X85827Y110236D02*
D03*
Y310236D02*
D03*
X215827Y110236D02*
D03*
D37*
X23331Y269291D02*
D03*
X54331D02*
D03*
X177165Y479528D02*
D03*
X208165D02*
D03*
X106795D02*
D03*
X137795D02*
D03*
X35929D02*
D03*
X66929D02*
D03*
X248031D02*
D03*
X279031D02*
D03*
D38*
X217717Y429134D02*
D03*
X19685D02*
D03*
X302362D02*
D03*
D39*
X201378Y25591D02*
D03*
X165354D02*
D03*
X201378Y77165D02*
D03*
X165354D02*
D03*
D40*
X154921Y38386D02*
D03*
X147047Y38386D02*
D03*
X139173D02*
D03*
X131299D02*
D03*
X123425D02*
D03*
X190354Y20669D02*
D03*
X182480Y20669D02*
D03*
X174606Y20669D02*
D03*
X194291Y12795D02*
D03*
X186417D02*
D03*
X178543D02*
D03*
X170669Y12795D02*
D03*
X190354Y30512D02*
D03*
X182480Y30512D02*
D03*
X174606Y30512D02*
D03*
X194291Y38386D02*
D03*
X186417D02*
D03*
X178543D02*
D03*
X170669Y38386D02*
D03*
X119488Y30512D02*
D03*
X127362D02*
D03*
X135236Y30512D02*
D03*
X143110Y30512D02*
D03*
X150984Y30512D02*
D03*
X158858Y30512D02*
D03*
X154921Y12795D02*
D03*
X147047Y12795D02*
D03*
X139173D02*
D03*
X131299D02*
D03*
X123425D02*
D03*
X119488Y20669D02*
D03*
X127362D02*
D03*
X135236Y20669D02*
D03*
X143110Y20669D02*
D03*
X150984Y20669D02*
D03*
X158858Y20669D02*
D03*
X50295Y146890D02*
D03*
X55295Y156890D02*
D03*
X40295Y146890D02*
D03*
X30295D02*
D03*
X25295Y156890D02*
D03*
X20295Y146890D02*
D03*
X45295Y156890D02*
D03*
X35295D02*
D03*
X154921Y89961D02*
D03*
X147047Y89961D02*
D03*
X139173D02*
D03*
X131299D02*
D03*
X123425D02*
D03*
X190354Y72244D02*
D03*
X182480Y72244D02*
D03*
X174606Y72244D02*
D03*
X194291Y64370D02*
D03*
X186417D02*
D03*
X178543D02*
D03*
X170669Y64370D02*
D03*
X190354Y82087D02*
D03*
X182480Y82087D02*
D03*
X174606Y82087D02*
D03*
X194291Y89961D02*
D03*
X186417D02*
D03*
X178543D02*
D03*
X170669Y89961D02*
D03*
X119488Y82087D02*
D03*
X127362D02*
D03*
X135236Y82087D02*
D03*
X143110Y82087D02*
D03*
X150984Y82087D02*
D03*
X158858Y82087D02*
D03*
X154921Y64370D02*
D03*
X147047Y64370D02*
D03*
X139173D02*
D03*
X131299D02*
D03*
X123425D02*
D03*
X119488Y72244D02*
D03*
X127362D02*
D03*
X135236Y72244D02*
D03*
X143110Y72244D02*
D03*
X150984Y72244D02*
D03*
X158858Y72244D02*
D03*
D41*
X88583Y39016D02*
D03*
Y11024D02*
D03*
X226378D02*
D03*
Y39016D02*
D03*
Y62992D02*
D03*
Y90984D02*
D03*
X88583D02*
D03*
Y62992D02*
D03*
D42*
X6791Y166575D02*
D03*
X68799D02*
D03*
D43*
X15295Y181890D02*
D03*
X60295D02*
D03*
D44*
X100787Y205118D02*
D03*
X191732Y253150D02*
D03*
X248031Y411024D02*
D03*
Y386221D02*
D03*
D45*
X295669Y84252D02*
D03*
X58661Y127559D02*
D03*
X50394D02*
D03*
X145276Y245669D02*
D03*
X135433D02*
D03*
X71260Y141671D02*
D03*
Y144571D02*
D03*
M02*
