G04*
G04 #@! TF.GenerationSoftware,Altium Limited,Altium Designer,20.1.12 (249)*
G04*
G04 Layer_Color=65535*
%FSLAX25Y25*%
%MOIN*%
G70*
G04*
G04 #@! TF.SameCoordinates,38A4389A-7558-4E28-873A-C6C5AD051B8D*
G04*
G04*
G04 #@! TF.FilePolarity,Positive*
G04*
G01*
G75*
%ADD10C,0.01000*%
%ADD11C,0.00787*%
%ADD12C,0.01181*%
%ADD13C,0.00600*%
G36*
X90551Y23268D02*
X88583D01*
Y27205D01*
X90551D01*
Y23268D01*
D02*
G37*
G36*
X94488Y23268D02*
X92520D01*
Y27205D01*
X94488D01*
Y23268D01*
D02*
G37*
G36*
X84646Y27205D02*
X86614D01*
Y23268D01*
X84646Y23268D01*
Y21299D01*
X80709Y25236D01*
X84646Y29173D01*
Y27205D01*
D02*
G37*
G36*
X94488Y75236D02*
X92520Y75236D01*
Y79173D01*
X94488D01*
Y75236D01*
D02*
G37*
G36*
X90551Y75236D02*
X88583D01*
Y79173D01*
X90551D01*
Y75236D01*
D02*
G37*
G36*
X84646Y79173D02*
X86614D01*
Y75236D01*
X84646D01*
Y73268D01*
X80709Y77205D01*
X84646Y81142D01*
Y79173D01*
D02*
G37*
G36*
X226378Y22835D02*
X224410D01*
Y26772D01*
X226378D01*
Y22835D01*
D02*
G37*
G36*
X222441D02*
X220472D01*
Y26772D01*
X222441Y26772D01*
Y22835D01*
D02*
G37*
G36*
X234252Y24803D02*
X230315Y20866D01*
Y22835D01*
X228346D01*
Y26772D01*
X230315D01*
Y28740D01*
X234252Y24803D01*
D02*
G37*
G36*
X226378Y74803D02*
X224410D01*
Y78740D01*
X226378D01*
Y74803D01*
D02*
G37*
G36*
X222441D02*
X220472D01*
Y78740D01*
X222441D01*
Y74803D01*
D02*
G37*
G36*
X234252Y76772D02*
X230315Y72835D01*
Y74803D01*
X228346D01*
Y78740D01*
X230315Y78740D01*
Y80709D01*
X234252Y76772D01*
D02*
G37*
D10*
X4231Y243791D02*
X70731D01*
X4231D02*
Y278691D01*
X70731Y278691D01*
Y243791D02*
Y278691D01*
X158065Y454028D02*
X224565D01*
X158065D02*
Y488928D01*
X224565Y488928D01*
Y454028D02*
Y488928D01*
X87695Y454028D02*
X154195D01*
X87695D02*
Y488928D01*
X154195Y488928D01*
Y454028D02*
Y488928D01*
X16829Y454028D02*
X83329D01*
X16829D02*
Y488928D01*
X83329Y488928D01*
Y454028D02*
Y488928D01*
X228931Y454028D02*
X295431D01*
X228931D02*
Y488928D01*
X295431Y488928D01*
Y454028D02*
Y488928D01*
D11*
X11811Y316929D02*
X303150Y316929D01*
X7087Y450787D02*
X308268D01*
Y318898D02*
Y450787D01*
X7087Y318898D02*
X308268D01*
X7087D02*
Y450787D01*
X206299Y11024D02*
Y40157D01*
X107480Y11024D02*
X206299D01*
X107480D02*
Y40157D01*
X206299D01*
X74803Y316929D02*
X74803Y118110D01*
X100000Y39D02*
Y48858D01*
X214961Y1181D02*
Y50000D01*
X146752Y249114D02*
Y249902D01*
X143799Y249114D02*
Y249902D01*
X136909Y249114D02*
Y249902D01*
X133957Y249114D02*
Y249902D01*
X5512Y142126D02*
Y208268D01*
X70079D01*
Y142126D02*
Y208268D01*
X5512Y142126D02*
X70079D01*
X214961Y53150D02*
Y101969D01*
X206299Y62598D02*
Y91732D01*
X107480Y62598D02*
X206299D01*
X107480D02*
Y91732D01*
X206299D01*
X100000Y52008D02*
Y100827D01*
X78827Y104236D02*
Y316236D01*
X312827Y316236D01*
Y104236D02*
Y316236D01*
X78827Y104236D02*
X312827D01*
X11811Y102362D02*
X303150Y102362D01*
X11811Y50787D02*
X303150Y50787D01*
D12*
X54724Y380316D02*
Y388188D01*
X57348Y385564D01*
X59972Y388188D01*
Y380316D01*
X66532Y388188D02*
X63908D01*
X62596Y386876D01*
Y381628D01*
X63908Y380316D01*
X66532D01*
X67844Y381628D01*
Y386876D01*
X66532Y388188D01*
X70467D02*
X75715D01*
X73091D01*
Y380316D01*
X82275Y388188D02*
X79651D01*
X78339Y386876D01*
Y381628D01*
X79651Y380316D01*
X82275D01*
X83587Y381628D01*
Y386876D01*
X82275Y388188D01*
X86210Y380316D02*
Y388188D01*
X90146D01*
X91458Y386876D01*
Y384252D01*
X90146Y382940D01*
X86210D01*
X88834D02*
X91458Y380316D01*
X101953Y388188D02*
Y380316D01*
X105889D01*
X107201Y381628D01*
Y386876D01*
X105889Y388188D01*
X101953D01*
X109825Y380316D02*
Y388188D01*
X113760D01*
X115072Y386876D01*
Y384252D01*
X113760Y382940D01*
X109825D01*
X112449D02*
X115072Y380316D01*
X117696Y388188D02*
X120320D01*
X119008D01*
Y380316D01*
X117696D01*
X120320D01*
X124256Y388188D02*
Y382940D01*
X126880Y380316D01*
X129504Y382940D01*
Y388188D01*
X137375D02*
X132127D01*
Y380316D01*
X137375D01*
X132127Y384252D02*
X134751D01*
X147870Y380316D02*
Y388188D01*
X150494Y385564D01*
X153118Y388188D01*
Y380316D01*
X159678Y388188D02*
X157054D01*
X155742Y386876D01*
Y381628D01*
X157054Y380316D01*
X159678D01*
X160989Y381628D01*
Y386876D01*
X159678Y388188D01*
X163613D02*
Y380316D01*
X167549D01*
X168861Y381628D01*
Y386876D01*
X167549Y388188D01*
X163613D01*
X171485D02*
Y381628D01*
X172797Y380316D01*
X175420D01*
X176732Y381628D01*
Y388188D01*
X179356D02*
Y380316D01*
X184604D01*
X192475Y388188D02*
X187228D01*
Y380316D01*
X192475D01*
X187228Y384252D02*
X189851D01*
X150000Y203545D02*
Y211416D01*
X153936D01*
X155248Y210104D01*
Y207480D01*
X153936Y206168D01*
X150000D01*
X161807Y211416D02*
X159183D01*
X157871Y210104D01*
Y204856D01*
X159183Y203545D01*
X161807D01*
X163119Y204856D01*
Y210104D01*
X161807Y211416D01*
X165743D02*
Y203545D01*
X168367Y206168D01*
X170991Y203545D01*
Y211416D01*
X178862D02*
X173614D01*
Y203545D01*
X178862D01*
X173614Y207480D02*
X176238D01*
X181486Y203545D02*
Y211416D01*
X185422D01*
X186734Y210104D01*
Y207480D01*
X185422Y206168D01*
X181486D01*
X184110D02*
X186734Y203545D01*
X197229D02*
Y211416D01*
X199853Y208792D01*
X202477Y211416D01*
Y203545D01*
X209036Y211416D02*
X206412D01*
X205100Y210104D01*
Y204856D01*
X206412Y203545D01*
X209036D01*
X210348Y204856D01*
Y210104D01*
X209036Y211416D01*
X212972D02*
Y203545D01*
X216908D01*
X218219Y204856D01*
Y210104D01*
X216908Y211416D01*
X212972D01*
X220843D02*
Y204856D01*
X222155Y203545D01*
X224779D01*
X226091Y204856D01*
Y211416D01*
X228715D02*
Y203545D01*
X233962D01*
X241834Y211416D02*
X236586D01*
Y203545D01*
X241834D01*
X236586Y207480D02*
X239210D01*
X12205Y40552D02*
Y48424D01*
X16140D01*
X17452Y47112D01*
Y44488D01*
X16140Y43176D01*
X12205D01*
X25324Y47112D02*
X24012Y48424D01*
X21388D01*
X20076Y47112D01*
Y41864D01*
X21388Y40552D01*
X24012D01*
X25324Y41864D01*
X27948Y48424D02*
X30571D01*
X29260D01*
Y40552D01*
X27948D01*
X30571D01*
X39755Y48424D02*
X34507D01*
Y40552D01*
X39755D01*
X34507Y44488D02*
X37131D01*
X16665Y282678D02*
X11417D01*
X16665Y287926D01*
Y289238D01*
X15353Y290550D01*
X12729D01*
X11417Y289238D01*
X23224Y282678D02*
Y290550D01*
X19289Y286614D01*
X24536D01*
X27160Y290550D02*
Y285302D01*
X29784Y282678D01*
X32408Y285302D01*
Y290550D01*
X46839D02*
X44215D01*
X42903Y289238D01*
Y283990D01*
X44215Y282678D01*
X46839D01*
X48151Y283990D01*
Y289238D01*
X46839Y290550D01*
X50775D02*
Y283990D01*
X52087Y282678D01*
X54711D01*
X56022Y283990D01*
Y290550D01*
X58646D02*
X63894D01*
X61270D01*
Y282678D01*
X12728Y219684D02*
X7480D01*
Y211812D01*
X12728D01*
X7480Y215748D02*
X10104D01*
X15352Y219684D02*
X20599D01*
X17976D01*
Y211812D01*
X23223Y219684D02*
Y211812D01*
Y215748D01*
X28471D01*
Y219684D01*
Y211812D01*
X36342Y219684D02*
X31095D01*
Y211812D01*
X36342D01*
X31095Y215748D02*
X33719D01*
X38966Y211812D02*
Y219684D01*
X42902D01*
X44214Y218372D01*
Y215748D01*
X42902Y214436D01*
X38966D01*
X41590D02*
X44214Y211812D01*
X46838D02*
Y219684D01*
X52085Y211812D01*
Y219684D01*
X59957D02*
X54709D01*
Y211812D01*
X59957D01*
X54709Y215748D02*
X57333D01*
X62581Y219684D02*
X67828D01*
X65205D01*
Y211812D01*
X12205Y92521D02*
Y100392D01*
X16140D01*
X17452Y99080D01*
Y96457D01*
X16140Y95145D01*
X12205D01*
X25324Y99080D02*
X24012Y100392D01*
X21388D01*
X20076Y99080D01*
Y93833D01*
X21388Y92521D01*
X24012D01*
X25324Y93833D01*
X27948Y100392D02*
X30571D01*
X29260D01*
Y92521D01*
X27948D01*
X30571D01*
X39755Y100392D02*
X34507D01*
Y92521D01*
X39755D01*
X34507Y96457D02*
X37131D01*
D13*
X6008Y241757D02*
X4942D01*
X5475D01*
Y239091D01*
X4942Y238558D01*
X4408D01*
X3875Y239091D01*
X7074Y238558D02*
X8141D01*
X7608D01*
Y241757D01*
X7074Y241224D01*
X9740D02*
X10273Y241757D01*
X11340D01*
X11873Y241224D01*
Y240691D01*
X11340Y240158D01*
X11873Y239624D01*
Y239091D01*
X11340Y238558D01*
X10273D01*
X9740Y239091D01*
Y239624D01*
X10273Y240158D01*
X9740Y240691D01*
Y241224D01*
X10273Y240158D02*
X11340D01*
X200447Y47929D02*
X199381D01*
X199914D01*
Y45263D01*
X199381Y44730D01*
X198847D01*
X198314Y45263D01*
X201513Y44730D02*
X202579D01*
X202046D01*
Y47929D01*
X201513Y47396D01*
X204179Y47929D02*
X206311D01*
Y47396D01*
X204179Y45263D01*
Y44730D01*
X207378Y44197D02*
X209510D01*
X212709Y44730D02*
X210577D01*
X212709Y46863D01*
Y47396D01*
X212176Y47929D01*
X211110D01*
X210577Y47396D01*
X103990Y47929D02*
X102924D01*
X103457D01*
Y45263D01*
X102924Y44730D01*
X102391D01*
X101857Y45263D01*
X105056Y44730D02*
X106123D01*
X105590D01*
Y47929D01*
X105056Y47396D01*
X109855Y47929D02*
X108789Y47396D01*
X107722Y46330D01*
Y45263D01*
X108255Y44730D01*
X109322D01*
X109855Y45263D01*
Y45796D01*
X109322Y46330D01*
X107722D01*
X110921Y44197D02*
X113054D01*
X116253Y44730D02*
X114120D01*
X116253Y46863D01*
Y47396D01*
X115720Y47929D01*
X114653D01*
X114120Y47396D01*
X156746Y47142D02*
X155680D01*
X156213D01*
Y44476D01*
X155680Y43943D01*
X155147D01*
X154613Y44476D01*
X157812Y43943D02*
X158879D01*
X158345D01*
Y47142D01*
X157812Y46608D01*
X162611Y47142D02*
X160478D01*
Y45542D01*
X161544Y46075D01*
X162078D01*
X162611Y45542D01*
Y44476D01*
X162078Y43943D01*
X161011D01*
X160478Y44476D01*
X163677Y43409D02*
X165810D01*
X169009Y43943D02*
X166876D01*
X169009Y46075D01*
Y46608D01*
X168475Y47142D01*
X167409D01*
X166876Y46608D01*
X143003Y238558D02*
Y241757D01*
X144603D01*
X145136Y241224D01*
Y240158D01*
X144603Y239624D01*
X143003D01*
X144070D02*
X145136Y238558D01*
X147802D02*
Y241757D01*
X146203Y240158D01*
X148335D01*
X133161Y238558D02*
Y241757D01*
X134760D01*
X135294Y241224D01*
Y240158D01*
X134760Y239624D01*
X133161D01*
X134227D02*
X135294Y238558D01*
X136360Y241224D02*
X136893Y241757D01*
X137959D01*
X138493Y241224D01*
Y240691D01*
X137959Y240158D01*
X137426D01*
X137959D01*
X138493Y239624D01*
Y239091D01*
X137959Y238558D01*
X136893D01*
X136360Y239091D01*
X103736Y99504D02*
X102670D01*
X103203D01*
Y96838D01*
X102670Y96305D01*
X102136D01*
X101603Y96838D01*
X104802Y96305D02*
X105868D01*
X105335D01*
Y99504D01*
X104802Y98971D01*
X107468Y99504D02*
X109601D01*
Y98971D01*
X107468Y96838D01*
Y96305D01*
X110667Y95772D02*
X112800D01*
X113866Y96305D02*
X114932D01*
X114399D01*
Y99504D01*
X113866Y98971D01*
X201767Y99898D02*
X200701D01*
X201234D01*
Y97232D01*
X200701Y96699D01*
X200168D01*
X199635Y97232D01*
X202834Y96699D02*
X203900D01*
X203367D01*
Y99898D01*
X202834Y99364D01*
X207632Y99898D02*
X206566Y99364D01*
X205500Y98298D01*
Y97232D01*
X206033Y96699D01*
X207099D01*
X207632Y97232D01*
Y97765D01*
X207099Y98298D01*
X205500D01*
X208698Y96165D02*
X210831D01*
X211897Y96699D02*
X212964D01*
X212431D01*
Y99898D01*
X211897Y99364D01*
X157279Y98716D02*
X156213D01*
X156746D01*
Y96051D01*
X156213Y95517D01*
X155680D01*
X155147Y96051D01*
X158345Y95517D02*
X159412D01*
X158879D01*
Y98716D01*
X158345Y98183D01*
X163144Y98716D02*
X161011D01*
Y97117D01*
X162078Y97650D01*
X162611D01*
X163144Y97117D01*
Y96051D01*
X162611Y95517D01*
X161544D01*
X161011Y96051D01*
X164210Y94984D02*
X166343D01*
X167409Y95517D02*
X168475D01*
X167942D01*
Y98716D01*
X167409Y98183D01*
X7583Y140182D02*
X6516D01*
X7050D01*
Y137516D01*
X6516Y136983D01*
X5983D01*
X5450Y137516D01*
X8649Y136983D02*
X9715D01*
X9182D01*
Y140182D01*
X8649Y139649D01*
X12914Y136983D02*
Y140182D01*
X11315Y138583D01*
X13447D01*
X289866Y448450D02*
X288800D01*
X289333D01*
Y445784D01*
X288800Y445251D01*
X288267D01*
X287734Y445784D01*
X290932Y445251D02*
X291999D01*
X291466D01*
Y448450D01*
X290932Y447917D01*
X293598D02*
X294131Y448450D01*
X295198D01*
X295731Y447917D01*
Y447384D01*
X295198Y446850D01*
X294665D01*
X295198D01*
X295731Y446317D01*
Y445784D01*
X295198Y445251D01*
X294131D01*
X293598Y445784D01*
X77268Y448844D02*
X76201D01*
X76735D01*
Y446178D01*
X76201Y445645D01*
X75668D01*
X75135Y446178D01*
X78334Y445645D02*
X79400D01*
X78867D01*
Y448844D01*
X78334Y448310D01*
X83133Y445645D02*
X81000D01*
X83133Y447777D01*
Y448310D01*
X82599Y448844D01*
X81533D01*
X81000Y448310D01*
X90006Y448844D02*
X88939D01*
X89473D01*
Y446178D01*
X88939Y445645D01*
X88406D01*
X87873Y446178D01*
X91072Y445645D02*
X92138D01*
X91605D01*
Y448844D01*
X91072Y448310D01*
X93738Y445645D02*
X94804D01*
X94271D01*
Y448844D01*
X93738Y448310D01*
X160339Y449237D02*
X159272D01*
X159806D01*
Y446571D01*
X159272Y446038D01*
X158739D01*
X158206Y446571D01*
X161405Y446038D02*
X162471D01*
X161938D01*
Y449237D01*
X161405Y448704D01*
X164071D02*
X164604Y449237D01*
X165670D01*
X166203Y448704D01*
Y446571D01*
X165670Y446038D01*
X164604D01*
X164071Y446571D01*
Y448704D01*
X201042Y430340D02*
X199975D01*
X200508D01*
Y427674D01*
X199975Y427141D01*
X199442D01*
X198909Y427674D01*
X202108D02*
X202641Y427141D01*
X203707D01*
X204241Y427674D01*
Y429807D01*
X203707Y430340D01*
X202641D01*
X202108Y429807D01*
Y429273D01*
X202641Y428740D01*
X204241D01*
X45924Y430340D02*
X44857D01*
X45390D01*
Y427674D01*
X44857Y427141D01*
X44324D01*
X43791Y427674D01*
X46990Y429807D02*
X47523Y430340D01*
X48589D01*
X49123Y429807D01*
Y429273D01*
X48589Y428740D01*
X49123Y428207D01*
Y427674D01*
X48589Y427141D01*
X47523D01*
X46990Y427674D01*
Y428207D01*
X47523Y428740D01*
X46990Y429273D01*
Y429807D01*
X47523Y428740D02*
X48589D01*
X292380Y431127D02*
X291314D01*
X291847D01*
Y428461D01*
X291314Y427928D01*
X290781D01*
X290248Y428461D01*
X293447Y431127D02*
X295579D01*
Y430594D01*
X293447Y428461D01*
Y427928D01*
X69127Y130340D02*
Y127141D01*
X71260D01*
X72326D02*
X73392D01*
X72859D01*
Y130340D01*
X72326Y129806D01*
X204700Y309703D02*
Y308637D01*
Y309170D01*
X207365D01*
X207899Y308637D01*
Y308104D01*
X207365Y307570D01*
X204700Y312902D02*
X205233Y311836D01*
X206299Y310769D01*
X207365D01*
X207899Y311303D01*
Y312369D01*
X207365Y312902D01*
X206832D01*
X206299Y312369D01*
Y310769D01*
X74078Y108019D02*
Y106953D01*
Y107486D01*
X76744D01*
X77277Y106953D01*
Y106419D01*
X76744Y105886D01*
X74078Y111218D02*
Y109085D01*
X75677D01*
X75144Y110152D01*
Y110685D01*
X75677Y111218D01*
X76744D01*
X77277Y110685D01*
Y109618D01*
X76744Y109085D01*
X183440Y309309D02*
Y308243D01*
Y308776D01*
X186106D01*
X186639Y308243D01*
Y307710D01*
X186106Y307177D01*
X186639Y311975D02*
X183440D01*
X185039Y310376D01*
Y312508D01*
X204078Y108019D02*
Y106953D01*
Y107486D01*
X206744D01*
X207277Y106953D01*
Y106419D01*
X206744Y105886D01*
X204611Y109085D02*
X204078Y109618D01*
Y110685D01*
X204611Y111218D01*
X205144D01*
X205677Y110685D01*
Y110152D01*
Y110685D01*
X206210Y111218D01*
X206744D01*
X207277Y110685D01*
Y109618D01*
X206744Y109085D01*
X58128Y122326D02*
X57595Y122859D01*
X56529D01*
X55996Y122326D01*
Y120194D01*
X56529Y119660D01*
X57595D01*
X58128Y120194D01*
X60794Y119660D02*
Y122859D01*
X59195Y121260D01*
X61327D01*
X49861Y122326D02*
X49327Y122859D01*
X48261D01*
X47728Y122326D01*
Y120194D01*
X48261Y119660D01*
X49327D01*
X49861Y120194D01*
X53060Y119660D02*
X50927D01*
X53060Y121793D01*
Y122326D01*
X52526Y122859D01*
X51460D01*
X50927Y122326D01*
M02*
