M48
;Layer_Color=9474304
;FILE_FORMAT=2:5
INCH,TZ
;TYPE=PLATED
T6F00S00C0.05000
;TYPE=NON_PLATED
%
G90
G05
T06
G00X31131Y269291
M15
G01X15531
M16
G00X62131Y269291
M15
G01X46531
M16
G00X255832Y479528
M15
G01X240231
M16
G00X286831Y479528
M15
G01X271232
M16
G00X215965Y479528
M15
G01X200365
M16
G00X184965Y479528
M15
G01X169365
M16
G00X145595Y479528
M15
G01X129995
M16
G00X114595Y479528
M15
G01X98995
M16
G00X74729Y479528
M15
G01X59129
M16
G00X43729Y479528
M15
G01X28129
M16
M17
M30
