G04*
G04 #@! TF.GenerationSoftware,Altium Limited,Altium Designer,20.1.12 (249)*
G04*
G04 Layer_Physical_Order=1*
G04 Layer_Color=255*
%FSLAX25Y25*%
%MOIN*%
G70*
G04*
G04 #@! TF.SameCoordinates,38A4389A-7558-4E28-873A-C6C5AD051B8D*
G04*
G04*
G04 #@! TF.FilePolarity,Positive*
G04*
G01*
G75*
%ADD27R,0.03740X0.03543*%
%ADD28R,0.05906X0.05709*%
%ADD29R,0.05197X0.05866*%
%ADD30C,0.04000*%
%ADD31C,0.05000*%
%ADD32C,0.00500*%
%ADD33C,0.02000*%
%ADD34C,0.01500*%
%ADD35C,0.05906*%
%ADD36R,0.05906X0.05906*%
G04:AMPARAMS|DCode=37|XSize=240mil|YSize=80mil|CornerRadius=20mil|HoleSize=0mil|Usage=FLASHONLY|Rotation=180.000|XOffset=0mil|YOffset=0mil|HoleType=Round|Shape=RoundedRectangle|*
%AMROUNDEDRECTD37*
21,1,0.24000,0.04000,0,0,180.0*
21,1,0.20000,0.08000,0,0,180.0*
1,1,0.04000,-0.10000,0.02000*
1,1,0.04000,0.10000,0.02000*
1,1,0.04000,0.10000,-0.02000*
1,1,0.04000,-0.10000,-0.02000*
%
%ADD37ROUNDEDRECTD37*%
%ADD38R,0.05906X0.05906*%
%ADD39C,0.09449*%
%ADD40C,0.05118*%
%ADD41C,0.10630*%
%ADD42C,0.07874*%
%ADD43C,0.12795*%
%ADD44C,0.03150*%
%ADD45C,0.02400*%
G36*
X314158Y803D02*
X803D01*
Y491323D01*
X314158D01*
X314158Y803D01*
D02*
G37*
%LPC*%
G36*
X289032Y484553D02*
X269032D01*
X268248Y484450D01*
X267519Y484148D01*
X266892Y483667D01*
X266411Y483041D01*
X266109Y482311D01*
X266006Y481528D01*
Y477528D01*
X266109Y476744D01*
X266411Y476015D01*
X266892Y475388D01*
X267519Y474907D01*
X268248Y474605D01*
X269032Y474502D01*
X289032D01*
X289815Y474605D01*
X290545Y474907D01*
X291171Y475388D01*
X291652Y476015D01*
X291954Y476744D01*
X292057Y477528D01*
Y481528D01*
X291954Y482311D01*
X291652Y483041D01*
X291171Y483667D01*
X290545Y484148D01*
X289815Y484450D01*
X289032Y484553D01*
D02*
G37*
G36*
X258032D02*
X238032D01*
X237248Y484450D01*
X236519Y484148D01*
X235892Y483667D01*
X235411Y483041D01*
X235109Y482311D01*
X235006Y481528D01*
Y477528D01*
X235109Y476744D01*
X235411Y476015D01*
X235892Y475388D01*
X236519Y474907D01*
X237248Y474605D01*
X238032Y474502D01*
X258032D01*
X258815Y474605D01*
X259544Y474907D01*
X260171Y475388D01*
X260652Y476015D01*
X260954Y476744D01*
X261057Y477528D01*
Y481528D01*
X260954Y482311D01*
X260652Y483041D01*
X260171Y483667D01*
X259544Y484148D01*
X258815Y484450D01*
X258032Y484553D01*
D02*
G37*
G36*
X218165D02*
X198165D01*
X197382Y484450D01*
X196652Y484148D01*
X196026Y483667D01*
X195545Y483041D01*
X195243Y482311D01*
X195140Y481528D01*
Y477528D01*
X195243Y476744D01*
X195545Y476015D01*
X196026Y475388D01*
X196652Y474907D01*
X197382Y474605D01*
X198165Y474502D01*
X218165D01*
X218949Y474605D01*
X219678Y474907D01*
X220305Y475388D01*
X220786Y476015D01*
X221088Y476744D01*
X221191Y477528D01*
Y481528D01*
X221088Y482311D01*
X220786Y483041D01*
X220305Y483667D01*
X219678Y484148D01*
X218949Y484450D01*
X218165Y484553D01*
D02*
G37*
G36*
X187165D02*
X167165D01*
X166382Y484450D01*
X165652Y484148D01*
X165026Y483667D01*
X164545Y483041D01*
X164243Y482311D01*
X164139Y481528D01*
Y477528D01*
X164243Y476744D01*
X164545Y476015D01*
X165026Y475388D01*
X165652Y474907D01*
X166382Y474605D01*
X167165Y474502D01*
X187165D01*
X187949Y474605D01*
X188678Y474907D01*
X189305Y475388D01*
X189786Y476015D01*
X190088Y476744D01*
X190191Y477528D01*
Y481528D01*
X190088Y482311D01*
X189786Y483041D01*
X189305Y483667D01*
X188678Y484148D01*
X187949Y484450D01*
X187165Y484553D01*
D02*
G37*
G36*
X147795D02*
X127795D01*
X127012Y484450D01*
X126282Y484148D01*
X125656Y483667D01*
X125175Y483041D01*
X124873Y482311D01*
X124769Y481528D01*
Y477528D01*
X124873Y476744D01*
X125175Y476015D01*
X125656Y475388D01*
X126282Y474907D01*
X127012Y474605D01*
X127795Y474502D01*
X147795D01*
X148578Y474605D01*
X149308Y474907D01*
X149935Y475388D01*
X150416Y476015D01*
X150718Y476744D01*
X150821Y477528D01*
Y481528D01*
X150718Y482311D01*
X150416Y483041D01*
X149935Y483667D01*
X149308Y484148D01*
X148578Y484450D01*
X147795Y484553D01*
D02*
G37*
G36*
X116795D02*
X96795D01*
X96012Y484450D01*
X95282Y484148D01*
X94656Y483667D01*
X94175Y483041D01*
X93872Y482311D01*
X93769Y481528D01*
Y477528D01*
X93872Y476744D01*
X94175Y476015D01*
X94656Y475388D01*
X95282Y474907D01*
X96012Y474605D01*
X96795Y474502D01*
X116795D01*
X117578Y474605D01*
X118308Y474907D01*
X118935Y475388D01*
X119416Y476015D01*
X119718Y476744D01*
X119821Y477528D01*
Y481528D01*
X119718Y482311D01*
X119416Y483041D01*
X118935Y483667D01*
X118308Y484148D01*
X117578Y484450D01*
X116795Y484553D01*
D02*
G37*
G36*
X76929D02*
X56929D01*
X56146Y484450D01*
X55416Y484148D01*
X54790Y483667D01*
X54309Y483041D01*
X54006Y482311D01*
X53903Y481528D01*
Y477528D01*
X54006Y476744D01*
X54309Y476015D01*
X54790Y475388D01*
X55416Y474907D01*
X56146Y474605D01*
X56929Y474502D01*
X76350D01*
X84986Y465866D01*
X84779Y465366D01*
X61696D01*
X48955Y478106D01*
Y481528D01*
X48852Y482311D01*
X48550Y483041D01*
X48069Y483667D01*
X47442Y484148D01*
X46712Y484450D01*
X45929Y484553D01*
X25929D01*
X25146Y484450D01*
X24416Y484148D01*
X23789Y483667D01*
X23309Y483041D01*
X23006Y482311D01*
X22903Y481528D01*
Y477528D01*
X23006Y476744D01*
X23309Y476015D01*
X23789Y475388D01*
X24416Y474907D01*
X25146Y474605D01*
X25929Y474502D01*
X45350D01*
X58838Y461014D01*
X59665Y460462D01*
X60640Y460268D01*
X196299D01*
X201219Y455348D01*
Y393083D01*
X201413Y392107D01*
X201965Y391280D01*
X213774Y379471D01*
X213730Y379134D01*
X213865Y378102D01*
X214264Y377140D01*
X214897Y376315D01*
X215723Y375681D01*
X216685Y375283D01*
X217717Y375147D01*
X218748Y375283D01*
X219710Y375681D01*
X220536Y376315D01*
X221169Y377140D01*
X221568Y378102D01*
X221703Y379134D01*
X221568Y380166D01*
X221169Y381127D01*
X220536Y381953D01*
X219710Y382587D01*
X218748Y382985D01*
X217717Y383121D01*
X217379Y383076D01*
X206317Y394139D01*
Y396222D01*
X206817Y396429D01*
X213774Y389472D01*
X213730Y389134D01*
X213865Y388102D01*
X214264Y387140D01*
X214897Y386315D01*
X215723Y385681D01*
X216685Y385283D01*
X217717Y385147D01*
X218748Y385283D01*
X219710Y385681D01*
X220536Y386315D01*
X221169Y387140D01*
X221568Y388102D01*
X221703Y389134D01*
X221568Y390166D01*
X221169Y391127D01*
X220536Y391953D01*
X219710Y392587D01*
X218748Y392985D01*
X217717Y393121D01*
X217379Y393076D01*
X210817Y399639D01*
Y458268D01*
X210623Y459243D01*
X210070Y460070D01*
X201021Y469119D01*
X200194Y469672D01*
X199219Y469866D01*
X88196D01*
X79955Y478106D01*
Y481528D01*
X79852Y482311D01*
X79550Y483041D01*
X79069Y483667D01*
X78442Y484148D01*
X77712Y484450D01*
X76929Y484553D01*
D02*
G37*
G36*
X306315Y433087D02*
X298410D01*
Y425181D01*
X306315D01*
Y433087D01*
D02*
G37*
G36*
X221669D02*
X213764D01*
Y425181D01*
X221669D01*
Y433087D01*
D02*
G37*
G36*
X23638D02*
X15732D01*
Y425181D01*
X23638D01*
Y433087D01*
D02*
G37*
G36*
X227716Y433121D02*
X226685Y432985D01*
X225723Y432587D01*
X224897Y431953D01*
X224264Y431127D01*
X223866Y430166D01*
X223730Y429134D01*
X223866Y428102D01*
X224264Y427140D01*
X224897Y426315D01*
X225723Y425681D01*
X226685Y425283D01*
X227716Y425147D01*
X228748Y425283D01*
X229710Y425681D01*
X230536Y426315D01*
X231169Y427140D01*
X231568Y428102D01*
X231703Y429134D01*
X231568Y430166D01*
X231169Y431127D01*
X230536Y431953D01*
X229710Y432587D01*
X228748Y432985D01*
X227716Y433121D01*
D02*
G37*
G36*
X302362Y423121D02*
X301330Y422985D01*
X300369Y422587D01*
X299543Y421953D01*
X298909Y421127D01*
X298511Y420166D01*
X298375Y419134D01*
X298511Y418102D01*
X298909Y417140D01*
X299543Y416315D01*
X300369Y415681D01*
X301330Y415283D01*
X302362Y415147D01*
X303394Y415283D01*
X304356Y415681D01*
X305181Y416315D01*
X305815Y417140D01*
X306213Y418102D01*
X306349Y419134D01*
X306213Y420166D01*
X305815Y421127D01*
X305181Y421953D01*
X304356Y422587D01*
X303394Y422985D01*
X302362Y423121D01*
D02*
G37*
G36*
X227716D02*
X226685Y422985D01*
X225723Y422587D01*
X224897Y421953D01*
X224264Y421127D01*
X223866Y420166D01*
X223730Y419134D01*
X223866Y418102D01*
X224264Y417140D01*
X224897Y416315D01*
X225723Y415681D01*
X226685Y415283D01*
X227716Y415147D01*
X228748Y415283D01*
X229710Y415681D01*
X230536Y416315D01*
X231169Y417140D01*
X231568Y418102D01*
X231703Y419134D01*
X231568Y420166D01*
X231169Y421127D01*
X230536Y421953D01*
X229710Y422587D01*
X228748Y422985D01*
X227716Y423121D01*
D02*
G37*
G36*
X217717D02*
X216685Y422985D01*
X215723Y422587D01*
X214897Y421953D01*
X214264Y421127D01*
X213865Y420166D01*
X213730Y419134D01*
X213865Y418102D01*
X214264Y417140D01*
X214897Y416315D01*
X215723Y415681D01*
X216685Y415283D01*
X217717Y415147D01*
X218748Y415283D01*
X219710Y415681D01*
X220536Y416315D01*
X221169Y417140D01*
X221568Y418102D01*
X221703Y419134D01*
X221568Y420166D01*
X221169Y421127D01*
X220536Y421953D01*
X219710Y422587D01*
X218748Y422985D01*
X217717Y423121D01*
D02*
G37*
G36*
X19685D02*
X18653Y422985D01*
X17692Y422587D01*
X16866Y421953D01*
X16232Y421127D01*
X15834Y420166D01*
X15698Y419134D01*
X15834Y418102D01*
X16232Y417140D01*
X16866Y416315D01*
X17692Y415681D01*
X18653Y415283D01*
X19685Y415147D01*
X20717Y415283D01*
X21678Y415681D01*
X22504Y416315D01*
X23138Y417140D01*
X23536Y418102D01*
X23672Y419134D01*
X23536Y420166D01*
X23138Y421127D01*
X22504Y421953D01*
X21678Y422587D01*
X20717Y422985D01*
X19685Y423121D01*
D02*
G37*
G36*
X302362Y413121D02*
X301330Y412985D01*
X300369Y412587D01*
X299543Y411953D01*
X298909Y411127D01*
X298511Y410166D01*
X298375Y409134D01*
X298511Y408102D01*
X298909Y407140D01*
X299543Y406315D01*
X300369Y405681D01*
X301330Y405283D01*
X302362Y405147D01*
X303394Y405283D01*
X304356Y405681D01*
X305181Y406315D01*
X305815Y407140D01*
X306213Y408102D01*
X306349Y409134D01*
X306213Y410166D01*
X305815Y411127D01*
X305181Y411953D01*
X304356Y412587D01*
X303394Y412985D01*
X302362Y413121D01*
D02*
G37*
G36*
X227716D02*
X226685Y412985D01*
X225723Y412587D01*
X224897Y411953D01*
X224264Y411127D01*
X223866Y410166D01*
X223730Y409134D01*
X223866Y408102D01*
X224264Y407140D01*
X224897Y406315D01*
X225723Y405681D01*
X226685Y405283D01*
X227716Y405147D01*
X228748Y405283D01*
X229710Y405681D01*
X230536Y406315D01*
X231169Y407140D01*
X231568Y408102D01*
X231703Y409134D01*
X231568Y410166D01*
X231169Y411127D01*
X230536Y411953D01*
X229710Y412587D01*
X228748Y412985D01*
X227716Y413121D01*
D02*
G37*
G36*
X217717D02*
X216685Y412985D01*
X215723Y412587D01*
X214897Y411953D01*
X214264Y411127D01*
X213865Y410166D01*
X213730Y409134D01*
X213865Y408102D01*
X214264Y407140D01*
X214897Y406315D01*
X215723Y405681D01*
X216685Y405283D01*
X217717Y405147D01*
X218748Y405283D01*
X219710Y405681D01*
X220536Y406315D01*
X221169Y407140D01*
X221568Y408102D01*
X221703Y409134D01*
X221568Y410166D01*
X221169Y411127D01*
X220536Y411953D01*
X219710Y412587D01*
X218748Y412985D01*
X217717Y413121D01*
D02*
G37*
G36*
X19685D02*
X18653Y412985D01*
X17692Y412587D01*
X16866Y411953D01*
X16232Y411127D01*
X15834Y410166D01*
X15698Y409134D01*
X15834Y408102D01*
X16232Y407140D01*
X16866Y406315D01*
X17692Y405681D01*
X18653Y405283D01*
X19685Y405147D01*
X20717Y405283D01*
X21678Y405681D01*
X22504Y406315D01*
X23138Y407140D01*
X23536Y408102D01*
X23672Y409134D01*
X23536Y410166D01*
X23138Y411127D01*
X22504Y411953D01*
X21678Y412587D01*
X20717Y412985D01*
X19685Y413121D01*
D02*
G37*
G36*
X302362Y403121D02*
X301330Y402985D01*
X300369Y402587D01*
X299543Y401953D01*
X298909Y401127D01*
X298511Y400166D01*
X298375Y399134D01*
X298511Y398102D01*
X298909Y397140D01*
X299543Y396315D01*
X300369Y395681D01*
X301330Y395283D01*
X302362Y395147D01*
X303394Y395283D01*
X304356Y395681D01*
X305181Y396315D01*
X305815Y397140D01*
X306213Y398102D01*
X306349Y399134D01*
X306213Y400166D01*
X305815Y401127D01*
X305181Y401953D01*
X304356Y402587D01*
X303394Y402985D01*
X302362Y403121D01*
D02*
G37*
G36*
X227716D02*
X226685Y402985D01*
X225723Y402587D01*
X224897Y401953D01*
X224264Y401127D01*
X223866Y400166D01*
X223730Y399134D01*
X223866Y398102D01*
X224264Y397140D01*
X224897Y396315D01*
X225723Y395681D01*
X226685Y395283D01*
X227716Y395147D01*
X228748Y395283D01*
X229710Y395681D01*
X230536Y396315D01*
X231169Y397140D01*
X231568Y398102D01*
X231703Y399134D01*
X231568Y400166D01*
X231169Y401127D01*
X230536Y401953D01*
X229710Y402587D01*
X228748Y402985D01*
X227716Y403121D01*
D02*
G37*
G36*
X217717D02*
X216685Y402985D01*
X215723Y402587D01*
X214897Y401953D01*
X214264Y401127D01*
X213865Y400166D01*
X213730Y399134D01*
X213865Y398102D01*
X214264Y397140D01*
X214897Y396315D01*
X215723Y395681D01*
X216685Y395283D01*
X217717Y395147D01*
X218748Y395283D01*
X219710Y395681D01*
X220536Y396315D01*
X221169Y397140D01*
X221568Y398102D01*
X221703Y399134D01*
X221568Y400166D01*
X221169Y401127D01*
X220536Y401953D01*
X219710Y402587D01*
X218748Y402985D01*
X217717Y403121D01*
D02*
G37*
G36*
X19685D02*
X18653Y402985D01*
X17692Y402587D01*
X16866Y401953D01*
X16232Y401127D01*
X15834Y400166D01*
X15698Y399134D01*
X15834Y398102D01*
X16232Y397140D01*
X16866Y396315D01*
X17692Y395681D01*
X18653Y395283D01*
X19685Y395147D01*
X20717Y395283D01*
X21678Y395681D01*
X22504Y396315D01*
X23138Y397140D01*
X23536Y398102D01*
X23672Y399134D01*
X23536Y400166D01*
X23138Y401127D01*
X22504Y401953D01*
X21678Y402587D01*
X20717Y402985D01*
X19685Y403121D01*
D02*
G37*
G36*
X302362Y393121D02*
X301330Y392985D01*
X300369Y392587D01*
X299543Y391953D01*
X298909Y391127D01*
X298511Y390166D01*
X298375Y389134D01*
X298511Y388102D01*
X298909Y387140D01*
X299543Y386315D01*
X300369Y385681D01*
X301330Y385283D01*
X302362Y385147D01*
X303394Y385283D01*
X304356Y385681D01*
X305181Y386315D01*
X305815Y387140D01*
X306213Y388102D01*
X306349Y389134D01*
X306213Y390166D01*
X305815Y391127D01*
X305181Y391953D01*
X304356Y392587D01*
X303394Y392985D01*
X302362Y393121D01*
D02*
G37*
G36*
X227716D02*
X226685Y392985D01*
X225723Y392587D01*
X224897Y391953D01*
X224264Y391127D01*
X223866Y390166D01*
X223730Y389134D01*
X223866Y388102D01*
X224264Y387140D01*
X224897Y386315D01*
X225723Y385681D01*
X226685Y385283D01*
X227716Y385147D01*
X228748Y385283D01*
X229710Y385681D01*
X230536Y386315D01*
X231169Y387140D01*
X231568Y388102D01*
X231703Y389134D01*
X231568Y390166D01*
X231169Y391127D01*
X230536Y391953D01*
X229710Y392587D01*
X228748Y392985D01*
X227716Y393121D01*
D02*
G37*
G36*
X19685D02*
X18653Y392985D01*
X17692Y392587D01*
X16866Y391953D01*
X16232Y391127D01*
X15834Y390166D01*
X15698Y389134D01*
X15834Y388102D01*
X16232Y387140D01*
X16866Y386315D01*
X17692Y385681D01*
X18653Y385283D01*
X19685Y385147D01*
X20717Y385283D01*
X21678Y385681D01*
X22504Y386315D01*
X23138Y387140D01*
X23536Y388102D01*
X23672Y389134D01*
X23536Y390166D01*
X23138Y391127D01*
X22504Y391953D01*
X21678Y392587D01*
X20717Y392985D01*
X19685Y393121D01*
D02*
G37*
G36*
X248031Y413621D02*
X247359Y413532D01*
X246733Y413273D01*
X246195Y412860D01*
X245782Y412322D01*
X245523Y411696D01*
X245434Y411024D01*
X245482Y410659D01*
Y386585D01*
X245434Y386221D01*
X245523Y385548D01*
X245782Y384922D01*
X246195Y384384D01*
X246733Y383971D01*
X247359Y383712D01*
X248031Y383624D01*
X248704Y383712D01*
X249330Y383971D01*
X249868Y384384D01*
X250281Y384922D01*
X250540Y385548D01*
X250628Y386221D01*
X250581Y386585D01*
Y410659D01*
X250628Y411024D01*
X250540Y411696D01*
X250281Y412322D01*
X249868Y412860D01*
X249330Y413273D01*
X248704Y413532D01*
X248031Y413621D01*
D02*
G37*
G36*
X302362Y383121D02*
X301330Y382985D01*
X300369Y382587D01*
X299543Y381953D01*
X298909Y381127D01*
X298511Y380166D01*
X298375Y379134D01*
X298511Y378102D01*
X298909Y377140D01*
X299543Y376315D01*
X300369Y375681D01*
X301330Y375283D01*
X302362Y375147D01*
X303394Y375283D01*
X304356Y375681D01*
X305181Y376315D01*
X305815Y377140D01*
X306213Y378102D01*
X306349Y379134D01*
X306213Y380166D01*
X305815Y381127D01*
X305181Y381953D01*
X304356Y382587D01*
X303394Y382985D01*
X302362Y383121D01*
D02*
G37*
G36*
X227716D02*
X226685Y382985D01*
X225723Y382587D01*
X224897Y381953D01*
X224264Y381127D01*
X223866Y380166D01*
X223730Y379134D01*
X223866Y378102D01*
X224264Y377140D01*
X224897Y376315D01*
X225723Y375681D01*
X226685Y375283D01*
X227716Y375147D01*
X228748Y375283D01*
X229710Y375681D01*
X230536Y376315D01*
X231169Y377140D01*
X231568Y378102D01*
X231703Y379134D01*
X231568Y380166D01*
X231169Y381127D01*
X230536Y381953D01*
X229710Y382587D01*
X228748Y382985D01*
X227716Y383121D01*
D02*
G37*
G36*
X19685D02*
X18653Y382985D01*
X17692Y382587D01*
X16866Y381953D01*
X16232Y381127D01*
X15834Y380166D01*
X15698Y379134D01*
X15834Y378102D01*
X16232Y377140D01*
X16866Y376315D01*
X17692Y375681D01*
X18653Y375283D01*
X19685Y375147D01*
X20717Y375283D01*
X21678Y375681D01*
X22504Y376315D01*
X23138Y377140D01*
X23536Y378102D01*
X23672Y379134D01*
X23536Y380166D01*
X23138Y381127D01*
X22504Y381953D01*
X21678Y382587D01*
X20717Y382985D01*
X19685Y383121D01*
D02*
G37*
G36*
X302362Y373121D02*
X301330Y372985D01*
X300369Y372587D01*
X299543Y371953D01*
X298909Y371127D01*
X298511Y370166D01*
X298375Y369134D01*
X298511Y368102D01*
X298909Y367140D01*
X299543Y366315D01*
X300369Y365681D01*
X301330Y365283D01*
X302362Y365147D01*
X303394Y365283D01*
X304356Y365681D01*
X305181Y366315D01*
X305815Y367140D01*
X306213Y368102D01*
X306349Y369134D01*
X306213Y370166D01*
X305815Y371127D01*
X305181Y371953D01*
X304356Y372587D01*
X303394Y372985D01*
X302362Y373121D01*
D02*
G37*
G36*
X227716D02*
X226685Y372985D01*
X225723Y372587D01*
X224897Y371953D01*
X224264Y371127D01*
X223866Y370166D01*
X223730Y369134D01*
X223866Y368102D01*
X224264Y367140D01*
X224897Y366315D01*
X225723Y365681D01*
X226685Y365283D01*
X227716Y365147D01*
X228748Y365283D01*
X229710Y365681D01*
X230536Y366315D01*
X231169Y367140D01*
X231568Y368102D01*
X231703Y369134D01*
X231568Y370166D01*
X231169Y371127D01*
X230536Y371953D01*
X229710Y372587D01*
X228748Y372985D01*
X227716Y373121D01*
D02*
G37*
G36*
X217717D02*
X216685Y372985D01*
X215723Y372587D01*
X214897Y371953D01*
X214264Y371127D01*
X213865Y370166D01*
X213730Y369134D01*
X213865Y368102D01*
X214264Y367140D01*
X214897Y366315D01*
X215723Y365681D01*
X216685Y365283D01*
X217717Y365147D01*
X218748Y365283D01*
X219710Y365681D01*
X220536Y366315D01*
X221169Y367140D01*
X221568Y368102D01*
X221703Y369134D01*
X221568Y370166D01*
X221169Y371127D01*
X220536Y371953D01*
X219710Y372587D01*
X218748Y372985D01*
X217717Y373121D01*
D02*
G37*
G36*
X19685D02*
X18653Y372985D01*
X17692Y372587D01*
X16866Y371953D01*
X16232Y371127D01*
X15834Y370166D01*
X15698Y369134D01*
X15834Y368102D01*
X16232Y367140D01*
X16866Y366315D01*
X17692Y365681D01*
X18653Y365283D01*
X19685Y365147D01*
X20717Y365283D01*
X21678Y365681D01*
X22504Y366315D01*
X23138Y367140D01*
X23536Y368102D01*
X23672Y369134D01*
X23536Y370166D01*
X23138Y371127D01*
X22504Y371953D01*
X21678Y372587D01*
X20717Y372985D01*
X19685Y373121D01*
D02*
G37*
G36*
X302362Y363121D02*
X301330Y362985D01*
X300369Y362587D01*
X299543Y361953D01*
X298909Y361127D01*
X298511Y360166D01*
X298375Y359134D01*
X298511Y358102D01*
X298909Y357140D01*
X299543Y356315D01*
X300369Y355681D01*
X301330Y355283D01*
X302362Y355147D01*
X303394Y355283D01*
X304356Y355681D01*
X305181Y356315D01*
X305815Y357140D01*
X306213Y358102D01*
X306349Y359134D01*
X306213Y360166D01*
X305815Y361127D01*
X305181Y361953D01*
X304356Y362587D01*
X303394Y362985D01*
X302362Y363121D01*
D02*
G37*
G36*
X227716D02*
X226685Y362985D01*
X225723Y362587D01*
X224897Y361953D01*
X224264Y361127D01*
X223866Y360166D01*
X223730Y359134D01*
X223866Y358102D01*
X224264Y357140D01*
X224897Y356315D01*
X225723Y355681D01*
X226685Y355283D01*
X227716Y355147D01*
X228748Y355283D01*
X229710Y355681D01*
X230536Y356315D01*
X231169Y357140D01*
X231568Y358102D01*
X231703Y359134D01*
X231568Y360166D01*
X231169Y361127D01*
X230536Y361953D01*
X229710Y362587D01*
X228748Y362985D01*
X227716Y363121D01*
D02*
G37*
G36*
X217717D02*
X216685Y362985D01*
X215723Y362587D01*
X214897Y361953D01*
X214264Y361127D01*
X213865Y360166D01*
X213730Y359134D01*
X213865Y358102D01*
X214264Y357140D01*
X214897Y356315D01*
X215723Y355681D01*
X216685Y355283D01*
X217717Y355147D01*
X218748Y355283D01*
X219710Y355681D01*
X220536Y356315D01*
X221169Y357140D01*
X221568Y358102D01*
X221703Y359134D01*
X221568Y360166D01*
X221169Y361127D01*
X220536Y361953D01*
X219710Y362587D01*
X218748Y362985D01*
X217717Y363121D01*
D02*
G37*
G36*
X19685D02*
X18653Y362985D01*
X17692Y362587D01*
X16866Y361953D01*
X16232Y361127D01*
X15834Y360166D01*
X15698Y359134D01*
X15834Y358102D01*
X16232Y357140D01*
X16866Y356315D01*
X17692Y355681D01*
X18653Y355283D01*
X19685Y355147D01*
X20717Y355283D01*
X21678Y355681D01*
X22504Y356315D01*
X23138Y357140D01*
X23536Y358102D01*
X23672Y359134D01*
X23536Y360166D01*
X23138Y361127D01*
X22504Y361953D01*
X21678Y362587D01*
X20717Y362985D01*
X19685Y363121D01*
D02*
G37*
G36*
X302362Y353121D02*
X301330Y352985D01*
X300369Y352587D01*
X299543Y351953D01*
X298909Y351127D01*
X298511Y350166D01*
X298375Y349134D01*
X298511Y348102D01*
X298909Y347140D01*
X299543Y346315D01*
X300369Y345681D01*
X301330Y345283D01*
X302362Y345147D01*
X303394Y345283D01*
X304356Y345681D01*
X305181Y346315D01*
X305815Y347140D01*
X306213Y348102D01*
X306349Y349134D01*
X306213Y350166D01*
X305815Y351127D01*
X305181Y351953D01*
X304356Y352587D01*
X303394Y352985D01*
X302362Y353121D01*
D02*
G37*
G36*
X227716D02*
X226685Y352985D01*
X225723Y352587D01*
X224897Y351953D01*
X224264Y351127D01*
X223866Y350166D01*
X223730Y349134D01*
X223866Y348102D01*
X224264Y347140D01*
X224897Y346315D01*
X225723Y345681D01*
X226685Y345283D01*
X227716Y345147D01*
X228748Y345283D01*
X229710Y345681D01*
X230536Y346315D01*
X231169Y347140D01*
X231568Y348102D01*
X231703Y349134D01*
X231568Y350166D01*
X231169Y351127D01*
X230536Y351953D01*
X229710Y352587D01*
X228748Y352985D01*
X227716Y353121D01*
D02*
G37*
G36*
X217717D02*
X216685Y352985D01*
X215723Y352587D01*
X214897Y351953D01*
X214264Y351127D01*
X213865Y350166D01*
X213730Y349134D01*
X213865Y348102D01*
X214264Y347140D01*
X214897Y346315D01*
X215723Y345681D01*
X216685Y345283D01*
X217717Y345147D01*
X218748Y345283D01*
X219710Y345681D01*
X220536Y346315D01*
X221169Y347140D01*
X221568Y348102D01*
X221703Y349134D01*
X221568Y350166D01*
X221169Y351127D01*
X220536Y351953D01*
X219710Y352587D01*
X218748Y352985D01*
X217717Y353121D01*
D02*
G37*
G36*
X19685D02*
X18653Y352985D01*
X17692Y352587D01*
X16866Y351953D01*
X16232Y351127D01*
X15834Y350166D01*
X15698Y349134D01*
X15834Y348102D01*
X16232Y347140D01*
X16866Y346315D01*
X17692Y345681D01*
X18653Y345283D01*
X19685Y345147D01*
X20717Y345283D01*
X21678Y345681D01*
X22504Y346315D01*
X23138Y347140D01*
X23536Y348102D01*
X23672Y349134D01*
X23536Y350166D01*
X23138Y351127D01*
X22504Y351953D01*
X21678Y352587D01*
X20717Y352985D01*
X19685Y353121D01*
D02*
G37*
G36*
X302362Y343121D02*
X301330Y342985D01*
X300369Y342587D01*
X299543Y341953D01*
X298909Y341127D01*
X298511Y340166D01*
X298375Y339134D01*
X298511Y338102D01*
X298909Y337140D01*
X299543Y336315D01*
X300369Y335681D01*
X301330Y335283D01*
X302362Y335147D01*
X303394Y335283D01*
X304356Y335681D01*
X305181Y336315D01*
X305815Y337140D01*
X306213Y338102D01*
X306349Y339134D01*
X306213Y340166D01*
X305815Y341127D01*
X305181Y341953D01*
X304356Y342587D01*
X303394Y342985D01*
X302362Y343121D01*
D02*
G37*
G36*
X227716D02*
X226685Y342985D01*
X225723Y342587D01*
X224897Y341953D01*
X224264Y341127D01*
X223866Y340166D01*
X223730Y339134D01*
X223866Y338102D01*
X224264Y337140D01*
X224897Y336315D01*
X225723Y335681D01*
X226685Y335283D01*
X227716Y335147D01*
X228748Y335283D01*
X229710Y335681D01*
X230536Y336315D01*
X231169Y337140D01*
X231568Y338102D01*
X231703Y339134D01*
X231568Y340166D01*
X231169Y341127D01*
X230536Y341953D01*
X229710Y342587D01*
X228748Y342985D01*
X227716Y343121D01*
D02*
G37*
G36*
X217717D02*
X216685Y342985D01*
X215723Y342587D01*
X214897Y341953D01*
X214264Y341127D01*
X213865Y340166D01*
X213730Y339134D01*
X213865Y338102D01*
X214264Y337140D01*
X214897Y336315D01*
X215723Y335681D01*
X216685Y335283D01*
X217717Y335147D01*
X218748Y335283D01*
X219710Y335681D01*
X220536Y336315D01*
X221169Y337140D01*
X221568Y338102D01*
X221703Y339134D01*
X221568Y340166D01*
X221169Y341127D01*
X220536Y341953D01*
X219710Y342587D01*
X218748Y342985D01*
X217717Y343121D01*
D02*
G37*
G36*
X19685D02*
X18653Y342985D01*
X17692Y342587D01*
X16866Y341953D01*
X16232Y341127D01*
X15834Y340166D01*
X15698Y339134D01*
X15834Y338102D01*
X16232Y337140D01*
X16866Y336315D01*
X17692Y335681D01*
X18653Y335283D01*
X19685Y335147D01*
X20717Y335283D01*
X21678Y335681D01*
X22504Y336315D01*
X23138Y337140D01*
X23536Y338102D01*
X23672Y339134D01*
X23536Y340166D01*
X23138Y341127D01*
X22504Y341953D01*
X21678Y342587D01*
X20717Y342985D01*
X19685Y343121D01*
D02*
G37*
G36*
X89780Y314189D02*
X81874D01*
Y306283D01*
X89780D01*
Y314189D01*
D02*
G37*
G36*
X175827Y314223D02*
X174795Y314087D01*
X173833Y313689D01*
X173008Y313055D01*
X172374Y312230D01*
X171976Y311268D01*
X171840Y310236D01*
X171976Y309204D01*
X172374Y308243D01*
X173008Y307417D01*
X173833Y306784D01*
X174795Y306385D01*
X175827Y306249D01*
X176859Y306385D01*
X177820Y306784D01*
X178646Y307417D01*
X179279Y308243D01*
X179678Y309204D01*
X179814Y310236D01*
X179678Y311268D01*
X179279Y312230D01*
X178646Y313055D01*
X177820Y313689D01*
X176859Y314087D01*
X175827Y314223D01*
D02*
G37*
G36*
X135827D02*
X134795Y314087D01*
X133833Y313689D01*
X133008Y313055D01*
X132374Y312230D01*
X131976Y311268D01*
X131840Y310236D01*
X131976Y309204D01*
X132374Y308243D01*
X133008Y307417D01*
X133833Y306784D01*
X134795Y306385D01*
X135827Y306249D01*
X136859Y306385D01*
X137820Y306784D01*
X138646Y307417D01*
X139279Y308243D01*
X139678Y309204D01*
X139814Y310236D01*
X139678Y311268D01*
X139279Y312230D01*
X138646Y313055D01*
X137820Y313689D01*
X136859Y314087D01*
X135827Y314223D01*
D02*
G37*
G36*
X165827Y314223D02*
X164795Y314087D01*
X163833Y313689D01*
X163008Y313055D01*
X162374Y312230D01*
X161976Y311268D01*
X161840Y310236D01*
X161976Y309204D01*
X162374Y308243D01*
X163008Y307417D01*
X163833Y306784D01*
X164795Y306385D01*
X165827Y306249D01*
X166859Y306385D01*
X167820Y306784D01*
X168646Y307417D01*
X169280Y308243D01*
X169678Y309204D01*
X169814Y310236D01*
X169678Y311268D01*
X169280Y312230D01*
X168646Y313055D01*
X167820Y313689D01*
X166859Y314087D01*
X165827Y314223D01*
D02*
G37*
G36*
X155827D02*
X154795Y314087D01*
X153833Y313689D01*
X153008Y313055D01*
X152374Y312230D01*
X151976Y311268D01*
X151840Y310236D01*
X151976Y309204D01*
X152374Y308243D01*
X153008Y307417D01*
X153833Y306784D01*
X154795Y306385D01*
X155827Y306249D01*
X156859Y306385D01*
X157820Y306784D01*
X158646Y307417D01*
X159280Y308243D01*
X159678Y309204D01*
X159814Y310236D01*
X159678Y311268D01*
X159280Y312230D01*
X158646Y313055D01*
X157820Y313689D01*
X156859Y314087D01*
X155827Y314223D01*
D02*
G37*
G36*
X145827D02*
X144795Y314087D01*
X143833Y313689D01*
X143008Y313055D01*
X142374Y312230D01*
X141976Y311268D01*
X141840Y310236D01*
X141976Y309204D01*
X142374Y308243D01*
X143008Y307417D01*
X143833Y306784D01*
X144795Y306385D01*
X145827Y306249D01*
X146859Y306385D01*
X147820Y306784D01*
X148646Y307417D01*
X149279Y308243D01*
X149678Y309204D01*
X149814Y310236D01*
X149678Y311268D01*
X149279Y312230D01*
X148646Y313055D01*
X147820Y313689D01*
X146859Y314087D01*
X145827Y314223D01*
D02*
G37*
G36*
X115827D02*
X114795Y314087D01*
X113833Y313689D01*
X113008Y313055D01*
X112374Y312230D01*
X111976Y311268D01*
X111840Y310236D01*
X111976Y309204D01*
X112374Y308243D01*
X113008Y307417D01*
X113833Y306784D01*
X114795Y306385D01*
X115827Y306249D01*
X116859Y306385D01*
X117820Y306784D01*
X118646Y307417D01*
X119280Y308243D01*
X119678Y309204D01*
X119814Y310236D01*
X119678Y311268D01*
X119280Y312230D01*
X118646Y313055D01*
X117820Y313689D01*
X116859Y314087D01*
X115827Y314223D01*
D02*
G37*
G36*
X105827D02*
X104795Y314087D01*
X103833Y313689D01*
X103008Y313055D01*
X102374Y312230D01*
X101976Y311268D01*
X101840Y310236D01*
X101976Y309204D01*
X102374Y308243D01*
X103008Y307417D01*
X103833Y306784D01*
X104795Y306385D01*
X105827Y306249D01*
X106859Y306385D01*
X107820Y306784D01*
X108646Y307417D01*
X109280Y308243D01*
X109678Y309204D01*
X109814Y310236D01*
X109678Y311268D01*
X109280Y312230D01*
X108646Y313055D01*
X107820Y313689D01*
X106859Y314087D01*
X105827Y314223D01*
D02*
G37*
G36*
X95827D02*
X94795Y314087D01*
X93833Y313689D01*
X93008Y313055D01*
X92374Y312230D01*
X91976Y311268D01*
X91840Y310236D01*
X91976Y309204D01*
X92374Y308243D01*
X93008Y307417D01*
X93833Y306784D01*
X94795Y306385D01*
X95827Y306249D01*
X96859Y306385D01*
X97820Y306784D01*
X98646Y307417D01*
X99279Y308243D01*
X99678Y309204D01*
X99814Y310236D01*
X99678Y311268D01*
X99279Y312230D01*
X98646Y313055D01*
X97820Y313689D01*
X96859Y314087D01*
X95827Y314223D01*
D02*
G37*
G36*
X125827Y314223D02*
X124795Y314087D01*
X123833Y313689D01*
X123008Y313055D01*
X122374Y312230D01*
X121976Y311268D01*
X121840Y310236D01*
X121976Y309204D01*
X122374Y308243D01*
X123008Y307417D01*
X123833Y306784D01*
X124795Y306385D01*
X125827Y306249D01*
X126859Y306385D01*
X127820Y306784D01*
X128646Y307417D01*
X129279Y308243D01*
X129678Y309204D01*
X129814Y310236D01*
X129678Y311268D01*
X129279Y312230D01*
X128646Y313055D01*
X127820Y313689D01*
X126859Y314087D01*
X125827Y314223D01*
D02*
G37*
G36*
X280394Y287845D02*
X279362Y287709D01*
X278400Y287311D01*
X277575Y286677D01*
X276941Y285852D01*
X276543Y284890D01*
X276407Y283858D01*
X276543Y282826D01*
X276941Y281865D01*
X277575Y281039D01*
X278400Y280406D01*
X279362Y280007D01*
X280394Y279871D01*
X281426Y280007D01*
X282387Y280406D01*
X283213Y281039D01*
X283846Y281865D01*
X284245Y282826D01*
X284381Y283858D01*
X284245Y284890D01*
X283846Y285852D01*
X283213Y286677D01*
X282387Y287311D01*
X281426Y287709D01*
X280394Y287845D01*
D02*
G37*
G36*
X270394D02*
X269362Y287709D01*
X268400Y287311D01*
X267575Y286677D01*
X266941Y285852D01*
X266543Y284890D01*
X266407Y283858D01*
X266543Y282826D01*
X266941Y281865D01*
X267575Y281039D01*
X268400Y280406D01*
X269362Y280007D01*
X270394Y279871D01*
X271426Y280007D01*
X272387Y280406D01*
X273213Y281039D01*
X273846Y281865D01*
X274245Y282826D01*
X274381Y283858D01*
X274245Y284890D01*
X273846Y285852D01*
X273213Y286677D01*
X272387Y287311D01*
X271426Y287709D01*
X270394Y287845D01*
D02*
G37*
G36*
X260394D02*
X259362Y287709D01*
X258400Y287311D01*
X257575Y286677D01*
X256941Y285852D01*
X256543Y284890D01*
X256407Y283858D01*
X256543Y282826D01*
X256941Y281865D01*
X257575Y281039D01*
X258400Y280406D01*
X259362Y280007D01*
X260394Y279871D01*
X261426Y280007D01*
X262387Y280406D01*
X263213Y281039D01*
X263846Y281865D01*
X264245Y282826D01*
X264381Y283858D01*
X264245Y284890D01*
X263846Y285852D01*
X263213Y286677D01*
X262387Y287311D01*
X261426Y287709D01*
X260394Y287845D01*
D02*
G37*
G36*
X250394D02*
X249362Y287709D01*
X248400Y287311D01*
X247575Y286677D01*
X246941Y285852D01*
X246543Y284890D01*
X246407Y283858D01*
X246543Y282826D01*
X246941Y281865D01*
X247575Y281039D01*
X248400Y280406D01*
X249362Y280007D01*
X250394Y279871D01*
X251426Y280007D01*
X252387Y280406D01*
X253213Y281039D01*
X253846Y281865D01*
X254245Y282826D01*
X254381Y283858D01*
X254245Y284890D01*
X253846Y285852D01*
X253213Y286677D01*
X252387Y287311D01*
X251426Y287709D01*
X250394Y287845D01*
D02*
G37*
G36*
X240394D02*
X239362Y287709D01*
X238400Y287311D01*
X237575Y286677D01*
X236941Y285852D01*
X236543Y284890D01*
X236407Y283858D01*
X236543Y282826D01*
X236941Y281865D01*
X237575Y281039D01*
X238400Y280406D01*
X239362Y280007D01*
X240394Y279871D01*
X241426Y280007D01*
X242387Y280406D01*
X243213Y281039D01*
X243846Y281865D01*
X244245Y282826D01*
X244380Y283858D01*
X244245Y284890D01*
X243846Y285852D01*
X243213Y286677D01*
X242387Y287311D01*
X241426Y287709D01*
X240394Y287845D01*
D02*
G37*
G36*
X220394D02*
X219362Y287709D01*
X218400Y287311D01*
X217575Y286677D01*
X216941Y285852D01*
X216543Y284890D01*
X216407Y283858D01*
X216543Y282826D01*
X216941Y281865D01*
X217575Y281039D01*
X218400Y280406D01*
X219362Y280007D01*
X220394Y279871D01*
X221426Y280007D01*
X222387Y280406D01*
X223213Y281039D01*
X223846Y281865D01*
X224245Y282826D01*
X224381Y283858D01*
X224245Y284890D01*
X223846Y285852D01*
X223213Y286677D01*
X222387Y287311D01*
X221426Y287709D01*
X220394Y287845D01*
D02*
G37*
G36*
X210394D02*
X209362Y287709D01*
X208400Y287311D01*
X207575Y286677D01*
X206941Y285852D01*
X206543Y284890D01*
X206407Y283858D01*
X206543Y282826D01*
X206941Y281865D01*
X207575Y281039D01*
X208400Y280406D01*
X209362Y280007D01*
X210394Y279871D01*
X211426Y280007D01*
X212387Y280406D01*
X213213Y281039D01*
X213846Y281865D01*
X214245Y282826D01*
X214381Y283858D01*
X214245Y284890D01*
X213846Y285852D01*
X213213Y286677D01*
X212387Y287311D01*
X211426Y287709D01*
X210394Y287845D01*
D02*
G37*
G36*
X190394D02*
X189362Y287709D01*
X188400Y287311D01*
X187575Y286677D01*
X186941Y285852D01*
X186543Y284890D01*
X186407Y283858D01*
X186543Y282826D01*
X186941Y281865D01*
X187575Y281039D01*
X188400Y280406D01*
X189362Y280007D01*
X190394Y279871D01*
X191426Y280007D01*
X192387Y280406D01*
X193213Y281039D01*
X193846Y281865D01*
X194245Y282826D01*
X194381Y283858D01*
X194245Y284890D01*
X193846Y285852D01*
X193213Y286677D01*
X192387Y287311D01*
X191426Y287709D01*
X190394Y287845D01*
D02*
G37*
G36*
X180394D02*
X179362Y287709D01*
X178400Y287311D01*
X177575Y286677D01*
X176941Y285852D01*
X176543Y284890D01*
X176407Y283858D01*
X176543Y282826D01*
X176941Y281865D01*
X177575Y281039D01*
X178400Y280406D01*
X179362Y280007D01*
X180394Y279871D01*
X181426Y280007D01*
X182387Y280406D01*
X183213Y281039D01*
X183846Y281865D01*
X184245Y282826D01*
X184381Y283858D01*
X184245Y284890D01*
X183846Y285852D01*
X183213Y286677D01*
X182387Y287311D01*
X181426Y287709D01*
X180394Y287845D01*
D02*
G37*
G36*
X170394D02*
X169362Y287709D01*
X168400Y287311D01*
X167575Y286677D01*
X166941Y285852D01*
X166543Y284890D01*
X166407Y283858D01*
X166543Y282826D01*
X166941Y281865D01*
X167575Y281039D01*
X168400Y280406D01*
X169362Y280007D01*
X170394Y279871D01*
X171426Y280007D01*
X172387Y280406D01*
X173213Y281039D01*
X173846Y281865D01*
X174245Y282826D01*
X174381Y283858D01*
X174245Y284890D01*
X173846Y285852D01*
X173213Y286677D01*
X172387Y287311D01*
X171426Y287709D01*
X170394Y287845D01*
D02*
G37*
G36*
X160394D02*
X159362Y287709D01*
X158400Y287311D01*
X157575Y286677D01*
X156941Y285852D01*
X156543Y284890D01*
X156407Y283858D01*
X156543Y282826D01*
X156941Y281865D01*
X157575Y281039D01*
X158400Y280406D01*
X159362Y280007D01*
X160394Y279871D01*
X161426Y280007D01*
X162387Y280406D01*
X163213Y281039D01*
X163846Y281865D01*
X164245Y282826D01*
X164381Y283858D01*
X164245Y284890D01*
X163846Y285852D01*
X163213Y286677D01*
X162387Y287311D01*
X161426Y287709D01*
X160394Y287845D01*
D02*
G37*
G36*
X130394D02*
X129362Y287709D01*
X128400Y287311D01*
X127575Y286677D01*
X126941Y285852D01*
X126543Y284890D01*
X126407Y283858D01*
X126543Y282826D01*
X126941Y281865D01*
X127575Y281039D01*
X128400Y280406D01*
X129362Y280007D01*
X130394Y279871D01*
X131426Y280007D01*
X132387Y280406D01*
X133213Y281039D01*
X133846Y281865D01*
X134245Y282826D01*
X134381Y283858D01*
X134245Y284890D01*
X133846Y285852D01*
X133213Y286677D01*
X132387Y287311D01*
X131426Y287709D01*
X130394Y287845D01*
D02*
G37*
G36*
X120394D02*
X119362Y287709D01*
X118400Y287311D01*
X117575Y286677D01*
X116941Y285852D01*
X116543Y284890D01*
X116407Y283858D01*
X116543Y282826D01*
X116941Y281865D01*
X117575Y281039D01*
X118400Y280406D01*
X119362Y280007D01*
X120394Y279871D01*
X121426Y280007D01*
X122387Y280406D01*
X123213Y281039D01*
X123846Y281865D01*
X124245Y282826D01*
X124381Y283858D01*
X124245Y284890D01*
X123846Y285852D01*
X123213Y286677D01*
X122387Y287311D01*
X121426Y287709D01*
X120394Y287845D01*
D02*
G37*
G36*
X110394D02*
X109362Y287709D01*
X108400Y287311D01*
X107575Y286677D01*
X106941Y285852D01*
X106543Y284890D01*
X106407Y283858D01*
X106543Y282826D01*
X106941Y281865D01*
X107575Y281039D01*
X108400Y280406D01*
X109362Y280007D01*
X110394Y279871D01*
X111426Y280007D01*
X112387Y280406D01*
X113213Y281039D01*
X113846Y281865D01*
X114245Y282826D01*
X114381Y283858D01*
X114245Y284890D01*
X113846Y285852D01*
X113213Y286677D01*
X112387Y287311D01*
X111426Y287709D01*
X110394Y287845D01*
D02*
G37*
G36*
X290394Y287845D02*
X289362Y287709D01*
X288400Y287311D01*
X287575Y286677D01*
X286941Y285852D01*
X286543Y284890D01*
X286407Y283858D01*
X286543Y282826D01*
X286941Y281865D01*
X287575Y281039D01*
X288400Y280405D01*
X289362Y280007D01*
X290394Y279871D01*
X291426Y280007D01*
X292387Y280405D01*
X293213Y281039D01*
X293846Y281865D01*
X294245Y282826D01*
X294381Y283858D01*
X294245Y284890D01*
X293846Y285852D01*
X293213Y286677D01*
X292387Y287311D01*
X291426Y287709D01*
X290394Y287845D01*
D02*
G37*
G36*
X230394D02*
X229362Y287709D01*
X228400Y287311D01*
X227575Y286677D01*
X226941Y285852D01*
X226543Y284890D01*
X226407Y283858D01*
X226543Y282826D01*
X226941Y281865D01*
X227575Y281039D01*
X228400Y280405D01*
X229362Y280007D01*
X230394Y279871D01*
X231426Y280007D01*
X232387Y280405D01*
X233213Y281039D01*
X233846Y281865D01*
X234245Y282826D01*
X234381Y283858D01*
X234245Y284890D01*
X233846Y285852D01*
X233213Y286677D01*
X232387Y287311D01*
X231426Y287709D01*
X230394Y287845D01*
D02*
G37*
G36*
X200394D02*
X199362Y287709D01*
X198400Y287311D01*
X197575Y286677D01*
X196941Y285852D01*
X196543Y284890D01*
X196407Y283858D01*
X196543Y282826D01*
X196941Y281865D01*
X197575Y281039D01*
X198400Y280405D01*
X199362Y280007D01*
X200394Y279871D01*
X201426Y280007D01*
X202387Y280405D01*
X203213Y281039D01*
X203846Y281865D01*
X204245Y282826D01*
X204381Y283858D01*
X204245Y284890D01*
X203846Y285852D01*
X203213Y286677D01*
X202387Y287311D01*
X201426Y287709D01*
X200394Y287845D01*
D02*
G37*
G36*
X150394D02*
X149362Y287709D01*
X148400Y287311D01*
X147574Y286677D01*
X146941Y285852D01*
X146543Y284890D01*
X146407Y283858D01*
X146543Y282826D01*
X146941Y281865D01*
X147574Y281039D01*
X148400Y280405D01*
X149362Y280007D01*
X150394Y279871D01*
X151426Y280007D01*
X152387Y280405D01*
X153213Y281039D01*
X153846Y281865D01*
X154245Y282826D01*
X154381Y283858D01*
X154245Y284890D01*
X153846Y285852D01*
X153213Y286677D01*
X152387Y287311D01*
X151426Y287709D01*
X150394Y287845D01*
D02*
G37*
G36*
X140394D02*
X139362Y287709D01*
X138400Y287311D01*
X137575Y286677D01*
X136941Y285852D01*
X136543Y284890D01*
X136407Y283858D01*
X136543Y282826D01*
X136941Y281865D01*
X137575Y281039D01*
X138400Y280405D01*
X139362Y280007D01*
X140394Y279871D01*
X141426Y280007D01*
X142387Y280405D01*
X143213Y281039D01*
X143846Y281865D01*
X144245Y282826D01*
X144381Y283858D01*
X144245Y284890D01*
X143846Y285852D01*
X143213Y286677D01*
X142387Y287311D01*
X141426Y287709D01*
X140394Y287845D01*
D02*
G37*
G36*
X290394Y277845D02*
X289362Y277709D01*
X288400Y277311D01*
X287575Y276677D01*
X286941Y275852D01*
X286543Y274890D01*
X286407Y273858D01*
X286543Y272826D01*
X286941Y271865D01*
X287575Y271039D01*
X288400Y270406D01*
X289362Y270007D01*
X290394Y269871D01*
X291426Y270007D01*
X292387Y270406D01*
X293213Y271039D01*
X293846Y271865D01*
X294245Y272826D01*
X294381Y273858D01*
X294245Y274890D01*
X293846Y275852D01*
X293213Y276677D01*
X292387Y277311D01*
X291426Y277709D01*
X290394Y277845D01*
D02*
G37*
G36*
X280394D02*
X279362Y277709D01*
X278400Y277311D01*
X277575Y276677D01*
X276941Y275852D01*
X276543Y274890D01*
X276407Y273858D01*
X276543Y272826D01*
X276941Y271865D01*
X277575Y271039D01*
X278400Y270406D01*
X279362Y270007D01*
X280394Y269871D01*
X281426Y270007D01*
X282387Y270406D01*
X283213Y271039D01*
X283846Y271865D01*
X284245Y272826D01*
X284381Y273858D01*
X284245Y274890D01*
X283846Y275852D01*
X283213Y276677D01*
X282387Y277311D01*
X281426Y277709D01*
X280394Y277845D01*
D02*
G37*
G36*
X270394D02*
X269362Y277709D01*
X268400Y277311D01*
X267575Y276677D01*
X266941Y275852D01*
X266543Y274890D01*
X266407Y273858D01*
X266543Y272826D01*
X266941Y271865D01*
X267575Y271039D01*
X268400Y270406D01*
X269362Y270007D01*
X270394Y269871D01*
X271426Y270007D01*
X272387Y270406D01*
X273213Y271039D01*
X273846Y271865D01*
X274245Y272826D01*
X274381Y273858D01*
X274245Y274890D01*
X273846Y275852D01*
X273213Y276677D01*
X272387Y277311D01*
X271426Y277709D01*
X270394Y277845D01*
D02*
G37*
G36*
X260394D02*
X259362Y277709D01*
X258400Y277311D01*
X257575Y276677D01*
X256941Y275852D01*
X256543Y274890D01*
X256407Y273858D01*
X256543Y272826D01*
X256941Y271865D01*
X257575Y271039D01*
X258400Y270406D01*
X259362Y270007D01*
X260394Y269871D01*
X261426Y270007D01*
X262387Y270406D01*
X263213Y271039D01*
X263846Y271865D01*
X264245Y272826D01*
X264381Y273858D01*
X264245Y274890D01*
X263846Y275852D01*
X263213Y276677D01*
X262387Y277311D01*
X261426Y277709D01*
X260394Y277845D01*
D02*
G37*
G36*
X250394D02*
X249362Y277709D01*
X248400Y277311D01*
X247575Y276677D01*
X246941Y275852D01*
X246543Y274890D01*
X246407Y273858D01*
X246543Y272826D01*
X246941Y271865D01*
X247575Y271039D01*
X248400Y270406D01*
X249362Y270007D01*
X250394Y269871D01*
X251426Y270007D01*
X252387Y270406D01*
X253213Y271039D01*
X253846Y271865D01*
X254245Y272826D01*
X254381Y273858D01*
X254245Y274890D01*
X253846Y275852D01*
X253213Y276677D01*
X252387Y277311D01*
X251426Y277709D01*
X250394Y277845D01*
D02*
G37*
G36*
X240394D02*
X239362Y277709D01*
X238400Y277311D01*
X237575Y276677D01*
X236941Y275852D01*
X236543Y274890D01*
X236407Y273858D01*
X236543Y272826D01*
X236941Y271865D01*
X237575Y271039D01*
X238400Y270406D01*
X239362Y270007D01*
X240394Y269871D01*
X241426Y270007D01*
X242387Y270406D01*
X243213Y271039D01*
X243846Y271865D01*
X244245Y272826D01*
X244381Y273858D01*
X244245Y274890D01*
X243846Y275852D01*
X243213Y276677D01*
X242387Y277311D01*
X241426Y277709D01*
X240394Y277845D01*
D02*
G37*
G36*
X230394D02*
X229362Y277709D01*
X228400Y277311D01*
X227575Y276677D01*
X226941Y275852D01*
X226543Y274890D01*
X226407Y273858D01*
X226543Y272826D01*
X226941Y271865D01*
X227575Y271039D01*
X228400Y270406D01*
X229362Y270007D01*
X230394Y269871D01*
X231426Y270007D01*
X232387Y270406D01*
X233213Y271039D01*
X233846Y271865D01*
X234245Y272826D01*
X234381Y273858D01*
X234245Y274890D01*
X233846Y275852D01*
X233213Y276677D01*
X232387Y277311D01*
X231426Y277709D01*
X230394Y277845D01*
D02*
G37*
G36*
X220394D02*
X219362Y277709D01*
X218400Y277311D01*
X217575Y276677D01*
X216941Y275852D01*
X216543Y274890D01*
X216407Y273858D01*
X216543Y272826D01*
X216941Y271865D01*
X217575Y271039D01*
X218400Y270406D01*
X219362Y270007D01*
X220394Y269871D01*
X221426Y270007D01*
X222387Y270406D01*
X223213Y271039D01*
X223846Y271865D01*
X224245Y272826D01*
X224381Y273858D01*
X224245Y274890D01*
X223846Y275852D01*
X223213Y276677D01*
X222387Y277311D01*
X221426Y277709D01*
X220394Y277845D01*
D02*
G37*
G36*
X210394D02*
X209362Y277709D01*
X208400Y277311D01*
X207575Y276677D01*
X206941Y275852D01*
X206543Y274890D01*
X206407Y273858D01*
X206543Y272826D01*
X206941Y271865D01*
X207575Y271039D01*
X208400Y270406D01*
X209362Y270007D01*
X210394Y269871D01*
X211426Y270007D01*
X212387Y270406D01*
X213213Y271039D01*
X213846Y271865D01*
X214245Y272826D01*
X214381Y273858D01*
X214245Y274890D01*
X213846Y275852D01*
X213213Y276677D01*
X212387Y277311D01*
X211426Y277709D01*
X210394Y277845D01*
D02*
G37*
G36*
X200394D02*
X199362Y277709D01*
X198400Y277311D01*
X197575Y276677D01*
X196941Y275852D01*
X196543Y274890D01*
X196407Y273858D01*
X196543Y272826D01*
X196941Y271865D01*
X197575Y271039D01*
X198400Y270406D01*
X199362Y270007D01*
X200394Y269871D01*
X201426Y270007D01*
X202387Y270406D01*
X203213Y271039D01*
X203846Y271865D01*
X204245Y272826D01*
X204381Y273858D01*
X204245Y274890D01*
X203846Y275852D01*
X203213Y276677D01*
X202387Y277311D01*
X201426Y277709D01*
X200394Y277845D01*
D02*
G37*
G36*
X190394D02*
X189362Y277709D01*
X188400Y277311D01*
X187575Y276677D01*
X186941Y275852D01*
X186543Y274890D01*
X186407Y273858D01*
X186543Y272826D01*
X186941Y271865D01*
X187575Y271039D01*
X188400Y270406D01*
X189362Y270007D01*
X190394Y269871D01*
X191426Y270007D01*
X192387Y270406D01*
X193213Y271039D01*
X193846Y271865D01*
X194245Y272826D01*
X194381Y273858D01*
X194245Y274890D01*
X193846Y275852D01*
X193213Y276677D01*
X192387Y277311D01*
X191426Y277709D01*
X190394Y277845D01*
D02*
G37*
G36*
X180394D02*
X179362Y277709D01*
X178400Y277311D01*
X177575Y276677D01*
X176941Y275852D01*
X176543Y274890D01*
X176407Y273858D01*
X176543Y272826D01*
X176941Y271865D01*
X177575Y271039D01*
X178400Y270406D01*
X179362Y270007D01*
X180394Y269871D01*
X181426Y270007D01*
X182387Y270406D01*
X183213Y271039D01*
X183846Y271865D01*
X184245Y272826D01*
X184381Y273858D01*
X184245Y274890D01*
X183846Y275852D01*
X183213Y276677D01*
X182387Y277311D01*
X181426Y277709D01*
X180394Y277845D01*
D02*
G37*
G36*
X170394D02*
X169362Y277709D01*
X168400Y277311D01*
X167575Y276677D01*
X166941Y275852D01*
X166543Y274890D01*
X166407Y273858D01*
X166543Y272826D01*
X166941Y271865D01*
X167575Y271039D01*
X168400Y270406D01*
X169362Y270007D01*
X170394Y269871D01*
X171426Y270007D01*
X172387Y270406D01*
X173213Y271039D01*
X173846Y271865D01*
X174245Y272826D01*
X174381Y273858D01*
X174245Y274890D01*
X173846Y275852D01*
X173213Y276677D01*
X172387Y277311D01*
X171426Y277709D01*
X170394Y277845D01*
D02*
G37*
G36*
X160394D02*
X159362Y277709D01*
X158400Y277311D01*
X157575Y276677D01*
X156941Y275852D01*
X156543Y274890D01*
X156407Y273858D01*
X156543Y272826D01*
X156941Y271865D01*
X157575Y271039D01*
X158400Y270406D01*
X159362Y270007D01*
X160394Y269871D01*
X161426Y270007D01*
X162387Y270406D01*
X163213Y271039D01*
X163846Y271865D01*
X164245Y272826D01*
X164381Y273858D01*
X164245Y274890D01*
X163846Y275852D01*
X163213Y276677D01*
X162387Y277311D01*
X161426Y277709D01*
X160394Y277845D01*
D02*
G37*
G36*
X150394D02*
X149362Y277709D01*
X148400Y277311D01*
X147575Y276677D01*
X146941Y275852D01*
X146543Y274890D01*
X146407Y273858D01*
X146543Y272826D01*
X146941Y271865D01*
X147575Y271039D01*
X148400Y270406D01*
X149362Y270007D01*
X150394Y269871D01*
X151426Y270007D01*
X152387Y270406D01*
X153213Y271039D01*
X153846Y271865D01*
X154245Y272826D01*
X154381Y273858D01*
X154245Y274890D01*
X153846Y275852D01*
X153213Y276677D01*
X152387Y277311D01*
X151426Y277709D01*
X150394Y277845D01*
D02*
G37*
G36*
X140394D02*
X139362Y277709D01*
X138400Y277311D01*
X137575Y276677D01*
X136941Y275852D01*
X136543Y274890D01*
X136407Y273858D01*
X136543Y272826D01*
X136941Y271865D01*
X137575Y271039D01*
X138400Y270406D01*
X139362Y270007D01*
X140394Y269871D01*
X141426Y270007D01*
X142387Y270406D01*
X143213Y271039D01*
X143846Y271865D01*
X144245Y272826D01*
X144381Y273858D01*
X144245Y274890D01*
X143846Y275852D01*
X143213Y276677D01*
X142387Y277311D01*
X141426Y277709D01*
X140394Y277845D01*
D02*
G37*
G36*
X130394D02*
X129362Y277709D01*
X128400Y277311D01*
X127575Y276677D01*
X126941Y275852D01*
X126543Y274890D01*
X126407Y273858D01*
X126543Y272826D01*
X126941Y271865D01*
X127575Y271039D01*
X128400Y270406D01*
X129362Y270007D01*
X130394Y269871D01*
X131426Y270007D01*
X132387Y270406D01*
X133213Y271039D01*
X133846Y271865D01*
X134245Y272826D01*
X134381Y273858D01*
X134245Y274890D01*
X133846Y275852D01*
X133213Y276677D01*
X132387Y277311D01*
X131426Y277709D01*
X130394Y277845D01*
D02*
G37*
G36*
X120394D02*
X119362Y277709D01*
X118400Y277311D01*
X117575Y276677D01*
X116941Y275852D01*
X116543Y274890D01*
X116407Y273858D01*
X116543Y272826D01*
X116941Y271865D01*
X117575Y271039D01*
X118400Y270406D01*
X119362Y270007D01*
X120394Y269871D01*
X121426Y270007D01*
X122387Y270406D01*
X123213Y271039D01*
X123846Y271865D01*
X124245Y272826D01*
X124381Y273858D01*
X124245Y274890D01*
X123846Y275852D01*
X123213Y276677D01*
X122387Y277311D01*
X121426Y277709D01*
X120394Y277845D01*
D02*
G37*
G36*
X110394D02*
X109362Y277709D01*
X108400Y277311D01*
X107575Y276677D01*
X106941Y275852D01*
X106543Y274890D01*
X106407Y273858D01*
X106543Y272826D01*
X106941Y271865D01*
X107575Y271039D01*
X108400Y270406D01*
X109362Y270007D01*
X110394Y269871D01*
X111426Y270007D01*
X112387Y270406D01*
X113213Y271039D01*
X113846Y271865D01*
X114245Y272826D01*
X114381Y273858D01*
X114245Y274890D01*
X113846Y275852D01*
X113213Y276677D01*
X112387Y277311D01*
X111426Y277709D01*
X110394Y277845D01*
D02*
G37*
G36*
X64331Y274317D02*
X44331D01*
X43548Y274214D01*
X42818Y273912D01*
X42191Y273431D01*
X41710Y272804D01*
X41408Y272075D01*
X41305Y271291D01*
Y267291D01*
X41408Y266508D01*
X41710Y265778D01*
X42191Y265152D01*
X42818Y264671D01*
X43548Y264369D01*
X44331Y264265D01*
X64331D01*
X65114Y264369D01*
X65844Y264671D01*
X66470Y265152D01*
X66951Y265778D01*
X67254Y266508D01*
X67357Y267291D01*
Y271291D01*
X67254Y272075D01*
X66951Y272804D01*
X66470Y273431D01*
X65844Y273912D01*
X65114Y274214D01*
X64331Y274317D01*
D02*
G37*
G36*
X104347Y287811D02*
X96441D01*
Y279906D01*
X97845D01*
Y276885D01*
X97575Y276677D01*
X96941Y275852D01*
X96543Y274890D01*
X96407Y273858D01*
X96543Y272826D01*
X96941Y271865D01*
X97575Y271039D01*
X98400Y270406D01*
X99362Y270007D01*
X100394Y269871D01*
X100731Y269916D01*
X119300Y251347D01*
X120127Y250795D01*
X121102Y250601D01*
X132563D01*
Y250378D01*
X138303D01*
Y250601D01*
X142405D01*
Y250378D01*
X148146D01*
Y250601D01*
X191367D01*
X191732Y250553D01*
X192404Y250641D01*
X193031Y250901D01*
X193569Y251313D01*
X193981Y251851D01*
X194241Y252477D01*
X194329Y253150D01*
X194241Y253822D01*
X193981Y254448D01*
X193569Y254986D01*
X193031Y255399D01*
X192404Y255658D01*
X191732Y255747D01*
X191367Y255699D01*
X148146D01*
Y255921D01*
X142405D01*
Y255699D01*
X138303D01*
Y255921D01*
X132563D01*
Y255699D01*
X122158D01*
X104336Y273521D01*
X104381Y273858D01*
X104245Y274890D01*
X103846Y275852D01*
X103213Y276677D01*
X102943Y276885D01*
Y279906D01*
X104347D01*
Y287811D01*
D02*
G37*
G36*
X148146Y248638D02*
X142405D01*
Y243094D01*
X148146D01*
Y248638D01*
D02*
G37*
G36*
X138303D02*
X132563D01*
Y243094D01*
X138303D01*
Y248638D01*
D02*
G37*
G36*
X62657Y202058D02*
X61626Y201922D01*
X60664Y201524D01*
X59838Y200890D01*
X59205Y200064D01*
X58807Y199103D01*
X58671Y198071D01*
X58807Y197039D01*
X59205Y196077D01*
X59838Y195252D01*
X60664Y194618D01*
X61626Y194220D01*
X62657Y194084D01*
X63689Y194220D01*
X64651Y194618D01*
X65477Y195252D01*
X66110Y196077D01*
X66509Y197039D01*
X66644Y198071D01*
X66509Y199103D01*
X66110Y200064D01*
X65477Y200890D01*
X64651Y201524D01*
X63689Y201922D01*
X62657Y202058D01*
D02*
G37*
G36*
X12933D02*
X11901Y201922D01*
X10940Y201524D01*
X10114Y200890D01*
X9480Y200064D01*
X9082Y199103D01*
X8946Y198071D01*
X9082Y197039D01*
X9480Y196077D01*
X10114Y195252D01*
X10940Y194618D01*
X11901Y194220D01*
X12933Y194084D01*
X13965Y194220D01*
X14927Y194618D01*
X15752Y195252D01*
X16386Y196077D01*
X16784Y197039D01*
X16920Y198071D01*
X16784Y199103D01*
X16386Y200064D01*
X15752Y200890D01*
X14927Y201524D01*
X13965Y201922D01*
X12933Y202058D01*
D02*
G37*
G36*
X52815Y202058D02*
X51783Y201922D01*
X50822Y201524D01*
X49996Y200890D01*
X49362Y200064D01*
X48964Y199103D01*
X48828Y198071D01*
X48964Y197039D01*
X49362Y196077D01*
X49996Y195252D01*
X50822Y194618D01*
X51783Y194220D01*
X52815Y194084D01*
X53847Y194220D01*
X54808Y194618D01*
X55634Y195252D01*
X56268Y196077D01*
X56666Y197039D01*
X56802Y198071D01*
X56666Y199103D01*
X56268Y200064D01*
X55634Y200890D01*
X54808Y201524D01*
X53847Y201922D01*
X52815Y202058D01*
D02*
G37*
G36*
X22776D02*
X21744Y201922D01*
X20782Y201524D01*
X19956Y200890D01*
X19323Y200064D01*
X18925Y199103D01*
X18789Y198071D01*
X18925Y197039D01*
X19323Y196077D01*
X19956Y195252D01*
X20782Y194618D01*
X21744Y194220D01*
X22776Y194084D01*
X23808Y194220D01*
X24769Y194618D01*
X25595Y195252D01*
X26228Y196077D01*
X26627Y197039D01*
X26763Y198071D01*
X26627Y199103D01*
X26228Y200064D01*
X25595Y200890D01*
X24769Y201524D01*
X23808Y201922D01*
X22776Y202058D01*
D02*
G37*
G36*
X60295Y189323D02*
X58845Y189180D01*
X57451Y188757D01*
X56165Y188070D01*
X55039Y187146D01*
X54115Y186020D01*
X53428Y184734D01*
X53005Y183340D01*
X52862Y181890D01*
X53005Y180440D01*
X53428Y179045D01*
X54115Y177760D01*
X55039Y176634D01*
X56165Y175709D01*
X57451Y175022D01*
X58845Y174599D01*
X60295Y174456D01*
X61746Y174599D01*
X63140Y175022D01*
X64425Y175709D01*
X65552Y176634D01*
X66476Y177760D01*
X67163Y179045D01*
X67586Y180440D01*
X67729Y181890D01*
X67586Y183340D01*
X67163Y184734D01*
X66476Y186020D01*
X65552Y187146D01*
X64425Y188070D01*
X63140Y188757D01*
X61746Y189180D01*
X60295Y189323D01*
D02*
G37*
G36*
X15295D02*
X13845Y189180D01*
X12451Y188757D01*
X11165Y188070D01*
X10039Y187146D01*
X9115Y186020D01*
X8428Y184734D01*
X8005Y183340D01*
X7862Y181890D01*
X8005Y180440D01*
X8428Y179045D01*
X9115Y177760D01*
X10039Y176634D01*
X11165Y175709D01*
X12451Y175022D01*
X13845Y174599D01*
X15295Y174456D01*
X16746Y174599D01*
X18140Y175022D01*
X19425Y175709D01*
X20551Y176634D01*
X21476Y177760D01*
X22163Y179045D01*
X22586Y180440D01*
X22729Y181890D01*
X22586Y183340D01*
X22163Y184734D01*
X21476Y186020D01*
X20551Y187146D01*
X19425Y188070D01*
X18140Y188757D01*
X16746Y189180D01*
X15295Y189323D01*
D02*
G37*
G36*
X68799Y171554D02*
X67510Y171385D01*
X66309Y170887D01*
X65278Y170096D01*
X64487Y169065D01*
X63989Y167864D01*
X63820Y166575D01*
X63989Y165286D01*
X64487Y164085D01*
X65278Y163054D01*
X66309Y162262D01*
X67510Y161765D01*
X68799Y161595D01*
X70088Y161765D01*
X71289Y162262D01*
X72320Y163054D01*
X73112Y164085D01*
X73609Y165286D01*
X73779Y166575D01*
X73609Y167864D01*
X73112Y169065D01*
X72320Y170096D01*
X71289Y170887D01*
X70088Y171385D01*
X68799Y171554D01*
D02*
G37*
G36*
X6791D02*
X5503Y171385D01*
X4301Y170887D01*
X3270Y170096D01*
X2479Y169065D01*
X1981Y167864D01*
X1812Y166575D01*
X1981Y165286D01*
X2479Y164085D01*
X3270Y163054D01*
X4301Y162262D01*
X5503Y161765D01*
X6791Y161595D01*
X8080Y161765D01*
X9281Y162262D01*
X10312Y163054D01*
X11104Y164085D01*
X11601Y165286D01*
X11771Y166575D01*
X11601Y167864D01*
X11104Y169065D01*
X10312Y170096D01*
X9281Y170887D01*
X8080Y171385D01*
X6791Y171554D01*
D02*
G37*
G36*
X25295Y160479D02*
X24366Y160357D01*
X23500Y159999D01*
X22757Y159428D01*
X22186Y158685D01*
X21828Y157819D01*
X21705Y156890D01*
X21828Y155961D01*
X22186Y155095D01*
X22757Y154351D01*
X23500Y153781D01*
X24366Y153422D01*
X25295Y153300D01*
X26224Y153422D01*
X27090Y153781D01*
X27834Y154351D01*
X28404Y155095D01*
X28763Y155961D01*
X28885Y156890D01*
X28763Y157819D01*
X28404Y158685D01*
X27834Y159428D01*
X27090Y159999D01*
X26224Y160357D01*
X25295Y160479D01*
D02*
G37*
G36*
X100787Y207715D02*
X100115Y207627D01*
X99489Y207367D01*
X98951Y206955D01*
X98727Y206663D01*
X84024Y191960D01*
X83472Y191133D01*
X83278Y190157D01*
Y137195D01*
X78559D01*
Y138579D01*
X71421D01*
X71362Y138579D01*
X70921D01*
X70862Y138579D01*
X63724D01*
Y136175D01*
X62614D01*
Y138500D01*
X54709D01*
Y138500D01*
X54346D01*
Y138500D01*
X51874D01*
Y143691D01*
X52090Y143781D01*
X52834Y144351D01*
X53404Y145095D01*
X53763Y145961D01*
X53885Y146890D01*
X53772Y147750D01*
X53913Y147879D01*
X54225Y148004D01*
X60149Y142080D01*
X60397Y141914D01*
X60690Y141856D01*
X68865D01*
X69017Y141671D01*
X69187Y140812D01*
X69674Y140084D01*
X70401Y139598D01*
X71260Y139427D01*
X72118Y139598D01*
X72846Y140084D01*
X73332Y140812D01*
X73503Y141671D01*
X73332Y142529D01*
X72937Y143121D01*
X73332Y143712D01*
X73503Y144571D01*
X73332Y145429D01*
X72846Y146157D01*
X72118Y146643D01*
X71260Y146814D01*
X70401Y146643D01*
X69674Y146157D01*
X69187Y145429D01*
X69017Y144571D01*
X68865Y144385D01*
X61421D01*
X52733Y153073D01*
Y153246D01*
X53369Y153882D01*
X53500Y153781D01*
X54366Y153422D01*
X55295Y153300D01*
X56224Y153422D01*
X57090Y153781D01*
X57834Y154351D01*
X58404Y155095D01*
X58763Y155961D01*
X58885Y156890D01*
X58763Y157819D01*
X58404Y158685D01*
X57834Y159428D01*
X57090Y159999D01*
X56224Y160357D01*
X55295Y160479D01*
X54366Y160357D01*
X53500Y159999D01*
X52757Y159428D01*
X52187Y158685D01*
X51828Y157819D01*
X51705Y156890D01*
X51828Y155961D01*
X52187Y155095D01*
X52287Y154963D01*
X51428Y154104D01*
X51262Y153856D01*
X51259Y153840D01*
X50716Y153675D01*
X48666Y155726D01*
X48763Y155961D01*
X48885Y156890D01*
X48763Y157819D01*
X48404Y158685D01*
X47834Y159428D01*
X47090Y159999D01*
X46224Y160357D01*
X45295Y160479D01*
X44366Y160357D01*
X43500Y159999D01*
X42757Y159428D01*
X42186Y158685D01*
X41828Y157819D01*
X41706Y156890D01*
X41828Y155961D01*
X42186Y155095D01*
X42757Y154351D01*
X43500Y153781D01*
X44366Y153422D01*
X45295Y153300D01*
X46224Y153422D01*
X47090Y153781D01*
X47834Y154351D01*
X47875Y154354D01*
X51410Y150819D01*
X51284Y150507D01*
X51155Y150366D01*
X50295Y150479D01*
X49366Y150357D01*
X48500Y149999D01*
X47757Y149428D01*
X47186Y148685D01*
X46828Y147819D01*
X46705Y146890D01*
X46828Y145961D01*
X47186Y145095D01*
X47757Y144351D01*
X48500Y143781D01*
X48815Y143651D01*
Y138500D01*
X46441D01*
Y130791D01*
Y123508D01*
X54346D01*
Y123508D01*
X54709D01*
Y123508D01*
X62614D01*
Y130791D01*
Y133116D01*
X63724D01*
Y130713D01*
X70862D01*
X70921Y130713D01*
X71362D01*
X71421Y130713D01*
X78559D01*
Y132097D01*
X83278D01*
Y114189D01*
X81874D01*
Y106283D01*
X89780D01*
Y107687D01*
X92800D01*
X93008Y107417D01*
X93833Y106783D01*
X94795Y106385D01*
X95827Y106249D01*
X96859Y106385D01*
X97820Y106783D01*
X98646Y107417D01*
X98853Y107687D01*
X102800D01*
X103008Y107417D01*
X103833Y106783D01*
X104795Y106385D01*
X105827Y106249D01*
X106859Y106385D01*
X107820Y106783D01*
X108646Y107417D01*
X108853Y107687D01*
X112800D01*
X113008Y107417D01*
X113833Y106783D01*
X114795Y106385D01*
X115827Y106249D01*
X116859Y106385D01*
X117820Y106783D01*
X118646Y107417D01*
X118853Y107687D01*
X122800D01*
X123008Y107417D01*
X123833Y106783D01*
X124795Y106385D01*
X125827Y106249D01*
X126164Y106294D01*
X135048Y97410D01*
X135875Y96858D01*
X136850Y96664D01*
X144614D01*
X147280Y93997D01*
X147129Y93692D01*
X147023Y93547D01*
X146118Y93428D01*
X145252Y93069D01*
X144509Y92499D01*
X143938Y91755D01*
X143580Y90890D01*
X143457Y89961D01*
X143580Y89031D01*
X143938Y88166D01*
X144509Y87422D01*
X145252Y86852D01*
X146118Y86493D01*
X147047Y86371D01*
X147976Y86493D01*
X148341Y86644D01*
X148727Y86327D01*
X148649Y85935D01*
Y84781D01*
X148446Y84625D01*
X147875Y83881D01*
X147517Y83016D01*
X147395Y82087D01*
X147517Y81157D01*
X147732Y80637D01*
X146146Y79051D01*
X145870Y78637D01*
X145773Y78150D01*
Y75317D01*
X145273Y75071D01*
X144905Y75353D01*
X144039Y75712D01*
X143110Y75834D01*
X142181Y75712D01*
X141315Y75353D01*
X140572Y74782D01*
X140001Y74039D01*
X139643Y73173D01*
X139521Y72244D01*
X139643Y71315D01*
X140001Y70449D01*
X140572Y69706D01*
X141315Y69135D01*
X142181Y68777D01*
X143110Y68654D01*
X144039Y68777D01*
X144905Y69135D01*
X145273Y69417D01*
X145773Y69171D01*
Y67694D01*
X145252Y67479D01*
X144509Y66908D01*
X143938Y66165D01*
X143580Y65299D01*
X143457Y64370D01*
X143580Y63441D01*
X143938Y62575D01*
X144509Y61832D01*
X145252Y61261D01*
X146118Y60903D01*
X147047Y60780D01*
X147976Y60903D01*
X148842Y61261D01*
X149572Y61821D01*
X152372D01*
Y40910D01*
X151812Y40181D01*
X151454Y39315D01*
X151331Y38386D01*
X151355Y38210D01*
X151065Y37959D01*
X150610Y38183D01*
X150637Y38386D01*
X150515Y39315D01*
X150156Y40181D01*
X149586Y40924D01*
X148842Y41495D01*
X147976Y41853D01*
X147047Y41976D01*
X146118Y41853D01*
X145252Y41495D01*
X144509Y40924D01*
X144178Y40493D01*
X143678Y40663D01*
Y41339D01*
X143620Y41631D01*
X143454Y41879D01*
X143454Y41879D01*
X139938Y45395D01*
Y60881D01*
X140102Y60903D01*
X140968Y61261D01*
X141712Y61832D01*
X142282Y62575D01*
X142641Y63441D01*
X142763Y64370D01*
X142641Y65299D01*
X142282Y66165D01*
X141712Y66908D01*
X140968Y67479D01*
X140102Y67838D01*
X139173Y67960D01*
X138244Y67838D01*
X137378Y67479D01*
X136635Y66908D01*
X136501Y66734D01*
X136001Y66904D01*
Y68755D01*
X136165Y68777D01*
X137031Y69135D01*
X137775Y69706D01*
X138345Y70449D01*
X138704Y71315D01*
X138826Y72244D01*
X138704Y73173D01*
X138345Y74039D01*
X137775Y74782D01*
X137031Y75353D01*
X136165Y75712D01*
X135236Y75834D01*
X134307Y75712D01*
X133441Y75353D01*
X132698Y74782D01*
X132127Y74039D01*
X131769Y73173D01*
X131647Y72244D01*
X131769Y71315D01*
X132127Y70449D01*
X132698Y69706D01*
X133441Y69135D01*
X134307Y68777D01*
X134471Y68755D01*
Y66904D01*
X133972Y66734D01*
X133837Y66908D01*
X133094Y67479D01*
X132228Y67838D01*
X131299Y67960D01*
X130370Y67838D01*
X129504Y67479D01*
X128761Y66908D01*
X128190Y66165D01*
X127832Y65299D01*
X127709Y64370D01*
X127832Y63441D01*
X128190Y62575D01*
X128761Y61832D01*
X129504Y61261D01*
X130370Y60903D01*
X131299Y60780D01*
X132228Y60903D01*
X133094Y61261D01*
X133837Y61832D01*
X133972Y62006D01*
X134471Y61837D01*
Y40919D01*
X133972Y40750D01*
X133837Y40924D01*
X133094Y41495D01*
X132228Y41853D01*
X131299Y41976D01*
X130370Y41853D01*
X129504Y41495D01*
X128761Y40924D01*
X128190Y40181D01*
X127832Y39315D01*
X127709Y38386D01*
X127832Y37457D01*
X128190Y36591D01*
X128761Y35847D01*
X129504Y35277D01*
X130370Y34918D01*
X131299Y34796D01*
X131906Y34876D01*
X132140Y34402D01*
X130562Y32824D01*
X130396Y32576D01*
X130338Y32283D01*
Y24803D01*
X130396Y24510D01*
X130562Y24262D01*
X132228Y22596D01*
X132127Y22464D01*
X131769Y21598D01*
X131647Y20669D01*
X131769Y19740D01*
X132127Y18874D01*
X132698Y18131D01*
X133441Y17560D01*
X134307Y17202D01*
X134471Y17180D01*
Y15329D01*
X133972Y15159D01*
X133837Y15334D01*
X133094Y15904D01*
X132228Y16263D01*
X131299Y16385D01*
X130370Y16263D01*
X129504Y15904D01*
X128761Y15334D01*
X128190Y14590D01*
X127832Y13724D01*
X127709Y12795D01*
X127832Y11866D01*
X128190Y11000D01*
X128761Y10257D01*
X129504Y9686D01*
X130370Y9328D01*
X131299Y9206D01*
X132228Y9328D01*
X133094Y9686D01*
X133837Y10257D01*
X133972Y10431D01*
X134471Y10262D01*
Y8465D01*
X134530Y8172D01*
X134695Y7924D01*
X136861Y5759D01*
X137109Y5593D01*
X137402Y5534D01*
X137402Y5534D01*
X212831D01*
X213124Y5593D01*
X213372Y5759D01*
X219627Y12014D01*
X220108Y11787D01*
X220032Y11024D01*
X220154Y9786D01*
X220515Y8595D01*
X221102Y7498D01*
X221891Y6537D01*
X222853Y5748D01*
X223950Y5161D01*
X225140Y4800D01*
X226378Y4678D01*
X227616Y4800D01*
X228806Y5161D01*
X229903Y5748D01*
X230865Y6537D01*
X231654Y7498D01*
X232241Y8595D01*
X232601Y9786D01*
X232723Y11024D01*
X232601Y12262D01*
X232241Y13452D01*
X231654Y14549D01*
X230865Y15511D01*
X229903Y16300D01*
X228806Y16886D01*
X227616Y17247D01*
X226378Y17369D01*
X225615Y17294D01*
X225388Y17774D01*
X291101Y83487D01*
X293578D01*
X293597Y83394D01*
X294083Y82666D01*
X294811Y82180D01*
X295669Y82009D01*
X296528Y82180D01*
X297255Y82666D01*
X297742Y83394D01*
X297912Y84252D01*
X297742Y85110D01*
X297255Y85838D01*
X296528Y86324D01*
X295669Y86495D01*
X294811Y86324D01*
X294083Y85838D01*
X293597Y85110D01*
X293578Y85017D01*
X291869D01*
X291678Y85479D01*
X306367Y100168D01*
X306533Y100416D01*
X306592Y100709D01*
X306592Y100709D01*
Y106350D01*
X306859Y106385D01*
X307820Y106783D01*
X308646Y107417D01*
X309279Y108243D01*
X309678Y109204D01*
X309814Y110236D01*
X309678Y111268D01*
X309279Y112230D01*
X308646Y113055D01*
X307820Y113689D01*
X306859Y114087D01*
X305827Y114223D01*
X304795Y114087D01*
X303833Y113689D01*
X303008Y113055D01*
X302374Y112230D01*
X301976Y111268D01*
X301840Y110236D01*
X301976Y109204D01*
X302374Y108243D01*
X303008Y107417D01*
X303833Y106783D01*
X304795Y106385D01*
X305062Y106350D01*
Y101025D01*
X212675Y8639D01*
X144411D01*
X142181Y10869D01*
X142282Y11000D01*
X142641Y11866D01*
X142763Y12795D01*
X142641Y13724D01*
X142282Y14590D01*
X141712Y15334D01*
X140968Y15904D01*
X140102Y16263D01*
X139938Y16284D01*
Y18136D01*
X140438Y18305D01*
X140572Y18131D01*
X141315Y17560D01*
X142181Y17202D01*
X143110Y17079D01*
X144039Y17202D01*
X144905Y17560D01*
X145273Y17843D01*
X145773Y17596D01*
Y16120D01*
X145252Y15904D01*
X144509Y15334D01*
X143938Y14590D01*
X143580Y13724D01*
X143457Y12795D01*
X143580Y11866D01*
X143938Y11000D01*
X144509Y10257D01*
X145252Y9686D01*
X146118Y9328D01*
X147047Y9206D01*
X147976Y9328D01*
X148842Y9686D01*
X149572Y10246D01*
X152397D01*
X153126Y9686D01*
X153992Y9328D01*
X154921Y9206D01*
X155850Y9328D01*
X156716Y9686D01*
X157460Y10257D01*
X158030Y11000D01*
X158389Y11866D01*
X158511Y12795D01*
X158389Y13724D01*
X158030Y14590D01*
X157460Y15334D01*
X156716Y15904D01*
X155850Y16263D01*
X154921Y16385D01*
X153992Y16263D01*
X153126Y15904D01*
X152397Y15344D01*
X149572D01*
X148842Y15904D01*
X148322Y16120D01*
Y17596D01*
X148822Y17843D01*
X149189Y17560D01*
X150055Y17202D01*
X150984Y17079D01*
X151913Y17202D01*
X152779Y17560D01*
X153523Y18131D01*
X154093Y18874D01*
X154452Y19740D01*
X154574Y20669D01*
X154452Y21598D01*
X154093Y22464D01*
X153523Y23208D01*
X152779Y23778D01*
X151913Y24137D01*
X150984Y24259D01*
X150055Y24137D01*
X149189Y23778D01*
X148822Y23496D01*
X148322Y23743D01*
Y26047D01*
X149535Y27260D01*
X150055Y27044D01*
X150984Y26922D01*
X151913Y27044D01*
X152779Y27403D01*
X153460Y27925D01*
X153960Y27807D01*
Y24803D01*
X154018Y24510D01*
X154184Y24262D01*
X155850Y22596D01*
X155749Y22464D01*
X155391Y21598D01*
X155269Y20669D01*
X155391Y19740D01*
X155749Y18874D01*
X156320Y18131D01*
X157063Y17560D01*
X157929Y17202D01*
X158858Y17079D01*
X159787Y17202D01*
X160653Y17560D01*
X161397Y18131D01*
X161967Y18874D01*
X162326Y19740D01*
X162372Y20089D01*
X162917Y20404D01*
X163860Y20013D01*
X165354Y19817D01*
X166849Y20013D01*
X168241Y20590D01*
X169437Y21508D01*
X170355Y22704D01*
X170931Y24096D01*
X171128Y25591D01*
X170931Y27085D01*
X170355Y28477D01*
X169437Y29673D01*
X168241Y30591D01*
X166849Y31168D01*
X165354Y31364D01*
X163860Y31168D01*
X162917Y30777D01*
X162372Y31092D01*
X162326Y31441D01*
X161967Y32307D01*
X161397Y33050D01*
X160653Y33621D01*
X159787Y33979D01*
X158858Y34102D01*
X158251Y34022D01*
X158018Y34495D01*
X159399Y35877D01*
X159565Y36125D01*
X159623Y36417D01*
Y68755D01*
X159787Y68777D01*
X160653Y69135D01*
X161397Y69706D01*
X161967Y70449D01*
X162326Y71315D01*
X162372Y71664D01*
X162917Y71979D01*
X163860Y71588D01*
X165354Y71391D01*
X166849Y71588D01*
X168241Y72165D01*
X169437Y73083D01*
X170355Y74278D01*
X170931Y75671D01*
X171128Y77165D01*
X170931Y78660D01*
X170355Y80052D01*
X169437Y81248D01*
X168241Y82166D01*
X166849Y82742D01*
X165354Y82939D01*
X163860Y82742D01*
X162917Y82352D01*
X162372Y82667D01*
X162326Y83016D01*
X161967Y83881D01*
X161397Y84625D01*
X160653Y85195D01*
X159787Y85554D01*
X158858Y85676D01*
X157929Y85554D01*
X157063Y85195D01*
X156320Y84625D01*
X155749Y83881D01*
X155391Y83016D01*
X155269Y82087D01*
X155391Y81157D01*
X155749Y80292D01*
X156320Y79548D01*
X157063Y78978D01*
X157929Y78619D01*
X158858Y78497D01*
X159364Y78563D01*
X159718Y78210D01*
X159581Y77165D01*
X159718Y76121D01*
X159364Y75767D01*
X158858Y75834D01*
X157929Y75712D01*
X157063Y75353D01*
X156320Y74782D01*
X155749Y74039D01*
X155391Y73173D01*
X155269Y72244D01*
X155391Y71315D01*
X155749Y70449D01*
X156320Y69706D01*
X157063Y69135D01*
X157929Y68777D01*
X158094Y68755D01*
Y66904D01*
X157594Y66734D01*
X157460Y66908D01*
X156716Y67479D01*
X155850Y67838D01*
X154921Y67960D01*
X153992Y67838D01*
X153126Y67479D01*
X152397Y66919D01*
X149572D01*
X148842Y67479D01*
X148322Y67694D01*
Y69171D01*
X148822Y69417D01*
X149189Y69135D01*
X150055Y68777D01*
X150984Y68654D01*
X151913Y68777D01*
X152779Y69135D01*
X153523Y69706D01*
X154093Y70449D01*
X154452Y71315D01*
X154574Y72244D01*
X154452Y73173D01*
X154093Y74039D01*
X153523Y74782D01*
X152779Y75353D01*
X151913Y75712D01*
X150984Y75834D01*
X150055Y75712D01*
X149189Y75353D01*
X148822Y75071D01*
X148322Y75317D01*
Y77622D01*
X149535Y78835D01*
X150055Y78619D01*
X150984Y78497D01*
X151913Y78619D01*
X152779Y78978D01*
X153523Y79548D01*
X154093Y80292D01*
X154452Y81157D01*
X154574Y82087D01*
X154452Y83016D01*
X154093Y83881D01*
X153747Y84332D01*
Y84879D01*
X155287Y86419D01*
X155850Y86493D01*
X156716Y86852D01*
X157460Y87422D01*
X158030Y88166D01*
X158389Y89031D01*
X158511Y89961D01*
X158389Y90890D01*
X158030Y91755D01*
X157460Y92499D01*
X156716Y93069D01*
X155850Y93428D01*
X154939Y93548D01*
X147472Y101015D01*
X146645Y101568D01*
X145669Y101762D01*
X137906D01*
X129769Y109899D01*
X129814Y110236D01*
X129678Y111268D01*
X129279Y112230D01*
X128646Y113055D01*
X127820Y113689D01*
X126859Y114087D01*
X125827Y114223D01*
X124795Y114087D01*
X123833Y113689D01*
X123008Y113055D01*
X122800Y112785D01*
X118853D01*
X118646Y113055D01*
X117820Y113689D01*
X116859Y114087D01*
X115827Y114223D01*
X114795Y114087D01*
X113833Y113689D01*
X113008Y113055D01*
X112800Y112785D01*
X108853D01*
X108646Y113055D01*
X107820Y113689D01*
X106859Y114087D01*
X105827Y114223D01*
X104795Y114087D01*
X103833Y113689D01*
X103008Y113055D01*
X102800Y112785D01*
X98853D01*
X98646Y113055D01*
X97820Y113689D01*
X96859Y114087D01*
X95827Y114223D01*
X94795Y114087D01*
X93833Y113689D01*
X93008Y113055D01*
X92800Y112785D01*
X89780D01*
Y114189D01*
X88376D01*
Y134646D01*
Y189102D01*
X102332Y203058D01*
X102624Y203282D01*
X103036Y203820D01*
X103296Y204446D01*
X103384Y205118D01*
X103296Y205790D01*
X103036Y206417D01*
X102624Y206955D01*
X102086Y207367D01*
X101460Y207627D01*
X100787Y207715D01*
D02*
G37*
G36*
X35295Y160479D02*
X34366Y160357D01*
X33500Y159999D01*
X32757Y159428D01*
X32186Y158685D01*
X31828Y157819D01*
X31705Y156890D01*
X31828Y155961D01*
X32186Y155095D01*
X32757Y154351D01*
X33500Y153781D01*
X34366Y153422D01*
X35295Y153300D01*
X36224Y153422D01*
X37090Y153781D01*
X37834Y154351D01*
X38404Y155095D01*
X38763Y155961D01*
X38885Y156890D01*
X38763Y157819D01*
X38404Y158685D01*
X37834Y159428D01*
X37090Y159999D01*
X36224Y160357D01*
X35295Y160479D01*
D02*
G37*
G36*
X104347Y151984D02*
X96441D01*
Y144079D01*
X104347D01*
Y151984D01*
D02*
G37*
G36*
X290394Y152018D02*
X289362Y151883D01*
X288400Y151484D01*
X287575Y150851D01*
X286941Y150025D01*
X286543Y149063D01*
X286407Y148031D01*
X286543Y147000D01*
X286941Y146038D01*
X287575Y145212D01*
X288400Y144579D01*
X289362Y144181D01*
X290394Y144045D01*
X291426Y144181D01*
X292387Y144579D01*
X293213Y145212D01*
X293846Y146038D01*
X294245Y147000D01*
X294381Y148031D01*
X294245Y149063D01*
X293846Y150025D01*
X293213Y150851D01*
X292387Y151484D01*
X291426Y151883D01*
X290394Y152018D01*
D02*
G37*
G36*
X280394D02*
X279362Y151883D01*
X278400Y151484D01*
X277575Y150851D01*
X276941Y150025D01*
X276543Y149063D01*
X276407Y148031D01*
X276543Y147000D01*
X276941Y146038D01*
X277575Y145212D01*
X278400Y144579D01*
X279362Y144181D01*
X280394Y144045D01*
X281426Y144181D01*
X282387Y144579D01*
X283213Y145212D01*
X283846Y146038D01*
X284245Y147000D01*
X284381Y148031D01*
X284245Y149063D01*
X283846Y150025D01*
X283213Y150851D01*
X282387Y151484D01*
X281426Y151883D01*
X280394Y152018D01*
D02*
G37*
G36*
X270394D02*
X269362Y151883D01*
X268400Y151484D01*
X267575Y150851D01*
X266941Y150025D01*
X266543Y149063D01*
X266407Y148031D01*
X266543Y147000D01*
X266941Y146038D01*
X267575Y145212D01*
X268400Y144579D01*
X269362Y144181D01*
X270394Y144045D01*
X271426Y144181D01*
X272387Y144579D01*
X273213Y145212D01*
X273846Y146038D01*
X274245Y147000D01*
X274381Y148031D01*
X274245Y149063D01*
X273846Y150025D01*
X273213Y150851D01*
X272387Y151484D01*
X271426Y151883D01*
X270394Y152018D01*
D02*
G37*
G36*
X260394D02*
X259362Y151883D01*
X258400Y151484D01*
X257575Y150851D01*
X256941Y150025D01*
X256543Y149063D01*
X256407Y148031D01*
X256543Y147000D01*
X256941Y146038D01*
X257575Y145212D01*
X258400Y144579D01*
X259362Y144181D01*
X260394Y144045D01*
X261426Y144181D01*
X262387Y144579D01*
X263213Y145212D01*
X263846Y146038D01*
X264245Y147000D01*
X264381Y148031D01*
X264245Y149063D01*
X263846Y150025D01*
X263213Y150851D01*
X262387Y151484D01*
X261426Y151883D01*
X260394Y152018D01*
D02*
G37*
G36*
X250394D02*
X249362Y151883D01*
X248400Y151484D01*
X247575Y150851D01*
X246941Y150025D01*
X246543Y149063D01*
X246407Y148031D01*
X246543Y147000D01*
X246941Y146038D01*
X247575Y145212D01*
X248400Y144579D01*
X249362Y144181D01*
X250394Y144045D01*
X251426Y144181D01*
X252387Y144579D01*
X253213Y145212D01*
X253846Y146038D01*
X254245Y147000D01*
X254381Y148031D01*
X254245Y149063D01*
X253846Y150025D01*
X253213Y150851D01*
X252387Y151484D01*
X251426Y151883D01*
X250394Y152018D01*
D02*
G37*
G36*
X240394D02*
X239362Y151883D01*
X238400Y151484D01*
X237575Y150851D01*
X236941Y150025D01*
X236543Y149063D01*
X236407Y148031D01*
X236543Y147000D01*
X236941Y146038D01*
X237575Y145212D01*
X238400Y144579D01*
X239362Y144181D01*
X240394Y144045D01*
X241426Y144181D01*
X242387Y144579D01*
X243213Y145212D01*
X243846Y146038D01*
X244245Y147000D01*
X244381Y148031D01*
X244245Y149063D01*
X243846Y150025D01*
X243213Y150851D01*
X242387Y151484D01*
X241426Y151883D01*
X240394Y152018D01*
D02*
G37*
G36*
X230394D02*
X229362Y151883D01*
X228400Y151484D01*
X227575Y150851D01*
X226941Y150025D01*
X226543Y149063D01*
X226407Y148031D01*
X226543Y147000D01*
X226941Y146038D01*
X227575Y145212D01*
X228400Y144579D01*
X229362Y144181D01*
X230394Y144045D01*
X231426Y144181D01*
X232387Y144579D01*
X233213Y145212D01*
X233846Y146038D01*
X234245Y147000D01*
X234381Y148031D01*
X234245Y149063D01*
X233846Y150025D01*
X233213Y150851D01*
X232387Y151484D01*
X231426Y151883D01*
X230394Y152018D01*
D02*
G37*
G36*
X220394D02*
X219362Y151883D01*
X218400Y151484D01*
X217575Y150851D01*
X216941Y150025D01*
X216543Y149063D01*
X216407Y148031D01*
X216543Y147000D01*
X216941Y146038D01*
X217575Y145212D01*
X218400Y144579D01*
X219362Y144181D01*
X220394Y144045D01*
X221426Y144181D01*
X222387Y144579D01*
X223213Y145212D01*
X223846Y146038D01*
X224245Y147000D01*
X224381Y148031D01*
X224245Y149063D01*
X223846Y150025D01*
X223213Y150851D01*
X222387Y151484D01*
X221426Y151883D01*
X220394Y152018D01*
D02*
G37*
G36*
X210394D02*
X209362Y151883D01*
X208400Y151484D01*
X207575Y150851D01*
X206941Y150025D01*
X206543Y149063D01*
X206407Y148031D01*
X206543Y147000D01*
X206941Y146038D01*
X207575Y145212D01*
X208400Y144579D01*
X209362Y144181D01*
X210394Y144045D01*
X211426Y144181D01*
X212387Y144579D01*
X213213Y145212D01*
X213846Y146038D01*
X214245Y147000D01*
X214381Y148031D01*
X214245Y149063D01*
X213846Y150025D01*
X213213Y150851D01*
X212387Y151484D01*
X211426Y151883D01*
X210394Y152018D01*
D02*
G37*
G36*
X200394D02*
X199362Y151883D01*
X198400Y151484D01*
X197575Y150851D01*
X196941Y150025D01*
X196543Y149063D01*
X196407Y148031D01*
X196543Y147000D01*
X196941Y146038D01*
X197575Y145212D01*
X198400Y144579D01*
X199362Y144181D01*
X200394Y144045D01*
X201426Y144181D01*
X202387Y144579D01*
X203213Y145212D01*
X203846Y146038D01*
X204245Y147000D01*
X204381Y148031D01*
X204245Y149063D01*
X203846Y150025D01*
X203213Y150851D01*
X202387Y151484D01*
X201426Y151883D01*
X200394Y152018D01*
D02*
G37*
G36*
X190394D02*
X189362Y151883D01*
X188400Y151484D01*
X187575Y150851D01*
X186941Y150025D01*
X186543Y149063D01*
X186407Y148031D01*
X186543Y147000D01*
X186941Y146038D01*
X187575Y145212D01*
X188400Y144579D01*
X189362Y144181D01*
X190394Y144045D01*
X191426Y144181D01*
X192387Y144579D01*
X193213Y145212D01*
X193846Y146038D01*
X194245Y147000D01*
X194381Y148031D01*
X194245Y149063D01*
X193846Y150025D01*
X193213Y150851D01*
X192387Y151484D01*
X191426Y151883D01*
X190394Y152018D01*
D02*
G37*
G36*
X180394D02*
X179362Y151883D01*
X178400Y151484D01*
X177575Y150851D01*
X176941Y150025D01*
X176543Y149063D01*
X176407Y148031D01*
X176543Y147000D01*
X176941Y146038D01*
X177575Y145212D01*
X178400Y144579D01*
X179362Y144181D01*
X180394Y144045D01*
X181426Y144181D01*
X182387Y144579D01*
X183213Y145212D01*
X183846Y146038D01*
X184245Y147000D01*
X184381Y148031D01*
X184245Y149063D01*
X183846Y150025D01*
X183213Y150851D01*
X182387Y151484D01*
X181426Y151883D01*
X180394Y152018D01*
D02*
G37*
G36*
X170394D02*
X169362Y151883D01*
X168400Y151484D01*
X167575Y150851D01*
X166941Y150025D01*
X166543Y149063D01*
X166407Y148031D01*
X166543Y147000D01*
X166941Y146038D01*
X167575Y145212D01*
X168400Y144579D01*
X169362Y144181D01*
X170394Y144045D01*
X171426Y144181D01*
X172387Y144579D01*
X173213Y145212D01*
X173846Y146038D01*
X174245Y147000D01*
X174381Y148031D01*
X174245Y149063D01*
X173846Y150025D01*
X173213Y150851D01*
X172387Y151484D01*
X171426Y151883D01*
X170394Y152018D01*
D02*
G37*
G36*
X160394D02*
X159362Y151883D01*
X158400Y151484D01*
X157575Y150851D01*
X156941Y150025D01*
X156543Y149063D01*
X156407Y148031D01*
X156543Y147000D01*
X156941Y146038D01*
X157575Y145212D01*
X158400Y144579D01*
X159362Y144181D01*
X160394Y144045D01*
X161426Y144181D01*
X162387Y144579D01*
X163213Y145212D01*
X163846Y146038D01*
X164245Y147000D01*
X164381Y148031D01*
X164245Y149063D01*
X163846Y150025D01*
X163213Y150851D01*
X162387Y151484D01*
X161426Y151883D01*
X160394Y152018D01*
D02*
G37*
G36*
X150394D02*
X149362Y151883D01*
X148400Y151484D01*
X147575Y150851D01*
X146941Y150025D01*
X146543Y149063D01*
X146407Y148031D01*
X146543Y147000D01*
X146941Y146038D01*
X147575Y145212D01*
X148400Y144579D01*
X149362Y144181D01*
X150394Y144045D01*
X151426Y144181D01*
X152387Y144579D01*
X153213Y145212D01*
X153846Y146038D01*
X154245Y147000D01*
X154381Y148031D01*
X154245Y149063D01*
X153846Y150025D01*
X153213Y150851D01*
X152387Y151484D01*
X151426Y151883D01*
X150394Y152018D01*
D02*
G37*
G36*
X140394D02*
X139362Y151883D01*
X138400Y151484D01*
X137575Y150851D01*
X136941Y150025D01*
X136543Y149063D01*
X136407Y148031D01*
X136543Y147000D01*
X136941Y146038D01*
X137575Y145212D01*
X138400Y144579D01*
X139362Y144181D01*
X140394Y144045D01*
X141426Y144181D01*
X142387Y144579D01*
X143213Y145212D01*
X143846Y146038D01*
X144245Y147000D01*
X144381Y148031D01*
X144245Y149063D01*
X143846Y150025D01*
X143213Y150851D01*
X142387Y151484D01*
X141426Y151883D01*
X140394Y152018D01*
D02*
G37*
G36*
X130394D02*
X129362Y151883D01*
X128400Y151484D01*
X127575Y150851D01*
X126941Y150025D01*
X126543Y149063D01*
X126407Y148031D01*
X126543Y147000D01*
X126941Y146038D01*
X127575Y145212D01*
X128400Y144579D01*
X129362Y144181D01*
X130394Y144045D01*
X131426Y144181D01*
X132387Y144579D01*
X133213Y145212D01*
X133846Y146038D01*
X134245Y147000D01*
X134381Y148031D01*
X134245Y149063D01*
X133846Y150025D01*
X133213Y150851D01*
X132387Y151484D01*
X131426Y151883D01*
X130394Y152018D01*
D02*
G37*
G36*
X120394D02*
X119362Y151883D01*
X118400Y151484D01*
X117575Y150851D01*
X116941Y150025D01*
X116543Y149063D01*
X116407Y148031D01*
X116543Y147000D01*
X116941Y146038D01*
X117575Y145212D01*
X118400Y144579D01*
X119362Y144181D01*
X120394Y144045D01*
X121426Y144181D01*
X122387Y144579D01*
X123213Y145212D01*
X123846Y146038D01*
X124245Y147000D01*
X124381Y148031D01*
X124245Y149063D01*
X123846Y150025D01*
X123213Y150851D01*
X122387Y151484D01*
X121426Y151883D01*
X120394Y152018D01*
D02*
G37*
G36*
X110394D02*
X109362Y151883D01*
X108400Y151484D01*
X107575Y150851D01*
X106941Y150025D01*
X106543Y149063D01*
X106407Y148031D01*
X106543Y147000D01*
X106941Y146038D01*
X107575Y145212D01*
X108400Y144579D01*
X109362Y144181D01*
X110394Y144045D01*
X111426Y144181D01*
X112387Y144579D01*
X113213Y145212D01*
X113846Y146038D01*
X114245Y147000D01*
X114381Y148031D01*
X114245Y149063D01*
X113846Y150025D01*
X113213Y150851D01*
X112387Y151484D01*
X111426Y151883D01*
X110394Y152018D01*
D02*
G37*
G36*
X40295Y150479D02*
X39366Y150357D01*
X38500Y149999D01*
X37757Y149428D01*
X37187Y148685D01*
X36828Y147819D01*
X36705Y146890D01*
X36828Y145961D01*
X37187Y145095D01*
X37757Y144351D01*
X38500Y143781D01*
X39366Y143422D01*
X40295Y143300D01*
X41224Y143422D01*
X42090Y143781D01*
X42834Y144351D01*
X43404Y145095D01*
X43763Y145961D01*
X43885Y146890D01*
X43763Y147819D01*
X43404Y148685D01*
X42834Y149428D01*
X42090Y149999D01*
X41224Y150357D01*
X40295Y150479D01*
D02*
G37*
G36*
X30295D02*
X29366Y150357D01*
X28500Y149999D01*
X27757Y149428D01*
X27187Y148685D01*
X26828Y147819D01*
X26706Y146890D01*
X26828Y145961D01*
X27187Y145095D01*
X27757Y144351D01*
X28500Y143781D01*
X29366Y143422D01*
X30295Y143300D01*
X31224Y143422D01*
X32090Y143781D01*
X32834Y144351D01*
X33404Y145095D01*
X33763Y145961D01*
X33885Y146890D01*
X33763Y147819D01*
X33404Y148685D01*
X32834Y149428D01*
X32090Y149999D01*
X31224Y150357D01*
X30295Y150479D01*
D02*
G37*
G36*
X20295D02*
X19366Y150357D01*
X18500Y149999D01*
X17757Y149428D01*
X17187Y148685D01*
X16828Y147819D01*
X16705Y146890D01*
X16828Y145961D01*
X17187Y145095D01*
X17757Y144351D01*
X18500Y143781D01*
X19366Y143422D01*
X20295Y143300D01*
X21224Y143422D01*
X22090Y143781D01*
X22834Y144351D01*
X23404Y145095D01*
X23763Y145961D01*
X23885Y146890D01*
X23763Y147819D01*
X23404Y148685D01*
X22834Y149428D01*
X22090Y149999D01*
X21224Y150357D01*
X20295Y150479D01*
D02*
G37*
G36*
X250394Y142018D02*
X249362Y141883D01*
X248400Y141484D01*
X247575Y140851D01*
X246941Y140025D01*
X246543Y139063D01*
X246407Y138031D01*
X246543Y137000D01*
X246941Y136038D01*
X247575Y135212D01*
X248400Y134579D01*
X249362Y134180D01*
X250394Y134045D01*
X251426Y134180D01*
X252387Y134579D01*
X253213Y135212D01*
X253846Y136038D01*
X254245Y137000D01*
X254381Y138031D01*
X254245Y139063D01*
X253846Y140025D01*
X253213Y140851D01*
X252387Y141484D01*
X251426Y141883D01*
X250394Y142018D01*
D02*
G37*
G36*
X220394D02*
X219362Y141883D01*
X218400Y141484D01*
X217575Y140851D01*
X216941Y140025D01*
X216543Y139063D01*
X216407Y138031D01*
X216543Y137000D01*
X216941Y136038D01*
X217575Y135212D01*
X218400Y134579D01*
X219362Y134180D01*
X220394Y134045D01*
X221426Y134180D01*
X222387Y134579D01*
X223213Y135212D01*
X223846Y136038D01*
X224245Y137000D01*
X224380Y138031D01*
X224245Y139063D01*
X223846Y140025D01*
X223213Y140851D01*
X222387Y141484D01*
X221426Y141883D01*
X220394Y142018D01*
D02*
G37*
G36*
X210394D02*
X209362Y141883D01*
X208400Y141484D01*
X207575Y140851D01*
X206941Y140025D01*
X206543Y139063D01*
X206407Y138031D01*
X206543Y137000D01*
X206941Y136038D01*
X207575Y135212D01*
X208400Y134579D01*
X209362Y134180D01*
X210394Y134045D01*
X211426Y134180D01*
X212387Y134579D01*
X213213Y135212D01*
X213846Y136038D01*
X214245Y137000D01*
X214381Y138031D01*
X214245Y139063D01*
X213846Y140025D01*
X213213Y140851D01*
X212387Y141484D01*
X211426Y141883D01*
X210394Y142018D01*
D02*
G37*
G36*
X160394D02*
X159362Y141883D01*
X158400Y141484D01*
X157575Y140851D01*
X156941Y140025D01*
X156543Y139063D01*
X156407Y138031D01*
X156543Y137000D01*
X156941Y136038D01*
X157575Y135212D01*
X158400Y134579D01*
X159362Y134180D01*
X160394Y134045D01*
X161426Y134180D01*
X162387Y134579D01*
X163213Y135212D01*
X163846Y136038D01*
X164245Y137000D01*
X164381Y138031D01*
X164245Y139063D01*
X163846Y140025D01*
X163213Y140851D01*
X162387Y141484D01*
X161426Y141883D01*
X160394Y142018D01*
D02*
G37*
G36*
X130394D02*
X129362Y141883D01*
X128400Y141484D01*
X127575Y140851D01*
X126941Y140025D01*
X126543Y139063D01*
X126407Y138031D01*
X126543Y137000D01*
X126941Y136038D01*
X127575Y135212D01*
X128400Y134579D01*
X129362Y134180D01*
X130394Y134045D01*
X131426Y134180D01*
X132387Y134579D01*
X133213Y135212D01*
X133846Y136038D01*
X134245Y137000D01*
X134381Y138031D01*
X134245Y139063D01*
X133846Y140025D01*
X133213Y140851D01*
X132387Y141484D01*
X131426Y141883D01*
X130394Y142018D01*
D02*
G37*
G36*
X290394Y142018D02*
X289362Y141883D01*
X288400Y141484D01*
X287575Y140851D01*
X286941Y140025D01*
X286543Y139063D01*
X286407Y138031D01*
X286543Y137000D01*
X286941Y136038D01*
X287575Y135212D01*
X288400Y134579D01*
X289362Y134180D01*
X290394Y134045D01*
X291426Y134180D01*
X292387Y134579D01*
X293213Y135212D01*
X293846Y136038D01*
X294245Y137000D01*
X294381Y138031D01*
X294245Y139063D01*
X293846Y140025D01*
X293213Y140851D01*
X292387Y141484D01*
X291426Y141883D01*
X290394Y142018D01*
D02*
G37*
G36*
X280394D02*
X279362Y141883D01*
X278400Y141484D01*
X277575Y140851D01*
X276941Y140025D01*
X276543Y139063D01*
X276407Y138031D01*
X276543Y137000D01*
X276941Y136038D01*
X277575Y135212D01*
X278400Y134579D01*
X279362Y134180D01*
X280394Y134045D01*
X281426Y134180D01*
X282387Y134579D01*
X283213Y135212D01*
X283846Y136038D01*
X284245Y137000D01*
X284381Y138031D01*
X284245Y139063D01*
X283846Y140025D01*
X283213Y140851D01*
X282387Y141484D01*
X281426Y141883D01*
X280394Y142018D01*
D02*
G37*
G36*
X270394D02*
X269362Y141883D01*
X268400Y141484D01*
X267575Y140851D01*
X266941Y140025D01*
X266543Y139063D01*
X266407Y138031D01*
X266543Y137000D01*
X266941Y136038D01*
X267575Y135212D01*
X268400Y134579D01*
X269362Y134180D01*
X270394Y134045D01*
X271426Y134180D01*
X272387Y134579D01*
X273213Y135212D01*
X273846Y136038D01*
X274245Y137000D01*
X274381Y138031D01*
X274245Y139063D01*
X273846Y140025D01*
X273213Y140851D01*
X272387Y141484D01*
X271426Y141883D01*
X270394Y142018D01*
D02*
G37*
G36*
X260394D02*
X259362Y141883D01*
X258400Y141484D01*
X257575Y140851D01*
X256941Y140025D01*
X256543Y139063D01*
X256407Y138031D01*
X256543Y137000D01*
X256941Y136038D01*
X257575Y135212D01*
X258400Y134579D01*
X259362Y134180D01*
X260394Y134045D01*
X261426Y134180D01*
X262387Y134579D01*
X263213Y135212D01*
X263846Y136038D01*
X264245Y137000D01*
X264381Y138031D01*
X264245Y139063D01*
X263846Y140025D01*
X263213Y140851D01*
X262387Y141484D01*
X261426Y141883D01*
X260394Y142018D01*
D02*
G37*
G36*
X240394D02*
X239362Y141883D01*
X238400Y141484D01*
X237575Y140851D01*
X236941Y140025D01*
X236543Y139063D01*
X236407Y138031D01*
X236543Y137000D01*
X236941Y136038D01*
X237575Y135212D01*
X238400Y134579D01*
X239362Y134180D01*
X240394Y134045D01*
X241426Y134180D01*
X242387Y134579D01*
X243213Y135212D01*
X243846Y136038D01*
X244245Y137000D01*
X244381Y138031D01*
X244245Y139063D01*
X243846Y140025D01*
X243213Y140851D01*
X242387Y141484D01*
X241426Y141883D01*
X240394Y142018D01*
D02*
G37*
G36*
X230394D02*
X229362Y141883D01*
X228400Y141484D01*
X227575Y140851D01*
X226941Y140025D01*
X226543Y139063D01*
X226407Y138031D01*
X226543Y137000D01*
X226941Y136038D01*
X227575Y135212D01*
X228400Y134579D01*
X229362Y134180D01*
X230394Y134045D01*
X231426Y134180D01*
X232387Y134579D01*
X233213Y135212D01*
X233846Y136038D01*
X234245Y137000D01*
X234381Y138031D01*
X234245Y139063D01*
X233846Y140025D01*
X233213Y140851D01*
X232387Y141484D01*
X231426Y141883D01*
X230394Y142018D01*
D02*
G37*
G36*
X200394D02*
X199362Y141883D01*
X198400Y141484D01*
X197575Y140851D01*
X196941Y140025D01*
X196543Y139063D01*
X196407Y138031D01*
X196543Y137000D01*
X196941Y136038D01*
X197575Y135212D01*
X198400Y134579D01*
X199362Y134180D01*
X200394Y134045D01*
X201426Y134180D01*
X202387Y134579D01*
X203213Y135212D01*
X203846Y136038D01*
X204245Y137000D01*
X204381Y138031D01*
X204245Y139063D01*
X203846Y140025D01*
X203213Y140851D01*
X202387Y141484D01*
X201426Y141883D01*
X200394Y142018D01*
D02*
G37*
G36*
X190394D02*
X189362Y141883D01*
X188400Y141484D01*
X187575Y140851D01*
X186941Y140025D01*
X186543Y139063D01*
X186407Y138031D01*
X186543Y137000D01*
X186941Y136038D01*
X187575Y135212D01*
X188400Y134579D01*
X189362Y134180D01*
X190394Y134045D01*
X191426Y134180D01*
X192387Y134579D01*
X193213Y135212D01*
X193846Y136038D01*
X194245Y137000D01*
X194381Y138031D01*
X194245Y139063D01*
X193846Y140025D01*
X193213Y140851D01*
X192387Y141484D01*
X191426Y141883D01*
X190394Y142018D01*
D02*
G37*
G36*
X180394D02*
X179362Y141883D01*
X178400Y141484D01*
X177575Y140851D01*
X176941Y140025D01*
X176543Y139063D01*
X176407Y138031D01*
X176543Y137000D01*
X176941Y136038D01*
X177575Y135212D01*
X178400Y134579D01*
X179362Y134180D01*
X180394Y134045D01*
X181426Y134180D01*
X182387Y134579D01*
X183213Y135212D01*
X183846Y136038D01*
X184245Y137000D01*
X184381Y138031D01*
X184245Y139063D01*
X183846Y140025D01*
X183213Y140851D01*
X182387Y141484D01*
X181426Y141883D01*
X180394Y142018D01*
D02*
G37*
G36*
X170394D02*
X169362Y141883D01*
X168400Y141484D01*
X167575Y140851D01*
X166941Y140025D01*
X166543Y139063D01*
X166407Y138031D01*
X166543Y137000D01*
X166941Y136038D01*
X167575Y135212D01*
X168400Y134579D01*
X169362Y134180D01*
X170394Y134045D01*
X171426Y134180D01*
X172387Y134579D01*
X173213Y135212D01*
X173846Y136038D01*
X174245Y137000D01*
X174381Y138031D01*
X174245Y139063D01*
X173846Y140025D01*
X173213Y140851D01*
X172387Y141484D01*
X171426Y141883D01*
X170394Y142018D01*
D02*
G37*
G36*
X150394D02*
X149362Y141883D01*
X148400Y141484D01*
X147575Y140851D01*
X146941Y140025D01*
X146543Y139063D01*
X146407Y138031D01*
X146543Y137000D01*
X146941Y136038D01*
X147575Y135212D01*
X148400Y134579D01*
X149362Y134180D01*
X150394Y134045D01*
X151426Y134180D01*
X152387Y134579D01*
X153213Y135212D01*
X153846Y136038D01*
X154245Y137000D01*
X154381Y138031D01*
X154245Y139063D01*
X153846Y140025D01*
X153213Y140851D01*
X152387Y141484D01*
X151426Y141883D01*
X150394Y142018D01*
D02*
G37*
G36*
X140394D02*
X139362Y141883D01*
X138400Y141484D01*
X137575Y140851D01*
X136941Y140025D01*
X136543Y139063D01*
X136407Y138031D01*
X136543Y137000D01*
X136941Y136038D01*
X137575Y135212D01*
X138400Y134579D01*
X139362Y134180D01*
X140394Y134045D01*
X141426Y134180D01*
X142387Y134579D01*
X143213Y135212D01*
X143846Y136038D01*
X144245Y137000D01*
X144381Y138031D01*
X144245Y139063D01*
X143846Y140025D01*
X143213Y140851D01*
X142387Y141484D01*
X141426Y141883D01*
X140394Y142018D01*
D02*
G37*
G36*
X120394D02*
X119362Y141883D01*
X118400Y141484D01*
X117575Y140851D01*
X116941Y140025D01*
X116543Y139063D01*
X116407Y138031D01*
X116543Y137000D01*
X116941Y136038D01*
X117575Y135212D01*
X118400Y134579D01*
X119362Y134180D01*
X120394Y134045D01*
X121426Y134180D01*
X122387Y134579D01*
X123213Y135212D01*
X123846Y136038D01*
X124245Y137000D01*
X124381Y138031D01*
X124245Y139063D01*
X123846Y140025D01*
X123213Y140851D01*
X122387Y141484D01*
X121426Y141883D01*
X120394Y142018D01*
D02*
G37*
G36*
X110394D02*
X109362Y141883D01*
X108400Y141484D01*
X107575Y140851D01*
X106941Y140025D01*
X106543Y139063D01*
X106407Y138031D01*
X106543Y137000D01*
X106941Y136038D01*
X107575Y135212D01*
X108400Y134579D01*
X109362Y134180D01*
X110394Y134045D01*
X111426Y134180D01*
X112387Y134579D01*
X113213Y135212D01*
X113846Y136038D01*
X114245Y137000D01*
X114381Y138031D01*
X114245Y139063D01*
X113846Y140025D01*
X113213Y140851D01*
X112387Y141484D01*
X111426Y141883D01*
X110394Y142018D01*
D02*
G37*
G36*
X100394D02*
X99362Y141883D01*
X98400Y141484D01*
X97575Y140851D01*
X96941Y140025D01*
X96543Y139063D01*
X96407Y138031D01*
X96543Y137000D01*
X96941Y136038D01*
X97575Y135212D01*
X98400Y134579D01*
X99362Y134180D01*
X100394Y134045D01*
X101426Y134180D01*
X102387Y134579D01*
X103213Y135212D01*
X103846Y136038D01*
X104245Y137000D01*
X104381Y138031D01*
X104245Y139063D01*
X103846Y140025D01*
X103213Y140851D01*
X102387Y141484D01*
X101426Y141883D01*
X100394Y142018D01*
D02*
G37*
G36*
X145827Y114223D02*
X144795Y114087D01*
X143833Y113689D01*
X143277Y113262D01*
X138376D01*
X137820Y113689D01*
X136859Y114087D01*
X135827Y114223D01*
X134795Y114087D01*
X133833Y113689D01*
X133008Y113055D01*
X132374Y112230D01*
X131976Y111268D01*
X131840Y110236D01*
X131976Y109204D01*
X132374Y108243D01*
X133008Y107417D01*
X133833Y106783D01*
X134795Y106385D01*
X135827Y106249D01*
X136859Y106385D01*
X137820Y106783D01*
X138376Y107210D01*
X143277D01*
X143833Y106783D01*
X144795Y106385D01*
X145827Y106249D01*
X146859Y106385D01*
X147820Y106783D01*
X148646Y107417D01*
X149279Y108243D01*
X149678Y109204D01*
X149814Y110236D01*
X149678Y111268D01*
X149279Y112230D01*
X148646Y113055D01*
X147820Y113689D01*
X146859Y114087D01*
X145827Y114223D01*
D02*
G37*
G36*
X219779Y114189D02*
X211874D01*
Y106283D01*
X219779D01*
Y114189D01*
D02*
G37*
G36*
X295827Y114223D02*
X294795Y114087D01*
X293833Y113689D01*
X293008Y113055D01*
X292374Y112230D01*
X291976Y111268D01*
X291840Y110236D01*
X291976Y109204D01*
X292374Y108243D01*
X293008Y107417D01*
X293833Y106783D01*
X294795Y106385D01*
X295827Y106249D01*
X296859Y106385D01*
X297820Y106783D01*
X298646Y107417D01*
X299279Y108243D01*
X299678Y109204D01*
X299814Y110236D01*
X299678Y111268D01*
X299279Y112230D01*
X298646Y113055D01*
X297820Y113689D01*
X296859Y114087D01*
X295827Y114223D01*
D02*
G37*
G36*
X285827D02*
X284795Y114087D01*
X283833Y113689D01*
X283008Y113055D01*
X282374Y112230D01*
X281976Y111268D01*
X281840Y110236D01*
X281976Y109204D01*
X282374Y108243D01*
X283008Y107417D01*
X283833Y106783D01*
X284795Y106385D01*
X285827Y106249D01*
X286859Y106385D01*
X287820Y106783D01*
X288646Y107417D01*
X289280Y108243D01*
X289678Y109204D01*
X289814Y110236D01*
X289678Y111268D01*
X289280Y112230D01*
X288646Y113055D01*
X287820Y113689D01*
X286859Y114087D01*
X285827Y114223D01*
D02*
G37*
G36*
X275827D02*
X274795Y114087D01*
X273833Y113689D01*
X273008Y113055D01*
X272374Y112230D01*
X271976Y111268D01*
X271840Y110236D01*
X271976Y109204D01*
X272374Y108243D01*
X273008Y107417D01*
X273833Y106783D01*
X274795Y106385D01*
X275827Y106249D01*
X276859Y106385D01*
X277820Y106783D01*
X278646Y107417D01*
X279279Y108243D01*
X279678Y109204D01*
X279814Y110236D01*
X279678Y111268D01*
X279279Y112230D01*
X278646Y113055D01*
X277820Y113689D01*
X276859Y114087D01*
X275827Y114223D01*
D02*
G37*
G36*
X265827D02*
X264795Y114087D01*
X263833Y113689D01*
X263008Y113055D01*
X262374Y112230D01*
X261976Y111268D01*
X261840Y110236D01*
X261976Y109204D01*
X262374Y108243D01*
X263008Y107417D01*
X263833Y106783D01*
X264795Y106385D01*
X265827Y106249D01*
X266859Y106385D01*
X267820Y106783D01*
X268646Y107417D01*
X269280Y108243D01*
X269678Y109204D01*
X269814Y110236D01*
X269678Y111268D01*
X269280Y112230D01*
X268646Y113055D01*
X267820Y113689D01*
X266859Y114087D01*
X265827Y114223D01*
D02*
G37*
G36*
X255827D02*
X254795Y114087D01*
X253833Y113689D01*
X253008Y113055D01*
X252374Y112230D01*
X251976Y111268D01*
X251840Y110236D01*
X251976Y109204D01*
X252374Y108243D01*
X253008Y107417D01*
X253833Y106783D01*
X254795Y106385D01*
X255827Y106249D01*
X256859Y106385D01*
X257820Y106783D01*
X258646Y107417D01*
X259279Y108243D01*
X259678Y109204D01*
X259814Y110236D01*
X259678Y111268D01*
X259279Y112230D01*
X258646Y113055D01*
X257820Y113689D01*
X256859Y114087D01*
X255827Y114223D01*
D02*
G37*
G36*
X245827D02*
X244795Y114087D01*
X243833Y113689D01*
X243008Y113055D01*
X242374Y112230D01*
X241976Y111268D01*
X241840Y110236D01*
X241976Y109204D01*
X242374Y108243D01*
X243008Y107417D01*
X243833Y106783D01*
X244795Y106385D01*
X245827Y106249D01*
X246859Y106385D01*
X247820Y106783D01*
X248646Y107417D01*
X249279Y108243D01*
X249678Y109204D01*
X249814Y110236D01*
X249678Y111268D01*
X249279Y112230D01*
X248646Y113055D01*
X247820Y113689D01*
X246859Y114087D01*
X245827Y114223D01*
D02*
G37*
G36*
X235827D02*
X234795Y114087D01*
X233833Y113689D01*
X233008Y113055D01*
X232374Y112230D01*
X231976Y111268D01*
X231840Y110236D01*
X231976Y109204D01*
X232374Y108243D01*
X233008Y107417D01*
X233833Y106783D01*
X234795Y106385D01*
X235827Y106249D01*
X236859Y106385D01*
X237820Y106783D01*
X238646Y107417D01*
X239280Y108243D01*
X239678Y109204D01*
X239814Y110236D01*
X239678Y111268D01*
X239280Y112230D01*
X238646Y113055D01*
X237820Y113689D01*
X236859Y114087D01*
X235827Y114223D01*
D02*
G37*
G36*
X225827D02*
X224795Y114087D01*
X223833Y113689D01*
X223008Y113055D01*
X222374Y112230D01*
X221976Y111268D01*
X221840Y110236D01*
X221976Y109204D01*
X222374Y108243D01*
X223008Y107417D01*
X223833Y106783D01*
X224795Y106385D01*
X225827Y106249D01*
X226859Y106385D01*
X227820Y106783D01*
X228646Y107417D01*
X229279Y108243D01*
X229678Y109204D01*
X229814Y110236D01*
X229678Y111268D01*
X229279Y112230D01*
X228646Y113055D01*
X227820Y113689D01*
X226859Y114087D01*
X225827Y114223D01*
D02*
G37*
G36*
X175827D02*
X174795Y114087D01*
X173833Y113689D01*
X173008Y113055D01*
X172374Y112230D01*
X171976Y111268D01*
X171840Y110236D01*
X171976Y109204D01*
X172374Y108243D01*
X173008Y107417D01*
X173833Y106783D01*
X174795Y106385D01*
X175827Y106249D01*
X176859Y106385D01*
X177820Y106783D01*
X178646Y107417D01*
X179279Y108243D01*
X179678Y109204D01*
X179814Y110236D01*
X179678Y111268D01*
X179279Y112230D01*
X178646Y113055D01*
X177820Y113689D01*
X176859Y114087D01*
X175827Y114223D01*
D02*
G37*
G36*
X165827D02*
X164795Y114087D01*
X163833Y113689D01*
X163008Y113055D01*
X162374Y112230D01*
X161976Y111268D01*
X161840Y110236D01*
X161976Y109204D01*
X162374Y108243D01*
X163008Y107417D01*
X163833Y106783D01*
X164795Y106385D01*
X165827Y106249D01*
X166859Y106385D01*
X167820Y106783D01*
X168646Y107417D01*
X169280Y108243D01*
X169678Y109204D01*
X169814Y110236D01*
X169678Y111268D01*
X169280Y112230D01*
X168646Y113055D01*
X167820Y113689D01*
X166859Y114087D01*
X165827Y114223D01*
D02*
G37*
G36*
X155827D02*
X154795Y114087D01*
X153833Y113689D01*
X153008Y113055D01*
X152374Y112230D01*
X151976Y111268D01*
X151840Y110236D01*
X151976Y109204D01*
X152374Y108243D01*
X153008Y107417D01*
X153833Y106783D01*
X154795Y106385D01*
X155827Y106249D01*
X156859Y106385D01*
X157820Y106783D01*
X158646Y107417D01*
X159280Y108243D01*
X159678Y109204D01*
X159814Y110236D01*
X159678Y111268D01*
X159280Y112230D01*
X158646Y113055D01*
X157820Y113689D01*
X156859Y114087D01*
X155827Y114223D01*
D02*
G37*
G36*
X194291Y93550D02*
X193362Y93428D01*
X192497Y93069D01*
X191753Y92499D01*
X191182Y91755D01*
X190824Y90890D01*
X190702Y89961D01*
X190824Y89031D01*
X191182Y88166D01*
X191753Y87422D01*
X192497Y86852D01*
X193362Y86493D01*
X194291Y86371D01*
X195220Y86493D01*
X196086Y86852D01*
X196830Y87422D01*
X197400Y88166D01*
X197759Y89031D01*
X197881Y89961D01*
X197759Y90890D01*
X197400Y91755D01*
X196830Y92499D01*
X196086Y93069D01*
X195220Y93428D01*
X194291Y93550D01*
D02*
G37*
G36*
X186417D02*
X185488Y93428D01*
X184622Y93069D01*
X183879Y92499D01*
X183308Y91755D01*
X182950Y90890D01*
X182828Y89961D01*
X182950Y89031D01*
X183308Y88166D01*
X183879Y87422D01*
X184622Y86852D01*
X185488Y86493D01*
X186417Y86371D01*
X187346Y86493D01*
X188212Y86852D01*
X188956Y87422D01*
X189526Y88166D01*
X189885Y89031D01*
X190007Y89961D01*
X189885Y90890D01*
X189526Y91755D01*
X188956Y92499D01*
X188212Y93069D01*
X187346Y93428D01*
X186417Y93550D01*
D02*
G37*
G36*
X178543D02*
X177614Y93428D01*
X176748Y93069D01*
X176005Y92499D01*
X175435Y91755D01*
X175076Y90890D01*
X174953Y89961D01*
X175076Y89031D01*
X175435Y88166D01*
X176005Y87422D01*
X176748Y86852D01*
X177614Y86493D01*
X178543Y86371D01*
X179472Y86493D01*
X180338Y86852D01*
X181082Y87422D01*
X181652Y88166D01*
X182011Y89031D01*
X182133Y89961D01*
X182011Y90890D01*
X181652Y91755D01*
X181082Y92499D01*
X180338Y93069D01*
X179472Y93428D01*
X178543Y93550D01*
D02*
G37*
G36*
X139173D02*
X138244Y93428D01*
X137378Y93069D01*
X136635Y92499D01*
X136064Y91755D01*
X135706Y90890D01*
X135583Y89961D01*
X135706Y89031D01*
X136064Y88166D01*
X136635Y87422D01*
X137378Y86852D01*
X138244Y86493D01*
X139173Y86371D01*
X140102Y86493D01*
X140968Y86852D01*
X141712Y87422D01*
X142282Y88166D01*
X142641Y89031D01*
X142763Y89961D01*
X142641Y90890D01*
X142282Y91755D01*
X141712Y92499D01*
X140968Y93069D01*
X140102Y93428D01*
X139173Y93550D01*
D02*
G37*
G36*
X131299D02*
X130370Y93428D01*
X129504Y93069D01*
X128761Y92499D01*
X128190Y91755D01*
X127832Y90890D01*
X127709Y89961D01*
X127832Y89031D01*
X128190Y88166D01*
X128761Y87422D01*
X129504Y86852D01*
X130370Y86493D01*
X131299Y86371D01*
X132228Y86493D01*
X133094Y86852D01*
X133837Y87422D01*
X134408Y88166D01*
X134767Y89031D01*
X134889Y89961D01*
X134767Y90890D01*
X134408Y91755D01*
X133837Y92499D01*
X133094Y93069D01*
X132228Y93428D01*
X131299Y93550D01*
D02*
G37*
G36*
X170669Y93550D02*
X169740Y93428D01*
X168874Y93069D01*
X168131Y92499D01*
X167561Y91755D01*
X167202Y90890D01*
X167079Y89961D01*
X167202Y89031D01*
X167561Y88166D01*
X168131Y87422D01*
X168874Y86852D01*
X169740Y86493D01*
X170669Y86371D01*
X171598Y86493D01*
X172464Y86852D01*
X173208Y87422D01*
X173778Y88166D01*
X174137Y89031D01*
X174259Y89961D01*
X174137Y90890D01*
X173778Y91755D01*
X173208Y92499D01*
X172464Y93069D01*
X171598Y93428D01*
X170669Y93550D01*
D02*
G37*
G36*
X226378Y97330D02*
X225140Y97208D01*
X223950Y96847D01*
X222853Y96260D01*
X221891Y95471D01*
X221102Y94510D01*
X220515Y93413D01*
X220154Y92222D01*
X220032Y90984D01*
X220154Y89746D01*
X220515Y88556D01*
X221102Y87459D01*
X221891Y86497D01*
X222853Y85708D01*
X223950Y85122D01*
X225140Y84761D01*
X226378Y84639D01*
X227616Y84761D01*
X228806Y85122D01*
X229903Y85708D01*
X230865Y86497D01*
X231654Y87459D01*
X232241Y88556D01*
X232601Y89746D01*
X232723Y90984D01*
X232601Y92222D01*
X232241Y93413D01*
X231654Y94510D01*
X230865Y95471D01*
X229903Y96260D01*
X228806Y96847D01*
X227616Y97208D01*
X226378Y97330D01*
D02*
G37*
G36*
X88583D02*
X87345Y97208D01*
X86154Y96847D01*
X85057Y96260D01*
X84096Y95471D01*
X83307Y94510D01*
X82720Y93413D01*
X82359Y92222D01*
X82237Y90984D01*
X82359Y89746D01*
X82720Y88556D01*
X83307Y87459D01*
X84096Y86497D01*
X85057Y85708D01*
X86154Y85122D01*
X87345Y84761D01*
X88583Y84639D01*
X89821Y84761D01*
X91011Y85122D01*
X92108Y85708D01*
X93070Y86497D01*
X93859Y87459D01*
X94445Y88556D01*
X94806Y89746D01*
X94928Y90984D01*
X94806Y92222D01*
X94445Y93413D01*
X93859Y94510D01*
X93070Y95471D01*
X92108Y96260D01*
X91011Y96847D01*
X89821Y97208D01*
X88583Y97330D01*
D02*
G37*
G36*
X190354Y85676D02*
X189425Y85554D01*
X188559Y85195D01*
X187816Y84625D01*
X187246Y83881D01*
X186887Y83016D01*
X186765Y82087D01*
X186887Y81157D01*
X187246Y80292D01*
X187816Y79548D01*
X188559Y78978D01*
X189425Y78619D01*
X190354Y78497D01*
X191283Y78619D01*
X192149Y78978D01*
X192893Y79548D01*
X193463Y80292D01*
X193822Y81157D01*
X193944Y82087D01*
X193822Y83016D01*
X193463Y83881D01*
X192893Y84625D01*
X192149Y85195D01*
X191283Y85554D01*
X190354Y85676D01*
D02*
G37*
G36*
X174606D02*
X173677Y85554D01*
X172811Y85195D01*
X172068Y84625D01*
X171497Y83881D01*
X171139Y83016D01*
X171017Y82087D01*
X171139Y81157D01*
X171497Y80292D01*
X172068Y79548D01*
X172811Y78978D01*
X173677Y78619D01*
X174606Y78497D01*
X175535Y78619D01*
X176401Y78978D01*
X177145Y79548D01*
X177715Y80292D01*
X178074Y81157D01*
X178196Y82087D01*
X178074Y83016D01*
X177715Y83881D01*
X177145Y84625D01*
X176401Y85195D01*
X175535Y85554D01*
X174606Y85676D01*
D02*
G37*
G36*
X135236D02*
X134307Y85554D01*
X133441Y85195D01*
X132698Y84625D01*
X132127Y83881D01*
X131769Y83016D01*
X131647Y82087D01*
X131769Y81157D01*
X132127Y80292D01*
X132698Y79548D01*
X133441Y78978D01*
X134307Y78619D01*
X135236Y78497D01*
X136165Y78619D01*
X137031Y78978D01*
X137775Y79548D01*
X138345Y80292D01*
X138704Y81157D01*
X138826Y82087D01*
X138704Y83016D01*
X138345Y83881D01*
X137775Y84625D01*
X137031Y85195D01*
X136165Y85554D01*
X135236Y85676D01*
D02*
G37*
G36*
X182480Y85676D02*
X181551Y85554D01*
X180685Y85195D01*
X179942Y84625D01*
X179372Y83881D01*
X179013Y83016D01*
X178891Y82087D01*
X179013Y81157D01*
X179372Y80292D01*
X179942Y79548D01*
X180685Y78978D01*
X181551Y78619D01*
X182480Y78497D01*
X183409Y78619D01*
X184275Y78978D01*
X185019Y79548D01*
X185589Y80292D01*
X185948Y81157D01*
X186070Y82087D01*
X185948Y83016D01*
X185589Y83881D01*
X185019Y84625D01*
X184275Y85195D01*
X183409Y85554D01*
X182480Y85676D01*
D02*
G37*
G36*
X143110D02*
X142181Y85554D01*
X141315Y85195D01*
X140572Y84625D01*
X140001Y83881D01*
X139643Y83016D01*
X139521Y82087D01*
X139643Y81157D01*
X140001Y80292D01*
X140572Y79548D01*
X141315Y78978D01*
X142181Y78619D01*
X143110Y78497D01*
X144039Y78619D01*
X144905Y78978D01*
X145649Y79548D01*
X146219Y80292D01*
X146578Y81157D01*
X146700Y82087D01*
X146578Y83016D01*
X146219Y83881D01*
X145649Y84625D01*
X144905Y85195D01*
X144039Y85554D01*
X143110Y85676D01*
D02*
G37*
G36*
X119488D02*
X118559Y85554D01*
X117693Y85195D01*
X116950Y84625D01*
X116379Y83881D01*
X116021Y83016D01*
X115898Y82087D01*
X116021Y81157D01*
X116379Y80292D01*
X116950Y79548D01*
X117693Y78978D01*
X118559Y78619D01*
X119488Y78497D01*
X120417Y78619D01*
X121283Y78978D01*
X122027Y79548D01*
X122597Y80292D01*
X122956Y81157D01*
X123078Y82087D01*
X122956Y83016D01*
X122597Y83881D01*
X122027Y84625D01*
X121283Y85195D01*
X120417Y85554D01*
X119488Y85676D01*
D02*
G37*
G36*
X201378Y82939D02*
X199884Y82742D01*
X198491Y82166D01*
X197295Y81248D01*
X196378Y80052D01*
X195801Y78660D01*
X195604Y77165D01*
X195801Y75671D01*
X196378Y74278D01*
X197295Y73083D01*
X198491Y72165D01*
X199884Y71588D01*
X201378Y71391D01*
X202872Y71588D01*
X204265Y72165D01*
X205461Y73083D01*
X206378Y74278D01*
X206955Y75671D01*
X207152Y77165D01*
X206955Y78660D01*
X206378Y80052D01*
X205461Y81248D01*
X204265Y82166D01*
X202872Y82742D01*
X201378Y82939D01*
D02*
G37*
G36*
X182480Y75834D02*
X181551Y75712D01*
X180685Y75353D01*
X179942Y74782D01*
X179372Y74039D01*
X179013Y73173D01*
X178891Y72244D01*
X179013Y71315D01*
X179372Y70449D01*
X179942Y69706D01*
X180685Y69135D01*
X181551Y68777D01*
X182480Y68654D01*
X183409Y68777D01*
X184275Y69135D01*
X185019Y69706D01*
X185589Y70449D01*
X185948Y71315D01*
X186070Y72244D01*
X185948Y73173D01*
X185589Y74039D01*
X185019Y74782D01*
X184275Y75353D01*
X183409Y75712D01*
X182480Y75834D01*
D02*
G37*
G36*
X127362D02*
X126433Y75712D01*
X125567Y75353D01*
X124824Y74782D01*
X124253Y74039D01*
X123895Y73173D01*
X123773Y72244D01*
X123895Y71315D01*
X124253Y70449D01*
X124824Y69706D01*
X125567Y69135D01*
X126433Y68777D01*
X127362Y68654D01*
X128291Y68777D01*
X129157Y69135D01*
X129901Y69706D01*
X130471Y70449D01*
X130830Y71315D01*
X130952Y72244D01*
X130830Y73173D01*
X130471Y74039D01*
X129901Y74782D01*
X129157Y75353D01*
X128291Y75712D01*
X127362Y75834D01*
D02*
G37*
G36*
X190354Y75834D02*
X189425Y75712D01*
X188559Y75353D01*
X187816Y74782D01*
X187246Y74039D01*
X186887Y73173D01*
X186765Y72244D01*
X186887Y71315D01*
X187246Y70449D01*
X187816Y69706D01*
X188559Y69135D01*
X189425Y68777D01*
X190354Y68654D01*
X191283Y68777D01*
X192149Y69135D01*
X192893Y69706D01*
X193463Y70449D01*
X193822Y71315D01*
X193944Y72244D01*
X193822Y73173D01*
X193463Y74039D01*
X192893Y74782D01*
X192149Y75353D01*
X191283Y75712D01*
X190354Y75834D01*
D02*
G37*
G36*
X174606D02*
X173677Y75712D01*
X172811Y75353D01*
X172068Y74782D01*
X171497Y74039D01*
X171139Y73173D01*
X171017Y72244D01*
X171139Y71315D01*
X171497Y70449D01*
X172068Y69706D01*
X172811Y69135D01*
X173677Y68777D01*
X174606Y68654D01*
X175535Y68777D01*
X176401Y69135D01*
X177145Y69706D01*
X177715Y70449D01*
X178074Y71315D01*
X178196Y72244D01*
X178074Y73173D01*
X177715Y74039D01*
X177145Y74782D01*
X176401Y75353D01*
X175535Y75712D01*
X174606Y75834D01*
D02*
G37*
G36*
X170669Y67960D02*
X169740Y67838D01*
X168874Y67479D01*
X168131Y66908D01*
X167561Y66165D01*
X167202Y65299D01*
X167079Y64370D01*
X167202Y63441D01*
X167561Y62575D01*
X168131Y61832D01*
X168874Y61261D01*
X169740Y60903D01*
X170669Y60780D01*
X171598Y60903D01*
X172464Y61261D01*
X173208Y61832D01*
X173778Y62575D01*
X174137Y63441D01*
X174259Y64370D01*
X174137Y65299D01*
X173778Y66165D01*
X173208Y66908D01*
X172464Y67479D01*
X171598Y67838D01*
X170669Y67960D01*
D02*
G37*
G36*
X194291Y67960D02*
X193362Y67838D01*
X192497Y67479D01*
X191753Y66908D01*
X191182Y66165D01*
X190824Y65299D01*
X190702Y64370D01*
X190824Y63441D01*
X191182Y62575D01*
X191753Y61832D01*
X192497Y61261D01*
X193362Y60903D01*
X194291Y60780D01*
X195220Y60903D01*
X196086Y61261D01*
X196830Y61832D01*
X197400Y62575D01*
X197759Y63441D01*
X197881Y64370D01*
X197759Y65299D01*
X197400Y66165D01*
X196830Y66908D01*
X196086Y67479D01*
X195220Y67838D01*
X194291Y67960D01*
D02*
G37*
G36*
X186417D02*
X185488Y67838D01*
X184622Y67479D01*
X183879Y66908D01*
X183308Y66165D01*
X182950Y65299D01*
X182828Y64370D01*
X182950Y63441D01*
X183308Y62575D01*
X183879Y61832D01*
X184622Y61261D01*
X185488Y60903D01*
X186417Y60780D01*
X187346Y60903D01*
X188212Y61261D01*
X188956Y61832D01*
X189526Y62575D01*
X189885Y63441D01*
X190007Y64370D01*
X189885Y65299D01*
X189526Y66165D01*
X188956Y66908D01*
X188212Y67479D01*
X187346Y67838D01*
X186417Y67960D01*
D02*
G37*
G36*
X178543D02*
X177614Y67838D01*
X176748Y67479D01*
X176005Y66908D01*
X175435Y66165D01*
X175076Y65299D01*
X174953Y64370D01*
X175076Y63441D01*
X175435Y62575D01*
X176005Y61832D01*
X176748Y61261D01*
X177614Y60903D01*
X178543Y60780D01*
X179472Y60903D01*
X180338Y61261D01*
X181082Y61832D01*
X181652Y62575D01*
X182011Y63441D01*
X182133Y64370D01*
X182011Y65299D01*
X181652Y66165D01*
X181082Y66908D01*
X180338Y67479D01*
X179472Y67838D01*
X178543Y67960D01*
D02*
G37*
G36*
X226378Y69338D02*
X225140Y69216D01*
X223950Y68855D01*
X222853Y68268D01*
X221891Y67479D01*
X221102Y66518D01*
X220515Y65421D01*
X220154Y64230D01*
X220032Y62992D01*
X220154Y61754D01*
X220515Y60564D01*
X221102Y59467D01*
X221891Y58505D01*
X222853Y57716D01*
X223950Y57130D01*
X225140Y56769D01*
X226378Y56647D01*
X227616Y56769D01*
X228806Y57130D01*
X229903Y57716D01*
X230865Y58505D01*
X231654Y59467D01*
X232241Y60564D01*
X232601Y61754D01*
X232723Y62992D01*
X232601Y64230D01*
X232241Y65421D01*
X231654Y66518D01*
X230865Y67479D01*
X229903Y68268D01*
X228806Y68855D01*
X227616Y69216D01*
X226378Y69338D01*
D02*
G37*
G36*
X88583D02*
X87345Y69216D01*
X86154Y68855D01*
X85057Y68268D01*
X84096Y67479D01*
X83307Y66518D01*
X82720Y65421D01*
X82359Y64230D01*
X82237Y62992D01*
X82359Y61754D01*
X82720Y60564D01*
X83307Y59467D01*
X84096Y58505D01*
X85057Y57716D01*
X86154Y57130D01*
X87345Y56769D01*
X88583Y56647D01*
X89821Y56769D01*
X91011Y57130D01*
X92108Y57716D01*
X93070Y58505D01*
X93859Y59467D01*
X94445Y60564D01*
X94806Y61754D01*
X94928Y62992D01*
X94806Y64230D01*
X94445Y65421D01*
X93859Y66518D01*
X93070Y67479D01*
X92108Y68268D01*
X91011Y68855D01*
X89821Y69216D01*
X88583Y69338D01*
D02*
G37*
G36*
X194291Y41976D02*
X193362Y41853D01*
X192497Y41495D01*
X191753Y40924D01*
X191182Y40181D01*
X190824Y39315D01*
X190702Y38386D01*
X190824Y37457D01*
X191182Y36591D01*
X191753Y35847D01*
X192497Y35277D01*
X193362Y34918D01*
X194291Y34796D01*
X195220Y34918D01*
X196086Y35277D01*
X196830Y35847D01*
X197400Y36591D01*
X197759Y37457D01*
X197881Y38386D01*
X197759Y39315D01*
X197400Y40181D01*
X196830Y40924D01*
X196086Y41495D01*
X195220Y41853D01*
X194291Y41976D01*
D02*
G37*
G36*
X186417D02*
X185488Y41853D01*
X184622Y41495D01*
X183879Y40924D01*
X183308Y40181D01*
X182950Y39315D01*
X182828Y38386D01*
X182950Y37457D01*
X183308Y36591D01*
X183879Y35847D01*
X184622Y35277D01*
X185488Y34918D01*
X186417Y34796D01*
X187346Y34918D01*
X188212Y35277D01*
X188956Y35847D01*
X189526Y36591D01*
X189885Y37457D01*
X190007Y38386D01*
X189885Y39315D01*
X189526Y40181D01*
X188956Y40924D01*
X188212Y41495D01*
X187346Y41853D01*
X186417Y41976D01*
D02*
G37*
G36*
X178543D02*
X177614Y41853D01*
X176748Y41495D01*
X176005Y40924D01*
X175435Y40181D01*
X175076Y39315D01*
X174953Y38386D01*
X175076Y37457D01*
X175435Y36591D01*
X176005Y35847D01*
X176748Y35277D01*
X177614Y34918D01*
X178543Y34796D01*
X179472Y34918D01*
X180338Y35277D01*
X181082Y35847D01*
X181652Y36591D01*
X182011Y37457D01*
X182133Y38386D01*
X182011Y39315D01*
X181652Y40181D01*
X181082Y40924D01*
X180338Y41495D01*
X179472Y41853D01*
X178543Y41976D01*
D02*
G37*
G36*
X170669Y41976D02*
X169740Y41853D01*
X168874Y41495D01*
X168131Y40924D01*
X167561Y40181D01*
X167202Y39315D01*
X167079Y38386D01*
X167202Y37457D01*
X167561Y36591D01*
X168131Y35847D01*
X168874Y35277D01*
X169740Y34918D01*
X170669Y34796D01*
X171598Y34918D01*
X172464Y35277D01*
X173208Y35847D01*
X173778Y36591D01*
X174137Y37457D01*
X174259Y38386D01*
X174137Y39315D01*
X173778Y40181D01*
X173208Y40924D01*
X172464Y41495D01*
X171598Y41853D01*
X170669Y41976D01*
D02*
G37*
G36*
X226378Y45361D02*
X225140Y45239D01*
X223950Y44878D01*
X222853Y44292D01*
X221891Y43503D01*
X221102Y42541D01*
X220515Y41444D01*
X220154Y40254D01*
X220032Y39016D01*
X220154Y37778D01*
X220515Y36587D01*
X221102Y35490D01*
X221891Y34529D01*
X222853Y33740D01*
X223950Y33153D01*
X225140Y32792D01*
X226378Y32670D01*
X227616Y32792D01*
X228806Y33153D01*
X229903Y33740D01*
X230865Y34529D01*
X231654Y35490D01*
X232241Y36587D01*
X232601Y37778D01*
X232723Y39016D01*
X232601Y40254D01*
X232241Y41444D01*
X231654Y42541D01*
X230865Y43503D01*
X229903Y44292D01*
X228806Y44878D01*
X227616Y45239D01*
X226378Y45361D01*
D02*
G37*
G36*
X88583D02*
X87345Y45239D01*
X86154Y44878D01*
X85057Y44292D01*
X84096Y43503D01*
X83307Y42541D01*
X82720Y41444D01*
X82359Y40254D01*
X82237Y39016D01*
X82359Y37778D01*
X82720Y36587D01*
X83307Y35490D01*
X84096Y34529D01*
X85057Y33740D01*
X86154Y33153D01*
X87345Y32792D01*
X88583Y32670D01*
X89821Y32792D01*
X91011Y33153D01*
X92108Y33740D01*
X93070Y34529D01*
X93859Y35490D01*
X94445Y36587D01*
X94806Y37778D01*
X94928Y39016D01*
X94806Y40254D01*
X94445Y41444D01*
X93859Y42541D01*
X93070Y43503D01*
X92108Y44292D01*
X91011Y44878D01*
X89821Y45239D01*
X88583Y45361D01*
D02*
G37*
G36*
X190354Y34102D02*
X189425Y33979D01*
X188559Y33621D01*
X187816Y33050D01*
X187246Y32307D01*
X186887Y31441D01*
X186765Y30512D01*
X186887Y29583D01*
X187246Y28717D01*
X187816Y27973D01*
X188559Y27403D01*
X189425Y27044D01*
X190354Y26922D01*
X191283Y27044D01*
X192149Y27403D01*
X192893Y27973D01*
X193463Y28717D01*
X193822Y29583D01*
X193944Y30512D01*
X193822Y31441D01*
X193463Y32307D01*
X192893Y33050D01*
X192149Y33621D01*
X191283Y33979D01*
X190354Y34102D01*
D02*
G37*
G36*
X174606D02*
X173677Y33979D01*
X172811Y33621D01*
X172068Y33050D01*
X171497Y32307D01*
X171139Y31441D01*
X171017Y30512D01*
X171139Y29583D01*
X171497Y28717D01*
X172068Y27973D01*
X172811Y27403D01*
X173677Y27044D01*
X174606Y26922D01*
X175535Y27044D01*
X176401Y27403D01*
X177145Y27973D01*
X177715Y28717D01*
X178074Y29583D01*
X178196Y30512D01*
X178074Y31441D01*
X177715Y32307D01*
X177145Y33050D01*
X176401Y33621D01*
X175535Y33979D01*
X174606Y34102D01*
D02*
G37*
G36*
X182480Y34102D02*
X181551Y33979D01*
X180685Y33621D01*
X179942Y33050D01*
X179372Y32307D01*
X179013Y31441D01*
X178891Y30512D01*
X179013Y29583D01*
X179372Y28717D01*
X179942Y27973D01*
X180685Y27403D01*
X181551Y27044D01*
X182480Y26922D01*
X183409Y27044D01*
X184275Y27403D01*
X185019Y27973D01*
X185589Y28717D01*
X185948Y29583D01*
X186070Y30512D01*
X185948Y31441D01*
X185589Y32307D01*
X185019Y33050D01*
X184275Y33621D01*
X183409Y33979D01*
X182480Y34102D01*
D02*
G37*
G36*
X119488D02*
X118559Y33979D01*
X117693Y33621D01*
X116950Y33050D01*
X116379Y32307D01*
X116021Y31441D01*
X115898Y30512D01*
X116021Y29583D01*
X116379Y28717D01*
X116950Y27973D01*
X117693Y27403D01*
X118559Y27044D01*
X119488Y26922D01*
X120417Y27044D01*
X121283Y27403D01*
X122027Y27973D01*
X122597Y28717D01*
X122956Y29583D01*
X123078Y30512D01*
X122956Y31441D01*
X122597Y32307D01*
X122027Y33050D01*
X121283Y33621D01*
X120417Y33979D01*
X119488Y34102D01*
D02*
G37*
G36*
X201378Y31364D02*
X199884Y31168D01*
X198491Y30591D01*
X197295Y29673D01*
X196378Y28477D01*
X195801Y27085D01*
X195604Y25591D01*
X195801Y24096D01*
X196378Y22704D01*
X197295Y21508D01*
X198491Y20590D01*
X199884Y20013D01*
X201378Y19817D01*
X202872Y20013D01*
X204265Y20590D01*
X205461Y21508D01*
X206378Y22704D01*
X206955Y24096D01*
X207152Y25591D01*
X206955Y27085D01*
X206378Y28477D01*
X205461Y29673D01*
X204265Y30591D01*
X202872Y31168D01*
X201378Y31364D01*
D02*
G37*
G36*
X182480Y24259D02*
X181551Y24137D01*
X180685Y23778D01*
X179942Y23208D01*
X179372Y22464D01*
X179013Y21598D01*
X178891Y20669D01*
X179013Y19740D01*
X179372Y18874D01*
X179942Y18131D01*
X180685Y17560D01*
X181551Y17202D01*
X182480Y17079D01*
X183409Y17202D01*
X184275Y17560D01*
X185019Y18131D01*
X185589Y18874D01*
X185948Y19740D01*
X186070Y20669D01*
X185948Y21598D01*
X185589Y22464D01*
X185019Y23208D01*
X184275Y23778D01*
X183409Y24137D01*
X182480Y24259D01*
D02*
G37*
G36*
X127362D02*
X126433Y24137D01*
X125567Y23778D01*
X124824Y23208D01*
X124253Y22464D01*
X123895Y21598D01*
X123773Y20669D01*
X123895Y19740D01*
X124253Y18874D01*
X124824Y18131D01*
X125567Y17560D01*
X126433Y17202D01*
X127362Y17079D01*
X128291Y17202D01*
X129157Y17560D01*
X129901Y18131D01*
X130471Y18874D01*
X130830Y19740D01*
X130952Y20669D01*
X130830Y21598D01*
X130471Y22464D01*
X129901Y23208D01*
X129157Y23778D01*
X128291Y24137D01*
X127362Y24259D01*
D02*
G37*
G36*
X190354Y24259D02*
X189425Y24137D01*
X188559Y23778D01*
X187816Y23208D01*
X187246Y22464D01*
X186887Y21598D01*
X186765Y20669D01*
X186887Y19740D01*
X187246Y18874D01*
X187816Y18131D01*
X188559Y17560D01*
X189425Y17202D01*
X190354Y17079D01*
X191283Y17202D01*
X192149Y17560D01*
X192893Y18131D01*
X193463Y18874D01*
X193822Y19740D01*
X193944Y20669D01*
X193822Y21598D01*
X193463Y22464D01*
X192893Y23208D01*
X192149Y23778D01*
X191283Y24137D01*
X190354Y24259D01*
D02*
G37*
G36*
X174606D02*
X173677Y24137D01*
X172811Y23778D01*
X172068Y23208D01*
X171497Y22464D01*
X171139Y21598D01*
X171017Y20669D01*
X171139Y19740D01*
X171497Y18874D01*
X172068Y18131D01*
X172811Y17560D01*
X173677Y17202D01*
X174606Y17079D01*
X175535Y17202D01*
X176401Y17560D01*
X177145Y18131D01*
X177715Y18874D01*
X178074Y19740D01*
X178196Y20669D01*
X178074Y21598D01*
X177715Y22464D01*
X177145Y23208D01*
X176401Y23778D01*
X175535Y24137D01*
X174606Y24259D01*
D02*
G37*
G36*
X170669Y16385D02*
X169740Y16263D01*
X168874Y15904D01*
X168131Y15334D01*
X167561Y14590D01*
X167202Y13724D01*
X167079Y12795D01*
X167202Y11866D01*
X167561Y11000D01*
X168131Y10257D01*
X168874Y9686D01*
X169740Y9328D01*
X170669Y9206D01*
X171598Y9328D01*
X172464Y9686D01*
X173208Y10257D01*
X173778Y11000D01*
X174137Y11866D01*
X174259Y12795D01*
X174137Y13724D01*
X173778Y14590D01*
X173208Y15334D01*
X172464Y15904D01*
X171598Y16263D01*
X170669Y16385D01*
D02*
G37*
G36*
X194291Y16385D02*
X193362Y16263D01*
X192497Y15904D01*
X191753Y15334D01*
X191182Y14590D01*
X190824Y13724D01*
X190702Y12795D01*
X190824Y11866D01*
X191182Y11000D01*
X191753Y10257D01*
X192497Y9686D01*
X193362Y9328D01*
X194291Y9206D01*
X195220Y9328D01*
X196086Y9686D01*
X196830Y10257D01*
X197400Y11000D01*
X197759Y11866D01*
X197881Y12795D01*
X197759Y13724D01*
X197400Y14590D01*
X196830Y15334D01*
X196086Y15904D01*
X195220Y16263D01*
X194291Y16385D01*
D02*
G37*
G36*
X186417D02*
X185488Y16263D01*
X184622Y15904D01*
X183879Y15334D01*
X183308Y14590D01*
X182950Y13724D01*
X182828Y12795D01*
X182950Y11866D01*
X183308Y11000D01*
X183879Y10257D01*
X184622Y9686D01*
X185488Y9328D01*
X186417Y9206D01*
X187346Y9328D01*
X188212Y9686D01*
X188956Y10257D01*
X189526Y11000D01*
X189885Y11866D01*
X190007Y12795D01*
X189885Y13724D01*
X189526Y14590D01*
X188956Y15334D01*
X188212Y15904D01*
X187346Y16263D01*
X186417Y16385D01*
D02*
G37*
G36*
X178543D02*
X177614Y16263D01*
X176748Y15904D01*
X176005Y15334D01*
X175435Y14590D01*
X175076Y13724D01*
X174953Y12795D01*
X175076Y11866D01*
X175435Y11000D01*
X176005Y10257D01*
X176748Y9686D01*
X177614Y9328D01*
X178543Y9206D01*
X179472Y9328D01*
X180338Y9686D01*
X181082Y10257D01*
X181652Y11000D01*
X182011Y11866D01*
X182133Y12795D01*
X182011Y13724D01*
X181652Y14590D01*
X181082Y15334D01*
X180338Y15904D01*
X179472Y16263D01*
X178543Y16385D01*
D02*
G37*
G36*
X88583Y17369D02*
X87345Y17247D01*
X86154Y16886D01*
X85057Y16300D01*
X84096Y15511D01*
X83307Y14549D01*
X82720Y13452D01*
X82359Y12262D01*
X82237Y11024D01*
X82359Y9786D01*
X82720Y8595D01*
X83307Y7498D01*
X84096Y6537D01*
X85057Y5748D01*
X86154Y5161D01*
X87345Y4800D01*
X88583Y4678D01*
X89821Y4800D01*
X91011Y5161D01*
X92108Y5748D01*
X93070Y6537D01*
X93859Y7498D01*
X94445Y8595D01*
X94806Y9786D01*
X94928Y11024D01*
X94806Y12262D01*
X94445Y13452D01*
X93859Y14549D01*
X93070Y15511D01*
X92108Y16300D01*
X91011Y16886D01*
X89821Y17247D01*
X88583Y17369D01*
D02*
G37*
%LPD*%
D27*
X145276Y253150D02*
D03*
Y245866D02*
D03*
X135433Y253150D02*
D03*
Y245866D02*
D03*
D28*
X50394Y127362D02*
D03*
Y134646D02*
D03*
X58661Y127362D02*
D03*
Y134646D02*
D03*
D29*
X74961D02*
D03*
X67323D02*
D03*
D30*
X121102Y253150D02*
X191732D01*
X85827Y134646D02*
Y190157D01*
Y110236D02*
Y134646D01*
X74961D02*
X85827D01*
X154921Y38386D02*
Y64370D01*
Y38083D02*
Y38386D01*
X147047Y12795D02*
X147047Y12795D01*
X154921D01*
X151198Y34360D02*
X154921Y38083D01*
X151198Y30726D02*
Y34360D01*
X150984Y30512D02*
X151198Y30726D01*
X147047Y64370D02*
X147047Y64370D01*
X154921D01*
Y89658D02*
Y89961D01*
X151198Y85935D02*
X154921Y89658D01*
X151198Y82301D02*
Y85935D01*
X150984Y82087D02*
X151198Y82301D01*
X145669Y99213D02*
X154921Y89961D01*
X136850Y99213D02*
X145669D01*
X125827Y110236D02*
X136850Y99213D01*
X85827Y190157D02*
X100787Y205118D01*
X115827Y110236D02*
X125827D01*
X105827D02*
X115827D01*
X95827D02*
X105827D01*
X85827D02*
X95827D01*
X100394Y273858D02*
Y283858D01*
Y273858D02*
X121102Y253150D01*
X199219Y467317D02*
X208268Y458268D01*
Y398583D02*
X217717Y389134D01*
X208268Y398583D02*
Y458268D01*
X203768Y393083D02*
Y456404D01*
X197355Y462817D02*
X203768Y456404D01*
Y393083D02*
X217717Y379134D01*
X87140Y467317D02*
X199219D01*
X60640Y462817D02*
X197355D01*
X35929Y479528D02*
X43929D01*
X60640Y462817D01*
X66929Y479528D02*
X74929D01*
X87140Y467317D01*
X248031Y386221D02*
Y411024D01*
D31*
X135827Y110236D02*
X145827D01*
D32*
X290784Y84252D02*
X295669D01*
X212831Y6299D02*
X290784Y84252D01*
X137402Y6299D02*
X212831D01*
X135236Y8465D02*
X137402Y6299D01*
X135236Y8465D02*
Y20669D01*
X305827Y100709D02*
Y110236D01*
X212992Y7874D02*
X305827Y100709D01*
X144095Y7874D02*
X212992D01*
X139173Y12795D02*
X144095Y7874D01*
X145276Y245669D02*
Y245866D01*
X135433Y245669D02*
Y245866D01*
X158858Y36417D02*
Y72244D01*
X154724Y32283D02*
X158858Y36417D01*
X154724Y24803D02*
Y32283D01*
X51968Y152756D02*
X61104Y143621D01*
X51968Y153563D02*
X55295Y156890D01*
X51968Y152756D02*
Y153563D01*
X45295Y156890D02*
X46420D01*
X70967Y141671D02*
X71260D01*
X60690Y142621D02*
X70017D01*
X61104Y143621D02*
X70017D01*
X70967Y144571D02*
X71260D01*
X70017Y142621D02*
X70967Y141671D01*
X70017Y143621D02*
X70967Y144571D01*
X46420Y156890D02*
X60690Y142621D01*
X154724Y24803D02*
X158858Y20669D01*
X139173Y45079D02*
Y64370D01*
Y45079D02*
X142913Y41339D01*
Y35827D02*
Y41339D01*
X139173Y32087D02*
X142913Y35827D01*
X139173Y12795D02*
Y32087D01*
X135236Y36417D02*
Y72244D01*
X131102Y32283D02*
X135236Y36417D01*
X131102Y24803D02*
Y32283D01*
Y24803D02*
X135236Y20669D01*
D33*
X58661Y127362D02*
Y127559D01*
X50394Y127362D02*
Y127559D01*
X58661Y134646D02*
X67323D01*
X50394D02*
X58661D01*
X50295Y146890D02*
X50345Y146841D01*
Y134695D02*
Y146841D01*
Y134695D02*
X50394Y134646D01*
D34*
X147047Y64370D02*
Y78150D01*
X150984Y82087D01*
X147047Y12795D02*
Y26575D01*
X150984Y30512D01*
D35*
X280394Y138031D02*
D03*
X270394D02*
D03*
X260394D02*
D03*
X250394Y138031D02*
D03*
X240394Y138031D02*
D03*
X230394D02*
D03*
X220394Y138031D02*
D03*
X210394D02*
D03*
X200394Y138031D02*
D03*
X190394D02*
D03*
X180394D02*
D03*
X170394D02*
D03*
X160394Y138031D02*
D03*
X150394Y138031D02*
D03*
X140394D02*
D03*
X130394Y138031D02*
D03*
X120394Y138031D02*
D03*
X110394D02*
D03*
X100394D02*
D03*
X290394Y148031D02*
D03*
X280394D02*
D03*
X270394D02*
D03*
X260394D02*
D03*
X250394D02*
D03*
X240394D02*
D03*
X230394D02*
D03*
X220394D02*
D03*
X210394D02*
D03*
X200394D02*
D03*
X190394D02*
D03*
X180394D02*
D03*
X170394D02*
D03*
X160394D02*
D03*
X150394D02*
D03*
X140394D02*
D03*
X130394D02*
D03*
X120394D02*
D03*
X110394D02*
D03*
X290394Y138031D02*
D03*
X280394Y273858D02*
D03*
X270394D02*
D03*
X260394D02*
D03*
X250394D02*
D03*
X240394D02*
D03*
X230394D02*
D03*
X220394D02*
D03*
X210394D02*
D03*
X200394D02*
D03*
X190394D02*
D03*
X180394D02*
D03*
X170394D02*
D03*
X160394D02*
D03*
X150394D02*
D03*
X140394D02*
D03*
X130394D02*
D03*
X120394D02*
D03*
X110394D02*
D03*
X100394D02*
D03*
X290394Y283858D02*
D03*
X280394Y283858D02*
D03*
X270394D02*
D03*
X260394D02*
D03*
X250394D02*
D03*
X240394D02*
D03*
X230394Y283858D02*
D03*
X220394Y283858D02*
D03*
X210394D02*
D03*
X200394Y283858D02*
D03*
X190394Y283858D02*
D03*
X180394D02*
D03*
X170394D02*
D03*
X160394D02*
D03*
X150394Y283858D02*
D03*
X140394D02*
D03*
X130394Y283858D02*
D03*
X120394D02*
D03*
X110394D02*
D03*
X290394Y273858D02*
D03*
X227716Y339134D02*
D03*
Y349134D02*
D03*
Y359134D02*
D03*
Y369134D02*
D03*
Y379134D02*
D03*
Y389134D02*
D03*
Y399134D02*
D03*
Y409134D02*
D03*
Y419134D02*
D03*
Y429134D02*
D03*
X217717Y339134D02*
D03*
Y349134D02*
D03*
Y359134D02*
D03*
Y369134D02*
D03*
Y379134D02*
D03*
Y389134D02*
D03*
Y399134D02*
D03*
Y409134D02*
D03*
Y419134D02*
D03*
X29685Y339134D02*
D03*
Y349134D02*
D03*
Y359134D02*
D03*
Y369134D02*
D03*
Y379134D02*
D03*
Y389134D02*
D03*
Y399134D02*
D03*
Y409134D02*
D03*
Y419134D02*
D03*
Y429134D02*
D03*
X19685Y339134D02*
D03*
Y349134D02*
D03*
Y359134D02*
D03*
Y369134D02*
D03*
Y379134D02*
D03*
Y389134D02*
D03*
Y399134D02*
D03*
Y409134D02*
D03*
Y419134D02*
D03*
X302362Y339134D02*
D03*
Y349134D02*
D03*
Y359134D02*
D03*
Y369134D02*
D03*
Y379134D02*
D03*
Y389134D02*
D03*
Y399134D02*
D03*
Y409134D02*
D03*
Y419134D02*
D03*
X225827Y310236D02*
D03*
X235827Y310236D02*
D03*
X245827D02*
D03*
X255827D02*
D03*
X265827D02*
D03*
X275827Y310236D02*
D03*
X285827Y310236D02*
D03*
X295827D02*
D03*
X305827D02*
D03*
X62657Y198071D02*
D03*
X52815Y198071D02*
D03*
X12933Y198071D02*
D03*
X22776Y198071D02*
D03*
X175827Y110236D02*
D03*
X165827D02*
D03*
X155827D02*
D03*
X145827D02*
D03*
X135827D02*
D03*
X125827D02*
D03*
X115827D02*
D03*
X105827D02*
D03*
X95827D02*
D03*
X175827Y310236D02*
D03*
X165827Y310236D02*
D03*
X155827D02*
D03*
X145827D02*
D03*
X135827Y310236D02*
D03*
X125827Y310236D02*
D03*
X115827Y310236D02*
D03*
X105827D02*
D03*
X95827D02*
D03*
X305827Y110236D02*
D03*
X295827D02*
D03*
X285827D02*
D03*
X275827D02*
D03*
X265827D02*
D03*
X255827D02*
D03*
X245827D02*
D03*
X235827D02*
D03*
X225827D02*
D03*
D36*
X100394Y148031D02*
D03*
Y283858D02*
D03*
X215827Y310236D02*
D03*
X85827Y110236D02*
D03*
Y310236D02*
D03*
X215827Y110236D02*
D03*
D37*
X23331Y269291D02*
D03*
X54331D02*
D03*
X177165Y479528D02*
D03*
X208165D02*
D03*
X106795D02*
D03*
X137795D02*
D03*
X35929D02*
D03*
X66929D02*
D03*
X248031D02*
D03*
X279031D02*
D03*
D38*
X217717Y429134D02*
D03*
X19685D02*
D03*
X302362D02*
D03*
D39*
X201378Y25591D02*
D03*
X165354D02*
D03*
X201378Y77165D02*
D03*
X165354D02*
D03*
D40*
X154921Y38386D02*
D03*
X147047Y38386D02*
D03*
X139173D02*
D03*
X131299D02*
D03*
X123425D02*
D03*
X190354Y20669D02*
D03*
X182480Y20669D02*
D03*
X174606Y20669D02*
D03*
X194291Y12795D02*
D03*
X186417D02*
D03*
X178543D02*
D03*
X170669Y12795D02*
D03*
X190354Y30512D02*
D03*
X182480Y30512D02*
D03*
X174606Y30512D02*
D03*
X194291Y38386D02*
D03*
X186417D02*
D03*
X178543D02*
D03*
X170669Y38386D02*
D03*
X119488Y30512D02*
D03*
X127362D02*
D03*
X135236Y30512D02*
D03*
X143110Y30512D02*
D03*
X150984Y30512D02*
D03*
X158858Y30512D02*
D03*
X154921Y12795D02*
D03*
X147047Y12795D02*
D03*
X139173D02*
D03*
X131299D02*
D03*
X123425D02*
D03*
X119488Y20669D02*
D03*
X127362D02*
D03*
X135236Y20669D02*
D03*
X143110Y20669D02*
D03*
X150984Y20669D02*
D03*
X158858Y20669D02*
D03*
X50295Y146890D02*
D03*
X55295Y156890D02*
D03*
X40295Y146890D02*
D03*
X30295D02*
D03*
X25295Y156890D02*
D03*
X20295Y146890D02*
D03*
X45295Y156890D02*
D03*
X35295D02*
D03*
X154921Y89961D02*
D03*
X147047Y89961D02*
D03*
X139173D02*
D03*
X131299D02*
D03*
X123425D02*
D03*
X190354Y72244D02*
D03*
X182480Y72244D02*
D03*
X174606Y72244D02*
D03*
X194291Y64370D02*
D03*
X186417D02*
D03*
X178543D02*
D03*
X170669Y64370D02*
D03*
X190354Y82087D02*
D03*
X182480Y82087D02*
D03*
X174606Y82087D02*
D03*
X194291Y89961D02*
D03*
X186417D02*
D03*
X178543D02*
D03*
X170669Y89961D02*
D03*
X119488Y82087D02*
D03*
X127362D02*
D03*
X135236Y82087D02*
D03*
X143110Y82087D02*
D03*
X150984Y82087D02*
D03*
X158858Y82087D02*
D03*
X154921Y64370D02*
D03*
X147047Y64370D02*
D03*
X139173D02*
D03*
X131299D02*
D03*
X123425D02*
D03*
X119488Y72244D02*
D03*
X127362D02*
D03*
X135236Y72244D02*
D03*
X143110Y72244D02*
D03*
X150984Y72244D02*
D03*
X158858Y72244D02*
D03*
D41*
X88583Y39016D02*
D03*
Y11024D02*
D03*
X226378D02*
D03*
Y39016D02*
D03*
Y62992D02*
D03*
Y90984D02*
D03*
X88583D02*
D03*
Y62992D02*
D03*
D42*
X6791Y166575D02*
D03*
X68799D02*
D03*
D43*
X15295Y181890D02*
D03*
X60295D02*
D03*
D44*
X100787Y205118D02*
D03*
X191732Y253150D02*
D03*
X248031Y411024D02*
D03*
Y386221D02*
D03*
D45*
X295669Y84252D02*
D03*
X58661Y127559D02*
D03*
X50394D02*
D03*
X145276Y245669D02*
D03*
X135433D02*
D03*
X71260Y141671D02*
D03*
Y144571D02*
D03*
M02*
