M48
;Layer_Color=9474304
;FILE_FORMAT=2:5
INCH,TZ
;TYPE=PLATED
T1F00S00C0.01200
T2F00S00C0.01968
T3F00S00C0.03150
T4F00S00C0.03543
T5F00S00C0.03937
T7F00S00C0.06299
T8F00S00C0.07992
;TYPE=NON_PLATED
T9F00S00C0.09449
T10F00S00C0.12795
%
T01
X295669Y84252
X58661Y127559
X50394
X71260Y141671
Y144571
X135433Y245669
X145276
T02
X100787Y205118
X191732Y253150
X248031Y386221
Y411024
T03
X123425Y12795
X131299
X139173
X147047
X154921Y12795
X150984Y20669
X143110Y20669
X135236Y20669
X127362Y20669
X119488
Y30512
X127362
X135236Y30512
X143110Y30512
X150984Y30512
X158858Y30512
Y20669
X174606Y20669
X182480Y20669
X190354Y20669
Y30512
X182480Y30512
X174606Y30512
X170669Y38386
X178543Y38386
X186417
X194291
Y12795
X186417
X178543
X170669Y12795
X154921Y38386
X147047Y38386
X139173
X131299
X123425
Y64370
X131299
X139173
X147047
X154921Y64370
X150984Y72244
X143110Y72244
X135236Y72244
X127362Y72244
X119488
X158858
X174606Y72244
X182480Y72244
X190354Y72244
X186417Y64370
X178543
X170669Y64370
X194291Y64370
X190354Y82087
X182480Y82087
X174606Y82087
X170669Y89961
X178543Y89961
X186417
X194291
X154921Y89961
X147047Y89961
X139173
X131299
X123425
X119488Y82087
X127362
X135236Y82087
X143110Y82087
X150984Y82087
X158858Y82087
T04
X20295Y146890
X30295
X40295
X50295
X55295Y156890
X45295
X35295
X25295Y156890
T05
X235827Y110236
X245827
X255827
X265827
X275827
X285827
X295827
X305827
X290394Y138031
X280394
X270394
Y148031
X280394
X290394
X260394
X250394
Y138031
X260394Y138031
X240394
Y148031
X230394
Y138031
X220394Y138031
X210394
X210394Y148031
X220394
X200394
Y138031
X190394
X180394
Y148031
X190394
X170394
X160394
Y138031
X170394Y138031
X150394
X140394
Y148031
X150394
X130394
Y138031
X120394Y138031
X110394
X100394
Y148031
X110394
X120394
X115827Y110236
X105827
X95827
X85827
X125827
X135827
X145827
X155827
X165827
X175827
X215827
X225827
X62657Y198071
X52815Y198071
X22776
X12933Y198071
X19685Y339134
X29685
Y349134
Y359134
Y369134
Y379134
X19685
Y369134
Y359134
Y349134
X85827Y310236
X95827Y310236
X105827
X115827
X125827Y310236
X135827Y310236
X145827Y310236
X155827
X165827
X175827Y310236
X180394Y283858
Y273858
X190394
X200394
Y283858
X190394Y283858
X210394
Y273858
X220394
X230394
Y283858
X220394Y283858
X215827Y310236
X225827Y310236
X227716Y339134
Y349134
Y359134
Y369134
Y379134
X217717
Y369134
Y359134
Y349134
Y339134
X170394Y283858
Y273858
X160394
X150394
X140394
X130394
X120394
X110394
X100394
Y283858
X110394Y283858
X120394
X130394
X140394Y283858
X150394
X160394Y283858
X240394
X240394Y273858
X250394
X260394
X270394
X280394
X290394
Y283858
X280394Y283858
X270394
X260394
X250394
X245827Y310236
X235827
X255827
X265827
X275827Y310236
X285827Y310236
X295827
X305827
X302362Y339134
Y349134
Y359134
Y369134
Y379134
Y389134
Y399134
Y409134
Y419134
Y429134
X227716
Y419134
Y409134
Y399134
Y389134
X217717
Y399134
Y409134
Y419134
Y429134
X29685
Y419134
Y409134
Y399134
Y389134
X19685
Y399134
Y409134
Y419134
Y429134
T07
X6791Y166575
X68799
T08
X88583Y11024
Y39016
Y62992
X226378
Y39016
Y11024
Y90984
X88583
T09
X165354Y25591
X201378
Y77165
X165354
T10
X15295Y181890
X60295
M30
