G04*
G04 #@! TF.GenerationSoftware,Altium Limited,Altium Designer,20.1.12 (249)*
G04*
G04 Layer_Color=32896*
%FSLAX25Y25*%
%MOIN*%
G70*
G04*
G04 #@! TF.SameCoordinates,38A4389A-7558-4E28-873A-C6C5AD051B8D*
G04*
G04*
G04 #@! TF.FilePolarity,Positive*
G04*
G01*
G75*
%ADD11C,0.00787*%
%ADD12C,0.01181*%
%ADD13C,0.00600*%
D11*
X78087Y298346D02*
X312339D01*
Y123150D02*
Y298346D01*
X78087Y123150D02*
X312339D01*
X78087D02*
Y298346D01*
X51279Y209055D02*
Y209842D01*
X54232Y209055D02*
Y209842D01*
X11516Y208957D02*
Y209744D01*
X14469Y208957D02*
Y209744D01*
D12*
X68182Y145462D02*
X76054D01*
Y141526D01*
X74742Y140214D01*
X73430D01*
X72118Y141526D01*
Y145462D01*
Y141526D01*
X70806Y140214D01*
X69494D01*
X68182Y141526D01*
Y145462D01*
X75589Y281890D02*
X70342D01*
X67718Y279266D01*
X70342Y276642D01*
X75589D01*
X71653D01*
Y281890D01*
X70079Y471127D02*
Y463256D01*
X66143D01*
X64831Y464568D01*
Y465879D01*
X66143Y467191D01*
X70079D01*
X66143D01*
X64831Y468503D01*
Y469815D01*
X66143Y471127D01*
X70079D01*
X62207Y463256D02*
Y471127D01*
X58271D01*
X56960Y469815D01*
Y467191D01*
X58271Y465879D01*
X62207D01*
X59583D02*
X56960Y463256D01*
X54336Y471127D02*
Y463256D01*
Y465879D01*
X49088Y471127D01*
X53024Y467191D01*
X49088Y463256D01*
X46464Y461944D02*
X41217D01*
X38593Y471127D02*
Y463256D01*
X33345D01*
X281890Y471127D02*
Y463256D01*
X277954D01*
X276642Y464568D01*
Y465879D01*
X277954Y467191D01*
X281890D01*
X277954D01*
X276642Y468503D01*
Y469815D01*
X277954Y471127D01*
X281890D01*
X274018Y463256D02*
Y471127D01*
X270082D01*
X268771Y469815D01*
Y467191D01*
X270082Y465879D01*
X274018D01*
X271394D02*
X268771Y463256D01*
X266147Y471127D02*
Y463256D01*
Y465879D01*
X260899Y471127D01*
X264835Y467191D01*
X260899Y463256D01*
X258275Y461944D02*
X253028D01*
X250404Y463256D02*
Y471127D01*
X246468D01*
X245156Y469815D01*
Y467191D01*
X246468Y465879D01*
X250404D01*
X247780D02*
X245156Y463256D01*
X140551D02*
Y471127D01*
X137927Y468503D01*
X135303Y471127D01*
Y463256D01*
X128744Y471127D02*
X131368D01*
X132680Y469815D01*
Y464568D01*
X131368Y463256D01*
X128744D01*
X127432Y464568D01*
Y469815D01*
X128744Y471127D01*
X124808D02*
X119561D01*
X122184D01*
Y463256D01*
X116937Y461944D02*
X111689D01*
X109065Y463256D02*
Y471127D01*
X105130D01*
X103818Y469815D01*
Y467191D01*
X105130Y465879D01*
X109065D01*
X106441D02*
X103818Y463256D01*
X211417D02*
Y471127D01*
X208793Y468503D01*
X206170Y471127D01*
Y463256D01*
X199610Y471127D02*
X202234D01*
X203546Y469815D01*
Y464568D01*
X202234Y463256D01*
X199610D01*
X198298Y464568D01*
Y469815D01*
X199610Y471127D01*
X195674D02*
X190427D01*
X193051D01*
Y463256D01*
X187803Y461944D02*
X182555D01*
X179931Y471127D02*
Y463256D01*
X174684D01*
X236878Y210104D02*
X238190Y211416D01*
X240814D01*
X242126Y210104D01*
Y208792D01*
X240814Y207480D01*
X238190D01*
X236878Y206168D01*
Y204856D01*
X238190Y203545D01*
X240814D01*
X242126Y204856D01*
X234255Y211416D02*
X229007D01*
X231631D01*
Y203545D01*
X226383D02*
Y211416D01*
X223759Y208792D01*
X221135Y211416D01*
Y203545D01*
X218512Y210104D02*
X217200Y211416D01*
X214576D01*
X213264Y210104D01*
Y208792D01*
X214576Y207480D01*
X215888D01*
X214576D01*
X213264Y206168D01*
Y204856D01*
X214576Y203545D01*
X217200D01*
X218512Y204856D01*
X205392Y203545D02*
X210640D01*
X205392Y208792D01*
Y210104D01*
X206704Y211416D01*
X209328D01*
X210640Y210104D01*
X194897Y203545D02*
Y211416D01*
X192273Y208792D01*
X189649Y211416D01*
Y203545D01*
X183090Y211416D02*
X185714D01*
X187026Y210104D01*
Y204856D01*
X185714Y203545D01*
X183090D01*
X181778Y204856D01*
Y210104D01*
X183090Y211416D01*
X179154D02*
Y203545D01*
X175218D01*
X173907Y204856D01*
Y210104D01*
X175218Y211416D01*
X179154D01*
X171283D02*
Y204856D01*
X169971Y203545D01*
X167347D01*
X166035Y204856D01*
Y211416D01*
X163411D02*
Y203545D01*
X158163D01*
X150292Y211416D02*
X155540D01*
Y203545D01*
X150292D01*
X155540Y207480D02*
X152916D01*
D13*
X15658Y216511D02*
Y219710D01*
X14058D01*
X13525Y219177D01*
Y218110D01*
X14058Y217577D01*
X15658D01*
X14592D02*
X13525Y216511D01*
X10326D02*
X12459D01*
X10326Y218643D01*
Y219177D01*
X10859Y219710D01*
X11926D01*
X12459Y219177D01*
X54888Y216511D02*
Y219710D01*
X53289D01*
X52756Y219177D01*
Y218110D01*
X53289Y217577D01*
X54888D01*
X53822D02*
X52756Y216511D01*
X51690D02*
X50623D01*
X51156D01*
Y219710D01*
X51690Y219177D01*
X100927Y167741D02*
X101993D01*
X101460D01*
Y165075D01*
X101993Y164542D01*
X102526D01*
X103059Y165075D01*
X97728Y164542D02*
X99861D01*
X97728Y166675D01*
Y167208D01*
X98261Y167741D01*
X99327D01*
X99861Y167208D01*
X100787Y257899D02*
X101854D01*
X101321D01*
Y255233D01*
X101854Y254700D01*
X102387D01*
X102920Y255233D01*
X99721Y254700D02*
X98655D01*
X99188D01*
Y257899D01*
X99721Y257365D01*
X36050Y181112D02*
X36584Y181645D01*
X37650D01*
X38183Y181112D01*
Y178979D01*
X37650Y178446D01*
X36584D01*
X36050Y178979D01*
X34984Y178446D02*
X33918D01*
X34451D01*
Y181645D01*
X34984Y181112D01*
M02*
