G04*
G04 #@! TF.GenerationSoftware,Altium Limited,Altium Designer,20.1.12 (249)*
G04*
G04 Layer_Physical_Order=1*
G04 Layer_Color=255*
%FSLAX25Y25*%
%MOIN*%
G70*
G04*
G04 #@! TF.SameCoordinates,D38EF606-D903-4ADC-9098-C18FB5F004BE*
G04*
G04*
G04 #@! TF.FilePolarity,Positive*
G04*
G01*
G75*
G04:AMPARAMS|DCode=39|XSize=13.78mil|YSize=64.96mil|CornerRadius=0mil|HoleSize=0mil|Usage=FLASHONLY|Rotation=45.000|XOffset=0mil|YOffset=0mil|HoleType=Round|Shape=Round|*
%AMOVALD39*
21,1,0.05118,0.01378,0.00000,0.00000,135.0*
1,1,0.01378,0.01810,-0.01810*
1,1,0.01378,-0.01810,0.01810*
%
%ADD39OVALD39*%

G04:AMPARAMS|DCode=40|XSize=13.78mil|YSize=64.96mil|CornerRadius=0mil|HoleSize=0mil|Usage=FLASHONLY|Rotation=315.000|XOffset=0mil|YOffset=0mil|HoleType=Round|Shape=Round|*
%AMOVALD40*
21,1,0.05118,0.01378,0.00000,0.00000,45.0*
1,1,0.01378,-0.01810,-0.01810*
1,1,0.01378,0.01810,0.01810*
%
%ADD40OVALD40*%

G04:AMPARAMS|DCode=41|XSize=13.78mil|YSize=64.96mil|CornerRadius=0mil|HoleSize=0mil|Usage=FLASHONLY|Rotation=45.000|XOffset=0mil|YOffset=0mil|HoleType=Round|Shape=Rectangle|*
%AMROTATEDRECTD41*
4,1,4,0.01810,-0.02784,-0.02784,0.01810,-0.01810,0.02784,0.02784,-0.01810,0.01810,-0.02784,0.0*
%
%ADD41ROTATEDRECTD41*%

%ADD42O,0.01378X0.03937*%
%ADD43O,0.03937X0.01378*%
%ADD44R,0.09843X0.09843*%
G04:AMPARAMS|DCode=45|XSize=13.78mil|YSize=39.37mil|CornerRadius=0mil|HoleSize=0mil|Usage=FLASHONLY|Rotation=45.000|XOffset=0mil|YOffset=0mil|HoleType=Round|Shape=Round|*
%AMOVALD45*
21,1,0.02559,0.01378,0.00000,0.00000,135.0*
1,1,0.01378,0.00905,-0.00905*
1,1,0.01378,-0.00905,0.00905*
%
%ADD45OVALD45*%

G04:AMPARAMS|DCode=46|XSize=13.78mil|YSize=39.37mil|CornerRadius=0mil|HoleSize=0mil|Usage=FLASHONLY|Rotation=315.000|XOffset=0mil|YOffset=0mil|HoleType=Round|Shape=Round|*
%AMOVALD46*
21,1,0.02559,0.01378,0.00000,0.00000,45.0*
1,1,0.01378,-0.00905,-0.00905*
1,1,0.01378,0.00905,0.00905*
%
%ADD46OVALD46*%

%ADD47P,0.13919X4X360.0*%
G04:AMPARAMS|DCode=48|XSize=15.75mil|YSize=61.02mil|CornerRadius=0mil|HoleSize=0mil|Usage=FLASHONLY|Rotation=135.000|XOffset=0mil|YOffset=0mil|HoleType=Round|Shape=Round|*
%AMOVALD48*
21,1,0.04528,0.01575,0.00000,0.00000,225.0*
1,1,0.01575,0.01601,0.01601*
1,1,0.01575,-0.01601,-0.01601*
%
%ADD48OVALD48*%

G04:AMPARAMS|DCode=49|XSize=15.75mil|YSize=61.02mil|CornerRadius=0mil|HoleSize=0mil|Usage=FLASHONLY|Rotation=135.000|XOffset=0mil|YOffset=0mil|HoleType=Round|Shape=Rectangle|*
%AMROTATEDRECTD49*
4,1,4,0.02714,0.01601,-0.01601,-0.02714,-0.02714,-0.01601,0.01601,0.02714,0.02714,0.01601,0.0*
%
%ADD49ROTATEDRECTD49*%

%ADD50R,0.02559X0.10866*%
%ADD51O,0.02559X0.10866*%
%ADD52R,0.01181X0.06299*%
%ADD53R,0.02362X0.06299*%
%ADD54R,0.03150X0.03150*%
%ADD55R,0.03937X0.05512*%
%ADD56R,0.02559X0.04724*%
%ADD57C,0.01000*%
%ADD58C,0.00500*%
%ADD59C,0.03543*%
%ADD60C,0.05906*%
%ADD61R,0.05906X0.05906*%
%ADD62O,0.03937X0.08268*%
%ADD63O,0.03937X0.07087*%
%ADD64C,0.02400*%
G36*
X158646Y803D02*
X65570D01*
X65441Y1303D01*
X65861Y1849D01*
X66160Y2572D01*
X66262Y3347D01*
Y6496D01*
X66160Y7271D01*
X65861Y7993D01*
X65385Y8613D01*
X64765Y9089D01*
X64043Y9388D01*
X63268Y9490D01*
X62493Y9388D01*
X61771Y9089D01*
X61150Y8613D01*
X60675Y7993D01*
X60376Y7271D01*
X60274Y6496D01*
Y3347D01*
X60376Y2572D01*
X60675Y1849D01*
X61094Y1303D01*
X60965Y803D01*
X31554D01*
X31425Y1303D01*
X31845Y1849D01*
X32144Y2572D01*
X32246Y3347D01*
Y6496D01*
X32144Y7271D01*
X31845Y7993D01*
X31369Y8613D01*
X30749Y9089D01*
X30027Y9388D01*
X29252Y9490D01*
X28477Y9388D01*
X27755Y9089D01*
X27135Y8613D01*
X26659Y7993D01*
X26360Y7271D01*
X26258Y6496D01*
Y3347D01*
X26360Y2572D01*
X26659Y1849D01*
X27078Y1303D01*
X26950Y803D01*
X803D01*
Y218685D01*
X158646D01*
X158646Y803D01*
D02*
G37*
%LPC*%
G36*
X68996Y217597D02*
X68138Y217427D01*
X67410Y216940D01*
X66924Y216213D01*
X66753Y215354D01*
X66924Y214496D01*
X67410Y213768D01*
X68138Y213282D01*
X68996Y213111D01*
X69854Y213282D01*
X70582Y213768D01*
X71068Y214496D01*
X71239Y215354D01*
X71068Y216213D01*
X70582Y216940D01*
X69854Y217427D01*
X68996Y217597D01*
D02*
G37*
G36*
X88795Y217929D02*
X83646D01*
Y212779D01*
X88795D01*
Y217929D01*
D02*
G37*
G36*
X82890D02*
X77740D01*
Y212779D01*
X82890D01*
Y217929D01*
D02*
G37*
G36*
X76984D02*
X71835D01*
Y212779D01*
X76984D01*
Y217929D01*
D02*
G37*
G36*
X99803Y214410D02*
X99080Y214315D01*
X98405Y214035D01*
X97826Y213591D01*
X97382Y213012D01*
X97103Y212338D01*
X97008Y211614D01*
X97103Y210891D01*
X97382Y210216D01*
X97826Y209637D01*
X98405Y209193D01*
X99080Y208914D01*
X99803Y208819D01*
X100527Y208914D01*
X101201Y209193D01*
X101780Y209637D01*
X102224Y210216D01*
X102504Y210891D01*
X102599Y211614D01*
X102504Y212338D01*
X102224Y213012D01*
X101780Y213591D01*
X101201Y214035D01*
X100527Y214315D01*
X99803Y214410D01*
D02*
G37*
G36*
X60630D02*
X59906Y214315D01*
X59232Y214035D01*
X58653Y213591D01*
X58209Y213012D01*
X57930Y212338D01*
X57834Y211614D01*
X57930Y210891D01*
X58209Y210216D01*
X58653Y209637D01*
X59232Y209193D01*
X59906Y208914D01*
X60630Y208819D01*
X61353Y208914D01*
X62028Y209193D01*
X62607Y209637D01*
X63051Y210216D01*
X63330Y210891D01*
X63425Y211614D01*
X63330Y212338D01*
X63051Y213012D01*
X62607Y213591D01*
X62028Y214035D01*
X61353Y214315D01*
X60630Y214410D01*
D02*
G37*
G36*
X33858D02*
X33135Y214315D01*
X32460Y214035D01*
X31881Y213591D01*
X31437Y213012D01*
X31158Y212338D01*
X31063Y211614D01*
X31158Y210891D01*
X31437Y210216D01*
X31881Y209637D01*
X32460Y209193D01*
X33135Y208914D01*
X33858Y208819D01*
X34582Y208914D01*
X35256Y209193D01*
X35835Y209637D01*
X36279Y210216D01*
X36559Y210891D01*
X36654Y211614D01*
X36559Y212338D01*
X36279Y213012D01*
X35835Y213591D01*
X35256Y214035D01*
X34582Y214315D01*
X33858Y214410D01*
D02*
G37*
G36*
X88795Y212024D02*
X83646D01*
Y206874D01*
X88795D01*
Y212024D01*
D02*
G37*
G36*
X82890D02*
X77740D01*
Y206874D01*
X82890D01*
Y212024D01*
D02*
G37*
G36*
X76984D02*
X71835D01*
Y206874D01*
X76984D01*
Y212024D01*
D02*
G37*
G36*
X17390Y208685D02*
Y205264D01*
X20811D01*
X20741Y205796D01*
X20343Y206757D01*
X19709Y207583D01*
X18883Y208217D01*
X17922Y208615D01*
X17390Y208685D01*
D02*
G37*
G36*
X16390D02*
X15858Y208615D01*
X14896Y208217D01*
X14071Y207583D01*
X13437Y206757D01*
X13039Y205796D01*
X12969Y205264D01*
X16390D01*
Y208685D01*
D02*
G37*
G36*
X10842Y208717D02*
X7390D01*
Y205264D01*
X10842D01*
Y208717D01*
D02*
G37*
G36*
X6390D02*
X2937D01*
Y205264D01*
X6390D01*
Y208717D01*
D02*
G37*
G36*
X126575Y214410D02*
X125851Y214315D01*
X125177Y214035D01*
X124598Y213591D01*
X124154Y213012D01*
X123874Y212338D01*
X123779Y211614D01*
X123874Y210891D01*
X124154Y210216D01*
X124598Y209637D01*
X125177Y209193D01*
X125851Y208914D01*
X126575Y208819D01*
X126963Y208870D01*
X127371Y208478D01*
X127385Y208430D01*
Y207890D01*
X125870D01*
Y201866D01*
X123638D01*
Y208480D01*
X119803D01*
X118996Y208641D01*
X118190Y208480D01*
X117701D01*
Y208178D01*
X117410Y207984D01*
X116924Y207256D01*
X116753Y206398D01*
X116924Y205539D01*
X117410Y204812D01*
X117701Y204617D01*
Y201866D01*
X93060D01*
Y202702D01*
X93712Y203138D01*
X94198Y203866D01*
X94369Y204724D01*
X94198Y205583D01*
X93712Y206311D01*
X92984Y206797D01*
X92126Y206967D01*
X91268Y206797D01*
X90540Y206311D01*
X90054Y205583D01*
X89883Y204724D01*
X90054Y203866D01*
X90540Y203138D01*
X91268Y202652D01*
X91530Y202600D01*
Y201418D01*
X87705Y197592D01*
X87244Y197839D01*
X87283Y198031D01*
X87112Y198890D01*
X86625Y199618D01*
X85898Y200104D01*
X85039Y200275D01*
X84181Y200104D01*
X83453Y199618D01*
X82967Y198890D01*
X82796Y198031D01*
X82950Y197261D01*
X82907Y197135D01*
X82802Y196959D01*
X82723Y196857D01*
X82205Y196899D01*
X82092Y197468D01*
X81606Y198196D01*
X80878Y198682D01*
X80020Y198853D01*
X79161Y198682D01*
X78434Y198196D01*
X77947Y197468D01*
X77893Y197193D01*
X77367Y196900D01*
X77029Y197020D01*
X77016Y197052D01*
X77007Y197225D01*
X77168Y198031D01*
X76997Y198890D01*
X76511Y199618D01*
X75783Y200104D01*
X74924Y200275D01*
X74066Y200104D01*
X73338Y199618D01*
X72852Y198890D01*
X72684Y198044D01*
X72626Y198005D01*
X72217Y197804D01*
X70789Y199232D01*
Y200271D01*
X70883Y200290D01*
X71611Y200776D01*
X72097Y201504D01*
X72268Y202362D01*
X72097Y203221D01*
X71611Y203948D01*
X70883Y204434D01*
X70025Y204605D01*
X69166Y204434D01*
X68855Y204227D01*
X68515Y204736D01*
X67787Y205222D01*
X66929Y205393D01*
X66071Y205222D01*
X65343Y204736D01*
X64857Y204008D01*
X64758Y203512D01*
X64244Y203253D01*
X63386Y203424D01*
X62527Y203253D01*
X61800Y202767D01*
X61313Y202040D01*
X61143Y201181D01*
X61313Y200323D01*
X61800Y199595D01*
X62527Y199109D01*
X62621Y199090D01*
Y197202D01*
X62679Y196909D01*
X62845Y196661D01*
X69034Y190473D01*
X68727Y190077D01*
X68434Y190135D01*
X67343D01*
X66967Y190697D01*
X66240Y191183D01*
X65381Y191354D01*
X64523Y191183D01*
X63795Y190697D01*
X63309Y189969D01*
X63138Y189111D01*
X63309Y188253D01*
X63795Y187525D01*
X64523Y187039D01*
X65381Y186868D01*
X66240Y187039D01*
X66967Y187525D01*
X67398Y188169D01*
X67491Y188192D01*
X67565Y188179D01*
X68024Y187880D01*
X68111Y187443D01*
X68485Y186884D01*
X69314Y186055D01*
X69204Y185582D01*
X69141Y185520D01*
X68438Y185051D01*
X67952Y184323D01*
X67781Y183465D01*
X67952Y182606D01*
X68070Y182429D01*
X67980Y181977D01*
X68111Y181318D01*
X68275Y181073D01*
X68037Y180530D01*
X67828Y180498D01*
X65799Y182527D01*
X65852Y182606D01*
X66023Y183465D01*
X65852Y184323D01*
X65366Y185051D01*
X64638Y185537D01*
X63779Y185708D01*
X62921Y185537D01*
X62193Y185051D01*
X61707Y184323D01*
X61536Y183465D01*
X61707Y182606D01*
X62193Y181878D01*
X62921Y181392D01*
X63779Y181221D01*
X64638Y181392D01*
X64717Y181445D01*
X67176Y178987D01*
X67424Y178821D01*
X67716Y178763D01*
X70037D01*
X70329Y178821D01*
X70553Y178971D01*
X71094Y178863D01*
X71753Y178994D01*
X72312Y179367D01*
X72661Y179019D01*
X72287Y178460D01*
X72156Y177801D01*
X72263Y177267D01*
X71670Y176674D01*
X71368Y176875D01*
X70509Y177046D01*
X69651Y176875D01*
X68923Y176389D01*
X68437Y175662D01*
X68266Y174803D01*
X68437Y173945D01*
X68923Y173217D01*
X69651Y172731D01*
X70509Y172560D01*
X71368Y172731D01*
X71964Y173129D01*
X72464Y172936D01*
Y171382D01*
X72370Y171364D01*
X71642Y170877D01*
X71408Y170528D01*
X70914Y170367D01*
X70187Y170853D01*
X69328Y171024D01*
X68470Y170853D01*
X67742Y170367D01*
X67256Y169639D01*
X67085Y168781D01*
X67256Y167922D01*
X67721Y167227D01*
X66782Y166289D01*
X66616Y166041D01*
X66558Y165748D01*
Y164966D01*
X66117Y164731D01*
X65885Y164886D01*
X65026Y165057D01*
X64168Y164886D01*
X63440Y164400D01*
X62954Y163672D01*
X62783Y162814D01*
X62954Y161955D01*
X63440Y161228D01*
X64168Y160741D01*
X64924Y160591D01*
X64980Y160313D01*
X65353Y159755D01*
X65004Y159406D01*
X64446Y159780D01*
X63787Y159911D01*
X63128Y159780D01*
X62569Y159406D01*
X62196Y158848D01*
X62185Y158795D01*
X61643Y158630D01*
X54491Y165782D01*
Y167141D01*
X55153Y167583D01*
X55639Y168311D01*
X55810Y169169D01*
X55639Y170028D01*
X55153Y170755D01*
X54425Y171242D01*
X53567Y171412D01*
X52875Y171275D01*
X52860Y171349D01*
X52499Y171890D01*
X53297Y172688D01*
X53462Y172936D01*
X53521Y173228D01*
Y177347D01*
X55724D01*
Y184858D01*
X53521D01*
Y186140D01*
X53659Y186289D01*
X53938Y186496D01*
X54724Y186340D01*
X55583Y186510D01*
X56310Y186997D01*
X56797Y187724D01*
X56968Y188583D01*
X56797Y189441D01*
X56310Y190169D01*
X55583Y190655D01*
X54724Y190826D01*
X53938Y190669D01*
X53659Y190877D01*
X53521Y191026D01*
Y200969D01*
X55724D01*
Y208480D01*
X49787D01*
Y200969D01*
X51991D01*
Y190551D01*
X52049Y190259D01*
X52215Y190010D01*
X52705Y189521D01*
X52652Y189441D01*
X52481Y188583D01*
X52652Y187724D01*
X52705Y187645D01*
X52215Y187155D01*
X52049Y186907D01*
X51991Y186614D01*
Y184858D01*
X49787D01*
Y177347D01*
X51991D01*
Y173545D01*
X51115Y172669D01*
X50787Y172734D01*
X49929Y172563D01*
X49201Y172077D01*
X48715Y171349D01*
X48607Y170807D01*
X48107Y170856D01*
Y172767D01*
X48420Y172829D01*
X49148Y173316D01*
X49634Y174043D01*
X49805Y174902D01*
X49634Y175760D01*
X49148Y176488D01*
X48420Y176974D01*
X47562Y177145D01*
X47314Y177095D01*
X46805Y177504D01*
X46802Y177638D01*
X47255Y177942D01*
X47742Y178669D01*
X47912Y179528D01*
X47742Y180386D01*
X47255Y181114D01*
X46528Y181600D01*
X45669Y181771D01*
X44811Y181600D01*
X44083Y181114D01*
X43597Y180386D01*
X43426Y179528D01*
X43597Y178669D01*
X44083Y177942D01*
X44811Y177455D01*
X44847Y177448D01*
Y162230D01*
X44266Y161841D01*
X41064Y158640D01*
X40669Y158049D01*
X40638Y157892D01*
X40638Y157891D01*
X40345Y157950D01*
X31028D01*
X31009Y158043D01*
X30523Y158771D01*
X29795Y159257D01*
X28937Y159428D01*
X28079Y159257D01*
X27351Y158771D01*
X26865Y158043D01*
X26694Y157185D01*
X26865Y156327D01*
X27351Y155599D01*
X28079Y155113D01*
X28937Y154942D01*
X29795Y155113D01*
X30523Y155599D01*
X31009Y156327D01*
X31028Y156420D01*
X37128D01*
X37431Y155920D01*
X37294Y155235D01*
X37465Y154377D01*
X37951Y153649D01*
X38679Y153163D01*
X39537Y152992D01*
X40205Y153125D01*
X43131Y150199D01*
X43462Y149978D01*
X43852Y149901D01*
X45577D01*
X49584Y145895D01*
X49537Y145661D01*
X49668Y145002D01*
X50042Y144444D01*
X49693Y144095D01*
X49134Y144468D01*
X48475Y144599D01*
X47816Y144468D01*
X47258Y144095D01*
X46884Y143536D01*
X46808Y143153D01*
X46424Y143076D01*
X46285Y142983D01*
X45775Y142986D01*
X45677Y143133D01*
X45289Y143714D01*
X44561Y144200D01*
X43703Y144371D01*
X42844Y144200D01*
X42116Y143714D01*
X41630Y142986D01*
X41460Y142128D01*
X41547Y141688D01*
X41339Y141219D01*
X40480Y141049D01*
X39753Y140562D01*
X39266Y139835D01*
X39096Y138976D01*
X39182Y138541D01*
X38732Y138240D01*
X38654Y138293D01*
X37795Y138463D01*
X36937Y138293D01*
X36209Y137806D01*
X35723Y137079D01*
X35552Y136220D01*
X35585Y136053D01*
X34968Y135931D01*
X34241Y135444D01*
X33830Y134830D01*
X33275Y134677D01*
X29223Y138730D01*
X28975Y138895D01*
X28682Y138954D01*
X26500D01*
X26482Y139047D01*
X26201Y139468D01*
X26501Y139918D01*
X26772Y139864D01*
X27630Y140035D01*
X28358Y140521D01*
X28844Y141249D01*
X29015Y142107D01*
X29489Y142124D01*
X29534Y141899D01*
X29929Y141308D01*
X30520Y140913D01*
X31207Y140777D01*
X31343Y140090D01*
X31738Y139499D01*
X32329Y139103D01*
X33027Y138965D01*
X33724Y139103D01*
X33977Y139272D01*
X34574Y138873D01*
X35432Y138703D01*
X36291Y138873D01*
X37018Y139360D01*
X37505Y140087D01*
X37675Y140946D01*
X37505Y141804D01*
X37151Y142334D01*
X37517Y142700D01*
X37912Y143291D01*
X38051Y143989D01*
X37912Y144686D01*
X37597Y145157D01*
X37905Y145363D01*
X38391Y146090D01*
X38562Y146949D01*
X38391Y147807D01*
X37905Y148535D01*
X37177Y149021D01*
X36319Y149192D01*
X35460Y149021D01*
X34733Y148535D01*
X34722Y148518D01*
X34135Y148541D01*
X33898Y148896D01*
X33668Y149050D01*
X33327Y149417D01*
X33217Y149657D01*
X33366Y149936D01*
X33502Y150126D01*
X34322Y150289D01*
X35050Y150775D01*
X35536Y151503D01*
X35707Y152361D01*
X35536Y153220D01*
X35050Y153947D01*
X34322Y154434D01*
X33464Y154604D01*
X32605Y154434D01*
X31878Y153947D01*
X31391Y153220D01*
X31366Y153094D01*
X30836Y152989D01*
X30523Y153456D01*
X29795Y153942D01*
X28937Y154113D01*
X28079Y153942D01*
X27351Y153456D01*
X26865Y152728D01*
X26694Y151870D01*
X26865Y151012D01*
X27351Y150284D01*
X27706Y150047D01*
X27600Y149516D01*
X27586Y149513D01*
X26859Y149027D01*
X26373Y148299D01*
X26202Y147441D01*
X26217Y147363D01*
X25071Y146216D01*
X26483Y144803D01*
X26319Y144261D01*
X25913Y144180D01*
X25185Y143694D01*
X24699Y142966D01*
X24529Y142107D01*
X24699Y141249D01*
X24981Y140828D01*
X24680Y140378D01*
X24409Y140432D01*
X23551Y140261D01*
X22823Y139775D01*
X22337Y139047D01*
X22166Y138189D01*
X22337Y137331D01*
X22572Y136978D01*
X22528Y136815D01*
X22311Y136469D01*
X21583Y136324D01*
X21176Y136052D01*
X20561Y136230D01*
X20343Y136757D01*
X19709Y137583D01*
X18883Y138216D01*
X17922Y138615D01*
X16890Y138751D01*
X15858Y138615D01*
X14896Y138216D01*
X14071Y137583D01*
X13437Y136757D01*
X13039Y135796D01*
X12903Y134764D01*
X13039Y133732D01*
X13437Y132770D01*
X14071Y131945D01*
X14896Y131311D01*
X15858Y130913D01*
X16890Y130777D01*
X17922Y130913D01*
X18883Y131311D01*
X19709Y131945D01*
X20257Y132660D01*
X20810Y132732D01*
X20855Y132666D01*
X21583Y132179D01*
X22441Y132009D01*
X23299Y132179D01*
X24027Y132666D01*
X24513Y133393D01*
X24684Y134252D01*
X24513Y135110D01*
X24278Y135462D01*
X24322Y135626D01*
X24539Y135972D01*
X25268Y136117D01*
X25996Y136603D01*
X26482Y137331D01*
X26500Y137424D01*
X28365D01*
X32108Y133682D01*
X31963Y133203D01*
X31819Y133175D01*
X31091Y132688D01*
X30605Y131961D01*
X30434Y131102D01*
X30605Y130244D01*
X31091Y129516D01*
X31637Y129152D01*
X31811Y128944D01*
X31776Y128529D01*
X31573Y128225D01*
X31442Y127566D01*
X31573Y126907D01*
X31946Y126348D01*
X31598Y126000D01*
X31039Y126373D01*
X30522Y126476D01*
X30590Y126816D01*
X30419Y127674D01*
X29933Y128402D01*
X29205Y128888D01*
X28346Y129059D01*
X27488Y128888D01*
X26760Y128402D01*
X26664Y128258D01*
X26063D01*
X25799Y128653D01*
X25071Y129139D01*
X24213Y129310D01*
X23354Y129139D01*
X22626Y128653D01*
X22140Y127925D01*
X21970Y127067D01*
X22140Y126208D01*
X22626Y125481D01*
X23354Y124995D01*
X24213Y124824D01*
X25071Y124995D01*
X25799Y125481D01*
X25895Y125625D01*
X26496D01*
X26760Y125230D01*
X27488Y124743D01*
X27516Y124228D01*
X27397Y124049D01*
X27321Y123665D01*
X26937Y123589D01*
X26379Y123216D01*
X26005Y122657D01*
X25929Y122274D01*
X25545Y122197D01*
X25126Y121917D01*
X24814Y122384D01*
X24087Y122871D01*
X23228Y123041D01*
X22370Y122871D01*
X21642Y122384D01*
X21156Y121657D01*
X20985Y120798D01*
X21156Y119940D01*
X21642Y119212D01*
X22109Y118900D01*
X21829Y118481D01*
X21698Y117822D01*
X21829Y117163D01*
X22203Y116605D01*
X25822Y112986D01*
X26380Y112612D01*
X27039Y112481D01*
X27376Y112548D01*
X30052Y109871D01*
X29817Y109520D01*
X29647Y108661D01*
X29817Y107803D01*
X30304Y107075D01*
X31031Y106589D01*
X31890Y106418D01*
X32748Y106589D01*
X33476Y107075D01*
X33962Y107803D01*
X34133Y108661D01*
X33962Y109520D01*
X33476Y110248D01*
X32748Y110734D01*
X31890Y110905D01*
X31299Y110787D01*
X28610Y113476D01*
X28628Y113541D01*
X28630Y113544D01*
X28634Y113563D01*
X28735Y113934D01*
X29090Y114004D01*
X29649Y114377D01*
X30022Y114936D01*
X30099Y115320D01*
X30482Y115396D01*
X31041Y115770D01*
X31295Y116150D01*
X31875Y116277D01*
X35772Y112380D01*
X35821Y112134D01*
X36308Y111406D01*
X37035Y110920D01*
X37894Y110749D01*
X38752Y110920D01*
X39480Y111406D01*
X39966Y112134D01*
X40137Y112992D01*
X39966Y113850D01*
X39480Y114578D01*
X38752Y115065D01*
X38576Y115099D01*
X38568Y115143D01*
X38347Y115473D01*
X34709Y119111D01*
X34836Y119691D01*
X35217Y119945D01*
X35590Y120504D01*
X35721Y121163D01*
X35590Y121822D01*
X35217Y122381D01*
X35565Y122729D01*
X36124Y122356D01*
X36783Y122225D01*
X37442Y122356D01*
X38001Y122729D01*
X38294Y123168D01*
X38765Y122973D01*
X38702Y122656D01*
X38873Y121798D01*
X39359Y121070D01*
X40086Y120584D01*
X40945Y120413D01*
X41803Y120584D01*
X42531Y121070D01*
X43017Y121798D01*
X43188Y122656D01*
X43017Y123515D01*
X42531Y124242D01*
X41803Y124729D01*
X40945Y124899D01*
X40690Y124849D01*
X40495Y125320D01*
X40785Y125513D01*
X41158Y126072D01*
X41234Y126455D01*
X41618Y126532D01*
X42176Y126905D01*
X42495Y127382D01*
X42866Y127346D01*
X42995Y127298D01*
Y126221D01*
X43053Y125928D01*
X43219Y125680D01*
X54241Y114658D01*
X53898Y114146D01*
X53728Y113287D01*
X53898Y112429D01*
X54384Y111701D01*
X55112Y111215D01*
X55971Y111044D01*
X56730Y111195D01*
X56950Y111116D01*
X57234Y110884D01*
X57376Y110165D01*
X57863Y109438D01*
X58590Y108951D01*
X59449Y108781D01*
X60307Y108951D01*
X61035Y109438D01*
X61521Y110165D01*
X61692Y111024D01*
X61521Y111882D01*
X61035Y112610D01*
X60307Y113096D01*
X59449Y113267D01*
X58689Y113116D01*
X58469Y113195D01*
X58186Y113427D01*
X58043Y114146D01*
X57557Y114874D01*
X56829Y115360D01*
X55971Y115531D01*
X55604Y115458D01*
X45812Y125250D01*
X46058Y125711D01*
X46063Y125710D01*
X46921Y125880D01*
X47649Y126367D01*
X48135Y127094D01*
X48306Y127953D01*
X48179Y128592D01*
X48574Y128986D01*
X49213Y128859D01*
X50071Y129030D01*
X50799Y129516D01*
X51285Y130244D01*
X51420Y130924D01*
X51814Y130846D01*
X52672Y131017D01*
X53400Y131503D01*
X53886Y132231D01*
X54036Y132983D01*
X54545D01*
X54620Y132606D01*
X55107Y131878D01*
X55037Y131412D01*
X54639Y130817D01*
X54468Y129959D01*
X54639Y129100D01*
X55125Y128373D01*
X55853Y127886D01*
X56711Y127716D01*
X57364Y127846D01*
X57373Y127842D01*
X57754Y127461D01*
X57757Y127453D01*
X57627Y126800D01*
X57798Y125941D01*
X58284Y125214D01*
X59012Y124727D01*
X59871Y124557D01*
X60729Y124727D01*
X61457Y125214D01*
X61943Y125941D01*
X62114Y126800D01*
X61943Y127658D01*
X61457Y128386D01*
X60729Y128872D01*
X59871Y129043D01*
X59218Y128913D01*
X59209Y128917D01*
X58828Y129297D01*
X58825Y129306D01*
X58955Y129959D01*
X58784Y130817D01*
X58297Y131545D01*
X58368Y132011D01*
X58765Y132606D01*
X58936Y133464D01*
X58765Y134323D01*
X58279Y135050D01*
X57551Y135537D01*
X56693Y135707D01*
X56682Y135705D01*
X56487Y136176D01*
X57098Y136584D01*
X57584Y137312D01*
X57642Y137602D01*
X57917Y137548D01*
X58775Y137718D01*
X59503Y138205D01*
X59989Y138932D01*
X60160Y139791D01*
X59989Y140649D01*
X59930Y140738D01*
X61958Y142766D01*
X62124Y143014D01*
X62182Y143307D01*
Y146639D01*
X62124Y146931D01*
X62364Y147384D01*
X62497Y147411D01*
X62871Y147661D01*
X64433D01*
X64653Y147330D01*
X65381Y146844D01*
X66239Y146673D01*
X67098Y146844D01*
X67825Y147330D01*
X68312Y148058D01*
X68312Y148058D01*
X68812Y148009D01*
Y145582D01*
X67867Y144637D01*
X67787Y144691D01*
X66929Y144861D01*
X66071Y144691D01*
X65343Y144204D01*
X64857Y143476D01*
X64686Y142618D01*
X64857Y141760D01*
X65343Y141032D01*
X66071Y140546D01*
X66929Y140375D01*
X67787Y140546D01*
X68515Y141032D01*
X69002Y141760D01*
X69172Y142618D01*
X69002Y143476D01*
X68948Y143556D01*
X70117Y144725D01*
X70283Y144973D01*
X70341Y145265D01*
Y152399D01*
X70341Y152399D01*
X70283Y152692D01*
X70117Y152940D01*
X70117Y152940D01*
X69021Y154035D01*
X69128Y154570D01*
X68997Y155229D01*
X68623Y155787D01*
X68972Y156136D01*
X69531Y155763D01*
X69764Y155716D01*
X70198Y155512D01*
X70271Y155144D01*
X70369Y154653D01*
X70855Y153926D01*
X71583Y153439D01*
X72441Y153269D01*
X73299Y153439D01*
X74027Y153926D01*
X74513Y154653D01*
X74684Y155512D01*
X74513Y156370D01*
X74279Y156721D01*
X74329Y156796D01*
X74387Y157088D01*
Y158140D01*
X74887Y158291D01*
X75186Y157844D01*
X75913Y157358D01*
X76772Y157187D01*
X77630Y157358D01*
X78358Y157844D01*
X78844Y158572D01*
X79015Y159430D01*
X78844Y160289D01*
X78358Y161016D01*
X77630Y161503D01*
X77397Y161549D01*
X77252Y162027D01*
X78146Y162921D01*
X75683Y165384D01*
X77372Y167074D01*
X77870Y167025D01*
X77941Y166918D01*
X78669Y166432D01*
X79528Y166261D01*
X80386Y166432D01*
X81114Y166918D01*
X81600Y167646D01*
X81674Y168018D01*
X82140Y168038D01*
X82186Y168029D01*
X82666Y167312D01*
X83394Y166825D01*
X84252Y166655D01*
X85110Y166825D01*
X85838Y167312D01*
X86324Y168039D01*
X86375Y168294D01*
X86837Y168485D01*
X86937Y168419D01*
X87795Y168248D01*
X88654Y168419D01*
X89381Y168905D01*
X89868Y169632D01*
X90038Y170491D01*
X89868Y171349D01*
X89381Y172077D01*
X88654Y172563D01*
X88560Y172582D01*
Y175577D01*
X88502Y175869D01*
X88898Y176177D01*
X91206Y173869D01*
X91206Y173869D01*
X91454Y173703D01*
X91746Y173645D01*
X91746Y173645D01*
X103814D01*
X103833Y173551D01*
X104319Y172823D01*
X105047Y172337D01*
X105905Y172166D01*
X106764Y172337D01*
X107492Y172823D01*
X107978Y173551D01*
X108149Y174409D01*
X107978Y175268D01*
X107492Y175996D01*
X106764Y176482D01*
X105905Y176653D01*
X105738Y176619D01*
X105615Y177236D01*
X105129Y177964D01*
X104402Y178450D01*
X103543Y178621D01*
X103376Y178587D01*
X103253Y179205D01*
X102767Y179933D01*
X102040Y180419D01*
X101181Y180590D01*
X100323Y180419D01*
X99595Y179933D01*
X99109Y179205D01*
X99090Y179111D01*
X97874D01*
X97712Y179611D01*
X98135Y180244D01*
X98306Y181102D01*
X98135Y181961D01*
X97649Y182688D01*
X97083Y183067D01*
Y185039D01*
X97005Y185430D01*
X96784Y185760D01*
X93722Y188823D01*
X93391Y189044D01*
X93001Y189121D01*
X91096D01*
X90964Y189319D01*
X90442Y189668D01*
X90438Y189704D01*
X90744Y190168D01*
X109144D01*
X112520Y186792D01*
Y185926D01*
X111800Y185444D01*
X111313Y184717D01*
X111143Y183858D01*
X111313Y183000D01*
X111800Y182272D01*
X112527Y181786D01*
X113386Y181615D01*
X114244Y181786D01*
X114972Y182272D01*
X115458Y183000D01*
X115629Y183858D01*
X115458Y184717D01*
X114972Y185444D01*
X114374Y185844D01*
X114526Y186344D01*
X129035D01*
X129374Y185844D01*
X129253Y185236D01*
X129325Y184873D01*
X128915Y184373D01*
X123638D01*
Y184858D01*
X117701D01*
Y177347D01*
X123638D01*
Y182844D01*
X129868D01*
X130161Y182902D01*
X130409Y183068D01*
X130558Y183217D01*
X130638Y183164D01*
X131496Y182993D01*
X132354Y183164D01*
X133082Y183650D01*
X133568Y184378D01*
X133739Y185236D01*
X133568Y186095D01*
X133082Y186822D01*
X132508Y187206D01*
X132371Y187776D01*
X132930Y188336D01*
X132931Y188336D01*
X133096Y188584D01*
X133154Y188877D01*
X133472Y189233D01*
X133600D01*
X133893Y189292D01*
X134141Y189457D01*
X134432Y189748D01*
X137909D01*
Y189748D01*
X138174Y189858D01*
X139415Y188617D01*
X139415Y188617D01*
X139663Y188451D01*
X139956Y188393D01*
X139956Y188393D01*
X140131D01*
X140301Y187893D01*
X139897Y187583D01*
X139264Y186757D01*
X138865Y185796D01*
X138730Y184764D01*
X138865Y183732D01*
X139264Y182770D01*
X139897Y181945D01*
X140723Y181311D01*
X141685Y180913D01*
X142717Y180777D01*
X143748Y180913D01*
X144710Y181311D01*
X145536Y181945D01*
X146169Y182770D01*
X146568Y183732D01*
X146703Y184764D01*
X146568Y185796D01*
X146169Y186757D01*
X145536Y187583D01*
X144976Y188012D01*
X144974Y188018D01*
X145028Y188603D01*
X145049Y188617D01*
X148740Y192307D01*
X148861Y192489D01*
X149185Y192563D01*
X149418Y192569D01*
X149897Y191945D01*
X150723Y191311D01*
X151685Y190913D01*
X152717Y190777D01*
X153748Y190913D01*
X154710Y191311D01*
X155536Y191945D01*
X156169Y192770D01*
X156568Y193732D01*
X156703Y194764D01*
X156568Y195796D01*
X156169Y196757D01*
X155536Y197583D01*
X154710Y198216D01*
X153748Y198615D01*
X153481Y198650D01*
Y198971D01*
X153423Y199264D01*
X153257Y199512D01*
X153005Y199764D01*
X153257Y200016D01*
X153423Y200264D01*
X153481Y200557D01*
Y200878D01*
X153748Y200913D01*
X154710Y201311D01*
X155536Y201945D01*
X156169Y202770D01*
X156568Y203732D01*
X156703Y204764D01*
X156568Y205796D01*
X156169Y206757D01*
X155536Y207583D01*
X154710Y208217D01*
X153748Y208615D01*
X152717Y208751D01*
X151685Y208615D01*
X150723Y208217D01*
X149897Y207583D01*
X149264Y206757D01*
X148865Y205796D01*
X148730Y204764D01*
X148865Y203732D01*
X149264Y202770D01*
X149897Y201945D01*
X150723Y201311D01*
X150822Y201270D01*
X150889Y201116D01*
X150912Y200692D01*
X146789Y196568D01*
X146329Y196603D01*
X146208Y196664D01*
X146169Y196757D01*
X145536Y197583D01*
X144710Y198216D01*
X143748Y198615D01*
X142717Y198751D01*
X141685Y198615D01*
X141583Y198573D01*
X139807Y200349D01*
X139998Y200811D01*
X146669D01*
Y208717D01*
X139845D01*
X138572Y209990D01*
X138324Y210155D01*
X138031Y210213D01*
X129536D01*
X129202Y210714D01*
X129275Y210891D01*
X129370Y211614D01*
X129275Y212338D01*
X128996Y213012D01*
X128552Y213591D01*
X127973Y214035D01*
X127298Y214315D01*
X126575Y214410D01*
D02*
G37*
G36*
X20811Y204264D02*
X17390D01*
Y200843D01*
X17922Y200913D01*
X18883Y201311D01*
X19709Y201945D01*
X20343Y202770D01*
X20741Y203732D01*
X20811Y204264D01*
D02*
G37*
G36*
X16390D02*
X12969D01*
X13039Y203732D01*
X13437Y202770D01*
X14071Y201945D01*
X14896Y201311D01*
X15858Y200913D01*
X16390Y200843D01*
Y204264D01*
D02*
G37*
G36*
X10842D02*
X7390D01*
Y200811D01*
X10842D01*
Y204264D01*
D02*
G37*
G36*
X6390D02*
X2937D01*
Y200811D01*
X6390D01*
Y204264D01*
D02*
G37*
G36*
X40764Y208480D02*
X34827D01*
Y200969D01*
X35673D01*
X35723Y200716D01*
X36209Y199989D01*
X36937Y199502D01*
X37795Y199332D01*
X38654Y199502D01*
X39381Y199989D01*
X39868Y200716D01*
X39918Y200969D01*
X40764D01*
Y208480D01*
D02*
G37*
G36*
X41732Y199881D02*
X40874Y199710D01*
X40146Y199224D01*
X39660Y198496D01*
X39489Y197638D01*
X39660Y196779D01*
X40146Y196052D01*
X40874Y195565D01*
X41732Y195395D01*
X42591Y195565D01*
X43318Y196052D01*
X43805Y196779D01*
X43975Y197638D01*
X43805Y198496D01*
X43318Y199224D01*
X42591Y199710D01*
X41732Y199881D01*
D02*
G37*
G36*
X16890Y198751D02*
X15858Y198615D01*
X14896Y198216D01*
X14071Y197583D01*
X13437Y196757D01*
X13039Y195796D01*
X12903Y194764D01*
X13039Y193732D01*
X13437Y192770D01*
X14071Y191945D01*
X14896Y191311D01*
X15858Y190913D01*
X16890Y190777D01*
X17922Y190913D01*
X18883Y191311D01*
X19709Y191945D01*
X20343Y192770D01*
X20741Y193732D01*
X20877Y194764D01*
X20741Y195796D01*
X20343Y196757D01*
X19709Y197583D01*
X18883Y198216D01*
X17922Y198615D01*
X16890Y198751D01*
D02*
G37*
G36*
X6890D02*
X5858Y198615D01*
X4896Y198216D01*
X4071Y197583D01*
X3437Y196757D01*
X3039Y195796D01*
X2903Y194764D01*
X3039Y193732D01*
X3437Y192770D01*
X4071Y191945D01*
X4896Y191311D01*
X5858Y190913D01*
X6890Y190777D01*
X7922Y190913D01*
X8883Y191311D01*
X9709Y191945D01*
X10343Y192770D01*
X10741Y193732D01*
X10877Y194764D01*
X10741Y195796D01*
X10343Y196757D01*
X9709Y197583D01*
X8883Y198216D01*
X7922Y198615D01*
X6890Y198751D01*
D02*
G37*
G36*
X26772Y186889D02*
X25913Y186718D01*
X25185Y186232D01*
X24699Y185504D01*
X24529Y184646D01*
X24699Y183787D01*
X25185Y183060D01*
X25913Y182573D01*
X26772Y182403D01*
X27630Y182573D01*
X28358Y183060D01*
X28844Y183787D01*
X29015Y184646D01*
X28844Y185504D01*
X28358Y186232D01*
X27630Y186718D01*
X26772Y186889D01*
D02*
G37*
G36*
X152717Y188751D02*
X151685Y188615D01*
X150723Y188216D01*
X149897Y187583D01*
X149264Y186757D01*
X148865Y185796D01*
X148730Y184764D01*
X148865Y183732D01*
X149264Y182770D01*
X149897Y181945D01*
X150723Y181311D01*
X151685Y180913D01*
X152717Y180777D01*
X153748Y180913D01*
X154710Y181311D01*
X155536Y181945D01*
X156169Y182770D01*
X156568Y183732D01*
X156703Y184764D01*
X156568Y185796D01*
X156169Y186757D01*
X155536Y187583D01*
X154710Y188216D01*
X153748Y188615D01*
X152717Y188751D01*
D02*
G37*
G36*
X16890D02*
X15858Y188615D01*
X14896Y188216D01*
X14071Y187583D01*
X13437Y186757D01*
X13039Y185796D01*
X12903Y184764D01*
X13039Y183732D01*
X13437Y182770D01*
X14071Y181945D01*
X14896Y181311D01*
X15858Y180913D01*
X16890Y180777D01*
X17922Y180913D01*
X18883Y181311D01*
X19709Y181945D01*
X20343Y182770D01*
X20741Y183732D01*
X20877Y184764D01*
X20741Y185796D01*
X20343Y186757D01*
X19709Y187583D01*
X18883Y188216D01*
X17922Y188615D01*
X16890Y188751D01*
D02*
G37*
G36*
X6890D02*
X5858Y188615D01*
X4896Y188216D01*
X4071Y187583D01*
X3437Y186757D01*
X3039Y185796D01*
X2903Y184764D01*
X3039Y183732D01*
X3437Y182770D01*
X4071Y181945D01*
X4896Y181311D01*
X5858Y180913D01*
X6890Y180777D01*
X7922Y180913D01*
X8883Y181311D01*
X9709Y181945D01*
X10343Y182770D01*
X10741Y183732D01*
X10877Y184764D01*
X10741Y185796D01*
X10343Y186757D01*
X9709Y187583D01*
X8883Y188216D01*
X7922Y188615D01*
X6890Y188751D01*
D02*
G37*
G36*
X38189Y184920D02*
X37877Y184858D01*
X35221D01*
Y177347D01*
X41157D01*
Y184858D01*
X38501D01*
X38189Y184920D01*
D02*
G37*
G36*
X24545Y179802D02*
X23686Y179631D01*
X22959Y179145D01*
X22472Y178418D01*
X22302Y177559D01*
X22391Y177110D01*
X22453Y176695D01*
X22028Y176567D01*
X21601Y176482D01*
X21128Y176166D01*
X20528Y176310D01*
X20343Y176757D01*
X19709Y177583D01*
X18883Y178217D01*
X17922Y178615D01*
X16890Y178751D01*
X15858Y178615D01*
X14896Y178217D01*
X14071Y177583D01*
X13437Y176757D01*
X13039Y175796D01*
X12903Y174764D01*
X13039Y173732D01*
X13437Y172770D01*
X14071Y171945D01*
X14896Y171311D01*
X15858Y170913D01*
X16890Y170777D01*
X17922Y170913D01*
X18883Y171311D01*
X19709Y171945D01*
X20324Y172746D01*
X20377Y172806D01*
X20801Y172847D01*
X20899Y172806D01*
X21601Y172337D01*
X22459Y172166D01*
X23318Y172337D01*
X24046Y172823D01*
X24532Y173551D01*
X24702Y174409D01*
X24613Y174859D01*
X24551Y175274D01*
X24976Y175402D01*
X25403Y175487D01*
X26131Y175973D01*
X26617Y176701D01*
X26788Y177559D01*
X26617Y178418D01*
X26131Y179145D01*
X25403Y179631D01*
X24545Y179802D01*
D02*
G37*
G36*
X60417Y177129D02*
X59559Y176958D01*
X58831Y176472D01*
X58345Y175744D01*
X58174Y174885D01*
X58345Y174027D01*
X58831Y173299D01*
X59559Y172813D01*
X60417Y172642D01*
X61275Y172813D01*
X62003Y173299D01*
X62489Y174027D01*
X62660Y174885D01*
X62489Y175744D01*
X62003Y176472D01*
X61275Y176958D01*
X60417Y177129D01*
D02*
G37*
G36*
X152717Y178751D02*
X151685Y178615D01*
X150723Y178217D01*
X149897Y177583D01*
X149264Y176757D01*
X148865Y175796D01*
X148730Y174764D01*
X148865Y173732D01*
X149264Y172770D01*
X149897Y171945D01*
X150723Y171311D01*
X151685Y170913D01*
X152717Y170777D01*
X153748Y170913D01*
X154710Y171311D01*
X155536Y171945D01*
X156169Y172770D01*
X156568Y173732D01*
X156703Y174764D01*
X156568Y175796D01*
X156169Y176757D01*
X155536Y177583D01*
X154710Y178217D01*
X153748Y178615D01*
X152717Y178751D01*
D02*
G37*
G36*
X142717D02*
X141685Y178615D01*
X140723Y178217D01*
X139897Y177583D01*
X139264Y176757D01*
X138865Y175796D01*
X138730Y174764D01*
X138865Y173732D01*
X139264Y172770D01*
X139897Y171945D01*
X140723Y171311D01*
X141685Y170913D01*
X142717Y170777D01*
X143748Y170913D01*
X144710Y171311D01*
X145536Y171945D01*
X146169Y172770D01*
X146568Y173732D01*
X146703Y174764D01*
X146568Y175796D01*
X146169Y176757D01*
X145536Y177583D01*
X144710Y178217D01*
X143748Y178615D01*
X142717Y178751D01*
D02*
G37*
G36*
X6890D02*
X5858Y178615D01*
X4896Y178217D01*
X4071Y177583D01*
X3437Y176757D01*
X3039Y175796D01*
X2903Y174764D01*
X3039Y173732D01*
X3437Y172770D01*
X4071Y171945D01*
X4896Y171311D01*
X5858Y170913D01*
X6890Y170777D01*
X7922Y170913D01*
X8883Y171311D01*
X9709Y171945D01*
X10343Y172770D01*
X10741Y173732D01*
X10877Y174764D01*
X10741Y175796D01*
X10343Y176757D01*
X9709Y177583D01*
X8883Y178217D01*
X7922Y178615D01*
X6890Y178751D01*
D02*
G37*
G36*
X95410Y172734D02*
X94552Y172563D01*
X93824Y172077D01*
X93338Y171349D01*
X93167Y170491D01*
X93338Y169632D01*
X93824Y168905D01*
X94552Y168419D01*
X95410Y168248D01*
X96269Y168419D01*
X96996Y168905D01*
X97483Y169632D01*
X97653Y170491D01*
X97483Y171349D01*
X96996Y172077D01*
X96269Y172563D01*
X95410Y172734D01*
D02*
G37*
G36*
X147343Y169960D02*
X146484Y169789D01*
X145756Y169303D01*
X145270Y168575D01*
X145238Y168411D01*
X144787Y168196D01*
X144691Y168225D01*
X143748Y168615D01*
X142717Y168751D01*
X141685Y168615D01*
X140723Y168217D01*
X139897Y167583D01*
X139264Y166757D01*
X138865Y165796D01*
X138730Y164764D01*
X138865Y163732D01*
X139264Y162770D01*
X139897Y161945D01*
X140723Y161311D01*
X141685Y160913D01*
X142717Y160777D01*
X143748Y160913D01*
X144710Y161311D01*
X145536Y161945D01*
X146169Y162770D01*
X146568Y163732D01*
X146703Y164764D01*
X146646Y165198D01*
X147011Y165539D01*
X147343Y165473D01*
X148201Y165644D01*
X148355Y165747D01*
X148821Y165457D01*
X148730Y164764D01*
X148865Y163732D01*
X149264Y162770D01*
X149897Y161945D01*
X150723Y161311D01*
X151685Y160913D01*
X152717Y160777D01*
X153748Y160913D01*
X154710Y161311D01*
X155536Y161945D01*
X156169Y162770D01*
X156568Y163732D01*
X156703Y164764D01*
X156568Y165796D01*
X156169Y166757D01*
X155536Y167583D01*
X154710Y168217D01*
X153748Y168615D01*
X152717Y168751D01*
X151685Y168615D01*
X150723Y168217D01*
X150059Y167707D01*
X150044Y167707D01*
X149565Y167896D01*
X149546Y167914D01*
X149415Y168575D01*
X148929Y169303D01*
X148201Y169789D01*
X147343Y169960D01*
D02*
G37*
G36*
X61319Y169074D02*
X60461Y168903D01*
X59733Y168417D01*
X59247Y167689D01*
X59076Y166831D01*
X59247Y165972D01*
X59733Y165245D01*
X60461Y164758D01*
X61319Y164588D01*
X62177Y164758D01*
X62905Y165245D01*
X63391Y165972D01*
X63562Y166831D01*
X63391Y167689D01*
X62905Y168417D01*
X62177Y168903D01*
X61319Y169074D01*
D02*
G37*
G36*
X88702Y166870D02*
X88043Y166739D01*
X87485Y166366D01*
X83866Y162747D01*
X83492Y162188D01*
X83037Y162339D01*
X83132Y162814D01*
X82961Y163672D01*
X82475Y164400D01*
X81747Y164886D01*
X80889Y165057D01*
X80030Y164886D01*
X79303Y164400D01*
X78816Y163672D01*
X78646Y162814D01*
X78816Y161955D01*
X79303Y161228D01*
X80030Y160741D01*
X80889Y160571D01*
X81747Y160741D01*
X81827Y160794D01*
X82532Y160089D01*
X82532Y160089D01*
X82780Y159923D01*
X83073Y159865D01*
X84184D01*
X84477Y159923D01*
X84484Y159918D01*
X84642Y159385D01*
X83022Y157766D01*
X82857Y157518D01*
X82798Y157225D01*
Y143978D01*
X82857Y143686D01*
X83022Y143438D01*
X83619Y142841D01*
X83371Y142382D01*
X82606Y142230D01*
X81879Y141744D01*
X81392Y141016D01*
X81221Y140157D01*
X81392Y139299D01*
X81879Y138571D01*
X82606Y138085D01*
X83465Y137914D01*
X84323Y138085D01*
X85051Y138571D01*
X85537Y139299D01*
X85689Y140064D01*
X86148Y140312D01*
X95012Y131448D01*
X95260Y131282D01*
X95553Y131223D01*
X97122D01*
X97140Y131130D01*
X97627Y130402D01*
X98354Y129916D01*
X99213Y129745D01*
X100071Y129916D01*
X100799Y130402D01*
X101285Y131130D01*
X101456Y131988D01*
X101285Y132847D01*
X100799Y133574D01*
X100071Y134061D01*
X99213Y134231D01*
X98354Y134061D01*
X97627Y133574D01*
X97140Y132847D01*
X97122Y132753D01*
X95870D01*
X93074Y135549D01*
X93213Y136116D01*
X93795Y136504D01*
X94281Y137232D01*
X94451Y138091D01*
X94294Y138882D01*
X95029Y139617D01*
X95195Y139865D01*
X95253Y140157D01*
Y140734D01*
X95753Y141001D01*
X95992Y140841D01*
X96850Y140670D01*
X97709Y140841D01*
X98436Y141327D01*
X98923Y142055D01*
X99094Y142913D01*
X98953Y143618D01*
X99925Y144589D01*
X100395Y144496D01*
X101054Y144627D01*
X101612Y145000D01*
X101961Y144652D01*
X101588Y144093D01*
X101457Y143434D01*
X101588Y142775D01*
X101961Y142216D01*
X102520Y141843D01*
X102625Y141822D01*
X102837Y141307D01*
X102779Y141015D01*
Y131518D01*
X102763Y131507D01*
X102277Y130780D01*
X102106Y129921D01*
X102277Y129063D01*
X102763Y128335D01*
X103491Y127849D01*
X104349Y127678D01*
X105208Y127849D01*
X105935Y128335D01*
X106059Y128521D01*
X106559D01*
X106683Y128336D01*
X107410Y127850D01*
X108269Y127679D01*
X109127Y127850D01*
X109842Y128328D01*
X110559Y127849D01*
X111417Y127678D01*
X112276Y127849D01*
X112908Y128272D01*
X113409Y128110D01*
Y126107D01*
X113315Y126088D01*
X112587Y125602D01*
X112101Y124874D01*
X111930Y124016D01*
X112101Y123157D01*
X112419Y122681D01*
X112388Y122073D01*
X112343Y121992D01*
X111901Y121331D01*
X111731Y120472D01*
X111901Y119614D01*
X112388Y118886D01*
X113115Y118400D01*
X113974Y118229D01*
X114832Y118400D01*
X115560Y118886D01*
X116046Y119614D01*
X116065Y119708D01*
X121975D01*
X122268Y119766D01*
X122516Y119932D01*
X122538Y119954D01*
X122934Y119646D01*
X122876Y119354D01*
Y117696D01*
X122934Y117404D01*
X123100Y117156D01*
X124508Y115747D01*
X124305Y115444D01*
X124135Y114585D01*
X124305Y113727D01*
X124792Y112999D01*
X125519Y112513D01*
X126378Y112342D01*
X127082Y112482D01*
X127582Y112188D01*
Y111811D01*
X127640Y111518D01*
X127806Y111270D01*
X129083Y109993D01*
X129030Y109914D01*
X128859Y109055D01*
X129030Y108197D01*
X129516Y107469D01*
X130244Y106983D01*
X130313Y106969D01*
X130351Y106547D01*
X130338Y106454D01*
X129800Y106095D01*
X129427Y105536D01*
X129350Y105153D01*
X128966Y105076D01*
X128556Y104802D01*
X117323D01*
X117197Y104886D01*
X116339Y105057D01*
X115480Y104886D01*
X114752Y104400D01*
X114266Y103672D01*
X114095Y102814D01*
X114121Y102685D01*
X113710Y102191D01*
X113115Y102072D01*
X112388Y101586D01*
X111901Y100858D01*
X111731Y100000D01*
X111901Y99142D01*
X112388Y98414D01*
X113115Y97928D01*
X113974Y97757D01*
X114832Y97928D01*
X115560Y98414D01*
X116046Y99142D01*
X116217Y100000D01*
X116191Y100129D01*
X116603Y100623D01*
X117197Y100741D01*
X117925Y101228D01*
X118411Y101955D01*
X118571Y102763D01*
X125812D01*
X125870Y102680D01*
X125746Y102001D01*
X125624Y101919D01*
X125251Y101360D01*
X125174Y100977D01*
X124791Y100900D01*
X124232Y100527D01*
X123859Y99968D01*
X123782Y99585D01*
X123399Y99509D01*
X122840Y99135D01*
X122467Y98576D01*
X122390Y98193D01*
X122007Y98117D01*
X121448Y97743D01*
X121075Y97185D01*
X120999Y96801D01*
X120615Y96725D01*
X120056Y96351D01*
X119683Y95793D01*
X119607Y95409D01*
X119223Y95333D01*
X118664Y94959D01*
X118291Y94401D01*
X118215Y94017D01*
X117831Y93941D01*
X117616Y93797D01*
X117060Y94027D01*
X117033Y94165D01*
X116547Y94893D01*
X115819Y95379D01*
X114961Y95550D01*
X114102Y95379D01*
X113374Y94893D01*
X112888Y94165D01*
X112717Y93307D01*
X112888Y92449D01*
X113374Y91721D01*
X114102Y91235D01*
X114279Y91199D01*
X114409Y90664D01*
X114115Y90225D01*
X113984Y89566D01*
X114115Y88907D01*
X114488Y88348D01*
X114140Y88000D01*
X113581Y88373D01*
X112922Y88504D01*
X112689Y88458D01*
X110169Y90977D01*
X109838Y91198D01*
X109448Y91276D01*
X106277D01*
X105898Y91842D01*
X105171Y92328D01*
X104312Y92499D01*
X103454Y92328D01*
X102726Y91842D01*
X102240Y91114D01*
X102069Y90256D01*
X102240Y89398D01*
X102726Y88670D01*
X103454Y88184D01*
X104312Y88013D01*
X105171Y88184D01*
X105898Y88670D01*
X106277Y89236D01*
X109026D01*
X110820Y87442D01*
X110693Y86862D01*
X110313Y86608D01*
X109939Y86049D01*
X109863Y85665D01*
X109479Y85589D01*
X108921Y85216D01*
X108547Y84657D01*
X108471Y84273D01*
X108087Y84197D01*
X107838Y84030D01*
X107282Y84260D01*
X107191Y84718D01*
X106705Y85445D01*
X105977Y85931D01*
X105119Y86102D01*
X104261Y85931D01*
X103533Y85445D01*
X103058Y84734D01*
X103001Y84664D01*
X102523Y84561D01*
X101145Y85940D01*
X101285Y86150D01*
X101456Y87008D01*
X101285Y87866D01*
X100799Y88594D01*
X100071Y89080D01*
X99213Y89251D01*
X98354Y89080D01*
X97627Y88594D01*
X97140Y87866D01*
X96969Y87008D01*
X97140Y86150D01*
X97627Y85422D01*
X98354Y84935D01*
X99213Y84765D01*
X100000Y84921D01*
X101329Y83592D01*
X101010Y83204D01*
X100968Y83232D01*
X100465Y83568D01*
X99606Y83739D01*
X98748Y83568D01*
X98020Y83082D01*
X97534Y82354D01*
X97363Y81496D01*
X97534Y80638D01*
X98020Y79910D01*
X98748Y79424D01*
X99606Y79253D01*
X99837Y79299D01*
X101294Y77841D01*
X101294Y77841D01*
X101294Y77841D01*
X101345Y77790D01*
X101181Y77248D01*
X101128Y77237D01*
X100569Y76864D01*
X100196Y76306D01*
X100119Y75922D01*
X99736Y75845D01*
X99177Y75472D01*
X98804Y74914D01*
X98673Y74255D01*
X98804Y73595D01*
X99177Y73037D01*
X98829Y72688D01*
X98270Y73062D01*
X97611Y73193D01*
X97292Y73129D01*
X96767Y73654D01*
X96436Y73875D01*
X96046Y73953D01*
X90449D01*
X90070Y74519D01*
X89343Y75005D01*
X88484Y75176D01*
X87626Y75005D01*
X86898Y74519D01*
X86412Y73791D01*
X86241Y72933D01*
X86412Y72075D01*
X86898Y71347D01*
X87626Y70861D01*
X88484Y70690D01*
X89343Y70861D01*
X90070Y71347D01*
X90449Y71913D01*
X95025D01*
X95177Y71413D01*
X95001Y71296D01*
X94628Y70738D01*
X94552Y70354D01*
X94168Y70278D01*
X93609Y69904D01*
X93236Y69346D01*
X93160Y68962D01*
X92776Y68886D01*
X92217Y68512D01*
X91844Y67954D01*
X91768Y67570D01*
X91384Y67494D01*
X90903Y67173D01*
X90228Y67624D01*
X89370Y67794D01*
X88512Y67624D01*
X87784Y67137D01*
X87679Y66980D01*
X87056Y66949D01*
X86488Y67328D01*
X85630Y67499D01*
X84772Y67328D01*
X84361Y67054D01*
X83806Y67284D01*
X83784Y67394D01*
X83297Y68121D01*
X82570Y68608D01*
X81711Y68779D01*
X80853Y68608D01*
X80125Y68121D01*
X79639Y67394D01*
X79468Y66535D01*
X79639Y65677D01*
X80125Y64949D01*
X80853Y64463D01*
X81368Y64361D01*
X84642Y61087D01*
X84477Y60545D01*
X84424Y60534D01*
X83866Y60161D01*
X83492Y59602D01*
X83416Y59219D01*
X83032Y59142D01*
X82474Y58769D01*
X82100Y58210D01*
X81969Y57551D01*
X82100Y56892D01*
X82474Y56334D01*
X86093Y52715D01*
X86651Y52341D01*
X87310Y52210D01*
X87885Y52324D01*
X88906Y51303D01*
X88872Y51252D01*
X88702Y50394D01*
X88872Y49535D01*
X89359Y48808D01*
X90087Y48321D01*
X90945Y48151D01*
X91803Y48321D01*
X92531Y48808D01*
X92919Y49389D01*
X93487Y49528D01*
X96580Y46435D01*
X96747Y45598D01*
X97233Y44871D01*
X97961Y44384D01*
X98819Y44214D01*
X99360Y44321D01*
X99555Y43850D01*
X99201Y43614D01*
X98715Y42886D01*
X98544Y42028D01*
X98715Y41169D01*
X99201Y40441D01*
X99783Y40053D01*
X99709Y39528D01*
X99437Y39474D01*
X98709Y38988D01*
X98223Y38260D01*
X98052Y37402D01*
X98223Y36543D01*
X98709Y35816D01*
X99437Y35329D01*
X99471Y35322D01*
Y30213D01*
X97957D01*
Y17346D01*
X101067D01*
X101385Y16960D01*
X101300Y16535D01*
X101471Y15677D01*
X101957Y14949D01*
X102685Y14463D01*
X102685Y14463D01*
X102718Y14451D01*
X102957Y14307D01*
Y12598D01*
X102457Y12549D01*
X102383Y12917D01*
X101880Y13671D01*
X101126Y14175D01*
X100236Y14352D01*
X99347Y14175D01*
X98956Y13914D01*
X98436Y13791D01*
X97709Y14277D01*
X96850Y14448D01*
X95992Y14277D01*
X95264Y13791D01*
X94778Y13063D01*
X94607Y12205D01*
X94778Y11346D01*
X95264Y10619D01*
X95992Y10132D01*
X96850Y9962D01*
X97412Y10073D01*
X97912Y9713D01*
Y3720D01*
X98089Y2831D01*
X98593Y2077D01*
X99347Y1573D01*
X100236Y1396D01*
X101126Y1573D01*
X101880Y2077D01*
X102383Y2831D01*
X102457Y3199D01*
X102957Y3150D01*
Y1441D01*
X107457D01*
X107516Y1441D01*
Y1441D01*
X107957D01*
Y1441D01*
X112457D01*
X112516Y1441D01*
Y1441D01*
X112957D01*
Y1441D01*
X117457D01*
X117516Y1441D01*
Y1441D01*
X117957D01*
Y1441D01*
X122516D01*
Y14307D01*
X120120D01*
X119752Y14807D01*
X119861Y15354D01*
X119691Y16213D01*
X119267Y16847D01*
X119428Y17346D01*
X122516D01*
Y25818D01*
X123043Y26170D01*
X123529Y26897D01*
X123700Y27756D01*
X123529Y28614D01*
X123043Y29342D01*
X122516Y29694D01*
Y30213D01*
X117957D01*
X117957Y30213D01*
X117516D01*
Y30213D01*
X117457Y30213D01*
X112957D01*
X112957Y30213D01*
X112516D01*
Y30213D01*
X112457Y30213D01*
X107957D01*
X107957Y30213D01*
X107516D01*
Y30213D01*
X107457Y30213D01*
X106001D01*
Y37579D01*
X106001Y37579D01*
X105943Y37871D01*
X105777Y38120D01*
X105777Y38120D01*
X102807Y41090D01*
X102860Y41169D01*
X103031Y42028D01*
X102860Y42886D01*
X102374Y43614D01*
X101646Y44100D01*
X100787Y44271D01*
X100246Y44163D01*
X100051Y44634D01*
X100405Y44871D01*
X100891Y45598D01*
X101062Y46457D01*
X100891Y47315D01*
X100405Y48043D01*
X99677Y48529D01*
X98819Y48700D01*
X97961Y48529D01*
X97233Y48043D01*
X97144Y48034D01*
X90594Y54584D01*
X90753Y55125D01*
X91312Y55498D01*
X91367Y55580D01*
X91611Y55546D01*
X91868Y55430D01*
X92022Y54653D01*
X92508Y53926D01*
X93236Y53439D01*
X94095Y53269D01*
X94953Y53439D01*
X95681Y53926D01*
X96167Y54653D01*
X96338Y55512D01*
X96167Y56370D01*
X95681Y57098D01*
X94953Y57584D01*
X94181Y57738D01*
X94061Y58011D01*
X94031Y58239D01*
X94096Y58282D01*
X94469Y58841D01*
X94546Y59225D01*
X94929Y59301D01*
X95488Y59674D01*
X95861Y60233D01*
X95938Y60616D01*
X96321Y60693D01*
X96880Y61066D01*
X97253Y61625D01*
X97264Y61678D01*
X97806Y61842D01*
X107391Y52257D01*
X106983Y51646D01*
X106812Y50787D01*
X106983Y49929D01*
X107469Y49201D01*
X108197Y48715D01*
X109055Y48544D01*
X109759Y48684D01*
X110259Y48390D01*
Y43036D01*
X110165Y43017D01*
X109438Y42531D01*
X108951Y41803D01*
X108781Y40945D01*
X108951Y40086D01*
X109438Y39359D01*
X110165Y38873D01*
X111024Y38702D01*
X111882Y38873D01*
X112610Y39359D01*
X113096Y40086D01*
X113267Y40945D01*
X113096Y41803D01*
X112610Y42531D01*
X111882Y43017D01*
X111788Y43036D01*
Y52490D01*
X111788Y52490D01*
X111730Y52783D01*
X111564Y53031D01*
X111564Y53031D01*
X103384Y61212D01*
X103529Y61690D01*
X103614Y61707D01*
X104342Y62193D01*
X104828Y62921D01*
X104999Y63779D01*
X104828Y64638D01*
X104342Y65366D01*
X103614Y65852D01*
X102756Y66023D01*
X102296Y65931D01*
X102101Y66402D01*
X102448Y66634D01*
X102821Y67193D01*
X102952Y67852D01*
X102821Y68511D01*
X102448Y69069D01*
X102796Y69418D01*
X103355Y69045D01*
X104014Y68913D01*
X104612Y69032D01*
X105069Y68576D01*
X104996Y68466D01*
X104825Y67607D01*
X104996Y66749D01*
X105482Y66021D01*
X106210Y65535D01*
X107068Y65364D01*
X107926Y65535D01*
X108654Y66021D01*
X109042Y66602D01*
X109441Y66738D01*
X109647Y66731D01*
X109818Y66616D01*
X110110Y66558D01*
X110901D01*
X110920Y66464D01*
X111406Y65737D01*
X112134Y65250D01*
X112992Y65080D01*
X113850Y65250D01*
X114578Y65737D01*
X115065Y66464D01*
X115235Y67323D01*
X115065Y68181D01*
X114578Y68909D01*
X113850Y69395D01*
X112992Y69566D01*
X112134Y69395D01*
X111406Y68909D01*
X110920Y68181D01*
X110901Y68088D01*
X110427D01*
X107239Y71275D01*
X107404Y71818D01*
X107457Y71828D01*
X108015Y72202D01*
X108389Y72760D01*
X108465Y73144D01*
X108849Y73220D01*
X109407Y73594D01*
X109781Y74152D01*
X109857Y74536D01*
X110241Y74612D01*
X110799Y74985D01*
X111173Y75544D01*
X111249Y75928D01*
X111633Y76004D01*
X112191Y76377D01*
X112565Y76936D01*
X112575Y76989D01*
X113046Y77132D01*
X113415Y76800D01*
X113374Y76389D01*
X112888Y75661D01*
X112717Y74803D01*
X112888Y73945D01*
X113374Y73217D01*
X114102Y72731D01*
X114961Y72560D01*
X115819Y72731D01*
X116547Y73217D01*
X117033Y73945D01*
X117204Y74803D01*
X117033Y75661D01*
X116547Y76389D01*
X115819Y76876D01*
X115320Y76975D01*
X115306Y77046D01*
X115140Y77294D01*
X114199Y78235D01*
X114359Y78764D01*
X114857Y78669D01*
X115343Y77941D01*
X116071Y77455D01*
X116929Y77284D01*
X117788Y77455D01*
X118515Y77941D01*
X119001Y78669D01*
X119172Y79528D01*
X119001Y80386D01*
X118515Y81114D01*
X117965Y81481D01*
X117818Y81812D01*
X117859Y82095D01*
X118132Y82504D01*
X118263Y83163D01*
X118132Y83822D01*
X117759Y84381D01*
X118107Y84729D01*
X118666Y84356D01*
X119325Y84225D01*
X119860Y84331D01*
X122070Y82121D01*
Y79650D01*
X121976Y79631D01*
X121248Y79145D01*
X120762Y78417D01*
X120592Y77559D01*
X120762Y76701D01*
X121248Y75973D01*
X121976Y75487D01*
X122835Y75316D01*
X123693Y75487D01*
X124421Y75973D01*
X124907Y76701D01*
X125078Y77559D01*
X125040Y77750D01*
X125465Y78175D01*
X125984Y78072D01*
X126843Y78243D01*
X127570Y78729D01*
X128057Y79457D01*
X128227Y80315D01*
X128057Y81173D01*
X127570Y81901D01*
X126843Y82387D01*
X125984Y82558D01*
X125126Y82387D01*
X124398Y81901D01*
X124099Y81454D01*
X123599Y81606D01*
Y82437D01*
X123541Y82730D01*
X123375Y82978D01*
X121159Y85195D01*
X121323Y85737D01*
X121376Y85748D01*
X121776Y86015D01*
X122316Y85861D01*
X122337Y85756D01*
X122823Y85028D01*
X123551Y84542D01*
X124409Y84371D01*
X125268Y84542D01*
X125996Y85028D01*
X126482Y85756D01*
X126627Y86484D01*
X126973Y86701D01*
X127136Y86745D01*
X127488Y86510D01*
X128347Y86340D01*
X129205Y86510D01*
X129933Y86997D01*
X130419Y87724D01*
X130590Y88583D01*
X130419Y89441D01*
X129933Y90169D01*
X129205Y90655D01*
X128347Y90826D01*
X127488Y90655D01*
X126760Y90169D01*
X126291Y89465D01*
X126101Y89444D01*
X125766Y89450D01*
X125733Y89492D01*
X125848Y90121D01*
X126111Y90297D01*
X126484Y90856D01*
X126560Y91239D01*
X126944Y91316D01*
X127503Y91689D01*
X127876Y92247D01*
X127952Y92631D01*
X128336Y92708D01*
X128894Y93081D01*
X129268Y93639D01*
X129344Y94023D01*
X129728Y94099D01*
X130287Y94473D01*
X130660Y95031D01*
X130736Y95415D01*
X131120Y95491D01*
X131525Y95762D01*
X132114Y95369D01*
X132972Y95198D01*
X133585Y95320D01*
X133781Y95000D01*
X133823Y94857D01*
X133361Y94165D01*
X133190Y93307D01*
X133361Y92449D01*
X133847Y91721D01*
X134575Y91235D01*
X135433Y91064D01*
X135469Y91071D01*
X135770Y90621D01*
X135508Y90228D01*
X135337Y89370D01*
X135508Y88512D01*
X135994Y87784D01*
X136722Y87298D01*
X137580Y87127D01*
X138438Y87298D01*
X139166Y87784D01*
X139652Y88512D01*
X139823Y89370D01*
X139652Y90228D01*
X139166Y90956D01*
X138438Y91442D01*
X137580Y91613D01*
X137544Y91606D01*
X137243Y92056D01*
X137505Y92449D01*
X137676Y93307D01*
X137505Y94165D01*
X137019Y94893D01*
X136292Y95379D01*
X135433Y95550D01*
X134820Y95428D01*
X134624Y95748D01*
X134583Y95891D01*
X135045Y96583D01*
X135215Y97441D01*
X135045Y98299D01*
X134704Y98810D01*
X134914Y99281D01*
X135389Y99425D01*
X137126Y97688D01*
X137374Y97522D01*
X137551Y97487D01*
X137569Y97397D01*
X138055Y96669D01*
X138783Y96183D01*
X138920Y95927D01*
X138865Y95796D01*
X138730Y94764D01*
X138865Y93732D01*
X139264Y92770D01*
X139897Y91945D01*
X140723Y91311D01*
X141685Y90913D01*
X142717Y90777D01*
X143748Y90913D01*
X144710Y91311D01*
X145536Y91945D01*
X146169Y92770D01*
X146568Y93732D01*
X146703Y94764D01*
X146568Y95796D01*
X146169Y96757D01*
X145536Y97583D01*
X144710Y98216D01*
X143748Y98615D01*
X142717Y98751D01*
X141810Y98631D01*
X141714Y99114D01*
X141228Y99842D01*
X140500Y100328D01*
X139641Y100499D01*
X138783Y100328D01*
X138055Y99842D01*
X137906Y99617D01*
X137408Y99568D01*
X136252Y100724D01*
X136359Y101258D01*
X136228Y101917D01*
X135854Y102476D01*
X132235Y106095D01*
X131736Y106428D01*
X131723Y106668D01*
X131789Y106949D01*
X131961Y106983D01*
X132688Y107469D01*
X133175Y108197D01*
X133345Y109055D01*
X133175Y109914D01*
X132688Y110641D01*
X131961Y111127D01*
X131102Y111298D01*
X130244Y111127D01*
X130165Y111074D01*
X129111Y112128D01*
Y114508D01*
X129611Y114660D01*
X129800Y114377D01*
X130359Y114004D01*
X130742Y113928D01*
X130818Y113544D01*
X131192Y112986D01*
X131750Y112612D01*
X132409Y112481D01*
X133068Y112612D01*
X133627Y112986D01*
X133943Y113302D01*
X137449Y109796D01*
X137396Y109717D01*
X137225Y108858D01*
X137396Y108000D01*
X137882Y107272D01*
X138610Y106786D01*
X138839Y106740D01*
X139074Y106299D01*
X138865Y105796D01*
X138730Y104764D01*
X138865Y103732D01*
X139264Y102770D01*
X139897Y101945D01*
X140723Y101311D01*
X141685Y100913D01*
X142717Y100777D01*
X143748Y100913D01*
X144710Y101311D01*
X145536Y101945D01*
X146169Y102770D01*
X146568Y103732D01*
X146703Y104764D01*
X146568Y105796D01*
X146169Y106757D01*
X145536Y107583D01*
X144710Y108217D01*
X143748Y108615D01*
X142717Y108751D01*
X142186Y108681D01*
X141712Y108858D01*
X141668Y109077D01*
X141541Y109717D01*
X141055Y110444D01*
X140327Y110931D01*
X139469Y111101D01*
X138610Y110931D01*
X138531Y110878D01*
X135025Y114383D01*
X137246Y116605D01*
X137619Y117163D01*
X137750Y117822D01*
X137619Y118481D01*
X137246Y119040D01*
X136688Y119413D01*
X136304Y119490D01*
X136228Y119873D01*
X135854Y120432D01*
X135296Y120805D01*
X134912Y120881D01*
X134836Y121265D01*
X134462Y121824D01*
X133904Y122197D01*
X133851Y122208D01*
X133722Y122460D01*
X133664Y122755D01*
X133777Y122924D01*
X133836Y123216D01*
Y126649D01*
X133929Y126668D01*
X134657Y127154D01*
X135143Y127882D01*
X135314Y128740D01*
X135143Y129599D01*
X134657Y130326D01*
X134210Y130625D01*
X134362Y131125D01*
X135311D01*
X135329Y131031D01*
X135816Y130304D01*
X136543Y129817D01*
X137402Y129647D01*
X138260Y129817D01*
X138988Y130304D01*
X139474Y131031D01*
X139581Y131569D01*
X140130Y131766D01*
X140723Y131311D01*
X141685Y130913D01*
X142717Y130777D01*
X143748Y130913D01*
X144710Y131311D01*
X145536Y131945D01*
X146169Y132770D01*
X146568Y133732D01*
X146703Y134764D01*
X146568Y135796D01*
X146169Y136757D01*
X145536Y137583D01*
X144710Y138216D01*
X143748Y138615D01*
X142717Y138751D01*
X141685Y138615D01*
X140723Y138216D01*
X139897Y137583D01*
X139264Y136757D01*
X138865Y135796D01*
X138730Y134764D01*
X138804Y134200D01*
X138338Y133910D01*
X138260Y133962D01*
X137402Y134133D01*
X136543Y133962D01*
X135816Y133476D01*
X135329Y132748D01*
X135311Y132654D01*
X130609D01*
X130316Y132596D01*
X130068Y132431D01*
X128524Y130887D01*
X127957Y131026D01*
X127611Y131545D01*
X128057Y132212D01*
X128227Y133071D01*
X128057Y133929D01*
X127570Y134657D01*
X126843Y135143D01*
X125984Y135314D01*
X125488Y135215D01*
X125242Y135676D01*
X128399Y138834D01*
X128860Y138587D01*
X128859Y138583D01*
X129030Y137724D01*
X129516Y136997D01*
X130244Y136510D01*
X131102Y136340D01*
X131961Y136510D01*
X132688Y136997D01*
X133175Y137724D01*
X133345Y138583D01*
X133175Y139441D01*
X132688Y140169D01*
X132441Y140334D01*
Y140834D01*
X132590Y140934D01*
X133076Y141661D01*
X133247Y142520D01*
X133076Y143378D01*
X132590Y144106D01*
X131862Y144592D01*
X131004Y144763D01*
X130146Y144592D01*
X129418Y144106D01*
X128932Y143378D01*
X128761Y142520D01*
X128932Y141661D01*
X128985Y141582D01*
X123029Y135626D01*
X122444D01*
X122152Y135567D01*
X121904Y135402D01*
X121251Y134749D01*
X120717Y134856D01*
X120058Y134725D01*
X119500Y134351D01*
X119151Y134700D01*
X119524Y135258D01*
X119655Y135918D01*
X119549Y136452D01*
X120619Y137522D01*
X120785Y137770D01*
X120843Y138063D01*
X120843Y138063D01*
Y143086D01*
X120937Y143105D01*
X121665Y143591D01*
X121911Y143959D01*
X122430Y144083D01*
X123157Y143597D01*
X124016Y143426D01*
X124874Y143597D01*
X125602Y144083D01*
X126088Y144811D01*
X126259Y145669D01*
X126088Y146528D01*
X125853Y146879D01*
X125897Y147043D01*
X126114Y147389D01*
X126843Y147534D01*
X127570Y148020D01*
X128057Y148748D01*
X128227Y149606D01*
X128057Y150465D01*
X127570Y151192D01*
X126843Y151679D01*
X125984Y151849D01*
X125126Y151679D01*
X124398Y151192D01*
X123912Y150465D01*
X123741Y149606D01*
X123912Y148748D01*
X124147Y148396D01*
X124103Y148233D01*
X123886Y147887D01*
X123157Y147742D01*
X122430Y147255D01*
X122184Y146887D01*
X121665Y146763D01*
X120937Y147249D01*
X120079Y147420D01*
X119220Y147249D01*
X118493Y146763D01*
X118006Y146036D01*
X117836Y145177D01*
X117940Y144652D01*
X117509Y144254D01*
X116929Y144369D01*
X116071Y144198D01*
X115732Y143972D01*
X115380Y144500D01*
X114652Y144986D01*
X113869Y145142D01*
X113718Y145275D01*
X113507Y145609D01*
X113569Y145779D01*
X113704Y145823D01*
X114370Y145690D01*
X115228Y145861D01*
X115956Y146347D01*
X116442Y147075D01*
X116613Y147933D01*
X116442Y148792D01*
X115956Y149519D01*
X115228Y150005D01*
X114370Y150176D01*
X113512Y150005D01*
X112784Y149519D01*
X112298Y148792D01*
X112279Y148698D01*
X107678D01*
X107678Y148698D01*
X107432Y148649D01*
X106798Y148775D01*
X106139Y148644D01*
X105580Y148271D01*
X105231Y148619D01*
X105605Y149178D01*
X105736Y149837D01*
X105605Y150496D01*
X105231Y151055D01*
X104673Y151428D01*
X104620Y151438D01*
X104455Y151981D01*
X114465Y161990D01*
X114594Y161904D01*
X115453Y161733D01*
X116311Y161904D01*
X117039Y162390D01*
X117525Y163118D01*
X117696Y163976D01*
X117525Y164835D01*
X117039Y165562D01*
X116311Y166049D01*
X115453Y166219D01*
X114594Y166049D01*
X113867Y165562D01*
X113380Y164835D01*
X113210Y163976D01*
X113380Y163118D01*
X113400Y163089D01*
X103374Y153062D01*
X102831Y153227D01*
X102821Y153280D01*
X102448Y153839D01*
X101889Y154212D01*
X101749Y154240D01*
X101607Y154778D01*
X102394Y155566D01*
X103150Y155416D01*
X104008Y155586D01*
X104736Y156073D01*
X105222Y156800D01*
X105393Y157659D01*
X105222Y158517D01*
X104736Y159245D01*
X104008Y159731D01*
X103150Y159902D01*
X103100Y159892D01*
X102852Y160352D01*
X103253Y160953D01*
X103369Y161533D01*
X103869Y161944D01*
X103937Y161930D01*
X104795Y162101D01*
X105523Y162587D01*
X106009Y163315D01*
X106180Y164173D01*
X106009Y165032D01*
X105523Y165759D01*
X104795Y166246D01*
X103937Y166416D01*
X103079Y166246D01*
X102351Y165759D01*
X101865Y165032D01*
X101749Y164451D01*
X101249Y164041D01*
X101181Y164054D01*
X100323Y163883D01*
X99595Y163397D01*
X99109Y162669D01*
X98938Y161811D01*
X99109Y160953D01*
X98692Y160681D01*
X98489Y160984D01*
X97762Y161470D01*
X96903Y161641D01*
X96045Y161470D01*
X95317Y160984D01*
X95284Y160934D01*
X94929Y161172D01*
X94546Y161248D01*
X94469Y161632D01*
X94096Y162190D01*
X93537Y162564D01*
X93154Y162640D01*
X93077Y163023D01*
X92704Y163582D01*
X92145Y163955D01*
X91762Y164032D01*
X91685Y164415D01*
X91312Y164974D01*
X90753Y165347D01*
X90370Y165424D01*
X90293Y165807D01*
X89920Y166366D01*
X89362Y166739D01*
X88702Y166870D01*
D02*
G37*
G36*
X16890Y168751D02*
X15858Y168615D01*
X14896Y168217D01*
X14071Y167583D01*
X13437Y166757D01*
X13039Y165796D01*
X12903Y164764D01*
X13039Y163732D01*
X13437Y162770D01*
X14071Y161945D01*
X14896Y161311D01*
X15858Y160913D01*
X16890Y160777D01*
X17922Y160913D01*
X18883Y161311D01*
X19709Y161945D01*
X20343Y162770D01*
X20741Y163732D01*
X20877Y164764D01*
X20741Y165796D01*
X20343Y166757D01*
X19709Y167583D01*
X18883Y168217D01*
X17922Y168615D01*
X16890Y168751D01*
D02*
G37*
G36*
X6890D02*
X5858Y168615D01*
X4896Y168217D01*
X4071Y167583D01*
X3437Y166757D01*
X3039Y165796D01*
X2903Y164764D01*
X3039Y163732D01*
X3437Y162770D01*
X4071Y161945D01*
X4896Y161311D01*
X5858Y160913D01*
X6890Y160777D01*
X7922Y160913D01*
X8883Y161311D01*
X9709Y161945D01*
X10343Y162770D01*
X10741Y163732D01*
X10877Y164764D01*
X10741Y165796D01*
X10343Y166757D01*
X9709Y167583D01*
X8883Y168217D01*
X7922Y168615D01*
X6890Y168751D01*
D02*
G37*
G36*
X39764Y164841D02*
X38905Y164671D01*
X38178Y164184D01*
X37691Y163457D01*
X37521Y162598D01*
X37691Y161740D01*
X38178Y161012D01*
X38905Y160526D01*
X39764Y160355D01*
X40622Y160526D01*
X41350Y161012D01*
X41836Y161740D01*
X42007Y162598D01*
X41836Y163457D01*
X41350Y164184D01*
X40622Y164671D01*
X39764Y164841D01*
D02*
G37*
G36*
X135433Y159723D02*
X134575Y159553D01*
X133847Y159066D01*
X133361Y158339D01*
X133190Y157480D01*
X133361Y156622D01*
X133847Y155894D01*
X134575Y155408D01*
X135433Y155237D01*
X136292Y155408D01*
X137019Y155894D01*
X137505Y156622D01*
X137676Y157480D01*
X137505Y158339D01*
X137019Y159066D01*
X136292Y159553D01*
X135433Y159723D01*
D02*
G37*
G36*
X120669Y159625D02*
X119811Y159454D01*
X119083Y158968D01*
X118597Y158240D01*
X118426Y157382D01*
X118597Y156524D01*
X119083Y155796D01*
X119811Y155309D01*
X120669Y155139D01*
X121528Y155309D01*
X122255Y155796D01*
X122742Y156524D01*
X122912Y157382D01*
X122742Y158240D01*
X122255Y158968D01*
X121528Y159454D01*
X120669Y159625D01*
D02*
G37*
G36*
X152717Y158751D02*
X151685Y158615D01*
X150723Y158217D01*
X149897Y157583D01*
X149264Y156757D01*
X148865Y155796D01*
X148730Y154764D01*
X148865Y153732D01*
X149264Y152770D01*
X149897Y151945D01*
X150723Y151311D01*
X151685Y150913D01*
X152717Y150777D01*
X153748Y150913D01*
X154710Y151311D01*
X155536Y151945D01*
X156169Y152770D01*
X156568Y153732D01*
X156703Y154764D01*
X156568Y155796D01*
X156169Y156757D01*
X155536Y157583D01*
X154710Y158217D01*
X153748Y158615D01*
X152717Y158751D01*
D02*
G37*
G36*
X142717D02*
X141685Y158615D01*
X140723Y158217D01*
X139897Y157583D01*
X139264Y156757D01*
X138865Y155796D01*
X138730Y154764D01*
X138865Y153732D01*
X139264Y152770D01*
X139897Y151945D01*
X140723Y151311D01*
X141685Y150913D01*
X142717Y150777D01*
X143748Y150913D01*
X144710Y151311D01*
X145536Y151945D01*
X146169Y152770D01*
X146568Y153732D01*
X146703Y154764D01*
X146568Y155796D01*
X146169Y156757D01*
X145536Y157583D01*
X144710Y158217D01*
X143748Y158615D01*
X142717Y158751D01*
D02*
G37*
G36*
X16890D02*
X15858Y158615D01*
X14896Y158217D01*
X14071Y157583D01*
X13437Y156757D01*
X13039Y155796D01*
X12903Y154764D01*
X13039Y153732D01*
X13437Y152770D01*
X14071Y151945D01*
X14896Y151311D01*
X15858Y150913D01*
X16890Y150777D01*
X17922Y150913D01*
X18883Y151311D01*
X19709Y151945D01*
X20343Y152770D01*
X20741Y153732D01*
X20877Y154764D01*
X20741Y155796D01*
X20343Y156757D01*
X19709Y157583D01*
X18883Y158217D01*
X17922Y158615D01*
X16890Y158751D01*
D02*
G37*
G36*
X6890D02*
X5858Y158615D01*
X4896Y158217D01*
X4071Y157583D01*
X3437Y156757D01*
X3039Y155796D01*
X2903Y154764D01*
X3039Y153732D01*
X3437Y152770D01*
X4071Y151945D01*
X4896Y151311D01*
X5858Y150913D01*
X6890Y150777D01*
X7922Y150913D01*
X8883Y151311D01*
X9709Y151945D01*
X10343Y152770D01*
X10741Y153732D01*
X10877Y154764D01*
X10741Y155796D01*
X10343Y156757D01*
X9709Y157583D01*
X8883Y158217D01*
X7922Y158615D01*
X6890Y158751D01*
D02*
G37*
G36*
X152717Y148751D02*
X151685Y148615D01*
X150723Y148216D01*
X149897Y147583D01*
X149264Y146757D01*
X148865Y145796D01*
X148730Y144764D01*
X148865Y143732D01*
X149264Y142770D01*
X149897Y141945D01*
X150723Y141311D01*
X151685Y140913D01*
X152717Y140777D01*
X153748Y140913D01*
X154710Y141311D01*
X155536Y141945D01*
X156169Y142770D01*
X156568Y143732D01*
X156703Y144764D01*
X156568Y145796D01*
X156169Y146757D01*
X155536Y147583D01*
X154710Y148216D01*
X153748Y148615D01*
X152717Y148751D01*
D02*
G37*
G36*
X142717D02*
X141685Y148615D01*
X140723Y148216D01*
X139897Y147583D01*
X139264Y146757D01*
X138865Y145796D01*
X138730Y144764D01*
X138865Y143732D01*
X139264Y142770D01*
X139897Y141945D01*
X140723Y141311D01*
X141685Y140913D01*
X142717Y140777D01*
X143748Y140913D01*
X144710Y141311D01*
X145536Y141945D01*
X146169Y142770D01*
X146568Y143732D01*
X146703Y144764D01*
X146568Y145796D01*
X146169Y146757D01*
X145536Y147583D01*
X144710Y148216D01*
X143748Y148615D01*
X142717Y148751D01*
D02*
G37*
G36*
X16890D02*
X15858Y148615D01*
X14896Y148216D01*
X14071Y147583D01*
X13437Y146757D01*
X13039Y145796D01*
X12903Y144764D01*
X13039Y143732D01*
X13437Y142770D01*
X14071Y141945D01*
X14896Y141311D01*
X15858Y140913D01*
X16890Y140777D01*
X17922Y140913D01*
X18883Y141311D01*
X19709Y141945D01*
X20343Y142770D01*
X20741Y143732D01*
X20877Y144764D01*
X20741Y145796D01*
X20343Y146757D01*
X19709Y147583D01*
X18883Y148216D01*
X17922Y148615D01*
X16890Y148751D01*
D02*
G37*
G36*
X6890D02*
X5858Y148615D01*
X4896Y148216D01*
X4071Y147583D01*
X3437Y146757D01*
X3039Y145796D01*
X2903Y144764D01*
X3039Y143732D01*
X3437Y142770D01*
X4071Y141945D01*
X4896Y141311D01*
X5858Y140913D01*
X6890Y140777D01*
X7922Y140913D01*
X8883Y141311D01*
X9709Y141945D01*
X10343Y142770D01*
X10741Y143732D01*
X10877Y144764D01*
X10741Y145796D01*
X10343Y146757D01*
X9709Y147583D01*
X8883Y148216D01*
X7922Y148615D01*
X6890Y148751D01*
D02*
G37*
G36*
X86792Y137283D02*
X85934Y137112D01*
X85206Y136626D01*
X84720Y135898D01*
X84549Y135039D01*
X84720Y134181D01*
X85206Y133453D01*
X85934Y132967D01*
X86792Y132796D01*
X87651Y132967D01*
X88379Y133453D01*
X88865Y134181D01*
X89036Y135039D01*
X88865Y135898D01*
X88379Y136626D01*
X87651Y137112D01*
X86792Y137283D01*
D02*
G37*
G36*
X152717Y138751D02*
X151685Y138615D01*
X150723Y138216D01*
X149897Y137583D01*
X149264Y136757D01*
X148865Y135796D01*
X148730Y134764D01*
X148865Y133732D01*
X149264Y132770D01*
X149897Y131945D01*
X150723Y131311D01*
X151685Y130913D01*
X152717Y130777D01*
X153748Y130913D01*
X154710Y131311D01*
X155536Y131945D01*
X156169Y132770D01*
X156568Y133732D01*
X156703Y134764D01*
X156568Y135796D01*
X156169Y136757D01*
X155536Y137583D01*
X154710Y138216D01*
X153748Y138615D01*
X152717Y138751D01*
D02*
G37*
G36*
X6890D02*
X5858Y138615D01*
X4896Y138216D01*
X4071Y137583D01*
X3437Y136757D01*
X3039Y135796D01*
X2903Y134764D01*
X3039Y133732D01*
X3437Y132770D01*
X4071Y131945D01*
X4896Y131311D01*
X5858Y130913D01*
X6890Y130777D01*
X7922Y130913D01*
X8883Y131311D01*
X9709Y131945D01*
X10343Y132770D01*
X10741Y133732D01*
X10877Y134764D01*
X10741Y135796D01*
X10343Y136757D01*
X9709Y137583D01*
X8883Y138216D01*
X7922Y138615D01*
X6890Y138751D01*
D02*
G37*
G36*
X77953Y137283D02*
X77094Y137112D01*
X76367Y136626D01*
X75880Y135898D01*
X75710Y135039D01*
X75880Y134181D01*
X76367Y133453D01*
X76732Y133209D01*
X76870Y132541D01*
X76668Y132238D01*
X76497Y131379D01*
X76668Y130521D01*
X77154Y129793D01*
X77882Y129307D01*
X78740Y129136D01*
X79599Y129307D01*
X80326Y129793D01*
X80813Y130521D01*
X80983Y131379D01*
X80813Y132238D01*
X80326Y132965D01*
X79961Y133210D01*
X79823Y133878D01*
X80025Y134181D01*
X80196Y135039D01*
X80025Y135898D01*
X79539Y136626D01*
X78811Y137112D01*
X77953Y137283D01*
D02*
G37*
G36*
X72460Y126849D02*
X71601Y126679D01*
X70873Y126192D01*
X70387Y125465D01*
X70216Y124606D01*
X70387Y123748D01*
X70873Y123020D01*
X71601Y122534D01*
X72460Y122363D01*
X73318Y122534D01*
X74046Y123020D01*
X74532Y123748D01*
X74703Y124606D01*
X74532Y125465D01*
X74046Y126192D01*
X73318Y126679D01*
X72460Y126849D01*
D02*
G37*
G36*
X78626Y126046D02*
X77767Y125875D01*
X77040Y125389D01*
X76553Y124661D01*
X76383Y123803D01*
X76553Y122944D01*
X77040Y122217D01*
X77767Y121730D01*
X78626Y121560D01*
X79484Y121730D01*
X80212Y122217D01*
X80698Y122944D01*
X80869Y123803D01*
X80698Y124661D01*
X80212Y125389D01*
X79484Y125875D01*
X78626Y126046D01*
D02*
G37*
G36*
X152717Y128751D02*
X151685Y128615D01*
X150723Y128217D01*
X149897Y127583D01*
X149264Y126757D01*
X148865Y125796D01*
X148730Y124764D01*
X148865Y123732D01*
X149264Y122770D01*
X149897Y121945D01*
X150723Y121311D01*
X151685Y120913D01*
X152717Y120777D01*
X153748Y120913D01*
X154710Y121311D01*
X155536Y121945D01*
X156169Y122770D01*
X156568Y123732D01*
X156703Y124764D01*
X156568Y125796D01*
X156169Y126757D01*
X155536Y127583D01*
X154710Y128217D01*
X153748Y128615D01*
X152717Y128751D01*
D02*
G37*
G36*
X142717D02*
X141685Y128615D01*
X140723Y128217D01*
X139897Y127583D01*
X139264Y126757D01*
X138865Y125796D01*
X138730Y124764D01*
X138865Y123732D01*
X139264Y122770D01*
X139897Y121945D01*
X140723Y121311D01*
X141685Y120913D01*
X142717Y120777D01*
X143748Y120913D01*
X144710Y121311D01*
X145536Y121945D01*
X146169Y122770D01*
X146568Y123732D01*
X146703Y124764D01*
X146568Y125796D01*
X146169Y126757D01*
X145536Y127583D01*
X144710Y128217D01*
X143748Y128615D01*
X142717Y128751D01*
D02*
G37*
G36*
X16890D02*
X15858Y128615D01*
X14896Y128217D01*
X14071Y127583D01*
X13437Y126757D01*
X13039Y125796D01*
X12903Y124764D01*
X13039Y123732D01*
X13437Y122770D01*
X14071Y121945D01*
X14896Y121311D01*
X15858Y120913D01*
X16890Y120777D01*
X17922Y120913D01*
X18883Y121311D01*
X19709Y121945D01*
X20343Y122770D01*
X20741Y123732D01*
X20877Y124764D01*
X20741Y125796D01*
X20343Y126757D01*
X19709Y127583D01*
X18883Y128217D01*
X17922Y128615D01*
X16890Y128751D01*
D02*
G37*
G36*
X6890D02*
X5858Y128615D01*
X4896Y128217D01*
X4071Y127583D01*
X3437Y126757D01*
X3039Y125796D01*
X2903Y124764D01*
X3039Y123732D01*
X3437Y122770D01*
X4071Y121945D01*
X4896Y121311D01*
X5858Y120913D01*
X6890Y120777D01*
X7922Y120913D01*
X8883Y121311D01*
X9709Y121945D01*
X10343Y122770D01*
X10741Y123732D01*
X10877Y124764D01*
X10741Y125796D01*
X10343Y126757D01*
X9709Y127583D01*
X8883Y128217D01*
X7922Y128615D01*
X6890Y128751D01*
D02*
G37*
G36*
X101181Y123503D02*
X100323Y123332D01*
X99595Y122846D01*
X99109Y122118D01*
X98938Y121260D01*
X99109Y120401D01*
X99595Y119674D01*
X100223Y119254D01*
X100206Y118842D01*
X100170Y118734D01*
X99535Y118608D01*
X98808Y118122D01*
X98321Y117394D01*
X98151Y116535D01*
X98321Y115677D01*
X98808Y114949D01*
X99535Y114463D01*
X100394Y114292D01*
X101252Y114463D01*
X101980Y114949D01*
X102466Y115677D01*
X102637Y116535D01*
X102599Y116726D01*
X103024Y117151D01*
X103543Y117048D01*
X104402Y117219D01*
X105129Y117705D01*
X105616Y118433D01*
X105786Y119291D01*
X105616Y120150D01*
X105129Y120877D01*
X104402Y121364D01*
X103543Y121534D01*
X103376Y121501D01*
X103253Y122118D01*
X102767Y122846D01*
X102040Y123332D01*
X101181Y123503D01*
D02*
G37*
G36*
X62598Y120747D02*
X61740Y120576D01*
X61012Y120090D01*
X60526Y119362D01*
X60355Y118504D01*
X60526Y117646D01*
X61012Y116918D01*
X61740Y116432D01*
X62598Y116261D01*
X63457Y116432D01*
X64184Y116918D01*
X64780Y116908D01*
X65013Y116559D01*
X65741Y116073D01*
X66599Y115902D01*
X67457Y116073D01*
X68185Y116559D01*
X68671Y117287D01*
X68842Y118145D01*
X68671Y119004D01*
X68185Y119731D01*
X67457Y120218D01*
X66599Y120388D01*
X65741Y120218D01*
X65013Y119731D01*
X64418Y119741D01*
X64184Y120090D01*
X63457Y120576D01*
X62598Y120747D01*
D02*
G37*
G36*
X77540Y118662D02*
X76682Y118491D01*
X75954Y118005D01*
X75468Y117277D01*
X75297Y116419D01*
X75468Y115560D01*
X75954Y114832D01*
X76682Y114346D01*
X77540Y114175D01*
X78399Y114346D01*
X79127Y114832D01*
X79613Y115560D01*
X79784Y116419D01*
X79613Y117277D01*
X79127Y118005D01*
X78399Y118491D01*
X77540Y118662D01*
D02*
G37*
G36*
X70866Y117597D02*
X70008Y117427D01*
X69280Y116940D01*
X68794Y116213D01*
X68623Y115354D01*
X68794Y114496D01*
X69280Y113768D01*
X70008Y113282D01*
X70866Y113111D01*
X71724Y113282D01*
X72452Y113768D01*
X72939Y114496D01*
X73109Y115354D01*
X72939Y116213D01*
X72452Y116940D01*
X71724Y117427D01*
X70866Y117597D01*
D02*
G37*
G36*
X83760Y115531D02*
X82901Y115360D01*
X82174Y114874D01*
X81687Y114146D01*
X81517Y113287D01*
X81687Y112429D01*
X82174Y111701D01*
X82901Y111215D01*
X83760Y111044D01*
X84618Y111215D01*
X85346Y111701D01*
X85832Y112429D01*
X86003Y113287D01*
X85832Y114146D01*
X85346Y114874D01*
X84618Y115360D01*
X83760Y115531D01*
D02*
G37*
G36*
X152717Y118751D02*
X151685Y118615D01*
X150723Y118217D01*
X149897Y117583D01*
X149264Y116757D01*
X148865Y115796D01*
X148730Y114764D01*
X148865Y113732D01*
X149264Y112770D01*
X149897Y111945D01*
X150723Y111311D01*
X151685Y110913D01*
X152717Y110777D01*
X153748Y110913D01*
X154710Y111311D01*
X155536Y111945D01*
X156169Y112770D01*
X156568Y113732D01*
X156703Y114764D01*
X156568Y115796D01*
X156169Y116757D01*
X155536Y117583D01*
X154710Y118217D01*
X153748Y118615D01*
X152717Y118751D01*
D02*
G37*
G36*
X142717D02*
X141685Y118615D01*
X140723Y118217D01*
X139897Y117583D01*
X139264Y116757D01*
X138865Y115796D01*
X138730Y114764D01*
X138865Y113732D01*
X139264Y112770D01*
X139897Y111945D01*
X140723Y111311D01*
X141685Y110913D01*
X142717Y110777D01*
X143748Y110913D01*
X144710Y111311D01*
X145536Y111945D01*
X146169Y112770D01*
X146568Y113732D01*
X146703Y114764D01*
X146568Y115796D01*
X146169Y116757D01*
X145536Y117583D01*
X144710Y118217D01*
X143748Y118615D01*
X142717Y118751D01*
D02*
G37*
G36*
X16890D02*
X15858Y118615D01*
X14896Y118217D01*
X14071Y117583D01*
X13437Y116757D01*
X13039Y115796D01*
X12903Y114764D01*
X13039Y113732D01*
X13437Y112770D01*
X14071Y111945D01*
X14896Y111311D01*
X15858Y110913D01*
X16890Y110777D01*
X17922Y110913D01*
X18883Y111311D01*
X19709Y111945D01*
X20343Y112770D01*
X20741Y113732D01*
X20877Y114764D01*
X20741Y115796D01*
X20343Y116757D01*
X19709Y117583D01*
X18883Y118217D01*
X17922Y118615D01*
X16890Y118751D01*
D02*
G37*
G36*
X6890D02*
X5858Y118615D01*
X4896Y118217D01*
X4071Y117583D01*
X3437Y116757D01*
X3039Y115796D01*
X2903Y114764D01*
X3039Y113732D01*
X3437Y112770D01*
X4071Y111945D01*
X4896Y111311D01*
X5858Y110913D01*
X6890Y110777D01*
X7922Y110913D01*
X8883Y111311D01*
X9709Y111945D01*
X10343Y112770D01*
X10741Y113732D01*
X10877Y114764D01*
X10741Y115796D01*
X10343Y116757D01*
X9709Y117583D01*
X8883Y118217D01*
X7922Y118615D01*
X6890Y118751D01*
D02*
G37*
G36*
X80709Y110905D02*
X79850Y110734D01*
X79123Y110248D01*
X78636Y109520D01*
X78466Y108661D01*
X78636Y107803D01*
X79123Y107075D01*
X79850Y106589D01*
X80709Y106418D01*
X81567Y106589D01*
X82295Y107075D01*
X82781Y107803D01*
X82952Y108661D01*
X82781Y109520D01*
X82295Y110248D01*
X81567Y110734D01*
X80709Y110905D01*
D02*
G37*
G36*
X68898Y108936D02*
X68039Y108765D01*
X67312Y108279D01*
X66825Y107551D01*
X66654Y106693D01*
X66825Y105834D01*
X67312Y105107D01*
X68039Y104621D01*
X68898Y104450D01*
X69756Y104621D01*
X70484Y105107D01*
X70970Y105834D01*
X71141Y106693D01*
X70970Y107551D01*
X70484Y108279D01*
X69756Y108765D01*
X68898Y108936D01*
D02*
G37*
G36*
X102362Y108542D02*
X101504Y108372D01*
X100776Y107885D01*
X100290Y107158D01*
X100119Y106299D01*
X100290Y105441D01*
X100776Y104713D01*
X101504Y104227D01*
X102362Y104056D01*
X103221Y104227D01*
X103948Y104713D01*
X104435Y105441D01*
X104605Y106299D01*
X104435Y107158D01*
X103948Y107885D01*
X103221Y108372D01*
X102362Y108542D01*
D02*
G37*
G36*
X73641Y105491D02*
X72782Y105320D01*
X72054Y104834D01*
X71568Y104106D01*
X71398Y103248D01*
X71568Y102390D01*
X72054Y101662D01*
X72782Y101176D01*
X73641Y101005D01*
X74499Y101176D01*
X75227Y101662D01*
X75713Y102390D01*
X75884Y103248D01*
X75713Y104106D01*
X75227Y104834D01*
X74499Y105320D01*
X73641Y105491D01*
D02*
G37*
G36*
X152717Y108751D02*
X151685Y108615D01*
X150723Y108217D01*
X149897Y107583D01*
X149264Y106757D01*
X148865Y105796D01*
X148730Y104764D01*
X148865Y103732D01*
X149264Y102770D01*
X149897Y101945D01*
X150723Y101311D01*
X151685Y100913D01*
X152717Y100777D01*
X153748Y100913D01*
X154710Y101311D01*
X155536Y101945D01*
X156169Y102770D01*
X156568Y103732D01*
X156703Y104764D01*
X156568Y105796D01*
X156169Y106757D01*
X155536Y107583D01*
X154710Y108217D01*
X153748Y108615D01*
X152717Y108751D01*
D02*
G37*
G36*
X16890D02*
X15858Y108615D01*
X14896Y108217D01*
X14071Y107583D01*
X13437Y106757D01*
X13039Y105796D01*
X12903Y104764D01*
X13039Y103732D01*
X13437Y102770D01*
X14071Y101945D01*
X14896Y101311D01*
X15858Y100913D01*
X16890Y100777D01*
X17922Y100913D01*
X18883Y101311D01*
X19709Y101945D01*
X20343Y102770D01*
X20741Y103732D01*
X20877Y104764D01*
X20741Y105796D01*
X20343Y106757D01*
X19709Y107583D01*
X18883Y108217D01*
X17922Y108615D01*
X16890Y108751D01*
D02*
G37*
G36*
X6890D02*
X5858Y108615D01*
X4896Y108217D01*
X4071Y107583D01*
X3437Y106757D01*
X3039Y105796D01*
X2903Y104764D01*
X3039Y103732D01*
X3437Y102770D01*
X4071Y101945D01*
X4896Y101311D01*
X5858Y100913D01*
X6890Y100777D01*
X7922Y100913D01*
X8883Y101311D01*
X9709Y101945D01*
X10343Y102770D01*
X10741Y103732D01*
X10877Y104764D01*
X10741Y105796D01*
X10343Y106757D01*
X9709Y107583D01*
X8883Y108217D01*
X7922Y108615D01*
X6890Y108751D01*
D02*
G37*
G36*
X27039Y107991D02*
X26380Y107860D01*
X25822Y107487D01*
X22203Y103868D01*
X21829Y103309D01*
X21698Y102650D01*
X21829Y101991D01*
X22022Y101702D01*
X21979Y101219D01*
X21864Y101108D01*
X21249Y100697D01*
X20762Y99969D01*
X20592Y99111D01*
X20762Y98253D01*
X21249Y97525D01*
X21976Y97039D01*
X22835Y96868D01*
X23693Y97039D01*
X24421Y97525D01*
X24907Y98253D01*
X25078Y99111D01*
X24986Y99571D01*
X25471Y99667D01*
X26030Y100040D01*
X26379Y99692D01*
X26005Y99133D01*
X25874Y98474D01*
X26005Y97815D01*
X26379Y97257D01*
X26937Y96883D01*
X27321Y96807D01*
X27397Y96423D01*
X27770Y95865D01*
X28329Y95491D01*
X28713Y95415D01*
X28789Y95031D01*
X29162Y94473D01*
X29721Y94099D01*
X30105Y94023D01*
X30181Y93639D01*
X30554Y93081D01*
X31113Y92708D01*
X31497Y92631D01*
X31573Y92247D01*
X31946Y91689D01*
X32505Y91316D01*
X32889Y91239D01*
X32965Y90856D01*
X33338Y90297D01*
X33897Y89924D01*
X34280Y89847D01*
X34357Y89464D01*
X34730Y88905D01*
X35289Y88532D01*
X35673Y88455D01*
X35749Y88072D01*
X36122Y87513D01*
X36681Y87140D01*
X37064Y87063D01*
X37141Y86680D01*
X37514Y86121D01*
X37958Y85825D01*
X38076Y85393D01*
X38077Y85237D01*
X37636Y84795D01*
X37008Y84920D01*
X36149Y84750D01*
X35422Y84263D01*
X34936Y83536D01*
X34765Y82677D01*
X34804Y82478D01*
X34451Y82125D01*
X34252Y82164D01*
X33394Y81994D01*
X32666Y81507D01*
X32180Y80780D01*
X32009Y79921D01*
X32180Y79063D01*
X32666Y78335D01*
X33394Y77849D01*
X34252Y77678D01*
X35110Y77849D01*
X35838Y78335D01*
X36324Y79063D01*
X36495Y79921D01*
X36456Y80120D01*
X36809Y80474D01*
X37008Y80434D01*
X37866Y80605D01*
X38594Y81091D01*
X38730Y81295D01*
X39005Y81112D01*
X39863Y80941D01*
X40722Y81112D01*
X41414Y81574D01*
X41449Y81598D01*
X42053Y81703D01*
X42248Y81572D01*
X42908Y81441D01*
X43567Y81572D01*
X44125Y81945D01*
X44474Y81597D01*
X44100Y81038D01*
X43969Y80379D01*
X44100Y79720D01*
X44474Y79161D01*
X44759Y78971D01*
Y76550D01*
X44417Y76482D01*
X43690Y75996D01*
X43203Y75268D01*
X43033Y74410D01*
X43203Y73551D01*
X43690Y72823D01*
X44417Y72337D01*
X44868Y72247D01*
X45033Y71705D01*
X44753Y71425D01*
X44588Y71177D01*
X44529Y70885D01*
Y68385D01*
X44588Y68092D01*
X44753Y67844D01*
X46212Y66385D01*
X46332Y65782D01*
X45903Y65575D01*
X45871Y65567D01*
X45150Y66049D01*
X44291Y66220D01*
X43433Y66049D01*
X42705Y65562D01*
X42219Y64835D01*
X42048Y63976D01*
X42219Y63118D01*
X42636Y62494D01*
X42453Y62107D01*
X42388Y62033D01*
X42126Y62086D01*
X41268Y61915D01*
X40540Y61429D01*
X40054Y60701D01*
X39883Y59842D01*
X40054Y58984D01*
X40540Y58256D01*
X41268Y57770D01*
X42126Y57599D01*
X42984Y57770D01*
X43712Y58256D01*
X44198Y58984D01*
X44369Y59842D01*
X44198Y60701D01*
X43781Y61325D01*
X43964Y61712D01*
X44029Y61785D01*
X44291Y61733D01*
X45150Y61904D01*
X45877Y62390D01*
X45971Y62531D01*
X56447D01*
X56739Y62589D01*
X57047Y62193D01*
X55562Y60708D01*
X55396Y60460D01*
X55338Y60167D01*
Y59178D01*
X55244Y59159D01*
X54516Y58673D01*
X54030Y57945D01*
X53859Y57087D01*
X54030Y56228D01*
X54516Y55501D01*
X55244Y55014D01*
X56102Y54843D01*
X56457Y54914D01*
X56883Y54489D01*
X56812Y54134D01*
X56983Y53276D01*
X57469Y52548D01*
X58197Y52061D01*
X59055Y51891D01*
X59913Y52061D01*
X60641Y52548D01*
X61075Y53197D01*
X61158Y53281D01*
X61655Y53365D01*
X62134Y53046D01*
X62992Y52875D01*
X63850Y53046D01*
X64578Y53532D01*
X65065Y54260D01*
X65235Y55118D01*
X65065Y55976D01*
X64578Y56704D01*
X63850Y57191D01*
X63757Y57209D01*
Y59209D01*
X64257Y59477D01*
X64520Y59301D01*
X64903Y59225D01*
X64980Y58841D01*
X65353Y58282D01*
X65912Y57909D01*
X66295Y57833D01*
X66372Y57449D01*
X66745Y56890D01*
X67304Y56517D01*
X67687Y56441D01*
X67764Y56057D01*
X68137Y55498D01*
X68517Y55244D01*
X68645Y54664D01*
X66897Y52917D01*
X66676Y52586D01*
X66598Y52196D01*
Y51866D01*
X66032Y51488D01*
X65546Y50760D01*
X65375Y49902D01*
X65546Y49043D01*
X66032Y48316D01*
X66760Y47829D01*
X67618Y47659D01*
X68476Y47829D01*
X69204Y48316D01*
X69691Y49043D01*
X69861Y49902D01*
X69691Y50760D01*
X69204Y51488D01*
X69021Y51610D01*
X68972Y52108D01*
X70513Y53649D01*
X70746Y53602D01*
X71405Y53733D01*
X71964Y54106D01*
X75583Y57726D01*
X75956Y58284D01*
X76087Y58943D01*
X75956Y59602D01*
X75583Y60161D01*
X75024Y60534D01*
X74972Y60545D01*
X74807Y61087D01*
X76131Y62411D01*
X76131Y62411D01*
X76297Y62660D01*
X76355Y62952D01*
Y63657D01*
X76449Y63676D01*
X77177Y64162D01*
X77663Y64890D01*
X77834Y65748D01*
X77663Y66606D01*
X77177Y67334D01*
X76449Y67820D01*
X75590Y67991D01*
X75423Y67958D01*
X75301Y68575D01*
X74814Y69303D01*
X74087Y69789D01*
X73228Y69960D01*
X73099Y69934D01*
X72939Y70740D01*
X72452Y71468D01*
X71724Y71954D01*
X70866Y72125D01*
X70008Y71954D01*
X69280Y71468D01*
X68794Y70740D01*
X68623Y69882D01*
X68794Y69024D01*
X69280Y68296D01*
X70008Y67809D01*
X70101Y67791D01*
Y66896D01*
X69550Y66344D01*
X69007Y66509D01*
X68997Y66562D01*
X68623Y67120D01*
X68065Y67494D01*
X67681Y67570D01*
X67605Y67954D01*
X67232Y68512D01*
X66673Y68886D01*
X66289Y68962D01*
X66213Y69346D01*
X65839Y69904D01*
X65281Y70278D01*
X64897Y70354D01*
X64821Y70738D01*
X64448Y71296D01*
X63889Y71670D01*
X63230Y71801D01*
X62571Y71670D01*
X62012Y71296D01*
X61664Y71645D01*
X62037Y72204D01*
X62168Y72863D01*
X62122Y73096D01*
X63819Y74794D01*
X64268Y74554D01*
X64276Y74529D01*
X64194Y74114D01*
X64365Y73256D01*
X64851Y72528D01*
X65579Y72042D01*
X66437Y71871D01*
X67295Y72042D01*
X68023Y72528D01*
X68509Y73256D01*
X68680Y74114D01*
X68509Y74973D01*
X68023Y75700D01*
X67295Y76187D01*
X67023Y76750D01*
X67105Y77165D01*
X66935Y78024D01*
X66448Y78751D01*
X65721Y79238D01*
X64862Y79409D01*
X64004Y79238D01*
X63276Y78751D01*
X63013Y78358D01*
X62610D01*
X61882Y78844D01*
X61024Y79015D01*
X60165Y78844D01*
X60085Y78791D01*
X59645Y79026D01*
Y82520D01*
X59913Y82573D01*
X60641Y83060D01*
X61128Y83787D01*
X61298Y84646D01*
X61128Y85504D01*
X60641Y86232D01*
X59913Y86718D01*
X59055Y86889D01*
X58351Y86749D01*
X57851Y87043D01*
Y88642D01*
X58345Y88724D01*
X58831Y87997D01*
X59559Y87511D01*
X60417Y87340D01*
X61275Y87511D01*
X62003Y87997D01*
X62489Y88725D01*
X62660Y89583D01*
X62489Y90441D01*
X62003Y91169D01*
X61275Y91655D01*
X60417Y91826D01*
X59559Y91655D01*
X58831Y91169D01*
X58345Y90441D01*
X57851Y90524D01*
Y92673D01*
X57945Y92691D01*
X58673Y93178D01*
X59159Y93905D01*
X59219Y94209D01*
X59762Y94373D01*
X63829Y90306D01*
X64077Y90140D01*
X64370Y90082D01*
X67401D01*
X67668Y89582D01*
X67432Y89228D01*
X67261Y88370D01*
X67432Y87511D01*
X67918Y86784D01*
X68646Y86297D01*
X69504Y86127D01*
X70363Y86297D01*
X71090Y86784D01*
X71577Y87511D01*
X71747Y88370D01*
X71577Y89228D01*
X71340Y89582D01*
X71608Y90082D01*
X75450D01*
X75468Y89988D01*
X75954Y89260D01*
X76682Y88774D01*
X77540Y88603D01*
X78399Y88774D01*
X79127Y89260D01*
X79613Y89988D01*
X79784Y90847D01*
X79613Y91705D01*
X79127Y92433D01*
X78399Y92919D01*
X77540Y93090D01*
X76682Y92919D01*
X75954Y92433D01*
X75468Y91705D01*
X75450Y91611D01*
X66281D01*
X66129Y92111D01*
X66135Y92115D01*
X66621Y92842D01*
X66791Y93701D01*
X66621Y94559D01*
X66135Y95287D01*
X65407Y95773D01*
X64548Y95944D01*
X63690Y95773D01*
X63386Y95570D01*
X59596Y99360D01*
X59348Y99525D01*
X59055Y99584D01*
X51342D01*
X51342Y99584D01*
X51049Y99525D01*
X50801Y99360D01*
X50801Y99360D01*
X48269Y96828D01*
X43168D01*
X43007Y97328D01*
X43429Y97961D01*
X43600Y98819D01*
X43429Y99677D01*
X42943Y100405D01*
X42215Y100891D01*
X41357Y101062D01*
X40499Y100891D01*
X39771Y100405D01*
X39285Y99677D01*
X39266Y99584D01*
X39076D01*
X38784Y99525D01*
X38476Y99921D01*
X41727Y103172D01*
X47122D01*
X47140Y103079D01*
X47627Y102351D01*
X48354Y101865D01*
X49213Y101694D01*
X50071Y101865D01*
X50799Y102351D01*
X50810Y102367D01*
X50827Y102367D01*
X51311Y102217D01*
X51452Y101504D01*
X51939Y100776D01*
X52666Y100290D01*
X53525Y100119D01*
X54383Y100290D01*
X55111Y100776D01*
X55597Y101504D01*
X55768Y102362D01*
X55686Y102772D01*
X56075Y102849D01*
X56803Y103335D01*
X57289Y104063D01*
X57460Y104921D01*
X57289Y105780D01*
X56803Y106507D01*
X56075Y106994D01*
X55216Y107164D01*
X54358Y106994D01*
X53630Y106507D01*
X53144Y105780D01*
X52973Y104921D01*
X53055Y104512D01*
X52666Y104435D01*
X51939Y103948D01*
X51928Y103932D01*
X51910Y103932D01*
X51427Y104082D01*
X51285Y104795D01*
X50799Y105523D01*
X50071Y106009D01*
X49213Y106180D01*
X48354Y106009D01*
X47627Y105523D01*
X47140Y104795D01*
X47122Y104702D01*
X41410D01*
X41118Y104643D01*
X40870Y104478D01*
X36143Y99751D01*
X35601Y99916D01*
X35590Y99968D01*
X35217Y100527D01*
X34658Y100900D01*
X34275Y100977D01*
X34198Y101360D01*
X33825Y101919D01*
X33266Y102292D01*
X32882Y102369D01*
X32806Y102752D01*
X32433Y103311D01*
X31874Y103684D01*
X31215Y103815D01*
X30556Y103684D01*
X29998Y103311D01*
X29649Y103660D01*
X30022Y104218D01*
X30153Y104877D01*
X30022Y105536D01*
X29649Y106095D01*
X29090Y106468D01*
X28707Y106544D01*
X28630Y106928D01*
X28257Y107487D01*
X27698Y107860D01*
X27039Y107991D01*
D02*
G37*
G36*
X81693Y98306D02*
X80835Y98135D01*
X80107Y97649D01*
X79621Y96921D01*
X79450Y96063D01*
X79621Y95205D01*
X80107Y94477D01*
X80835Y93991D01*
X81693Y93820D01*
X82551Y93991D01*
X83279Y94477D01*
X83765Y95205D01*
X83936Y96063D01*
X83765Y96921D01*
X83279Y97649D01*
X82551Y98135D01*
X81693Y98306D01*
D02*
G37*
G36*
X152717Y98751D02*
X151685Y98615D01*
X150723Y98216D01*
X149897Y97583D01*
X149264Y96757D01*
X148865Y95796D01*
X148730Y94764D01*
X148865Y93732D01*
X149264Y92770D01*
X149897Y91945D01*
X150723Y91311D01*
X151685Y90913D01*
X152717Y90777D01*
X153748Y90913D01*
X154710Y91311D01*
X155536Y91945D01*
X156169Y92770D01*
X156568Y93732D01*
X156703Y94764D01*
X156568Y95796D01*
X156169Y96757D01*
X155536Y97583D01*
X154710Y98216D01*
X153748Y98615D01*
X152717Y98751D01*
D02*
G37*
G36*
X16890D02*
X15858Y98615D01*
X14896Y98216D01*
X14071Y97583D01*
X13437Y96757D01*
X13039Y95796D01*
X12903Y94764D01*
X13039Y93732D01*
X13437Y92770D01*
X14071Y91945D01*
X14896Y91311D01*
X15858Y90913D01*
X16890Y90777D01*
X17922Y90913D01*
X18883Y91311D01*
X19709Y91945D01*
X20343Y92770D01*
X20741Y93732D01*
X20877Y94764D01*
X20741Y95796D01*
X20343Y96757D01*
X19709Y97583D01*
X18883Y98216D01*
X17922Y98615D01*
X16890Y98751D01*
D02*
G37*
G36*
X6890D02*
X5858Y98615D01*
X4896Y98216D01*
X4071Y97583D01*
X3437Y96757D01*
X3039Y95796D01*
X2903Y94764D01*
X3039Y93732D01*
X3437Y92770D01*
X4071Y91945D01*
X4896Y91311D01*
X5858Y90913D01*
X6890Y90777D01*
X7922Y90913D01*
X8883Y91311D01*
X9709Y91945D01*
X10343Y92770D01*
X10741Y93732D01*
X10877Y94764D01*
X10741Y95796D01*
X10343Y96757D01*
X9709Y97583D01*
X8883Y98216D01*
X7922Y98615D01*
X6890Y98751D01*
D02*
G37*
G36*
X77953Y88070D02*
X77094Y87899D01*
X76367Y87413D01*
X75880Y86685D01*
X75710Y85827D01*
X75880Y84968D01*
X76367Y84241D01*
X77094Y83754D01*
X77953Y83584D01*
X78811Y83754D01*
X79539Y84241D01*
X80025Y84968D01*
X80196Y85827D01*
X80025Y86685D01*
X79539Y87413D01*
X78811Y87899D01*
X77953Y88070D01*
D02*
G37*
G36*
X152717Y88751D02*
X151685Y88615D01*
X150723Y88217D01*
X149897Y87583D01*
X149264Y86757D01*
X148865Y85796D01*
X148730Y84764D01*
X148865Y83732D01*
X149264Y82770D01*
X149897Y81945D01*
X150723Y81311D01*
X151685Y80913D01*
X152717Y80777D01*
X153748Y80913D01*
X154710Y81311D01*
X155536Y81945D01*
X156169Y82770D01*
X156568Y83732D01*
X156703Y84764D01*
X156568Y85796D01*
X156169Y86757D01*
X155536Y87583D01*
X154710Y88217D01*
X153748Y88615D01*
X152717Y88751D01*
D02*
G37*
G36*
X142717D02*
X141685Y88615D01*
X140723Y88217D01*
X139897Y87583D01*
X139264Y86757D01*
X138865Y85796D01*
X138730Y84764D01*
X138865Y83732D01*
X139264Y82770D01*
X139897Y81945D01*
X140723Y81311D01*
X141685Y80913D01*
X142717Y80777D01*
X143748Y80913D01*
X144710Y81311D01*
X145536Y81945D01*
X146169Y82770D01*
X146568Y83732D01*
X146703Y84764D01*
X146568Y85796D01*
X146169Y86757D01*
X145536Y87583D01*
X144710Y88217D01*
X143748Y88615D01*
X142717Y88751D01*
D02*
G37*
G36*
X16890D02*
X15858Y88615D01*
X14896Y88217D01*
X14071Y87583D01*
X13437Y86757D01*
X13039Y85796D01*
X12903Y84764D01*
X13039Y83732D01*
X13437Y82770D01*
X14071Y81945D01*
X14896Y81311D01*
X15858Y80913D01*
X16890Y80777D01*
X17922Y80913D01*
X18883Y81311D01*
X19709Y81945D01*
X20343Y82770D01*
X20741Y83732D01*
X20877Y84764D01*
X20741Y85796D01*
X20343Y86757D01*
X19709Y87583D01*
X18883Y88217D01*
X17922Y88615D01*
X16890Y88751D01*
D02*
G37*
G36*
X6890D02*
X5858Y88615D01*
X4896Y88217D01*
X4071Y87583D01*
X3437Y86757D01*
X3039Y85796D01*
X2903Y84764D01*
X3039Y83732D01*
X3437Y82770D01*
X4071Y81945D01*
X4896Y81311D01*
X5858Y80913D01*
X6890Y80777D01*
X7922Y80913D01*
X8883Y81311D01*
X9709Y81945D01*
X10343Y82770D01*
X10741Y83732D01*
X10877Y84764D01*
X10741Y85796D01*
X10343Y86757D01*
X9709Y87583D01*
X8883Y88217D01*
X7922Y88615D01*
X6890Y88751D01*
D02*
G37*
G36*
X86614Y79802D02*
X85756Y79631D01*
X85028Y79145D01*
X84542Y78417D01*
X84371Y77559D01*
X84542Y76701D01*
X85028Y75973D01*
X85756Y75487D01*
X86614Y75316D01*
X87473Y75487D01*
X88200Y75973D01*
X88687Y76701D01*
X88857Y77559D01*
X88687Y78417D01*
X88200Y79145D01*
X87473Y79631D01*
X86614Y79802D01*
D02*
G37*
G36*
X152717Y78751D02*
X151685Y78615D01*
X150723Y78216D01*
X149897Y77583D01*
X149264Y76757D01*
X148865Y75796D01*
X148730Y74764D01*
X148865Y73732D01*
X149264Y72770D01*
X149897Y71945D01*
X150723Y71311D01*
X151685Y70913D01*
X152717Y70777D01*
X153748Y70913D01*
X154710Y71311D01*
X155536Y71945D01*
X156169Y72770D01*
X156568Y73732D01*
X156703Y74764D01*
X156568Y75796D01*
X156169Y76757D01*
X155536Y77583D01*
X154710Y78216D01*
X153748Y78615D01*
X152717Y78751D01*
D02*
G37*
G36*
X142717D02*
X141685Y78615D01*
X140723Y78216D01*
X139897Y77583D01*
X139264Y76757D01*
X138865Y75796D01*
X138730Y74764D01*
X138865Y73732D01*
X139264Y72770D01*
X139897Y71945D01*
X140723Y71311D01*
X141685Y70913D01*
X142717Y70777D01*
X143748Y70913D01*
X144710Y71311D01*
X145536Y71945D01*
X146169Y72770D01*
X146568Y73732D01*
X146703Y74764D01*
X146568Y75796D01*
X146169Y76757D01*
X145536Y77583D01*
X144710Y78216D01*
X143748Y78615D01*
X142717Y78751D01*
D02*
G37*
G36*
X16890D02*
X15858Y78615D01*
X14896Y78216D01*
X14071Y77583D01*
X13437Y76757D01*
X13039Y75796D01*
X12903Y74764D01*
X13039Y73732D01*
X13437Y72770D01*
X14071Y71945D01*
X14896Y71311D01*
X15858Y70913D01*
X16890Y70777D01*
X17922Y70913D01*
X18883Y71311D01*
X19709Y71945D01*
X20343Y72770D01*
X20741Y73732D01*
X20877Y74764D01*
X20741Y75796D01*
X20343Y76757D01*
X19709Y77583D01*
X18883Y78216D01*
X17922Y78615D01*
X16890Y78751D01*
D02*
G37*
G36*
X6890D02*
X5858Y78615D01*
X4896Y78216D01*
X4071Y77583D01*
X3437Y76757D01*
X3039Y75796D01*
X2903Y74764D01*
X3039Y73732D01*
X3437Y72770D01*
X4071Y71945D01*
X4896Y71311D01*
X5858Y70913D01*
X6890Y70777D01*
X7922Y70913D01*
X8883Y71311D01*
X9709Y71945D01*
X10343Y72770D01*
X10741Y73732D01*
X10877Y74764D01*
X10741Y75796D01*
X10343Y76757D01*
X9709Y77583D01*
X8883Y78216D01*
X7922Y78615D01*
X6890Y78751D01*
D02*
G37*
G36*
X120866Y71928D02*
X120008Y71757D01*
X119280Y71271D01*
X118794Y70543D01*
X118623Y69685D01*
X118794Y68827D01*
X119280Y68099D01*
X120008Y67613D01*
X120866Y67442D01*
X121724Y67613D01*
X122452Y68099D01*
X122939Y68827D01*
X123109Y69685D01*
X122939Y70543D01*
X122452Y71271D01*
X121724Y71757D01*
X120866Y71928D01*
D02*
G37*
G36*
X116929Y66416D02*
X116071Y66246D01*
X115343Y65759D01*
X114857Y65032D01*
X114686Y64173D01*
X114857Y63315D01*
X115343Y62587D01*
X116071Y62101D01*
X116929Y61930D01*
X117788Y62101D01*
X118515Y62587D01*
X119001Y63315D01*
X119172Y64173D01*
X119001Y65032D01*
X118515Y65759D01*
X117788Y66246D01*
X116929Y66416D01*
D02*
G37*
G36*
X152717Y68751D02*
X151685Y68615D01*
X150723Y68217D01*
X149897Y67583D01*
X149264Y66757D01*
X148865Y65796D01*
X148730Y64764D01*
X148865Y63732D01*
X149264Y62770D01*
X149897Y61945D01*
X150723Y61311D01*
X151685Y60913D01*
X152717Y60777D01*
X153748Y60913D01*
X154710Y61311D01*
X155536Y61945D01*
X156169Y62770D01*
X156568Y63732D01*
X156703Y64764D01*
X156568Y65796D01*
X156169Y66757D01*
X155536Y67583D01*
X154710Y68217D01*
X153748Y68615D01*
X152717Y68751D01*
D02*
G37*
G36*
X142717D02*
X141685Y68615D01*
X140723Y68217D01*
X139897Y67583D01*
X139264Y66757D01*
X138865Y65796D01*
X138730Y64764D01*
X138865Y63732D01*
X139264Y62770D01*
X139897Y61945D01*
X140723Y61311D01*
X141685Y60913D01*
X142717Y60777D01*
X143748Y60913D01*
X144710Y61311D01*
X145536Y61945D01*
X146169Y62770D01*
X146568Y63732D01*
X146703Y64764D01*
X146568Y65796D01*
X146169Y66757D01*
X145536Y67583D01*
X144710Y68217D01*
X143748Y68615D01*
X142717Y68751D01*
D02*
G37*
G36*
X16890D02*
X15858Y68615D01*
X14896Y68217D01*
X14071Y67583D01*
X13437Y66757D01*
X13039Y65796D01*
X12903Y64764D01*
X13039Y63732D01*
X13437Y62770D01*
X14071Y61945D01*
X14896Y61311D01*
X15858Y60913D01*
X16890Y60777D01*
X17922Y60913D01*
X18883Y61311D01*
X19709Y61945D01*
X20343Y62770D01*
X20741Y63732D01*
X20877Y64764D01*
X20741Y65796D01*
X20343Y66757D01*
X19709Y67583D01*
X18883Y68217D01*
X17922Y68615D01*
X16890Y68751D01*
D02*
G37*
G36*
X6890D02*
X5858Y68615D01*
X4896Y68217D01*
X4071Y67583D01*
X3437Y66757D01*
X3039Y65796D01*
X2903Y64764D01*
X3039Y63732D01*
X3437Y62770D01*
X4071Y61945D01*
X4896Y61311D01*
X5858Y60913D01*
X6890Y60777D01*
X7922Y60913D01*
X8883Y61311D01*
X9709Y61945D01*
X10343Y62770D01*
X10741Y63732D01*
X10877Y64764D01*
X10741Y65796D01*
X10343Y66757D01*
X9709Y67583D01*
X8883Y68217D01*
X7922Y68615D01*
X6890Y68751D01*
D02*
G37*
G36*
X109055Y62086D02*
X108197Y61915D01*
X107469Y61429D01*
X106983Y60701D01*
X106812Y59842D01*
X106983Y58984D01*
X107469Y58256D01*
X108197Y57770D01*
X109055Y57599D01*
X109914Y57770D01*
X110641Y58256D01*
X111127Y58984D01*
X111298Y59842D01*
X111127Y60701D01*
X110641Y61429D01*
X109914Y61915D01*
X109055Y62086D01*
D02*
G37*
G36*
X118898Y56968D02*
X118039Y56797D01*
X117312Y56310D01*
X116825Y55583D01*
X116655Y54724D01*
X116825Y53866D01*
X117312Y53138D01*
X118039Y52652D01*
X118898Y52481D01*
X119756Y52652D01*
X120484Y53138D01*
X120970Y53866D01*
X121141Y54724D01*
X120970Y55583D01*
X120484Y56310D01*
X119756Y56797D01*
X118898Y56968D01*
D02*
G37*
G36*
X152717Y58751D02*
X151685Y58615D01*
X150723Y58217D01*
X149897Y57583D01*
X149264Y56757D01*
X148865Y55796D01*
X148730Y54764D01*
X148865Y53732D01*
X149264Y52770D01*
X149897Y51945D01*
X150723Y51311D01*
X151685Y50913D01*
X152717Y50777D01*
X153748Y50913D01*
X154710Y51311D01*
X155536Y51945D01*
X156169Y52770D01*
X156568Y53732D01*
X156703Y54764D01*
X156568Y55796D01*
X156169Y56757D01*
X155536Y57583D01*
X154710Y58217D01*
X153748Y58615D01*
X152717Y58751D01*
D02*
G37*
G36*
X142717D02*
X141685Y58615D01*
X140723Y58217D01*
X139897Y57583D01*
X139264Y56757D01*
X138865Y55796D01*
X138730Y54764D01*
X138865Y53732D01*
X139264Y52770D01*
X139897Y51945D01*
X140723Y51311D01*
X141685Y50913D01*
X142717Y50777D01*
X143748Y50913D01*
X144710Y51311D01*
X145536Y51945D01*
X146169Y52770D01*
X146568Y53732D01*
X146703Y54764D01*
X146568Y55796D01*
X146169Y56757D01*
X145536Y57583D01*
X144710Y58217D01*
X143748Y58615D01*
X142717Y58751D01*
D02*
G37*
G36*
X16890D02*
X15858Y58615D01*
X14896Y58217D01*
X14071Y57583D01*
X13437Y56757D01*
X13039Y55796D01*
X12903Y54764D01*
X13039Y53732D01*
X13437Y52770D01*
X14071Y51945D01*
X14896Y51311D01*
X15858Y50913D01*
X16890Y50777D01*
X17922Y50913D01*
X18883Y51311D01*
X19709Y51945D01*
X20343Y52770D01*
X20741Y53732D01*
X20877Y54764D01*
X20741Y55796D01*
X20343Y56757D01*
X19709Y57583D01*
X18883Y58217D01*
X17922Y58615D01*
X16890Y58751D01*
D02*
G37*
G36*
X6890D02*
X5858Y58615D01*
X4896Y58217D01*
X4071Y57583D01*
X3437Y56757D01*
X3039Y55796D01*
X2903Y54764D01*
X3039Y53732D01*
X3437Y52770D01*
X4071Y51945D01*
X4896Y51311D01*
X5858Y50913D01*
X6890Y50777D01*
X7922Y50913D01*
X8883Y51311D01*
X9709Y51945D01*
X10343Y52770D01*
X10741Y53732D01*
X10877Y54764D01*
X10741Y55796D01*
X10343Y56757D01*
X9709Y57583D01*
X8883Y58217D01*
X7922Y58615D01*
X6890Y58751D01*
D02*
G37*
G36*
X145885Y50668D02*
X145026Y50498D01*
X144299Y50011D01*
X143812Y49284D01*
X143681Y48624D01*
X142717Y48751D01*
X141685Y48615D01*
X140723Y48217D01*
X139897Y47583D01*
X139264Y46757D01*
X138865Y45796D01*
X138730Y44764D01*
X138865Y43732D01*
X139264Y42770D01*
X139897Y41945D01*
X140723Y41311D01*
X141685Y40913D01*
X142717Y40777D01*
X143748Y40913D01*
X144710Y41311D01*
X145536Y41945D01*
X146169Y42770D01*
X146568Y43732D01*
X146703Y44764D01*
X146568Y45796D01*
X146514Y45925D01*
X146743Y46353D01*
X147471Y46839D01*
X147957Y47567D01*
X148128Y48425D01*
X147957Y49284D01*
X147471Y50011D01*
X146743Y50498D01*
X145885Y50668D01*
D02*
G37*
G36*
X59451Y51257D02*
X58592Y51086D01*
X57864Y50600D01*
X57378Y49872D01*
X57208Y49014D01*
X57378Y48156D01*
X57864Y47428D01*
X58592Y46942D01*
X59451Y46771D01*
X60309Y46942D01*
X61037Y47428D01*
X61523Y48156D01*
X61694Y49014D01*
X61523Y49872D01*
X61037Y50600D01*
X60309Y51086D01*
X59451Y51257D01*
D02*
G37*
G36*
X37008Y52637D02*
X36149Y52466D01*
X35422Y51980D01*
X34936Y51252D01*
X34765Y50394D01*
X34936Y49535D01*
X35422Y48808D01*
X36149Y48321D01*
X36205Y48310D01*
X36251Y48165D01*
X36258Y47790D01*
X35790Y47477D01*
X35417Y46919D01*
X35286Y46260D01*
X35417Y45601D01*
X35447Y45556D01*
X35180Y45056D01*
X31126D01*
X31108Y45150D01*
X30621Y45877D01*
X29894Y46364D01*
X29035Y46534D01*
X28177Y46364D01*
X27449Y45877D01*
X26963Y45150D01*
X26792Y44291D01*
X26963Y43433D01*
X27449Y42705D01*
X28177Y42219D01*
X29035Y42048D01*
X29297Y42100D01*
X29424Y41464D01*
X29910Y40737D01*
X30638Y40251D01*
X31496Y40080D01*
X31625Y40105D01*
X31785Y39300D01*
X32271Y38572D01*
X32999Y38086D01*
X33857Y37915D01*
X34716Y38086D01*
X34822Y38157D01*
X35377Y37927D01*
X35417Y37727D01*
X35634Y37402D01*
X35417Y37076D01*
X35286Y36417D01*
X35417Y35758D01*
X35790Y35200D01*
X36349Y34826D01*
X37008Y34695D01*
X39136D01*
X39572Y34650D01*
X39617Y34214D01*
Y32087D01*
X39748Y31428D01*
X40121Y30869D01*
X40680Y30496D01*
X41339Y30365D01*
X41998Y30496D01*
X42323Y30713D01*
X42648Y30496D01*
X43307Y30365D01*
X43966Y30496D01*
X44011Y30526D01*
X44511Y30258D01*
Y28559D01*
X33139D01*
X32987Y29059D01*
X33082Y29123D01*
X33568Y29850D01*
X33739Y30709D01*
X33568Y31567D01*
X33082Y32295D01*
X32355Y32781D01*
X31496Y32952D01*
X30638Y32781D01*
X29910Y32295D01*
X29424Y31567D01*
X29253Y30709D01*
X29424Y29850D01*
X29910Y29123D01*
X30638Y28636D01*
X31480Y28469D01*
Y26087D01*
X30980Y25841D01*
X30749Y26018D01*
X30027Y26317D01*
X29252Y26419D01*
X28477Y26317D01*
X27755Y26018D01*
X27135Y25542D01*
X26659Y24922D01*
X26360Y24200D01*
X26258Y23425D01*
Y19094D01*
X26360Y18319D01*
X26659Y17597D01*
X27135Y16977D01*
X27755Y16501D01*
X28477Y16202D01*
X29252Y16100D01*
X30027Y16202D01*
X30749Y16501D01*
X31369Y16977D01*
X31845Y17597D01*
X32144Y18319D01*
X32183Y18613D01*
X32689Y18630D01*
X32735Y18402D01*
X33238Y17648D01*
X33883Y17217D01*
X34037Y16664D01*
X31956Y14584D01*
X31735Y14253D01*
X31658Y13863D01*
Y9449D01*
X31735Y9059D01*
X31956Y8728D01*
X33925Y6759D01*
X34255Y6538D01*
X34646Y6461D01*
X44098D01*
X44477Y5894D01*
X45205Y5408D01*
X46063Y5237D01*
X46921Y5408D01*
X47649Y5894D01*
X48135Y6622D01*
X48306Y7480D01*
X48135Y8339D01*
X47649Y9066D01*
X47637Y9117D01*
X47696Y9636D01*
X47785Y9696D01*
X48996Y10907D01*
X49162Y11155D01*
X49174Y11213D01*
X49677Y11314D01*
X50246Y11693D01*
X50591Y11762D01*
X50935Y11693D01*
X51504Y11314D01*
X52362Y11143D01*
X53221Y11314D01*
X53948Y11800D01*
X54227Y12217D01*
X54828D01*
X55107Y11800D01*
X55835Y11314D01*
X56693Y11143D01*
X57551Y11314D01*
X58279Y11800D01*
X58765Y12527D01*
X58936Y13386D01*
X58765Y14244D01*
X58279Y14972D01*
X57551Y15458D01*
X56693Y15629D01*
X55835Y15458D01*
X55107Y14972D01*
X55016Y14963D01*
X53760Y16219D01*
X54016Y16670D01*
X54795Y16825D01*
X55523Y17312D01*
X55593Y17417D01*
X56240Y17484D01*
X56748Y17144D01*
X57638Y16967D01*
X58527Y17144D01*
X59281Y17648D01*
X59785Y18402D01*
X59830Y18630D01*
X60337Y18613D01*
X60376Y18319D01*
X60675Y17597D01*
X61150Y16977D01*
X61771Y16501D01*
X62493Y16202D01*
X63268Y16100D01*
X64043Y16202D01*
X64765Y16501D01*
X65385Y16977D01*
X65861Y17597D01*
X66160Y18319D01*
X66262Y19094D01*
Y23425D01*
X66160Y24200D01*
X65861Y24922D01*
X65385Y25542D01*
X64765Y26018D01*
X64043Y26317D01*
X63268Y26419D01*
X62493Y26317D01*
X61771Y26018D01*
X61539Y25841D01*
X61039Y26087D01*
Y28559D01*
X58213D01*
X58022Y29021D01*
X62233Y33232D01*
X68453D01*
X68758Y32732D01*
X68623Y32052D01*
X68794Y31194D01*
X69280Y30466D01*
X70008Y29980D01*
X70866Y29809D01*
X71724Y29980D01*
X72452Y30466D01*
X72939Y31194D01*
X73109Y32052D01*
X72974Y32732D01*
X73279Y33232D01*
X76775D01*
X77154Y32666D01*
X77882Y32180D01*
X78740Y32009D01*
X79599Y32180D01*
X80326Y32666D01*
X80813Y33394D01*
X80983Y34252D01*
X80813Y35110D01*
X80326Y35838D01*
X79599Y36324D01*
X78740Y36495D01*
X77882Y36324D01*
X77781Y36257D01*
X77331Y36557D01*
X77440Y37106D01*
X77269Y37965D01*
X76783Y38692D01*
X76055Y39179D01*
X75197Y39349D01*
X74339Y39179D01*
X73611Y38692D01*
X73124Y37965D01*
X72954Y37106D01*
X73124Y36248D01*
X73443Y35772D01*
X73176Y35272D01*
X61811D01*
X61421Y35194D01*
X61090Y34973D01*
X55669Y29552D01*
X55448Y29221D01*
X55370Y28831D01*
Y28559D01*
X52554D01*
X52150Y29059D01*
X52243Y29528D01*
X52072Y30386D01*
X51586Y31114D01*
X50858Y31600D01*
X50839Y31604D01*
X50935Y32087D01*
Y34646D01*
X50881Y34917D01*
X51284Y35417D01*
X52181D01*
Y36315D01*
X52681Y36718D01*
X52953Y36664D01*
X55512D01*
X55963Y36754D01*
X56622Y36314D01*
X57480Y36143D01*
X58339Y36314D01*
X59066Y36800D01*
X59553Y37527D01*
X59723Y38386D01*
X59553Y39244D01*
X59963Y39529D01*
X60444Y39851D01*
X60931Y40579D01*
X61101Y41437D01*
X60931Y42295D01*
X60444Y43023D01*
X59717Y43509D01*
X58858Y43680D01*
X58000Y43509D01*
X57520Y43189D01*
X57352Y43106D01*
X56997Y43474D01*
X57103Y43632D01*
X57234Y44291D01*
X57103Y44950D01*
X56885Y45276D01*
X57103Y45601D01*
X57234Y46260D01*
X57103Y46919D01*
X56730Y47477D01*
X56171Y47851D01*
X55512Y47982D01*
X53384D01*
X52948Y48027D01*
X52903Y48463D01*
Y50591D01*
X52772Y51249D01*
X52399Y51808D01*
X51840Y52182D01*
X51181Y52313D01*
X50522Y52182D01*
X50197Y51964D01*
X49872Y52182D01*
X49213Y52313D01*
X48554Y52182D01*
X48228Y51964D01*
X47903Y52182D01*
X47244Y52313D01*
X46585Y52182D01*
X46260Y51964D01*
X45935Y52182D01*
X45276Y52313D01*
X44617Y52182D01*
X44291Y51964D01*
X43966Y52182D01*
X43307Y52313D01*
X42648Y52182D01*
X42323Y51964D01*
X41998Y52182D01*
X41339Y52313D01*
X40680Y52182D01*
X40121Y51808D01*
X39748Y51249D01*
X39669Y50855D01*
X39159Y50855D01*
X39080Y51252D01*
X38594Y51980D01*
X37866Y52466D01*
X37008Y52637D01*
D02*
G37*
G36*
X115354Y47125D02*
X114496Y46954D01*
X113768Y46468D01*
X113282Y45740D01*
X113111Y44882D01*
X113282Y44023D01*
X113768Y43296D01*
X114496Y42810D01*
X115354Y42639D01*
X116213Y42810D01*
X116940Y43296D01*
X117427Y44023D01*
X117597Y44882D01*
X117427Y45740D01*
X116940Y46468D01*
X116213Y46954D01*
X115354Y47125D01*
D02*
G37*
G36*
X152717Y48751D02*
X151685Y48615D01*
X150723Y48217D01*
X149897Y47583D01*
X149264Y46757D01*
X148865Y45796D01*
X148730Y44764D01*
X148865Y43732D01*
X149264Y42770D01*
X149897Y41945D01*
X150723Y41311D01*
X151685Y40913D01*
X152717Y40777D01*
X153748Y40913D01*
X154710Y41311D01*
X155536Y41945D01*
X156169Y42770D01*
X156568Y43732D01*
X156703Y44764D01*
X156568Y45796D01*
X156169Y46757D01*
X155536Y47583D01*
X154710Y48217D01*
X153748Y48615D01*
X152717Y48751D01*
D02*
G37*
G36*
X16890D02*
X15858Y48615D01*
X14896Y48217D01*
X14071Y47583D01*
X13437Y46757D01*
X13039Y45796D01*
X12903Y44764D01*
X13039Y43732D01*
X13437Y42770D01*
X14071Y41945D01*
X14896Y41311D01*
X15858Y40913D01*
X16890Y40777D01*
X17922Y40913D01*
X18883Y41311D01*
X19709Y41945D01*
X20343Y42770D01*
X20741Y43732D01*
X20877Y44764D01*
X20741Y45796D01*
X20343Y46757D01*
X19709Y47583D01*
X18883Y48217D01*
X17922Y48615D01*
X16890Y48751D01*
D02*
G37*
G36*
X6890D02*
X5858Y48615D01*
X4896Y48217D01*
X4071Y47583D01*
X3437Y46757D01*
X3039Y45796D01*
X2903Y44764D01*
X3039Y43732D01*
X3437Y42770D01*
X4071Y41945D01*
X4896Y41311D01*
X5858Y40913D01*
X6890Y40777D01*
X7922Y40913D01*
X8883Y41311D01*
X9709Y41945D01*
X10343Y42770D01*
X10741Y43732D01*
X10877Y44764D01*
X10741Y45796D01*
X10343Y46757D01*
X9709Y47583D01*
X8883Y48217D01*
X7922Y48615D01*
X6890Y48751D01*
D02*
G37*
G36*
X133366Y39251D02*
X132508Y39080D01*
X131780Y38594D01*
X131294Y37866D01*
X131123Y37008D01*
X131294Y36149D01*
X131780Y35422D01*
X132508Y34936D01*
X133366Y34765D01*
X134224Y34936D01*
X134952Y35422D01*
X135439Y36149D01*
X135609Y37008D01*
X135439Y37866D01*
X134952Y38594D01*
X134224Y39080D01*
X133366Y39251D01*
D02*
G37*
G36*
X109055Y36495D02*
X108197Y36324D01*
X107469Y35838D01*
X106983Y35110D01*
X106812Y34252D01*
X106983Y33394D01*
X107469Y32666D01*
X108197Y32180D01*
X109055Y32009D01*
X109914Y32180D01*
X110641Y32666D01*
X111127Y33394D01*
X111298Y34252D01*
X111127Y35110D01*
X110641Y35838D01*
X109914Y36324D01*
X109055Y36495D01*
D02*
G37*
G36*
X90650Y35904D02*
X89791Y35734D01*
X89064Y35247D01*
X88577Y34520D01*
X88406Y33661D01*
X88577Y32803D01*
X89064Y32075D01*
X89791Y31589D01*
X90650Y31418D01*
X91508Y31589D01*
X92236Y32075D01*
X92722Y32803D01*
X92893Y33661D01*
X92722Y34520D01*
X92236Y35247D01*
X91508Y35734D01*
X90650Y35904D01*
D02*
G37*
G36*
X152717Y38751D02*
X151685Y38615D01*
X150723Y38217D01*
X149897Y37583D01*
X149264Y36757D01*
X148865Y35796D01*
X148730Y34764D01*
X148865Y33732D01*
X149264Y32770D01*
X149897Y31945D01*
X150723Y31311D01*
X151685Y30913D01*
X152717Y30777D01*
X153748Y30913D01*
X154710Y31311D01*
X155536Y31945D01*
X156169Y32770D01*
X156568Y33732D01*
X156703Y34764D01*
X156568Y35796D01*
X156169Y36757D01*
X155536Y37583D01*
X154710Y38217D01*
X153748Y38615D01*
X152717Y38751D01*
D02*
G37*
G36*
X142717D02*
X141685Y38615D01*
X140723Y38217D01*
X139897Y37583D01*
X139264Y36757D01*
X138865Y35796D01*
X138730Y34764D01*
X138865Y33732D01*
X139264Y32770D01*
X139897Y31945D01*
X140723Y31311D01*
X141685Y30913D01*
X142717Y30777D01*
X143748Y30913D01*
X144710Y31311D01*
X145536Y31945D01*
X146169Y32770D01*
X146568Y33732D01*
X146703Y34764D01*
X146568Y35796D01*
X146169Y36757D01*
X145536Y37583D01*
X144710Y38217D01*
X143748Y38615D01*
X142717Y38751D01*
D02*
G37*
G36*
X16890D02*
X15858Y38615D01*
X14896Y38217D01*
X14071Y37583D01*
X13437Y36757D01*
X13039Y35796D01*
X12903Y34764D01*
X13039Y33732D01*
X13437Y32770D01*
X14071Y31945D01*
X14896Y31311D01*
X15858Y30913D01*
X16890Y30777D01*
X17922Y30913D01*
X18883Y31311D01*
X19709Y31945D01*
X20343Y32770D01*
X20741Y33732D01*
X20877Y34764D01*
X20741Y35796D01*
X20343Y36757D01*
X19709Y37583D01*
X18883Y38217D01*
X17922Y38615D01*
X16890Y38751D01*
D02*
G37*
G36*
X6890D02*
X5858Y38615D01*
X4896Y38217D01*
X4071Y37583D01*
X3437Y36757D01*
X3039Y35796D01*
X2903Y34764D01*
X3039Y33732D01*
X3437Y32770D01*
X4071Y31945D01*
X4896Y31311D01*
X5858Y30913D01*
X6890Y30777D01*
X7922Y30913D01*
X8883Y31311D01*
X9709Y31945D01*
X10343Y32770D01*
X10741Y33732D01*
X10877Y34764D01*
X10741Y35796D01*
X10343Y36757D01*
X9709Y37583D01*
X8883Y38217D01*
X7922Y38615D01*
X6890Y38751D01*
D02*
G37*
G36*
X152717Y28751D02*
X151685Y28615D01*
X150723Y28216D01*
X149897Y27583D01*
X149264Y26757D01*
X148865Y25796D01*
X148730Y24764D01*
X148865Y23732D01*
X149264Y22770D01*
X149897Y21945D01*
X150723Y21311D01*
X151685Y20913D01*
X152717Y20777D01*
X153748Y20913D01*
X154710Y21311D01*
X155536Y21945D01*
X156169Y22770D01*
X156568Y23732D01*
X156703Y24764D01*
X156568Y25796D01*
X156169Y26757D01*
X155536Y27583D01*
X154710Y28216D01*
X153748Y28615D01*
X152717Y28751D01*
D02*
G37*
G36*
X142717D02*
X141685Y28615D01*
X140723Y28216D01*
X139897Y27583D01*
X139264Y26757D01*
X138865Y25796D01*
X138730Y24764D01*
X138865Y23732D01*
X139264Y22770D01*
X139897Y21945D01*
X140723Y21311D01*
X141685Y20913D01*
X142717Y20777D01*
X143748Y20913D01*
X144710Y21311D01*
X145536Y21945D01*
X146169Y22770D01*
X146568Y23732D01*
X146703Y24764D01*
X146568Y25796D01*
X146169Y26757D01*
X145536Y27583D01*
X144710Y28216D01*
X143748Y28615D01*
X142717Y28751D01*
D02*
G37*
G36*
X16890D02*
X15858Y28615D01*
X14896Y28216D01*
X14071Y27583D01*
X13437Y26757D01*
X13039Y25796D01*
X12903Y24764D01*
X13039Y23732D01*
X13437Y22770D01*
X14071Y21945D01*
X14896Y21311D01*
X15858Y20913D01*
X16890Y20777D01*
X17922Y20913D01*
X18883Y21311D01*
X19709Y21945D01*
X20343Y22770D01*
X20741Y23732D01*
X20877Y24764D01*
X20741Y25796D01*
X20343Y26757D01*
X19709Y27583D01*
X18883Y28216D01*
X17922Y28615D01*
X16890Y28751D01*
D02*
G37*
G36*
X6890D02*
X5858Y28615D01*
X4896Y28216D01*
X4071Y27583D01*
X3437Y26757D01*
X3039Y25796D01*
X2903Y24764D01*
X3039Y23732D01*
X3437Y22770D01*
X4071Y21945D01*
X4896Y21311D01*
X5858Y20913D01*
X6890Y20777D01*
X7922Y20913D01*
X8883Y21311D01*
X9709Y21945D01*
X10343Y22770D01*
X10741Y23732D01*
X10877Y24764D01*
X10741Y25796D01*
X10343Y26757D01*
X9709Y27583D01*
X8883Y28216D01*
X7922Y28615D01*
X6890Y28751D01*
D02*
G37*
G36*
X83563Y23700D02*
X82705Y23529D01*
X81977Y23043D01*
X81491Y22315D01*
X81320Y21457D01*
X81491Y20598D01*
X81977Y19871D01*
X82705Y19384D01*
X83563Y19214D01*
X84421Y19384D01*
X85149Y19871D01*
X85635Y20598D01*
X85806Y21457D01*
X85635Y22315D01*
X85149Y23043D01*
X84421Y23529D01*
X83563Y23700D01*
D02*
G37*
G36*
X73228Y17597D02*
X72370Y17427D01*
X71642Y16940D01*
X71156Y16213D01*
X70985Y15354D01*
X71156Y14496D01*
X71642Y13768D01*
X72370Y13282D01*
X73228Y13111D01*
X74087Y13282D01*
X74814Y13768D01*
X75301Y14496D01*
X75472Y15354D01*
X75301Y16213D01*
X74814Y16940D01*
X74087Y17427D01*
X73228Y17597D01*
D02*
G37*
G36*
X152717Y18751D02*
X151685Y18615D01*
X150723Y18216D01*
X149897Y17583D01*
X149264Y16757D01*
X148865Y15796D01*
X148730Y14764D01*
X148865Y13732D01*
X149264Y12770D01*
X149897Y11945D01*
X150723Y11311D01*
X151685Y10913D01*
X152717Y10777D01*
X153748Y10913D01*
X154710Y11311D01*
X155536Y11945D01*
X156169Y12770D01*
X156568Y13732D01*
X156703Y14764D01*
X156568Y15796D01*
X156169Y16757D01*
X155536Y17583D01*
X154710Y18216D01*
X153748Y18615D01*
X152717Y18751D01*
D02*
G37*
G36*
X142717D02*
X141685Y18615D01*
X140723Y18216D01*
X139897Y17583D01*
X139264Y16757D01*
X138865Y15796D01*
X138730Y14764D01*
X138865Y13732D01*
X139264Y12770D01*
X139897Y11945D01*
X140723Y11311D01*
X141685Y10913D01*
X142717Y10777D01*
X143748Y10913D01*
X144710Y11311D01*
X145536Y11945D01*
X146169Y12770D01*
X146568Y13732D01*
X146703Y14764D01*
X146568Y15796D01*
X146169Y16757D01*
X145536Y17583D01*
X144710Y18216D01*
X143748Y18615D01*
X142717Y18751D01*
D02*
G37*
G36*
X16890D02*
X15858Y18615D01*
X14896Y18216D01*
X14071Y17583D01*
X13437Y16757D01*
X13039Y15796D01*
X12903Y14764D01*
X13039Y13732D01*
X13437Y12770D01*
X14071Y11945D01*
X14896Y11311D01*
X15858Y10913D01*
X16890Y10777D01*
X17922Y10913D01*
X18883Y11311D01*
X19709Y11945D01*
X20343Y12770D01*
X20741Y13732D01*
X20877Y14764D01*
X20741Y15796D01*
X20343Y16757D01*
X19709Y17583D01*
X18883Y18216D01*
X17922Y18615D01*
X16890Y18751D01*
D02*
G37*
G36*
X6890D02*
X5858Y18615D01*
X4896Y18216D01*
X4071Y17583D01*
X3437Y16757D01*
X3039Y15796D01*
X2903Y14764D01*
X3039Y13732D01*
X3437Y12770D01*
X4071Y11945D01*
X4896Y11311D01*
X5858Y10913D01*
X6890Y10777D01*
X7922Y10913D01*
X8883Y11311D01*
X9709Y11945D01*
X10343Y12770D01*
X10741Y13732D01*
X10877Y14764D01*
X10741Y15796D01*
X10343Y16757D01*
X9709Y17583D01*
X8883Y18216D01*
X7922Y18615D01*
X6890Y18751D01*
D02*
G37*
%LPD*%
G36*
X51992Y71828D02*
X52376Y71752D01*
X52452Y71368D01*
X52825Y70810D01*
X53384Y70436D01*
X53768Y70360D01*
X53844Y69976D01*
X54217Y69418D01*
X54776Y69045D01*
X55160Y68968D01*
X55236Y68585D01*
X55609Y68026D01*
X56168Y67652D01*
X56827Y67522D01*
X57486Y67652D01*
X58045Y68026D01*
X58393Y67677D01*
X58020Y67119D01*
X57889Y66460D01*
X57995Y65925D01*
X56130Y64060D01*
X49580D01*
X49429Y64560D01*
X50011Y64949D01*
X50498Y65677D01*
X50668Y66535D01*
X50498Y67394D01*
X50011Y68121D01*
X49695Y68333D01*
X49316Y68666D01*
X49475Y69463D01*
X50071Y69581D01*
X50799Y70067D01*
X51285Y70795D01*
X51444Y71593D01*
X51667Y71754D01*
X51921Y71876D01*
X51992Y71828D01*
D02*
G37*
D39*
X125867Y96108D02*
D03*
X124475Y94716D02*
D03*
X127259Y97500D02*
D03*
X121692Y91932D02*
D03*
X123083Y93324D02*
D03*
X132827Y103068D02*
D03*
X131435Y101676D02*
D03*
X134219Y104460D02*
D03*
X128651Y98892D02*
D03*
X130043Y100284D02*
D03*
X113340Y83580D02*
D03*
X111948Y82189D02*
D03*
X114732Y84973D02*
D03*
X109164Y79405D02*
D03*
X110556Y80797D02*
D03*
X118908Y89148D02*
D03*
X120299Y90540D02*
D03*
X116124Y86364D02*
D03*
X117516Y87756D02*
D03*
X100812Y71053D02*
D03*
X99420Y69661D02*
D03*
X102204Y72445D02*
D03*
X96636Y66877D02*
D03*
X98028Y68269D02*
D03*
X106380Y76621D02*
D03*
X104988Y75229D02*
D03*
X107772Y78013D02*
D03*
X103596Y73837D02*
D03*
X93853Y64093D02*
D03*
X92461Y62701D02*
D03*
X95245Y65485D02*
D03*
X89677Y59917D02*
D03*
X91069Y61309D02*
D03*
X86893Y57134D02*
D03*
X88285Y58526D02*
D03*
X85501Y55742D02*
D03*
X72556Y163339D02*
D03*
X69772Y160555D02*
D03*
X71164Y161947D02*
D03*
X66988Y157771D02*
D03*
X65596Y156379D02*
D03*
X68380Y159163D02*
D03*
X62812Y153595D02*
D03*
X64204Y154987D02*
D03*
X54461Y145244D02*
D03*
X53069Y143852D02*
D03*
X55853Y146635D02*
D03*
X50285Y141068D02*
D03*
X51677Y142460D02*
D03*
X60028Y150811D02*
D03*
X61420Y152203D02*
D03*
X57244Y148028D02*
D03*
X58636Y149419D02*
D03*
X41933Y132716D02*
D03*
X40541Y131324D02*
D03*
X43325Y134108D02*
D03*
X37757Y128540D02*
D03*
X39149Y129932D02*
D03*
X47501Y138284D02*
D03*
X48893Y139676D02*
D03*
X44717Y135500D02*
D03*
X46109Y136892D02*
D03*
X29406Y120189D02*
D03*
X28014Y118797D02*
D03*
X30798Y121581D02*
D03*
X25230Y116013D02*
D03*
X26622Y117405D02*
D03*
X34973Y125756D02*
D03*
X36365Y127148D02*
D03*
X32190Y122973D02*
D03*
X33582Y124364D02*
D03*
D40*
X117516Y132716D02*
D03*
X118908Y131324D02*
D03*
X116124Y134108D02*
D03*
X121692Y128540D02*
D03*
X120299Y129932D02*
D03*
X110556Y139676D02*
D03*
X111948Y138284D02*
D03*
X109164Y141068D02*
D03*
X114732Y135500D02*
D03*
X113340Y136892D02*
D03*
X130043Y120189D02*
D03*
X131435Y118797D02*
D03*
X128651Y121581D02*
D03*
X134219Y116013D02*
D03*
X132827Y117405D02*
D03*
X124475Y125756D02*
D03*
X123083Y127148D02*
D03*
X127259Y122973D02*
D03*
X125867Y124364D02*
D03*
X73948Y55742D02*
D03*
X55853Y73837D02*
D03*
X57244Y72445D02*
D03*
X54461Y75229D02*
D03*
X60028Y69661D02*
D03*
X58636Y71053D02*
D03*
X48893Y80797D02*
D03*
X50285Y79405D02*
D03*
X47501Y82189D02*
D03*
X53069Y76621D02*
D03*
X51677Y78013D02*
D03*
X68380Y61309D02*
D03*
X69772Y59917D02*
D03*
X66988Y62701D02*
D03*
X72556Y57134D02*
D03*
X71164Y58526D02*
D03*
X62812Y66877D02*
D03*
X61420Y68269D02*
D03*
X65596Y64093D02*
D03*
X64204Y65485D02*
D03*
X103596Y146635D02*
D03*
X104988Y145244D02*
D03*
X102204Y148028D02*
D03*
X107772Y142460D02*
D03*
X106380Y143852D02*
D03*
X96636Y153595D02*
D03*
X98028Y152203D02*
D03*
X88285Y161947D02*
D03*
X100812Y149419D02*
D03*
X99420Y150811D02*
D03*
X91069Y159163D02*
D03*
X92461Y157771D02*
D03*
X89677Y160555D02*
D03*
X95245Y154987D02*
D03*
X93853Y156379D02*
D03*
X86893Y163339D02*
D03*
X85501Y164731D02*
D03*
X41933Y87756D02*
D03*
X43325Y86364D02*
D03*
X40541Y89148D02*
D03*
X46109Y83580D02*
D03*
X44717Y84973D02*
D03*
X39149Y90540D02*
D03*
X37757Y91932D02*
D03*
X32190Y97500D02*
D03*
X33582Y96108D02*
D03*
X30798Y98892D02*
D03*
X36365Y93324D02*
D03*
X34973Y94716D02*
D03*
X26622Y103068D02*
D03*
X25230Y104460D02*
D03*
X29406Y100284D02*
D03*
X28014Y101676D02*
D03*
D41*
X73948Y164731D02*
D03*
D42*
X41339Y49311D02*
D03*
X45276Y49311D02*
D03*
X43307D02*
D03*
X49213Y49311D02*
D03*
X51181D02*
D03*
X47244Y49311D02*
D03*
X43307Y33366D02*
D03*
X47244D02*
D03*
X45276D02*
D03*
X41339Y33366D02*
D03*
X51181D02*
D03*
X49213D02*
D03*
D43*
X38287Y42323D02*
D03*
Y40354D02*
D03*
X38287Y46260D02*
D03*
Y44291D02*
D03*
X54232Y42323D02*
D03*
Y40354D02*
D03*
X54232Y46260D02*
D03*
Y44291D02*
D03*
X38287Y36417D02*
D03*
X38287Y38386D02*
D03*
X54232D02*
D03*
X54232Y36417D02*
D03*
D44*
X46260Y41339D02*
D03*
D45*
X88842Y182882D02*
D03*
X86058Y180098D02*
D03*
X87450Y181490D02*
D03*
X83274Y177314D02*
D03*
X81882Y175922D02*
D03*
X84666Y178706D02*
D03*
X76175Y192765D02*
D03*
X73391Y189981D02*
D03*
X74783Y191373D02*
D03*
X77567Y194157D02*
D03*
X70607Y187197D02*
D03*
X71999Y188589D02*
D03*
D46*
X86058Y189981D02*
D03*
X84666Y191373D02*
D03*
X88842Y187197D02*
D03*
X87450Y188589D02*
D03*
X74783Y178706D02*
D03*
X73391Y180098D02*
D03*
X77567Y175922D02*
D03*
X76175Y177314D02*
D03*
X81882Y194157D02*
D03*
X83274Y192765D02*
D03*
X71999Y181490D02*
D03*
X70607Y182882D02*
D03*
D47*
X79724Y185039D02*
D03*
D48*
X45763Y157143D02*
D03*
X47573Y155333D02*
D03*
X43954Y158952D02*
D03*
X34628Y142388D02*
D03*
X31008Y146007D02*
D03*
X32818Y144197D02*
D03*
X42144Y160762D02*
D03*
D49*
X29199Y147817D02*
D03*
D50*
X120236Y23779D02*
D03*
Y7874D02*
D03*
X115236Y23779D02*
D03*
Y7874D02*
D03*
X110236Y23779D02*
D03*
Y7874D02*
D03*
X105236Y23779D02*
D03*
Y7874D02*
D03*
X100236Y23779D02*
D03*
D51*
Y7874D02*
D03*
D52*
X53150Y24409D02*
D03*
X51181D02*
D03*
X49213D02*
D03*
X47244D02*
D03*
X45276D02*
D03*
X43307D02*
D03*
X41339D02*
D03*
X39370D02*
D03*
D53*
X36811D02*
D03*
X33661D02*
D03*
X55709D02*
D03*
X58858D02*
D03*
D54*
X86221Y209449D02*
D03*
Y215354D02*
D03*
X80315Y209449D02*
D03*
Y215354D02*
D03*
X74410Y209449D02*
D03*
Y215354D02*
D03*
D55*
X105709Y204724D02*
D03*
X120669D02*
D03*
Y181102D02*
D03*
X106102D02*
D03*
X37795Y204724D02*
D03*
X52756D02*
D03*
Y181102D02*
D03*
X38189D02*
D03*
D56*
X128150Y204528D02*
D03*
X131890D02*
D03*
X135630D02*
D03*
Y193110D02*
D03*
X131890D02*
D03*
X128150D02*
D03*
D57*
X30798Y121581D02*
X37626Y114752D01*
Y113260D02*
Y114752D01*
Y113260D02*
X37894Y112992D01*
X64749Y77165D02*
X64862D01*
X58636Y71053D02*
X64749Y77165D01*
X77567Y194157D02*
X80020Y196609D01*
X96063Y181102D02*
Y185039D01*
X93001Y188102D02*
X96063Y185039D01*
X88842Y187197D02*
X89746Y188102D01*
X93001D01*
X131890Y204527D02*
Y204528D01*
X36602Y112992D02*
X37894D01*
X29406Y120189D02*
X36602Y112992D01*
X67618Y49902D02*
Y52196D01*
X72556Y57134D01*
X88484Y72933D02*
X96046D01*
X99318Y69661D02*
X99420D01*
X96046Y72933D02*
X99318Y69661D01*
X104312Y90256D02*
X109448D01*
X114732Y84973D01*
X116339Y102814D02*
Y103051D01*
X117070Y103782D01*
X131333Y101676D02*
X131435D01*
X129226Y103782D02*
X131333Y101676D01*
X117070Y103782D02*
X129226D01*
X28346Y126816D02*
X32190Y122973D01*
X46000Y150920D02*
X53069Y143852D01*
X43852Y150920D02*
X46000D01*
X39537Y155235D02*
X43852Y150920D01*
X120236Y4961D02*
Y7874D01*
X110236Y4724D02*
Y7874D01*
X105236Y4606D02*
Y7874D01*
X37161Y18347D02*
Y23469D01*
X36811Y23819D02*
X37161Y23469D01*
X32677Y13863D02*
X37161Y18347D01*
X32677Y9449D02*
Y13863D01*
Y9449D02*
X34646Y7480D01*
X46063D01*
X61811Y34252D02*
X78740D01*
X56390Y28831D02*
X61811Y34252D01*
X55709Y24409D02*
X56390Y25091D01*
Y28831D01*
X43307Y33366D02*
Y38386D01*
X46260Y41339D01*
D58*
X118996Y206398D02*
X120669Y204724D01*
X70025Y198915D02*
Y202362D01*
Y198915D02*
X76175Y192765D01*
X65026Y162665D02*
Y162814D01*
X68380Y159163D02*
Y159311D01*
X65026Y162665D02*
X68380Y159311D01*
X70509Y174803D02*
X70880D01*
X67323Y165748D02*
X69648Y168074D01*
X67323Y162992D02*
Y165748D01*
Y162992D02*
X69760Y160555D01*
X69772D01*
X69328Y168781D02*
X69648Y168461D01*
Y168074D02*
Y168461D01*
X76618Y159430D02*
X76772D01*
X72710Y163339D02*
X76618Y159430D01*
X55625Y113633D02*
X55971Y113287D01*
X43760Y126221D02*
X55625Y114356D01*
Y113633D02*
Y114356D01*
X79724Y185039D02*
X79823Y184941D01*
X64370Y90847D02*
X77540D01*
X57398Y97819D02*
X64370Y90847D01*
X51756Y97819D02*
X57398D01*
X49000Y95063D02*
X51756Y97819D01*
X39104Y96063D02*
X48586D01*
X51342Y98819D01*
X40888Y95063D02*
X49000D01*
X51342Y98819D02*
X59055D01*
X37757Y91932D02*
X40888Y95063D01*
X81711Y66535D02*
X81791Y66456D01*
Y65019D02*
Y66456D01*
Y65019D02*
X88285Y58526D01*
X139614Y98228D02*
X139641Y98255D01*
X139862Y98035D01*
X137666Y98228D02*
X139614D01*
X132827Y103068D02*
X137666Y98228D01*
X123345Y134861D02*
X131004Y142520D01*
X118908Y131324D02*
X122444Y134861D01*
X123345D01*
X123438Y133071D02*
X125984D01*
X107678Y147933D02*
X114370D01*
X104988Y145244D02*
X104988D01*
X107678Y147933D01*
X107772Y142460D02*
X110982Y145669D01*
X110556Y139676D02*
X113794Y142913D01*
X110236Y19626D02*
Y23779D01*
Y19626D02*
X111266Y18597D01*
X112564D01*
X115668Y15492D01*
X117480D01*
X117618Y15354D01*
X115369Y163976D02*
X115453D01*
X100812Y149419D02*
X115369Y163976D01*
X95553Y131988D02*
X99213D01*
X83563Y143978D02*
Y157225D01*
Y143978D02*
X95553Y131988D01*
X83563Y157225D02*
X88285Y161947D01*
X46063Y127953D02*
Y130710D01*
X49194Y87894D02*
X49213Y87912D01*
X47573Y155333D02*
X48112D01*
X50396Y160236D02*
X50711Y159921D01*
Y154561D02*
Y159921D01*
X53567Y169169D02*
Y169488D01*
X53074Y169980D02*
X53567Y169488D01*
X53726Y165465D02*
Y169328D01*
X72556Y163339D02*
X72710D01*
X116929Y141612D02*
Y142126D01*
X114732Y135500D02*
X117323Y138091D01*
Y141218D01*
X116929Y141612D02*
X117323Y141218D01*
X120079Y138063D02*
Y145177D01*
X116124Y134108D02*
X120079Y138063D01*
X121573Y128540D02*
X121692D01*
X117639Y124606D02*
X121573Y128540D01*
X117520Y124606D02*
X117639D01*
X103150Y157402D02*
Y157659D01*
X86221Y156693D02*
Y156896D01*
X84184Y160630D02*
X86893Y163339D01*
X83073Y160630D02*
X84184D01*
X80889Y162814D02*
X83073Y160630D01*
X86893Y163339D02*
X86893D01*
X55512Y138171D02*
Y140157D01*
X57917Y139791D02*
Y139807D01*
X61417Y143307D01*
X64173Y93701D02*
X64548D01*
X28445Y147539D02*
X28922D01*
X104349Y129921D02*
Y130335D01*
X47966Y132613D02*
Y135035D01*
X46063Y130710D02*
X47966Y132613D01*
X49213Y131102D02*
Y133465D01*
X40857Y122656D02*
X40945D01*
X36365Y127148D02*
X40857Y122656D01*
X28445Y147441D02*
Y147539D01*
X28922D02*
X29199Y147817D01*
X22835Y99111D02*
Y99196D01*
X26622Y102983D01*
Y103068D01*
X133553Y115347D02*
X134219Y116013D01*
X133553Y114773D02*
Y115347D01*
Y114773D02*
X139469Y108858D01*
X108692Y51151D02*
X109055Y50787D01*
X108692Y51151D02*
Y52038D01*
X100787Y42028D02*
X105236Y37579D01*
Y23779D02*
Y37579D01*
X130043Y100284D02*
X130086D01*
X132929Y97441D01*
X132972D01*
X100236Y37343D02*
X100295Y37402D01*
X100236Y23779D02*
Y37343D01*
X90854Y61309D02*
X91069D01*
X87271Y64892D02*
X90854Y61309D01*
X85993Y64892D02*
X87271D01*
X85630Y65256D02*
X85993Y64892D01*
X62992Y55118D02*
Y62008D01*
X92340Y62701D02*
X92461D01*
X89490Y65551D02*
X92340Y62701D01*
X89370Y65551D02*
X89490D01*
X29035Y44291D02*
X38287D01*
X31496Y42323D02*
X38287D01*
X120669Y181102D02*
Y181890D01*
X122388Y183608D01*
X129868D01*
X131496Y185236D01*
X65825Y148916D02*
X66239D01*
X65804Y148937D02*
X65825Y148916D01*
X43703Y142103D02*
Y142128D01*
Y142103D02*
X47501Y138305D01*
X92208Y138091D02*
X92421D01*
X94488Y140157D01*
Y151209D02*
X96636Y153358D01*
X94488Y140157D02*
Y151209D01*
X96636Y153358D02*
Y153595D01*
X92520Y147244D02*
Y152262D01*
X35569Y146949D02*
X36319D01*
X32818Y144197D02*
X35569Y146949D01*
X47638Y87894D02*
X49194D01*
X44717Y84973D02*
X47638Y87894D01*
X56447Y63295D02*
X61420Y68269D01*
X44972Y63295D02*
X56447D01*
X44291Y63976D02*
X44972Y63295D01*
X57776Y40354D02*
X58858Y41437D01*
X54232Y40354D02*
X57776D01*
X54232Y38386D02*
X57480D01*
X33582Y96108D02*
X41410Y103937D01*
X49213D01*
X66929Y142618D02*
X69576Y145265D01*
X65596Y156379D02*
X69576Y152399D01*
Y145265D02*
Y152399D01*
X44162Y155542D02*
X45763Y157143D01*
X41988Y155542D02*
X44162D01*
X40345Y157185D02*
X41988Y155542D01*
X28937Y157185D02*
X40345D01*
X65293Y148425D02*
X65804Y148937D01*
X95245Y154987D02*
Y154987D01*
X92520Y152262D02*
X95245Y154987D01*
X53726Y165465D02*
X64204Y154987D01*
X47343Y174682D02*
X47562Y174902D01*
X47343Y169065D02*
Y174682D01*
Y169065D02*
X62812Y153595D01*
X54266Y159384D02*
X54318D01*
X61420Y152281D01*
X86221Y156896D02*
X89677Y160352D01*
X43760Y126221D02*
Y128106D01*
X40541Y131324D02*
X43760Y128106D01*
X59055Y98819D02*
X64173Y93701D01*
X36365Y93324D02*
X36365D01*
X39104Y96063D01*
X39076Y98819D02*
X41357D01*
X34973Y94716D02*
X39076Y98819D01*
X52756Y190551D02*
Y204724D01*
Y190551D02*
X54724Y188583D01*
X98028Y152281D02*
X103150Y157402D01*
X23228Y120798D02*
X26622Y117405D01*
X85039Y197314D02*
Y198031D01*
X81882Y194157D02*
X85039Y197314D01*
X107087Y194721D02*
Y194882D01*
Y194721D02*
X109875Y191933D01*
X96903Y159398D02*
X96955Y159449D01*
X96887Y159398D02*
X96903D01*
X93869Y156379D02*
X96887Y159398D01*
X93853Y156379D02*
X93869D01*
X56669Y142798D02*
Y142798D01*
X54461Y145006D02*
Y145244D01*
Y145006D02*
X56669Y142798D01*
X57203Y141849D02*
Y142263D01*
X55512Y140157D02*
X57203Y141849D01*
X56669Y142798D02*
X57203Y142263D01*
X51814Y133089D02*
Y133312D01*
X53150Y134648D01*
X37795Y136220D02*
X38432Y136856D01*
X40577D02*
X43325Y134108D01*
X38432Y136856D02*
X40577D01*
X73228Y169291D02*
Y174367D01*
X76175Y177314D01*
X65381Y189111D02*
X65640Y189370D01*
X68434D01*
X70607Y187197D01*
X63779Y183465D02*
X67716Y179528D01*
X70037D01*
X71999Y181490D01*
X70025Y183465D02*
X70607Y182882D01*
X77567Y175582D02*
Y175922D01*
Y175582D02*
X77953Y175197D01*
Y175591D01*
X77934Y175609D02*
X77953Y175591D01*
X91746Y174409D02*
X105905D01*
X86893Y57134D02*
X86963D01*
X97276Y46820D01*
X98455D01*
X98819Y46457D01*
X86058Y180098D02*
X91746Y174409D01*
X92562Y176378D02*
X103543D01*
X87450Y181490D02*
X92562Y176378D01*
X93377Y178347D02*
X101181D01*
X88842Y182882D02*
X93377Y178347D01*
X63386Y197202D02*
X71999Y188589D01*
X63386Y197202D02*
Y201181D01*
X130208Y188109D02*
X131390Y189291D01*
X113285Y187109D02*
X130622D01*
X132390Y188877D01*
X113699Y188109D02*
X130208D01*
X125041Y88583D02*
X128347D01*
X121692Y91932D02*
X125041Y88583D01*
X35827Y133255D02*
X39149Y129932D01*
X35827Y133255D02*
Y133858D01*
X26772Y142107D02*
X26940D01*
X30840Y146007D01*
X31008D01*
X24409Y138189D02*
X28682D01*
X35780Y131091D01*
X35855Y130680D02*
X36191D01*
X35780Y130755D02*
X35855Y130680D01*
X35780Y130755D02*
Y131091D01*
X36191Y130106D02*
X37757Y128540D01*
X36191Y130106D02*
Y130680D01*
X84226Y176310D02*
X84252Y176336D01*
X84226Y168924D02*
Y176310D01*
Y168924D02*
X84252Y168898D01*
X83274Y177314D02*
X84252Y176336D01*
X70880Y174803D02*
X74783Y178706D01*
X50787Y170491D02*
Y171260D01*
X87795Y170491D02*
Y175577D01*
X52756Y186614D02*
X54724Y188583D01*
X52756Y181102D02*
Y186614D01*
X50787Y171260D02*
X52756Y173228D01*
Y181102D01*
X84666Y178706D02*
X87795Y175577D01*
X34628Y141750D02*
X35432Y140946D01*
X34628Y141750D02*
Y142388D01*
X66929Y199227D02*
Y203150D01*
Y199227D02*
X74783Y191373D01*
X92295Y201101D02*
Y204556D01*
X92126Y204724D02*
X92295Y204556D01*
X35433Y13404D02*
X41339Y19310D01*
Y24409D01*
X55512Y13386D02*
X56693D01*
X51181Y17717D02*
X55512Y13386D01*
X51181Y17717D02*
Y19291D01*
X52809Y20919D01*
Y24069D02*
X53150Y24409D01*
X52809Y20919D02*
Y24069D01*
X47244Y10236D02*
X48455Y11447D01*
X44488Y10236D02*
X47244D01*
X48455Y11447D02*
Y13022D01*
X48819Y13386D01*
X47244Y14961D02*
X48819Y13386D01*
X43307Y11417D02*
X44488Y10236D01*
X43307Y11417D02*
Y24409D01*
X49213Y16535D02*
X52362Y13386D01*
X49213Y16535D02*
Y24409D01*
X47244Y14961D02*
Y24409D01*
X45276Y13386D02*
Y13404D01*
Y24409D01*
Y33366D01*
X47244Y24409D02*
Y33366D01*
X94082Y55512D02*
X94095D01*
X89677Y59917D02*
X94082Y55512D01*
X41339Y138927D02*
Y138976D01*
Y138927D02*
X44717Y135549D01*
X130609Y131890D02*
X137402D01*
X124475Y125756D02*
X130609Y131890D01*
X133071Y123216D02*
Y128740D01*
X130043Y120189D02*
X133071Y123216D01*
X113974Y120472D02*
X121975D01*
X125867Y124364D01*
X111221Y132876D02*
X114173Y129923D01*
Y124016D02*
Y129923D01*
X114961Y93095D02*
Y93307D01*
Y93095D02*
X118908Y89148D01*
X131890Y192126D02*
Y193110D01*
X38189Y181102D02*
Y182677D01*
X37795Y201575D02*
Y204724D01*
X120299Y90540D02*
X120391D01*
X124318Y86614D01*
X124409D01*
X125591Y118504D02*
Y118512D01*
X128651Y121573D02*
Y121581D01*
X125591Y118512D02*
X128651Y121573D01*
X32996Y127734D02*
X34973Y125756D01*
X32996Y127734D02*
Y130784D01*
X32677Y131102D02*
X32996Y130784D01*
X128347Y115708D02*
X131435Y118797D01*
X128347Y111811D02*
Y115708D01*
Y111811D02*
X131102Y109055D01*
X117516Y87756D02*
X122835Y82437D01*
Y77559D02*
Y82437D01*
X51677Y78013D02*
Y78013D01*
X54300Y80637D01*
X53937Y83071D02*
X54300Y82707D01*
Y80637D02*
Y82707D01*
X57087Y77770D02*
Y94764D01*
X55905Y79458D02*
Y85825D01*
X58880Y84470D02*
X59055Y84646D01*
X54461Y75229D02*
X54545D01*
X57087Y77770D01*
X53069Y76621D02*
X55905Y79458D01*
X58880Y77103D02*
Y84470D01*
X54724Y87006D02*
Y87402D01*
Y87006D02*
X55905Y85825D01*
X99970Y80247D02*
Y81133D01*
X101835Y78382D02*
X101835D01*
X99970Y80247D02*
X101835Y78382D01*
X101835D02*
X104988Y75229D01*
X99606Y81496D02*
X99970Y81133D01*
X102756Y80280D02*
X106380Y76656D01*
X102756Y80280D02*
Y80315D01*
X125983Y114980D02*
X126378Y114585D01*
X125983Y114980D02*
Y115354D01*
X39056Y85134D02*
X39073D01*
X98028Y152203D02*
Y152281D01*
X104349Y130335D02*
X104527Y130514D01*
X96850Y142913D02*
X97167D01*
X102204Y72445D02*
X102281D01*
X25230Y115775D02*
X31890Y109115D01*
X103543Y131498D02*
Y141015D01*
X48428Y72952D02*
Y77548D01*
X47036Y78940D02*
X48893Y80797D01*
X113340Y83349D02*
Y83580D01*
X40004Y83184D02*
X43184Y86364D01*
X53150Y134648D02*
Y138203D01*
X103543Y141015D02*
X106380Y143852D01*
X68380Y61309D02*
X73228Y66158D01*
X45523Y80211D02*
X47501Y82189D01*
X45294Y68385D02*
X46780Y66899D01*
X72441Y155907D02*
X73622Y157088D01*
X95245Y65485D02*
X108692Y52038D01*
X47501Y138284D02*
Y138305D01*
X48893Y139676D02*
Y139676D01*
X61417Y143307D02*
Y146639D01*
X50285Y141068D02*
X53150Y138203D01*
X72441Y155512D02*
Y155907D01*
X73228Y66158D02*
Y67716D01*
X45294Y70885D02*
X47244Y72835D01*
X47036Y75812D02*
Y78940D01*
X110556Y80797D02*
X114599Y76753D01*
X116929Y79528D02*
Y79759D01*
X48062Y66899D02*
X48425Y66535D01*
X46780Y66899D02*
X48062D01*
X51545Y149424D02*
X52987D01*
X71164Y161709D02*
X73622Y159251D01*
X58060Y76283D02*
X58880Y77103D01*
X85549Y55742D02*
X90897Y50394D01*
X102281Y72445D02*
X107010Y67716D01*
X111221Y132876D02*
Y134535D01*
X37008Y83086D02*
X39056Y85134D01*
X31890Y108661D02*
Y109115D01*
X62570Y148425D02*
X65293D01*
X73948Y164731D02*
X73948D01*
X45276Y74410D02*
X45523Y74657D01*
X99213Y86790D02*
X107772Y78231D01*
X106299Y131890D02*
X108267Y129922D01*
X60028Y150811D02*
X60184D01*
X55775Y146635D02*
X55853D01*
X103543Y131498D02*
X104527Y130514D01*
X103596Y73837D02*
X110110Y67323D01*
X123641Y119354D02*
X127259Y122973D01*
X47244Y72835D02*
Y75604D01*
X90897Y50394D02*
X90945D01*
X99213Y86790D02*
Y87008D01*
X98028Y68269D02*
X98147D01*
X51575Y135827D02*
Y136994D01*
X58636Y149419D02*
X61417Y146639D01*
X37008Y82677D02*
Y83086D01*
X58636Y149419D02*
Y149419D01*
X45294Y68385D02*
Y70885D01*
X113340Y83349D02*
X116929Y79759D01*
X85501Y55742D02*
X85549D01*
X48893Y139676D02*
X51575Y136994D01*
X73948Y164731D02*
X77578Y168360D01*
X97167Y142913D02*
X102204Y147950D01*
X63100Y62116D02*
X63619D01*
X66988Y62701D02*
X70866Y66579D01*
X48428Y77548D02*
X50285Y79405D01*
X57244Y72445D02*
X60660Y75861D01*
X108267Y129922D02*
X108269D01*
X44717Y135500D02*
Y135549D01*
X41696Y87756D02*
X41933D01*
X51181Y149787D02*
X51545Y149424D01*
X71164Y161709D02*
Y161947D01*
X109055Y132283D02*
X111417Y129921D01*
X120299Y129932D02*
X123438Y133071D01*
X50711Y154561D02*
X57244Y148028D01*
X102637Y63779D02*
X102756D01*
X43184Y86364D02*
X43325D01*
X102204Y147950D02*
Y148028D01*
X45523Y74657D02*
Y80211D01*
X107010Y67666D02*
Y67716D01*
X39863Y83184D02*
X40004D01*
X46109Y136892D02*
X47966Y135035D01*
X61420Y152203D02*
Y152281D01*
X59055Y54134D02*
Y60336D01*
X71164Y58526D02*
X75590Y62952D01*
X109055Y132283D02*
Y135391D01*
X114599Y75164D02*
X114961Y74803D01*
X109164Y79405D02*
Y79609D01*
X105119Y83653D02*
X109164Y79609D01*
X96636Y66877D02*
X111024Y52490D01*
X106299Y131890D02*
Y138203D01*
X60184Y150811D02*
X62570Y148425D01*
X79384Y168360D02*
X79528Y168504D01*
X39073Y85134D02*
X41696Y87756D01*
X62992Y62008D02*
X63100Y62116D01*
X106299Y138203D02*
X109164Y141068D01*
X49213Y133465D02*
X51575Y135827D01*
X89677Y160352D02*
Y160555D01*
X56102Y57087D02*
Y60167D01*
X58060Y76282D02*
Y76283D01*
X111024Y40945D02*
Y52490D01*
X123641Y117696D02*
X125983Y115354D01*
X52987Y149424D02*
X55775Y146635D01*
X59055Y60336D02*
X64204Y65485D01*
X25230Y115775D02*
Y116013D01*
X63619Y62116D02*
X65596Y64093D01*
X60660Y75861D02*
Y76408D01*
X107010Y67666D02*
X107068Y67607D01*
X114599Y75164D02*
Y76753D01*
X73622Y157088D02*
Y159251D01*
X49213Y71653D02*
Y72168D01*
X55853Y73837D02*
Y74075D01*
X70866Y66579D02*
Y69882D01*
X55853Y74075D02*
X58060Y76282D01*
X109055Y135391D02*
X111948Y138284D01*
X77578Y168360D02*
X79384D01*
X60660Y76408D02*
X61024Y76772D01*
X106380Y76621D02*
Y76656D01*
X56102Y60167D02*
X62812Y66877D01*
X48428Y72952D02*
X49213Y72168D01*
X107772Y78013D02*
Y78231D01*
X75590Y62952D02*
Y65748D01*
X98147Y68269D02*
X102637Y63779D01*
X123641Y117696D02*
Y119354D01*
X105119Y83653D02*
Y83859D01*
X47036Y75812D02*
X47244Y75604D01*
X111221Y134535D02*
X113340Y136654D01*
X110110Y67323D02*
X112992D01*
X113340Y136654D02*
Y136892D01*
X113285Y183959D02*
X113386Y183858D01*
X113285Y183959D02*
Y187109D01*
X98032Y200101D02*
X133565D01*
X92709D02*
X98032D01*
Y196850D02*
Y200101D01*
X43954Y158952D02*
X45612Y160610D01*
Y179470D01*
X45669Y179528D01*
X138031Y209449D02*
X142717Y204764D01*
X129134Y209449D02*
X138031D01*
X128150Y208465D02*
X129134Y209449D01*
X128150Y204528D02*
Y208465D01*
X135630Y203445D02*
Y204528D01*
Y203445D02*
X141682Y197392D01*
Y195798D02*
Y197392D01*
Y195798D02*
X142717Y194764D01*
X134600Y203498D02*
X135630Y204528D01*
X134600Y201136D02*
Y203498D01*
X133565Y200101D02*
X134600Y201136D01*
X135630Y192028D02*
Y193110D01*
X133600Y189998D02*
X135630Y192028D01*
X132390Y189705D02*
X132683Y189998D01*
X133600D01*
X89109Y190933D02*
X109461D01*
X88522Y190346D02*
X89109Y190933D01*
X132390Y188877D02*
Y189705D01*
X88522Y189662D02*
Y190346D01*
X87450Y188589D02*
X88522Y189662D01*
X109461Y190933D02*
X113285Y187109D01*
X130179Y189998D02*
X131097D01*
X128150Y192028D02*
Y193110D01*
X131097Y189998D02*
X131390Y189705D01*
Y189291D02*
Y189705D01*
X128150Y192028D02*
X130179Y189998D01*
X88694Y191933D02*
X109875D01*
X87815Y191053D02*
X88694Y191933D01*
X87130Y191053D02*
X87815D01*
X109875Y191933D02*
X113699Y188109D01*
X86058Y189981D02*
X87130Y191053D01*
X152424Y199264D02*
X152717Y198971D01*
X152424Y200264D02*
X152717Y200557D01*
X148199Y195483D02*
X151980Y199264D01*
X152424D01*
X139956Y189157D02*
X144509D01*
X152717Y200557D02*
Y204764D01*
X151566Y200264D02*
X152424D01*
X147199Y195897D02*
X151566Y200264D01*
X144095Y190157D02*
X147199Y193262D01*
X148199Y192848D02*
Y195483D01*
X144509Y189157D02*
X148199Y192848D01*
X147199Y193262D02*
Y195897D01*
X152717Y194764D02*
Y198971D01*
X138795Y191732D02*
X140370Y190157D01*
X144095D01*
X137795Y191318D02*
X139956Y189157D01*
X137635Y197244D02*
X138795Y196083D01*
Y191732D02*
Y196083D01*
X137795Y191318D02*
Y195669D01*
X135407Y197244D02*
X137635D01*
X134993Y196244D02*
X137221D01*
X137795Y195669D01*
X128150Y194193D02*
X130179Y196222D01*
X135630Y193110D02*
Y194193D01*
X133600Y196222D02*
X135630Y194193D01*
X132683Y196222D02*
X133600D01*
X132390Y196930D02*
X132683Y197222D01*
X131390Y197344D02*
X132268Y198222D01*
X131390Y196515D02*
Y197344D01*
X132390Y196515D02*
X132683Y196222D01*
Y197222D02*
X134015D01*
X134993Y196244D01*
X134429Y198222D02*
X135407Y197244D01*
X130179Y196222D02*
X131097D01*
X128150Y193110D02*
Y194193D01*
X132390Y196515D02*
Y196930D01*
X132268Y198222D02*
X134429D01*
X131097Y196222D02*
X131390Y196515D01*
X127539Y203917D02*
X128150Y204528D01*
X127539Y201394D02*
Y203917D01*
X127246Y201101D02*
X127539Y201394D01*
X92295Y201101D02*
X127246D01*
X84347Y193837D02*
X85031D01*
X92295Y201101D01*
X84666Y191373D02*
X85738Y192446D01*
X83274Y192765D02*
X84347Y193837D01*
X85738Y192446D02*
Y193130D01*
X92709Y200101D01*
D59*
X60630Y211614D02*
D03*
X33858D02*
D03*
X126575D02*
D03*
X99803D02*
D03*
D60*
X152717Y14764D02*
D03*
Y24764D02*
D03*
Y34764D02*
D03*
Y44764D02*
D03*
Y54764D02*
D03*
Y64764D02*
D03*
Y74764D02*
D03*
Y84764D02*
D03*
Y94764D02*
D03*
Y104764D02*
D03*
Y114764D02*
D03*
Y124764D02*
D03*
Y134764D02*
D03*
Y144764D02*
D03*
Y154764D02*
D03*
Y164764D02*
D03*
Y174764D02*
D03*
Y184764D02*
D03*
Y194764D02*
D03*
Y204764D02*
D03*
X142717Y14764D02*
D03*
Y24764D02*
D03*
Y34764D02*
D03*
Y44764D02*
D03*
Y54764D02*
D03*
Y64764D02*
D03*
Y74764D02*
D03*
Y84764D02*
D03*
Y94764D02*
D03*
Y104764D02*
D03*
Y114764D02*
D03*
Y124764D02*
D03*
Y134764D02*
D03*
Y144764D02*
D03*
Y154764D02*
D03*
Y164764D02*
D03*
Y174764D02*
D03*
Y184764D02*
D03*
Y194764D02*
D03*
X16890Y14764D02*
D03*
Y24764D02*
D03*
Y34764D02*
D03*
Y44764D02*
D03*
Y54764D02*
D03*
Y64764D02*
D03*
Y74764D02*
D03*
Y84764D02*
D03*
Y94764D02*
D03*
Y104764D02*
D03*
Y114764D02*
D03*
Y124764D02*
D03*
Y134764D02*
D03*
Y144764D02*
D03*
Y154764D02*
D03*
Y164764D02*
D03*
Y174764D02*
D03*
Y184764D02*
D03*
Y194764D02*
D03*
Y204764D02*
D03*
X6890Y14764D02*
D03*
Y24764D02*
D03*
Y34764D02*
D03*
Y44764D02*
D03*
Y54764D02*
D03*
Y64764D02*
D03*
Y74764D02*
D03*
Y84764D02*
D03*
Y94764D02*
D03*
Y104764D02*
D03*
Y114764D02*
D03*
Y124764D02*
D03*
Y134764D02*
D03*
Y144764D02*
D03*
Y154764D02*
D03*
Y164764D02*
D03*
Y174764D02*
D03*
Y184764D02*
D03*
Y194764D02*
D03*
X79823Y184941D02*
D03*
D61*
X142717Y204764D02*
D03*
X6890D02*
D03*
D62*
X29252Y21260D02*
D03*
X63268D02*
D03*
D63*
X29252Y4921D02*
D03*
X63268D02*
D03*
D64*
X64862Y77165D02*
D03*
X90945Y184997D02*
D03*
X80020Y196609D02*
D03*
X96063Y181102D02*
D03*
X118996Y206398D02*
D03*
X131890Y204527D02*
D03*
X86319Y215354D02*
D03*
X91669Y141669D02*
D03*
X80413Y215453D02*
D03*
X68996Y215354D02*
D03*
X70025Y202362D02*
D03*
X74924Y198031D02*
D03*
Y201969D02*
D03*
X65026Y162814D02*
D03*
X61319Y166831D02*
D03*
X70509Y174803D02*
D03*
X66599Y118145D02*
D03*
X72460Y124606D02*
D03*
X77540Y116419D02*
D03*
X74311Y215354D02*
D03*
X69328Y168781D02*
D03*
X76772Y159430D02*
D03*
X73641Y103248D02*
D03*
X58465Y103642D02*
D03*
X55971Y113287D02*
D03*
X55216Y104921D02*
D03*
X88308Y109662D02*
D03*
X46161Y39764D02*
D03*
X43799D02*
D03*
X47343Y37697D02*
D03*
X44980D02*
D03*
X42618D02*
D03*
X79724Y188878D02*
D03*
X79823Y181004D02*
D03*
X83760Y185039D02*
D03*
X77540Y90847D02*
D03*
X81693Y96063D02*
D03*
X81711Y66535D02*
D03*
X37894Y112992D02*
D03*
X67618Y49902D02*
D03*
X88484Y72933D02*
D03*
X104312Y90256D02*
D03*
X104528Y94193D02*
D03*
X116339Y102814D02*
D03*
X139641Y98255D02*
D03*
X124391Y110614D02*
D03*
X131004Y142520D02*
D03*
X122047Y136811D02*
D03*
X125984Y133071D02*
D03*
X114370Y147933D02*
D03*
X110982Y145669D02*
D03*
X113794Y142913D02*
D03*
X108268Y151181D02*
D03*
X145885Y48425D02*
D03*
X117618Y15354D02*
D03*
X147343Y167717D02*
D03*
X115453Y163976D02*
D03*
X99213Y131988D02*
D03*
X51575Y90158D02*
D03*
X46063Y127953D02*
D03*
X49194Y87894D02*
D03*
X44211Y148718D02*
D03*
X48112Y155333D02*
D03*
X50396Y160236D02*
D03*
X53567Y169169D02*
D03*
X60417Y174885D02*
D03*
X120079Y145177D02*
D03*
X117520Y124606D02*
D03*
X120669Y157382D02*
D03*
X135433Y157480D02*
D03*
X103150Y157659D02*
D03*
X80496Y155530D02*
D03*
X86221Y156693D02*
D03*
X80889Y162814D02*
D03*
X58481Y181677D02*
D03*
X55512Y138171D02*
D03*
X57917Y139791D02*
D03*
X64548Y93701D02*
D03*
X60417Y89583D02*
D03*
X125983Y130021D02*
D03*
X104349Y129921D02*
D03*
X78740Y131379D02*
D03*
X49213Y131102D02*
D03*
X40945Y122656D02*
D03*
X28346Y126816D02*
D03*
X24213Y127067D02*
D03*
X33464Y152361D02*
D03*
X22459Y174409D02*
D03*
X24545Y177559D02*
D03*
X28445Y147441D02*
D03*
X22835Y99111D02*
D03*
X139469Y108858D02*
D03*
X109055Y50787D02*
D03*
X100787Y42028D02*
D03*
X133366Y37008D02*
D03*
X132972Y97441D02*
D03*
X137580Y89370D02*
D03*
X100295Y37402D02*
D03*
X59451Y49014D02*
D03*
X85630Y65256D02*
D03*
X62992Y55118D02*
D03*
X89370Y65551D02*
D03*
X66437Y74114D02*
D03*
X29035Y44291D02*
D03*
X31496Y42323D02*
D03*
X121457Y27756D02*
D03*
X102756Y30709D02*
D03*
X83563Y21457D02*
D03*
X131496Y185236D02*
D03*
X78626Y123803D02*
D03*
X86792Y135039D02*
D03*
X51181Y149787D02*
D03*
X83465Y140157D02*
D03*
X66239Y148916D02*
D03*
X43703Y142128D02*
D03*
X66929Y142618D02*
D03*
X92208Y138091D02*
D03*
X92520Y147244D02*
D03*
X36319Y146949D02*
D03*
X54437Y65245D02*
D03*
X92208Y79118D02*
D03*
X90650Y33661D02*
D03*
X58858Y41437D02*
D03*
X75197Y37106D02*
D03*
X62205Y37008D02*
D03*
X57480Y38386D02*
D03*
X37008Y103543D02*
D03*
X39537Y155235D02*
D03*
X28937Y157185D02*
D03*
Y151870D02*
D03*
X63779Y183465D02*
D03*
X47562Y174902D02*
D03*
X54266Y159384D02*
D03*
X83760Y113287D02*
D03*
X59871Y126800D02*
D03*
X56711Y129959D02*
D03*
X62598Y118504D02*
D03*
X69504Y88370D02*
D03*
X73228Y75590D02*
D03*
X64567Y85433D02*
D03*
X77953Y85827D02*
D03*
X49213Y92814D02*
D03*
X41357Y98819D02*
D03*
X49213Y103937D02*
D03*
X41732Y197638D02*
D03*
X39764Y162598D02*
D03*
X103937Y164173D02*
D03*
X103543Y119291D02*
D03*
X23228Y120798D02*
D03*
X85039Y198031D02*
D03*
X114961Y190551D02*
D03*
X107087Y194882D02*
D03*
X101181Y194095D02*
D03*
X96903Y159398D02*
D03*
X51814Y133089D02*
D03*
X37795Y136220D02*
D03*
X56693Y133464D02*
D03*
X73228Y169291D02*
D03*
X65381Y189111D02*
D03*
X70025Y183465D02*
D03*
X77953Y175197D02*
D03*
X105905Y174409D02*
D03*
X98819Y46457D02*
D03*
X103543Y176378D02*
D03*
X101181Y178347D02*
D03*
X63386Y201181D02*
D03*
X98032Y196850D02*
D03*
X124803Y197244D02*
D03*
X128347Y88583D02*
D03*
X80709Y108661D02*
D03*
X81102Y175591D02*
D03*
X35827Y133858D02*
D03*
X22441Y134252D02*
D03*
X26772Y142107D02*
D03*
X24409Y138189D02*
D03*
X84252Y168898D02*
D03*
X95410Y170491D02*
D03*
X87795D02*
D03*
X50787D02*
D03*
X54724Y188583D02*
D03*
X29528Y132283D02*
D03*
X35432Y140946D02*
D03*
X108268Y163761D02*
D03*
X66929Y203150D02*
D03*
X92126Y204724D02*
D03*
X86221Y201969D02*
D03*
X94307Y38796D02*
D03*
X120236Y4961D02*
D03*
X110236Y4724D02*
D03*
X105236Y4606D02*
D03*
X35433Y13404D02*
D03*
X46063Y7480D02*
D03*
X78740Y34252D02*
D03*
X70866Y32052D02*
D03*
X58858Y24409D02*
D03*
X33661D02*
D03*
X36811Y23819D02*
D03*
X56693Y13386D02*
D03*
X53937Y18898D02*
D03*
X52362Y13386D02*
D03*
X48819D02*
D03*
X45276Y13404D02*
D03*
X100394Y116535D02*
D03*
X94095Y55512D02*
D03*
X41339Y138976D02*
D03*
X135433Y93307D02*
D03*
X137402Y131890D02*
D03*
X133071Y128740D02*
D03*
X113974Y120472D02*
D03*
X114173Y124016D02*
D03*
X114961Y93307D02*
D03*
X101181Y161811D02*
D03*
Y121260D02*
D03*
X131890Y192126D02*
D03*
X104331Y205906D02*
D03*
X38189Y182677D02*
D03*
X37795Y201575D02*
D03*
X37402Y209449D02*
D03*
X125984Y80315D02*
D03*
X124409Y86614D02*
D03*
X125591Y118504D02*
D03*
X125984Y149606D02*
D03*
X32677Y131102D02*
D03*
X131102Y109055D02*
D03*
Y138583D02*
D03*
X122835Y77559D02*
D03*
X124016Y145669D02*
D03*
X53937Y83071D02*
D03*
X59055Y84646D02*
D03*
X86614Y77559D02*
D03*
X102756Y80315D02*
D03*
X99606Y81496D02*
D03*
X126378Y114585D02*
D03*
X59449Y111024D02*
D03*
X45276Y74410D02*
D03*
X31890Y108661D02*
D03*
X48425Y66535D02*
D03*
X79528Y168504D02*
D03*
X57087Y94764D02*
D03*
X102756Y63779D02*
D03*
X70866Y69882D02*
D03*
X96850Y142913D02*
D03*
X49213Y71653D02*
D03*
X54724Y87402D02*
D03*
X99213Y87008D02*
D03*
X108269Y129922D02*
D03*
X56102Y57087D02*
D03*
X112992Y67323D02*
D03*
X73228Y67716D02*
D03*
X61024Y76772D02*
D03*
X114961Y74803D02*
D03*
X116929Y142126D02*
D03*
Y79528D02*
D03*
X72441Y155512D02*
D03*
X90945Y50394D02*
D03*
X111417Y129921D02*
D03*
X75590Y65748D02*
D03*
X111024Y40945D02*
D03*
X39863Y83184D02*
D03*
X107068Y67607D02*
D03*
X59055Y54134D02*
D03*
X105119Y83859D02*
D03*
X37008Y82677D02*
D03*
X44291Y63976D02*
D03*
X120866Y69685D02*
D03*
X109055Y59842D02*
D03*
X118898Y54724D02*
D03*
X113974Y100000D02*
D03*
X115354Y44882D02*
D03*
X109055Y34252D02*
D03*
X103543Y16535D02*
D03*
X107087Y15748D02*
D03*
X96850Y12205D02*
D03*
X112598Y15354D02*
D03*
X73641Y151575D02*
D03*
X102543Y168717D02*
D03*
X127953Y158268D02*
D03*
X102362Y106299D02*
D03*
X116929Y64173D02*
D03*
X113386Y183858D02*
D03*
X80315Y201969D02*
D03*
X86221Y209449D02*
D03*
X80315D02*
D03*
X74410D02*
D03*
X33857Y40158D02*
D03*
X47244Y69524D02*
D03*
X50000Y29528D02*
D03*
X31496Y30709D02*
D03*
X53937Y34430D02*
D03*
X37008Y50394D02*
D03*
X42126Y59842D02*
D03*
X79921Y49016D02*
D03*
X41339Y78740D02*
D03*
X28642Y87402D02*
D03*
X34252Y79921D02*
D03*
X53525Y102362D02*
D03*
X68898Y106693D02*
D03*
X70866Y115354D02*
D03*
X77953Y135039D02*
D03*
X45669Y179528D02*
D03*
X26772Y184646D02*
D03*
X73228Y15354D02*
D03*
M02*
