G04*
G04 #@! TF.GenerationSoftware,Altium Limited,Altium Designer,20.1.12 (249)*
G04*
G04 Layer_Color=16711935*
%FSLAX25Y25*%
%MOIN*%
G70*
G04*
G04 #@! TF.SameCoordinates,D38EF606-D903-4ADC-9098-C18FB5F004BE*
G04*
G04*
G04 #@! TF.FilePolarity,Negative*
G04*
G01*
G75*
%ADD32R,0.03359X0.05524*%
%ADD33C,0.04343*%
%ADD34C,0.06706*%
%ADD35R,0.06706X0.06706*%
%ADD36O,0.04737X0.09068*%
%ADD37O,0.04737X0.07887*%
%ADD38C,0.00800*%
G04:AMPARAMS|DCode=80|XSize=67.06mil|YSize=65.09mil|CornerRadius=0mil|HoleSize=0mil|Usage=FLASHONLY|Rotation=45.000|XOffset=0mil|YOffset=0mil|HoleType=Round|Shape=Rectangle|*
%AMROTATEDRECTD80*
4,1,4,-0.00070,-0.04672,-0.04672,-0.00070,0.00070,0.04672,0.04672,0.00070,-0.00070,-0.04672,0.0*
%
%ADD80ROTATEDRECTD80*%

%ADD81R,0.04540X0.04343*%
G04:AMPARAMS|DCode=82|XSize=45.4mil|YSize=43.43mil|CornerRadius=0mil|HoleSize=0mil|Usage=FLASHONLY|Rotation=135.000|XOffset=0mil|YOffset=0mil|HoleType=Round|Shape=Rectangle|*
%AMROTATEDRECTD82*
4,1,4,0.03141,-0.00070,0.00070,-0.03141,-0.03141,0.00070,-0.00070,0.03141,0.03141,-0.00070,0.0*
%
%ADD82ROTATEDRECTD82*%

%ADD83R,0.06706X0.06509*%
G04:AMPARAMS|DCode=84|XSize=67.06mil|YSize=65.09mil|CornerRadius=0mil|HoleSize=0mil|Usage=FLASHONLY|Rotation=135.000|XOffset=0mil|YOffset=0mil|HoleType=Round|Shape=Rectangle|*
%AMROTATEDRECTD84*
4,1,4,0.04672,-0.00070,0.00070,-0.04672,-0.04672,0.00070,-0.00070,0.04672,0.04672,-0.00070,0.0*
%
%ADD84ROTATEDRECTD84*%

%ADD85R,0.06666X0.05997*%
G04:AMPARAMS|DCode=86|XSize=45.4mil|YSize=43.43mil|CornerRadius=0mil|HoleSize=0mil|Usage=FLASHONLY|Rotation=225.000|XOffset=0mil|YOffset=0mil|HoleType=Round|Shape=Rectangle|*
%AMROTATEDRECTD86*
4,1,4,0.00070,0.03141,0.03141,0.00070,-0.00070,-0.03141,-0.03141,-0.00070,0.00070,0.03141,0.0*
%
%ADD86ROTATEDRECTD86*%

G04:AMPARAMS|DCode=87|XSize=33.59mil|YSize=51.31mil|CornerRadius=0mil|HoleSize=0mil|Usage=FLASHONLY|Rotation=45.000|XOffset=0mil|YOffset=0mil|HoleType=Round|Shape=Rectangle|*
%AMROTATEDRECTD87*
4,1,4,0.00626,-0.03002,-0.03002,0.00626,-0.00626,0.03002,0.03002,-0.00626,0.00626,-0.03002,0.0*
%
%ADD87ROTATEDRECTD87*%

%ADD88R,0.04343X0.04540*%
%ADD89R,0.06509X0.06706*%
G04:AMPARAMS|DCode=90|XSize=66.66mil|YSize=59.97mil|CornerRadius=0mil|HoleSize=0mil|Usage=FLASHONLY|Rotation=225.000|XOffset=0mil|YOffset=0mil|HoleType=Round|Shape=Rectangle|*
%AMROTATEDRECTD90*
4,1,4,0.00237,0.04477,0.04477,0.00237,-0.00237,-0.04477,-0.04477,-0.00237,0.00237,0.04477,0.0*
%
%ADD90ROTATEDRECTD90*%

G04:AMPARAMS|DCode=91|XSize=55.24mil|YSize=43.43mil|CornerRadius=0mil|HoleSize=0mil|Usage=FLASHONLY|Rotation=315.000|XOffset=0mil|YOffset=0mil|HoleType=Round|Shape=Rectangle|*
%AMROTATEDRECTD91*
4,1,4,-0.03489,0.00418,-0.00418,0.03489,0.03489,-0.00418,0.00418,-0.03489,-0.03489,0.00418,0.0*
%
%ADD91ROTATEDRECTD91*%

%ADD92R,0.08280X0.05918*%
%ADD93R,0.04737X0.07099*%
D32*
X42323Y9252D02*
D03*
X46063D02*
D03*
X49803D02*
D03*
X42323Y20669D02*
D03*
X46063D02*
D03*
X49803D02*
D03*
D33*
X60630Y211614D02*
D03*
X33858D02*
D03*
X126575D02*
D03*
X99803D02*
D03*
D34*
X152717Y14764D02*
D03*
Y24764D02*
D03*
Y34764D02*
D03*
Y44764D02*
D03*
Y54764D02*
D03*
Y64764D02*
D03*
Y74764D02*
D03*
Y84764D02*
D03*
Y94764D02*
D03*
Y104764D02*
D03*
Y114764D02*
D03*
Y124764D02*
D03*
Y134764D02*
D03*
Y144764D02*
D03*
Y154764D02*
D03*
Y164764D02*
D03*
Y174764D02*
D03*
Y184764D02*
D03*
Y194764D02*
D03*
Y204764D02*
D03*
X142717Y14764D02*
D03*
Y24764D02*
D03*
Y34764D02*
D03*
Y44764D02*
D03*
Y54764D02*
D03*
Y64764D02*
D03*
Y74764D02*
D03*
Y84764D02*
D03*
Y94764D02*
D03*
Y104764D02*
D03*
Y114764D02*
D03*
Y124764D02*
D03*
Y134764D02*
D03*
Y144764D02*
D03*
Y154764D02*
D03*
Y164764D02*
D03*
Y174764D02*
D03*
Y184764D02*
D03*
Y194764D02*
D03*
X16890Y14764D02*
D03*
Y24764D02*
D03*
Y34764D02*
D03*
Y44764D02*
D03*
Y54764D02*
D03*
Y64764D02*
D03*
Y74764D02*
D03*
Y84764D02*
D03*
Y94764D02*
D03*
Y104764D02*
D03*
Y114764D02*
D03*
Y124764D02*
D03*
Y134764D02*
D03*
Y144764D02*
D03*
Y154764D02*
D03*
Y164764D02*
D03*
Y174764D02*
D03*
Y184764D02*
D03*
Y194764D02*
D03*
Y204764D02*
D03*
X6890Y14764D02*
D03*
Y24764D02*
D03*
Y34764D02*
D03*
Y44764D02*
D03*
Y54764D02*
D03*
Y64764D02*
D03*
Y74764D02*
D03*
Y84764D02*
D03*
Y94764D02*
D03*
Y104764D02*
D03*
Y114764D02*
D03*
Y124764D02*
D03*
Y134764D02*
D03*
Y144764D02*
D03*
Y154764D02*
D03*
Y164764D02*
D03*
Y174764D02*
D03*
Y184764D02*
D03*
Y194764D02*
D03*
X79823Y184941D02*
D03*
D35*
X142717Y204764D02*
D03*
X6890D02*
D03*
D36*
X29252Y21260D02*
D03*
X63268D02*
D03*
D37*
X29252Y4921D02*
D03*
X63268D02*
D03*
D38*
X34882Y19291D02*
D03*
X57638D02*
D03*
D80*
X69866Y144701D02*
D03*
X75016Y139551D02*
D03*
X56086Y165173D02*
D03*
X61237Y160023D02*
D03*
X55299Y152575D02*
D03*
X60449Y147425D02*
D03*
X85646Y150575D02*
D03*
X80496Y155725D02*
D03*
X81086Y47851D02*
D03*
X86237Y42700D02*
D03*
X112582Y109859D02*
D03*
X117733Y104708D02*
D03*
X86992Y84268D02*
D03*
X92142Y79118D02*
D03*
X102740Y100016D02*
D03*
X107890Y94866D02*
D03*
X118488Y115764D02*
D03*
X123638Y110614D02*
D03*
X45276Y148622D02*
D03*
X40125Y153772D02*
D03*
X75181Y150213D02*
D03*
X80331Y145063D02*
D03*
X47244Y122047D02*
D03*
X52394Y116897D02*
D03*
X42323Y117126D02*
D03*
X47473Y111976D02*
D03*
X37402Y112205D02*
D03*
X42552Y107054D02*
D03*
D81*
X56693Y15059D02*
D03*
Y7776D02*
D03*
X35433D02*
D03*
Y15059D02*
D03*
X113386Y198130D02*
D03*
Y190847D02*
D03*
X91732Y212008D02*
D03*
Y204724D02*
D03*
X113386Y176378D02*
D03*
Y183661D02*
D03*
X98032Y189764D02*
D03*
Y197047D02*
D03*
X92913Y196949D02*
D03*
Y189665D02*
D03*
X107087Y187795D02*
D03*
Y195079D02*
D03*
X80315Y202165D02*
D03*
Y209449D02*
D03*
X74410Y202165D02*
D03*
Y209449D02*
D03*
X86221Y202165D02*
D03*
Y209449D02*
D03*
D82*
X90732Y33645D02*
D03*
X95882Y38796D02*
D03*
X82496Y28166D02*
D03*
X77346Y23016D02*
D03*
X73409Y26952D02*
D03*
X78559Y32103D02*
D03*
X102575Y168717D02*
D03*
X97425Y163567D02*
D03*
X93882Y167110D02*
D03*
X99032Y172260D02*
D03*
X70292Y173441D02*
D03*
X65141Y168291D02*
D03*
X108481Y162418D02*
D03*
X103330Y157267D02*
D03*
X80102Y123803D02*
D03*
X85252Y128953D02*
D03*
X76165Y127740D02*
D03*
X81315Y132890D02*
D03*
D83*
X56299Y32776D02*
D03*
Y25492D02*
D03*
X127953Y173130D02*
D03*
Y180413D02*
D03*
X120079Y173130D02*
D03*
Y180413D02*
D03*
X70079Y188091D02*
D03*
Y195374D02*
D03*
X28543Y87303D02*
D03*
Y80020D02*
D03*
D84*
X65141Y36795D02*
D03*
X70292Y41945D02*
D03*
X58481Y181709D02*
D03*
X53330Y176559D02*
D03*
X91126Y175378D02*
D03*
X96276Y180528D02*
D03*
X60417Y172622D02*
D03*
X65567Y177772D02*
D03*
X84039Y104511D02*
D03*
X89189Y109662D02*
D03*
X67536Y49819D02*
D03*
X62385Y44669D02*
D03*
X39977Y77378D02*
D03*
X34826Y72228D02*
D03*
X53756Y63599D02*
D03*
X48606Y58448D02*
D03*
X114173Y157480D02*
D03*
X109023Y152330D02*
D03*
X128559Y143323D02*
D03*
X123409Y138173D02*
D03*
X29905Y135220D02*
D03*
X35055Y140370D02*
D03*
D85*
X127953Y165630D02*
D03*
Y157992D02*
D03*
D86*
X78166Y79708D02*
D03*
X73015Y84859D02*
D03*
X74229Y75771D02*
D03*
X69078Y80922D02*
D03*
X52969Y97031D02*
D03*
X47819Y102181D02*
D03*
X65567Y84433D02*
D03*
X60417Y89583D02*
D03*
X69504Y88370D02*
D03*
X64354Y93520D02*
D03*
X49032Y93094D02*
D03*
X43882Y98244D02*
D03*
X32858Y107693D02*
D03*
X38008Y102543D02*
D03*
D87*
X88646Y141669D02*
D03*
X98251Y137354D02*
D03*
X92961Y132064D02*
D03*
X55969Y108992D02*
D03*
X65573Y104677D02*
D03*
X60284Y99387D02*
D03*
X66599Y119622D02*
D03*
X76203Y115307D02*
D03*
X70914Y110017D02*
D03*
D88*
X47343Y197638D02*
D03*
X40059D02*
D03*
X61910Y188583D02*
D03*
X54626D02*
D03*
D89*
X61910Y195276D02*
D03*
X54626D02*
D03*
D90*
X52418Y127700D02*
D03*
X57819Y122300D02*
D03*
D91*
X63976Y139704D02*
D03*
X58130Y133858D02*
D03*
X69823D02*
D03*
X63976Y128012D02*
D03*
D92*
X33465Y164764D02*
D03*
Y186417D02*
D03*
X46063D02*
D03*
Y164764D02*
D03*
D93*
X47244Y216339D02*
D03*
X37402D02*
D03*
X57087D02*
D03*
Y206890D02*
D03*
X47244D02*
D03*
X37402D02*
D03*
X113189Y216339D02*
D03*
X103347D02*
D03*
X123031D02*
D03*
Y206890D02*
D03*
X113189D02*
D03*
X103347D02*
D03*
M02*
