G04*
G04 #@! TF.GenerationSoftware,Altium Limited,Altium Designer,20.1.12 (249)*
G04*
G04 Layer_Color=65535*
%FSLAX25Y25*%
%MOIN*%
G70*
G04*
G04 #@! TF.SameCoordinates,D38EF606-D903-4ADC-9098-C18FB5F004BE*
G04*
G04*
G04 #@! TF.FilePolarity,Positive*
G04*
G01*
G75*
%ADD10C,0.02362*%
%ADD11C,0.00984*%
%ADD12C,0.00787*%
%ADD13C,0.01181*%
%ADD14C,0.00600*%
G36*
X46260Y-4921D02*
X43307Y-984D01*
X45276D01*
Y1969D01*
X47244D01*
Y-984D01*
X49213D01*
X46260Y-4921D01*
D02*
G37*
G36*
X97441Y2559D02*
X94291Y3740D01*
X94291Y1378D01*
X97441Y2559D01*
D02*
G37*
D10*
X80905Y158119D02*
X80461Y159043D01*
X79462Y159271D01*
X78660Y158632D01*
Y157607D01*
X79462Y156968D01*
X80461Y157196D01*
X80905Y158119D01*
X37618Y152688D02*
X37174Y153612D01*
X36174Y153840D01*
X35373Y153201D01*
Y152176D01*
X36174Y151537D01*
X37174Y151765D01*
X37618Y152688D01*
D11*
X76458Y166749D02*
X75720Y167175D01*
Y166323D01*
X76458Y166749D01*
X39469Y30906D02*
X38730Y31332D01*
Y30479D01*
X39469Y30906D01*
X77989Y197567D02*
X77251Y197993D01*
Y197141D01*
X77989Y197567D01*
X27603Y149905D02*
X26865Y150331D01*
Y149478D01*
X27603Y149905D01*
X125197Y193110D02*
X124459Y193536D01*
Y192684D01*
X125197Y193110D01*
X63976Y-5315D02*
Y26575D01*
X28543Y-5315D02*
Y26575D01*
Y-5315D02*
X63976D01*
X83858Y217913D02*
X88583D01*
X77953D02*
X82677D01*
X72047D02*
X76772D01*
D12*
X79724Y56786D02*
X133175Y110236D01*
X79724Y163687D02*
X133175Y110236D01*
X26274D02*
X79724Y56786D01*
X26274Y110236D02*
X79724Y163687D01*
X38386Y48524D02*
X38386Y49213D01*
X39075D01*
X53445D02*
X54134D01*
Y48524D02*
Y49213D01*
X38386Y33465D02*
X39075Y33465D01*
X38386Y34154D02*
X38386Y33465D01*
X54134D02*
Y34154D01*
X53445Y33465D02*
X54134Y33465D01*
X90373Y185527D02*
X90860Y185039D01*
X90373Y184552D02*
X90860Y185039D01*
X79724Y173904D02*
X80212Y174391D01*
X79237D02*
X79724Y173904D01*
X79237Y195688D02*
X79724Y196175D01*
X80212Y195688D01*
X68589Y185039D02*
X69076Y184552D01*
X68589Y185039D02*
X69076Y185527D01*
X39499Y144058D02*
X45902Y150461D01*
X37272Y159091D02*
X45902Y150461D01*
X30869Y152688D02*
X39499Y144058D01*
X30869Y152688D02*
X37272Y159091D01*
X85276Y26850D02*
X135276D01*
Y4803D02*
Y26850D01*
X85276Y4803D02*
X135276D01*
X85276D02*
Y26850D01*
X102953Y187795D02*
Y198425D01*
Y187795D02*
X108071Y182677D01*
X102953Y198425D02*
X107677Y203150D01*
X118701D01*
X123425Y198425D01*
Y187402D02*
Y198425D01*
X118701Y182677D02*
X123425Y187402D01*
X108071Y182677D02*
X118701D01*
X35039Y187795D02*
Y198425D01*
Y187795D02*
X40157Y182677D01*
X35039Y198425D02*
X39764Y203150D01*
X50787D01*
X55512Y198425D01*
Y187402D02*
Y198425D01*
X50787Y182677D02*
X55512Y187402D01*
X40157Y182677D02*
X50787D01*
X125787Y200591D02*
X137992D01*
X125787Y197047D02*
X137992D01*
Y200591D01*
X125787Y197047D02*
Y200591D01*
D13*
X14598Y8923D02*
X13286Y10235D01*
X10662D01*
X9350Y8923D01*
Y3675D01*
X10662Y2363D01*
X13286D01*
X14598Y3675D01*
X9154Y209844D02*
Y215091D01*
X11777Y217715D01*
X14401Y215091D01*
Y209844D01*
Y213779D01*
X9154D01*
X145472Y217715D02*
Y209844D01*
X149408D01*
X150720Y211156D01*
Y212468D01*
X149408Y213779D01*
X145472D01*
X149408D01*
X150720Y215091D01*
Y216403D01*
X149408Y217715D01*
X145472D01*
X145079Y10629D02*
Y2757D01*
X149014D01*
X150326Y4069D01*
Y9317D01*
X149014Y10629D01*
X145079D01*
D14*
X105915Y212229D02*
Y209030D01*
X107514D01*
X108048Y209564D01*
Y210097D01*
X107514Y210630D01*
X105915D01*
X107514D01*
X108048Y211163D01*
Y211696D01*
X107514Y212229D01*
X105915D01*
X110713D02*
X109647D01*
X109114Y211696D01*
Y209564D01*
X109647Y209030D01*
X110713D01*
X111247Y209564D01*
Y211696D01*
X110713Y212229D01*
X113912D02*
X112846D01*
X112313Y211696D01*
Y209564D01*
X112846Y209030D01*
X113912D01*
X114445Y209564D01*
Y211696D01*
X113912Y212229D01*
X115512D02*
X117645D01*
X116578D01*
Y209030D01*
X118711Y211696D02*
X119244Y212229D01*
X120310D01*
X120844Y211696D01*
Y209564D01*
X120310Y209030D01*
X119244D01*
X118711Y209564D01*
Y211696D01*
X97839Y182884D02*
X100504D01*
X101038Y183417D01*
Y184483D01*
X100504Y185016D01*
X97839D01*
X98372Y188215D02*
X97839Y187682D01*
Y186616D01*
X98372Y186082D01*
X98905D01*
X99438Y186616D01*
Y187682D01*
X99971Y188215D01*
X100504D01*
X101038Y187682D01*
Y186616D01*
X100504Y186082D01*
X101038Y189281D02*
X97839D01*
Y190881D01*
X98372Y191414D01*
X99438D01*
X99971Y190881D01*
Y189281D01*
Y190348D02*
X101038Y191414D01*
X101571Y192480D02*
Y194613D01*
X97839Y195679D02*
X101038D01*
Y197279D01*
X100504Y197812D01*
X99971D01*
X99438Y197279D01*
Y195679D01*
Y197279D01*
X98905Y197812D01*
X98372D01*
X97839Y197279D01*
Y195679D01*
Y198878D02*
Y201011D01*
Y199945D01*
X101038D01*
Y202077D02*
X97839D01*
X101038Y204210D01*
X97839D01*
X37017Y214936D02*
X38084D01*
X37551D01*
Y218135D01*
X37017Y217602D01*
X44482Y214936D02*
X42882Y216535D01*
X44482Y218135D01*
X46081Y216535D02*
X48214D01*
X49280Y214936D02*
X50880Y216535D01*
X49280Y218135D01*
X55145Y217602D02*
X55678Y218135D01*
X56744D01*
X57277Y217602D01*
Y215469D01*
X56744Y214936D01*
X55678D01*
X55145Y215469D01*
Y217602D01*
X38002Y209297D02*
Y212496D01*
X39601D01*
X40134Y211963D01*
Y210896D01*
X39601Y210363D01*
X38002D01*
X41201Y212496D02*
Y209297D01*
X42800D01*
X43333Y209830D01*
Y211963D01*
X42800Y212496D01*
X41201D01*
X44399Y209297D02*
Y212496D01*
X45999D01*
X46532Y211963D01*
Y210896D01*
X45999Y210363D01*
X44399D01*
X45466D02*
X46532Y209297D01*
X47598Y208764D02*
X49731D01*
X52397Y212496D02*
X51331D01*
X50797Y211963D01*
Y209830D01*
X51331Y209297D01*
X52397D01*
X52930Y209830D01*
Y211963D01*
X52397Y212496D01*
X53996Y209297D02*
Y212496D01*
X56129Y209297D01*
Y212496D01*
X102962Y214936D02*
X104028D01*
X103495D01*
Y218135D01*
X102962Y217602D01*
X110426Y214936D02*
X108827Y216535D01*
X110426Y218135D01*
X112026Y216535D02*
X114159D01*
X115225Y214936D02*
X116824Y216535D01*
X115225Y218135D01*
X121090Y217602D02*
X121623Y218135D01*
X122689D01*
X123222Y217602D01*
Y215469D01*
X122689Y214936D01*
X121623D01*
X121090Y215469D01*
Y217602D01*
X33292Y187608D02*
X30093D01*
X33292Y189741D01*
X30093D01*
X33292Y190807D02*
X30093D01*
Y192406D01*
X30627Y192939D01*
X31693D01*
X32226Y192406D01*
Y190807D01*
Y191873D02*
X33292Y192939D01*
X30627Y196138D02*
X30093Y195605D01*
Y194539D01*
X30627Y194006D01*
X31160D01*
X31693Y194539D01*
Y195605D01*
X32226Y196138D01*
X32759D01*
X33292Y195605D01*
Y194539D01*
X32759Y194006D01*
X30093Y197205D02*
Y199337D01*
Y198271D01*
X33292D01*
X21886Y151510D02*
X23771Y149625D01*
X24525D01*
X25279Y150379D01*
Y151133D01*
X23394Y153018D01*
X25656Y155280D02*
X25279Y154149D01*
Y152641D01*
X26033Y151887D01*
X26787D01*
X27541Y152641D01*
Y153395D01*
X27164Y153772D01*
X26410D01*
X25279Y152641D01*
X88222Y197110D02*
X86337Y195226D01*
Y194472D01*
X87091Y193718D01*
X87845D01*
X89730Y195603D01*
X91992Y193341D02*
X90484Y194849D01*
X89353Y193718D01*
X90484Y193341D01*
X90861Y192964D01*
Y192209D01*
X90107Y191455D01*
X89353D01*
X88599Y192209D01*
Y192964D01*
X31881Y33981D02*
Y31316D01*
X32415Y30782D01*
X33481D01*
X34014Y31316D01*
Y33981D01*
X36680Y30782D02*
Y33981D01*
X35080Y32382D01*
X37213D01*
X77494Y172307D02*
X75609Y170422D01*
Y169668D01*
X76363Y168914D01*
X77117D01*
X79002Y170799D01*
X79379Y169668D02*
X80133Y169668D01*
X80887Y168914D01*
X80887Y168160D01*
X80510Y167783D01*
X79756D01*
X79379Y168160D01*
X79756Y167783D01*
Y167029D01*
X79379Y166652D01*
X78625D01*
X77871Y167406D01*
Y168160D01*
X111056Y193684D02*
X110523Y194218D01*
X109457D01*
X108924Y193684D01*
Y193151D01*
X109457Y192618D01*
X110523D01*
X111056Y192085D01*
Y191552D01*
X110523Y191019D01*
X109457D01*
X108924Y191552D01*
X112123Y194218D02*
Y191019D01*
X113189Y192085D01*
X114255Y191019D01*
Y194218D01*
X117454Y191019D02*
X115322D01*
X117454Y193151D01*
Y193684D01*
X116921Y194218D01*
X115855D01*
X115322Y193684D01*
X43479Y193488D02*
X42946Y194021D01*
X41880D01*
X41347Y193488D01*
Y192954D01*
X41880Y192421D01*
X42946D01*
X43479Y191888D01*
Y191355D01*
X42946Y190822D01*
X41880D01*
X41347Y191355D01*
X44546Y194021D02*
Y190822D01*
X45612Y191888D01*
X46678Y190822D01*
Y194021D01*
X47745Y190822D02*
X48811D01*
X48278D01*
Y194021D01*
X47745Y193488D01*
X154585Y212721D02*
X153519D01*
X154052D01*
Y210056D01*
X153519Y209523D01*
X152986D01*
X152452Y210056D01*
X157251Y209523D02*
Y212721D01*
X155651Y211122D01*
X157784D01*
X18758Y212918D02*
X17692D01*
X18225D01*
Y210253D01*
X17692Y209719D01*
X17159D01*
X16625Y210253D01*
X19825Y212385D02*
X20358Y212918D01*
X21424D01*
X21957Y212385D01*
Y211852D01*
X21424Y211319D01*
X20891D01*
X21424D01*
X21957Y210786D01*
Y210253D01*
X21424Y209719D01*
X20358D01*
X19825Y210253D01*
X68758Y4946D02*
X67692D01*
X68225D01*
Y2280D01*
X67692Y1747D01*
X67159D01*
X66625Y2280D01*
X71957Y1747D02*
X69824D01*
X71957Y3880D01*
Y4413D01*
X71424Y4946D01*
X70358D01*
X69824Y4413D01*
X132874Y31718D02*
X131808D01*
X132341D01*
Y29052D01*
X131808Y28519D01*
X131274D01*
X130741Y29052D01*
X133940Y28519D02*
X135007D01*
X134474D01*
Y31718D01*
X133940Y31184D01*
X133653Y189592D02*
Y186393D01*
X135253D01*
X135786Y186926D01*
Y189058D01*
X135253Y189592D01*
X133653D01*
X138985D02*
X136852D01*
Y187992D01*
X137918Y188525D01*
X138452D01*
X138985Y187992D01*
Y186926D01*
X138452Y186393D01*
X137385D01*
X136852Y186926D01*
X87918Y206308D02*
X84719D01*
Y204708D01*
X85253Y204175D01*
X87385D01*
X87918Y204708D01*
Y206308D01*
X84719Y201509D02*
X87918D01*
X86319Y203109D01*
Y200976D01*
X82013Y206308D02*
X78814D01*
Y204708D01*
X79347Y204175D01*
X81480D01*
X82013Y204708D01*
Y206308D01*
X81480Y203109D02*
X82013Y202575D01*
Y201509D01*
X81480Y200976D01*
X80947D01*
X80413Y201509D01*
Y202042D01*
Y201509D01*
X79880Y200976D01*
X79347D01*
X78814Y201509D01*
Y202575D01*
X79347Y203109D01*
X76107Y206209D02*
X72908D01*
Y204610D01*
X73441Y204077D01*
X75574D01*
X76107Y204610D01*
Y206209D01*
X72908Y200877D02*
Y203010D01*
X75041Y200877D01*
X75574D01*
X76107Y201411D01*
Y202477D01*
X75574Y203010D01*
M02*
