M48
;Layer_Color=9474304
;FILE_FORMAT=2:5
INCH,TZ
;TYPE=PLATED
T1F00S00C0.01200
T2F00S00C0.01201
T4F00S00C0.03937
;TYPE=NON_PLATED
T5F00S00C0.02559
T6F00S00C0.03543
%
T01
X35433Y13404
X45276
X48819Y13386
X52362
X56693
X53937Y18898
X58858Y24409
X50000Y29528
X53937Y34430
X57480Y38386
X58858Y41437
X62205Y37008
X70866Y32052
X73228Y15354
X46063Y7480
X36811Y23819
X33661Y24409
X31496Y30709
Y42323
X29035Y44291
X33857Y40158
X37008Y50394
X42126Y59842
X44291Y63976
X48425Y66535
X47244Y69524
X49213Y71653
X45276Y74410
X54437Y65245
X56102Y57087
X59055Y54134
X62992Y55118
X59451Y49014
X67618Y49902
X70866Y69882
X73228Y67716
X66437Y74114
X75590Y65748
X81711Y66535
X85630Y65256
X89370Y65551
X88484Y72933
X94095Y55512
X90945Y50394
X98819Y46457
X100787Y42028
X100295Y37402
X94307Y38796
X90650Y33661
X78740Y34252
X75197Y37106
X79921Y49016
X109055Y50787
Y59842
X107068Y67607
X112992Y67323
X116929Y64173
X120866Y69685
X114961Y74803
X102756Y63779
X118898Y54724
X115354Y44882
X111024Y40945
X109055Y34252
X102756Y30709
X103543Y16535
X107087Y15748
X112598Y15354
X117618
X120236Y4961
X110236Y4724
X105236Y4606
X96850Y12205
X83563Y21457
X121457Y27756
X133366Y37008
X145885Y48425
X137580Y89370
X135433Y93307
X132972Y97441
X139641Y98255
X139469Y108858
X131102Y109055
X124391Y110614
X126378Y114585
X125591Y118504
X125983Y130021
X125984Y133071
X122047Y136811
X120079Y145177
X124016Y145669
X125984Y149606
X127953Y158268
X120669Y157382
X115453Y163976
X108268Y163761
X103937Y164173
X101181Y161811
X103150Y157659
X96903Y159398
X95410Y170491
X87795
X84252Y168898
X79528Y168504
X80889Y162814
X76772Y159430
X80496Y155530
X86221Y156693
X92520Y147244
X91669Y141669
X92208Y138091
X86792Y135039
X83465Y140157
X77953Y135039
X78740Y131379
X78626Y123803
X77540Y116419
X83760Y113287
X80709Y108661
X88308Y109662
X102362Y106299
X100394Y116535
X101181Y121260
X103543Y119291
X104349Y129921
X108269Y129922
X111417Y129921
X114173Y124016
X113974Y120472
X117520Y124606
X116929Y142126
X113794Y142913
X110982Y145669
X114370Y147933
X108268Y151181
X96850Y142913
X99213Y131988
X133071Y128740
X137402Y131890
X131102Y138583
X131004Y142520
X135433Y157480
X147343Y167717
X131496Y185236
X131890Y192126
X124803Y197244
X131890Y204527
X118996Y206398
X104331Y205906
X92126Y204724
X86221Y201969
X85039Y198031
X80020Y196609
X80315Y201969
Y209449
X86221
X86319Y215354
X80413Y215453
X98032Y196850
X101181Y194095
X107087Y194882
X114961Y190551
X113386Y183858
X105905Y174409
X103543Y176378
X101181Y178347
X96063Y181102
X90945Y184997
X81102Y175591
X77953Y175197
X102543Y168717
X104528Y94193
X104312Y90256
X105119Y83859
X102756Y80315
X99606Y81496
X99213Y87008
X92208Y79118
X86614Y77559
X77953Y85827
X77540Y90847
X81693Y96063
X114961Y93307
X113974Y100000
X116339Y102814
X116929Y79528
X122835Y77559
X125984Y80315
X124409Y86614
X128347Y88583
X69504Y88370
X64567Y85433
X59055Y84646
X60417Y89583
X54724Y87402
X53937Y83071
X51575Y90158
X49194Y87894
X49213Y92814
X57087Y94764
X64548Y93701
X58465Y103642
X55216Y104921
X53525Y102362
X49213Y103937
X37008Y103543
X41357Y98819
X39863Y83184
X37008Y82677
X34252Y79921
X41339Y78740
X28642Y87402
X22835Y99111
X31890Y108661
X37894Y112992
X40945Y122656
X46063Y127953
X49213Y131102
X51814Y133089
X56693Y133464
X56711Y129959
X59871Y126800
X62598Y118504
X66599Y118145
X70866Y115354
X68898Y106693
X73641Y103248
X59449Y111024
X55971Y113287
X55512Y138171
X57917Y139791
X66929Y142618
X66239Y148916
X73641Y151575
X72441Y155512
X73228Y169291
X69328Y168781
X70509Y174803
X70025Y183465
X63779
X58481Y181677
X60417Y174885
X61319Y166831
X65026Y162814
X54266Y159384
X50396Y160236
X48112Y155333
X51181Y149787
X44211Y148718
X43703Y142128
X41339Y138976
X37795Y136220
X35827Y133858
X32677Y131102
X29528Y132283
X28346Y126816
X24213Y127067
X23228Y120798
X22441Y134252
X24409Y138189
X26772Y142107
X28445Y147441
X28937Y151870
X33464Y152361
X36319Y146949
X35432Y140946
X39537Y155235
X39764Y162598
X28937Y157185
X22459Y174409
X24545Y177559
X26772Y184646
X38189Y182677
X45669Y179528
X47562Y174902
X50787Y170491
X53567Y169169
X54724Y188583
X65381Y189111
X63386Y201181
X66929Y203150
X70025Y202362
X74924Y201969
Y198031
X74410Y209449
X74311Y215354
X68996
X37402Y209449
X37795Y201575
X41732Y197638
X72460Y124606
X73228Y75590
X64862Y77165
X61024Y76772
T02
X42618Y37697
X44980
X47343
X46161Y39764
X43799
X79823Y181004
X79724Y188878
X83760Y185039
T04
X6890Y14764
X16890
Y24764
Y34764
Y44764
Y54764
Y64764
Y74764
X6890
Y64764
Y54764
Y44764
Y34764
Y24764
X142717
X152717
Y14764
X142717
Y34764
X152717
Y44764
Y54764
Y64764
Y74764
X142717
Y64764
Y54764
Y44764
Y84764
X152717
Y94764
Y104764
Y114764
Y124764
Y134764
Y144764
Y154764
Y164764
Y174764
Y184764
Y194764
Y204764
X142717
Y194764
Y184764
Y174764
Y164764
Y154764
Y144764
Y134764
Y124764
Y114764
Y104764
Y94764
X79823Y184941
X16890Y184764
Y174764
Y164764
Y154764
Y144764
Y134764
Y124764
Y114764
Y104764
Y94764
Y84764
X6890
Y94764
Y104764
Y114764
Y124764
Y134764
Y144764
Y154764
Y164764
Y174764
Y184764
Y194764
X16890
Y204764
X6890
T05
X34882Y19291
X57638
T06
X99803Y211614
X126575
X60630
X33858
M30
