G04*
G04 #@! TF.GenerationSoftware,Altium Limited,Altium Designer,20.1.12 (249)*
G04*
G04 Layer_Physical_Order=3*
G04 Layer_Color=5220458*
%FSLAX25Y25*%
%MOIN*%
G70*
G04*
G04 #@! TF.SameCoordinates,D38EF606-D903-4ADC-9098-C18FB5F004BE*
G04*
G04*
G04 #@! TF.FilePolarity,Positive*
G04*
G01*
G75*
%ADD58C,0.00500*%
%ADD64C,0.02400*%
D58*
X90945Y150528D02*
Y184997D01*
X89570Y149153D02*
X90945Y150528D01*
X96903Y159398D02*
Y159899D01*
X98032Y190945D02*
X101181Y194095D01*
X96903Y159899D02*
X98032Y161027D01*
Y190945D01*
X118996Y206398D02*
X126753Y198641D01*
Y189979D02*
Y198641D01*
Y189979D02*
X131496Y185236D01*
X86319Y215354D02*
X89075Y212598D01*
Y202953D02*
Y212598D01*
Y202953D02*
X93405Y198622D01*
Y151575D02*
Y198622D01*
X90570Y148739D02*
X93405Y151575D01*
X89570Y113174D02*
Y149153D01*
Y113174D02*
X90258Y112486D01*
X91669Y141669D02*
Y144568D01*
X90570Y145667D02*
X91669Y144568D01*
X90570Y145667D02*
Y148739D01*
X90258Y78310D02*
Y112486D01*
X68996Y207185D02*
Y215354D01*
Y207185D02*
X71974Y204207D01*
Y180734D02*
Y204207D01*
X75167Y196819D02*
Y197789D01*
X72460Y205136D02*
X72974Y204621D01*
Y173565D02*
Y204621D01*
X74924Y198031D02*
X75167Y197789D01*
X72460Y205136D02*
Y213503D01*
X71278Y171869D02*
X72974Y173565D01*
X74822Y168127D02*
X75197Y168502D01*
X75167Y196819D02*
X75197Y196789D01*
X74822Y158247D02*
X76591Y156479D01*
X75197Y168502D02*
Y196789D01*
X67028Y175787D02*
X71974Y180734D01*
X67028Y167717D02*
Y175787D01*
X62894Y163583D02*
X67028Y167717D01*
X60894Y162469D02*
Y164411D01*
X61319Y164836D01*
X63269Y165372D02*
Y176709D01*
X61894Y163997D02*
X63269Y165372D01*
X61894Y141427D02*
Y163997D01*
Y141427D02*
X64567Y138754D01*
X61319Y164836D02*
Y166831D01*
X65026Y162814D02*
X68898Y158942D01*
X62894Y142815D02*
Y163583D01*
X71278Y164766D02*
Y171869D01*
X62894Y142815D02*
X66599Y139110D01*
X49231Y150806D02*
X60894Y162469D01*
X68898Y106693D02*
Y158942D01*
X66599Y118145D02*
Y139110D01*
X72460Y124606D02*
Y125215D01*
X74410Y114970D02*
Y138305D01*
X73641Y114201D02*
X74410Y114970D01*
Y138305D02*
X75590Y139487D01*
X72460Y125215D02*
X72638Y125394D01*
X75590Y65748D02*
Y135435D01*
X76591Y136435D01*
X77540Y90847D02*
Y116419D01*
X72460Y213503D02*
X74311Y215354D01*
X70079Y116597D02*
Y168488D01*
X71555Y159155D02*
Y164489D01*
X71278Y164766D02*
X71555Y164489D01*
X69786Y168781D02*
X70079Y168488D01*
X69328Y168781D02*
X69786D01*
X75590Y139487D02*
Y155120D01*
X71555Y159155D02*
X75590Y155120D01*
X76772Y159055D02*
Y159430D01*
Y159055D02*
X77953Y157874D01*
X76591Y136435D02*
Y156479D01*
X73641Y103248D02*
Y114201D01*
X71690Y126341D02*
X72638Y125394D01*
X70079Y116597D02*
X70866Y115810D01*
X71690Y126341D02*
Y152507D01*
X57921Y112552D02*
X59449Y111024D01*
X57921Y112552D02*
Y127607D01*
X58661Y128348D01*
X51814Y133027D02*
Y133089D01*
X53267Y102620D02*
X53525Y102362D01*
X51814Y133027D02*
X53267Y131574D01*
Y102620D02*
Y131574D01*
X86429Y134676D02*
X86792Y135039D01*
X86429Y133867D02*
Y134676D01*
X86358Y133797D02*
X86429Y133867D01*
X86358Y77815D02*
Y133797D01*
Y77815D02*
X86614Y77559D01*
X90258Y78310D02*
X91320Y77248D01*
X81693Y66554D02*
X81702Y66563D01*
Y96054D01*
X81693Y96063D02*
X81702Y96054D01*
X81693Y66554D02*
X81711Y66535D01*
X107480Y80315D02*
Y126539D01*
X104349Y129670D02*
X107480Y126539D01*
X105118Y77953D02*
X107480Y80315D01*
X137491Y89459D02*
X137580Y89370D01*
X137491Y89459D02*
Y131801D01*
X137402Y131890D02*
X137491Y131801D01*
X123641Y130727D02*
X125984Y133071D01*
X110982Y145669D02*
Y172483D01*
X107087Y176378D02*
X110982Y172483D01*
X109449Y142913D02*
X113794D01*
X147343Y167717D02*
X147706Y167353D01*
Y166602D02*
Y167353D01*
Y166602D02*
X147835Y166474D01*
Y22539D02*
Y166474D01*
X139469Y108858D02*
X144488D01*
X146653Y49668D02*
Y106693D01*
X144488Y108858D02*
X146653Y106693D01*
X145885Y48425D02*
Y48899D01*
X146653Y49668D01*
X144783Y19488D02*
X147835Y22539D01*
X117618Y15354D02*
X121752Y19488D01*
X144783D01*
X97263Y131181D02*
Y139389D01*
Y131181D02*
X97263Y131181D01*
Y48013D02*
Y131181D01*
X97263Y139389D02*
X99213Y141339D01*
X96263Y141812D02*
X96850Y142399D01*
X96263Y13307D02*
X96850Y12719D01*
Y142399D02*
Y142913D01*
Y12205D02*
Y12719D01*
X96263Y13307D02*
Y141812D01*
X101181Y121260D02*
Y161811D01*
X49213Y92814D02*
Y101179D01*
X47263Y103129D02*
X49213Y101179D01*
X51575Y90158D02*
Y128740D01*
X47263Y115415D02*
X48244Y116397D01*
X47263Y103129D02*
Y115415D01*
X48244Y116397D02*
Y128683D01*
X46063Y99419D02*
X47244Y98238D01*
Y69524D02*
Y98238D01*
X46063Y99419D02*
Y127953D01*
X46161Y130766D02*
Y158760D01*
Y130766D02*
X48244Y128683D01*
X43307Y70626D02*
Y137008D01*
X42126Y69445D02*
X43307Y70626D01*
X41339Y138976D02*
X43307Y137008D01*
X46161Y158760D02*
X57480Y170079D01*
X50394Y160234D02*
X50396Y160236D01*
X50394Y153383D02*
Y160234D01*
X57480Y170079D02*
Y177165D01*
X63779Y183465D01*
X60417Y174885D02*
Y175271D01*
X65729Y180584D01*
X120079Y96517D02*
X120866Y95730D01*
X120079Y96517D02*
Y145177D01*
X117520Y124606D02*
X118879Y125966D01*
X117343Y154056D02*
X120669Y157382D01*
X117343Y144470D02*
Y154056D01*
Y144470D02*
X118879Y142934D01*
Y125966D02*
Y142934D01*
X135433Y93307D02*
Y157480D01*
X63269Y176709D02*
X70025Y183465D01*
X65729Y180584D02*
Y188763D01*
X48231Y151220D02*
X50394Y153383D01*
X48231Y139566D02*
Y151220D01*
X49231Y148980D02*
Y150806D01*
X48231Y139566D02*
X54724Y133073D01*
X56666Y143826D02*
X61821Y138672D01*
X49231Y148980D02*
X54385Y143826D01*
X56666D01*
X52482Y149424D02*
X62821Y139086D01*
X51545Y149424D02*
X52482D01*
X51181Y149787D02*
X51545Y149424D01*
X62821Y118726D02*
Y139086D01*
X64567Y102422D02*
Y138754D01*
X55512Y137403D02*
Y138171D01*
X60648Y116356D02*
Y123266D01*
X61821Y124438D02*
Y138672D01*
X62598Y118504D02*
X62821Y118726D01*
X60648Y123266D02*
X61821Y124438D01*
X60648Y116356D02*
X62598Y114406D01*
Y91764D02*
Y114406D01*
X59648Y115942D02*
Y126578D01*
X59871Y126800D01*
X59648Y115942D02*
X61417Y114173D01*
X60417Y89583D02*
X62598Y91764D01*
X54724Y87402D02*
X61417Y94095D01*
Y114173D01*
X104349Y129670D02*
Y129921D01*
X24213Y127067D02*
Y132185D01*
X28722Y136694D01*
X28445Y147441D02*
X28722Y147164D01*
Y136694D02*
Y147164D01*
X32877Y151774D02*
X33464Y152361D01*
X24409Y177424D02*
X24545Y177559D01*
X22441Y174016D02*
X22459Y174034D01*
Y174409D01*
X24409Y138189D02*
Y177424D01*
X26495Y142384D02*
Y184369D01*
X26772Y184646D01*
X26495Y142384D02*
X26772Y142107D01*
X132972Y37402D02*
Y97441D01*
Y37402D02*
X133366Y37008D01*
X59451Y49014D02*
X59748Y49311D01*
X61910D01*
X83563Y113091D02*
X83661Y112992D01*
X83563Y21457D02*
X83661Y21555D01*
X83760Y113287D02*
Y113448D01*
X83563Y113091D02*
X83760Y113287D01*
X83661Y21555D02*
Y112992D01*
X90945Y50394D02*
Y58446D01*
X91320Y58821D01*
Y77248D01*
X66437Y53839D02*
Y74114D01*
X61910Y49311D02*
X66437Y53839D01*
X39370Y45669D02*
Y82284D01*
X33857Y40158D02*
X33859D01*
X39370Y45669D01*
X102756Y30709D02*
Y63779D01*
X83760Y113448D02*
X84842Y114530D01*
Y137500D01*
X88170Y140828D01*
X80709Y108661D02*
Y142520D01*
X82446Y144257D01*
X94158Y144257D02*
X94882Y144980D01*
X94158Y55576D02*
Y144257D01*
X94095Y55512D02*
X94158Y55576D01*
X71690Y152507D02*
X72441Y153258D01*
X70866Y115354D02*
Y115810D01*
X72441Y153258D02*
Y155512D01*
X28937Y151870D02*
Y157185D01*
X94882Y144980D02*
Y169448D01*
X95410Y169977D01*
Y170491D01*
X65381Y189111D02*
X65729Y188763D01*
X87795Y170491D02*
X88159Y170127D01*
X88170Y140828D02*
Y169248D01*
X88159Y169260D02*
Y170127D01*
Y169260D02*
X88170Y169248D01*
X54724Y131946D02*
X56711Y129959D01*
X64567Y102422D02*
X69504Y97485D01*
Y88370D02*
Y97485D01*
X41732Y177226D02*
Y197638D01*
X39764Y162598D02*
Y175257D01*
X41732Y177226D01*
X106118Y146244D02*
X109449Y142913D01*
X106118Y146244D02*
Y174197D01*
X103937Y164173D02*
X105118Y162992D01*
Y156691D02*
Y162992D01*
X102362Y153935D02*
X105118Y156691D01*
X105905Y174409D02*
X106118Y174197D01*
X102362Y126635D02*
Y153935D01*
X99213Y176378D02*
X101181Y178347D01*
X99213Y141339D02*
Y176378D01*
X103543Y119291D02*
Y125454D01*
X102362Y126635D02*
X103543Y125454D01*
X55512Y137403D02*
X58661Y134253D01*
X33877Y135370D02*
X40635Y142128D01*
X43703D01*
X33877Y133051D02*
Y135370D01*
X74822Y158247D02*
Y168127D01*
X77578Y174821D02*
X77953Y175197D01*
X77578Y163367D02*
Y174821D01*
X103543Y176378D02*
X107087D01*
X97263Y48013D02*
X98819Y46457D01*
X102362Y80709D02*
X102756Y80315D01*
X99606Y81496D02*
X101163Y83052D01*
X102362Y80709D02*
Y106299D01*
X100394Y98778D02*
X101163Y98009D01*
Y83052D02*
Y98009D01*
X124803Y156693D02*
Y197244D01*
Y156693D02*
X128347Y153150D01*
Y88583D02*
Y153150D01*
X125984Y80315D02*
X126359Y80690D01*
Y111829D01*
X123641Y114548D02*
X126359Y111829D01*
X77578Y163367D02*
X82446Y158499D01*
Y144257D02*
Y158499D01*
X32877Y131302D02*
Y151774D01*
X32677Y131102D02*
X32877Y131302D01*
X33877Y133051D02*
X34627Y132300D01*
Y107917D02*
Y132300D01*
X22441Y134252D02*
Y174016D01*
X70866Y32052D02*
Y69882D01*
X51968Y20866D02*
X53937Y18898D01*
X100394Y98778D02*
Y116535D01*
X34252Y107541D02*
X34627Y107917D01*
X131102Y109055D02*
Y138583D01*
X113680Y120178D02*
X113680D01*
X113680Y100294D02*
Y120178D01*
X113680D02*
X113974Y120472D01*
X113680Y100294D02*
X113974Y100000D01*
X111024Y48425D02*
Y127165D01*
X112024Y71835D02*
Y129416D01*
X108269Y129920D02*
Y129922D01*
X111630Y129709D02*
X111731D01*
X109055Y46457D02*
X111024Y48425D01*
X108269Y129920D02*
X111024Y127165D01*
X111417Y129921D02*
X111630Y129709D01*
X111731D02*
X112024Y129416D01*
X106299Y129134D02*
X109055Y126378D01*
X114173Y124016D02*
X118898Y119291D01*
X109055Y59842D02*
Y126378D01*
X118898Y54724D02*
Y119291D01*
X124409Y86614D02*
Y107480D01*
X122441Y109449D02*
Y132677D01*
Y109449D02*
X124409Y107480D01*
X122471Y77923D02*
X122835Y77559D01*
X122471Y77923D02*
Y78790D01*
X122459Y78802D02*
Y105438D01*
Y78802D02*
X122471Y78790D01*
X121441Y106457D02*
X122459Y105438D01*
X121441Y106457D02*
Y133447D01*
X120866Y69685D02*
Y95730D01*
X121441Y133447D02*
X124016Y136022D01*
X122441Y132677D02*
X125984Y136221D01*
X123641Y114548D02*
Y130727D01*
X124016Y136022D02*
Y145669D01*
X125984Y136221D02*
Y149606D01*
X34252Y79921D02*
Y107541D01*
X54724Y131946D02*
Y133073D01*
X58661Y128348D02*
Y134253D01*
X115354Y66535D02*
Y68504D01*
X112024Y71835D02*
X115354Y68504D01*
X116929Y64173D02*
Y79528D01*
X106299Y131496D02*
X116929Y142126D01*
X106299Y129134D02*
Y131496D01*
X114567Y55375D02*
X115354Y54588D01*
X114567Y55375D02*
Y65748D01*
X115354Y66535D01*
Y44882D02*
Y54588D01*
X112962Y15718D02*
Y16567D01*
X112598Y15354D02*
X112962Y15718D01*
X112992Y16597D02*
Y67323D01*
X112962Y16567D02*
X112992Y16597D01*
X109055Y34252D02*
Y46457D01*
X107077Y15757D02*
Y67598D01*
X107068Y67607D02*
X107077Y67598D01*
Y15757D02*
X107087Y15748D01*
X105118Y24863D02*
Y77953D01*
X103543Y16535D02*
Y23289D01*
X105118Y24863D01*
X31496Y30709D02*
Y35039D01*
X46457Y50000D02*
Y66142D01*
X31496Y35039D02*
X46457Y50000D01*
X49213Y71653D02*
X51968Y68898D01*
Y20866D02*
Y68898D01*
X45276Y67323D02*
Y74410D01*
X48425Y66535D02*
X50000Y64961D01*
Y29528D02*
Y64961D01*
X45276Y67323D02*
X46457Y66142D01*
X37008Y50394D02*
Y82677D01*
X39557Y82470D02*
Y82877D01*
X39863Y83184D01*
X39370Y82284D02*
X39557Y82470D01*
X39863Y83184D02*
Y83184D01*
X42126Y59842D02*
Y69445D01*
X49213Y131102D02*
X51575Y128740D01*
X77953Y135039D02*
Y157874D01*
X79528Y168504D02*
X83465Y164567D01*
Y140157D02*
Y164567D01*
X73228Y15354D02*
Y67716D01*
D64*
X90945Y184997D02*
D03*
X118996Y206398D02*
D03*
X86319Y215354D02*
D03*
X91669Y141669D02*
D03*
X68996Y215354D02*
D03*
X74924Y198031D02*
D03*
X65026Y162814D02*
D03*
X61319Y166831D02*
D03*
X66599Y118145D02*
D03*
X72460Y124606D02*
D03*
X77540Y116419D02*
D03*
X74311Y215354D02*
D03*
X69328Y168781D02*
D03*
X76772Y159430D02*
D03*
X73641Y103248D02*
D03*
X77540Y90847D02*
D03*
X81693Y96063D02*
D03*
X81711Y66535D02*
D03*
X125984Y133071D02*
D03*
X110982Y145669D02*
D03*
X113794Y142913D02*
D03*
X145885Y48425D02*
D03*
X117618Y15354D02*
D03*
X147343Y167717D02*
D03*
X51575Y90158D02*
D03*
X46063Y127953D02*
D03*
X50396Y160236D02*
D03*
X60417Y174885D02*
D03*
X120079Y145177D02*
D03*
X117520Y124606D02*
D03*
X120669Y157382D02*
D03*
X135433Y157480D02*
D03*
X55512Y138171D02*
D03*
X60417Y89583D02*
D03*
X104349Y129921D02*
D03*
X49213Y131102D02*
D03*
X24213Y127067D02*
D03*
X33464Y152361D02*
D03*
X22459Y174409D02*
D03*
X24545Y177559D02*
D03*
X28445Y147441D02*
D03*
X139469Y108858D02*
D03*
X133366Y37008D02*
D03*
X132972Y97441D02*
D03*
X137580Y89370D02*
D03*
X59451Y49014D02*
D03*
X66437Y74114D02*
D03*
X102756Y30709D02*
D03*
X83563Y21457D02*
D03*
X131496Y185236D02*
D03*
X86792Y135039D02*
D03*
X51181Y149787D02*
D03*
X83465Y140157D02*
D03*
X43703Y142128D02*
D03*
X28937Y157185D02*
D03*
Y151870D02*
D03*
X63779Y183465D02*
D03*
X83760Y113287D02*
D03*
X59871Y126800D02*
D03*
X56711Y129959D02*
D03*
X62598Y118504D02*
D03*
X69504Y88370D02*
D03*
X49213Y92814D02*
D03*
X41732Y197638D02*
D03*
X39764Y162598D02*
D03*
X103937Y164173D02*
D03*
X103543Y119291D02*
D03*
X101181Y194095D02*
D03*
X96903Y159398D02*
D03*
X51814Y133089D02*
D03*
X65381Y189111D02*
D03*
X70025Y183465D02*
D03*
X77953Y175197D02*
D03*
X105905Y174409D02*
D03*
X98819Y46457D02*
D03*
X103543Y176378D02*
D03*
X101181Y178347D02*
D03*
X124803Y197244D02*
D03*
X128347Y88583D02*
D03*
X80709Y108661D02*
D03*
X22441Y134252D02*
D03*
X26772Y142107D02*
D03*
X24409Y138189D02*
D03*
X95410Y170491D02*
D03*
X87795D02*
D03*
X70866Y32052D02*
D03*
X53937Y18898D02*
D03*
X100394Y116535D02*
D03*
X94095Y55512D02*
D03*
X41339Y138976D02*
D03*
X135433Y93307D02*
D03*
X137402Y131890D02*
D03*
X113974Y120472D02*
D03*
X114173Y124016D02*
D03*
X101181Y161811D02*
D03*
Y121260D02*
D03*
X125984Y80315D02*
D03*
X124409Y86614D02*
D03*
X125984Y149606D02*
D03*
X32677Y131102D02*
D03*
X131102Y109055D02*
D03*
Y138583D02*
D03*
X122835Y77559D02*
D03*
X124016Y145669D02*
D03*
X86614Y77559D02*
D03*
X102756Y80315D02*
D03*
X99606Y81496D02*
D03*
X59449Y111024D02*
D03*
X45276Y74410D02*
D03*
X48425Y66535D02*
D03*
X79528Y168504D02*
D03*
X102756Y63779D02*
D03*
X70866Y69882D02*
D03*
X96850Y142913D02*
D03*
X49213Y71653D02*
D03*
X54724Y87402D02*
D03*
X108269Y129922D02*
D03*
X112992Y67323D02*
D03*
X73228Y67716D02*
D03*
X116929Y142126D02*
D03*
Y79528D02*
D03*
X72441Y155512D02*
D03*
X90945Y50394D02*
D03*
X111417Y129921D02*
D03*
X75590Y65748D02*
D03*
X39863Y83184D02*
D03*
X107068Y67607D02*
D03*
X37008Y82677D02*
D03*
X120866Y69685D02*
D03*
X109055Y59842D02*
D03*
X118898Y54724D02*
D03*
X113974Y100000D02*
D03*
X115354Y44882D02*
D03*
X109055Y34252D02*
D03*
X103543Y16535D02*
D03*
X107087Y15748D02*
D03*
X96850Y12205D02*
D03*
X112598Y15354D02*
D03*
X102362Y106299D02*
D03*
X116929Y64173D02*
D03*
X33857Y40158D02*
D03*
X47244Y69524D02*
D03*
X50000Y29528D02*
D03*
X31496Y30709D02*
D03*
X37008Y50394D02*
D03*
X42126Y59842D02*
D03*
X34252Y79921D02*
D03*
X53525Y102362D02*
D03*
X68898Y106693D02*
D03*
X70866Y115354D02*
D03*
X77953Y135039D02*
D03*
X26772Y184646D02*
D03*
X73228Y15354D02*
D03*
M02*
