G04*
G04 #@! TF.GenerationSoftware,Altium Limited,Altium Designer,20.1.12 (249)*
G04*
G04 Layer_Color=32896*
%FSLAX25Y25*%
%MOIN*%
G70*
G04*
G04 #@! TF.SameCoordinates,D38EF606-D903-4ADC-9098-C18FB5F004BE*
G04*
G04*
G04 #@! TF.FilePolarity,Positive*
G04*
G01*
G75*
%ADD11C,0.00984*%
%ADD12C,0.00787*%
%ADD14C,0.00600*%
D11*
X39370Y20669D02*
X38632Y21095D01*
Y20243D01*
X39370Y20669D01*
X101179Y139790D02*
X100440Y140216D01*
Y139364D01*
X101179Y139790D01*
X68501Y107113D02*
X67763Y107539D01*
Y106686D01*
X68501Y107113D01*
X79131Y117743D02*
X78393Y118169D01*
Y117316D01*
X79131Y117743D01*
X59522Y129404D02*
X68431Y138312D01*
X60357Y137477D02*
X67595Y130239D01*
D12*
X75064Y133023D02*
X74520Y133772D01*
X73640Y133486D01*
Y132560D01*
X74520Y132274D01*
X75064Y133023D01*
X55216Y11024D02*
Y11811D01*
X58169Y11024D02*
Y11811D01*
X36909Y11024D02*
Y11811D01*
X33957Y11024D02*
Y11811D01*
X94073Y34898D02*
X94629Y35455D01*
X91985Y36986D02*
X92541Y37543D01*
X78599Y26356D02*
X79156Y26913D01*
X80687Y24268D02*
X81244Y24825D01*
X76750Y28205D02*
X77307Y28762D01*
X74662Y30293D02*
X75219Y30850D01*
X39961Y13189D02*
Y16732D01*
Y13189D02*
X52165D01*
Y16732D01*
X39961D02*
X52165D01*
X111909Y194095D02*
Y194882D01*
X114862Y194095D02*
Y194882D01*
X90256Y207972D02*
Y208760D01*
X93209Y207972D02*
Y208760D01*
X114862Y179626D02*
Y180413D01*
X111909Y179626D02*
Y180413D01*
X99508Y193012D02*
Y193799D01*
X96555Y193012D02*
Y193799D01*
X76356Y83606D02*
X76913Y83049D01*
X74268Y81518D02*
X74825Y80961D01*
X72419Y79669D02*
X72976Y79112D01*
X70331Y77581D02*
X70888Y77024D01*
X91437Y192913D02*
Y193701D01*
X94390Y192913D02*
Y193701D01*
X98678Y166907D02*
X99234Y167464D01*
X100766Y164819D02*
X101322Y165376D01*
X51159Y100929D02*
X51716Y100372D01*
X49071Y98841D02*
X49628Y98284D01*
X63758Y88330D02*
X64315Y87773D01*
X61670Y86242D02*
X62227Y85685D01*
X67695Y92267D02*
X68252Y91711D01*
X65607Y90179D02*
X66164Y89622D01*
X47222Y96992D02*
X47779Y96435D01*
X45134Y94904D02*
X45691Y94347D01*
X108563Y191043D02*
Y191831D01*
X105610Y191043D02*
Y191831D01*
X34111Y104352D02*
X34668Y103796D01*
X36199Y106440D02*
X36755Y105884D01*
X97222Y168363D02*
X97779Y168920D01*
X95134Y170451D02*
X95691Y171007D01*
X66394Y171632D02*
X66951Y172188D01*
X68482Y169544D02*
X69039Y170101D01*
X104583Y160608D02*
X105140Y161165D01*
X106671Y158520D02*
X107228Y159077D01*
X81791Y205413D02*
Y206201D01*
X78839Y205413D02*
Y206201D01*
X75886Y205413D02*
Y206201D01*
X72933Y205413D02*
Y206201D01*
X87697Y205413D02*
Y206201D01*
X84744Y205413D02*
Y206201D01*
X92196Y142156D02*
X94353Y144314D01*
X97137Y141530D01*
X86001Y135962D02*
X88159Y138119D01*
X86001Y135962D02*
X88785Y133178D01*
X59518Y109479D02*
X61676Y111636D01*
X64460Y108853D01*
X53324Y103285D02*
X55482Y105442D01*
X53324Y103285D02*
X56108Y100501D01*
X70148Y120109D02*
X72306Y122266D01*
X75090Y119482D01*
X63954Y113915D02*
X66112Y116072D01*
X63954Y113915D02*
X66738Y111131D01*
X83443Y125056D02*
X84000Y125612D01*
X81355Y127144D02*
X81912Y127700D01*
X79506Y128993D02*
X80063Y129549D01*
X77418Y131080D02*
X77975Y131637D01*
X43307Y199114D02*
X44094D01*
X43307Y196161D02*
X44094D01*
X57874Y190059D02*
X58661D01*
X57874Y187106D02*
X58661D01*
X29528Y219488D02*
X64961D01*
Y203740D02*
Y219488D01*
X29528Y203740D02*
Y219488D01*
Y203740D02*
X64961D01*
X95472Y219488D02*
X130905D01*
Y203740D02*
Y219488D01*
X95472Y203740D02*
Y219488D01*
Y203740D02*
X130905D01*
D14*
X42626Y172564D02*
X40494Y169365D01*
Y172564D02*
X42626Y169365D01*
X37295D02*
X39428D01*
X37295Y171498D01*
Y172031D01*
X37828Y172564D01*
X38894D01*
X39428Y172031D01*
X68684Y127344D02*
X69438Y123574D01*
X67176Y125836D02*
X70946Y125082D01*
X68684Y122820D02*
X67930Y122066D01*
X68307Y122443D01*
X66045Y124705D01*
X66799Y124705D01*
X138550Y217799D02*
X139083Y218332D01*
X140149D01*
X140683Y217799D01*
Y217265D01*
X140149Y216732D01*
X139083D01*
X138550Y216199D01*
Y215666D01*
X139083Y215133D01*
X140149D01*
X140683Y215666D01*
X137484Y218332D02*
Y215133D01*
X136417Y216199D01*
X135351Y215133D01*
Y218332D01*
X132685Y215133D02*
Y218332D01*
X134285Y216732D01*
X132152D01*
X25951Y217208D02*
X26485Y217741D01*
X27551D01*
X28084Y217208D01*
Y216675D01*
X27551Y216142D01*
X26485D01*
X25951Y215609D01*
Y215075D01*
X26485Y214542D01*
X27551D01*
X28084Y215075D01*
X24885Y217741D02*
Y214542D01*
X23819Y215609D01*
X22753Y214542D01*
Y217741D01*
X21686Y217208D02*
X21153Y217741D01*
X20087D01*
X19554Y217208D01*
Y216675D01*
X20087Y216142D01*
X20620D01*
X20087D01*
X19554Y215609D01*
Y215075D01*
X20087Y214542D01*
X21153D01*
X21686Y215075D01*
X87710Y24031D02*
X85448Y26293D01*
X84317Y25162D01*
X84317Y24408D01*
X85071Y23654D01*
X85825D01*
X86956Y24785D01*
X86202Y24031D02*
Y22523D01*
X83563Y23654D02*
X82809Y23654D01*
X82055Y22900D01*
X82055Y22146D01*
X82432Y21769D01*
X83186D01*
X83563Y22146D01*
X83186Y21769D01*
Y21015D01*
X83563Y20638D01*
X84317D01*
X85071Y21392D01*
Y22146D01*
X81301Y21392D02*
X80547Y21392D01*
X79793Y20638D01*
Y19884D01*
X81301Y18376D01*
X82055D01*
X82809Y19130D01*
Y19884D01*
X81301Y21392D01*
X69798Y21345D02*
X72060Y23607D01*
X70929Y24738D01*
X70175Y24738D01*
X69421Y23984D01*
Y23230D01*
X70552Y22099D01*
X69798Y22853D02*
X68290D01*
X66028Y25115D02*
X67536Y23607D01*
Y26623D01*
X67913Y27000D01*
X68667Y27000D01*
X69421Y26246D01*
X69421Y25492D01*
X65651Y26246D02*
X64897D01*
X64143Y27000D01*
Y27754D01*
X65651Y29262D01*
X66405D01*
X67159Y28508D01*
X67159Y27754D01*
X66782Y27377D01*
X66028D01*
X64897Y28508D01*
X100899Y34857D02*
X98637Y37119D01*
X97506Y35989D01*
X97506Y35234D01*
X98260Y34481D01*
X99014D01*
X100145Y35612D01*
X99391Y34857D02*
Y33349D01*
X97129Y31087D02*
X98637Y32595D01*
X95621D01*
X95244Y32972D01*
X95244Y33726D01*
X95998Y34481D01*
X96752Y34480D01*
X94490Y32218D02*
X93736Y32218D01*
X92982Y31464D01*
Y30710D01*
X93359Y30333D01*
X94113D01*
Y29579D01*
X94490Y29202D01*
X95244D01*
X95998Y29956D01*
Y30710D01*
X95621Y31087D01*
X94867D01*
Y31841D01*
X94490Y32218D01*
X94867Y31087D02*
X94113Y30333D01*
X59580Y1550D02*
Y4749D01*
X57981D01*
X57448Y4216D01*
Y3150D01*
X57981Y2616D01*
X59580D01*
X58514D02*
X57448Y1550D01*
X54249D02*
X56381D01*
X54249Y3683D01*
Y4216D01*
X54782Y4749D01*
X55848D01*
X56381Y4216D01*
X53182Y4749D02*
X51050D01*
Y4216D01*
X53182Y2083D01*
Y1550D01*
X41372Y1452D02*
Y4651D01*
X39772D01*
X39239Y4118D01*
Y3051D01*
X39772Y2518D01*
X41372D01*
X40305D02*
X39239Y1452D01*
X36040D02*
X38173D01*
X36040Y3584D01*
Y4118D01*
X36573Y4651D01*
X37639D01*
X38173Y4118D01*
X32841Y4651D02*
X33907Y4118D01*
X34974Y3051D01*
Y1985D01*
X34440Y1452D01*
X33374D01*
X32841Y1985D01*
Y2518D01*
X33374Y3051D01*
X34974D01*
X117336Y169405D02*
X115074Y171667D01*
X113943Y170536D01*
X113943Y169782D01*
X114697Y169028D01*
X115451D01*
X116582Y170159D01*
X115828Y169405D02*
Y167897D01*
X113566Y165635D02*
X115074Y167143D01*
X112058D01*
X111681Y167520D01*
X111681Y168274D01*
X112435Y169028D01*
X113189Y169028D01*
X111681Y163750D02*
X109419Y166012D01*
X111681D01*
X110173Y164504D01*
X87623Y199541D02*
X84424D01*
Y197941D01*
X84957Y197408D01*
X86024D01*
X86557Y197941D01*
Y199541D01*
Y198475D02*
X87623Y197408D01*
Y194209D02*
Y196342D01*
X85491Y194209D01*
X84957D01*
X84424Y194742D01*
Y195809D01*
X84957Y196342D01*
Y193143D02*
X84424Y192610D01*
Y191543D01*
X84957Y191010D01*
X85491D01*
X86024Y191543D01*
Y192077D01*
Y191543D01*
X86557Y191010D01*
X87090D01*
X87623Y191543D01*
Y192610D01*
X87090Y193143D01*
X82111Y199639D02*
X78912D01*
Y198040D01*
X79445Y197507D01*
X80512D01*
X81045Y198040D01*
Y199639D01*
Y198573D02*
X82111Y197507D01*
Y194308D02*
Y196440D01*
X79979Y194308D01*
X79445D01*
X78912Y194841D01*
Y195907D01*
X79445Y196440D01*
X82111Y191109D02*
Y193241D01*
X79979Y191109D01*
X79445D01*
X78912Y191642D01*
Y192708D01*
X79445Y193241D01*
X71088Y209342D02*
X67889D01*
Y207743D01*
X68422Y207210D01*
X69488D01*
X70021Y207743D01*
Y209342D01*
Y208276D02*
X71088Y207210D01*
Y204011D02*
Y206143D01*
X68955Y204011D01*
X68422D01*
X67889Y204544D01*
Y205610D01*
X68422Y206143D01*
X71088Y202944D02*
Y201878D01*
Y202411D01*
X67889D01*
X68422Y202944D01*
X60446Y95783D02*
X58184Y98045D01*
X57053Y96914D01*
X57053Y96160D01*
X57807Y95406D01*
X58561D01*
X59692Y96537D01*
X58938Y95783D02*
Y94275D01*
X56676Y92013D02*
X58184Y93521D01*
X55168D01*
X54791Y93898D01*
X54791Y94652D01*
X55545Y95406D01*
X56299Y95406D01*
X54037Y93144D02*
X53283Y93144D01*
X52529Y92390D01*
Y91636D01*
X54037Y90128D01*
X54791D01*
X55545Y90882D01*
Y91636D01*
X54037Y93144D01*
X78860Y179748D02*
X76598Y182010D01*
X75467Y180879D01*
X75467Y180125D01*
X76221Y179371D01*
X76975D01*
X78106Y180502D01*
X77352Y179748D02*
Y178240D01*
X76598Y177486D02*
X75844Y176732D01*
X76221Y177109D01*
X73959Y179371D01*
X74713Y179371D01*
X74336Y175978D02*
Y175224D01*
X73582Y174470D01*
X72828D01*
X71320Y175978D01*
X71320Y176732D01*
X72074Y177486D01*
X72828D01*
X73205Y177109D01*
Y176355D01*
X72074Y175224D01*
X44905Y88955D02*
X47167Y91217D01*
X46036Y92348D01*
X45282Y92348D01*
X44528Y91594D01*
Y90840D01*
X45659Y89709D01*
X44905Y90463D02*
X43397D01*
X42643Y91217D02*
X41889Y91971D01*
X42266Y91594D01*
X44528Y93856D01*
X44528Y93102D01*
X42643Y94987D02*
Y95741D01*
X41889Y96495D01*
X41135Y96495D01*
X40758Y96118D01*
Y95364D01*
X40004D01*
X39627Y94987D01*
Y94233D01*
X40381Y93479D01*
X41135D01*
X41512Y93856D01*
Y94610D01*
X42266D01*
X42643Y94987D01*
X41512Y94610D02*
X40758Y95364D01*
X72858Y89545D02*
X75120Y91807D01*
X73989Y92939D01*
X73235Y92938D01*
X72481Y92184D01*
Y91430D01*
X73612Y90299D01*
X72858Y91053D02*
X71350D01*
X70596Y91807D02*
X69842Y92562D01*
X70219Y92184D01*
X72481Y94446D01*
X72481Y93692D01*
X70973Y95955D02*
X69465Y97462D01*
X69088Y97085D01*
Y94069D01*
X68711Y93692D01*
X61441Y79605D02*
X63703Y81867D01*
X62572Y82998D01*
X61818Y82998D01*
X61064Y82244D01*
Y81489D01*
X62195Y80358D01*
X61441Y81112D02*
X59933D01*
X59179Y81867D02*
X58425Y82621D01*
X58802Y82244D01*
X61064Y84505D01*
X61064Y83751D01*
X58048Y87521D02*
X58425Y86391D01*
Y84882D01*
X57671Y84128D01*
X56917D01*
X56163Y84882D01*
Y85637D01*
X56540Y86014D01*
X57294D01*
X58425Y84882D01*
X80929Y66809D02*
X83191Y69071D01*
X82060Y70202D01*
X81306Y70202D01*
X80552Y69448D01*
Y68694D01*
X81683Y67563D01*
X80929Y68317D02*
X79421D01*
X78667Y69071D02*
X77913Y69825D01*
X78290Y69448D01*
X80552Y71710D01*
X80552Y70956D01*
X77536Y74726D02*
X79044Y73218D01*
X77913Y72087D01*
X77536Y73218D01*
X77159Y73595D01*
X76405D01*
X75651Y72841D01*
Y72087D01*
X76405Y71333D01*
X77159D01*
X29256Y108837D02*
X31518Y111099D01*
X30387Y112230D01*
X29633Y112230D01*
X28879Y111476D01*
Y110722D01*
X30010Y109591D01*
X29256Y110345D02*
X27748D01*
X26994Y111099D02*
X26239Y111853D01*
X26617Y111476D01*
X28879Y113738D01*
X28879Y112984D01*
X23978Y114115D02*
X26240Y116377D01*
X26239Y114115D01*
X24732Y115623D01*
X84964Y71042D02*
X87226Y73304D01*
X86095Y74435D01*
X85341Y74435D01*
X84587Y73681D01*
Y72926D01*
X85718Y71795D01*
X84964Y72549D02*
X83456D01*
X82702Y73304D02*
X81948Y74058D01*
X82325Y73681D01*
X84587Y75942D01*
X84587Y75188D01*
X82702Y77074D02*
Y77828D01*
X81948Y78582D01*
X81194Y78582D01*
X80817Y78205D01*
Y77451D01*
X81194Y77074D01*
X80817Y77451D01*
X80063D01*
X79686Y77074D01*
Y76319D01*
X80440Y75565D01*
X81194D01*
X111340Y175220D02*
X109078Y177482D01*
X107947Y176351D01*
X107947Y175597D01*
X108701Y174843D01*
X109455D01*
X110586Y175974D01*
X109832Y175220D02*
Y173712D01*
X109078Y172958D02*
X108324Y172204D01*
X108701Y172581D01*
X106439Y174843D01*
X107193Y174843D01*
X105685Y169565D02*
X107193Y171073D01*
X104177D01*
X103800Y171450D01*
X103800Y172204D01*
X104554Y172958D01*
X105308D01*
X107026Y178091D02*
X104764Y180353D01*
X103633Y179222D01*
X103633Y178468D01*
X104387Y177714D01*
X105141D01*
X106272Y178845D01*
X105518Y178091D02*
Y176583D01*
X104764Y175829D02*
X104010Y175075D01*
X104387Y175452D01*
X102125Y177714D01*
X102879Y177714D01*
Y173944D02*
X102125Y173190D01*
X102502Y173567D01*
X100240Y175829D01*
X100994D01*
X94255Y183637D02*
Y186836D01*
X92655D01*
X92122Y186302D01*
Y185236D01*
X92655Y184703D01*
X94255D01*
X93188D02*
X92122Y183637D01*
X91056D02*
X89989D01*
X90522D01*
Y186836D01*
X91056Y186302D01*
X88390D02*
X87857Y186836D01*
X86790D01*
X86257Y186302D01*
Y184170D01*
X86790Y183637D01*
X87857D01*
X88390Y184170D01*
Y186302D01*
X94398Y215034D02*
Y218233D01*
X92799D01*
X92265Y217700D01*
Y216634D01*
X92799Y216101D01*
X94398D01*
X93332D02*
X92265Y215034D01*
X91199Y215567D02*
X90666Y215034D01*
X89600D01*
X89066Y215567D01*
Y217700D01*
X89600Y218233D01*
X90666D01*
X91199Y217700D01*
Y217167D01*
X90666Y216634D01*
X89066D01*
X100697Y199877D02*
Y203076D01*
X99098D01*
X98565Y202543D01*
Y201476D01*
X99098Y200943D01*
X100697D01*
X99631D02*
X98565Y199877D01*
X97498Y202543D02*
X96965Y203076D01*
X95899D01*
X95366Y202543D01*
Y202010D01*
X95899Y201476D01*
X95366Y200943D01*
Y200410D01*
X95899Y199877D01*
X96965D01*
X97498Y200410D01*
Y200943D01*
X96965Y201476D01*
X97498Y202010D01*
Y202543D01*
X96965Y201476D02*
X95899D01*
X104355Y193906D02*
X101156D01*
Y192306D01*
X101690Y191773D01*
X102756D01*
X103289Y192306D01*
Y193906D01*
Y192840D02*
X104355Y191773D01*
X101156Y190707D02*
Y188574D01*
X101690D01*
X103822Y190707D01*
X104355D01*
X110556Y185048D02*
X107357D01*
Y183448D01*
X107890Y182915D01*
X108957D01*
X109490Y183448D01*
Y185048D01*
Y183981D02*
X110556Y182915D01*
X107357Y179716D02*
X107890Y180782D01*
X108957Y181849D01*
X110023D01*
X110556Y181316D01*
Y180249D01*
X110023Y179716D01*
X109490D01*
X108957Y180249D01*
Y181849D01*
X89433Y123687D02*
X87171Y125949D01*
X86040Y124818D01*
X86040Y124064D01*
X86794Y123310D01*
X87548D01*
X88679Y124441D01*
X87925Y123687D02*
Y122179D01*
X83401D02*
X84909Y123687D01*
X86040Y122556D01*
X84909Y122179D01*
X84532Y121802D01*
Y121048D01*
X85286Y120294D01*
X86040D01*
X86794Y121048D01*
Y121802D01*
X86874Y138746D02*
X84612Y141008D01*
X83481Y139877D01*
X83481Y139123D01*
X84235Y138369D01*
X84989D01*
X86120Y139500D01*
X85366Y138746D02*
Y137238D01*
X83481Y135353D02*
X81219Y137615D01*
X83481Y137615D01*
X81973Y136107D01*
X55422Y182652D02*
Y185852D01*
X53822D01*
X53289Y185318D01*
Y184252D01*
X53822Y183719D01*
X55422D01*
X54355D02*
X53289Y182652D01*
X52223Y185318D02*
X51690Y185852D01*
X50623D01*
X50090Y185318D01*
Y184785D01*
X50623Y184252D01*
X51156D01*
X50623D01*
X50090Y183719D01*
Y183186D01*
X50623Y182652D01*
X51690D01*
X52223Y183186D01*
X36918Y195842D02*
Y199040D01*
X35318D01*
X34785Y198507D01*
Y197441D01*
X35318Y196908D01*
X36918D01*
X35851D02*
X34785Y195842D01*
X31586D02*
X33719D01*
X31586Y197974D01*
Y198507D01*
X32119Y199040D01*
X33186D01*
X33719Y198507D01*
X116708Y192454D02*
X119907D01*
Y194053D01*
X119373Y194587D01*
X118307D01*
X117774Y194053D01*
Y192454D01*
Y193520D02*
X116708Y194587D01*
Y195653D02*
Y196719D01*
Y196186D01*
X119907D01*
X119373Y195653D01*
X100245Y130824D02*
X98737Y132332D01*
X98737Y133086D01*
X99491Y133840D01*
X100245D01*
X101753Y132332D01*
Y131578D01*
X100999Y130824D01*
X100622Y131955D02*
Y130447D01*
X100999Y130824D02*
X100245D01*
X97983Y131578D02*
X97229Y131578D01*
X96475Y130824D01*
X96475Y130070D01*
X96852Y129693D01*
X97606D01*
X97983Y130070D01*
X97606Y129693D01*
Y128939D01*
X97983Y128562D01*
X98737D01*
X99491Y129316D01*
Y130070D01*
X78198Y108580D02*
X76690Y110088D01*
X76690Y110842D01*
X77444Y111596D01*
X78198D01*
X79706Y110088D01*
Y109334D01*
X78952Y108580D01*
X78575Y109711D02*
Y108203D01*
X78952Y108580D02*
X78198D01*
X76313Y105941D02*
X77821Y107449D01*
X74805D01*
X74428Y107826D01*
X74428Y108580D01*
X75182Y109334D01*
X75936Y109334D01*
X67880Y98065D02*
X66372Y99573D01*
X66372Y100327D01*
X67126Y101081D01*
X67880D01*
X69388Y99573D01*
Y98819D01*
X68634Y98065D01*
X68257Y99196D02*
Y97688D01*
X68634Y98065D02*
X67880D01*
X67503Y96934D02*
X66749Y96180D01*
X67126Y96557D01*
X64864Y98819D01*
X65618Y98819D01*
X135950Y159933D02*
X132751D01*
Y162065D01*
Y165264D02*
Y163132D01*
X134883Y165264D01*
X135417D01*
X135950Y164731D01*
Y163665D01*
X135417Y163132D01*
X61598Y121241D02*
X63859Y118979D01*
X62352Y117471D01*
X61598Y116717D02*
X60843Y115963D01*
X61221Y116340D01*
X58959Y118602D01*
X59712Y118602D01*
X45341Y28076D02*
Y24877D01*
X43742D01*
X43209Y25410D01*
Y27543D01*
X43742Y28076D01*
X45341D01*
X42142Y24877D02*
X41076D01*
X41609D01*
Y28076D01*
X42142Y27543D01*
X49327Y31070D02*
X48794Y31603D01*
Y32669D01*
X49327Y33202D01*
X51460D01*
X51993Y32669D01*
Y31603D01*
X51460Y31070D01*
X49327Y30003D02*
X48794Y29470D01*
Y28404D01*
X49327Y27871D01*
X49861D01*
X50394Y28404D01*
Y28937D01*
Y28404D01*
X50927Y27871D01*
X51460D01*
X51993Y28404D01*
Y29470D01*
X51460Y30003D01*
X51993Y25205D02*
X48794D01*
X50394Y26804D01*
Y24672D01*
X72506Y37597D02*
X72506Y38351D01*
X73260Y39105D01*
X74014D01*
X75522Y37597D01*
Y36843D01*
X74768Y36089D01*
X74014D01*
X71752Y36843D02*
X70998Y36843D01*
X70244Y36089D01*
X70244Y35335D01*
X70621Y34958D01*
X71375D01*
X71752Y35335D01*
X71375Y34958D01*
Y34204D01*
X71752Y33827D01*
X72506D01*
X73260Y34581D01*
Y35335D01*
X69490Y34581D02*
X68736Y34581D01*
X67982Y33827D01*
Y33073D01*
X68359Y32696D01*
X69113D01*
X69490Y33073D01*
X69113Y32696D01*
Y31942D01*
X69490Y31565D01*
X70244D01*
X70998Y32319D01*
Y33073D01*
X122900Y187385D02*
X123433Y187918D01*
X124500D01*
X125033Y187385D01*
Y185253D01*
X124500Y184719D01*
X123433D01*
X122900Y185253D01*
X119701Y184719D02*
X121834D01*
X119701Y186852D01*
Y187385D01*
X120235Y187918D01*
X121301D01*
X121834Y187385D01*
X118635Y185253D02*
X118102Y184719D01*
X117036D01*
X116502Y185253D01*
Y187385D01*
X117036Y187918D01*
X118102D01*
X118635Y187385D01*
Y186852D01*
X118102Y186319D01*
X116502D01*
X47998Y180707D02*
X47998Y181461D01*
X48752Y182215D01*
X49506D01*
X51014Y180707D01*
Y179953D01*
X50260Y179199D01*
X49506D01*
X47621Y176560D02*
X49129Y178068D01*
X46113D01*
X45736Y178445D01*
X45736Y179199D01*
X46490Y179953D01*
X47244Y179953D01*
X44982Y177691D02*
X44228Y177691D01*
X43474Y176937D01*
Y176183D01*
X43851Y175806D01*
X44605D01*
Y175052D01*
X44982Y174675D01*
X45736D01*
X46490Y175429D01*
Y176183D01*
X46113Y176560D01*
X45359D01*
Y177314D01*
X44982Y177691D01*
X45359Y176560D02*
X44605Y175806D01*
X73293Y183955D02*
X73293Y184709D01*
X74047Y185463D01*
X74801D01*
X76309Y183955D01*
Y183201D01*
X75555Y182447D01*
X74801D01*
X72916Y179808D02*
X74424Y181316D01*
X71408D01*
X71031Y181693D01*
X71031Y182447D01*
X71785Y183201D01*
X72539Y183201D01*
X69900Y181316D02*
X68392Y179808D01*
X68769Y179431D01*
X71785D01*
X72162Y179054D01*
X65715Y159152D02*
X65715Y159906D01*
X66469Y160660D01*
X67223D01*
X68731Y159152D01*
Y158398D01*
X67977Y157644D01*
X67223D01*
X65338Y155005D02*
X66846Y156513D01*
X63830D01*
X63453Y156890D01*
X63453Y157644D01*
X64207Y158398D01*
X64961Y158398D01*
X60814Y155005D02*
X61945Y155382D01*
X63453D01*
X64207Y154628D01*
Y153874D01*
X63453Y153120D01*
X62699D01*
X62322Y153497D01*
Y154251D01*
X63453Y155382D01*
X76657Y189600D02*
X77190Y189067D01*
Y188000D01*
X76657Y187467D01*
X74524D01*
X73991Y188000D01*
Y189067D01*
X74524Y189600D01*
X73991Y192799D02*
Y190666D01*
X76124Y192799D01*
X76657D01*
X77190Y192265D01*
Y191199D01*
X76657Y190666D01*
X77190Y195998D02*
Y193865D01*
X75590D01*
X76124Y194931D01*
Y195464D01*
X75590Y195998D01*
X74524D01*
X73991Y195464D01*
Y194398D01*
X74524Y193865D01*
X84943Y172014D02*
X84189Y172014D01*
X83435Y172768D01*
Y173522D01*
X84943Y175030D01*
X85697D01*
X86451Y174276D01*
Y173522D01*
X89090Y171637D02*
X87582Y173145D01*
Y170129D01*
X87205Y169752D01*
X86451Y169752D01*
X85697Y170506D01*
X85697Y171260D01*
X90975Y169752D02*
X88713Y167490D01*
Y169752D01*
X90221Y168244D01*
X134826Y174934D02*
X135359Y174401D01*
Y173335D01*
X134826Y172802D01*
X132694D01*
X132160Y173335D01*
Y174401D01*
X132694Y174934D01*
X132160Y178133D02*
Y176001D01*
X134293Y178133D01*
X134826D01*
X135359Y177600D01*
Y176534D01*
X134826Y176001D01*
Y179200D02*
X135359Y179733D01*
Y180799D01*
X134826Y181332D01*
X134293D01*
X133760Y180799D01*
Y180266D01*
Y180799D01*
X133227Y181332D01*
X132694D01*
X132160Y180799D01*
Y179733D01*
X132694Y179200D01*
X69258Y153246D02*
X69258Y154000D01*
X70012Y154754D01*
X70766D01*
X72274Y153246D01*
Y152492D01*
X71520Y151738D01*
X70766D01*
X68881Y149099D02*
X70389Y150607D01*
X67373D01*
X66996Y150984D01*
X66996Y151738D01*
X67750Y152492D01*
X68504Y152492D01*
X66619Y146837D02*
X68127Y148345D01*
X65111D01*
X64734Y148722D01*
Y149476D01*
X65488Y150230D01*
X66242Y150230D01*
X59966Y201952D02*
X60499Y202485D01*
X61565D01*
X62098Y201952D01*
Y199820D01*
X61565Y199286D01*
X60499D01*
X59966Y199820D01*
X56767Y199286D02*
X58899D01*
X56767Y201419D01*
Y201952D01*
X57300Y202485D01*
X58366D01*
X58899Y201952D01*
X55700Y199286D02*
X54634D01*
X55167D01*
Y202485D01*
X55700Y201952D01*
X49743Y159004D02*
X49743Y159758D01*
X50497Y160512D01*
X51251D01*
X52759Y159004D01*
Y158250D01*
X52005Y157496D01*
X51251D01*
X49366Y154857D02*
X50874Y156365D01*
X47858D01*
X47481Y156742D01*
X47481Y157496D01*
X48235Y158250D01*
X48989Y158250D01*
X46727Y155988D02*
X45973Y155988D01*
X45219Y155234D01*
Y154480D01*
X46727Y152972D01*
X47481D01*
X48235Y153726D01*
Y154480D01*
X46727Y155988D01*
X77239Y53944D02*
X77239Y54698D01*
X77993Y55452D01*
X78747D01*
X80255Y53944D01*
Y53190D01*
X79501Y52436D01*
X78747D01*
X78370Y51305D02*
X77616Y50551D01*
X77993Y50928D01*
X75731Y53190D01*
X76485Y53190D01*
X76108Y49797D02*
Y49043D01*
X75354Y48289D01*
X74600D01*
X73092Y49797D01*
X73092Y50551D01*
X73846Y51305D01*
X74600D01*
X74977Y50928D01*
Y50174D01*
X73846Y49043D01*
X59751Y67348D02*
X60505Y67348D01*
X61259Y66594D01*
Y65840D01*
X59751Y64332D01*
X58997D01*
X58243Y65086D01*
Y65840D01*
X57112Y66217D02*
X56358Y66971D01*
X56735Y66594D01*
X58997Y68856D01*
X58997Y68102D01*
X57112Y69987D02*
Y70741D01*
X56358Y71495D01*
X55604Y71495D01*
X55227Y71118D01*
Y70364D01*
X54473D01*
X54096Y69987D01*
Y69233D01*
X54850Y68479D01*
X55604D01*
X55981Y68856D01*
Y69610D01*
X56735D01*
X57112Y69987D01*
X55981Y69610D02*
X55227Y70364D01*
X32388Y67742D02*
X33143Y67742D01*
X33896Y66988D01*
Y66234D01*
X32388Y64726D01*
X31635D01*
X30880Y65480D01*
Y66234D01*
X29750Y66611D02*
X28995Y67365D01*
X29372Y66988D01*
X31635Y69250D01*
X31634Y68496D01*
X30126Y70758D02*
X28618Y72266D01*
X28241Y71889D01*
Y68873D01*
X27864Y68496D01*
X30409Y94669D02*
X30942Y95202D01*
X32009D01*
X32542Y94669D01*
Y92536D01*
X32009Y92003D01*
X30942D01*
X30409Y92536D01*
X29343Y92003D02*
X28277D01*
X28810D01*
Y95202D01*
X29343Y94669D01*
X24545Y95202D02*
X25611Y94669D01*
X26677Y93602D01*
Y92536D01*
X26144Y92003D01*
X25078D01*
X24545Y92536D01*
Y93069D01*
X25078Y93602D01*
X26677D01*
X60874Y53160D02*
X60874Y53914D01*
X61629Y54668D01*
X62383D01*
X63890Y53160D01*
Y52406D01*
X63137Y51652D01*
X62383D01*
X62006Y50521D02*
X61251Y49767D01*
X61629Y50144D01*
X59367Y52406D01*
X60120Y52406D01*
X56350Y49390D02*
X57859Y50898D01*
X58990Y49767D01*
X57859Y49390D01*
X57481Y49013D01*
Y48259D01*
X58236Y47505D01*
X58990D01*
X59743Y48259D01*
Y49013D01*
X43510Y127092D02*
X44265Y127092D01*
X45019Y126338D01*
Y125584D01*
X43510Y124076D01*
X42757D01*
X42002Y124830D01*
Y125584D01*
X40872Y125961D02*
X40117Y126715D01*
X40494Y126338D01*
X42757Y128600D01*
X42757Y127846D01*
X37855Y128977D02*
X40117Y131239D01*
X40117Y128977D01*
X38609Y130485D01*
X38294Y122072D02*
X39048Y122072D01*
X39802Y121318D01*
Y120564D01*
X38294Y119056D01*
X37540D01*
X36786Y119810D01*
Y120564D01*
X35655Y120941D02*
X34901Y121695D01*
X35278Y121318D01*
X37540Y123580D01*
X37540Y122826D01*
X35655Y124711D02*
Y125465D01*
X34901Y126219D01*
X34147Y126219D01*
X33770Y125842D01*
Y125088D01*
X34147Y124711D01*
X33770Y125088D01*
X33016D01*
X32639Y124711D01*
Y123957D01*
X33393Y123203D01*
X34147D01*
X33471Y117348D02*
X34225Y117348D01*
X34979Y116594D01*
Y115840D01*
X33471Y114332D01*
X32717D01*
X31963Y115086D01*
Y115840D01*
X30832Y116217D02*
X30078Y116971D01*
X30455Y116594D01*
X32717Y118856D01*
X32717Y118102D01*
X27439Y119610D02*
X28947Y118102D01*
Y121118D01*
X29324Y121495D01*
X30078Y121495D01*
X30832Y120741D01*
Y119987D01*
X49303Y146086D02*
X49303Y146840D01*
X50057Y147594D01*
X50811D01*
X52319Y146086D01*
Y145332D01*
X51565Y144578D01*
X50811D01*
X50434Y143447D02*
X49680Y142693D01*
X50057Y143070D01*
X47795Y145332D01*
X48549Y145332D01*
Y141562D02*
X47795Y140808D01*
X48172Y141185D01*
X45910Y143447D01*
X46664D01*
X95577Y85458D02*
X96331Y85458D01*
X97085Y84704D01*
Y83950D01*
X95577Y82442D01*
X94823D01*
X94069Y83196D01*
Y83950D01*
X92938Y84327D02*
X92184Y85081D01*
X92561Y84704D01*
X94823Y86966D01*
X94823Y86212D01*
X92938Y88097D02*
Y88851D01*
X92184Y89605D01*
X91430Y89605D01*
X89922Y88097D01*
Y87343D01*
X90676Y86589D01*
X91430D01*
X92938Y88097D01*
X30627Y145718D02*
X30627Y146472D01*
X31381Y147226D01*
X32135D01*
X33643Y145718D01*
Y144964D01*
X32889Y144210D01*
X32135D01*
X31381Y143456D02*
Y142702D01*
X30627Y141948D01*
X29873D01*
X28365Y143456D01*
X28365Y144210D01*
X29119Y144964D01*
X29873Y144964D01*
X30250Y144587D01*
Y143833D01*
X29119Y142702D01*
X97458Y105363D02*
X97458Y106117D01*
X98212Y106871D01*
X98966D01*
X100474Y105363D01*
Y104609D01*
X99720Y103855D01*
X98966D01*
X96704Y104609D02*
X95950Y104609D01*
X95196Y103855D01*
X95196Y103101D01*
X95573Y102724D01*
X96327D01*
Y101970D01*
X96704Y101593D01*
X97458D01*
X98212Y102347D01*
Y103101D01*
X97835Y103478D01*
X97081D01*
Y104232D01*
X96704Y104609D01*
X97081Y103478D02*
X96327Y102724D01*
X73572Y157562D02*
X74326Y157562D01*
X75080Y156808D01*
Y156054D01*
X73572Y154546D01*
X72818D01*
X72064Y155300D01*
Y156054D01*
X73195Y158693D02*
X71687Y160201D01*
X71310Y159824D01*
Y156808D01*
X70933Y156431D01*
X107027Y116287D02*
X107027Y117041D01*
X107781Y117795D01*
X108535D01*
X110043Y116287D01*
Y115533D01*
X109289Y114779D01*
X108535D01*
X104388Y114402D02*
X105519Y114779D01*
X107027D01*
X107781Y114025D01*
Y113271D01*
X107027Y112517D01*
X106273D01*
X105896Y112894D01*
Y113648D01*
X107027Y114779D01*
X81151Y100771D02*
X81905Y100771D01*
X82659Y100017D01*
Y99263D01*
X81151Y97755D01*
X80397D01*
X79643Y98509D01*
Y99263D01*
X79266Y103410D02*
X80774Y101902D01*
X79643Y100771D01*
X79266Y101902D01*
X78889Y102279D01*
X78135D01*
X77381Y101525D01*
Y100771D01*
X78135Y100017D01*
X78889D01*
X112932Y122193D02*
X112932Y122947D01*
X113686Y123701D01*
X114440D01*
X115948Y122193D01*
Y121439D01*
X115194Y120685D01*
X114440D01*
X112932Y118423D02*
X110670Y120685D01*
X112932Y120685D01*
X111424Y119177D01*
X133710Y147720D02*
X134464Y147720D01*
X135218Y146966D01*
Y146212D01*
X133710Y144703D01*
X132956D01*
X132202Y145457D01*
Y146212D01*
X132956Y148474D02*
X132956Y149227D01*
X132202Y149981D01*
X131448Y149981D01*
X131071Y149604D01*
Y148851D01*
X131448Y148474D01*
X131071Y148851D01*
X130317D01*
X129940Y148474D01*
Y147720D01*
X130694Y146966D01*
X131448D01*
X119438Y161696D02*
X120192Y161696D01*
X120946Y160942D01*
Y160188D01*
X119438Y158680D01*
X118684D01*
X117930Y159434D01*
Y160188D01*
X115291Y162073D02*
X116799Y160565D01*
Y163581D01*
X117176Y163958D01*
X117930Y163958D01*
X118684Y163204D01*
X118684Y162450D01*
X77723Y162073D02*
X78477Y162073D01*
X79230Y161319D01*
Y160565D01*
X77723Y159057D01*
X76968D01*
X76214Y159811D01*
Y160565D01*
X75084Y160942D02*
X74330Y161696D01*
X74707Y161319D01*
X76968Y163581D01*
X76968Y162827D01*
M02*
