G04*
G04 #@! TF.GenerationSoftware,Altium Limited,Altium Designer,20.1.12 (249)*
G04*
G04 Layer_Color=8421504*
%FSLAX25Y25*%
%MOIN*%
G70*
G04*
G04 #@! TF.SameCoordinates,4DEFB819-F1CA-47B0-AC9B-A980181B1EFC*
G04*
G04*
G04 #@! TF.FilePolarity,Positive*
G04*
G01*
G75*
%ADD19R,0.05906X0.05709*%
%ADD20R,0.03543X0.03937*%
%ADD21R,0.03228X0.03504*%
%ADD22R,0.03740X0.03543*%
%ADD23R,0.03543X0.03740*%
%ADD24R,0.07000X0.03000*%
%ADD25R,0.07087X0.05118*%
%ADD26R,0.05709X0.05906*%
G04:AMPARAMS|DCode=27|XSize=21.65mil|YSize=31.5mil|CornerRadius=1.95mil|HoleSize=0mil|Usage=FLASHONLY|Rotation=270.000|XOffset=0mil|YOffset=0mil|HoleType=Round|Shape=RoundedRectangle|*
%AMROUNDEDRECTD27*
21,1,0.02165,0.02760,0,0,270.0*
21,1,0.01776,0.03150,0,0,270.0*
1,1,0.00390,-0.01380,-0.00888*
1,1,0.00390,-0.01380,0.00888*
1,1,0.00390,0.01380,0.00888*
1,1,0.00390,0.01380,-0.00888*
%
%ADD27ROUNDEDRECTD27*%
%ADD28R,0.09449X0.12205*%
%ADD29R,0.18000X0.15000*%
%ADD30R,0.03740X0.06693*%
%ADD31R,0.04000X0.09000*%
%ADD32O,0.06299X0.01181*%
%ADD33O,0.01181X0.06299*%
%ADD34R,0.04724X0.05512*%
D19*
X215500Y205142D02*
D03*
Y197858D02*
D03*
D20*
X237657Y148000D02*
D03*
X232343D02*
D03*
X268843Y180500D02*
D03*
X274158D02*
D03*
Y160000D02*
D03*
X268843D02*
D03*
X239843Y199000D02*
D03*
X245158D02*
D03*
X239843Y192500D02*
D03*
X245158D02*
D03*
D21*
X224500Y185850D02*
D03*
Y192150D02*
D03*
D22*
X263000Y173642D02*
D03*
Y166358D02*
D03*
X216500Y162642D02*
D03*
Y155358D02*
D03*
D23*
X232142Y197500D02*
D03*
X224858D02*
D03*
X232142Y202000D02*
D03*
X224858D02*
D03*
X164142Y164500D02*
D03*
X156858D02*
D03*
X164142Y189500D02*
D03*
X156858D02*
D03*
D24*
X203750Y159500D02*
D03*
Y164500D02*
D03*
Y169500D02*
D03*
Y174500D02*
D03*
Y179500D02*
D03*
Y184500D02*
D03*
Y189500D02*
D03*
Y194500D02*
D03*
X170000Y159500D02*
D03*
Y164500D02*
D03*
Y169500D02*
D03*
Y174500D02*
D03*
Y179500D02*
D03*
Y184500D02*
D03*
Y189500D02*
D03*
Y194500D02*
D03*
D25*
X169500Y219209D02*
D03*
Y207791D02*
D03*
D26*
X363358Y220500D02*
D03*
X370642D02*
D03*
X201358Y276000D02*
D03*
X208642D02*
D03*
X189642Y268000D02*
D03*
X182358D02*
D03*
D27*
X362169Y231000D02*
D03*
X370831Y234740D02*
D03*
Y227260D02*
D03*
D28*
X191500Y312500D02*
D03*
D29*
X184000Y250000D02*
D03*
X210000D02*
D03*
X162000Y245000D02*
D03*
X136000D02*
D03*
X210000Y224000D02*
D03*
X184000D02*
D03*
D30*
X194512Y276000D02*
D03*
X183488D02*
D03*
D31*
X169500Y327500D02*
D03*
X199500D02*
D03*
X209500D02*
D03*
X189500Y287500D02*
D03*
X169500D02*
D03*
X179500D02*
D03*
X199500D02*
D03*
X209500D02*
D03*
D32*
X224555Y180827D02*
D03*
Y178858D02*
D03*
Y176890D02*
D03*
Y174921D02*
D03*
Y172953D02*
D03*
Y170984D02*
D03*
Y169016D02*
D03*
Y167047D02*
D03*
Y165079D02*
D03*
Y163110D02*
D03*
Y161142D02*
D03*
Y159173D02*
D03*
X256445D02*
D03*
Y161142D02*
D03*
Y163110D02*
D03*
Y165079D02*
D03*
Y167047D02*
D03*
Y169016D02*
D03*
Y170984D02*
D03*
Y172953D02*
D03*
Y174921D02*
D03*
Y176890D02*
D03*
Y178858D02*
D03*
Y180827D02*
D03*
D33*
X229673Y154055D02*
D03*
X231642D02*
D03*
X233610D02*
D03*
X235579D02*
D03*
X237547D02*
D03*
X239516D02*
D03*
X241484D02*
D03*
X243453D02*
D03*
X245421D02*
D03*
X247390D02*
D03*
X249358D02*
D03*
X251327D02*
D03*
Y185945D02*
D03*
X249358D02*
D03*
X247390D02*
D03*
X245421D02*
D03*
X243453D02*
D03*
X241484D02*
D03*
X239516D02*
D03*
X237547D02*
D03*
X235579D02*
D03*
X233610D02*
D03*
X231642D02*
D03*
X229673D02*
D03*
D34*
X274453Y165866D02*
D03*
X268547D02*
D03*
X274453Y174134D02*
D03*
X268547D02*
D03*
M02*
