G04*
G04 #@! TF.GenerationSoftware,Altium Limited,Altium Designer,20.1.12 (249)*
G04*
G04 Layer_Color=128*
%FSLAX25Y25*%
%MOIN*%
G70*
G04*
G04 #@! TF.SameCoordinates,4DEFB819-F1CA-47B0-AC9B-A980181B1EFC*
G04*
G04*
G04 #@! TF.FilePolarity,Positive*
G04*
G01*
G75*
%ADD19R,0.05906X0.05709*%
%ADD22R,0.03740X0.03543*%
%ADD23R,0.03543X0.03740*%
%ADD26R,0.05709X0.05906*%
%ADD28R,0.09449X0.12205*%
%ADD79R,0.03504X0.03228*%
%ADD80R,0.11650X0.14300*%
%ADD81R,0.03500X0.05000*%
%ADD82R,0.09843X0.06693*%
%ADD83R,0.06500X0.06500*%
%ADD84R,0.13000X0.08661*%
%ADD85O,0.09449X0.02756*%
%ADD86R,0.09449X0.02756*%
%ADD87R,0.10630X0.06299*%
%ADD88R,0.06693X0.09843*%
%ADD89O,0.02362X0.04724*%
%ADD90R,0.02362X0.04724*%
%ADD91R,0.07087X0.08780*%
D19*
X210500Y159142D02*
D03*
Y151858D02*
D03*
X247500Y160142D02*
D03*
Y152858D02*
D03*
X254500Y160142D02*
D03*
Y152858D02*
D03*
X171500Y317142D02*
D03*
Y309858D02*
D03*
D22*
X276500Y218142D02*
D03*
Y210858D02*
D03*
X361000Y179858D02*
D03*
Y187142D02*
D03*
X163500Y257642D02*
D03*
Y250358D02*
D03*
X276500Y251142D02*
D03*
Y243858D02*
D03*
Y285142D02*
D03*
Y277858D02*
D03*
Y319642D02*
D03*
Y312358D02*
D03*
D23*
X158642Y257500D02*
D03*
X151358D02*
D03*
X180858Y324500D02*
D03*
X188142D02*
D03*
X213642D02*
D03*
X206358D02*
D03*
X202142D02*
D03*
X194858D02*
D03*
X276642Y289500D02*
D03*
X269358D02*
D03*
X276642Y324000D02*
D03*
X269358D02*
D03*
X276642Y255500D02*
D03*
X269358D02*
D03*
X276642Y222500D02*
D03*
X269358D02*
D03*
D26*
X180142Y299500D02*
D03*
X172858D02*
D03*
X190642Y241000D02*
D03*
X183358D02*
D03*
X218642Y315000D02*
D03*
X211358D02*
D03*
D28*
X191481Y312500D02*
D03*
D79*
X241350Y166500D02*
D03*
X247650D02*
D03*
D80*
X178225Y281100D02*
D03*
X156775D02*
D03*
D81*
X138760Y257563D02*
D03*
X146240D02*
D03*
X142500Y265437D02*
D03*
X260260Y212563D02*
D03*
X267740D02*
D03*
X264000Y220437D02*
D03*
X260260Y313563D02*
D03*
X267740D02*
D03*
X264000Y321437D02*
D03*
X260260Y245563D02*
D03*
X267740D02*
D03*
X264000Y253437D02*
D03*
X260260Y279563D02*
D03*
X267740D02*
D03*
X264000Y287437D02*
D03*
D82*
X255374Y332000D02*
D03*
X239626D02*
D03*
X255374Y298500D02*
D03*
X239626D02*
D03*
X255374Y264500D02*
D03*
X239626D02*
D03*
X255374Y231500D02*
D03*
X239626D02*
D03*
D83*
X191000Y295500D02*
D03*
D84*
X205000D02*
D03*
D85*
X202819Y320000D02*
D03*
Y315000D02*
D03*
Y310000D02*
D03*
Y305000D02*
D03*
X180181Y320000D02*
D03*
Y315000D02*
D03*
Y310000D02*
D03*
D86*
Y305000D02*
D03*
D87*
X162000Y321012D02*
D03*
Y309988D02*
D03*
X130500Y295988D02*
D03*
Y307012D02*
D03*
X142000Y295988D02*
D03*
Y307012D02*
D03*
D88*
X131500Y267626D02*
D03*
Y283374D02*
D03*
D89*
X183260Y258236D02*
D03*
X190740D02*
D03*
X183260Y248000D02*
D03*
X187000D02*
D03*
D90*
X190740D02*
D03*
D91*
X253248Y195500D02*
D03*
X241752D02*
D03*
X235748Y145500D02*
D03*
X224252D02*
D03*
M02*
