M48
;Layer_Color=9474304
;FILE_FORMAT=2:5
INCH,TZ
;TYPE=PLATED
T1F00S00C0.01200
T2F00S00C0.01600
T3F00S00C0.02500
T4F00S00C0.03000
T5F00S00C0.04000
T6F00S00C0.04016
T7F00S00C0.05000
T8F00S00C0.12000
%
T01
X243490Y147510
X246500Y147500
X241484Y159484
X235597Y159457
X231642Y159358
X230500Y165000
Y177000
Y181000
X219000Y176000
Y173000
Y170000
Y167000
Y159000
X209500Y185500
Y193000
X221000Y197500
Y202000
X236000Y198500
Y195500
Y192500
X251000Y181000
X249000Y177000
Y174000
Y171000
X261500Y179000
X276500Y226500
Y259500
Y293500
X240500Y241000
X207000Y261000
X190500Y263000
X183000
X164500Y194500
Y184500
Y169500
Y159500
X213500Y321000
X276500Y328000
T02
X209500Y164500
Y189500
T03
X224500Y155000
Y184500
X197000Y234500
X216000Y276000
Y282500
Y289000
X165500Y300500
X159500
T04
X189181Y309000
X193781
Y316000
X189181
T05
X370500Y185000
Y196800
Y263000
Y274800
Y286600
X252800Y287000
X241000
X240500Y253000
X252300
Y220000
X240500
X148000Y217600
X136200
Y205800
Y194000
Y182200
X148000
Y194000
Y205800
X151700Y229450
X143000Y275200
Y287000
X151700Y170350
X241000Y321000
X252800
T06
X349500Y162000
Y172000
Y182000
Y192000
Y202000
Y212000
Y222000
Y232000
Y242000
Y252000
Y262000
Y272000
Y282000
Y292000
Y302000
X289500
Y292000
Y282000
Y272000
Y262000
Y252000
Y242000
Y232000
Y222000
Y212000
Y202000
Y192000
Y182000
Y172000
Y162000
T07
X362800Y173200
Y208600
Y251200
Y298400
X264600Y294700
X264100Y260700
Y227700
X228700
Y260700
X229200Y294700
X150700Y298800
Y263400
X229200Y328700
X264600
T08
X141000Y152000
X371000
X141000Y324000
X371000
M30
