G04*
G04 #@! TF.GenerationSoftware,Altium Limited,Altium Designer,20.1.12 (249)*
G04*
G04 Layer_Physical_Order=1*
G04 Layer_Color=255*
%FSLAX25Y25*%
%MOIN*%
G70*
G04*
G04 #@! TF.SameCoordinates,4DEFB819-F1CA-47B0-AC9B-A980181B1EFC*
G04*
G04*
G04 #@! TF.FilePolarity,Positive*
G04*
G01*
G75*
%ADD12C,0.01000*%
%ADD16C,0.00500*%
%ADD19R,0.05906X0.05709*%
%ADD20R,0.03543X0.03937*%
%ADD21R,0.03228X0.03504*%
%ADD22R,0.03740X0.03543*%
%ADD23R,0.03543X0.03740*%
%ADD24R,0.07000X0.03000*%
%ADD25R,0.07087X0.05118*%
%ADD26R,0.05709X0.05906*%
G04:AMPARAMS|DCode=27|XSize=21.65mil|YSize=31.5mil|CornerRadius=1.95mil|HoleSize=0mil|Usage=FLASHONLY|Rotation=270.000|XOffset=0mil|YOffset=0mil|HoleType=Round|Shape=RoundedRectangle|*
%AMROUNDEDRECTD27*
21,1,0.02165,0.02760,0,0,270.0*
21,1,0.01776,0.03150,0,0,270.0*
1,1,0.00390,-0.01380,-0.00888*
1,1,0.00390,-0.01380,0.00888*
1,1,0.00390,0.01380,0.00888*
1,1,0.00390,0.01380,-0.00888*
%
%ADD27ROUNDEDRECTD27*%
%ADD28R,0.09449X0.12205*%
%ADD29R,0.18000X0.15000*%
%ADD30R,0.03740X0.06693*%
%ADD31R,0.04000X0.09000*%
%ADD32O,0.06299X0.01181*%
%ADD33O,0.01181X0.06299*%
%ADD34R,0.04724X0.05512*%
%ADD58C,0.03200*%
%ADD59C,0.04000*%
%ADD61C,0.02500*%
%ADD62C,0.01500*%
%ADD63C,0.03000*%
%ADD64C,0.06000*%
%ADD65C,0.02000*%
%ADD66C,0.05000*%
%ADD67C,0.04000*%
%ADD68C,0.09000*%
%ADD69C,0.05700*%
%ADD70R,0.30500X0.69000*%
%ADD71R,0.06024X0.06024*%
%ADD72C,0.06024*%
%ADD73C,0.07500*%
%ADD74C,0.09000*%
%ADD75C,0.25000*%
%ADD76C,0.04500*%
%ADD77C,0.02400*%
%ADD78C,0.03000*%
G36*
X389500Y136500D02*
X123000D01*
Y338500D01*
X389500D01*
Y136500D01*
D02*
G37*
%LPC*%
G36*
X199000Y333000D02*
X196500D01*
Y332500D01*
X199000D01*
Y333000D01*
D02*
G37*
G36*
X202500D02*
X200000D01*
Y332500D01*
X202000D01*
Y328000D01*
X202500D01*
Y333000D01*
D02*
G37*
G36*
X276500Y330243D02*
X275642Y330072D01*
X274914Y329586D01*
X274428Y328858D01*
X274257Y328000D01*
X274428Y327142D01*
X274914Y326414D01*
X275642Y325928D01*
X276500Y325757D01*
X277358Y325928D01*
X278086Y326414D01*
X278572Y327142D01*
X278743Y328000D01*
X278572Y328858D01*
X278086Y329586D01*
X277358Y330072D01*
X276500Y330243D01*
D02*
G37*
G36*
X264600Y332230D02*
X263686Y332110D01*
X262835Y331757D01*
X262104Y331196D01*
X261543Y330465D01*
X261190Y329614D01*
X261070Y328700D01*
X261190Y327786D01*
X261543Y326935D01*
X262104Y326204D01*
X262835Y325643D01*
X263686Y325290D01*
X264600Y325170D01*
X265514Y325290D01*
X266365Y325643D01*
X267096Y326204D01*
X267657Y326935D01*
X268010Y327786D01*
X268130Y328700D01*
X268010Y329614D01*
X267657Y330465D01*
X267096Y331196D01*
X266365Y331757D01*
X265514Y332110D01*
X264600Y332230D01*
D02*
G37*
G36*
X229200D02*
X228286Y332110D01*
X227435Y331757D01*
X226704Y331196D01*
X226143Y330465D01*
X225790Y329614D01*
X225670Y328700D01*
X225790Y327786D01*
X226143Y326935D01*
X226704Y326204D01*
X227435Y325643D01*
X228286Y325290D01*
X229200Y325170D01*
X230114Y325290D01*
X230965Y325643D01*
X231696Y326204D01*
X232257Y326935D01*
X232610Y327786D01*
X232730Y328700D01*
X232610Y329614D01*
X232257Y330465D01*
X231696Y331196D01*
X230965Y331757D01*
X230114Y332110D01*
X229200Y332230D01*
D02*
G37*
G36*
X202500Y327000D02*
X202000D01*
Y322000D01*
X202500D01*
Y327000D01*
D02*
G37*
G36*
X172500Y333000D02*
X166500D01*
Y322000D01*
X172500D01*
Y333000D01*
D02*
G37*
G36*
X212500D02*
X206500D01*
Y322000D01*
X210967D01*
X211356Y321500D01*
X211257Y321000D01*
X211428Y320142D01*
X211914Y319414D01*
X212642Y318928D01*
X213500Y318757D01*
X214358Y318928D01*
X215086Y319414D01*
X215572Y320142D01*
X215743Y321000D01*
X215572Y321858D01*
X215086Y322586D01*
X214358Y323072D01*
X213500Y323243D01*
X213000Y323144D01*
X212500Y323533D01*
Y333000D01*
D02*
G37*
G36*
X252800Y326548D02*
X251364Y326358D01*
X250026Y325804D01*
X248877Y324923D01*
X247996Y323774D01*
X247442Y322436D01*
X247252Y321000D01*
X247442Y319564D01*
X247996Y318226D01*
X248877Y317077D01*
X250026Y316196D01*
X251364Y315642D01*
X252800Y315453D01*
X254236Y315642D01*
X255574Y316196D01*
X256723Y317077D01*
X257604Y318226D01*
X258158Y319564D01*
X258348Y321000D01*
X258158Y322436D01*
X257604Y323774D01*
X256723Y324923D01*
X255574Y325804D01*
X254236Y326358D01*
X252800Y326548D01*
D02*
G37*
G36*
X186500Y319602D02*
X185776D01*
Y313000D01*
X186500D01*
Y319602D01*
D02*
G37*
G36*
X371000Y337542D02*
X368882Y337375D01*
X366815Y336879D01*
X364852Y336066D01*
X363040Y334956D01*
X361424Y333576D01*
X360045Y331960D01*
X358934Y330148D01*
X358121Y328185D01*
X357625Y326118D01*
X357458Y324000D01*
X357625Y321882D01*
X358121Y319815D01*
X358934Y317852D01*
X360045Y316040D01*
X361424Y314424D01*
X363040Y313045D01*
X364852Y311934D01*
X366815Y311121D01*
X368882Y310625D01*
X371000Y310458D01*
X373118Y310625D01*
X375185Y311121D01*
X377148Y311934D01*
X378960Y313045D01*
X380575Y314424D01*
X381956Y316040D01*
X383066Y317852D01*
X383879Y319815D01*
X384375Y321882D01*
X384542Y324000D01*
X384375Y326118D01*
X383879Y328185D01*
X383066Y330148D01*
X381956Y331960D01*
X380575Y333576D01*
X378960Y334956D01*
X377148Y336066D01*
X375185Y336879D01*
X373118Y337375D01*
X371000Y337542D01*
D02*
G37*
G36*
X141000D02*
X138882Y337375D01*
X136815Y336879D01*
X134852Y336066D01*
X133040Y334956D01*
X131424Y333576D01*
X130044Y331960D01*
X128934Y330148D01*
X128121Y328185D01*
X127625Y326118D01*
X127458Y324000D01*
X127625Y321882D01*
X128121Y319815D01*
X128934Y317852D01*
X130044Y316040D01*
X131424Y314424D01*
X133040Y313045D01*
X134852Y311934D01*
X136815Y311121D01*
X138882Y310625D01*
X141000Y310458D01*
X143118Y310625D01*
X145185Y311121D01*
X147148Y311934D01*
X148960Y313045D01*
X150575Y314424D01*
X151955Y316040D01*
X153066Y317852D01*
X153879Y319815D01*
X154375Y321882D01*
X154542Y324000D01*
X154375Y326118D01*
X153879Y328185D01*
X153066Y330148D01*
X151955Y331960D01*
X150575Y333576D01*
X148960Y334956D01*
X147148Y336066D01*
X145185Y336879D01*
X143118Y337375D01*
X141000Y337542D01*
D02*
G37*
G36*
X186500Y312000D02*
X185776D01*
Y305398D01*
X186500D01*
Y312000D01*
D02*
G37*
G36*
X353512Y306012D02*
X345488D01*
Y297988D01*
X353512D01*
Y306012D01*
D02*
G37*
G36*
X293512D02*
X285488D01*
Y297988D01*
X293512D01*
Y306012D01*
D02*
G37*
G36*
X362800Y301930D02*
X361886Y301810D01*
X361035Y301457D01*
X360304Y300896D01*
X359743Y300165D01*
X359390Y299314D01*
X359270Y298400D01*
X359390Y297486D01*
X359743Y296635D01*
X360304Y295904D01*
X361035Y295343D01*
X361886Y294990D01*
X362800Y294870D01*
X363714Y294990D01*
X364565Y295343D01*
X365296Y295904D01*
X365857Y296635D01*
X366210Y297486D01*
X366330Y298400D01*
X366210Y299314D01*
X365857Y300165D01*
X365296Y300896D01*
X364565Y301457D01*
X363714Y301810D01*
X362800Y301930D01*
D02*
G37*
G36*
X350000Y295981D02*
Y292500D01*
X353481D01*
X353409Y293047D01*
X353004Y294023D01*
X352361Y294861D01*
X351523Y295504D01*
X350547Y295909D01*
X350000Y295981D01*
D02*
G37*
G36*
X349000D02*
X348453Y295909D01*
X347477Y295504D01*
X346639Y294861D01*
X345996Y294023D01*
X345591Y293047D01*
X345519Y292500D01*
X349000D01*
Y295981D01*
D02*
G37*
G36*
X276500Y295743D02*
X275642Y295572D01*
X274914Y295086D01*
X274428Y294358D01*
X274257Y293500D01*
X274428Y292642D01*
X274914Y291914D01*
X275642Y291428D01*
X276500Y291257D01*
X277358Y291428D01*
X278086Y291914D01*
X278572Y292642D01*
X278743Y293500D01*
X278572Y294358D01*
X278086Y295086D01*
X277358Y295572D01*
X276500Y295743D01*
D02*
G37*
G36*
X264600Y298230D02*
X263686Y298110D01*
X262835Y297757D01*
X262104Y297196D01*
X261543Y296465D01*
X261190Y295614D01*
X261070Y294700D01*
X261190Y293786D01*
X261543Y292935D01*
X262104Y292204D01*
X262835Y291643D01*
X263686Y291290D01*
X264600Y291170D01*
X265514Y291290D01*
X266365Y291643D01*
X267096Y292204D01*
X267657Y292935D01*
X268010Y293786D01*
X268130Y294700D01*
X268010Y295614D01*
X267657Y296465D01*
X267096Y297196D01*
X266365Y297757D01*
X265514Y298110D01*
X264600Y298230D01*
D02*
G37*
G36*
X229200D02*
X228286Y298110D01*
X227435Y297757D01*
X226704Y297196D01*
X226143Y296465D01*
X225790Y295614D01*
X225670Y294700D01*
X225790Y293786D01*
X226143Y292935D01*
X226704Y292204D01*
X227435Y291643D01*
X228286Y291290D01*
X229200Y291170D01*
X230114Y291290D01*
X230965Y291643D01*
X231696Y292204D01*
X232257Y292935D01*
X232610Y293786D01*
X232730Y294700D01*
X232610Y295614D01*
X232257Y296465D01*
X231696Y297196D01*
X230965Y297757D01*
X230114Y298110D01*
X229200Y298230D01*
D02*
G37*
G36*
X353481Y291500D02*
X350000D01*
Y288019D01*
X350547Y288091D01*
X351523Y288496D01*
X352361Y289139D01*
X353004Y289977D01*
X353409Y290953D01*
X353481Y291500D01*
D02*
G37*
G36*
X349000D02*
X345519D01*
X345591Y290953D01*
X345996Y289977D01*
X346639Y289139D01*
X347477Y288496D01*
X348453Y288091D01*
X349000Y288019D01*
Y291500D01*
D02*
G37*
G36*
X289500Y296046D02*
X288453Y295909D01*
X287477Y295504D01*
X286639Y294861D01*
X285996Y294023D01*
X285591Y293047D01*
X285454Y292000D01*
X285591Y290953D01*
X285996Y289977D01*
X286639Y289139D01*
X287477Y288496D01*
X288453Y288091D01*
X289500Y287954D01*
X290547Y288091D01*
X291523Y288496D01*
X292361Y289139D01*
X293004Y289977D01*
X293409Y290953D01*
X293546Y292000D01*
X293409Y293047D01*
X293004Y294023D01*
X292361Y294861D01*
X291523Y295504D01*
X290547Y295909D01*
X289500Y296046D01*
D02*
G37*
G36*
X371000Y292082D02*
Y287100D01*
X375982D01*
X375858Y288036D01*
X375304Y289374D01*
X374423Y290523D01*
X373274Y291404D01*
X371936Y291958D01*
X371000Y292082D01*
D02*
G37*
G36*
X370000D02*
X369064Y291958D01*
X367726Y291404D01*
X366577Y290523D01*
X365696Y289374D01*
X365142Y288036D01*
X365018Y287100D01*
X370000D01*
Y292082D01*
D02*
G37*
G36*
X252800Y292547D02*
X251364Y292358D01*
X250026Y291804D01*
X248877Y290923D01*
X247996Y289774D01*
X247442Y288436D01*
X247252Y287000D01*
X247442Y285564D01*
X247996Y284226D01*
X248877Y283077D01*
X250026Y282196D01*
X251364Y281642D01*
X252800Y281452D01*
X254236Y281642D01*
X255574Y282196D01*
X256723Y283077D01*
X257604Y284226D01*
X258158Y285564D01*
X258348Y287000D01*
X258158Y288436D01*
X257604Y289774D01*
X256723Y290923D01*
X255574Y291804D01*
X254236Y292358D01*
X252800Y292547D01*
D02*
G37*
G36*
X143000D02*
X141564Y292358D01*
X140226Y291804D01*
X139077Y290923D01*
X138196Y289774D01*
X137642Y288436D01*
X137452Y287000D01*
X137642Y285564D01*
X138196Y284226D01*
X139077Y283077D01*
X140226Y282196D01*
X141564Y281642D01*
X143000Y281452D01*
X144436Y281642D01*
X145774Y282196D01*
X146923Y283077D01*
X147804Y284226D01*
X148358Y285564D01*
X148547Y287000D01*
X148358Y288436D01*
X147804Y289774D01*
X146923Y290923D01*
X145774Y291804D01*
X144436Y292358D01*
X143000Y292547D01*
D02*
G37*
G36*
X375982Y286100D02*
X371000D01*
Y281118D01*
X371936Y281242D01*
X373274Y281796D01*
X374423Y282677D01*
X375304Y283826D01*
X375858Y285164D01*
X375982Y286100D01*
D02*
G37*
G36*
X370000D02*
X365018D01*
X365142Y285164D01*
X365696Y283826D01*
X366577Y282677D01*
X367726Y281796D01*
X369064Y281242D01*
X370000Y281118D01*
Y286100D01*
D02*
G37*
G36*
X349500Y286046D02*
X348453Y285909D01*
X347477Y285504D01*
X346639Y284861D01*
X345996Y284023D01*
X345591Y283047D01*
X345454Y282000D01*
X345591Y280953D01*
X345996Y279977D01*
X346639Y279139D01*
X347477Y278496D01*
X348453Y278091D01*
X349500Y277954D01*
X350547Y278091D01*
X351523Y278496D01*
X352361Y279139D01*
X353004Y279977D01*
X353409Y280953D01*
X353546Y282000D01*
X353409Y283047D01*
X353004Y284023D01*
X352361Y284861D01*
X351523Y285504D01*
X350547Y285909D01*
X349500Y286046D01*
D02*
G37*
G36*
X289500D02*
X288453Y285909D01*
X287477Y285504D01*
X286639Y284861D01*
X285996Y284023D01*
X285591Y283047D01*
X285454Y282000D01*
X285591Y280953D01*
X285996Y279977D01*
X286639Y279139D01*
X287477Y278496D01*
X288453Y278091D01*
X289500Y277954D01*
X290547Y278091D01*
X291523Y278496D01*
X292361Y279139D01*
X293004Y279977D01*
X293409Y280953D01*
X293546Y282000D01*
X293409Y283047D01*
X293004Y284023D01*
X292361Y284861D01*
X291523Y285504D01*
X290547Y285909D01*
X289500Y286046D01*
D02*
G37*
G36*
X290000Y275981D02*
Y272500D01*
X293481D01*
X293409Y273047D01*
X293004Y274023D01*
X292361Y274861D01*
X291523Y275504D01*
X290547Y275909D01*
X290000Y275981D01*
D02*
G37*
G36*
X289000D02*
X288453Y275909D01*
X287477Y275504D01*
X286639Y274861D01*
X285996Y274023D01*
X285591Y273047D01*
X285519Y272500D01*
X289000D01*
Y275981D01*
D02*
G37*
G36*
X241000Y326548D02*
X239564Y326358D01*
X238226Y325804D01*
X237077Y324923D01*
X236196Y323774D01*
X235642Y322436D01*
X235453Y321000D01*
X235642Y319564D01*
X235957Y318803D01*
Y289197D01*
X235642Y288436D01*
X235453Y287000D01*
X235642Y285564D01*
X236123Y284402D01*
X223100Y271379D01*
X222509D01*
X222406Y271522D01*
X222288Y271879D01*
X222442Y272110D01*
X222520Y272500D01*
X222520Y292000D01*
X222442Y292390D01*
X222221Y292721D01*
X221890Y292942D01*
X221500Y293020D01*
X202000Y293020D01*
Y293000D01*
X196500D01*
Y292098D01*
X196500Y292098D01*
X196500Y279500D01*
X204500D01*
X204500Y272500D01*
X191642D01*
Y271953D01*
X186520D01*
Y272500D01*
X186500D01*
Y293000D01*
X186000Y292869D01*
X185890Y292942D01*
X185500Y293020D01*
X171020D01*
Y305500D01*
X170942Y305890D01*
X170721Y306221D01*
X170390Y306442D01*
X170000Y306520D01*
X155000D01*
X154610Y306442D01*
X154279Y306221D01*
X154058Y305890D01*
X153980Y305500D01*
Y301096D01*
X153480Y300926D01*
X153196Y301296D01*
X152465Y301857D01*
X151614Y302210D01*
X150700Y302330D01*
X149786Y302210D01*
X148935Y301857D01*
X148204Y301296D01*
X147643Y300565D01*
X147290Y299714D01*
X147170Y298800D01*
X147290Y297886D01*
X147643Y297035D01*
X148204Y296304D01*
X148935Y295743D01*
X149786Y295390D01*
X150700Y295270D01*
X151614Y295390D01*
X152465Y295743D01*
X153196Y296304D01*
X153480Y296674D01*
X153980Y296504D01*
Y292000D01*
Y290000D01*
Y265696D01*
X153480Y265526D01*
X153196Y265896D01*
X152465Y266457D01*
X151614Y266810D01*
X150700Y266930D01*
X149786Y266810D01*
X148935Y266457D01*
X148204Y265896D01*
X147643Y265165D01*
X147290Y264314D01*
X147170Y263400D01*
X147290Y262486D01*
X147643Y261635D01*
X148204Y260904D01*
X148935Y260343D01*
X149786Y259990D01*
X150700Y259870D01*
X151614Y259990D01*
X152465Y260343D01*
X153196Y260904D01*
X153480Y261274D01*
X153980Y261104D01*
Y253500D01*
X152000D01*
Y236500D01*
X153980D01*
Y232112D01*
X153480Y231865D01*
X153213Y232070D01*
X152483Y232373D01*
X151700Y232476D01*
X150917Y232373D01*
X150187Y232070D01*
X150020Y231942D01*
X149520Y232189D01*
Y252500D01*
X149442Y252890D01*
X149221Y253221D01*
X148890Y253442D01*
X148500Y253520D01*
X127000D01*
X126901Y253500D01*
X126000D01*
Y252599D01*
X125980Y252500D01*
Y212000D01*
X126058Y211610D01*
X126279Y211279D01*
X126610Y211058D01*
X127000Y210980D01*
X135327D01*
X135360Y210480D01*
X134960Y210428D01*
X133805Y209949D01*
X132812Y209188D01*
X132051Y208195D01*
X131572Y207040D01*
X131409Y205800D01*
X131572Y204560D01*
X132051Y203404D01*
X132812Y202412D01*
X133805Y201651D01*
X134960Y201172D01*
X136200Y201009D01*
X137440Y201172D01*
X138595Y201651D01*
X139588Y202412D01*
X140349Y203404D01*
X140828Y204560D01*
X140991Y205800D01*
X140828Y207040D01*
X140349Y208195D01*
X139588Y209188D01*
X138595Y209949D01*
X137440Y210428D01*
X137040Y210480D01*
X137073Y210980D01*
X147127D01*
X147160Y210480D01*
X146760Y210428D01*
X145605Y209949D01*
X144612Y209188D01*
X143851Y208195D01*
X143372Y207040D01*
X143209Y205800D01*
X143372Y204560D01*
X143851Y203404D01*
X144612Y202412D01*
X145605Y201651D01*
X146760Y201172D01*
X148000Y201009D01*
X149240Y201172D01*
X150396Y201651D01*
X151388Y202412D01*
X152149Y203404D01*
X152628Y204560D01*
X152791Y205800D01*
X152628Y207040D01*
X152149Y208195D01*
X151388Y209188D01*
X150396Y209949D01*
X149240Y210428D01*
X148840Y210480D01*
X148873Y210980D01*
X153500D01*
X153890Y211058D01*
X154221Y211279D01*
X154442Y211610D01*
X154520Y212000D01*
Y221566D01*
X155000Y221980D01*
X164957D01*
Y219709D01*
X169500D01*
Y219209D01*
X170000D01*
Y215650D01*
X174000D01*
Y215500D01*
X194000D01*
Y216901D01*
X194020Y217000D01*
Y232224D01*
X194520Y232394D01*
X194682Y232182D01*
X195361Y231661D01*
X196152Y231334D01*
X197000Y231222D01*
X197848Y231334D01*
X198639Y231661D01*
X199257Y232135D01*
X199658Y232366D01*
X199658Y232366D01*
X200000Y232250D01*
X200000Y232080D01*
X200000Y232080D01*
X200000Y232080D01*
Y215500D01*
X220000D01*
Y216470D01*
X236276D01*
X236577Y216077D01*
X237726Y215196D01*
X239064Y214642D01*
X240500Y214453D01*
X241936Y214642D01*
X243274Y215196D01*
X244423Y216077D01*
X245304Y217226D01*
X245858Y218564D01*
X246047Y220000D01*
X245858Y221436D01*
X245304Y222774D01*
X244423Y223923D01*
X243274Y224804D01*
X241936Y225358D01*
X240500Y225548D01*
X239064Y225358D01*
X237726Y224804D01*
X236577Y223923D01*
X236276Y223530D01*
X220000D01*
Y232500D01*
X200415D01*
X200192Y232500D01*
X200046Y232650D01*
X199966Y232789D01*
X199875Y232948D01*
X200166Y233652D01*
X200278Y234500D01*
X200166Y235348D01*
X199839Y236139D01*
X199318Y236818D01*
X198639Y237339D01*
X197848Y237666D01*
X197000Y237778D01*
X196152Y237666D01*
X195361Y237339D01*
X194682Y236818D01*
X194520Y236606D01*
X194020Y236776D01*
Y250000D01*
X194000Y250098D01*
Y258500D01*
X186520D01*
Y264047D01*
X187998D01*
X188366Y263547D01*
X188257Y263000D01*
X188428Y262142D01*
X188914Y261414D01*
X189642Y260928D01*
X190500Y260757D01*
X191358Y260928D01*
X192086Y261414D01*
X192572Y262142D01*
X192743Y263000D01*
X192634Y263547D01*
X193002Y264047D01*
X193496D01*
Y264621D01*
X224500D01*
X225375Y264736D01*
X226189Y265074D01*
X226889Y265611D01*
X242758Y281479D01*
X243090Y281913D01*
X243774Y282196D01*
X244923Y283077D01*
X245804Y284226D01*
X246358Y285564D01*
X246548Y287000D01*
X246358Y288436D01*
X246043Y289197D01*
Y318803D01*
X246358Y319564D01*
X246548Y321000D01*
X246358Y322436D01*
X245804Y323774D01*
X244923Y324923D01*
X243774Y325804D01*
X242436Y326358D01*
X241000Y326548D01*
D02*
G37*
G36*
X143000Y280748D02*
X141564Y280558D01*
X140226Y280004D01*
X139077Y279123D01*
X138196Y277974D01*
X137642Y276636D01*
X137452Y275200D01*
X137642Y273764D01*
X138196Y272426D01*
X139077Y271277D01*
X140226Y270396D01*
X141564Y269842D01*
X143000Y269653D01*
X144436Y269842D01*
X145774Y270396D01*
X146923Y271277D01*
X147804Y272426D01*
X148358Y273764D01*
X148547Y275200D01*
X148358Y276636D01*
X147804Y277974D01*
X146923Y279123D01*
X145774Y280004D01*
X144436Y280558D01*
X143000Y280748D01*
D02*
G37*
G36*
X370500Y280347D02*
X369064Y280158D01*
X367726Y279604D01*
X366577Y278723D01*
X365696Y277574D01*
X365603Y277349D01*
X362800D01*
X361824Y277155D01*
X360998Y276602D01*
X350332Y265937D01*
X349500Y266046D01*
X348453Y265909D01*
X347477Y265504D01*
X346639Y264861D01*
X345996Y264023D01*
X345591Y263047D01*
X345454Y262000D01*
X345591Y260953D01*
X345996Y259977D01*
X346639Y259139D01*
X347477Y258496D01*
X348453Y258091D01*
X349500Y257954D01*
X350547Y258091D01*
X351523Y258496D01*
X352361Y259139D01*
X353004Y259977D01*
X353409Y260953D01*
X353538Y261933D01*
X363856Y272251D01*
X365603D01*
X365696Y272026D01*
X366577Y270877D01*
X367726Y269996D01*
X369064Y269442D01*
X370500Y269252D01*
X371936Y269442D01*
X373274Y269996D01*
X374423Y270877D01*
X375304Y272026D01*
X375858Y273364D01*
X376047Y274800D01*
X375858Y276236D01*
X375304Y277574D01*
X374423Y278723D01*
X373274Y279604D01*
X371936Y280158D01*
X370500Y280347D01*
D02*
G37*
G36*
X293481Y271500D02*
X290000D01*
Y268019D01*
X290547Y268091D01*
X291523Y268496D01*
X292361Y269139D01*
X293004Y269977D01*
X293409Y270953D01*
X293481Y271500D01*
D02*
G37*
G36*
X289000D02*
X285519D01*
X285591Y270953D01*
X285996Y269977D01*
X286639Y269139D01*
X287477Y268496D01*
X288453Y268091D01*
X289000Y268019D01*
Y271500D01*
D02*
G37*
G36*
X349500Y276046D02*
X348453Y275909D01*
X347477Y275504D01*
X346639Y274861D01*
X345996Y274023D01*
X345591Y273047D01*
X345454Y272000D01*
X345591Y270953D01*
X345996Y269977D01*
X346639Y269139D01*
X347477Y268496D01*
X348453Y268091D01*
X349500Y267954D01*
X350547Y268091D01*
X351523Y268496D01*
X352361Y269139D01*
X353004Y269977D01*
X353409Y270953D01*
X353546Y272000D01*
X353409Y273047D01*
X353004Y274023D01*
X352361Y274861D01*
X351523Y275504D01*
X350547Y275909D01*
X349500Y276046D01*
D02*
G37*
G36*
X289500Y266046D02*
X288453Y265909D01*
X287477Y265504D01*
X286639Y264861D01*
X285996Y264023D01*
X285591Y263047D01*
X285454Y262000D01*
X285591Y260953D01*
X285996Y259977D01*
X286639Y259139D01*
X287477Y258496D01*
X288453Y258091D01*
X289500Y257954D01*
X290547Y258091D01*
X291523Y258496D01*
X292361Y259139D01*
X293004Y259977D01*
X293409Y260953D01*
X293546Y262000D01*
X293409Y263047D01*
X293004Y264023D01*
X292361Y264861D01*
X291523Y265504D01*
X290547Y265909D01*
X289500Y266046D01*
D02*
G37*
G36*
X276500Y261743D02*
X275642Y261572D01*
X274914Y261086D01*
X274428Y260358D01*
X274257Y259500D01*
X274428Y258642D01*
X274914Y257914D01*
X275642Y257428D01*
X276500Y257257D01*
X277358Y257428D01*
X278086Y257914D01*
X278572Y258642D01*
X278743Y259500D01*
X278572Y260358D01*
X278086Y261086D01*
X277358Y261572D01*
X276500Y261743D01*
D02*
G37*
G36*
X264100Y264230D02*
X263186Y264110D01*
X262335Y263757D01*
X261604Y263196D01*
X261043Y262465D01*
X260690Y261614D01*
X260570Y260700D01*
X260690Y259786D01*
X261043Y258935D01*
X261604Y258204D01*
X262335Y257643D01*
X263186Y257290D01*
X264100Y257170D01*
X265014Y257290D01*
X265865Y257643D01*
X266596Y258204D01*
X267157Y258935D01*
X267510Y259786D01*
X267630Y260700D01*
X267510Y261614D01*
X267157Y262465D01*
X266596Y263196D01*
X265865Y263757D01*
X265014Y264110D01*
X264100Y264230D01*
D02*
G37*
G36*
X228700D02*
X227786Y264110D01*
X226935Y263757D01*
X226204Y263196D01*
X225643Y262465D01*
X225290Y261614D01*
X225170Y260700D01*
X225290Y259786D01*
X225643Y258935D01*
X226204Y258204D01*
X226935Y257643D01*
X227786Y257290D01*
X228700Y257170D01*
X229614Y257290D01*
X230465Y257643D01*
X231196Y258204D01*
X231757Y258935D01*
X232110Y259786D01*
X232230Y260700D01*
X232110Y261614D01*
X231757Y262465D01*
X231196Y263196D01*
X230465Y263757D01*
X229614Y264110D01*
X228700Y264230D01*
D02*
G37*
G36*
X289500Y256046D02*
X288453Y255909D01*
X287477Y255504D01*
X286639Y254861D01*
X285996Y254023D01*
X285591Y253047D01*
X285454Y252000D01*
X285591Y250953D01*
X285996Y249977D01*
X286639Y249139D01*
X287477Y248496D01*
X288453Y248091D01*
X289500Y247954D01*
X290547Y248091D01*
X291523Y248496D01*
X292361Y249139D01*
X293004Y249977D01*
X293409Y250953D01*
X293546Y252000D01*
X293409Y253047D01*
X293004Y254023D01*
X292361Y254861D01*
X291523Y255504D01*
X290547Y255909D01*
X289500Y256046D01*
D02*
G37*
G36*
X362800Y254730D02*
X361886Y254610D01*
X361035Y254257D01*
X360304Y253696D01*
X359743Y252965D01*
X359390Y252114D01*
X359270Y251200D01*
X359390Y250286D01*
X359743Y249435D01*
X360304Y248704D01*
X361035Y248143D01*
X361886Y247790D01*
X362800Y247670D01*
X363714Y247790D01*
X364565Y248143D01*
X365296Y248704D01*
X365857Y249435D01*
X366210Y250286D01*
X366330Y251200D01*
X366210Y252114D01*
X365857Y252965D01*
X365296Y253696D01*
X364565Y254257D01*
X363714Y254610D01*
X362800Y254730D01*
D02*
G37*
G36*
X252300Y258547D02*
X250864Y258358D01*
X249526Y257804D01*
X248377Y256923D01*
X247496Y255774D01*
X246942Y254436D01*
X246753Y253000D01*
X246942Y251564D01*
X247496Y250226D01*
X248377Y249077D01*
X249526Y248196D01*
X250864Y247642D01*
X252300Y247452D01*
X253736Y247642D01*
X255074Y248196D01*
X256223Y249077D01*
X257104Y250226D01*
X257658Y251564D01*
X257847Y253000D01*
X257658Y254436D01*
X257104Y255774D01*
X256223Y256923D01*
X255074Y257804D01*
X253736Y258358D01*
X252300Y258547D01*
D02*
G37*
G36*
X207000Y263243D02*
X206142Y263072D01*
X205414Y262586D01*
X204928Y261858D01*
X204757Y261000D01*
X204928Y260142D01*
X205414Y259414D01*
X206033Y259000D01*
X205924Y258500D01*
X200000D01*
Y241500D01*
X220000D01*
Y249470D01*
X236276D01*
X236577Y249077D01*
X237726Y248196D01*
X239064Y247642D01*
X240500Y247452D01*
X241936Y247642D01*
X243274Y248196D01*
X244423Y249077D01*
X245304Y250226D01*
X245858Y251564D01*
X246047Y253000D01*
X245858Y254436D01*
X245304Y255774D01*
X244423Y256923D01*
X243274Y257804D01*
X241936Y258358D01*
X240500Y258547D01*
X239064Y258358D01*
X237726Y257804D01*
X236577Y256923D01*
X236276Y256530D01*
X220000D01*
Y258500D01*
X208076D01*
X207967Y259000D01*
X208586Y259414D01*
X209072Y260142D01*
X209243Y261000D01*
X209072Y261858D01*
X208586Y262586D01*
X207858Y263072D01*
X207000Y263243D01*
D02*
G37*
G36*
X349500Y246046D02*
X348453Y245909D01*
X347477Y245504D01*
X346639Y244861D01*
X345996Y244023D01*
X345591Y243047D01*
X345454Y242000D01*
X345591Y240953D01*
X345996Y239977D01*
X346639Y239139D01*
X347477Y238496D01*
X348453Y238091D01*
X349500Y237954D01*
X350547Y238091D01*
X351523Y238496D01*
X352361Y239139D01*
X353004Y239977D01*
X353409Y240953D01*
X353546Y242000D01*
X353409Y243047D01*
X353004Y244023D01*
X352361Y244861D01*
X351523Y245504D01*
X350547Y245909D01*
X349500Y246046D01*
D02*
G37*
G36*
X289500D02*
X288453Y245909D01*
X287477Y245504D01*
X286639Y244861D01*
X285996Y244023D01*
X285591Y243047D01*
X285454Y242000D01*
X285591Y240953D01*
X285996Y239977D01*
X286639Y239139D01*
X287477Y238496D01*
X288453Y238091D01*
X289500Y237954D01*
X290547Y238091D01*
X291523Y238496D01*
X292361Y239139D01*
X293004Y239977D01*
X293409Y240953D01*
X293546Y242000D01*
X293409Y243047D01*
X293004Y244023D01*
X292361Y244861D01*
X291523Y245504D01*
X290547Y245909D01*
X289500Y246046D01*
D02*
G37*
G36*
X349500Y256046D02*
X348453Y255909D01*
X347477Y255504D01*
X346639Y254861D01*
X345996Y254023D01*
X345591Y253047D01*
X345454Y252000D01*
X345591Y250953D01*
X345996Y249977D01*
X346639Y249139D01*
X347477Y248496D01*
X348453Y248091D01*
X349500Y247954D01*
X350547Y248091D01*
X351523Y248496D01*
X351907Y248790D01*
X367031Y233666D01*
X367445Y233390D01*
X367933Y233293D01*
X368388D01*
X368589Y232991D01*
X368985Y232727D01*
X369451Y232634D01*
X372211D01*
X372677Y232727D01*
X373072Y232991D01*
X373336Y233386D01*
X373429Y233852D01*
Y235628D01*
X373336Y236094D01*
X373072Y236489D01*
X372677Y236754D01*
X372211Y236846D01*
X369451D01*
X368985Y236754D01*
X368589Y236489D01*
X368562Y236448D01*
X367918Y236385D01*
X353391Y250911D01*
X353409Y250953D01*
X353546Y252000D01*
X353409Y253047D01*
X353004Y254023D01*
X352361Y254861D01*
X351523Y255504D01*
X350547Y255909D01*
X349500Y256046D01*
D02*
G37*
G36*
X363549Y233106D02*
X362669D01*
Y231500D01*
X364768D01*
Y231888D01*
X364675Y232354D01*
X364411Y232749D01*
X364015Y233013D01*
X363549Y233106D01*
D02*
G37*
G36*
X361669D02*
X360789D01*
X360323Y233013D01*
X359928Y232749D01*
X359664Y232354D01*
X359571Y231888D01*
Y231500D01*
X361669D01*
Y233106D01*
D02*
G37*
G36*
X364768Y230500D02*
X362669D01*
Y228894D01*
X363549D01*
X364015Y228987D01*
X364411Y229251D01*
X364675Y229646D01*
X364768Y230112D01*
Y230500D01*
D02*
G37*
G36*
X361669D02*
X359571D01*
Y230112D01*
X359664Y229646D01*
X359928Y229251D01*
X360323Y228987D01*
X360789Y228894D01*
X361669D01*
Y230500D01*
D02*
G37*
G36*
X349500Y236046D02*
X348453Y235909D01*
X347477Y235504D01*
X346639Y234861D01*
X345996Y234023D01*
X345591Y233047D01*
X345454Y232000D01*
X345591Y230953D01*
X345996Y229977D01*
X346639Y229139D01*
X347477Y228496D01*
X348453Y228091D01*
X349500Y227954D01*
X350547Y228091D01*
X351523Y228496D01*
X352361Y229139D01*
X353004Y229977D01*
X353409Y230953D01*
X353546Y232000D01*
X353409Y233047D01*
X353004Y234023D01*
X352361Y234861D01*
X351523Y235504D01*
X350547Y235909D01*
X349500Y236046D01*
D02*
G37*
G36*
X289500D02*
X288453Y235909D01*
X287477Y235504D01*
X286639Y234861D01*
X285996Y234023D01*
X285591Y233047D01*
X285454Y232000D01*
X285591Y230953D01*
X285996Y229977D01*
X286639Y229139D01*
X287477Y228496D01*
X288453Y228091D01*
X289500Y227954D01*
X290547Y228091D01*
X291523Y228496D01*
X292361Y229139D01*
X293004Y229977D01*
X293409Y230953D01*
X293546Y232000D01*
X293409Y233047D01*
X293004Y234023D01*
X292361Y234861D01*
X291523Y235504D01*
X290547Y235909D01*
X289500Y236046D01*
D02*
G37*
G36*
X240500Y243243D02*
X239642Y243072D01*
X238914Y242586D01*
X238428Y241858D01*
X238257Y241000D01*
X238428Y240142D01*
X238914Y239414D01*
X239642Y238928D01*
X240500Y238757D01*
X240567Y238770D01*
X253435Y225902D01*
X253201Y225429D01*
X252300Y225548D01*
X250864Y225358D01*
X249526Y224804D01*
X248377Y223923D01*
X247496Y222774D01*
X246942Y221436D01*
X246753Y220000D01*
X246942Y218564D01*
X247496Y217226D01*
X248377Y216077D01*
X249526Y215196D01*
X250864Y214642D01*
X252300Y214453D01*
X253736Y214642D01*
X255074Y215196D01*
X256223Y216077D01*
X257104Y217226D01*
X257658Y218564D01*
X257847Y220000D01*
X257729Y220901D01*
X258202Y221135D01*
X263419Y215919D01*
X263915Y215587D01*
X264500Y215471D01*
X286655D01*
X286816Y214997D01*
X286639Y214861D01*
X285996Y214023D01*
X285591Y213047D01*
X285454Y212000D01*
X285591Y210953D01*
X285996Y209977D01*
X286639Y209139D01*
X287477Y208496D01*
X288453Y208091D01*
X289500Y207954D01*
X290547Y208091D01*
X291523Y208496D01*
X292361Y209139D01*
X293004Y209977D01*
X293409Y210953D01*
X293546Y212000D01*
X293409Y213047D01*
X293004Y214023D01*
X292361Y214861D01*
X292184Y214997D01*
X292345Y215471D01*
X344652D01*
X346041Y214082D01*
X345996Y214023D01*
X345591Y213047D01*
X345454Y212000D01*
X345591Y210953D01*
X345996Y209977D01*
X346639Y209139D01*
X347477Y208496D01*
X348453Y208091D01*
X349500Y207954D01*
X350547Y208091D01*
X351523Y208496D01*
X352361Y209139D01*
X353004Y209977D01*
X353409Y210953D01*
X353546Y212000D01*
X353409Y213047D01*
X353004Y214023D01*
X352361Y214861D01*
X351523Y215504D01*
X350547Y215909D01*
X349500Y216046D01*
X348529Y215919D01*
X346367Y218081D01*
X345870Y218413D01*
X345285Y218529D01*
X292345D01*
X292184Y219003D01*
X292361Y219139D01*
X293004Y219977D01*
X293409Y220953D01*
X293546Y222000D01*
X293409Y223047D01*
X293004Y224023D01*
X292361Y224861D01*
X291523Y225504D01*
X290547Y225909D01*
X289500Y226046D01*
X288453Y225909D01*
X287477Y225504D01*
X286639Y224861D01*
X285996Y224023D01*
X285591Y223047D01*
X285454Y222000D01*
X285591Y220953D01*
X285996Y219977D01*
X286639Y219139D01*
X286816Y219003D01*
X286655Y218529D01*
X265134D01*
X242730Y240933D01*
X242743Y241000D01*
X242572Y241858D01*
X242086Y242586D01*
X241358Y243072D01*
X240500Y243243D01*
D02*
G37*
G36*
X370500Y268548D02*
X369064Y268358D01*
X367726Y267804D01*
X366577Y266923D01*
X365696Y265774D01*
X365142Y264436D01*
X364952Y263000D01*
X365142Y261564D01*
X365696Y260226D01*
X366577Y259077D01*
X367726Y258196D01*
X369064Y257642D01*
X370500Y257453D01*
X371621Y257600D01*
X374474Y254747D01*
Y225135D01*
X373792Y224453D01*
X372360D01*
Y225184D01*
X372677Y225247D01*
X373072Y225511D01*
X373336Y225906D01*
X373429Y226372D01*
Y228148D01*
X373336Y228614D01*
X373072Y229009D01*
X372677Y229273D01*
X372211Y229366D01*
X369451D01*
X368985Y229273D01*
X368589Y229009D01*
X368325Y228614D01*
X368232Y228148D01*
Y226372D01*
X368325Y225906D01*
X368589Y225511D01*
X368985Y225247D01*
X369301Y225184D01*
Y224453D01*
X363858D01*
Y220500D01*
Y216547D01*
X374496D01*
Y217927D01*
X374571D01*
X375354Y218030D01*
X376084Y218332D01*
X376711Y218813D01*
X379640Y221742D01*
X379640Y221742D01*
X380120Y222369D01*
X380423Y223098D01*
X380526Y223882D01*
X380526Y223882D01*
Y256000D01*
X380423Y256783D01*
X380120Y257513D01*
X379640Y258140D01*
X379640Y258140D01*
X375900Y261879D01*
X376047Y263000D01*
X375858Y264436D01*
X375304Y265774D01*
X374423Y266923D01*
X373274Y267804D01*
X371936Y268358D01*
X370500Y268548D01*
D02*
G37*
G36*
X276500Y228743D02*
X275642Y228572D01*
X274914Y228086D01*
X274428Y227358D01*
X274257Y226500D01*
X274428Y225642D01*
X274914Y224914D01*
X275642Y224428D01*
X276500Y224257D01*
X277358Y224428D01*
X278086Y224914D01*
X278572Y225642D01*
X278743Y226500D01*
X278572Y227358D01*
X278086Y228086D01*
X277358Y228572D01*
X276500Y228743D01*
D02*
G37*
G36*
X264100Y231230D02*
X263186Y231110D01*
X262335Y230757D01*
X261604Y230196D01*
X261043Y229465D01*
X260690Y228614D01*
X260570Y227700D01*
X260690Y226786D01*
X261043Y225935D01*
X261604Y225204D01*
X262335Y224643D01*
X263186Y224290D01*
X264100Y224170D01*
X265014Y224290D01*
X265865Y224643D01*
X266596Y225204D01*
X267157Y225935D01*
X267510Y226786D01*
X267630Y227700D01*
X267510Y228614D01*
X267157Y229465D01*
X266596Y230196D01*
X265865Y230757D01*
X265014Y231110D01*
X264100Y231230D01*
D02*
G37*
G36*
X228700D02*
X227786Y231110D01*
X226935Y230757D01*
X226204Y230196D01*
X225643Y229465D01*
X225290Y228614D01*
X225170Y227700D01*
X225290Y226786D01*
X225643Y225935D01*
X226204Y225204D01*
X226935Y224643D01*
X227786Y224290D01*
X228700Y224170D01*
X229614Y224290D01*
X230465Y224643D01*
X231196Y225204D01*
X231757Y225935D01*
X232110Y226786D01*
X232230Y227700D01*
X232110Y228614D01*
X231757Y229465D01*
X231196Y230196D01*
X230465Y230757D01*
X229614Y231110D01*
X228700Y231230D01*
D02*
G37*
G36*
X362858Y224453D02*
X359504D01*
Y221000D01*
X362858D01*
Y224453D01*
D02*
G37*
G36*
X349500Y226046D02*
X348453Y225909D01*
X347477Y225504D01*
X346639Y224861D01*
X345996Y224023D01*
X345591Y223047D01*
X345454Y222000D01*
X345591Y220953D01*
X345996Y219977D01*
X346639Y219139D01*
X347477Y218496D01*
X348453Y218091D01*
X349500Y217954D01*
X350547Y218091D01*
X351523Y218496D01*
X352361Y219139D01*
X353004Y219977D01*
X353409Y220953D01*
X353546Y222000D01*
X353409Y223047D01*
X353004Y224023D01*
X352361Y224861D01*
X351523Y225504D01*
X350547Y225909D01*
X349500Y226046D01*
D02*
G37*
G36*
X362858Y220000D02*
X359504D01*
Y216547D01*
X362858D01*
Y220000D01*
D02*
G37*
G36*
X169000Y218709D02*
X164957D01*
Y215650D01*
X169000D01*
Y218709D01*
D02*
G37*
G36*
X219453Y208996D02*
X216000D01*
Y205642D01*
X219453D01*
Y208996D01*
D02*
G37*
G36*
X215000D02*
X211547D01*
Y205642D01*
X215000D01*
Y208996D01*
D02*
G37*
G36*
X362800Y212130D02*
X361886Y212010D01*
X361035Y211657D01*
X360304Y211096D01*
X359743Y210365D01*
X359390Y209514D01*
X359270Y208600D01*
X359390Y207686D01*
X359743Y206835D01*
X360304Y206104D01*
X361035Y205543D01*
X361886Y205190D01*
X362800Y205070D01*
X363714Y205190D01*
X364565Y205543D01*
X365296Y206104D01*
X365857Y206835D01*
X366210Y207686D01*
X366330Y208600D01*
X366210Y209514D01*
X365857Y210365D01*
X365296Y211096D01*
X364565Y211657D01*
X363714Y212010D01*
X362800Y212130D01*
D02*
G37*
G36*
X247929Y201969D02*
X245657D01*
Y199500D01*
X247929D01*
Y201969D01*
D02*
G37*
G36*
X349500Y206046D02*
X348453Y205909D01*
X347477Y205504D01*
X346639Y204861D01*
X345996Y204023D01*
X345591Y203047D01*
X345454Y202000D01*
X345591Y200953D01*
X345996Y199977D01*
X346639Y199139D01*
X347477Y198496D01*
X348453Y198091D01*
X349500Y197954D01*
X350547Y198091D01*
X351523Y198496D01*
X352361Y199139D01*
X353004Y199977D01*
X353409Y200953D01*
X353546Y202000D01*
X353409Y203047D01*
X353004Y204023D01*
X352361Y204861D01*
X351523Y205504D01*
X350547Y205909D01*
X349500Y206046D01*
D02*
G37*
G36*
X289500D02*
X288453Y205909D01*
X287477Y205504D01*
X286639Y204861D01*
X285996Y204023D01*
X285591Y203047D01*
X285454Y202000D01*
X285591Y200953D01*
X285996Y199977D01*
X286639Y199139D01*
X287477Y198496D01*
X288453Y198091D01*
X289500Y197954D01*
X290547Y198091D01*
X291523Y198496D01*
X292361Y199139D01*
X293004Y199977D01*
X293409Y200953D01*
X293546Y202000D01*
X293409Y203047D01*
X293004Y204023D01*
X292361Y204861D01*
X291523Y205504D01*
X290547Y205909D01*
X289500Y206046D01*
D02*
G37*
G36*
X371000Y202282D02*
Y197300D01*
X375982D01*
X375858Y198236D01*
X375304Y199574D01*
X374423Y200723D01*
X373274Y201604D01*
X371936Y202158D01*
X371000Y202282D01*
D02*
G37*
G36*
X370000D02*
X369064Y202158D01*
X367726Y201604D01*
X366577Y200723D01*
X365696Y199574D01*
X365142Y198236D01*
X365018Y197300D01*
X370000D01*
Y202282D01*
D02*
G37*
G36*
X247929Y198500D02*
X245657D01*
Y196031D01*
X247929D01*
Y198500D01*
D02*
G37*
G36*
X234913Y204870D02*
X229370D01*
Y199130D01*
Y194630D01*
X229370Y194630D01*
X229370D01*
X229370Y194630D01*
X229228Y194189D01*
X227772D01*
X227630Y194630D01*
X227630D01*
Y199130D01*
Y204870D01*
X222087D01*
Y204475D01*
X221587Y204126D01*
X221000Y204243D01*
X220142Y204072D01*
X219894Y203907D01*
X219453Y204142D01*
Y204642D01*
X211547D01*
Y201287D01*
Y194796D01*
X211242Y194657D01*
X211047Y194612D01*
X210358Y195072D01*
X209500Y195243D01*
X208750Y195094D01*
X208337Y195319D01*
X208250Y195389D01*
Y197000D01*
X207750D01*
Y202000D01*
X166250D01*
Y197000D01*
X165500D01*
Y197000D01*
X165000Y196644D01*
X164500Y196743D01*
X163642Y196572D01*
X162914Y196086D01*
X162428Y195358D01*
X162257Y194500D01*
X162428Y193642D01*
X162914Y192914D01*
X162979Y192870D01*
X162828Y192370D01*
X161370D01*
Y186630D01*
X162828D01*
X162979Y186130D01*
X162914Y186086D01*
X162428Y185358D01*
X162257Y184500D01*
X162428Y183642D01*
X162914Y182914D01*
X163642Y182428D01*
X164500Y182257D01*
X165000Y182356D01*
X165477Y182016D01*
X165500Y181967D01*
Y177000D01*
Y172033D01*
X165477Y171984D01*
X165000Y171644D01*
X164500Y171743D01*
X163642Y171572D01*
X162914Y171086D01*
X162428Y170358D01*
X162257Y169500D01*
X162428Y168642D01*
X162914Y167914D01*
X162979Y167870D01*
X162828Y167370D01*
X161370D01*
Y161630D01*
X162828D01*
X162979Y161130D01*
X162914Y161086D01*
X162428Y160358D01*
X162257Y159500D01*
X162428Y158642D01*
X162914Y157914D01*
X163642Y157428D01*
X164500Y157257D01*
X165000Y157356D01*
X165500Y157000D01*
Y157000D01*
X166250D01*
Y152000D01*
X207750D01*
Y157000D01*
X208250D01*
Y159735D01*
X209000D01*
X209293Y159793D01*
X209541Y159959D01*
X213168Y163586D01*
X213630Y163395D01*
Y159870D01*
X216420D01*
X216830Y159370D01*
X216757Y159000D01*
X216830Y158630D01*
X216420Y158130D01*
X213630D01*
Y155858D01*
X216500D01*
X219370D01*
Y156831D01*
X219858Y156928D01*
X220586Y157414D01*
X220950Y157959D01*
X221375Y157675D01*
X221766Y157597D01*
X221984Y157118D01*
X221982Y157057D01*
X221661Y156639D01*
X221334Y155848D01*
X221222Y155000D01*
X221334Y154152D01*
X221661Y153361D01*
X222182Y152682D01*
X222861Y152161D01*
X223652Y151834D01*
X224500Y151722D01*
X225348Y151834D01*
X226139Y152161D01*
X226818Y152682D01*
X227339Y153361D01*
X227552Y153874D01*
X228051Y153775D01*
Y151496D01*
X228175Y150875D01*
X228526Y150349D01*
X229053Y149998D01*
X229571Y149895D01*
Y145031D01*
X240429D01*
Y149687D01*
X240770Y149930D01*
X240929Y149985D01*
X241484Y149874D01*
X241688Y149915D01*
X242187Y149560D01*
X242206Y149379D01*
X242160Y149267D01*
X241904Y149096D01*
X241418Y148368D01*
X241247Y147510D01*
X241418Y146652D01*
X241904Y145924D01*
X242632Y145438D01*
X243490Y145267D01*
X244348Y145438D01*
X244988Y145865D01*
X245642Y145428D01*
X246500Y145257D01*
X247358Y145428D01*
X248086Y145914D01*
X248572Y146642D01*
X248743Y147500D01*
X248572Y148358D01*
X248086Y149086D01*
X248056Y149395D01*
X248111Y149450D01*
X248332Y149780D01*
X248858Y149962D01*
Y150831D01*
X248888Y150875D01*
X249012Y151496D01*
Y154055D01*
Y156614D01*
X248888Y157235D01*
X248858Y157280D01*
Y158136D01*
X248738Y158112D01*
X248374Y157869D01*
X248010Y158112D01*
X247390Y158236D01*
X247020Y158162D01*
X246520Y158501D01*
Y161000D01*
X246442Y161390D01*
X246221Y161721D01*
X245221Y162721D01*
X244890Y162942D01*
X244500Y163020D01*
X238224D01*
X237988Y163178D01*
X237500Y163275D01*
X232594D01*
X232327Y163775D01*
X232572Y164142D01*
X232743Y165000D01*
X232572Y165858D01*
X232086Y166586D01*
X231358Y167072D01*
X230500Y167243D01*
X229642Y167072D01*
X229191Y166771D01*
X228736Y167047D01*
X228612Y167668D01*
X228369Y168032D01*
X228612Y168395D01*
X228736Y169016D01*
X228612Y169636D01*
X228369Y170000D01*
X228612Y170364D01*
X228736Y170984D01*
X228612Y171605D01*
X228369Y171968D01*
X228612Y172332D01*
X228736Y172953D01*
X228612Y173573D01*
X228369Y173937D01*
X228612Y174301D01*
X228736Y174921D01*
X228733Y174933D01*
X229184Y175234D01*
X229642Y174928D01*
X230500Y174757D01*
X231358Y174928D01*
X232086Y175414D01*
X232572Y176142D01*
X232743Y177000D01*
X232572Y177858D01*
X232086Y178586D01*
X231841Y178750D01*
Y179250D01*
X232086Y179414D01*
X232572Y180142D01*
X232743Y181000D01*
X232640Y181520D01*
X232792Y181680D01*
X233080Y181870D01*
X233610Y181764D01*
X233980Y181838D01*
X234480Y181499D01*
Y181000D01*
X234558Y180610D01*
X234779Y180279D01*
X235110Y180058D01*
X235500Y179980D01*
X236528D01*
Y169610D01*
X236605Y169220D01*
X236826Y168889D01*
X241358Y164358D01*
X241688Y164137D01*
X242079Y164059D01*
X252051D01*
X252353Y163559D01*
X252264Y163110D01*
X252388Y162490D01*
X252630Y162126D01*
X252388Y161762D01*
X252264Y161142D01*
X252388Y160521D01*
X252630Y160158D01*
X252388Y159794D01*
X252264Y159173D01*
X252388Y158553D01*
X252548Y158312D01*
X252188Y157952D01*
X251947Y158112D01*
X251327Y158236D01*
X250706Y158112D01*
X250342Y157869D01*
X249979Y158112D01*
X249858Y158136D01*
Y157280D01*
X249828Y157235D01*
X249705Y156614D01*
Y154055D01*
Y151496D01*
X249828Y150875D01*
X249858Y150831D01*
Y149974D01*
X249979Y149998D01*
X250342Y150241D01*
X250706Y149998D01*
X251327Y149874D01*
X251947Y149998D01*
X252473Y150349D01*
X252825Y150875D01*
X252948Y151496D01*
Y156614D01*
X252825Y157235D01*
X252664Y157475D01*
X253025Y157835D01*
X253265Y157675D01*
X253886Y157552D01*
X259004D01*
X259625Y157675D01*
X260151Y158027D01*
X260502Y158553D01*
X260626Y159173D01*
X260502Y159794D01*
X260259Y160158D01*
X260502Y160521D01*
X260626Y161142D01*
X260502Y161762D01*
X260259Y162126D01*
X260502Y162490D01*
X260626Y163110D01*
X260608Y163200D01*
X260925Y163587D01*
X265185D01*
Y162110D01*
X266071D01*
Y160500D01*
X268843D01*
Y160000D01*
X269342D01*
Y157032D01*
X276929D01*
Y162110D01*
X277815D01*
Y169622D01*
X272525D01*
X272301Y169901D01*
X272511Y170378D01*
X273953D01*
Y174134D01*
X274453D01*
Y174634D01*
X277815D01*
Y177890D01*
X276929D01*
Y180000D01*
X274158D01*
Y180500D01*
X273657D01*
Y183468D01*
X266071D01*
Y177890D01*
X265185D01*
Y176413D01*
X262336D01*
X262287Y176913D01*
X262358Y176928D01*
X263086Y177414D01*
X263572Y178142D01*
X263743Y179000D01*
X263572Y179858D01*
X263086Y180586D01*
X262358Y181072D01*
X261500Y181243D01*
X260642Y181072D01*
X260517Y181375D01*
X260502Y181447D01*
X260151Y181974D01*
X259625Y182325D01*
X259004Y182448D01*
X253886D01*
X253265Y182325D01*
X252916Y182092D01*
X252646Y182497D01*
X252825Y182765D01*
X252948Y183386D01*
Y188504D01*
X252825Y189125D01*
X252473Y189651D01*
X251947Y190002D01*
X251327Y190126D01*
X250706Y190002D01*
X250342Y189759D01*
X249979Y190002D01*
X249858Y190026D01*
Y189169D01*
X249828Y189125D01*
X249705Y188504D01*
Y185945D01*
X249500D01*
Y183000D01*
X247890D01*
Y181864D01*
X248010Y181888D01*
X248374Y182131D01*
X248738Y181888D01*
X248926Y181850D01*
X248757Y181000D01*
X248928Y180142D01*
X249216Y179710D01*
X249102Y179464D01*
X248935Y179230D01*
X248142Y179072D01*
X247414Y178586D01*
X246928Y177858D01*
X246757Y177000D01*
X246928Y176142D01*
X247356Y175500D01*
X246928Y174858D01*
X246757Y174000D01*
X246928Y173142D01*
X247356Y172500D01*
X246928Y171858D01*
X246757Y171000D01*
X246928Y170142D01*
X247414Y169414D01*
X248142Y168928D01*
X249000Y168757D01*
X249858Y168928D01*
X250586Y169414D01*
X251072Y170142D01*
X251243Y171000D01*
X251077Y171835D01*
X251217Y172022D01*
X251406Y172235D01*
X252207D01*
X252483Y171748D01*
X252388Y171605D01*
X252264Y170984D01*
X252388Y170364D01*
X252630Y170000D01*
X252388Y169636D01*
X252264Y169016D01*
X252388Y168395D01*
X252631Y168032D01*
X252388Y167668D01*
X252364Y167547D01*
X253220D01*
X253265Y167517D01*
X253886Y167394D01*
X256445D01*
Y166701D01*
X253886D01*
X253265Y166577D01*
X253220Y166547D01*
X252323D01*
X252051Y166098D01*
X242501D01*
X238567Y170033D01*
Y179980D01*
X239500D01*
X239890Y180058D01*
X240221Y180279D01*
X240442Y180610D01*
X240520Y181000D01*
Y181562D01*
X240984Y181836D01*
Y182720D01*
X241014Y182765D01*
X241138Y183386D01*
Y185945D01*
X241484D01*
Y189000D01*
X243000D01*
Y194500D01*
X244657D01*
Y195468D01*
X240520D01*
Y196031D01*
X244657D01*
Y199000D01*
Y201969D01*
X240520D01*
Y203500D01*
X240442Y203890D01*
X240221Y204221D01*
X239890Y204442D01*
X239500Y204520D01*
X234913D01*
Y204870D01*
D02*
G37*
G36*
X247929Y195468D02*
X245657D01*
Y194500D01*
X247929D01*
Y195468D01*
D02*
G37*
G36*
X375982Y196300D02*
X371000D01*
Y191318D01*
X371936Y191442D01*
X373274Y191996D01*
X374423Y192877D01*
X375304Y194026D01*
X375858Y195364D01*
X375982Y196300D01*
D02*
G37*
G36*
X370000D02*
X365018D01*
X365142Y195364D01*
X365696Y194026D01*
X366577Y192877D01*
X367726Y191996D01*
X369064Y191442D01*
X370000Y191318D01*
Y196300D01*
D02*
G37*
G36*
X148000Y198791D02*
X146760Y198628D01*
X145605Y198149D01*
X144612Y197388D01*
X143851Y196396D01*
X143372Y195240D01*
X143209Y194000D01*
X143372Y192760D01*
X143851Y191604D01*
X144612Y190612D01*
X145605Y189851D01*
X146760Y189372D01*
X148000Y189209D01*
X149240Y189372D01*
X150396Y189851D01*
X151388Y190612D01*
X152149Y191604D01*
X152628Y192760D01*
X152791Y194000D01*
X152628Y195240D01*
X152149Y196396D01*
X151388Y197388D01*
X150396Y198149D01*
X149240Y198628D01*
X148000Y198791D01*
D02*
G37*
G36*
X136200D02*
X134960Y198628D01*
X133805Y198149D01*
X132812Y197388D01*
X132051Y196396D01*
X131572Y195240D01*
X131409Y194000D01*
X131572Y192760D01*
X132051Y191604D01*
X132812Y190612D01*
X133805Y189851D01*
X134960Y189372D01*
X136200Y189209D01*
X137440Y189372D01*
X138595Y189851D01*
X139588Y190612D01*
X140349Y191604D01*
X140828Y192760D01*
X140991Y194000D01*
X140828Y195240D01*
X140349Y196396D01*
X139588Y197388D01*
X138595Y198149D01*
X137440Y198628D01*
X136200Y198791D01*
D02*
G37*
G36*
X349500Y196046D02*
X348453Y195908D01*
X347477Y195504D01*
X346639Y194861D01*
X345996Y194023D01*
X345591Y193047D01*
X345454Y192000D01*
X345591Y190953D01*
X345996Y189977D01*
X346639Y189139D01*
X347477Y188496D01*
X348453Y188092D01*
X349500Y187954D01*
X350547Y188092D01*
X351523Y188496D01*
X352361Y189139D01*
X353004Y189977D01*
X353409Y190953D01*
X353546Y192000D01*
X353409Y193047D01*
X353004Y194023D01*
X352361Y194861D01*
X351523Y195504D01*
X350547Y195908D01*
X349500Y196046D01*
D02*
G37*
G36*
X289500D02*
X288453Y195908D01*
X287477Y195504D01*
X286639Y194861D01*
X285996Y194023D01*
X285591Y193047D01*
X285454Y192000D01*
X285591Y190953D01*
X285996Y189977D01*
X286639Y189139D01*
X287477Y188496D01*
X288453Y188092D01*
X289500Y187954D01*
X290547Y188092D01*
X291523Y188496D01*
X292361Y189139D01*
X293004Y189977D01*
X293409Y190953D01*
X293546Y192000D01*
X293409Y193047D01*
X293004Y194023D01*
X292361Y194861D01*
X291523Y195504D01*
X290547Y195908D01*
X289500Y196046D01*
D02*
G37*
G36*
X148500Y186925D02*
Y182700D01*
X152725D01*
X152628Y183440D01*
X152149Y184596D01*
X151388Y185588D01*
X150396Y186349D01*
X149240Y186828D01*
X148500Y186925D01*
D02*
G37*
G36*
X136700D02*
Y182700D01*
X140925D01*
X140828Y183440D01*
X140349Y184596D01*
X139588Y185588D01*
X138595Y186349D01*
X137440Y186828D01*
X136700Y186925D01*
D02*
G37*
G36*
X147500D02*
X146760Y186828D01*
X145605Y186349D01*
X144612Y185588D01*
X143851Y184596D01*
X143372Y183440D01*
X143275Y182700D01*
X147500D01*
Y186925D01*
D02*
G37*
G36*
X135700D02*
X134960Y186828D01*
X133805Y186349D01*
X132812Y185588D01*
X132051Y184596D01*
X131572Y183440D01*
X131475Y182700D01*
X135700D01*
Y186925D01*
D02*
G37*
G36*
X246890Y183000D02*
X245921D01*
Y181864D01*
X246042Y181888D01*
X246406Y182131D01*
X246769Y181888D01*
X246890Y181864D01*
Y183000D01*
D02*
G37*
G36*
X244921D02*
X243953D01*
Y181864D01*
X244073Y181888D01*
X244437Y182131D01*
X244801Y181888D01*
X244921Y181864D01*
Y183000D01*
D02*
G37*
G36*
X242953D02*
X241984D01*
Y181864D01*
X242105Y181888D01*
X242469Y182131D01*
X242832Y181888D01*
X242953Y181864D01*
Y183000D01*
D02*
G37*
G36*
X276929Y183468D02*
X274658D01*
Y181000D01*
X276929D01*
Y183468D01*
D02*
G37*
G36*
X370500Y190548D02*
X369064Y190358D01*
X367726Y189804D01*
X366577Y188923D01*
X365696Y187774D01*
X365142Y186436D01*
X364952Y185000D01*
X365142Y183564D01*
X365696Y182226D01*
X366577Y181077D01*
X367726Y180196D01*
X369064Y179642D01*
X370500Y179453D01*
X371936Y179642D01*
X373274Y180196D01*
X374423Y181077D01*
X375304Y182226D01*
X375858Y183564D01*
X376047Y185000D01*
X375858Y186436D01*
X375304Y187774D01*
X374423Y188923D01*
X373274Y189804D01*
X371936Y190358D01*
X370500Y190548D01*
D02*
G37*
G36*
X349500Y186046D02*
X348453Y185908D01*
X347477Y185504D01*
X346639Y184861D01*
X345996Y184023D01*
X345591Y183047D01*
X345454Y182000D01*
X345591Y180953D01*
X345996Y179977D01*
X346639Y179139D01*
X347477Y178496D01*
X348453Y178092D01*
X349500Y177954D01*
X350547Y178092D01*
X351523Y178496D01*
X352361Y179139D01*
X353004Y179977D01*
X353409Y180953D01*
X353546Y182000D01*
X353409Y183047D01*
X353004Y184023D01*
X352361Y184861D01*
X351523Y185504D01*
X350547Y185908D01*
X349500Y186046D01*
D02*
G37*
G36*
X289500D02*
X288453Y185908D01*
X287477Y185504D01*
X286639Y184861D01*
X285996Y184023D01*
X285591Y183047D01*
X285454Y182000D01*
X285591Y180953D01*
X285996Y179977D01*
X286639Y179139D01*
X287477Y178496D01*
X288453Y178092D01*
X289500Y177954D01*
X290547Y178092D01*
X291523Y178496D01*
X292361Y179139D01*
X293004Y179977D01*
X293409Y180953D01*
X293546Y182000D01*
X293409Y183047D01*
X293004Y184023D01*
X292361Y184861D01*
X291523Y185504D01*
X290547Y185908D01*
X289500Y186046D01*
D02*
G37*
G36*
X152725Y181700D02*
X148500D01*
Y177475D01*
X149240Y177572D01*
X150396Y178051D01*
X151388Y178812D01*
X152149Y179805D01*
X152628Y180960D01*
X152725Y181700D01*
D02*
G37*
G36*
X140925D02*
X136700D01*
Y177475D01*
X137440Y177572D01*
X138595Y178051D01*
X139588Y178812D01*
X140349Y179805D01*
X140828Y180960D01*
X140925Y181700D01*
D02*
G37*
G36*
X147500D02*
X143275D01*
X143372Y180960D01*
X143851Y179805D01*
X144612Y178812D01*
X145605Y178051D01*
X146760Y177572D01*
X147500Y177475D01*
Y181700D01*
D02*
G37*
G36*
X135700D02*
X131475D01*
X131572Y180960D01*
X132051Y179805D01*
X132812Y178812D01*
X133805Y178051D01*
X134960Y177572D01*
X135700Y177475D01*
Y181700D01*
D02*
G37*
G36*
X174043Y211350D02*
X164957D01*
Y207341D01*
X155416Y197800D01*
X154974Y197139D01*
X154819Y196358D01*
Y192370D01*
X154087D01*
Y186630D01*
X154819D01*
Y171966D01*
X154321Y171863D01*
X153840Y172490D01*
X153213Y172970D01*
X152483Y173273D01*
X151700Y173376D01*
X150917Y173273D01*
X150187Y172970D01*
X149560Y172490D01*
X149080Y171863D01*
X148777Y171133D01*
X148674Y170350D01*
X148777Y169567D01*
X149080Y168837D01*
X149560Y168210D01*
X150187Y167729D01*
X150917Y167427D01*
X151700Y167324D01*
X152483Y167427D01*
X153213Y167729D01*
X153840Y168210D01*
X154321Y168837D01*
X154819Y168734D01*
Y167370D01*
X154087D01*
Y161630D01*
X159630D01*
Y167370D01*
X158897D01*
Y186630D01*
X159630D01*
Y192370D01*
X158897D01*
Y195514D01*
X167616Y204232D01*
X174043D01*
Y211350D01*
D02*
G37*
G36*
X277815Y173634D02*
X274953D01*
Y170378D01*
X277815D01*
Y173634D01*
D02*
G37*
G36*
X362800Y176730D02*
X361886Y176610D01*
X361035Y176257D01*
X360304Y175696D01*
X359743Y174965D01*
X359390Y174114D01*
X359270Y173200D01*
X359390Y172286D01*
X359743Y171435D01*
X360304Y170704D01*
X361035Y170143D01*
X361886Y169790D01*
X362800Y169670D01*
X363714Y169790D01*
X364565Y170143D01*
X365296Y170704D01*
X365857Y171435D01*
X366210Y172286D01*
X366330Y173200D01*
X366210Y174114D01*
X365857Y174965D01*
X365296Y175696D01*
X364565Y176257D01*
X363714Y176610D01*
X362800Y176730D01*
D02*
G37*
G36*
X349500Y176046D02*
X348453Y175909D01*
X347477Y175504D01*
X346639Y174861D01*
X345996Y174023D01*
X345591Y173047D01*
X345454Y172000D01*
X345591Y170953D01*
X345996Y169977D01*
X346639Y169139D01*
X347477Y168496D01*
X348453Y168091D01*
X349500Y167954D01*
X350547Y168091D01*
X351523Y168496D01*
X352361Y169139D01*
X353004Y169977D01*
X353409Y170953D01*
X353546Y172000D01*
X353409Y173047D01*
X353004Y174023D01*
X352361Y174861D01*
X351523Y175504D01*
X350547Y175909D01*
X349500Y176046D01*
D02*
G37*
G36*
X289500D02*
X288453Y175909D01*
X287477Y175504D01*
X286639Y174861D01*
X285996Y174023D01*
X285591Y173047D01*
X285454Y172000D01*
X285591Y170953D01*
X285996Y169977D01*
X286639Y169139D01*
X287477Y168496D01*
X288453Y168091D01*
X289500Y167954D01*
X290547Y168091D01*
X291523Y168496D01*
X292361Y169139D01*
X293004Y169977D01*
X293409Y170953D01*
X293546Y172000D01*
X293409Y173047D01*
X293004Y174023D01*
X292361Y174861D01*
X291523Y175504D01*
X290547Y175909D01*
X289500Y176046D01*
D02*
G37*
G36*
X349500Y166046D02*
X348453Y165909D01*
X347477Y165504D01*
X346639Y164861D01*
X345996Y164023D01*
X345591Y163047D01*
X345454Y162000D01*
X345591Y160953D01*
X345996Y159977D01*
X346639Y159139D01*
X347477Y158496D01*
X348453Y158091D01*
X349500Y157954D01*
X350547Y158091D01*
X351523Y158496D01*
X352361Y159139D01*
X353004Y159977D01*
X353409Y160953D01*
X353546Y162000D01*
X353409Y163047D01*
X353004Y164023D01*
X352361Y164861D01*
X351523Y165504D01*
X350547Y165909D01*
X349500Y166046D01*
D02*
G37*
G36*
X289500D02*
X288453Y165909D01*
X287477Y165504D01*
X286639Y164861D01*
X285996Y164023D01*
X285591Y163047D01*
X285454Y162000D01*
X285591Y160953D01*
X285996Y159977D01*
X286639Y159139D01*
X287477Y158496D01*
X288453Y158091D01*
X289500Y157954D01*
X290547Y158091D01*
X291523Y158496D01*
X292361Y159139D01*
X293004Y159977D01*
X293409Y160953D01*
X293546Y162000D01*
X293409Y163047D01*
X293004Y164023D01*
X292361Y164861D01*
X291523Y165504D01*
X290547Y165909D01*
X289500Y166046D01*
D02*
G37*
G36*
X268342Y159500D02*
X266071D01*
Y157032D01*
X268342D01*
Y159500D01*
D02*
G37*
G36*
X219370Y154858D02*
X217000D01*
Y152587D01*
X219370D01*
Y154858D01*
D02*
G37*
G36*
X216000D02*
X213630D01*
Y152587D01*
X216000D01*
Y154858D01*
D02*
G37*
G36*
X371000Y165542D02*
X368882Y165375D01*
X366815Y164879D01*
X364852Y164066D01*
X363040Y162955D01*
X361424Y161575D01*
X360045Y159960D01*
X358934Y158148D01*
X358121Y156185D01*
X357625Y154118D01*
X357458Y152000D01*
X357625Y149882D01*
X358121Y147815D01*
X358934Y145852D01*
X360045Y144040D01*
X361424Y142424D01*
X363040Y141044D01*
X364852Y139934D01*
X366815Y139121D01*
X368882Y138625D01*
X371000Y138458D01*
X373118Y138625D01*
X375185Y139121D01*
X377148Y139934D01*
X378960Y141044D01*
X380575Y142424D01*
X381956Y144040D01*
X383066Y145852D01*
X383879Y147815D01*
X384375Y149882D01*
X384542Y152000D01*
X384375Y154118D01*
X383879Y156185D01*
X383066Y158148D01*
X381956Y159960D01*
X380575Y161575D01*
X378960Y162955D01*
X377148Y164066D01*
X375185Y164879D01*
X373118Y165375D01*
X371000Y165542D01*
D02*
G37*
G36*
X141000D02*
X138882Y165375D01*
X136815Y164879D01*
X134852Y164066D01*
X133040Y162955D01*
X131424Y161575D01*
X130044Y159960D01*
X128934Y158148D01*
X128121Y156185D01*
X127625Y154118D01*
X127458Y152000D01*
X127625Y149882D01*
X128121Y147815D01*
X128934Y145852D01*
X130044Y144040D01*
X131424Y142424D01*
X133040Y141044D01*
X134852Y139934D01*
X136815Y139121D01*
X138882Y138625D01*
X141000Y138458D01*
X143118Y138625D01*
X145185Y139121D01*
X147148Y139934D01*
X148960Y141044D01*
X150575Y142424D01*
X151955Y144040D01*
X153066Y145852D01*
X153879Y147815D01*
X154375Y149882D01*
X154542Y152000D01*
X154375Y154118D01*
X153879Y156185D01*
X153066Y158148D01*
X151955Y159960D01*
X150575Y161575D01*
X148960Y162955D01*
X147148Y164066D01*
X145185Y164879D01*
X143118Y165375D01*
X141000Y165542D01*
D02*
G37*
%LPD*%
G36*
X170000Y290000D02*
X155000D01*
Y305500D01*
X170000D01*
Y290000D01*
D02*
G37*
G36*
X221500Y292000D02*
X221500Y272500D01*
X205500Y272500D01*
X205500Y280500D01*
X197500Y280500D01*
X197500Y292000D01*
X221500Y292000D01*
D02*
G37*
G36*
X193000Y217000D02*
X175500D01*
Y250000D01*
X193000D01*
Y217000D01*
D02*
G37*
G36*
X148500Y226000D02*
X153500D01*
Y212000D01*
X127000D01*
Y252500D01*
X148500D01*
Y226000D01*
D02*
G37*
G36*
X239500Y181000D02*
X235500D01*
Y190500D01*
X230500D01*
Y203500D01*
X239500D01*
Y181000D01*
D02*
G37*
D12*
X243490Y147510D02*
Y154018D01*
X243453Y154055D02*
X243490Y154018D01*
X249358Y145358D02*
Y154055D01*
X247390Y150171D02*
Y154055D01*
X246500Y149281D02*
X247390Y150171D01*
X237547Y169610D02*
Y185945D01*
Y169610D02*
X242079Y165079D01*
X256445D01*
X229673Y182171D02*
X230500Y181344D01*
X229673Y182171D02*
Y185945D01*
X219164Y176000D02*
X220243Y174921D01*
X224555D01*
X190500Y263000D02*
Y267142D01*
X244500Y162000D02*
X245500Y161000D01*
X237500Y162000D02*
X244500D01*
X241484Y154055D02*
Y159484D01*
X245500Y156821D02*
Y161000D01*
X245421Y154055D02*
X245456Y154090D01*
Y156777D01*
X245500Y156821D01*
X235597Y159440D02*
Y159457D01*
X235579Y159421D02*
X235597Y159440D01*
X235579Y154055D02*
Y159421D01*
X231642Y148701D02*
Y154055D01*
Y159358D01*
X227676Y161176D02*
X228705Y162205D01*
X224590Y161176D02*
X227676D01*
X228705Y158514D02*
Y162205D01*
X225190Y155000D02*
X228705Y158514D01*
X224555Y161142D02*
X224590Y161176D01*
X224500Y155000D02*
X225190D01*
X221121Y161121D02*
X224534D01*
X219000Y159000D02*
X221121Y161121D01*
X216968Y163110D02*
X224555D01*
Y165079D02*
X230421D01*
X224555Y176890D02*
X230390D01*
X224508Y167000D02*
X224555Y167047D01*
X219000Y167000D02*
X224508D01*
X237547Y148110D02*
Y154055D01*
X233150Y192150D02*
X233500Y192500D01*
D16*
X246500Y147500D02*
Y149281D01*
X215358Y198000D02*
X215500Y197858D01*
X205000Y167000D02*
X213000D01*
X203750Y169500D02*
X204457Y168793D01*
Y167543D02*
Y168793D01*
Y167543D02*
X205000Y167000D01*
X164500Y159500D02*
X170000D01*
X164500Y194500D02*
X170000D01*
X164500Y169500D02*
X170000D01*
X164500Y184500D02*
X170000D01*
X233610Y154055D02*
Y161492D01*
X233102Y162000D02*
X233610Y161492D01*
X210000Y250000D02*
X213000Y253000D01*
X210000Y224000D02*
X214000Y220000D01*
X230500Y181000D02*
Y181344D01*
X221000Y197500D02*
X224858D01*
X221000Y202000D02*
X224858D01*
X251327Y181327D02*
Y185945D01*
X251000Y181000D02*
X251327Y181327D01*
X219000Y176000D02*
X219164D01*
X224508Y173000D02*
X224555Y172953D01*
X219000Y173000D02*
X224508D01*
X370642Y220500D02*
X370831Y220311D01*
X189642Y268000D02*
X190500Y267142D01*
X256398Y173000D02*
X256445Y172953D01*
X251000Y173000D02*
X256398D01*
X249000Y171000D02*
X251000Y173000D01*
X250243Y174921D02*
X256445D01*
X249322Y174000D02*
X250243Y174921D01*
X249000Y174000D02*
X249322D01*
X249110Y176890D02*
X256445D01*
X249000Y177000D02*
X249110Y176890D01*
X256445Y178858D02*
X261358D01*
X261500Y179000D01*
X274158Y165571D02*
X274453Y165866D01*
X266500Y170000D02*
X271000D01*
X262902Y166358D02*
X263098D01*
X264620Y167880D01*
Y168120D01*
X266500Y170000D01*
X271000D02*
X272340Y168659D01*
Y167978D02*
X274453Y165866D01*
X272340Y167978D02*
Y168659D01*
X268547Y174134D02*
X268843Y174429D01*
X263000Y173642D02*
X268055D01*
X268547Y174134D01*
X256445Y169016D02*
X260343D01*
X261380Y167978D01*
Y167880D02*
Y167978D01*
Y167880D02*
X262902Y166358D01*
X256445Y170984D02*
X260343D01*
X261380Y172022D01*
Y172120D01*
X262902Y173642D01*
X263000D01*
X237547Y154055D02*
Y161953D01*
X237500Y162000D02*
X237547Y161953D01*
X224534Y161121D02*
X224555Y161142D01*
X216500Y162642D02*
X216968Y163110D01*
X230421Y165079D02*
X230500Y165000D01*
X230390Y176890D02*
X230500Y177000D01*
X224539Y171000D02*
X224555Y170984D01*
X220243Y171000D02*
X224539D01*
X219000Y170000D02*
X219243D01*
X220243Y171000D01*
X217327Y180827D02*
X224555D01*
X215000Y178500D02*
X217327Y180827D01*
X215000Y169000D02*
Y178500D01*
X216500Y177500D02*
X217729Y178729D01*
X216500Y168000D02*
Y177500D01*
X217729Y178729D02*
X224426D01*
X224555Y178858D01*
X213000Y167000D02*
X215000Y169000D01*
X209000Y160500D02*
X216500Y168000D01*
X231642Y148701D02*
X232343Y148000D01*
X237547Y148110D02*
X237657Y148000D01*
X204750Y160500D02*
X209000D01*
X203750Y159500D02*
X204750Y160500D01*
D19*
X215500Y205142D02*
D03*
Y197858D02*
D03*
D20*
X237657Y148000D02*
D03*
X232343D02*
D03*
X268843Y180500D02*
D03*
X274158D02*
D03*
Y160000D02*
D03*
X268843D02*
D03*
X239843Y199000D02*
D03*
X245158D02*
D03*
X239843Y192500D02*
D03*
X245158D02*
D03*
D21*
X224500Y185850D02*
D03*
Y192150D02*
D03*
D22*
X263000Y173642D02*
D03*
Y166358D02*
D03*
X216500Y162642D02*
D03*
Y155358D02*
D03*
D23*
X232142Y197500D02*
D03*
X224858D02*
D03*
X232142Y202000D02*
D03*
X224858D02*
D03*
X164142Y164500D02*
D03*
X156858D02*
D03*
X164142Y189500D02*
D03*
X156858D02*
D03*
D24*
X203750Y159500D02*
D03*
Y164500D02*
D03*
Y169500D02*
D03*
Y174500D02*
D03*
Y179500D02*
D03*
Y184500D02*
D03*
Y189500D02*
D03*
Y194500D02*
D03*
X170000Y159500D02*
D03*
Y164500D02*
D03*
Y169500D02*
D03*
Y174500D02*
D03*
Y179500D02*
D03*
Y184500D02*
D03*
Y189500D02*
D03*
Y194500D02*
D03*
D25*
X169500Y219209D02*
D03*
Y207791D02*
D03*
D26*
X363358Y220500D02*
D03*
X370642D02*
D03*
X201358Y276000D02*
D03*
X208642D02*
D03*
X189642Y268000D02*
D03*
X182358D02*
D03*
D27*
X362169Y231000D02*
D03*
X370831Y234740D02*
D03*
Y227260D02*
D03*
D28*
X191500Y312500D02*
D03*
D29*
X184000Y250000D02*
D03*
X210000D02*
D03*
X162000Y245000D02*
D03*
X136000D02*
D03*
X210000Y224000D02*
D03*
X184000D02*
D03*
D30*
X194512Y276000D02*
D03*
X183488D02*
D03*
D31*
X169500Y327500D02*
D03*
X199500D02*
D03*
X209500D02*
D03*
X189500Y287500D02*
D03*
X169500D02*
D03*
X179500D02*
D03*
X199500D02*
D03*
X209500D02*
D03*
D32*
X224555Y180827D02*
D03*
Y178858D02*
D03*
Y176890D02*
D03*
Y174921D02*
D03*
Y172953D02*
D03*
Y170984D02*
D03*
Y169016D02*
D03*
Y167047D02*
D03*
Y165079D02*
D03*
Y163110D02*
D03*
Y161142D02*
D03*
Y159173D02*
D03*
X256445D02*
D03*
Y161142D02*
D03*
Y163110D02*
D03*
Y165079D02*
D03*
Y167047D02*
D03*
Y169016D02*
D03*
Y170984D02*
D03*
Y172953D02*
D03*
Y174921D02*
D03*
Y176890D02*
D03*
Y178858D02*
D03*
Y180827D02*
D03*
D33*
X229673Y154055D02*
D03*
X231642D02*
D03*
X233610D02*
D03*
X235579D02*
D03*
X237547D02*
D03*
X239516D02*
D03*
X241484D02*
D03*
X243453D02*
D03*
X245421D02*
D03*
X247390D02*
D03*
X249358D02*
D03*
X251327D02*
D03*
Y185945D02*
D03*
X249358D02*
D03*
X247390D02*
D03*
X245421D02*
D03*
X243453D02*
D03*
X241484D02*
D03*
X239516D02*
D03*
X237547D02*
D03*
X235579D02*
D03*
X233610D02*
D03*
X231642D02*
D03*
X229673D02*
D03*
D34*
X274453Y165866D02*
D03*
X268547D02*
D03*
X274453Y174134D02*
D03*
X268547D02*
D03*
D58*
X209500Y189500D02*
D03*
Y164500D02*
D03*
D59*
X362800Y298400D02*
D03*
Y251200D02*
D03*
X150700Y298800D02*
D03*
Y263400D02*
D03*
X264600Y294700D02*
D03*
X229200D02*
D03*
X264600Y328700D02*
D03*
X229200D02*
D03*
X264100Y260700D02*
D03*
X228700D02*
D03*
X264100Y227700D02*
D03*
X228700D02*
D03*
X362800Y208600D02*
D03*
Y173200D02*
D03*
D61*
X215500Y192500D02*
Y197858D01*
X209500Y189500D02*
X212500D01*
X215500Y192500D01*
X203750Y189500D02*
X209500D01*
X274158Y160000D02*
Y165571D01*
X268843Y174429D02*
Y180500D01*
X203750Y164500D02*
X209500D01*
X164142D02*
X170000D01*
X164142Y189500D02*
X170000D01*
D62*
X208791Y185034D02*
X209257Y185500D01*
X209500D01*
X204284Y185034D02*
X208791D01*
X203750Y184500D02*
X204284Y185034D01*
X233102Y162000D02*
X237500D01*
X228705D02*
X233102D01*
X370658Y234567D02*
X370831Y234740D01*
X349500Y252000D02*
X350500D01*
X367933Y234567D01*
X370658D01*
X203750Y194500D02*
X204500Y193750D01*
X208506D01*
X209257Y193000D01*
X209500D01*
D63*
X268547Y165866D02*
X268695Y165718D01*
Y160148D02*
Y165718D01*
Y160148D02*
X268843Y160000D01*
X156858Y189500D02*
Y196358D01*
X168441Y206732D02*
X169500Y207791D01*
X167232Y206732D02*
X168441D01*
X156858Y196358D02*
X167232Y206732D01*
X156858Y164500D02*
Y189500D01*
X224500Y192150D02*
X233150D01*
D64*
X213000Y253000D02*
X240500D01*
X214000Y220000D02*
X240500D01*
D65*
Y241000D02*
X264500Y217000D01*
X349500Y212000D02*
Y212785D01*
X264500Y217000D02*
X345285D01*
X349500Y212785D01*
X370831Y220500D02*
Y227260D01*
D66*
X377500Y223882D02*
Y256000D01*
X370500Y263000D02*
X377500Y256000D01*
X374571Y220953D02*
X377500Y223882D01*
X370996Y220953D02*
X374571D01*
X370831Y220500D02*
Y220787D01*
X370996Y220953D01*
D67*
X349500Y262000D02*
X350000D01*
X362800Y274800D02*
X370500D01*
X350000Y262000D02*
X362800Y274800D01*
D68*
X241000Y287000D02*
Y321000D01*
D69*
X240369Y286369D02*
X241000Y287000D01*
X240369Y283869D02*
Y286369D01*
X224500Y268000D02*
X240369Y283869D01*
X189642Y268000D02*
X224500D01*
D70*
X170250Y257500D02*
D03*
D71*
X349500Y302000D02*
D03*
X289500D02*
D03*
D72*
X349500Y292000D02*
D03*
Y282000D02*
D03*
Y272000D02*
D03*
Y262000D02*
D03*
Y252000D02*
D03*
Y242000D02*
D03*
Y232000D02*
D03*
Y222000D02*
D03*
Y212000D02*
D03*
Y202000D02*
D03*
Y192000D02*
D03*
Y182000D02*
D03*
Y172000D02*
D03*
Y162000D02*
D03*
X289500Y292000D02*
D03*
Y282000D02*
D03*
Y272000D02*
D03*
Y262000D02*
D03*
Y252000D02*
D03*
Y242000D02*
D03*
Y232000D02*
D03*
Y222000D02*
D03*
Y212000D02*
D03*
Y202000D02*
D03*
Y192000D02*
D03*
Y182000D02*
D03*
Y172000D02*
D03*
Y162000D02*
D03*
D73*
X136200Y194000D02*
D03*
Y182200D02*
D03*
Y205800D02*
D03*
Y217600D02*
D03*
X148000Y194000D02*
D03*
Y182200D02*
D03*
Y205800D02*
D03*
Y217600D02*
D03*
D74*
X370500Y286600D02*
D03*
Y274800D02*
D03*
Y263000D02*
D03*
X143000Y287000D02*
D03*
Y275200D02*
D03*
X252800Y287000D02*
D03*
X241000D02*
D03*
X252800Y321000D02*
D03*
X241000D02*
D03*
X252300Y253000D02*
D03*
X240500D02*
D03*
X252300Y220000D02*
D03*
X240500D02*
D03*
X370500Y196800D02*
D03*
Y185000D02*
D03*
D75*
X371000Y324000D02*
D03*
Y152000D02*
D03*
X141000D02*
D03*
Y324000D02*
D03*
D76*
X224500Y155000D02*
D03*
X165500Y300500D02*
D03*
X159500D02*
D03*
X216000Y276000D02*
D03*
Y282500D02*
D03*
Y289000D02*
D03*
X197000Y234500D02*
D03*
X224500Y184500D02*
D03*
D77*
X246500Y147500D02*
D03*
X243490Y147510D02*
D03*
X209500Y185500D02*
D03*
X207000Y261000D02*
D03*
X230500Y181000D02*
D03*
X221000Y202000D02*
D03*
Y197500D02*
D03*
X251000Y181000D02*
D03*
X240500Y241000D02*
D03*
X219000Y176000D02*
D03*
Y173000D02*
D03*
X276500Y328000D02*
D03*
Y293500D02*
D03*
Y259500D02*
D03*
Y226500D02*
D03*
X190500Y263000D02*
D03*
X241484Y159484D02*
D03*
X235597Y159457D02*
D03*
X231642Y159358D02*
D03*
X219000Y159000D02*
D03*
X230500Y177000D02*
D03*
X219000Y167000D02*
D03*
X230500Y165000D02*
D03*
X236000Y192500D02*
D03*
Y195500D02*
D03*
Y198500D02*
D03*
X249000Y171000D02*
D03*
Y174000D02*
D03*
Y177000D02*
D03*
X261500Y179000D02*
D03*
X164500Y184500D02*
D03*
Y194500D02*
D03*
X219000Y170000D02*
D03*
X209500Y193000D02*
D03*
X164500Y159500D02*
D03*
Y169500D02*
D03*
X213500Y321000D02*
D03*
X183000Y263000D02*
D03*
D78*
X189181Y316000D02*
D03*
X193781D02*
D03*
X189181Y309000D02*
D03*
X193781D02*
D03*
M02*
