G04*
G04 #@! TF.GenerationSoftware,Altium Limited,Altium Designer,20.1.12 (249)*
G04*
G04 Layer_Physical_Order=4*
G04 Layer_Color=16711680*
%FSLAX25Y25*%
%MOIN*%
G70*
G04*
G04 #@! TF.SameCoordinates,4DEFB819-F1CA-47B0-AC9B-A980181B1EFC*
G04*
G04*
G04 #@! TF.FilePolarity,Positive*
G04*
G01*
G75*
%ADD12C,0.01000*%
%ADD16C,0.00500*%
%ADD19R,0.05906X0.05709*%
%ADD22R,0.03740X0.03543*%
%ADD23R,0.03543X0.03740*%
%ADD26R,0.05709X0.05906*%
%ADD28R,0.09449X0.12205*%
%ADD58C,0.03200*%
%ADD59C,0.04000*%
%ADD61C,0.02500*%
%ADD63C,0.03000*%
%ADD65C,0.02000*%
%ADD67C,0.04000*%
%ADD71R,0.06024X0.06024*%
%ADD72C,0.06024*%
%ADD73C,0.07500*%
%ADD74C,0.09000*%
%ADD75C,0.25000*%
%ADD76C,0.04500*%
%ADD77C,0.02400*%
%ADD78C,0.03000*%
%ADD79R,0.03504X0.03228*%
%ADD80R,0.11650X0.14300*%
%ADD81R,0.03500X0.05000*%
%ADD82R,0.09843X0.06693*%
%ADD83R,0.06500X0.06500*%
%ADD84R,0.13000X0.08661*%
%ADD85O,0.09449X0.02756*%
%ADD86R,0.09449X0.02756*%
%ADD87R,0.10630X0.06299*%
%ADD88R,0.06693X0.09843*%
%ADD89O,0.02362X0.04724*%
%ADD90R,0.02362X0.04724*%
%ADD91R,0.07087X0.08780*%
%ADD92C,0.02700*%
%ADD93C,0.03500*%
%ADD94R,0.06500X0.12000*%
%ADD95R,0.06000X0.06000*%
%ADD96R,0.21500X0.13500*%
%ADD97R,0.22000X0.17500*%
G36*
X389500Y136500D02*
X123000D01*
Y338500D01*
X389500D01*
Y136500D01*
D02*
G37*
%LPC*%
G36*
X229200Y332230D02*
X228286Y332110D01*
X227435Y331757D01*
X226704Y331196D01*
X226143Y330465D01*
X225790Y329614D01*
X225670Y328700D01*
X225790Y327786D01*
X226143Y326935D01*
X226704Y326204D01*
X227435Y325643D01*
X228286Y325290D01*
X229200Y325170D01*
X230114Y325290D01*
X230965Y325643D01*
X231696Y326204D01*
X232257Y326935D01*
X232610Y327786D01*
X232730Y328700D01*
X232610Y329614D01*
X232257Y330465D01*
X231696Y331196D01*
X230965Y331757D01*
X230114Y332110D01*
X229200Y332230D01*
D02*
G37*
G36*
X190913Y327370D02*
X188642D01*
Y325000D01*
X190913D01*
Y327370D01*
D02*
G37*
G36*
X197630D02*
X195358D01*
Y325000D01*
X197630D01*
Y327370D01*
D02*
G37*
G36*
X194358D02*
X192087D01*
Y325000D01*
X194358D01*
Y327370D01*
D02*
G37*
G36*
X187642D02*
X185370D01*
Y325000D01*
X187642D01*
Y327370D01*
D02*
G37*
G36*
X194358Y324000D02*
X192087D01*
Y321630D01*
X194358D01*
Y324000D01*
D02*
G37*
G36*
X190913D02*
X188642D01*
Y321630D01*
X190913D01*
Y324000D01*
D02*
G37*
G36*
X161500Y325161D02*
X155685D01*
Y321512D01*
X161500D01*
Y325161D01*
D02*
G37*
G36*
X216413Y327370D02*
X210870D01*
Y321630D01*
X210988D01*
X211305Y321243D01*
X211257Y321000D01*
X211428Y320142D01*
X211888Y319453D01*
X211773Y318953D01*
X208881D01*
X208481Y319453D01*
X208590Y320000D01*
X208405Y320928D01*
X208270Y321130D01*
X208538Y321630D01*
X209130D01*
Y327370D01*
X199370D01*
Y322404D01*
X198545Y322240D01*
X198130Y321963D01*
X197630Y322230D01*
Y324000D01*
X195358D01*
Y321630D01*
X197100D01*
X197368Y321130D01*
X197232Y320928D01*
X197048Y320000D01*
X197050Y319989D01*
X196733Y319602D01*
X191981D01*
Y312500D01*
Y305398D01*
X196733D01*
X197050Y305011D01*
X197048Y305000D01*
X197232Y304072D01*
X197480Y303701D01*
X197480Y289520D01*
X176039Y289520D01*
Y295547D01*
X183996D01*
Y302622D01*
X185906D01*
Y305398D01*
X190981D01*
Y312500D01*
Y319602D01*
X186267D01*
X185950Y319989D01*
X185952Y320000D01*
X185767Y320928D01*
X185633Y321130D01*
X185900Y321630D01*
X187642D01*
Y324000D01*
X185370D01*
Y322230D01*
X184870Y321963D01*
X184455Y322240D01*
X183630Y322404D01*
Y327370D01*
X178087D01*
Y322425D01*
X176835D01*
X175907Y322240D01*
X175120Y321714D01*
X174640Y320996D01*
X172000D01*
Y317142D01*
X171000D01*
Y320996D01*
X168315D01*
Y325161D01*
X162500D01*
Y321012D01*
Y316862D01*
X167547D01*
Y314138D01*
X155685D01*
Y313580D01*
X155558Y313390D01*
X155480Y313000D01*
X155480Y296520D01*
X155478Y296498D01*
X155066Y296020D01*
X153608D01*
X153362Y296520D01*
X153757Y297035D01*
X154110Y297886D01*
X154230Y298800D01*
X154110Y299714D01*
X153757Y300565D01*
X153196Y301296D01*
X152465Y301857D01*
X151614Y302210D01*
X150700Y302330D01*
X149786Y302210D01*
X148935Y301857D01*
X148204Y301296D01*
X147643Y300565D01*
X147466Y300138D01*
X124185D01*
Y299580D01*
X124058Y299390D01*
X123980Y299000D01*
Y281500D01*
X124058Y281110D01*
X124279Y280779D01*
X124610Y280558D01*
X125000Y280480D01*
X127154D01*
Y277453D01*
X135846D01*
Y280480D01*
X139858D01*
X140197Y280007D01*
X140195Y279980D01*
X139077Y279123D01*
X138196Y277974D01*
X137642Y276636D01*
X137452Y275200D01*
X137642Y273764D01*
X138196Y272426D01*
X139077Y271277D01*
X140226Y270396D01*
X140461Y270299D01*
Y268937D01*
X139750D01*
Y267731D01*
X135846D01*
Y273547D01*
X127154D01*
Y261705D01*
X135846D01*
Y263143D01*
X139750D01*
Y261937D01*
X145250D01*
Y268937D01*
X144539D01*
Y269884D01*
X145774Y270396D01*
X146923Y271277D01*
X147804Y272426D01*
X148358Y273764D01*
X148547Y275200D01*
X148358Y276636D01*
X147804Y277974D01*
X146923Y279123D01*
X145805Y279980D01*
X145803Y280007D01*
X146142Y280480D01*
X149950D01*
Y272950D01*
X163600D01*
Y289250D01*
X163520D01*
Y295000D01*
X163934Y295480D01*
X168500D01*
X168529Y295486D01*
X169004Y295547D01*
X169004Y295547D01*
X169004Y295547D01*
X171961D01*
Y289512D01*
X171610Y289442D01*
X171279Y289221D01*
X171058Y288890D01*
X170980Y288500D01*
Y273000D01*
X171058Y272610D01*
X171279Y272279D01*
X171610Y272058D01*
X172000Y271980D01*
X212000Y271980D01*
X212390Y272058D01*
X212721Y272279D01*
X212942Y272610D01*
X213020Y273000D01*
Y273724D01*
X213520Y273894D01*
X213682Y273682D01*
X214361Y273161D01*
X215152Y272834D01*
X216000Y272722D01*
X216848Y272834D01*
X217639Y273161D01*
X218318Y273682D01*
X218839Y274361D01*
X219166Y275152D01*
X219278Y276000D01*
X219166Y276848D01*
X218839Y277639D01*
X218318Y278318D01*
X217639Y278839D01*
X217300Y278979D01*
Y279521D01*
X217639Y279661D01*
X218318Y280182D01*
X218839Y280861D01*
X219166Y281652D01*
X219278Y282500D01*
X219166Y283348D01*
X218839Y284139D01*
X218318Y284818D01*
X217639Y285339D01*
X217300Y285479D01*
Y286021D01*
X217639Y286161D01*
X218318Y286682D01*
X218839Y287361D01*
X219166Y288152D01*
X219278Y289000D01*
X219166Y289848D01*
X218839Y290639D01*
X218318Y291318D01*
X217639Y291839D01*
X216848Y292166D01*
X216000Y292278D01*
X215152Y292166D01*
X214361Y291839D01*
X213682Y291318D01*
X213520Y291106D01*
X213020Y291276D01*
X213020Y306000D01*
X212942Y306390D01*
X212721Y306721D01*
X212390Y306942D01*
X212000Y307020D01*
X207474D01*
X207184Y307268D01*
X207155Y307425D01*
X207179Y307818D01*
X207880Y308286D01*
X208405Y309072D01*
X208490Y309500D01*
X202819D01*
Y310500D01*
X208490D01*
X208481Y310547D01*
X208881Y311047D01*
X218142D01*
Y315000D01*
Y318953D01*
X215227D01*
X215112Y319453D01*
X215572Y320142D01*
X215743Y321000D01*
X215695Y321243D01*
X216012Y321630D01*
X216413D01*
Y327370D01*
D02*
G37*
G36*
X276500Y330243D02*
X275642Y330072D01*
X274914Y329586D01*
X274428Y328858D01*
X274257Y328000D01*
X274382Y327370D01*
X274054Y326870D01*
X273870D01*
Y322413D01*
X273630D01*
Y316870D01*
X279370D01*
Y321130D01*
X279413D01*
Y326870D01*
X278946D01*
X278618Y327370D01*
X278743Y328000D01*
X278572Y328858D01*
X278086Y329586D01*
X277358Y330072D01*
X276500Y330243D01*
D02*
G37*
G36*
X161500Y320512D02*
X155685D01*
Y316862D01*
X161500D01*
Y320512D01*
D02*
G37*
G36*
X222496Y318953D02*
X219142D01*
Y315500D01*
X222496D01*
Y318953D01*
D02*
G37*
G36*
X245547Y336347D02*
X233705D01*
Y327654D01*
X238706D01*
Y326003D01*
X238226Y325804D01*
X237077Y324923D01*
X236196Y323774D01*
X235642Y322436D01*
X235453Y321000D01*
X235642Y319564D01*
X236196Y318226D01*
X237077Y317077D01*
X238226Y316196D01*
X239564Y315642D01*
X241000Y315453D01*
X242436Y315642D01*
X243774Y316196D01*
X244923Y317077D01*
X245804Y318226D01*
X246358Y319564D01*
X246548Y321000D01*
X246358Y322436D01*
X245804Y323774D01*
X244923Y324923D01*
X243774Y325804D01*
X243294Y326003D01*
Y327654D01*
X245547D01*
Y336347D01*
D02*
G37*
G36*
X263010Y317063D02*
X260760D01*
Y314063D01*
X263010D01*
Y317063D01*
D02*
G37*
G36*
X259760D02*
X257510D01*
Y314063D01*
X259760D01*
Y317063D01*
D02*
G37*
G36*
X279370Y315130D02*
X277000D01*
Y312858D01*
X279370D01*
Y315130D01*
D02*
G37*
G36*
X276000D02*
X273630D01*
Y312858D01*
X276000D01*
Y315130D01*
D02*
G37*
G36*
X222496Y314500D02*
X219142D01*
Y311047D01*
X222496D01*
Y314500D01*
D02*
G37*
G36*
X371000Y337542D02*
X368882Y337375D01*
X366815Y336879D01*
X364852Y336066D01*
X363040Y334956D01*
X361424Y333576D01*
X360045Y331960D01*
X358934Y330148D01*
X358121Y328185D01*
X357625Y326118D01*
X357458Y324000D01*
X357625Y321882D01*
X358121Y319815D01*
X358934Y317852D01*
X360045Y316040D01*
X361424Y314424D01*
X363040Y313045D01*
X364852Y311934D01*
X366815Y311121D01*
X368882Y310625D01*
X371000Y310458D01*
X373118Y310625D01*
X375185Y311121D01*
X377148Y311934D01*
X378960Y313045D01*
X380575Y314424D01*
X381956Y316040D01*
X383066Y317852D01*
X383879Y319815D01*
X384375Y321882D01*
X384542Y324000D01*
X384375Y326118D01*
X383879Y328185D01*
X383066Y330148D01*
X381956Y331960D01*
X380575Y333576D01*
X378960Y334956D01*
X377148Y336066D01*
X375185Y336879D01*
X373118Y337375D01*
X371000Y337542D01*
D02*
G37*
G36*
X261295Y336347D02*
X249453D01*
Y327654D01*
X250506D01*
Y326003D01*
X250026Y325804D01*
X248877Y324923D01*
X247996Y323774D01*
X247442Y322436D01*
X247252Y321000D01*
X247442Y319564D01*
X247996Y318226D01*
X248877Y317077D01*
X250026Y316196D01*
X251364Y315642D01*
X252800Y315453D01*
X254236Y315642D01*
X255574Y316196D01*
X256723Y317077D01*
X257604Y318226D01*
X257803Y318706D01*
X261250D01*
Y317937D01*
X266750D01*
Y321130D01*
X267716D01*
Y317063D01*
X264990D01*
Y310063D01*
X270490D01*
Y311057D01*
X270762Y311238D01*
X271148Y311817D01*
X271284Y312500D01*
Y321130D01*
X272130D01*
Y326870D01*
X268172D01*
X267838Y327370D01*
X268010Y327786D01*
X268130Y328700D01*
X268010Y329614D01*
X267657Y330465D01*
X267096Y331196D01*
X266365Y331757D01*
X265514Y332110D01*
X264600Y332230D01*
X263686Y332110D01*
X262835Y331757D01*
X262104Y331196D01*
X261795Y330794D01*
X261295Y330964D01*
Y336347D01*
D02*
G37*
G36*
X263010Y313063D02*
X260760D01*
Y310063D01*
X263010D01*
Y313063D01*
D02*
G37*
G36*
X259760D02*
X257510D01*
Y310063D01*
X259760D01*
Y313063D01*
D02*
G37*
G36*
X279370Y311858D02*
X277000D01*
Y309587D01*
X279370D01*
Y311858D01*
D02*
G37*
G36*
X276000D02*
X273630D01*
Y309587D01*
X276000D01*
Y311858D01*
D02*
G37*
G36*
X130000Y311161D02*
X124185D01*
Y307512D01*
X130000D01*
Y311161D01*
D02*
G37*
G36*
X148315Y306512D02*
X142500D01*
Y302862D01*
X148315D01*
Y306512D01*
D02*
G37*
G36*
X141000Y337542D02*
X138882Y337375D01*
X136815Y336879D01*
X134852Y336066D01*
X133040Y334956D01*
X131424Y333576D01*
X130044Y331960D01*
X128934Y330148D01*
X128121Y328185D01*
X127625Y326118D01*
X127458Y324000D01*
X127625Y321882D01*
X128121Y319815D01*
X128934Y317852D01*
X130044Y316040D01*
X131424Y314424D01*
X133040Y313045D01*
X134852Y311934D01*
X135534Y311652D01*
X135436Y311161D01*
X131000D01*
Y307012D01*
Y302862D01*
X141500D01*
Y307012D01*
X142000D01*
Y307512D01*
X148315D01*
Y311161D01*
X146564D01*
X146466Y311652D01*
X147148Y311934D01*
X148960Y313045D01*
X150575Y314424D01*
X151955Y316040D01*
X153066Y317852D01*
X153879Y319815D01*
X154375Y321882D01*
X154542Y324000D01*
X154375Y326118D01*
X153879Y328185D01*
X153066Y330148D01*
X151955Y331960D01*
X150575Y333576D01*
X148960Y334956D01*
X147148Y336066D01*
X145185Y336879D01*
X143118Y337375D01*
X141000Y337542D01*
D02*
G37*
G36*
X130000Y306512D02*
X124185D01*
Y302862D01*
X130000D01*
Y306512D01*
D02*
G37*
G36*
X353512Y306012D02*
X345488D01*
Y297988D01*
X353512D01*
Y306012D01*
D02*
G37*
G36*
X293512D02*
X285488D01*
Y297988D01*
X293512D01*
Y306012D01*
D02*
G37*
G36*
X195250Y299750D02*
X191500D01*
Y296000D01*
X195250D01*
Y299750D01*
D02*
G37*
G36*
X190500D02*
X186750D01*
Y296000D01*
X190500D01*
Y299750D01*
D02*
G37*
G36*
X362800Y301930D02*
X361886Y301810D01*
X361035Y301457D01*
X360304Y300896D01*
X359743Y300165D01*
X359390Y299314D01*
X359270Y298400D01*
X359390Y297486D01*
X359743Y296635D01*
X360304Y295904D01*
X361035Y295343D01*
X361886Y294990D01*
X362800Y294870D01*
X363714Y294990D01*
X364565Y295343D01*
X365296Y295904D01*
X365857Y296635D01*
X366210Y297486D01*
X366330Y298400D01*
X366210Y299314D01*
X365857Y300165D01*
X365296Y300896D01*
X364565Y301457D01*
X363714Y301810D01*
X362800Y301930D01*
D02*
G37*
G36*
X350000Y295981D02*
Y292500D01*
X353481D01*
X353409Y293047D01*
X353004Y294023D01*
X352361Y294861D01*
X351523Y295504D01*
X350547Y295909D01*
X350000Y295981D01*
D02*
G37*
G36*
X349000D02*
X348453Y295909D01*
X347477Y295504D01*
X346639Y294861D01*
X345996Y294023D01*
X345591Y293047D01*
X345519Y292500D01*
X349000D01*
Y295981D01*
D02*
G37*
G36*
X195250Y295000D02*
X191500D01*
Y291250D01*
X195250D01*
Y295000D01*
D02*
G37*
G36*
X190500D02*
X186750D01*
Y291250D01*
X190500D01*
Y295000D01*
D02*
G37*
G36*
X229200Y298230D02*
X228286Y298110D01*
X227435Y297757D01*
X226704Y297196D01*
X226143Y296465D01*
X225790Y295614D01*
X225670Y294700D01*
X225790Y293786D01*
X226143Y292935D01*
X226704Y292204D01*
X227435Y291643D01*
X228286Y291290D01*
X229200Y291170D01*
X230114Y291290D01*
X230965Y291643D01*
X231696Y292204D01*
X232257Y292935D01*
X232610Y293786D01*
X232730Y294700D01*
X232610Y295614D01*
X232257Y296465D01*
X231696Y297196D01*
X230965Y297757D01*
X230114Y298110D01*
X229200Y298230D01*
D02*
G37*
G36*
X353481Y291500D02*
X350000D01*
Y288019D01*
X350547Y288091D01*
X351523Y288496D01*
X352361Y289139D01*
X353004Y289977D01*
X353409Y290953D01*
X353481Y291500D01*
D02*
G37*
G36*
X349000D02*
X345519D01*
X345591Y290953D01*
X345996Y289977D01*
X346639Y289139D01*
X347477Y288496D01*
X348453Y288091D01*
X349000Y288019D01*
Y291500D01*
D02*
G37*
G36*
X289500Y296046D02*
X288453Y295909D01*
X287477Y295504D01*
X286639Y294861D01*
X285996Y294023D01*
X285591Y293047D01*
X285454Y292000D01*
X285591Y290953D01*
X285996Y289977D01*
X286639Y289139D01*
X287477Y288496D01*
X288453Y288091D01*
X289500Y287954D01*
X290547Y288091D01*
X291523Y288496D01*
X292361Y289139D01*
X293004Y289977D01*
X293409Y290953D01*
X293546Y292000D01*
X293409Y293047D01*
X293004Y294023D01*
X292361Y294861D01*
X291523Y295504D01*
X290547Y295909D01*
X289500Y296046D01*
D02*
G37*
G36*
X371000Y292082D02*
Y287100D01*
X375982D01*
X375858Y288036D01*
X375304Y289374D01*
X374423Y290523D01*
X373274Y291404D01*
X371936Y291958D01*
X371000Y292082D01*
D02*
G37*
G36*
X370000D02*
X369064Y291958D01*
X367726Y291404D01*
X366577Y290523D01*
X365696Y289374D01*
X365142Y288036D01*
X365018Y287100D01*
X370000D01*
Y292082D01*
D02*
G37*
G36*
X276500Y295743D02*
X275642Y295572D01*
X274914Y295086D01*
X274428Y294358D01*
X274257Y293500D01*
X274382Y292870D01*
X274054Y292370D01*
X273870D01*
Y287913D01*
X273630D01*
Y282370D01*
X279370D01*
Y286630D01*
X279413D01*
Y292370D01*
X278946D01*
X278618Y292870D01*
X278743Y293500D01*
X278572Y294358D01*
X278086Y295086D01*
X277358Y295572D01*
X276500Y295743D01*
D02*
G37*
G36*
X245547Y302847D02*
X233705D01*
Y294153D01*
X238706D01*
Y292003D01*
X238226Y291804D01*
X237077Y290923D01*
X236196Y289774D01*
X235642Y288436D01*
X235453Y287000D01*
X235642Y285564D01*
X236196Y284226D01*
X237077Y283077D01*
X238226Y282196D01*
X239564Y281642D01*
X241000Y281452D01*
X242436Y281642D01*
X243774Y282196D01*
X244923Y283077D01*
X245804Y284226D01*
X246358Y285564D01*
X246548Y287000D01*
X246358Y288436D01*
X245804Y289774D01*
X244923Y290923D01*
X243774Y291804D01*
X243294Y292003D01*
Y294153D01*
X245547D01*
Y302847D01*
D02*
G37*
G36*
X375982Y286100D02*
X371000D01*
Y281118D01*
X371936Y281242D01*
X373274Y281796D01*
X374423Y282677D01*
X375304Y283826D01*
X375858Y285164D01*
X375982Y286100D01*
D02*
G37*
G36*
X370000D02*
X365018D01*
X365142Y285164D01*
X365696Y283826D01*
X366577Y282677D01*
X367726Y281796D01*
X369064Y281242D01*
X370000Y281118D01*
Y286100D01*
D02*
G37*
G36*
X263010Y283063D02*
X260760D01*
Y280063D01*
X263010D01*
Y283063D01*
D02*
G37*
G36*
X259760D02*
X257510D01*
Y280063D01*
X259760D01*
Y283063D01*
D02*
G37*
G36*
X279370Y280630D02*
X277000D01*
Y278358D01*
X279370D01*
Y280630D01*
D02*
G37*
G36*
X276000D02*
X273630D01*
Y278358D01*
X276000D01*
Y280630D01*
D02*
G37*
G36*
X349500Y286046D02*
X348453Y285909D01*
X347477Y285504D01*
X346639Y284861D01*
X345996Y284023D01*
X345591Y283047D01*
X345454Y282000D01*
X345591Y280953D01*
X345996Y279977D01*
X346639Y279139D01*
X347477Y278496D01*
X348453Y278091D01*
X349500Y277954D01*
X350547Y278091D01*
X351523Y278496D01*
X352361Y279139D01*
X353004Y279977D01*
X353409Y280953D01*
X353546Y282000D01*
X353409Y283047D01*
X353004Y284023D01*
X352361Y284861D01*
X351523Y285504D01*
X350547Y285909D01*
X349500Y286046D01*
D02*
G37*
G36*
X289500D02*
X288453Y285909D01*
X287477Y285504D01*
X286639Y284861D01*
X285996Y284023D01*
X285591Y283047D01*
X285454Y282000D01*
X285591Y280953D01*
X285996Y279977D01*
X286639Y279139D01*
X287477Y278496D01*
X288453Y278091D01*
X289500Y277954D01*
X290547Y278091D01*
X291523Y278496D01*
X292361Y279139D01*
X293004Y279977D01*
X293409Y280953D01*
X293546Y282000D01*
X293409Y283047D01*
X293004Y284023D01*
X292361Y284861D01*
X291523Y285504D01*
X290547Y285909D01*
X289500Y286046D01*
D02*
G37*
G36*
X261295Y302847D02*
X249453D01*
Y294153D01*
X250506D01*
Y292003D01*
X250026Y291804D01*
X248877Y290923D01*
X247996Y289774D01*
X247442Y288436D01*
X247252Y287000D01*
X247442Y285564D01*
X247996Y284226D01*
X248877Y283077D01*
X250026Y282196D01*
X251364Y281642D01*
X252800Y281452D01*
X254236Y281642D01*
X255574Y282196D01*
X256723Y283077D01*
X257604Y284226D01*
X257803Y284706D01*
X261250D01*
Y283937D01*
X266750D01*
Y286630D01*
X267574D01*
Y283063D01*
X264990D01*
Y276063D01*
X270490D01*
Y277152D01*
X270620Y277238D01*
X271007Y277817D01*
X271143Y278500D01*
Y286630D01*
X272130D01*
Y292370D01*
X267789D01*
X267568Y292818D01*
X267657Y292935D01*
X268010Y293786D01*
X268130Y294700D01*
X268010Y295614D01*
X267657Y296465D01*
X267096Y297196D01*
X266365Y297757D01*
X265514Y298110D01*
X264600Y298230D01*
X263686Y298110D01*
X262835Y297757D01*
X262104Y297196D01*
X261795Y296794D01*
X261295Y296964D01*
Y302847D01*
D02*
G37*
G36*
X263010Y279063D02*
X260760D01*
Y276063D01*
X263010D01*
Y279063D01*
D02*
G37*
G36*
X259760D02*
X257510D01*
Y276063D01*
X259760D01*
Y279063D01*
D02*
G37*
G36*
X279370Y277358D02*
X277000D01*
Y275087D01*
X279370D01*
Y277358D01*
D02*
G37*
G36*
X276000D02*
X273630D01*
Y275087D01*
X276000D01*
Y277358D01*
D02*
G37*
G36*
X290000Y275981D02*
Y272500D01*
X293481D01*
X293409Y273047D01*
X293004Y274023D01*
X292361Y274861D01*
X291523Y275504D01*
X290547Y275909D01*
X290000Y275981D01*
D02*
G37*
G36*
X289000D02*
X288453Y275909D01*
X287477Y275504D01*
X286639Y274861D01*
X285996Y274023D01*
X285591Y273047D01*
X285519Y272500D01*
X289000D01*
Y275981D01*
D02*
G37*
G36*
X370500Y280347D02*
X369064Y280158D01*
X367726Y279604D01*
X366577Y278723D01*
X365696Y277574D01*
X365142Y276236D01*
X364952Y274800D01*
X365142Y273364D01*
X365696Y272026D01*
X366577Y270877D01*
X367726Y269996D01*
X369064Y269442D01*
X370500Y269252D01*
X371936Y269442D01*
X373274Y269996D01*
X374423Y270877D01*
X375304Y272026D01*
X375858Y273364D01*
X376047Y274800D01*
X375858Y276236D01*
X375304Y277574D01*
X374423Y278723D01*
X373274Y279604D01*
X371936Y280158D01*
X370500Y280347D01*
D02*
G37*
G36*
X293481Y271500D02*
X290000D01*
Y268019D01*
X290547Y268091D01*
X291523Y268496D01*
X292361Y269139D01*
X293004Y269977D01*
X293409Y270953D01*
X293481Y271500D01*
D02*
G37*
G36*
X289000D02*
X285519D01*
X285591Y270953D01*
X285996Y269977D01*
X286639Y269139D01*
X287477Y268496D01*
X288453Y268091D01*
X289000Y268019D01*
Y271500D01*
D02*
G37*
G36*
X349500Y276046D02*
X348453Y275909D01*
X347477Y275504D01*
X346639Y274861D01*
X345996Y274023D01*
X345591Y273047D01*
X345454Y272000D01*
X345591Y270953D01*
X345996Y269977D01*
X346639Y269139D01*
X347477Y268496D01*
X348453Y268091D01*
X349500Y267954D01*
X350547Y268091D01*
X351523Y268496D01*
X352361Y269139D01*
X353004Y269977D01*
X353409Y270953D01*
X353546Y272000D01*
X353409Y273047D01*
X353004Y274023D01*
X352361Y274861D01*
X351523Y275504D01*
X350547Y275909D01*
X349500Y276046D01*
D02*
G37*
G36*
X201000Y268020D02*
X172760D01*
X172370Y267942D01*
X172039Y267721D01*
X164731Y260413D01*
X160630D01*
Y260370D01*
X155870D01*
Y254630D01*
X161413D01*
Y254870D01*
X166370D01*
Y259168D01*
X173182Y265980D01*
X200578D01*
X204890Y261668D01*
X204757Y261000D01*
X204928Y260142D01*
X205414Y259414D01*
X206142Y258928D01*
X207000Y258757D01*
X207858Y258928D01*
X208586Y259414D01*
X209072Y260142D01*
X209243Y261000D01*
X209072Y261858D01*
X208586Y262586D01*
X207858Y263072D01*
X207000Y263243D01*
X206332Y263110D01*
X201721Y267721D01*
X201390Y267942D01*
X201000Y268020D01*
D02*
G37*
G36*
X141510Y261063D02*
X139260D01*
Y258063D01*
X141510D01*
Y261063D01*
D02*
G37*
G36*
X138260D02*
X136010D01*
Y258063D01*
X138260D01*
Y261063D01*
D02*
G37*
G36*
X349500Y266046D02*
X348453Y265909D01*
X347477Y265504D01*
X346639Y264861D01*
X345996Y264023D01*
X345591Y263047D01*
X345454Y262000D01*
X345591Y260953D01*
X345996Y259977D01*
X346639Y259139D01*
X347477Y258496D01*
X348453Y258091D01*
X349500Y257954D01*
X350547Y258091D01*
X351523Y258496D01*
X352361Y259139D01*
X353004Y259977D01*
X353409Y260953D01*
X353546Y262000D01*
X353409Y263047D01*
X353004Y264023D01*
X352361Y264861D01*
X351523Y265504D01*
X350547Y265909D01*
X349500Y266046D01*
D02*
G37*
G36*
X289500D02*
X288453Y265909D01*
X287477Y265504D01*
X286639Y264861D01*
X285996Y264023D01*
X285591Y263047D01*
X285454Y262000D01*
X285591Y260953D01*
X285996Y259977D01*
X286639Y259139D01*
X287477Y258496D01*
X288453Y258091D01*
X289500Y257954D01*
X290547Y258091D01*
X291523Y258496D01*
X292361Y259139D01*
X293004Y259977D01*
X293409Y260953D01*
X293546Y262000D01*
X293409Y263047D01*
X293004Y264023D01*
X292361Y264861D01*
X291523Y265504D01*
X290547Y265909D01*
X289500Y266046D01*
D02*
G37*
G36*
X370500Y268548D02*
X369064Y268358D01*
X367726Y267804D01*
X366577Y266923D01*
X365696Y265774D01*
X365142Y264436D01*
X364952Y263000D01*
X365142Y261564D01*
X365696Y260226D01*
X366577Y259077D01*
X367726Y258196D01*
X369064Y257642D01*
X370500Y257453D01*
X371936Y257642D01*
X373274Y258196D01*
X374423Y259077D01*
X375304Y260226D01*
X375858Y261564D01*
X376047Y263000D01*
X375858Y264436D01*
X375304Y265774D01*
X374423Y266923D01*
X373274Y267804D01*
X371936Y268358D01*
X370500Y268548D01*
D02*
G37*
G36*
X228700Y264230D02*
X227786Y264110D01*
X226935Y263757D01*
X226204Y263196D01*
X225643Y262465D01*
X225290Y261614D01*
X225170Y260700D01*
X225290Y259786D01*
X225643Y258935D01*
X226204Y258204D01*
X226935Y257643D01*
X227786Y257290D01*
X228700Y257170D01*
X229614Y257290D01*
X230465Y257643D01*
X231196Y258204D01*
X231757Y258935D01*
X232110Y259786D01*
X232230Y260700D01*
X232110Y261614D01*
X231757Y262465D01*
X231196Y263196D01*
X230465Y263757D01*
X229614Y264110D01*
X228700Y264230D01*
D02*
G37*
G36*
X183000Y265243D02*
X182142Y265072D01*
X181414Y264586D01*
X180928Y263858D01*
X180757Y263000D01*
X180928Y262142D01*
X181414Y261414D01*
X181687Y261231D01*
Y260990D01*
X181205Y260268D01*
X181036Y259417D01*
Y257055D01*
X181205Y256204D01*
X181687Y255483D01*
X182409Y255001D01*
X183260Y254831D01*
X184111Y255001D01*
X184832Y255483D01*
X185314Y256204D01*
X185484Y257055D01*
Y259417D01*
X185314Y260268D01*
X184832Y260990D01*
X184808Y261006D01*
X184744Y261650D01*
X185072Y262142D01*
X185243Y263000D01*
X185072Y263858D01*
X184586Y264586D01*
X183858Y265072D01*
X183000Y265243D01*
D02*
G37*
G36*
X150700Y266930D02*
X149786Y266810D01*
X148935Y266457D01*
X148204Y265896D01*
X147643Y265165D01*
X147290Y264314D01*
X147170Y263400D01*
X147290Y262486D01*
X147643Y261635D01*
X147738Y261511D01*
X147516Y261063D01*
X143490D01*
Y254063D01*
X148990D01*
Y254630D01*
X154130D01*
Y260370D01*
X153279D01*
X153118Y260844D01*
X153196Y260904D01*
X153757Y261635D01*
X154110Y262486D01*
X154230Y263400D01*
X154110Y264314D01*
X153757Y265165D01*
X153196Y265896D01*
X152465Y266457D01*
X151614Y266810D01*
X150700Y266930D01*
D02*
G37*
G36*
X141510Y257063D02*
X139260D01*
Y254063D01*
X141510D01*
Y257063D01*
D02*
G37*
G36*
X138260D02*
X136010D01*
Y254063D01*
X138260D01*
Y257063D01*
D02*
G37*
G36*
X166370Y253130D02*
X164000D01*
Y250858D01*
X166370D01*
Y253130D01*
D02*
G37*
G36*
X163000D02*
X160630D01*
Y250858D01*
X163000D01*
Y253130D01*
D02*
G37*
G36*
X276500Y261743D02*
X275642Y261572D01*
X274914Y261086D01*
X274428Y260358D01*
X274257Y259500D01*
X274382Y258870D01*
X274054Y258370D01*
X273870D01*
Y253913D01*
X273630D01*
Y248370D01*
X279370D01*
Y252630D01*
X279413D01*
Y258370D01*
X278946D01*
X278618Y258870D01*
X278743Y259500D01*
X278572Y260358D01*
X278086Y261086D01*
X277358Y261572D01*
X276500Y261743D01*
D02*
G37*
G36*
X349500Y256046D02*
X348453Y255909D01*
X347477Y255504D01*
X346639Y254861D01*
X345996Y254023D01*
X345591Y253047D01*
X345454Y252000D01*
X345591Y250953D01*
X345996Y249977D01*
X346639Y249139D01*
X347477Y248496D01*
X348453Y248091D01*
X349500Y247954D01*
X350547Y248091D01*
X351523Y248496D01*
X352361Y249139D01*
X353004Y249977D01*
X353409Y250953D01*
X353546Y252000D01*
X353409Y253047D01*
X353004Y254023D01*
X352361Y254861D01*
X351523Y255504D01*
X350547Y255909D01*
X349500Y256046D01*
D02*
G37*
G36*
X289500D02*
X288453Y255909D01*
X287477Y255504D01*
X286639Y254861D01*
X285996Y254023D01*
X285591Y253047D01*
X285454Y252000D01*
X285591Y250953D01*
X285996Y249977D01*
X286639Y249139D01*
X287477Y248496D01*
X288453Y248091D01*
X289500Y247954D01*
X290547Y248091D01*
X291523Y248496D01*
X292361Y249139D01*
X293004Y249977D01*
X293409Y250953D01*
X293546Y252000D01*
X293409Y253047D01*
X293004Y254023D01*
X292361Y254861D01*
X291523Y255504D01*
X290547Y255909D01*
X289500Y256046D01*
D02*
G37*
G36*
X362800Y254730D02*
X361886Y254610D01*
X361035Y254257D01*
X360304Y253696D01*
X359743Y252965D01*
X359390Y252114D01*
X359270Y251200D01*
X359390Y250286D01*
X359743Y249435D01*
X360304Y248704D01*
X361035Y248143D01*
X361886Y247790D01*
X362800Y247670D01*
X363714Y247790D01*
X364565Y248143D01*
X365296Y248704D01*
X365857Y249435D01*
X366210Y250286D01*
X366330Y251200D01*
X366210Y252114D01*
X365857Y252965D01*
X365296Y253696D01*
X364565Y254257D01*
X363714Y254610D01*
X362800Y254730D01*
D02*
G37*
G36*
X166370Y249858D02*
X164000D01*
Y247587D01*
X166370D01*
Y249858D01*
D02*
G37*
G36*
X163000D02*
X160630D01*
Y247587D01*
X163000D01*
Y249858D01*
D02*
G37*
G36*
X245547Y268847D02*
X233705D01*
Y260154D01*
X238206D01*
Y258003D01*
X237726Y257804D01*
X236577Y256923D01*
X235696Y255774D01*
X235142Y254436D01*
X234952Y253000D01*
X235142Y251564D01*
X235696Y250226D01*
X236577Y249077D01*
X237726Y248196D01*
X239064Y247642D01*
X240500Y247452D01*
X241936Y247642D01*
X243274Y248196D01*
X244423Y249077D01*
X245304Y250226D01*
X245858Y251564D01*
X246047Y253000D01*
X245858Y254436D01*
X245304Y255774D01*
X244423Y256923D01*
X243274Y257804D01*
X242794Y258003D01*
Y260154D01*
X245547D01*
Y268847D01*
D02*
G37*
G36*
X263010Y249063D02*
X260760D01*
Y246063D01*
X263010D01*
Y249063D01*
D02*
G37*
G36*
X259760D02*
X257510D01*
Y246063D01*
X259760D01*
Y249063D01*
D02*
G37*
G36*
X279370Y246630D02*
X277000D01*
Y244358D01*
X279370D01*
Y246630D01*
D02*
G37*
G36*
X276000D02*
X273630D01*
Y244358D01*
X276000D01*
Y246630D01*
D02*
G37*
G36*
X261295Y268847D02*
X249453D01*
Y260154D01*
X250006D01*
Y258003D01*
X249526Y257804D01*
X248377Y256923D01*
X247496Y255774D01*
X246942Y254436D01*
X246753Y253000D01*
X246942Y251564D01*
X247496Y250226D01*
X248377Y249077D01*
X249526Y248196D01*
X250864Y247642D01*
X252300Y247452D01*
X253736Y247642D01*
X255074Y248196D01*
X256223Y249077D01*
X257104Y250226D01*
X257303Y250706D01*
X261250D01*
Y249937D01*
X266750D01*
Y252630D01*
X267574D01*
Y249063D01*
X264990D01*
Y242063D01*
X270490D01*
Y243152D01*
X270620Y243238D01*
X271007Y243817D01*
X271143Y244500D01*
Y252630D01*
X272130D01*
Y258370D01*
X267289D01*
X267068Y258819D01*
X267157Y258935D01*
X267510Y259786D01*
X267630Y260700D01*
X267510Y261614D01*
X267157Y262465D01*
X266596Y263196D01*
X265865Y263757D01*
X265014Y264110D01*
X264100Y264230D01*
X263186Y264110D01*
X262335Y263757D01*
X261795Y263343D01*
X261295Y263586D01*
Y268847D01*
D02*
G37*
G36*
X263010Y245063D02*
X260760D01*
Y242063D01*
X263010D01*
Y245063D01*
D02*
G37*
G36*
X259760D02*
X257510D01*
Y242063D01*
X259760D01*
Y245063D01*
D02*
G37*
G36*
X279370Y243358D02*
X277000D01*
Y241087D01*
X279370D01*
Y243358D01*
D02*
G37*
G36*
X276000D02*
X273630D01*
Y241087D01*
X276000D01*
Y243358D01*
D02*
G37*
G36*
X190500Y265243D02*
X189642Y265072D01*
X188914Y264586D01*
X188428Y263858D01*
X188257Y263000D01*
X188428Y262142D01*
X188910Y261419D01*
X189168Y261007D01*
Y260990D01*
X188686Y260268D01*
X188516Y259417D01*
Y257055D01*
X188686Y256204D01*
X189168Y255483D01*
X189455Y255291D01*
X189581Y254611D01*
X189524Y254529D01*
X189500D01*
X188915Y254413D01*
X188419Y254081D01*
X185919Y251581D01*
X185587Y251085D01*
X185535Y250826D01*
X185432Y250756D01*
X185315Y250682D01*
X184880D01*
X184832Y250754D01*
X184111Y251236D01*
X183260Y251405D01*
X182409Y251236D01*
X181687Y250754D01*
X181205Y250032D01*
X181036Y249181D01*
Y246819D01*
X181205Y245968D01*
X181550Y245453D01*
X181295Y244953D01*
X179504D01*
Y237047D01*
X182290D01*
X185919Y233419D01*
X186415Y233087D01*
X187000Y232971D01*
X194116D01*
X194161Y232861D01*
X194682Y232182D01*
X195361Y231661D01*
X196152Y231334D01*
X197000Y231222D01*
X197848Y231334D01*
X198639Y231661D01*
X199318Y232182D01*
X199839Y232861D01*
X200166Y233652D01*
X200278Y234500D01*
X200166Y235348D01*
X199839Y236139D01*
X199318Y236818D01*
X198639Y237339D01*
X197848Y237666D01*
X197000Y237778D01*
X196152Y237666D01*
X195361Y237339D01*
X194996Y237059D01*
X194496Y237305D01*
X194496Y237436D01*
Y240500D01*
X190642D01*
Y241500D01*
X194496D01*
Y244953D01*
X192921D01*
Y247500D01*
X190740D01*
Y248500D01*
X192921D01*
Y251362D01*
X193376Y251471D01*
X227867D01*
X238270Y241067D01*
X238257Y241000D01*
X238428Y240142D01*
X238914Y239414D01*
X239642Y238928D01*
X240500Y238757D01*
X241358Y238928D01*
X242086Y239414D01*
X242572Y240142D01*
X242743Y241000D01*
X242572Y241858D01*
X242086Y242586D01*
X241358Y243072D01*
X240500Y243243D01*
X240433Y243230D01*
X229581Y254081D01*
X229085Y254413D01*
X228500Y254529D01*
X191956D01*
X191899Y254611D01*
X192025Y255291D01*
X192313Y255483D01*
X192795Y256204D01*
X192964Y257055D01*
Y259417D01*
X192795Y260268D01*
X192313Y260990D01*
X192298Y261000D01*
X192238Y261641D01*
X192572Y262142D01*
X192743Y263000D01*
X192572Y263858D01*
X192086Y264586D01*
X191358Y265072D01*
X190500Y265243D01*
D02*
G37*
G36*
X349500Y246046D02*
X348453Y245909D01*
X347477Y245504D01*
X346639Y244861D01*
X345996Y244023D01*
X345591Y243047D01*
X345454Y242000D01*
X345591Y240953D01*
X345996Y239977D01*
X346639Y239139D01*
X347477Y238496D01*
X348453Y238091D01*
X349500Y237954D01*
X350547Y238091D01*
X351523Y238496D01*
X352361Y239139D01*
X353004Y239977D01*
X353409Y240953D01*
X353546Y242000D01*
X353409Y243047D01*
X353004Y244023D01*
X352361Y244861D01*
X351523Y245504D01*
X350547Y245909D01*
X349500Y246046D01*
D02*
G37*
G36*
X289500D02*
X288453Y245909D01*
X287477Y245504D01*
X286639Y244861D01*
X285996Y244023D01*
X285591Y243047D01*
X285454Y242000D01*
X285591Y240953D01*
X285996Y239977D01*
X286639Y239139D01*
X287477Y238496D01*
X288453Y238091D01*
X289500Y237954D01*
X290547Y238091D01*
X291523Y238496D01*
X292361Y239139D01*
X293004Y239977D01*
X293409Y240953D01*
X293546Y242000D01*
X293409Y243047D01*
X293004Y244023D01*
X292361Y244861D01*
X291523Y245504D01*
X290547Y245909D01*
X289500Y246046D01*
D02*
G37*
G36*
X349500Y236046D02*
X348453Y235909D01*
X347477Y235504D01*
X346639Y234861D01*
X345996Y234023D01*
X345591Y233047D01*
X345454Y232000D01*
X345591Y230953D01*
X345996Y229977D01*
X346639Y229139D01*
X347477Y228496D01*
X348453Y228091D01*
X349500Y227954D01*
X350547Y228091D01*
X351523Y228496D01*
X352361Y229139D01*
X353004Y229977D01*
X353409Y230953D01*
X353546Y232000D01*
X353409Y233047D01*
X353004Y234023D01*
X352361Y234861D01*
X351523Y235504D01*
X350547Y235909D01*
X349500Y236046D01*
D02*
G37*
G36*
X289500D02*
X288453Y235909D01*
X287477Y235504D01*
X286639Y234861D01*
X285996Y234023D01*
X285591Y233047D01*
X285454Y232000D01*
X285591Y230953D01*
X285996Y229977D01*
X286639Y229139D01*
X287477Y228496D01*
X288453Y228091D01*
X289500Y227954D01*
X290547Y228091D01*
X291523Y228496D01*
X292361Y229139D01*
X293004Y229977D01*
X293409Y230953D01*
X293546Y232000D01*
X293409Y233047D01*
X293004Y234023D01*
X292361Y234861D01*
X291523Y235504D01*
X290547Y235909D01*
X289500Y236046D01*
D02*
G37*
G36*
X151700Y232476D02*
X150917Y232373D01*
X150187Y232070D01*
X149560Y231590D01*
X149080Y230963D01*
X148777Y230233D01*
X148674Y229450D01*
X148777Y228667D01*
X149080Y227937D01*
X149560Y227310D01*
X150187Y226830D01*
X150917Y226527D01*
X151700Y226424D01*
X152483Y226527D01*
X153213Y226830D01*
X153840Y227310D01*
X154321Y227937D01*
X154623Y228667D01*
X154726Y229450D01*
X154623Y230233D01*
X154321Y230963D01*
X153840Y231590D01*
X153213Y232070D01*
X152483Y232373D01*
X151700Y232476D01*
D02*
G37*
G36*
X228700Y231230D02*
X227786Y231110D01*
X226935Y230757D01*
X226204Y230196D01*
X225643Y229465D01*
X225290Y228614D01*
X225170Y227700D01*
X225290Y226786D01*
X225643Y225935D01*
X226204Y225204D01*
X226935Y224643D01*
X227786Y224290D01*
X228700Y224170D01*
X229614Y224290D01*
X230465Y224643D01*
X231196Y225204D01*
X231757Y225935D01*
X232110Y226786D01*
X232230Y227700D01*
X232110Y228614D01*
X231757Y229465D01*
X231196Y230196D01*
X230465Y230757D01*
X229614Y231110D01*
X228700Y231230D01*
D02*
G37*
G36*
X349500Y226046D02*
X348453Y225909D01*
X347477Y225504D01*
X346639Y224861D01*
X345996Y224023D01*
X345591Y223047D01*
X345454Y222000D01*
X345591Y220953D01*
X345996Y219977D01*
X346639Y219139D01*
X347477Y218496D01*
X348453Y218091D01*
X349500Y217954D01*
X350547Y218091D01*
X351523Y218496D01*
X352361Y219139D01*
X353004Y219977D01*
X353409Y220953D01*
X353546Y222000D01*
X353409Y223047D01*
X353004Y224023D01*
X352361Y224861D01*
X351523Y225504D01*
X350547Y225909D01*
X349500Y226046D01*
D02*
G37*
G36*
X289500D02*
X288453Y225909D01*
X287477Y225504D01*
X286639Y224861D01*
X285996Y224023D01*
X285591Y223047D01*
X285454Y222000D01*
X285591Y220953D01*
X285996Y219977D01*
X286639Y219139D01*
X287477Y218496D01*
X288453Y218091D01*
X289500Y217954D01*
X290547Y218091D01*
X291523Y218496D01*
X292361Y219139D01*
X293004Y219977D01*
X293409Y220953D01*
X293546Y222000D01*
X293409Y223047D01*
X293004Y224023D01*
X292361Y224861D01*
X291523Y225504D01*
X290547Y225909D01*
X289500Y226046D01*
D02*
G37*
G36*
X276500Y228743D02*
X275642Y228572D01*
X274914Y228086D01*
X274428Y227358D01*
X274257Y226500D01*
X274382Y225870D01*
X274054Y225370D01*
X273870D01*
Y220913D01*
X273630D01*
Y215370D01*
X279370D01*
Y219630D01*
X279413D01*
Y225370D01*
X278946D01*
X278618Y225870D01*
X278743Y226500D01*
X278572Y227358D01*
X278086Y228086D01*
X277358Y228572D01*
X276500Y228743D01*
D02*
G37*
G36*
X245547Y235846D02*
X233705D01*
Y227153D01*
X238206D01*
Y225003D01*
X237726Y224804D01*
X236577Y223923D01*
X235696Y222774D01*
X235142Y221436D01*
X234952Y220000D01*
X235142Y218564D01*
X235696Y217226D01*
X236577Y216077D01*
X237726Y215196D01*
X239064Y214642D01*
X240500Y214453D01*
X241936Y214642D01*
X243274Y215196D01*
X244423Y216077D01*
X245304Y217226D01*
X245858Y218564D01*
X246047Y220000D01*
X245858Y221436D01*
X245304Y222774D01*
X244423Y223923D01*
X243274Y224804D01*
X242794Y225003D01*
Y227153D01*
X245547D01*
Y235846D01*
D02*
G37*
G36*
X263010Y216063D02*
X260760D01*
Y213063D01*
X263010D01*
Y216063D01*
D02*
G37*
G36*
X259760D02*
X257510D01*
Y213063D01*
X259760D01*
Y216063D01*
D02*
G37*
G36*
X148000Y222391D02*
X146760Y222228D01*
X145605Y221749D01*
X144612Y220988D01*
X143851Y219995D01*
X143372Y218840D01*
X143209Y217600D01*
X143372Y216360D01*
X143851Y215205D01*
X144612Y214212D01*
X145605Y213451D01*
X146760Y212972D01*
X148000Y212809D01*
X149240Y212972D01*
X150396Y213451D01*
X151388Y214212D01*
X152149Y215205D01*
X152628Y216360D01*
X152791Y217600D01*
X152628Y218840D01*
X152149Y219995D01*
X151388Y220988D01*
X150396Y221749D01*
X149240Y222228D01*
X148000Y222391D01*
D02*
G37*
G36*
X136200D02*
X134960Y222228D01*
X133805Y221749D01*
X132812Y220988D01*
X132051Y219995D01*
X131572Y218840D01*
X131409Y217600D01*
X131572Y216360D01*
X132051Y215205D01*
X132812Y214212D01*
X133805Y213451D01*
X134960Y212972D01*
X136200Y212809D01*
X137440Y212972D01*
X138595Y213451D01*
X139588Y214212D01*
X140349Y215205D01*
X140828Y216360D01*
X140991Y217600D01*
X140828Y218840D01*
X140349Y219995D01*
X139588Y220988D01*
X138595Y221749D01*
X137440Y222228D01*
X136200Y222391D01*
D02*
G37*
G36*
X279370Y213630D02*
X277000D01*
Y211358D01*
X279370D01*
Y213630D01*
D02*
G37*
G36*
X276000D02*
X273630D01*
Y211358D01*
X276000D01*
Y213630D01*
D02*
G37*
G36*
X261295Y235846D02*
X249453D01*
Y227153D01*
X250006D01*
Y225003D01*
X249526Y224804D01*
X248377Y223923D01*
X247496Y222774D01*
X246942Y221436D01*
X246753Y220000D01*
X246942Y218564D01*
X247496Y217226D01*
X248377Y216077D01*
X249526Y215196D01*
X250864Y214642D01*
X252300Y214453D01*
X253736Y214642D01*
X255074Y215196D01*
X256223Y216077D01*
X257104Y217226D01*
X257303Y217706D01*
X261250D01*
Y216937D01*
X266750D01*
Y219630D01*
X267574D01*
Y216063D01*
X264990D01*
Y209063D01*
X270490D01*
Y210152D01*
X270620Y210238D01*
X271007Y210817D01*
X271143Y211500D01*
Y219630D01*
X272130D01*
Y225370D01*
X267289D01*
X267068Y225818D01*
X267157Y225935D01*
X267510Y226786D01*
X267630Y227700D01*
X267510Y228614D01*
X267157Y229465D01*
X266596Y230196D01*
X265865Y230757D01*
X265014Y231110D01*
X264100Y231230D01*
X263186Y231110D01*
X262335Y230757D01*
X261795Y230343D01*
X261295Y230586D01*
Y235846D01*
D02*
G37*
G36*
X263010Y212063D02*
X260760D01*
Y209063D01*
X263010D01*
Y212063D01*
D02*
G37*
G36*
X259760D02*
X257510D01*
Y209063D01*
X259760D01*
Y212063D01*
D02*
G37*
G36*
X279370Y210358D02*
X277000D01*
Y208087D01*
X279370D01*
Y210358D01*
D02*
G37*
G36*
X276000D02*
X273630D01*
Y208087D01*
X276000D01*
Y210358D01*
D02*
G37*
G36*
X349500Y216046D02*
X348453Y215909D01*
X347477Y215504D01*
X346639Y214861D01*
X345996Y214023D01*
X345591Y213047D01*
X345454Y212000D01*
X345591Y210953D01*
X345996Y209977D01*
X346639Y209139D01*
X347477Y208496D01*
X348453Y208091D01*
X349500Y207954D01*
X350547Y208091D01*
X351523Y208496D01*
X352361Y209139D01*
X353004Y209977D01*
X353409Y210953D01*
X353546Y212000D01*
X353409Y213047D01*
X353004Y214023D01*
X352361Y214861D01*
X351523Y215504D01*
X350547Y215909D01*
X349500Y216046D01*
D02*
G37*
G36*
X289500D02*
X288453Y215909D01*
X287477Y215504D01*
X286639Y214861D01*
X285996Y214023D01*
X285591Y213047D01*
X285454Y212000D01*
X285591Y210953D01*
X285996Y209977D01*
X286639Y209139D01*
X287477Y208496D01*
X288453Y208091D01*
X289500Y207954D01*
X290547Y208091D01*
X291523Y208496D01*
X292361Y209139D01*
X293004Y209977D01*
X293409Y210953D01*
X293546Y212000D01*
X293409Y213047D01*
X293004Y214023D01*
X292361Y214861D01*
X291523Y215504D01*
X290547Y215909D01*
X289500Y216046D01*
D02*
G37*
G36*
X362800Y212130D02*
X361886Y212010D01*
X361035Y211657D01*
X360304Y211096D01*
X359743Y210365D01*
X359390Y209514D01*
X359270Y208600D01*
X359390Y207686D01*
X359743Y206835D01*
X360304Y206104D01*
X361035Y205543D01*
X361886Y205190D01*
X362800Y205070D01*
X363714Y205190D01*
X364565Y205543D01*
X365296Y206104D01*
X365857Y206835D01*
X366210Y207686D01*
X366330Y208600D01*
X366210Y209514D01*
X365857Y210365D01*
X365296Y211096D01*
X364565Y211657D01*
X363714Y212010D01*
X362800Y212130D01*
D02*
G37*
G36*
X148000Y210591D02*
X146760Y210428D01*
X145605Y209949D01*
X144612Y209188D01*
X143851Y208195D01*
X143372Y207040D01*
X143209Y205800D01*
X143372Y204560D01*
X143851Y203404D01*
X144612Y202412D01*
X145605Y201651D01*
X146760Y201172D01*
X148000Y201009D01*
X149240Y201172D01*
X150396Y201651D01*
X151388Y202412D01*
X152149Y203404D01*
X152628Y204560D01*
X152791Y205800D01*
X152628Y207040D01*
X152149Y208195D01*
X151388Y209188D01*
X150396Y209949D01*
X149240Y210428D01*
X148000Y210591D01*
D02*
G37*
G36*
X136200D02*
X134960Y210428D01*
X133805Y209949D01*
X132812Y209188D01*
X132051Y208195D01*
X131572Y207040D01*
X131409Y205800D01*
X131572Y204560D01*
X132051Y203404D01*
X132812Y202412D01*
X133805Y201651D01*
X134960Y201172D01*
X136200Y201009D01*
X137440Y201172D01*
X138595Y201651D01*
X139588Y202412D01*
X140349Y203404D01*
X140828Y204560D01*
X140991Y205800D01*
X140828Y207040D01*
X140349Y208195D01*
X139588Y209188D01*
X138595Y209949D01*
X137440Y210428D01*
X136200Y210591D01*
D02*
G37*
G36*
X349500Y206046D02*
X348453Y205909D01*
X347477Y205504D01*
X346639Y204861D01*
X345996Y204023D01*
X345591Y203047D01*
X345454Y202000D01*
X345591Y200953D01*
X345996Y199977D01*
X346639Y199139D01*
X347477Y198496D01*
X348453Y198091D01*
X349500Y197954D01*
X350547Y198091D01*
X351523Y198496D01*
X352361Y199139D01*
X353004Y199977D01*
X353409Y200953D01*
X353546Y202000D01*
X353409Y203047D01*
X353004Y204023D01*
X352361Y204861D01*
X351523Y205504D01*
X350547Y205909D01*
X349500Y206046D01*
D02*
G37*
G36*
X289500D02*
X288453Y205909D01*
X287477Y205504D01*
X286639Y204861D01*
X285996Y204023D01*
X285591Y203047D01*
X285454Y202000D01*
X285591Y200953D01*
X285996Y199977D01*
X286639Y199139D01*
X287477Y198496D01*
X288453Y198091D01*
X289500Y197954D01*
X290547Y198091D01*
X291523Y198496D01*
X292361Y199139D01*
X293004Y199977D01*
X293409Y200953D01*
X293546Y202000D01*
X293409Y203047D01*
X293004Y204023D01*
X292361Y204861D01*
X291523Y205504D01*
X290547Y205909D01*
X289500Y206046D01*
D02*
G37*
G36*
X371000Y202282D02*
Y197300D01*
X375982D01*
X375858Y198236D01*
X375304Y199574D01*
X374423Y200723D01*
X373274Y201604D01*
X371936Y202158D01*
X371000Y202282D01*
D02*
G37*
G36*
X370000D02*
X369064Y202158D01*
X367726Y201604D01*
X366577Y200723D01*
X365696Y199574D01*
X365142Y198236D01*
X365018Y197300D01*
X370000D01*
Y202282D01*
D02*
G37*
G36*
X207750Y202000D02*
X166250D01*
Y196578D01*
X165750Y196311D01*
X165358Y196572D01*
X164500Y196743D01*
X163642Y196572D01*
X162914Y196086D01*
X162428Y195358D01*
X162257Y194500D01*
X162428Y193642D01*
X162914Y192914D01*
X163642Y192428D01*
X164500Y192257D01*
X165358Y192428D01*
X165750Y192689D01*
X166250Y192422D01*
Y186578D01*
X165750Y186311D01*
X165358Y186572D01*
X164500Y186743D01*
X163642Y186572D01*
X162914Y186086D01*
X162428Y185358D01*
X162257Y184500D01*
X162428Y183642D01*
X162914Y182914D01*
X163642Y182428D01*
X164500Y182257D01*
X165358Y182428D01*
X165750Y182689D01*
X166250Y182422D01*
Y171578D01*
X165750Y171311D01*
X165358Y171572D01*
X164500Y171743D01*
X163642Y171572D01*
X162914Y171086D01*
X162428Y170358D01*
X162257Y169500D01*
X162428Y168642D01*
X162914Y167914D01*
X163642Y167428D01*
X164500Y167257D01*
X165358Y167428D01*
X165750Y167689D01*
X166250Y167422D01*
Y161578D01*
X165750Y161311D01*
X165358Y161572D01*
X164500Y161743D01*
X163642Y161572D01*
X162914Y161086D01*
X162428Y160358D01*
X162257Y159500D01*
X162428Y158642D01*
X162914Y157914D01*
X163642Y157428D01*
X164500Y157257D01*
X165358Y157428D01*
X165750Y157689D01*
X166250Y157422D01*
Y152000D01*
X206547D01*
Y148004D01*
X210000D01*
Y151858D01*
X210500D01*
Y152358D01*
X214453D01*
Y155287D01*
Y162996D01*
X212232D01*
X211898Y163496D01*
X212033Y163821D01*
X212122Y164500D01*
X212111Y164588D01*
X215262Y167738D01*
X215649Y168317D01*
X215784Y169000D01*
Y174619D01*
X216279Y174779D01*
X216610Y174558D01*
X216772Y174526D01*
X217033Y174016D01*
X216928Y173858D01*
X216757Y173000D01*
X216928Y172142D01*
X217356Y171500D01*
X216928Y170858D01*
X216757Y170000D01*
X216928Y169142D01*
X217356Y168500D01*
X217035Y168020D01*
X217000D01*
X216610Y167942D01*
X216279Y167721D01*
X216058Y167390D01*
X215980Y167000D01*
Y151500D01*
X216058Y151110D01*
X216279Y150779D01*
X216610Y150558D01*
X217000Y150480D01*
X219709D01*
Y140110D01*
X228795D01*
Y150890D01*
X228795D01*
X228498Y151390D01*
X228520Y151500D01*
Y156351D01*
X229020Y156618D01*
X229110Y156558D01*
X229500Y156480D01*
X231480D01*
Y150890D01*
X231205D01*
Y140110D01*
X240291D01*
Y150890D01*
X240020D01*
Y156480D01*
X243047D01*
X243168Y156434D01*
X243547Y156000D01*
Y152347D01*
X242759Y151559D01*
X242538Y151228D01*
X242460Y150838D01*
Y149468D01*
X241904Y149096D01*
X241418Y148368D01*
X241247Y147510D01*
X241418Y146652D01*
X241904Y145924D01*
X242632Y145438D01*
X243490Y145267D01*
X244348Y145438D01*
X244988Y145865D01*
X245642Y145428D01*
X246500Y145257D01*
X247358Y145428D01*
X248086Y145914D01*
X248465Y146480D01*
X251000D01*
X251390Y146558D01*
X251721Y146779D01*
X253946Y149004D01*
X258453D01*
Y156287D01*
Y159642D01*
X254500D01*
Y160142D01*
X254000D01*
Y163996D01*
X250402D01*
Y166000D01*
X247650D01*
Y167000D01*
X250402D01*
Y169114D01*
X250651Y169511D01*
X251072Y170142D01*
X251243Y171000D01*
X251072Y171858D01*
X250644Y172500D01*
X251072Y173142D01*
X251243Y174000D01*
X251072Y174858D01*
X250644Y175500D01*
X251072Y176142D01*
X251243Y177000D01*
X251072Y177858D01*
X250784Y178290D01*
X250898Y178536D01*
X251065Y178770D01*
X251858Y178928D01*
X252586Y179414D01*
X253072Y180142D01*
X253243Y181000D01*
X253072Y181858D01*
X252586Y182586D01*
X251858Y183072D01*
X251000Y183243D01*
X250142Y183072D01*
X249414Y182586D01*
X248928Y181858D01*
X248757Y181000D01*
X248928Y180142D01*
X249216Y179710D01*
X249102Y179464D01*
X248935Y179230D01*
X248142Y179072D01*
X247414Y178586D01*
X246928Y177858D01*
X246757Y177000D01*
X246928Y176142D01*
X247356Y175500D01*
X246928Y174858D01*
X246757Y174000D01*
X246928Y173142D01*
X247356Y172500D01*
X246928Y171858D01*
X246757Y171000D01*
X246928Y170142D01*
X247280Y169614D01*
X247031Y169114D01*
X244898D01*
X244520Y169409D01*
Y183000D01*
X244442Y183390D01*
X244221Y183721D01*
X243890Y183942D01*
X243500Y184020D01*
X228520D01*
Y187500D01*
X228442Y187890D01*
X228221Y188221D01*
X227890Y188442D01*
X227500Y188520D01*
X217000D01*
X216610Y188442D01*
X216279Y188221D01*
X216180Y188073D01*
X215649Y188179D01*
X215649Y188183D01*
X215262Y188762D01*
X215262Y188762D01*
X213262Y190762D01*
X212683Y191148D01*
X212000Y191284D01*
X211601D01*
X211305Y191742D01*
X211572Y192142D01*
X211743Y193000D01*
X211572Y193858D01*
X211086Y194586D01*
X210358Y195072D01*
X209500Y195243D01*
X208642Y195072D01*
X208250Y194811D01*
X207750Y195078D01*
Y202000D01*
D02*
G37*
G36*
X257791Y200890D02*
X253748D01*
Y196000D01*
X257791D01*
Y200890D01*
D02*
G37*
G36*
X252748D02*
X248705D01*
Y196000D01*
X252748D01*
Y200890D01*
D02*
G37*
G36*
X221000Y204243D02*
X220142Y204072D01*
X219414Y203586D01*
X218928Y202858D01*
X218757Y202000D01*
X218928Y201142D01*
X219414Y200414D01*
X219992Y200028D01*
X220008Y199978D01*
Y199522D01*
X219992Y199472D01*
X219414Y199086D01*
X218928Y198358D01*
X218757Y197500D01*
X218928Y196642D01*
X219414Y195914D01*
X220142Y195428D01*
X221000Y195257D01*
X221858Y195428D01*
X222586Y195914D01*
X223072Y196642D01*
X223243Y197500D01*
X223072Y198358D01*
X222586Y199086D01*
X222008Y199472D01*
X221992Y199522D01*
Y199978D01*
X222008Y200028D01*
X222586Y200414D01*
X223072Y201142D01*
X223243Y202000D01*
X223072Y202858D01*
X222586Y203586D01*
X221858Y204072D01*
X221000Y204243D01*
D02*
G37*
G36*
X375982Y196300D02*
X371000D01*
Y191318D01*
X371936Y191442D01*
X373274Y191996D01*
X374423Y192877D01*
X375304Y194026D01*
X375858Y195364D01*
X375982Y196300D01*
D02*
G37*
G36*
X370000D02*
X365018D01*
X365142Y195364D01*
X365696Y194026D01*
X366577Y192877D01*
X367726Y191996D01*
X369064Y191442D01*
X370000Y191318D01*
Y196300D01*
D02*
G37*
G36*
X257791Y195000D02*
X253748D01*
Y190110D01*
X257791D01*
Y195000D01*
D02*
G37*
G36*
X252748D02*
X248705D01*
Y190110D01*
X252748D01*
Y195000D01*
D02*
G37*
G36*
X245500Y204020D02*
X234500Y204020D01*
X234110Y203942D01*
X233779Y203721D01*
X233558Y203390D01*
X233480Y203000D01*
Y191000D01*
X233558Y190610D01*
X233779Y190279D01*
X234110Y190058D01*
X234500Y189980D01*
X245500Y189980D01*
X245890Y190058D01*
X245968Y190110D01*
X246295D01*
Y190390D01*
X246442Y190610D01*
X246520Y191000D01*
Y203000D01*
X246442Y203390D01*
X246221Y203721D01*
X245890Y203942D01*
X245500Y204020D01*
D02*
G37*
G36*
X148000Y198791D02*
X146760Y198628D01*
X145605Y198149D01*
X144612Y197388D01*
X143851Y196396D01*
X143372Y195240D01*
X143209Y194000D01*
X143372Y192760D01*
X143851Y191604D01*
X144612Y190612D01*
X145605Y189851D01*
X146760Y189372D01*
X148000Y189209D01*
X149240Y189372D01*
X150396Y189851D01*
X151388Y190612D01*
X152149Y191604D01*
X152628Y192760D01*
X152791Y194000D01*
X152628Y195240D01*
X152149Y196396D01*
X151388Y197388D01*
X150396Y198149D01*
X149240Y198628D01*
X148000Y198791D01*
D02*
G37*
G36*
X136200D02*
X134960Y198628D01*
X133805Y198149D01*
X132812Y197388D01*
X132051Y196396D01*
X131572Y195240D01*
X131409Y194000D01*
X131572Y192760D01*
X132051Y191604D01*
X132812Y190612D01*
X133805Y189851D01*
X134960Y189372D01*
X136200Y189209D01*
X137440Y189372D01*
X138595Y189851D01*
X139588Y190612D01*
X140349Y191604D01*
X140828Y192760D01*
X140991Y194000D01*
X140828Y195240D01*
X140349Y196396D01*
X139588Y197388D01*
X138595Y198149D01*
X137440Y198628D01*
X136200Y198791D01*
D02*
G37*
G36*
X370500Y190548D02*
X369064Y190358D01*
X367726Y189804D01*
X366577Y188923D01*
X366341Y188615D01*
X366058Y188671D01*
X363870D01*
Y189913D01*
X358130D01*
Y184370D01*
X363870D01*
Y185612D01*
X364654D01*
X364984Y185236D01*
X364952Y185000D01*
X365142Y183564D01*
X365696Y182226D01*
X366577Y181077D01*
X367726Y180196D01*
X369064Y179642D01*
X370500Y179453D01*
X371936Y179642D01*
X373274Y180196D01*
X374423Y181077D01*
X375304Y182226D01*
X375858Y183564D01*
X376047Y185000D01*
X375858Y186436D01*
X375304Y187774D01*
X374423Y188923D01*
X373274Y189804D01*
X371936Y190358D01*
X370500Y190548D01*
D02*
G37*
G36*
X349500Y196046D02*
X348453Y195908D01*
X347477Y195504D01*
X346639Y194861D01*
X345996Y194023D01*
X345591Y193047D01*
X345454Y192000D01*
X345591Y190953D01*
X345996Y189977D01*
X346639Y189139D01*
X347477Y188496D01*
X348453Y188092D01*
X349500Y187954D01*
X350547Y188092D01*
X351523Y188496D01*
X352361Y189139D01*
X353004Y189977D01*
X353409Y190953D01*
X353546Y192000D01*
X353409Y193047D01*
X353004Y194023D01*
X352361Y194861D01*
X351523Y195504D01*
X350547Y195908D01*
X349500Y196046D01*
D02*
G37*
G36*
X289500D02*
X288453Y195908D01*
X287477Y195504D01*
X286639Y194861D01*
X285996Y194023D01*
X285591Y193047D01*
X285454Y192000D01*
X285591Y190953D01*
X285996Y189977D01*
X286639Y189139D01*
X287477Y188496D01*
X288453Y188092D01*
X289500Y187954D01*
X290547Y188092D01*
X291523Y188496D01*
X292361Y189139D01*
X293004Y189977D01*
X293409Y190953D01*
X293546Y192000D01*
X293409Y193047D01*
X293004Y194023D01*
X292361Y194861D01*
X291523Y195504D01*
X290547Y195908D01*
X289500Y196046D01*
D02*
G37*
G36*
X148500Y186925D02*
Y182700D01*
X152725D01*
X152628Y183440D01*
X152149Y184596D01*
X151388Y185588D01*
X150396Y186349D01*
X149240Y186828D01*
X148500Y186925D01*
D02*
G37*
G36*
X136700D02*
Y182700D01*
X140925D01*
X140828Y183440D01*
X140349Y184596D01*
X139588Y185588D01*
X138595Y186349D01*
X137440Y186828D01*
X136700Y186925D01*
D02*
G37*
G36*
X147500D02*
X146760Y186828D01*
X145605Y186349D01*
X144612Y185588D01*
X143851Y184596D01*
X143372Y183440D01*
X143275Y182700D01*
X147500D01*
Y186925D01*
D02*
G37*
G36*
X135700D02*
X134960Y186828D01*
X133805Y186349D01*
X132812Y185588D01*
X132051Y184596D01*
X131572Y183440D01*
X131475Y182700D01*
X135700D01*
Y186925D01*
D02*
G37*
G36*
X349500Y186046D02*
X348453Y185908D01*
X347477Y185504D01*
X346639Y184861D01*
X345996Y184023D01*
X345591Y183047D01*
X345454Y182000D01*
X345591Y180953D01*
X345996Y179977D01*
X346639Y179139D01*
X347477Y178496D01*
X348453Y178092D01*
X349500Y177954D01*
X350547Y178092D01*
X351523Y178496D01*
X352361Y179139D01*
X353004Y179977D01*
X353409Y180953D01*
X353546Y182000D01*
X353409Y183047D01*
X353004Y184023D01*
X352361Y184861D01*
X351523Y185504D01*
X350547Y185908D01*
X349500Y186046D01*
D02*
G37*
G36*
X289500D02*
X288453Y185908D01*
X287477Y185504D01*
X286639Y184861D01*
X285996Y184023D01*
X285591Y183047D01*
X285454Y182000D01*
X285591Y180953D01*
X285996Y179977D01*
X286639Y179139D01*
X287477Y178496D01*
X288453Y178092D01*
X289500Y177954D01*
X290547Y178092D01*
X291523Y178496D01*
X292361Y179139D01*
X293004Y179977D01*
X293409Y180953D01*
X293546Y182000D01*
X293409Y183047D01*
X293004Y184023D01*
X292361Y184861D01*
X291523Y185504D01*
X290547Y185908D01*
X289500Y186046D01*
D02*
G37*
G36*
X152725Y181700D02*
X148500D01*
Y177475D01*
X149240Y177572D01*
X150396Y178051D01*
X151388Y178812D01*
X152149Y179805D01*
X152628Y180960D01*
X152725Y181700D01*
D02*
G37*
G36*
X140925D02*
X136700D01*
Y177475D01*
X137440Y177572D01*
X138595Y178051D01*
X139588Y178812D01*
X140349Y179805D01*
X140828Y180960D01*
X140925Y181700D01*
D02*
G37*
G36*
X147500D02*
X143275D01*
X143372Y180960D01*
X143851Y179805D01*
X144612Y178812D01*
X145605Y178051D01*
X146760Y177572D01*
X147500Y177475D01*
Y181700D01*
D02*
G37*
G36*
X135700D02*
X131475D01*
X131572Y180960D01*
X132051Y179805D01*
X132812Y178812D01*
X133805Y178051D01*
X134960Y177572D01*
X135700Y177475D01*
Y181700D01*
D02*
G37*
G36*
X261500Y181243D02*
X260642Y181072D01*
X259914Y180586D01*
X259428Y179858D01*
X259257Y179000D01*
X259428Y178142D01*
X259914Y177414D01*
X260642Y176928D01*
X261500Y176757D01*
X262358Y176928D01*
X263086Y177414D01*
X263572Y178142D01*
X263743Y179000D01*
X263572Y179858D01*
X263086Y180586D01*
X262358Y181072D01*
X261500Y181243D01*
D02*
G37*
G36*
X363870Y182630D02*
X358130D01*
Y179151D01*
X353272Y174293D01*
X352772Y174325D01*
X352361Y174861D01*
X351523Y175504D01*
X350547Y175909D01*
X349500Y176046D01*
X348453Y175909D01*
X347477Y175504D01*
X346639Y174861D01*
X345996Y174023D01*
X345591Y173047D01*
X345454Y172000D01*
X345591Y170953D01*
X345996Y169977D01*
X346639Y169139D01*
X347477Y168496D01*
X348453Y168091D01*
X349500Y167954D01*
X350547Y168091D01*
X351523Y168496D01*
X352361Y169139D01*
X353004Y169977D01*
X353387Y170901D01*
X353572D01*
X354157Y171017D01*
X354653Y171349D01*
X360391Y177087D01*
X361788D01*
X361886Y176610D01*
X361035Y176257D01*
X360304Y175696D01*
X359743Y174965D01*
X359390Y174114D01*
X359270Y173200D01*
X359390Y172286D01*
X359743Y171435D01*
X360304Y170704D01*
X361035Y170143D01*
X361886Y169790D01*
X362800Y169670D01*
X363714Y169790D01*
X364565Y170143D01*
X365296Y170704D01*
X365857Y171435D01*
X366210Y172286D01*
X366330Y173200D01*
X366210Y174114D01*
X365857Y174965D01*
X365296Y175696D01*
X364565Y176257D01*
X363714Y176610D01*
X363812Y177087D01*
X363870D01*
Y182630D01*
D02*
G37*
G36*
X289500Y176046D02*
X288453Y175909D01*
X287477Y175504D01*
X286639Y174861D01*
X285996Y174023D01*
X285591Y173047D01*
X285454Y172000D01*
X285591Y170953D01*
X285996Y169977D01*
X286639Y169139D01*
X287477Y168496D01*
X288453Y168091D01*
X289500Y167954D01*
X290547Y168091D01*
X291523Y168496D01*
X292361Y169139D01*
X293004Y169977D01*
X293409Y170953D01*
X293546Y172000D01*
X293409Y173047D01*
X293004Y174023D01*
X292361Y174861D01*
X291523Y175504D01*
X290547Y175909D01*
X289500Y176046D01*
D02*
G37*
G36*
X151700Y173376D02*
X150917Y173273D01*
X150187Y172970D01*
X149560Y172490D01*
X149080Y171863D01*
X148777Y171133D01*
X148674Y170350D01*
X148777Y169567D01*
X149080Y168837D01*
X149560Y168210D01*
X150187Y167729D01*
X150917Y167427D01*
X151700Y167324D01*
X152483Y167427D01*
X153213Y167729D01*
X153840Y168210D01*
X154321Y168837D01*
X154623Y169567D01*
X154726Y170350D01*
X154623Y171133D01*
X154321Y171863D01*
X153840Y172490D01*
X153213Y172970D01*
X152483Y173273D01*
X151700Y173376D01*
D02*
G37*
G36*
X258453Y163996D02*
X255000D01*
Y160642D01*
X258453D01*
Y163996D01*
D02*
G37*
G36*
X349500Y166046D02*
X348453Y165909D01*
X347477Y165504D01*
X346639Y164861D01*
X345996Y164023D01*
X345591Y163047D01*
X345454Y162000D01*
X345591Y160953D01*
X345996Y159977D01*
X346639Y159139D01*
X347477Y158496D01*
X348453Y158091D01*
X349500Y157954D01*
X350547Y158091D01*
X351523Y158496D01*
X352361Y159139D01*
X353004Y159977D01*
X353409Y160953D01*
X353546Y162000D01*
X353409Y163047D01*
X353004Y164023D01*
X352361Y164861D01*
X351523Y165504D01*
X350547Y165909D01*
X349500Y166046D01*
D02*
G37*
G36*
X289500D02*
X288453Y165909D01*
X287477Y165504D01*
X286639Y164861D01*
X285996Y164023D01*
X285591Y163047D01*
X285454Y162000D01*
X285591Y160953D01*
X285996Y159977D01*
X286639Y159139D01*
X287477Y158496D01*
X288453Y158091D01*
X289500Y157954D01*
X290547Y158091D01*
X291523Y158496D01*
X292361Y159139D01*
X293004Y159977D01*
X293409Y160953D01*
X293546Y162000D01*
X293409Y163047D01*
X293004Y164023D01*
X292361Y164861D01*
X291523Y165504D01*
X290547Y165909D01*
X289500Y166046D01*
D02*
G37*
G36*
X214453Y151358D02*
X211000D01*
Y148004D01*
X214453D01*
Y151358D01*
D02*
G37*
G36*
X371000Y165542D02*
X368882Y165375D01*
X366815Y164879D01*
X364852Y164066D01*
X363040Y162955D01*
X361424Y161575D01*
X360045Y159960D01*
X358934Y158148D01*
X358121Y156185D01*
X357625Y154118D01*
X357458Y152000D01*
X357625Y149882D01*
X358121Y147815D01*
X358934Y145852D01*
X360045Y144040D01*
X361424Y142424D01*
X363040Y141044D01*
X364852Y139934D01*
X366815Y139121D01*
X368882Y138625D01*
X371000Y138458D01*
X373118Y138625D01*
X375185Y139121D01*
X377148Y139934D01*
X378960Y141044D01*
X380575Y142424D01*
X381956Y144040D01*
X383066Y145852D01*
X383879Y147815D01*
X384375Y149882D01*
X384542Y152000D01*
X384375Y154118D01*
X383879Y156185D01*
X383066Y158148D01*
X381956Y159960D01*
X380575Y161575D01*
X378960Y162955D01*
X377148Y164066D01*
X375185Y164879D01*
X373118Y165375D01*
X371000Y165542D01*
D02*
G37*
G36*
X141000D02*
X138882Y165375D01*
X136815Y164879D01*
X134852Y164066D01*
X133040Y162955D01*
X131424Y161575D01*
X130044Y159960D01*
X128934Y158148D01*
X128121Y156185D01*
X127625Y154118D01*
X127458Y152000D01*
X127625Y149882D01*
X128121Y147815D01*
X128934Y145852D01*
X130044Y144040D01*
X131424Y142424D01*
X133040Y141044D01*
X134852Y139934D01*
X136815Y139121D01*
X138882Y138625D01*
X141000Y138458D01*
X143118Y138625D01*
X145185Y139121D01*
X147148Y139934D01*
X148960Y141044D01*
X150575Y142424D01*
X151955Y144040D01*
X153066Y145852D01*
X153879Y147815D01*
X154375Y149882D01*
X154542Y152000D01*
X154375Y154118D01*
X153879Y156185D01*
X153066Y158148D01*
X151955Y159960D01*
X150575Y161575D01*
X148960Y162955D01*
X147148Y164066D01*
X145185Y164879D01*
X143118Y165375D01*
X141000Y165542D01*
D02*
G37*
%LPD*%
G36*
X174000Y304000D02*
X168500D01*
Y296500D01*
X156500D01*
X156500Y313000D01*
X174000D01*
X174000Y304000D01*
D02*
G37*
G36*
X212000Y273000D02*
X172000Y273000D01*
Y288500D01*
X198500Y288500D01*
X198500Y306000D01*
X212000Y306000D01*
X212000Y273000D01*
D02*
G37*
G36*
X243500Y157500D02*
X229500Y157500D01*
Y162000D01*
X228500D01*
Y183000D01*
X243500D01*
Y157500D01*
D02*
G37*
G36*
X227500Y151500D02*
X217000Y151500D01*
Y167000D01*
X221500Y167000D01*
Y175500D01*
X217000D01*
Y187500D01*
X227500D01*
Y151500D01*
D02*
G37*
G36*
X245500Y191000D02*
X234500Y191000D01*
Y203000D01*
X245500Y203000D01*
Y191000D01*
D02*
G37*
D12*
X251000Y147500D02*
X254500Y151000D01*
X246500Y147500D02*
X251000D01*
X243480Y147520D02*
Y150838D01*
Y147520D02*
X243490Y147510D01*
X247402Y154858D02*
X247500D01*
X245047Y152504D02*
X247402Y154858D01*
X243480Y150838D02*
X245047Y152406D01*
Y152504D01*
X163598Y257642D02*
X164870Y258913D01*
Y259110D02*
X172760Y267000D01*
X201000D02*
X207000Y261000D01*
X172760Y267000D02*
X201000D01*
X164870Y258913D02*
Y259110D01*
X163500Y257642D02*
X163598D01*
X190500Y258996D02*
Y263000D01*
Y258996D02*
X191000Y258496D01*
X254500Y151000D02*
Y154858D01*
X276500Y218142D02*
X276642Y218284D01*
X263563Y220000D02*
X264000Y220437D01*
X263563Y253000D02*
X264000Y253437D01*
X263563Y287000D02*
X264000Y287437D01*
X276500Y251142D02*
X276642Y251284D01*
X276500Y285142D02*
X276642Y285283D01*
X276500Y319642D02*
X276642Y319783D01*
X263563Y321000D02*
X264000Y321437D01*
X239626Y332000D02*
X241000Y330626D01*
X252800Y329426D02*
X255374Y332000D01*
X239626Y298500D02*
X241000Y297126D01*
X252800Y295926D02*
X255374Y298500D01*
X252300Y261653D02*
X255147Y264500D01*
X255374D01*
X239626D02*
X240500Y263626D01*
X252300Y228654D02*
X255147Y231500D01*
X255374D01*
X239626D02*
X240500Y230626D01*
X190740Y258236D02*
X191000Y258496D01*
X183000D02*
X183260Y258236D01*
X183000Y258496D02*
Y263000D01*
X163358Y257500D02*
X163500Y257642D01*
X151295Y257563D02*
X151358Y257500D01*
X131500Y267626D02*
X133689Y265437D01*
X180142Y299500D02*
X180181Y299539D01*
X213500Y324358D02*
X213642Y324500D01*
X180181Y320000D02*
X180858Y320677D01*
X162000Y309988D02*
X162012Y310000D01*
X156775Y281100D02*
Y281675D01*
D16*
X224252Y145500D02*
X224500Y145748D01*
X209500Y160142D02*
X210500Y159142D01*
X360141Y179097D02*
X360902Y179858D01*
X361000D01*
X276500Y324142D02*
X276642Y324000D01*
X276500Y289642D02*
X276642Y289500D01*
X276500Y255642D02*
X276642Y255500D01*
X276500Y222642D02*
X276642Y222500D01*
D19*
X210500Y159142D02*
D03*
Y151858D02*
D03*
X247500Y160142D02*
D03*
Y152858D02*
D03*
X254500Y160142D02*
D03*
Y152858D02*
D03*
X171500Y317142D02*
D03*
Y309858D02*
D03*
D22*
X276500Y218142D02*
D03*
Y210858D02*
D03*
X361000Y179858D02*
D03*
Y187142D02*
D03*
X163500Y257642D02*
D03*
Y250358D02*
D03*
X276500Y251142D02*
D03*
Y243858D02*
D03*
Y285142D02*
D03*
Y277858D02*
D03*
Y319642D02*
D03*
Y312358D02*
D03*
D23*
X158642Y257500D02*
D03*
X151358D02*
D03*
X180858Y324500D02*
D03*
X188142D02*
D03*
X213642D02*
D03*
X206358D02*
D03*
X202142D02*
D03*
X194858D02*
D03*
X276642Y289500D02*
D03*
X269358D02*
D03*
X276642Y324000D02*
D03*
X269358D02*
D03*
X276642Y255500D02*
D03*
X269358D02*
D03*
X276642Y222500D02*
D03*
X269358D02*
D03*
D26*
X180142Y299500D02*
D03*
X172858D02*
D03*
X190642Y241000D02*
D03*
X183358D02*
D03*
X218642Y315000D02*
D03*
X211358D02*
D03*
D28*
X191481Y312500D02*
D03*
D58*
X209500Y189500D02*
D03*
Y164500D02*
D03*
D59*
X362800Y298400D02*
D03*
Y251200D02*
D03*
X150700Y298800D02*
D03*
Y263400D02*
D03*
X264600Y294700D02*
D03*
X229200D02*
D03*
X264600Y328700D02*
D03*
X229200D02*
D03*
X264100Y260700D02*
D03*
X228700D02*
D03*
X264100Y227700D02*
D03*
X228700D02*
D03*
X362800Y208600D02*
D03*
Y173200D02*
D03*
D61*
X209500Y189500D02*
X212000D01*
X214000Y169000D02*
Y187500D01*
X212000Y189500D02*
X214000Y187500D01*
X209500Y164500D02*
X214000Y169000D01*
X209500Y160142D02*
Y164500D01*
X269358Y211500D02*
Y222500D01*
X276642Y218284D02*
Y222500D01*
X269358Y244500D02*
Y255500D01*
X276642Y251284D02*
Y255500D01*
X269500Y312500D02*
Y323858D01*
X269358Y278500D02*
Y289500D01*
X276642Y285283D02*
Y289500D01*
Y319783D02*
Y324000D01*
X269358D02*
X269500Y323858D01*
X158642Y257500D02*
X163358D01*
X146240Y257563D02*
X151295D01*
X180181Y299539D02*
Y305000D01*
D63*
X247575Y166425D02*
X247650Y166500D01*
X247575Y160216D02*
Y166425D01*
X247500Y160142D02*
X247575Y160216D01*
X172858Y299500D02*
X174000Y298358D01*
Y285325D02*
X178225Y281100D01*
X174000Y285325D02*
Y298358D01*
X142500Y274700D02*
X143000Y275200D01*
X142500Y265437D02*
Y274700D01*
D65*
X187000Y248000D02*
Y250500D01*
X189500Y253000D02*
X228500D01*
X240500Y241000D01*
X187000Y250500D02*
X189500Y253000D01*
X183260Y238240D02*
Y248000D01*
X187000Y234500D02*
X197000D01*
X183260Y238240D02*
X187000Y234500D01*
X237000Y200500D02*
X242500D01*
X366058Y187142D02*
X368200Y185000D01*
X370500D01*
X361000Y187142D02*
X366058D01*
X349500Y172000D02*
X349930Y172430D01*
X353572D01*
X360130Y178988D01*
Y179087D01*
X360902Y179858D01*
X276500Y324142D02*
Y328000D01*
Y289642D02*
Y293500D01*
Y255642D02*
Y259500D01*
Y222642D02*
Y226500D01*
X213500Y321000D02*
Y324358D01*
D67*
X224500Y145748D02*
Y155000D01*
X143000Y287000D02*
X144353D01*
D71*
X349500Y302000D02*
D03*
X289500D02*
D03*
D72*
X349500Y292000D02*
D03*
Y282000D02*
D03*
Y272000D02*
D03*
Y262000D02*
D03*
Y252000D02*
D03*
Y242000D02*
D03*
Y232000D02*
D03*
Y222000D02*
D03*
Y212000D02*
D03*
Y202000D02*
D03*
Y192000D02*
D03*
Y182000D02*
D03*
Y172000D02*
D03*
Y162000D02*
D03*
X289500Y292000D02*
D03*
Y282000D02*
D03*
Y272000D02*
D03*
Y262000D02*
D03*
Y252000D02*
D03*
Y242000D02*
D03*
Y232000D02*
D03*
Y222000D02*
D03*
Y212000D02*
D03*
Y202000D02*
D03*
Y192000D02*
D03*
Y182000D02*
D03*
Y172000D02*
D03*
Y162000D02*
D03*
D73*
X136200Y194000D02*
D03*
Y182200D02*
D03*
Y205800D02*
D03*
Y217600D02*
D03*
X148000Y194000D02*
D03*
Y182200D02*
D03*
Y205800D02*
D03*
Y217600D02*
D03*
D74*
X370500Y286600D02*
D03*
Y274800D02*
D03*
Y263000D02*
D03*
X143000Y287000D02*
D03*
Y275200D02*
D03*
X252800Y287000D02*
D03*
X241000D02*
D03*
X252800Y321000D02*
D03*
X241000D02*
D03*
X252300Y253000D02*
D03*
X240500D02*
D03*
X252300Y220000D02*
D03*
X240500D02*
D03*
X370500Y196800D02*
D03*
Y185000D02*
D03*
D75*
X371000Y324000D02*
D03*
Y152000D02*
D03*
X141000D02*
D03*
Y324000D02*
D03*
D76*
X224500Y155000D02*
D03*
X165500Y300500D02*
D03*
X159500D02*
D03*
X216000Y276000D02*
D03*
Y282500D02*
D03*
Y289000D02*
D03*
X197000Y234500D02*
D03*
X224500Y184500D02*
D03*
D77*
X246500Y147500D02*
D03*
X243490Y147510D02*
D03*
X209500Y185500D02*
D03*
X207000Y261000D02*
D03*
X230500Y181000D02*
D03*
X221000Y202000D02*
D03*
Y197500D02*
D03*
X251000Y181000D02*
D03*
X240500Y241000D02*
D03*
X219000Y176000D02*
D03*
Y173000D02*
D03*
X276500Y328000D02*
D03*
Y293500D02*
D03*
Y259500D02*
D03*
Y226500D02*
D03*
X190500Y263000D02*
D03*
X241484Y159484D02*
D03*
X235597Y159457D02*
D03*
X231642Y159358D02*
D03*
X219000Y159000D02*
D03*
X230500Y177000D02*
D03*
X219000Y167000D02*
D03*
X230500Y165000D02*
D03*
X236000Y192500D02*
D03*
Y195500D02*
D03*
Y198500D02*
D03*
X249000Y171000D02*
D03*
Y174000D02*
D03*
Y177000D02*
D03*
X261500Y179000D02*
D03*
X164500Y184500D02*
D03*
Y194500D02*
D03*
X219000Y170000D02*
D03*
X209500Y193000D02*
D03*
X164500Y159500D02*
D03*
Y169500D02*
D03*
X213500Y321000D02*
D03*
X183000Y263000D02*
D03*
D78*
X189181Y316000D02*
D03*
X193781D02*
D03*
X189181Y309000D02*
D03*
X193781D02*
D03*
D79*
X241350Y166500D02*
D03*
X247650D02*
D03*
D80*
X178225Y281100D02*
D03*
X156775D02*
D03*
D81*
X138760Y257563D02*
D03*
X146240D02*
D03*
X142500Y265437D02*
D03*
X260260Y212563D02*
D03*
X267740D02*
D03*
X264000Y220437D02*
D03*
X260260Y313563D02*
D03*
X267740D02*
D03*
X264000Y321437D02*
D03*
X260260Y245563D02*
D03*
X267740D02*
D03*
X264000Y253437D02*
D03*
X260260Y279563D02*
D03*
X267740D02*
D03*
X264000Y287437D02*
D03*
D82*
X255374Y332000D02*
D03*
X239626D02*
D03*
X255374Y298500D02*
D03*
X239626D02*
D03*
X255374Y264500D02*
D03*
X239626D02*
D03*
X255374Y231500D02*
D03*
X239626D02*
D03*
D83*
X191000Y295500D02*
D03*
D84*
X205000D02*
D03*
D85*
X202819Y320000D02*
D03*
Y315000D02*
D03*
Y310000D02*
D03*
Y305000D02*
D03*
X180181Y320000D02*
D03*
Y315000D02*
D03*
Y310000D02*
D03*
D86*
Y305000D02*
D03*
D87*
X162000Y321012D02*
D03*
Y309988D02*
D03*
X130500Y295988D02*
D03*
Y307012D02*
D03*
X142000Y295988D02*
D03*
Y307012D02*
D03*
D88*
X131500Y267626D02*
D03*
Y283374D02*
D03*
D89*
X183260Y258236D02*
D03*
X190740D02*
D03*
X183260Y248000D02*
D03*
X187000D02*
D03*
D90*
X190740D02*
D03*
D91*
X253248Y195500D02*
D03*
X241752D02*
D03*
X235748Y145500D02*
D03*
X224252D02*
D03*
D92*
X162012Y310000D02*
X180181D01*
X202819Y315000D02*
X211358D01*
X180858Y320677D02*
Y324500D01*
D93*
X252300Y220000D02*
X263563D01*
X252300Y253000D02*
X263563D01*
X252800Y287000D02*
X263563D01*
X252800Y321000D02*
X263563D01*
X241000D02*
Y330626D01*
X252800Y321000D02*
Y329426D01*
X241000Y287000D02*
Y297126D01*
X252800Y287000D02*
Y295926D01*
X252300Y253000D02*
Y261653D01*
X240500Y253000D02*
Y263626D01*
X252300Y220000D02*
Y228654D01*
X240500Y220000D02*
Y230626D01*
X133689Y265437D02*
X142500D01*
D94*
X235750Y152000D02*
D03*
D95*
X204000Y323000D02*
D03*
D96*
X151750Y288250D02*
D03*
D97*
X136000Y290250D02*
D03*
M02*
