G04*
G04 #@! TF.GenerationSoftware,Altium Limited,Altium Designer,20.1.12 (249)*
G04*
G04 Layer_Color=16711935*
%FSLAX25Y25*%
%MOIN*%
G70*
G04*
G04 #@! TF.SameCoordinates,4DEFB819-F1CA-47B0-AC9B-A980181B1EFC*
G04*
G04*
G04 #@! TF.FilePolarity,Positive*
G04*
G01*
G75*
%ADD12C,0.01000*%
%ADD18C,0.00600*%
%ADD111C,0.00236*%
D12*
X153000Y267600D02*
Y294600D01*
Y267600D02*
X182000D01*
X153000Y294600D02*
X182000D01*
Y267600D02*
Y294600D01*
X122500Y136000D02*
X390000Y136000D01*
Y339000D01*
X122500D02*
X390000D01*
X122500Y136000D02*
X122500Y339000D01*
Y354500D02*
X128500Y356500D01*
X122500Y354500D02*
X128500Y352500D01*
X384000D02*
X390000Y354500D01*
X384000Y356500D02*
X390000Y354500D01*
X122500D02*
X233556D01*
X275744D02*
X390000D01*
X122500Y340500D02*
Y355500D01*
X390000Y340500D02*
Y355500D01*
X403500Y339000D02*
X405500Y333000D01*
X401500D02*
X403500Y339000D01*
X401500Y142000D02*
X403500Y136000D01*
X405500Y142000D01*
X403500Y256994D02*
Y339000D01*
Y136000D02*
Y214806D01*
X391500Y339000D02*
X404500D01*
X391500Y136000D02*
X404500D01*
D18*
X239155Y350901D02*
X235156D01*
X239155Y354900D01*
Y355899D01*
X238155Y356899D01*
X236156D01*
X235156Y355899D01*
X245153Y356899D02*
X243154Y355899D01*
X241154Y353900D01*
Y351901D01*
X242154Y350901D01*
X244153D01*
X245153Y351901D01*
Y352900D01*
X244153Y353900D01*
X241154D01*
X247152Y356899D02*
X251151D01*
Y355899D01*
X247152Y351901D01*
Y350901D01*
X257149Y356899D02*
X253151D01*
Y353900D01*
X255150Y354900D01*
X256150D01*
X257149Y353900D01*
Y351901D01*
X256150Y350901D01*
X254150D01*
X253151Y351901D01*
X259149Y350901D02*
Y351901D01*
X260148D01*
Y350901D01*
X259149D01*
X264147Y355899D02*
X265147Y356899D01*
X267146D01*
X268146Y355899D01*
Y351901D01*
X267146Y350901D01*
X265147D01*
X264147Y351901D01*
Y355899D01*
X270145D02*
X271145Y356899D01*
X273144D01*
X274144Y355899D01*
Y351901D01*
X273144Y350901D01*
X271145D01*
X270145Y351901D01*
Y355899D01*
X407099Y220405D02*
Y216406D01*
X403100Y220405D01*
X402101D01*
X401101Y219405D01*
Y217406D01*
X402101Y216406D01*
Y222404D02*
X401101Y223404D01*
Y225403D01*
X402101Y226403D01*
X406099D01*
X407099Y225403D01*
Y223404D01*
X406099Y222404D01*
X402101D01*
Y228402D02*
X401101Y229402D01*
Y231401D01*
X402101Y232401D01*
X403100D01*
X404100Y231401D01*
Y230402D01*
Y231401D01*
X405100Y232401D01*
X406099D01*
X407099Y231401D01*
Y229402D01*
X406099Y228402D01*
X402101Y234401D02*
X401101Y235400D01*
Y237400D01*
X402101Y238399D01*
X406099D01*
X407099Y237400D01*
Y235400D01*
X406099Y234401D01*
X402101D01*
X407099Y240399D02*
X406099D01*
Y241398D01*
X407099D01*
Y240399D01*
X402101Y245397D02*
X401101Y246397D01*
Y248396D01*
X402101Y249396D01*
X406099D01*
X407099Y248396D01*
Y246397D01*
X406099Y245397D01*
X402101D01*
Y251395D02*
X401101Y252395D01*
Y254394D01*
X402101Y255394D01*
X406099D01*
X407099Y254394D01*
Y252395D01*
X406099Y251395D01*
X402101D01*
D111*
X368500Y230122D02*
Y231270D01*
X368270Y231500D01*
X367811D01*
X367582Y231270D01*
Y230122D01*
X367123Y231500D02*
X366663D01*
X366893D01*
Y230122D01*
X367123Y230352D01*
M02*
