G04*
G04 #@! TF.GenerationSoftware,Altium Limited,Altium Designer,20.1.12 (249)*
G04*
G04 Layer_Color=65535*
%FSLAX25Y25*%
%MOIN*%
G70*
G04*
G04 #@! TF.SameCoordinates,4DEFB819-F1CA-47B0-AC9B-A980181B1EFC*
G04*
G04*
G04 #@! TF.FilePolarity,Positive*
G04*
G01*
G75*
%ADD10C,0.00394*%
%ADD11C,0.00787*%
%ADD12C,0.01000*%
%ADD13C,0.00984*%
%ADD14C,0.02362*%
%ADD15C,0.00591*%
%ADD16C,0.00500*%
%ADD17C,0.00800*%
%ADD18C,0.00600*%
D10*
X226000Y189000D02*
X225500Y189500D01*
X225000Y189000D01*
X224000D02*
X223500Y189500D01*
X223000Y189000D01*
X225000D02*
X224500Y189500D01*
X224000Y189000D01*
X226000D02*
X226862D01*
X222138D02*
X223000D01*
D11*
X280524Y303122D02*
X279736D01*
X280524D01*
X264476Y169606D02*
Y170394D01*
X261524Y169606D02*
Y170394D01*
X228106Y196024D02*
X228894D01*
X228106Y198976D02*
X228894D01*
X228106Y200524D02*
X228894D01*
X228106Y203476D02*
X228894D01*
X217976Y158606D02*
Y159394D01*
X215024Y158606D02*
Y159394D01*
X160106Y163024D02*
X160894D01*
X160106Y165976D02*
X160894D01*
X160106Y188024D02*
X160894D01*
X160106Y190976D02*
X160894D01*
X363744Y233658D02*
Y236906D01*
X367681D01*
X363744Y225095D02*
Y228343D01*
Y225095D02*
X367681D01*
X177847Y259902D02*
X216154D01*
Y240098D02*
Y241024D01*
Y258976D02*
Y259902D01*
X177847Y240098D02*
X216154D01*
X177847D02*
Y241024D01*
Y258976D02*
Y259902D01*
X129847Y253976D02*
Y254902D01*
Y235098D02*
Y236024D01*
Y235098D02*
X168154D01*
Y253976D02*
Y254902D01*
Y235098D02*
Y236024D01*
X129847Y254902D02*
X168154D01*
X177847Y232976D02*
Y233902D01*
Y214098D02*
Y215024D01*
Y214098D02*
X216154D01*
Y232976D02*
Y233902D01*
Y214098D02*
Y215024D01*
X177847Y233902D02*
X216154D01*
X229673Y159173D02*
Y180827D01*
X251327Y159173D02*
Y180827D01*
X229673D02*
X251327D01*
X229673Y159173D02*
X251327D01*
D12*
X206750Y155500D02*
X206000Y155933D01*
Y155067D01*
X206750Y155500D01*
X177000Y157000D02*
Y197000D01*
X196750Y157000D02*
Y197000D01*
X358000Y303500D02*
X384000D01*
Y246000D02*
Y303500D01*
X358000Y246000D02*
X384000D01*
X358000D02*
Y303500D01*
X384000Y280500D02*
X387500D01*
Y269000D02*
Y280500D01*
X384000Y269000D02*
X387500D01*
X126000Y288500D02*
X129500D01*
X126000Y275000D02*
Y288500D01*
Y275000D02*
X129500D01*
X155500Y258500D02*
Y304000D01*
X129500D02*
X155500D01*
X129500Y258500D02*
Y304000D01*
Y258500D02*
X155500D01*
X269500Y273500D02*
Y299500D01*
X224000Y273500D02*
X269500D01*
X224000D02*
Y299500D01*
X269500D01*
X253000Y270000D02*
Y273500D01*
X239500Y270000D02*
X253000D01*
X239500D02*
Y273500D01*
X158500Y333000D02*
X220500Y333000D01*
X158500Y282000D02*
X220500D01*
X158500D02*
Y333000D01*
X220500Y282000D02*
Y333000D01*
X269500Y307500D02*
Y333500D01*
X224000Y307500D02*
X269500D01*
X224000D02*
Y333500D01*
X269500D01*
X253000Y304000D02*
Y307500D01*
X239500Y304000D02*
X253000D01*
X239500D02*
Y307500D01*
X269000Y239500D02*
Y265500D01*
X223500Y239500D02*
X269000D01*
X223500D02*
Y265500D01*
X269000D01*
X252500Y236000D02*
Y239500D01*
X239000Y236000D02*
X252500D01*
X239000D02*
Y239500D01*
X269000Y206500D02*
Y232500D01*
X223500Y206500D02*
X269000D01*
X223500D02*
Y232500D01*
X269000D01*
X252500Y203000D02*
Y206500D01*
X239000Y203000D02*
X252500D01*
X239000D02*
Y206500D01*
X358000Y213500D02*
X384000D01*
Y168000D02*
Y213500D01*
X358000Y168000D02*
X384000D01*
X358000D02*
Y213500D01*
X384000Y197000D02*
X387500D01*
Y183500D02*
Y197000D01*
X384000Y183500D02*
X387500D01*
X277500Y166000D02*
X278500Y167000D01*
Y165000D02*
Y167000D01*
X277500Y166000D02*
X278500Y165000D01*
X364834Y243499D02*
Y240167D01*
X365501Y239501D01*
X366834D01*
X367500Y240167D01*
Y243499D01*
X368833Y239501D02*
X370166D01*
X369499D01*
Y243499D01*
X368833Y242833D01*
X155502Y178001D02*
Y181999D01*
X157501D01*
X158167Y181333D01*
Y180000D01*
X157501Y179333D01*
X155502D01*
X156834D02*
X158167Y178001D01*
X159500D02*
X160833D01*
X160167D01*
Y181999D01*
X159500Y181333D01*
X165498Y181999D02*
X162833D01*
Y180000D01*
X164165Y180666D01*
X164832D01*
X165498Y180000D01*
Y178667D01*
X164832Y178001D01*
X163499D01*
X162833Y178667D01*
X157502Y151501D02*
Y155499D01*
X159501D01*
X160167Y154833D01*
Y153500D01*
X159501Y152833D01*
X157502D01*
X158835D02*
X160167Y151501D01*
X161500D02*
X162833D01*
X162167D01*
Y155499D01*
X161500Y154833D01*
X164833D02*
X165499Y155499D01*
X166832D01*
X167498Y154833D01*
Y154166D01*
X166832Y153500D01*
X166165D01*
X166832D01*
X167498Y152833D01*
Y152167D01*
X166832Y151501D01*
X165499D01*
X164833Y152167D01*
X212499Y151002D02*
X208501D01*
Y153001D01*
X209167Y153667D01*
X210500D01*
X211166Y153001D01*
Y151002D01*
Y152334D02*
X212499Y153667D01*
Y155000D02*
Y156333D01*
Y155667D01*
X208501D01*
X209167Y155000D01*
X212499Y160998D02*
Y158333D01*
X209834Y160998D01*
X209167D01*
X208501Y160332D01*
Y158999D01*
X209167Y158333D01*
X264499Y153002D02*
X260501D01*
Y155001D01*
X261167Y155667D01*
X262500D01*
X263166Y155001D01*
Y153002D01*
Y154334D02*
X264499Y155667D01*
Y157000D02*
Y158333D01*
Y157667D01*
X260501D01*
X261167Y157000D01*
Y160333D02*
X260501Y160999D01*
Y162332D01*
X261167Y162998D01*
X263833D01*
X264499Y162332D01*
Y160999D01*
X263833Y160333D01*
X261167D01*
X202668Y207501D02*
Y211499D01*
X204667D01*
X205334Y210833D01*
Y209500D01*
X204667Y208834D01*
X202668D01*
X204001D02*
X205334Y207501D01*
X206666Y208167D02*
X207333Y207501D01*
X208666D01*
X209332Y208167D01*
Y210833D01*
X208666Y211499D01*
X207333D01*
X206666Y210833D01*
Y210166D01*
X207333Y209500D01*
X209332D01*
X202668Y201501D02*
Y205499D01*
X204667D01*
X205334Y204833D01*
Y203500D01*
X204667Y202834D01*
X202668D01*
X204001D02*
X205334Y201501D01*
X206666Y204833D02*
X207333Y205499D01*
X208666D01*
X209332Y204833D01*
Y204167D01*
X208666Y203500D01*
X209332Y202834D01*
Y202167D01*
X208666Y201501D01*
X207333D01*
X206666Y202167D01*
Y202834D01*
X207333Y203500D01*
X206666Y204167D01*
Y204833D01*
X207333Y203500D02*
X208666D01*
X194668Y266001D02*
Y269999D01*
X196667D01*
X197334Y269333D01*
Y268000D01*
X196667Y267334D01*
X194668D01*
X196001D02*
X197334Y266001D01*
X201332Y269999D02*
X199999Y269333D01*
X198667Y268000D01*
Y266667D01*
X199333Y266001D01*
X200666D01*
X201332Y266667D01*
Y267334D01*
X200666Y268000D01*
X198667D01*
X377168Y219499D02*
Y215501D01*
Y217500D01*
X379834D01*
Y219499D01*
Y215501D01*
X383832Y219499D02*
X381167D01*
Y217500D01*
X382499Y218166D01*
X383166D01*
X383832Y217500D01*
Y216167D01*
X383166Y215501D01*
X381833D01*
X381167Y216167D01*
X163001Y224835D02*
X167999D01*
X165500D01*
Y228167D01*
X163001D01*
X167999D01*
Y232332D02*
X163001D01*
X165500Y229833D01*
Y233165D01*
X271084Y207337D02*
X276083D01*
Y210669D01*
X271917Y215668D02*
X271084Y214835D01*
Y213169D01*
X271917Y212335D01*
X275250D01*
X276083Y213169D01*
Y214835D01*
X275250Y215668D01*
X273584D01*
Y214002D01*
X271084Y217334D02*
Y220666D01*
Y219000D01*
X276083D01*
X276916Y222332D02*
Y225664D01*
X271084Y227331D02*
X276083D01*
Y229830D01*
X275250Y230663D01*
X274416D01*
X273584Y229830D01*
Y227331D01*
Y229830D01*
X272750Y230663D01*
X271917D01*
X271084Y229830D01*
Y227331D01*
Y240337D02*
X276083D01*
Y243669D01*
X271917Y248668D02*
X271084Y247835D01*
Y246169D01*
X271917Y245336D01*
X275250D01*
X276083Y246169D01*
Y247835D01*
X275250Y248668D01*
X273584D01*
Y247002D01*
X271084Y250334D02*
Y253666D01*
Y252000D01*
X276083D01*
X276916Y255332D02*
Y258664D01*
X276083Y260331D02*
X272750D01*
X271084Y261997D01*
X272750Y263663D01*
X276083D01*
X273584D01*
Y260331D01*
X276383Y274837D02*
X273050D01*
X271384Y276503D01*
X273050Y278169D01*
X276383D01*
X273884D01*
Y274837D01*
X272217Y283168D02*
X271384Y282335D01*
Y280669D01*
X272217Y279836D01*
X275550D01*
X276383Y280669D01*
Y282335D01*
X275550Y283168D01*
X271384Y284834D02*
Y288166D01*
Y286500D01*
X276383D01*
X277216Y289832D02*
Y293164D01*
X271384Y294831D02*
X276383D01*
Y297330D01*
X275550Y298163D01*
X274716D01*
X273884Y297330D01*
Y294831D01*
Y297330D01*
X273050Y298163D01*
X272217D01*
X271384Y297330D01*
Y294831D01*
X276083Y308837D02*
X272750D01*
X271084Y310503D01*
X272750Y312169D01*
X276083D01*
X273584D01*
Y308837D01*
X271917Y317168D02*
X271084Y316335D01*
Y314669D01*
X271917Y313836D01*
X275250D01*
X276083Y314669D01*
Y316335D01*
X275250Y317168D01*
X271084Y318834D02*
Y322166D01*
Y320500D01*
X276083D01*
X276916Y323832D02*
Y327165D01*
X276083Y328831D02*
X272750D01*
X271084Y330497D01*
X272750Y332163D01*
X276083D01*
X273584D01*
Y328831D01*
X359168Y309999D02*
Y306001D01*
Y308000D01*
X361834D01*
Y309999D01*
Y306001D01*
X365832D02*
X363166D01*
X365832Y308666D01*
Y309333D01*
X365166Y309999D01*
X363833D01*
X363166Y309333D01*
X157501Y268368D02*
X162499D01*
X160000D01*
Y271700D01*
X157501D01*
X162499D01*
Y273366D02*
Y275032D01*
Y274199D01*
X157501D01*
X158334Y273366D01*
X180833Y211999D02*
X178168D01*
Y210000D01*
X179501D01*
X178168D01*
Y208001D01*
X182167Y211333D02*
X182833Y211999D01*
X184166D01*
X184832Y211333D01*
Y210666D01*
X184166Y210000D01*
X183499D01*
X184166D01*
X184832Y209334D01*
Y208667D01*
X184166Y208001D01*
X182833D01*
X182167Y208667D01*
X214334Y265999D02*
X211668D01*
Y264000D01*
X213001D01*
X211668D01*
Y262001D01*
X218332D02*
X215667D01*
X218332Y264666D01*
Y265333D01*
X217666Y265999D01*
X216333D01*
X215667Y265333D01*
X164000Y262499D02*
X160668D01*
Y260000D01*
X162334D01*
X160668D01*
Y257501D01*
X165666D02*
X167332D01*
X166499D01*
Y262499D01*
X165666Y261666D01*
X159667Y211334D02*
X159001Y210668D01*
Y209335D01*
X159667Y208668D01*
X162333D01*
X162999Y209335D01*
Y210668D01*
X162333Y211334D01*
X162999Y215333D02*
Y212667D01*
X160334Y215333D01*
X159667D01*
X159001Y214666D01*
Y213334D01*
X159667Y212667D01*
X162999Y219332D02*
Y216666D01*
X160334Y219332D01*
X159667D01*
X159001Y218665D01*
Y217332D01*
X159667Y216666D01*
X214167Y187001D02*
X213501Y186334D01*
Y185001D01*
X214167Y184335D01*
X216833D01*
X217499Y185001D01*
Y186334D01*
X216833Y187001D01*
X217499Y190999D02*
Y188334D01*
X214833Y190999D01*
X214167D01*
X213501Y190333D01*
Y189000D01*
X214167Y188334D01*
X217499Y192332D02*
Y193665D01*
Y192999D01*
X213501D01*
X214167Y192332D01*
X269167Y188333D02*
X268501Y188999D01*
X267168D01*
X266502Y188333D01*
Y185667D01*
X267168Y185001D01*
X268501D01*
X269167Y185667D01*
X270500Y185001D02*
X271833D01*
X271167D01*
Y188999D01*
X270500Y188333D01*
X273833Y188999D02*
X276498D01*
Y188333D01*
X273833Y185667D01*
Y185001D01*
X269667Y155333D02*
X269001Y155999D01*
X267668D01*
X267002Y155333D01*
Y152667D01*
X267668Y152001D01*
X269001D01*
X269667Y152667D01*
X271000Y152001D02*
X272333D01*
X271667D01*
Y155999D01*
X271000Y155333D01*
X276998Y155999D02*
X275665Y155333D01*
X274333Y154000D01*
Y152667D01*
X274999Y152001D01*
X276332D01*
X276998Y152667D01*
Y153333D01*
X276332Y154000D01*
X274333D01*
X252667Y193833D02*
X252001Y194499D01*
X250668D01*
X250002Y193833D01*
Y191167D01*
X250668Y190501D01*
X252001D01*
X252667Y191167D01*
X254000Y190501D02*
X255333D01*
X254667D01*
Y194499D01*
X254000Y193833D01*
X259998Y194499D02*
X257333D01*
Y192500D01*
X258665Y193166D01*
X259332D01*
X259998Y192500D01*
Y191167D01*
X259332Y190501D01*
X257999D01*
X257333Y191167D01*
X252667Y200333D02*
X252001Y200999D01*
X250668D01*
X250002Y200333D01*
Y197667D01*
X250668Y197001D01*
X252001D01*
X252667Y197667D01*
X254000Y197001D02*
X255333D01*
X254667D01*
Y200999D01*
X254000Y200333D01*
X259332Y197001D02*
Y200999D01*
X257333Y199000D01*
X259998D01*
X232834Y142833D02*
X232167Y143499D01*
X230835D01*
X230168Y142833D01*
Y140167D01*
X230835Y139501D01*
X232167D01*
X232834Y140167D01*
X234167Y139501D02*
X235500D01*
X234833D01*
Y143499D01*
X234167Y142833D01*
X237499Y139501D02*
X238832D01*
X238165D01*
Y143499D01*
X237499Y142833D01*
X379334Y225333D02*
X378667Y225999D01*
X377334D01*
X376668Y225333D01*
Y222667D01*
X377334Y222001D01*
X378667D01*
X379334Y222667D01*
X380666D02*
X381333Y222001D01*
X382666D01*
X383332Y222667D01*
Y225333D01*
X382666Y225999D01*
X381333D01*
X380666Y225333D01*
Y224666D01*
X381333Y224000D01*
X383332D01*
X172834Y276833D02*
X172167Y277499D01*
X170834D01*
X170168Y276833D01*
Y274167D01*
X170834Y273501D01*
X172167D01*
X172834Y274167D01*
X176832Y277499D02*
X174167D01*
Y275500D01*
X175499Y276166D01*
X176166D01*
X176832Y275500D01*
Y274167D01*
X176166Y273501D01*
X174833D01*
X174167Y274167D01*
X206334Y269333D02*
X205667Y269999D01*
X204334D01*
X203668Y269333D01*
Y266667D01*
X204334Y266001D01*
X205667D01*
X206334Y266667D01*
X209666Y266001D02*
Y269999D01*
X207666Y268000D01*
X210332D01*
D13*
X371323Y224012D02*
X370585Y224438D01*
Y223586D01*
X371323Y224012D01*
D14*
X234791Y176890D02*
X234347Y177813D01*
X233347Y178041D01*
X232546Y177402D01*
Y176377D01*
X233347Y175738D01*
X234347Y175966D01*
X234791Y176890D01*
D15*
X235000Y145244D02*
Y150756D01*
X229488Y149575D02*
Y150756D01*
X240512D01*
Y149575D02*
Y150756D01*
Y145244D02*
Y146425D01*
X229488Y145244D02*
X240512D01*
X229488D02*
Y146425D01*
X226862Y183488D02*
Y194512D01*
X222138Y183488D02*
Y194512D01*
X271500Y177744D02*
Y183256D01*
X277012Y177744D02*
Y178925D01*
X265988Y177744D02*
X277012D01*
X265988D02*
Y178925D01*
Y182075D02*
Y183256D01*
X277012D01*
Y182075D02*
Y183256D01*
X271500Y157244D02*
Y162756D01*
X265988Y161575D02*
Y162756D01*
X277012D01*
Y161575D02*
Y162756D01*
Y157244D02*
Y158425D01*
X265988Y157244D02*
X277012D01*
X265988D02*
Y158425D01*
X165071Y222850D02*
X166055D01*
X165071Y204150D02*
Y222850D01*
Y204150D02*
X166055D01*
X172945D02*
X173929D01*
Y222850D01*
X172945D02*
X173929D01*
X165071Y213500D02*
X173929D01*
X242500Y196244D02*
Y201756D01*
X248012Y196244D02*
Y197425D01*
X236988Y196244D02*
X248012D01*
X236988D02*
Y197425D01*
Y200575D02*
Y201756D01*
X248012D01*
Y200575D02*
Y201756D01*
X242500Y189744D02*
Y195256D01*
X248012Y189744D02*
Y190925D01*
X236988Y189744D02*
X248012D01*
X236988D02*
Y190925D01*
Y194075D02*
Y195256D01*
X248012D01*
Y194075D02*
Y195256D01*
D16*
X283004Y139165D02*
X355996D01*
Y337158D01*
X283004Y139165D02*
Y337158D01*
X355996D01*
X182900Y272000D02*
X195105D01*
X182900Y280000D02*
X195105D01*
X266579Y169409D02*
Y170591D01*
X276421Y169409D02*
Y170591D01*
D17*
X219555Y181827D02*
X220555Y180827D01*
X219555Y179827D02*
Y181827D01*
Y179827D02*
X220555Y180827D01*
X219555D02*
X220555D01*
D18*
X241099Y178500D02*
X237500Y177643D01*
X241099Y176786D02*
X237500Y177643D01*
X241099Y176786D02*
X237500Y175929D01*
X241099Y175072D02*
X237500Y175929D01*
X241099Y172296D02*
Y174010D01*
X239557Y174181D01*
X239728Y174010D01*
X239899Y173495D01*
Y172981D01*
X239728Y172467D01*
X239385Y172124D01*
X238871Y171953D01*
X238528D01*
X238014Y172124D01*
X237671Y172467D01*
X237500Y172981D01*
Y173495D01*
X237671Y174010D01*
X237843Y174181D01*
X238186Y174352D01*
X241099Y169091D02*
Y170805D01*
X239557Y170976D01*
X239728Y170805D01*
X239899Y170290D01*
Y169776D01*
X239728Y169262D01*
X239385Y168919D01*
X238871Y168748D01*
X238528D01*
X238014Y168919D01*
X237671Y169262D01*
X237500Y169776D01*
Y170290D01*
X237671Y170805D01*
X237843Y170976D01*
X238186Y171147D01*
X241099Y166914D02*
X240928Y167428D01*
X240414Y167771D01*
X239557Y167942D01*
X239042D01*
X238186Y167771D01*
X237671Y167428D01*
X237500Y166914D01*
Y166571D01*
X237671Y166057D01*
X238186Y165714D01*
X239042Y165543D01*
X239557D01*
X240414Y165714D01*
X240928Y166057D01*
X241099Y166571D01*
Y166914D01*
Y163709D02*
X240928Y164223D01*
X240414Y164566D01*
X239557Y164737D01*
X239042D01*
X238186Y164566D01*
X237671Y164223D01*
X237500Y163709D01*
Y163366D01*
X237671Y162852D01*
X238186Y162509D01*
X239042Y162338D01*
X239557D01*
X240414Y162509D01*
X240928Y162852D01*
X241099Y163366D01*
Y163709D01*
X246599Y178000D02*
X243000Y177143D01*
X246599Y176286D02*
X243000Y177143D01*
X246599Y176286D02*
X243000Y175429D01*
X246599Y174572D02*
X243000Y175429D01*
X246599Y173852D02*
X243000D01*
X246599Y170699D02*
X243000Y173098D01*
X246599D02*
Y170699D01*
X243000Y173098D02*
Y170699D01*
X245399Y169893D02*
X243000D01*
X244714D02*
X245228Y169379D01*
X245399Y169036D01*
Y168522D01*
X245228Y168179D01*
X244714Y168008D01*
X243000D01*
X244371Y167065D02*
Y165008D01*
X244714D01*
X245057Y165180D01*
X245228Y165351D01*
X245399Y165694D01*
Y166208D01*
X245228Y166551D01*
X244885Y166894D01*
X244371Y167065D01*
X244028D01*
X243514Y166894D01*
X243171Y166551D01*
X243000Y166208D01*
Y165694D01*
X243171Y165351D01*
X243514Y165008D01*
X246599Y163723D02*
X243686D01*
X243171Y163552D01*
X243000Y163209D01*
Y162866D01*
X245399Y164237D02*
Y163038D01*
M02*
