M48
;Layer_Color=9474304
;FILE_FORMAT=2:5
INCH,LZ
;TYPE=PLATED
T1F00S00C0.01800
T2F00S00C0.02756
T3F00S00C0.02800
T4F00S00C0.03000
T5F00S00C0.03346
T6F00S00C0.04000
T8F00S00C0.04300
T9F00S00C0.05000
T11F00S00C0.05900
T12F00S00C0.08300
%
T01
X0286Y0152
X02915Y0153
T02
X0192657Y0125
X0212343
Y01715
X0192657
T03
X0269Y01425
X03
X0315Y01555
X0324Y0255
X03Y01605
X0223Y0209
Y0219
X0199Y01985
X01945Y02605
X01885
X0202Y0294
X0209
X02165
X0153Y01985
T04
X0185719Y02125
X0190319
Y02195
X0185719
T05
X0132Y011
Y012
Y013
Y014
Y015
X0332
Y014
Y013
Y012
Y011
Y016
Y017
Y018
Y019
Y02
Y024
Y025
Y026
Y027
Y028
Y029
Y03
Y031
X0132
Y03
Y029
Y028
Y027
Y026
Y025
Y024
Y02
Y019
Y018
Y017
Y016
Y032
Y033
X0332
Y032
T06
X0159899Y01202
Y0132
X026Y0143
X03115Y03067
Y03185
X02733Y03145
X02615
T08
X026Y0122
X03
T09
X0152199Y01084
Y01438
X03192Y02949
X02855Y01935
X0279
X02725Y0191
Y01845
Y01775
X02851Y03222
X02497
X03192Y03303
T11
X02305Y02395
Y02695
Y02895
X01505Y02795
Y02395
Y03195
T12
X0315Y0182
Y0212
X0245Y0172
M30
