G04*
G04 #@! TF.GenerationSoftware,Altium Limited,Altium Designer,20.1.12 (249)*
G04*
G04 Layer_Color=8421504*
%FSLAX25Y25*%
%MOIN*%
G70*
G04*
G04 #@! TF.SameCoordinates,52F10900-DB58-4C41-AEEA-7F3F7A3DCA95*
G04*
G04*
G04 #@! TF.FilePolarity,Positive*
G04*
G01*
G75*
%ADD13R,0.14300X0.11650*%
%ADD14O,0.09449X0.02756*%
%ADD15R,0.09449X0.02756*%
%ADD16R,0.09449X0.12205*%
%ADD17R,0.03740X0.03543*%
%ADD18R,0.05906X0.05709*%
%ADD19R,0.13000X0.08661*%
%ADD20R,0.06500X0.06500*%
D13*
X164000Y162050D02*
D03*
Y183500D02*
D03*
D14*
X176681Y223500D02*
D03*
Y218500D02*
D03*
Y213500D02*
D03*
Y208500D02*
D03*
X199319Y223500D02*
D03*
Y218500D02*
D03*
Y213500D02*
D03*
D15*
Y208500D02*
D03*
D16*
X188019Y216000D02*
D03*
D17*
X152500Y226142D02*
D03*
Y218858D02*
D03*
X159000D02*
D03*
Y226142D02*
D03*
X208000Y225642D02*
D03*
Y218358D02*
D03*
D18*
X166000Y213858D02*
D03*
Y221142D02*
D03*
X212000Y198858D02*
D03*
Y206142D02*
D03*
D19*
X163500Y197500D02*
D03*
D20*
X177500D02*
D03*
M02*
