G04*
G04 #@! TF.GenerationSoftware,Altium Limited,Altium Designer,20.1.12 (249)*
G04*
G04 Layer_Physical_Order=2*
G04 Layer_Color=16711680*
%FSLAX25Y25*%
%MOIN*%
G70*
G04*
G04 #@! TF.SameCoordinates,52F10900-DB58-4C41-AEEA-7F3F7A3DCA95*
G04*
G04*
G04 #@! TF.FilePolarity,Positive*
G04*
G01*
G75*
%ADD10C,0.01000*%
%ADD16R,0.09449X0.12205*%
%ADD17R,0.03740X0.03543*%
%ADD41C,0.03000*%
%ADD42C,0.02000*%
%ADD43C,0.05000*%
%ADD52C,0.13000*%
%ADD53C,0.07000*%
%ADD54O,0.08960X0.05600*%
%ADD55C,0.09000*%
%ADD56C,0.04000*%
G04:AMPARAMS|DCode=57|XSize=240mil|YSize=80mil|CornerRadius=20mil|HoleSize=0mil|Usage=FLASHONLY|Rotation=0.000|XOffset=0mil|YOffset=0mil|HoleType=Round|Shape=RoundedRectangle|*
%AMROUNDEDRECTD57*
21,1,0.24000,0.04000,0,0,0.0*
21,1,0.20000,0.08000,0,0,0.0*
1,1,0.04000,0.10000,-0.02000*
1,1,0.04000,-0.10000,-0.02000*
1,1,0.04000,-0.10000,0.02000*
1,1,0.04000,0.10000,0.02000*
%
%ADD57ROUNDEDRECTD57*%
%ADD58O,0.10000X0.08300*%
%ADD59C,0.06000*%
%ADD60R,0.06000X0.06000*%
%ADD61C,0.03000*%
%ADD62C,0.05000*%
%ADD63R,0.09843X0.06693*%
%ADD64R,0.06693X0.03740*%
%ADD65R,0.06299X0.10630*%
%ADD66R,0.05906X0.09400*%
%ADD67R,0.12200X0.15700*%
%ADD68R,0.05000X0.03500*%
%ADD69R,0.23000X0.08000*%
%ADD70R,0.14000X0.06500*%
%ADD71R,0.03740X0.06693*%
%ADD72R,0.05709X0.05906*%
%ADD73R,0.01378X0.06102*%
%ADD74O,0.01378X0.06102*%
%ADD75C,0.01300*%
%ADD76C,0.06500*%
%ADD77C,0.13000*%
%ADD78R,0.15500X1.18500*%
%ADD79R,0.72000X0.30500*%
%ADD80R,0.22000X0.27000*%
%ADD81R,0.28500X0.34000*%
%ADD82R,0.39530X0.08000*%
%ADD83R,0.24000X0.24500*%
%ADD84R,0.25000X0.31500*%
%ADD85R,0.24500X0.27500*%
%ADD86R,0.15500X0.90000*%
%ADD87R,0.10000X0.80500*%
%ADD88R,0.05000X0.05358*%
%ADD89R,0.09500X0.15000*%
G36*
X339000Y222520D02*
X267000D01*
X266520Y222934D01*
Y251000D01*
X266442Y251390D01*
X266221Y251721D01*
X265890Y251942D01*
X265500Y252020D01*
X250000D01*
X249610Y251942D01*
X249279Y251721D01*
X249058Y251390D01*
X248980Y251000D01*
Y196020D01*
X237000D01*
X236610Y195942D01*
X236279Y195721D01*
X236058Y195390D01*
X235980Y195000D01*
Y161000D01*
X236058Y160610D01*
X236279Y160279D01*
X236610Y160058D01*
X237000Y159980D01*
X265500D01*
X265890Y160058D01*
X266221Y160279D01*
X266442Y160610D01*
X266520Y161000D01*
Y171566D01*
X267000Y171980D01*
X274004D01*
Y171020D01*
X271500D01*
X271110Y170942D01*
X270779Y170721D01*
X270558Y170390D01*
X270480Y170000D01*
Y158681D01*
X267642D01*
X266861Y158526D01*
X266200Y158084D01*
X258558Y150442D01*
X258116Y149780D01*
X257961Y149000D01*
Y147026D01*
X257731Y146931D01*
X256791Y146209D01*
X256069Y145269D01*
X255616Y144175D01*
X255461Y143000D01*
X255616Y141825D01*
X256069Y140731D01*
X256791Y139791D01*
X257731Y139069D01*
X258825Y138616D01*
X260000Y138461D01*
X261175Y138616D01*
X262269Y139069D01*
X263209Y139791D01*
X263931Y140731D01*
X264384Y141825D01*
X264539Y143000D01*
X264384Y144175D01*
X263931Y145269D01*
X263209Y146209D01*
X262269Y146931D01*
X262039Y147026D01*
Y148155D01*
X268486Y154603D01*
X270563D01*
X270779Y154279D01*
X271110Y154058D01*
X271130Y154054D01*
Y153870D01*
X282370D01*
Y155622D01*
X283791D01*
X283904Y155547D01*
X284563Y155416D01*
X285222Y155547D01*
X285781Y155920D01*
X286154Y156479D01*
X286285Y157138D01*
X286778D01*
X286909Y156479D01*
X287282Y155920D01*
X287529Y155755D01*
X287558Y155610D01*
X287779Y155279D01*
X289135Y153923D01*
X288951Y153000D01*
X289145Y152024D01*
X289698Y151198D01*
X290525Y150645D01*
X291500Y150451D01*
X292476Y150645D01*
X293302Y151198D01*
X293855Y152024D01*
X294049Y153000D01*
X293855Y153975D01*
X293302Y154802D01*
X292985Y155015D01*
X293090Y155546D01*
X293096Y155547D01*
X293655Y155920D01*
X294028Y156479D01*
X294159Y157138D01*
Y161862D01*
X294028Y162521D01*
X293655Y163080D01*
X293457Y163212D01*
Y172650D01*
X307300D01*
Y174966D01*
X312351D01*
X313530Y174609D01*
X315000Y174464D01*
X316470Y174609D01*
X317884Y175037D01*
X319187Y175734D01*
X320329Y176671D01*
X321266Y177813D01*
X321963Y179116D01*
X321980Y179175D01*
X322480Y179101D01*
Y103000D01*
X322558Y102610D01*
X322763Y102303D01*
X322736Y102168D01*
X322592Y101803D01*
X126500Y101803D01*
Y107986D01*
X127000Y108085D01*
X127001Y108084D01*
X127610Y107290D01*
X128404Y106681D01*
X129328Y106298D01*
X130320Y106167D01*
X133680D01*
X134672Y106298D01*
X135596Y106681D01*
X136390Y107290D01*
X136999Y108084D01*
X137371Y108980D01*
X147000D01*
X147390Y109058D01*
X147721Y109279D01*
X148596Y110154D01*
X149020Y109871D01*
X148789Y109314D01*
X148669Y108400D01*
X148789Y107486D01*
X149142Y106635D01*
X149703Y105904D01*
X150434Y105343D01*
X151285Y104990D01*
X152199Y104870D01*
X153113Y104990D01*
X153964Y105343D01*
X154695Y105904D01*
X155256Y106635D01*
X155609Y107486D01*
X155729Y108400D01*
X155609Y109314D01*
X155256Y110165D01*
X154695Y110896D01*
X154586Y110980D01*
X154755Y111480D01*
X214621D01*
X215012Y111558D01*
X215342Y111779D01*
X230044Y126480D01*
X257751D01*
X257851Y125980D01*
X257731Y125931D01*
X256791Y125209D01*
X256069Y124269D01*
X255616Y123175D01*
X255461Y122000D01*
X255616Y120825D01*
X256069Y119731D01*
X256791Y118791D01*
X257731Y118069D01*
X258825Y117616D01*
X260000Y117461D01*
X261175Y117616D01*
X262269Y118069D01*
X262463Y118218D01*
X266705D01*
Y117654D01*
X278547D01*
Y126347D01*
X266705D01*
Y125782D01*
X262573D01*
X262375Y125980D01*
X262582Y126480D01*
X264621D01*
X265012Y126558D01*
X265342Y126779D01*
X275071Y136508D01*
X284664D01*
X285054Y136585D01*
X285385Y136806D01*
X286706Y138128D01*
X287191Y138224D01*
X287516Y138441D01*
X287841Y138224D01*
X288500Y138093D01*
X289159Y138224D01*
X289718Y138597D01*
X290091Y139156D01*
X290222Y139815D01*
Y144539D01*
X290091Y145198D01*
X289718Y145757D01*
X289159Y146130D01*
X288500Y146261D01*
X287841Y146130D01*
X287823Y146118D01*
X287252Y146189D01*
X283221Y150221D01*
X282890Y150442D01*
X282500Y150520D01*
X282370D01*
Y152130D01*
X271130D01*
Y146587D01*
X274972D01*
X277558Y144000D01*
X263578Y130020D01*
X229000D01*
X228610Y129942D01*
X228279Y129721D01*
X213578Y115020D01*
X148422D01*
X142721Y120721D01*
X142390Y120942D01*
X142000Y121020D01*
X137371D01*
X136999Y121916D01*
X136390Y122710D01*
X135596Y123319D01*
X134672Y123702D01*
X133680Y123833D01*
X130320D01*
X129328Y123702D01*
X128404Y123319D01*
X127610Y122710D01*
X127001Y121916D01*
X127000Y121915D01*
X126500Y122014D01*
Y287986D01*
X127000Y288085D01*
X127001Y288084D01*
X127610Y287290D01*
X128404Y286681D01*
X129328Y286298D01*
X130320Y286167D01*
X133680D01*
X134672Y286298D01*
X135596Y286681D01*
X136390Y287290D01*
X136999Y288084D01*
X137382Y289008D01*
X137513Y290000D01*
X137382Y290992D01*
X136999Y291916D01*
X136390Y292710D01*
X135596Y293319D01*
X134672Y293702D01*
X133680Y293833D01*
X130320D01*
X129328Y293702D01*
X128404Y293319D01*
X127610Y292710D01*
X127001Y291916D01*
X127000Y291915D01*
X126500Y292014D01*
Y297986D01*
X127000Y298085D01*
X127001Y298084D01*
X127610Y297290D01*
X128404Y296681D01*
X129328Y296298D01*
X130320Y296167D01*
X133680D01*
X134672Y296298D01*
X135596Y296681D01*
X136390Y297290D01*
X136999Y298084D01*
X137382Y299008D01*
X137513Y300000D01*
X137382Y300992D01*
X136999Y301916D01*
X136390Y302710D01*
X135596Y303319D01*
X134672Y303702D01*
X133680Y303833D01*
X130320D01*
X129328Y303702D01*
X128404Y303319D01*
X127610Y302710D01*
X127001Y301916D01*
X127000Y301915D01*
X126500Y302014D01*
Y307986D01*
X127000Y308085D01*
X127001Y308084D01*
X127610Y307290D01*
X128404Y306681D01*
X129328Y306298D01*
X130320Y306167D01*
X133680D01*
X134672Y306298D01*
X135596Y306681D01*
X136390Y307290D01*
X136999Y308084D01*
X137382Y309008D01*
X137513Y310000D01*
X137382Y310992D01*
X136999Y311916D01*
X136390Y312710D01*
X135596Y313319D01*
X134672Y313702D01*
X133680Y313833D01*
X130320D01*
X129328Y313702D01*
X128404Y313319D01*
X127610Y312710D01*
X127001Y311916D01*
X127000Y311915D01*
X126500Y312014D01*
Y317986D01*
X127000Y318085D01*
X127001Y318084D01*
X127610Y317290D01*
X128404Y316681D01*
X129328Y316298D01*
X130320Y316167D01*
X133680D01*
X134672Y316298D01*
X135596Y316681D01*
X136390Y317290D01*
X136999Y318084D01*
X137382Y319008D01*
X137513Y320000D01*
X137382Y320992D01*
X136999Y321916D01*
X136390Y322710D01*
X135596Y323319D01*
X134672Y323702D01*
X133680Y323833D01*
X130320D01*
X129328Y323702D01*
X128404Y323319D01*
X127610Y322710D01*
X127001Y321916D01*
X127000Y321915D01*
X126500Y322014D01*
Y327986D01*
X127000Y328085D01*
X127001Y328084D01*
X127610Y327290D01*
X128404Y326681D01*
X129328Y326298D01*
X130320Y326167D01*
X133680D01*
X134672Y326298D01*
X135596Y326681D01*
X136390Y327290D01*
X136999Y328084D01*
X137382Y329008D01*
X137513Y330000D01*
X137382Y330992D01*
X136999Y331916D01*
X136390Y332710D01*
X135596Y333319D01*
X134672Y333702D01*
X133680Y333833D01*
X130320D01*
X129328Y333702D01*
X128404Y333319D01*
X127610Y332710D01*
X127001Y331916D01*
X127000Y331915D01*
X126500Y332014D01*
Y335500D01*
X339000D01*
Y222520D01*
D02*
G37*
%LPC*%
G36*
X319200Y333830D02*
X318286Y333710D01*
X317435Y333357D01*
X316704Y332796D01*
X316143Y332065D01*
X315790Y331214D01*
X315670Y330300D01*
X315790Y329386D01*
X316143Y328535D01*
X316704Y327804D01*
X317435Y327243D01*
X318286Y326890D01*
X319200Y326770D01*
X320114Y326890D01*
X320965Y327243D01*
X321696Y327804D01*
X322257Y328535D01*
X322610Y329386D01*
X322730Y330300D01*
X322610Y331214D01*
X322257Y332065D01*
X321696Y332796D01*
X320965Y333357D01*
X320114Y333710D01*
X319200Y333830D01*
D02*
G37*
G36*
X285100Y325730D02*
X284186Y325610D01*
X283335Y325257D01*
X282604Y324696D01*
X282043Y323965D01*
X281690Y323114D01*
X281570Y322200D01*
X281690Y321286D01*
X282043Y320435D01*
X282604Y319704D01*
X283335Y319143D01*
X284186Y318790D01*
X285100Y318670D01*
X286014Y318790D01*
X286865Y319143D01*
X287596Y319704D01*
X288157Y320435D01*
X288510Y321286D01*
X288630Y322200D01*
X288510Y323114D01*
X288157Y323965D01*
X287596Y324696D01*
X286865Y325257D01*
X286014Y325610D01*
X285100Y325730D01*
D02*
G37*
G36*
X249700D02*
X248786Y325610D01*
X247935Y325257D01*
X247204Y324696D01*
X246643Y323965D01*
X246290Y323114D01*
X246170Y322200D01*
X246290Y321286D01*
X246643Y320435D01*
X247204Y319704D01*
X247935Y319143D01*
X248786Y318790D01*
X249700Y318670D01*
X250614Y318790D01*
X251465Y319143D01*
X252196Y319704D01*
X252757Y320435D01*
X253110Y321286D01*
X253230Y322200D01*
X253110Y323114D01*
X252757Y323965D01*
X252196Y324696D01*
X251465Y325257D01*
X250614Y325610D01*
X249700Y325730D01*
D02*
G37*
G36*
X273300Y320047D02*
X271864Y319858D01*
X270526Y319304D01*
X269377Y318423D01*
X268496Y317274D01*
X267942Y315936D01*
X267753Y314500D01*
X267942Y313064D01*
X268496Y311726D01*
X269377Y310577D01*
X270526Y309696D01*
X271864Y309142D01*
X273300Y308952D01*
X274736Y309142D01*
X276074Y309696D01*
X277223Y310577D01*
X278104Y311726D01*
X278658Y313064D01*
X278848Y314500D01*
X278658Y315936D01*
X278104Y317274D01*
X277223Y318423D01*
X276074Y319304D01*
X274736Y319858D01*
X273300Y320047D01*
D02*
G37*
G36*
X300500Y329529D02*
X274000D01*
X273415Y329413D01*
X272919Y329081D01*
X263473Y319636D01*
X262936Y319858D01*
X261500Y320047D01*
X260064Y319858D01*
X258726Y319304D01*
X257577Y318423D01*
X256696Y317274D01*
X256142Y315936D01*
X255953Y314500D01*
X256142Y313064D01*
X256696Y311726D01*
X257577Y310577D01*
X258726Y309696D01*
X260064Y309142D01*
X261500Y308952D01*
X262936Y309142D01*
X264274Y309696D01*
X265423Y310577D01*
X266304Y311726D01*
X266858Y313064D01*
X267048Y314500D01*
X266858Y315936D01*
X266304Y317274D01*
X265928Y317765D01*
X274634Y326471D01*
X299867D01*
X306218Y320120D01*
X306142Y319936D01*
X305953Y318500D01*
X306142Y317064D01*
X306696Y315726D01*
X307577Y314577D01*
X308726Y313696D01*
X310064Y313142D01*
X311500Y312952D01*
X312936Y313142D01*
X314180Y313657D01*
X322171Y305666D01*
Y297556D01*
X321842Y297444D01*
X321671Y297416D01*
X320965Y297957D01*
X320114Y298310D01*
X319200Y298430D01*
X318286Y298310D01*
X317435Y297957D01*
X316704Y297396D01*
X316143Y296665D01*
X315790Y295814D01*
X315670Y294900D01*
X315790Y293986D01*
X316143Y293135D01*
X316704Y292404D01*
X317435Y291843D01*
X318286Y291490D01*
X319200Y291370D01*
X320114Y291490D01*
X320965Y291843D01*
X321671Y292384D01*
X321842Y292356D01*
X322171Y292244D01*
Y258572D01*
X321983Y258494D01*
X321147Y257853D01*
X320506Y257017D01*
X320103Y256044D01*
X319966Y255000D01*
X320103Y253956D01*
X320506Y252983D01*
X321147Y252147D01*
X321983Y251506D01*
X322956Y251103D01*
X324000Y250965D01*
X325044Y251103D01*
X326017Y251506D01*
X326853Y252147D01*
X327494Y252983D01*
X327897Y253956D01*
X328034Y255000D01*
X327897Y256044D01*
X327494Y257017D01*
X326853Y257853D01*
X326017Y258494D01*
X325229Y258820D01*
Y306300D01*
X325113Y306885D01*
X324781Y307381D01*
X316343Y315820D01*
X316858Y317064D01*
X317048Y318500D01*
X316858Y319936D01*
X316304Y321274D01*
X315423Y322423D01*
X314274Y323304D01*
X312936Y323858D01*
X311500Y324047D01*
X310064Y323858D01*
X308726Y323304D01*
X307952Y322710D01*
X301581Y329081D01*
X301085Y329413D01*
X300500Y329529D01*
D02*
G37*
G36*
X166500Y329520D02*
X141500D01*
X141110Y329442D01*
X140779Y329221D01*
X140558Y328890D01*
X140480Y328500D01*
Y297000D01*
X140558Y296610D01*
X140779Y296279D01*
X141110Y296058D01*
X141500Y295980D01*
X166500D01*
X166890Y296058D01*
X167221Y296279D01*
X167442Y296610D01*
X167520Y297000D01*
Y319047D01*
X174496D01*
Y320961D01*
X217106D01*
Y318154D01*
X219963D01*
X222108Y316008D01*
X222059Y315785D01*
X221889Y315520D01*
X198000D01*
X197610Y315442D01*
X197279Y315221D01*
X197058Y314890D01*
X196980Y314500D01*
Y290000D01*
X197058Y289610D01*
X197279Y289279D01*
X197610Y289058D01*
X198000Y288980D01*
X222000D01*
X222390Y289058D01*
X222480Y289118D01*
X222980Y288851D01*
Y283500D01*
X223058Y283110D01*
X223279Y282779D01*
X223610Y282558D01*
X224000Y282480D01*
X248500D01*
X248890Y282558D01*
X249221Y282779D01*
X249442Y283110D01*
X249520Y283500D01*
Y311000D01*
X249442Y311390D01*
X249221Y311721D01*
X248890Y311942D01*
X248500Y312020D01*
X231299D01*
X231213Y312452D01*
X230771Y313113D01*
X222847Y321037D01*
Y326847D01*
X217106D01*
Y325039D01*
X174496D01*
Y326953D01*
X167520D01*
Y328500D01*
X167442Y328890D01*
X167221Y329221D01*
X166890Y329442D01*
X166500Y329520D01*
D02*
G37*
G36*
X311500Y312247D02*
X310064Y312058D01*
X308726Y311504D01*
X307577Y310623D01*
X306696Y309474D01*
X306142Y308136D01*
X305953Y306700D01*
X306142Y305264D01*
X306696Y303926D01*
X307577Y302777D01*
X308726Y301896D01*
X309971Y301380D01*
Y288134D01*
X306392Y284555D01*
X302630D01*
Y279012D01*
X308370D01*
Y282207D01*
X312581Y286419D01*
X312913Y286915D01*
X313029Y287500D01*
Y301380D01*
X314274Y301896D01*
X315423Y302777D01*
X316304Y303926D01*
X316858Y305264D01*
X317048Y306700D01*
X316858Y308136D01*
X316304Y309474D01*
X315423Y310623D01*
X314274Y311504D01*
X312936Y312058D01*
X311500Y312247D01*
D02*
G37*
G36*
X150500Y285048D02*
X149064Y284858D01*
X147726Y284304D01*
X146577Y283423D01*
X145696Y282274D01*
X145142Y280936D01*
X144952Y279500D01*
X145142Y278064D01*
X145696Y276726D01*
X146577Y275577D01*
X147726Y274696D01*
X149064Y274142D01*
X150500Y273953D01*
X151936Y274142D01*
X153274Y274696D01*
X154423Y275577D01*
X155304Y276726D01*
X155858Y278064D01*
X156047Y279500D01*
X155858Y280936D01*
X155304Y282274D01*
X154423Y283423D01*
X153274Y284304D01*
X151936Y284858D01*
X150500Y285048D01*
D02*
G37*
G36*
X308370Y277272D02*
X302630D01*
Y271728D01*
X303971D01*
Y268026D01*
X295000D01*
X294217Y267923D01*
X293487Y267620D01*
X292860Y267140D01*
X292379Y266513D01*
X292077Y265783D01*
X291974Y265000D01*
Y261000D01*
X292077Y260217D01*
X292379Y259487D01*
X292860Y258860D01*
X293487Y258380D01*
X294217Y258077D01*
X295000Y257974D01*
X315000D01*
X315783Y258077D01*
X316513Y258380D01*
X317140Y258860D01*
X317620Y259487D01*
X317923Y260217D01*
X318026Y261000D01*
Y265000D01*
X317923Y265783D01*
X317620Y266513D01*
X317140Y267140D01*
X316513Y267620D01*
X315783Y267923D01*
X315000Y268026D01*
X307029D01*
Y271728D01*
X308370D01*
Y277272D01*
D02*
G37*
G36*
X224500Y265520D02*
X184970D01*
X184580Y265442D01*
X184249Y265221D01*
X184028Y264890D01*
X183950Y264500D01*
Y256500D01*
X184028Y256110D01*
X184249Y255779D01*
X184580Y255558D01*
X184970Y255480D01*
X224500D01*
X224890Y255558D01*
X225221Y255779D01*
X225442Y256110D01*
X225520Y256500D01*
Y264500D01*
X225442Y264890D01*
X225221Y265221D01*
X224890Y265442D01*
X224500Y265520D01*
D02*
G37*
G36*
X311050Y249094D02*
X309350D01*
X308006Y248917D01*
X306753Y248398D01*
X305677Y247573D01*
X304852Y246497D01*
X304333Y245244D01*
X304156Y243900D01*
X304333Y242556D01*
X304852Y241303D01*
X305677Y240227D01*
X306753Y239402D01*
X308006Y238883D01*
X309350Y238706D01*
X311050D01*
X312394Y238883D01*
X313647Y239402D01*
X314723Y240227D01*
X315548Y241303D01*
X316067Y242556D01*
X316244Y243900D01*
X316067Y245244D01*
X315548Y246497D01*
X314723Y247573D01*
X313647Y248398D01*
X312394Y248917D01*
X311050Y249094D01*
D02*
G37*
G36*
Y235694D02*
X309350D01*
X308006Y235517D01*
X306753Y234998D01*
X305677Y234173D01*
X304852Y233097D01*
X304333Y231844D01*
X304156Y230500D01*
X304333Y229156D01*
X304852Y227903D01*
X305677Y226827D01*
X306753Y226002D01*
X308006Y225483D01*
X309350Y225306D01*
X311050D01*
X312394Y225483D01*
X313647Y226002D01*
X314723Y226827D01*
X315548Y227903D01*
X316067Y229156D01*
X316244Y230500D01*
X316067Y231844D01*
X315548Y233097D01*
X314723Y234173D01*
X313647Y234998D01*
X312394Y235517D01*
X311050Y235694D01*
D02*
G37*
G36*
X199000Y202030D02*
X198086Y201910D01*
X197235Y201557D01*
X197194Y201526D01*
X154806D01*
X154765Y201557D01*
X153914Y201910D01*
X153000Y202030D01*
X152086Y201910D01*
X151235Y201557D01*
X150504Y200996D01*
X149943Y200265D01*
X149590Y199414D01*
X149470Y198500D01*
X149590Y197586D01*
X149943Y196735D01*
X150504Y196004D01*
X151235Y195443D01*
X152086Y195090D01*
X153000Y194970D01*
X153914Y195090D01*
X154765Y195443D01*
X154806Y195474D01*
X197194D01*
X197235Y195443D01*
X198086Y195090D01*
X199000Y194970D01*
X199914Y195090D01*
X200765Y195443D01*
X201496Y196004D01*
X202057Y196735D01*
X202410Y197586D01*
X202530Y198500D01*
X202410Y199414D01*
X202057Y200265D01*
X201496Y200996D01*
X200765Y201557D01*
X199914Y201910D01*
X199000Y202030D01*
D02*
G37*
G36*
X192657Y175534D02*
X191613Y175397D01*
X190640Y174994D01*
X189805Y174353D01*
X189163Y173517D01*
X188760Y172544D01*
X188623Y171500D01*
X188760Y170456D01*
X189163Y169483D01*
X189805Y168647D01*
X190640Y168006D01*
X191613Y167603D01*
X192657Y167465D01*
X193702Y167603D01*
X194675Y168006D01*
X195510Y168647D01*
X196151Y169483D01*
X196555Y170456D01*
X196692Y171500D01*
X196555Y172544D01*
X196151Y173517D01*
X195510Y174353D01*
X194675Y174994D01*
X193702Y175397D01*
X192657Y175534D01*
D02*
G37*
G36*
X228000Y224520D02*
X218000D01*
X217610Y224442D01*
X217279Y224221D01*
X217058Y223890D01*
X216980Y223500D01*
Y216858D01*
X208653D01*
Y211118D01*
X216980D01*
Y151750D01*
X212842D01*
Y143250D01*
X216980D01*
Y143000D01*
X217058Y142610D01*
X217279Y142279D01*
X217610Y142058D01*
X218000Y141980D01*
X228000D01*
X228390Y142058D01*
X228721Y142279D01*
X228942Y142610D01*
X229020Y143000D01*
Y223500D01*
X228942Y223890D01*
X228721Y224221D01*
X228390Y224442D01*
X228000Y224520D01*
D02*
G37*
G36*
X152199Y147330D02*
X151285Y147210D01*
X150434Y146857D01*
X149703Y146296D01*
X149142Y145565D01*
X148789Y144714D01*
X148669Y143800D01*
X148789Y142886D01*
X149142Y142035D01*
X149703Y141304D01*
X150434Y140743D01*
X151285Y140390D01*
X152199Y140270D01*
X153113Y140390D01*
X153964Y140743D01*
X154695Y141304D01*
X155256Y142035D01*
X155609Y142886D01*
X155729Y143800D01*
X155609Y144714D01*
X155256Y145565D01*
X154695Y146296D01*
X153964Y146857D01*
X153113Y147210D01*
X152199Y147330D01*
D02*
G37*
G36*
X315000Y159535D02*
X313956Y159397D01*
X312983Y158994D01*
X312147Y158353D01*
X311506Y157517D01*
X311103Y156544D01*
X310965Y155500D01*
X311103Y154456D01*
X311506Y153483D01*
X312147Y152647D01*
X312961Y152023D01*
Y139913D01*
X312130D01*
Y139279D01*
X311437D01*
Y139990D01*
X304437D01*
Y134490D01*
X311437D01*
Y135201D01*
X312130D01*
Y134370D01*
X317870D01*
Y139913D01*
X317039D01*
Y152023D01*
X317853Y152647D01*
X318494Y153483D01*
X318897Y154456D01*
X319035Y155500D01*
X318897Y156544D01*
X318494Y157517D01*
X317853Y158353D01*
X317017Y158994D01*
X316044Y159397D01*
X315000Y159535D01*
D02*
G37*
G36*
X159899Y137548D02*
X158463Y137358D01*
X157125Y136804D01*
X155976Y135923D01*
X155095Y134774D01*
X154541Y133436D01*
X154351Y132000D01*
X154541Y130564D01*
X155095Y129226D01*
X155976Y128077D01*
X157125Y127196D01*
X158463Y126642D01*
X159899Y126453D01*
X161335Y126642D01*
X162673Y127196D01*
X163822Y128077D01*
X164703Y129226D01*
X165257Y130564D01*
X165446Y132000D01*
X165257Y133436D01*
X164703Y134774D01*
X163822Y135923D01*
X162673Y136804D01*
X161335Y137358D01*
X159899Y137548D01*
D02*
G37*
G36*
X303563Y136250D02*
X296563D01*
Y130750D01*
X298024D01*
Y126052D01*
X297731Y125931D01*
X297537Y125782D01*
X294295D01*
Y126347D01*
X282453D01*
Y117654D01*
X294295D01*
Y118218D01*
X297537D01*
X297731Y118069D01*
X298825Y117616D01*
X300000Y117461D01*
X301175Y117616D01*
X302269Y118069D01*
X303209Y118791D01*
X303931Y119731D01*
X304384Y120825D01*
X304539Y122000D01*
X304384Y123175D01*
X303931Y124269D01*
X303209Y125209D01*
X302269Y125931D01*
X302102Y126000D01*
Y130750D01*
X303563D01*
Y136250D01*
D02*
G37*
G36*
X192657Y129034D02*
X191613Y128897D01*
X190640Y128494D01*
X189805Y127853D01*
X189163Y127017D01*
X188760Y126044D01*
X188623Y125000D01*
X188760Y123956D01*
X189163Y122983D01*
X189805Y122147D01*
X190640Y121506D01*
X191613Y121103D01*
X192657Y120966D01*
X193702Y121103D01*
X194675Y121506D01*
X195510Y122147D01*
X196151Y122983D01*
X196555Y123956D01*
X196692Y125000D01*
X196555Y126044D01*
X196151Y127017D01*
X195510Y127853D01*
X194675Y128494D01*
X193702Y128897D01*
X192657Y129034D01*
D02*
G37*
%LPD*%
D10*
X147000Y110000D02*
X149500Y112500D01*
X214621D02*
X229621Y127500D01*
X149500Y112500D02*
X214621D01*
X142000Y120000D02*
X148000Y114000D01*
X214000D02*
X229000Y129000D01*
X148000Y114000D02*
X214000D01*
X132000Y120000D02*
X142000D01*
X132000Y110000D02*
X147000D01*
X229621Y127500D02*
X264621D01*
X229000Y129000D02*
X264000D01*
X279000Y144000D01*
X286252Y139115D02*
Y139433D01*
X286531Y139713D01*
X274649Y137527D02*
X284664D01*
X264621Y127500D02*
X274649Y137527D01*
X286531Y139713D02*
Y142177D01*
X284664Y137527D02*
X286252Y139115D01*
X274000Y149000D02*
X279000Y144000D01*
X274000Y149000D02*
Y149358D01*
X279000Y144000D02*
X284563D01*
X282800Y180086D02*
Y181500D01*
X257200Y233000D02*
X257400Y233200D01*
X300000Y122000D02*
X300063Y122063D01*
X311358Y232500D02*
X311858Y232000D01*
X222488Y213988D02*
X223000Y214500D01*
X220512Y221488D02*
X223000Y219000D01*
X221488Y212512D02*
X222000Y212000D01*
X314902Y137240D02*
X315000Y137339D01*
X288500Y156000D02*
Y159500D01*
X244000Y287000D02*
X244012Y286988D01*
X228374Y304090D02*
X229329Y305045D01*
X230500Y289500D02*
Y290811D01*
X150500Y319500D02*
X151157D01*
X305000Y263000D02*
X305500Y263500D01*
X285642Y168500D02*
X286563Y167579D01*
X279500Y150358D02*
X280358Y149500D01*
X282500D02*
X286531Y145468D01*
X280358Y149500D02*
X282500D01*
X286531Y144000D02*
Y145468D01*
X288500Y156000D02*
X291500Y153000D01*
X292437Y161323D02*
Y173737D01*
X290469Y161323D02*
Y173831D01*
X300200Y181500D02*
X300700Y182000D01*
X292437Y173737D02*
X293186Y174486D01*
X294600D01*
X300200Y180086D01*
Y181500D01*
X289814Y174486D02*
X290469Y173831D01*
X288400Y174486D02*
X289814D01*
X282800Y180086D02*
X288400Y174486D01*
X153000Y198500D02*
X153582D01*
D16*
X188000Y216000D02*
D03*
D17*
X305500Y281784D02*
D03*
Y274500D02*
D03*
X274000Y156642D02*
D03*
Y149358D02*
D03*
X279500D02*
D03*
Y156642D02*
D03*
X315000Y129858D02*
D03*
Y137142D02*
D03*
D41*
X213000Y213988D02*
X222488D01*
X315000Y137339D02*
Y155500D01*
X229329Y305045D02*
Y311671D01*
X218000Y323000D02*
X229329Y311671D01*
X170642Y323000D02*
X218000D01*
X230500Y289500D02*
X231000Y290000D01*
X260000Y149000D02*
X267642Y156642D01*
X274000D01*
X260000Y143000D02*
Y149000D01*
X307937Y137240D02*
X314902D01*
X300063Y122063D02*
Y133500D01*
D42*
X305500Y281784D02*
X305960Y281324D01*
X311500Y287500D02*
Y306700D01*
X306870Y282870D02*
X311500Y287500D01*
X324000Y253466D02*
Y255000D01*
X323700Y253166D02*
X324000Y253466D01*
X323700Y253166D02*
Y306300D01*
X311500Y318500D02*
X323700Y306300D01*
X305500Y263500D02*
Y274500D01*
X310000Y318500D02*
X311500D01*
X300500Y328000D02*
X310000Y318500D01*
X274000Y328000D02*
X300500D01*
X261500Y315500D02*
X274000Y328000D01*
X261500Y314500D02*
Y315500D01*
D43*
X153582Y198500D02*
X199000D01*
D52*
X315000Y212000D02*
D03*
Y182000D02*
D03*
X245000Y172000D02*
D03*
D53*
X260000Y122000D02*
D03*
X300000D02*
D03*
X260000Y143000D02*
D03*
D54*
X332000Y110000D02*
D03*
Y120000D02*
D03*
Y130000D02*
D03*
Y140000D02*
D03*
Y150000D02*
D03*
Y160000D02*
D03*
Y170000D02*
D03*
Y180000D02*
D03*
Y190000D02*
D03*
Y200000D02*
D03*
X132000Y240000D02*
D03*
Y250000D02*
D03*
Y260000D02*
D03*
Y270000D02*
D03*
Y280000D02*
D03*
Y290000D02*
D03*
Y300000D02*
D03*
Y310000D02*
D03*
Y320000D02*
D03*
Y330000D02*
D03*
X332000Y240000D02*
D03*
Y250000D02*
D03*
Y260000D02*
D03*
Y270000D02*
D03*
Y280000D02*
D03*
Y290000D02*
D03*
Y300000D02*
D03*
Y310000D02*
D03*
Y320000D02*
D03*
Y330000D02*
D03*
X132000Y110000D02*
D03*
Y120000D02*
D03*
Y130000D02*
D03*
Y140000D02*
D03*
Y150000D02*
D03*
Y160000D02*
D03*
Y170000D02*
D03*
Y180000D02*
D03*
Y190000D02*
D03*
Y200000D02*
D03*
D55*
X159899Y132000D02*
D03*
Y120200D02*
D03*
X273300Y314500D02*
D03*
X261500D02*
D03*
X311500Y306700D02*
D03*
Y318500D02*
D03*
X150500Y319500D02*
D03*
Y279500D02*
D03*
Y239500D02*
D03*
X230500D02*
D03*
Y269500D02*
D03*
Y289500D02*
D03*
D56*
X152199Y143800D02*
D03*
Y108400D02*
D03*
X285100Y322200D02*
D03*
X249700D02*
D03*
X319200Y294900D02*
D03*
Y330300D02*
D03*
D57*
X274000Y263000D02*
D03*
X305000D02*
D03*
D58*
X257200Y230500D02*
D03*
X257400Y243900D02*
D03*
X310200Y230500D02*
D03*
Y243900D02*
D03*
D59*
X192657Y125000D02*
D03*
Y171500D02*
D03*
X269000Y142500D02*
D03*
X300000Y160500D02*
D03*
Y142500D02*
D03*
X324000Y255000D02*
D03*
X315000Y155500D02*
D03*
D60*
X212343Y125000D02*
D03*
Y171500D02*
D03*
D61*
X286000Y152000D02*
D03*
X190319Y219500D02*
D03*
X185719D02*
D03*
X190319Y212500D02*
D03*
X185719D02*
D03*
X291500Y153000D02*
D03*
D62*
X272500Y184500D02*
D03*
X285500Y193500D02*
D03*
X272500Y191000D02*
D03*
Y177500D02*
D03*
X279000Y193500D02*
D03*
X188500Y260500D02*
D03*
X194500D02*
D03*
X223000Y209000D02*
D03*
Y219000D02*
D03*
X216500Y294000D02*
D03*
X209000D02*
D03*
X202000D02*
D03*
X199000Y198500D02*
D03*
X153000D02*
D03*
D63*
X272626Y122000D02*
D03*
X288374D02*
D03*
D64*
X213000Y225012D02*
D03*
Y213988D02*
D03*
D65*
X222512Y198500D02*
D03*
X211488D02*
D03*
X222512Y184500D02*
D03*
X211488D02*
D03*
D66*
X215717Y306000D02*
D03*
X230283D02*
D03*
D67*
X282800Y181500D02*
D03*
X300200D02*
D03*
D68*
X307937Y129760D02*
D03*
Y137240D02*
D03*
X300063Y133500D02*
D03*
D69*
X168500Y260500D02*
D03*
X210500D02*
D03*
D70*
X158658Y302201D02*
D03*
X178342D02*
D03*
X220843Y147500D02*
D03*
X201157D02*
D03*
D71*
X203512Y305500D02*
D03*
X192488D02*
D03*
X219976Y322500D02*
D03*
X231000D02*
D03*
D72*
X163358Y323000D02*
D03*
X170642D02*
D03*
X285142Y168500D02*
D03*
X277858D02*
D03*
D73*
X292437Y142177D02*
D03*
D74*
X290469D02*
D03*
X288500D02*
D03*
X286531D02*
D03*
X284563D02*
D03*
X292437Y159500D02*
D03*
X290469D02*
D03*
X288500D02*
D03*
X286531D02*
D03*
X284563D02*
D03*
D75*
X286563Y161323D02*
Y167579D01*
D76*
X260000Y122000D02*
X272626D01*
X288374D02*
X300000D01*
D77*
X300700Y182000D02*
X315000D01*
D78*
X331250Y162250D02*
D03*
D79*
X303000Y206250D02*
D03*
D80*
X278000Y186500D02*
D03*
D81*
X251250Y178000D02*
D03*
D82*
X204735Y260500D02*
D03*
D83*
X210000Y302250D02*
D03*
D84*
X154000Y312750D02*
D03*
D85*
X236250Y297250D02*
D03*
D86*
X257750Y206000D02*
D03*
D87*
X223000Y183250D02*
D03*
D88*
X282000Y159321D02*
D03*
D89*
X276250Y162500D02*
D03*
M02*
