G04*
G04 #@! TF.GenerationSoftware,Altium Limited,Altium Designer,20.1.12 (249)*
G04*
G04 Layer_Color=16711935*
%FSLAX25Y25*%
%MOIN*%
G70*
G04*
G04 #@! TF.SameCoordinates,52F10900-DB58-4C41-AEEA-7F3F7A3DCA95*
G04*
G04*
G04 #@! TF.FilePolarity,Positive*
G04*
G01*
G75*
%ADD10C,0.01000*%
%ADD102C,0.00600*%
D10*
X224153Y125000D02*
X224130Y126000D01*
X224061Y126998D01*
X223946Y127992D01*
X223785Y128979D01*
X223578Y129958D01*
X223327Y130926D01*
X223031Y131881D01*
X222691Y132822D01*
X222308Y133746D01*
X221883Y134652D01*
X221417Y135537D01*
X220910Y136399D01*
X220364Y137237D01*
X219780Y138049D01*
X219159Y138833D01*
X218502Y139588D01*
X217811Y140311D01*
X217088Y141002D01*
X216333Y141659D01*
X215549Y142280D01*
X214737Y142864D01*
X213899Y143410D01*
X213037Y143917D01*
X212152Y144384D01*
X211246Y144808D01*
X210322Y145191D01*
X209381Y145531D01*
X208426Y145827D01*
X207458Y146078D01*
X206479Y146285D01*
X205492Y146446D01*
X204498Y146561D01*
X203500Y146630D01*
X202500Y146653D01*
X201500Y146630D01*
X200502Y146561D01*
X199508Y146446D01*
X198521Y146285D01*
X197542Y146078D01*
X196574Y145827D01*
X195619Y145531D01*
X194678Y145191D01*
X193754Y144808D01*
X192848Y144384D01*
X191963Y143917D01*
X191101Y143410D01*
X190263Y142864D01*
X189451Y142280D01*
X188667Y141659D01*
X187912Y141002D01*
X187189Y140311D01*
X186498Y139588D01*
X185841Y138833D01*
X185220Y138049D01*
X184636Y137237D01*
X184090Y136399D01*
X183583Y135537D01*
X183116Y134652D01*
X182692Y133746D01*
X182309Y132822D01*
X181969Y131881D01*
X181673Y130926D01*
X181422Y129958D01*
X181215Y128979D01*
X181054Y127992D01*
X180939Y126998D01*
X180870Y126000D01*
X180847Y125000D01*
X180870Y124000D01*
X180939Y123002D01*
X181054Y122008D01*
X181215Y121021D01*
X181422Y120042D01*
X181673Y119074D01*
X181969Y118119D01*
X182309Y117178D01*
X182692Y116254D01*
X183117Y115348D01*
X183583Y114463D01*
X184090Y113601D01*
X184636Y112763D01*
X185220Y111951D01*
X185841Y111167D01*
X186498Y110412D01*
X187189Y109689D01*
X187912Y108998D01*
X188667Y108341D01*
X189451Y107720D01*
X190263Y107136D01*
X191101Y106590D01*
X191963Y106083D01*
X192848Y105616D01*
X193754Y105191D01*
X194678Y104809D01*
X195619Y104469D01*
X196574Y104173D01*
X197543Y103922D01*
X198521Y103715D01*
X199509Y103554D01*
X200502Y103439D01*
X201500Y103370D01*
X202500Y103347D01*
X203500Y103370D01*
X204498Y103439D01*
X205492Y103554D01*
X206479Y103715D01*
X207458Y103922D01*
X208426Y104173D01*
X209381Y104469D01*
X210322Y104809D01*
X211246Y105192D01*
X212152Y105617D01*
X213037Y106083D01*
X213899Y106590D01*
X214737Y107136D01*
X215549Y107720D01*
X216333Y108341D01*
X217088Y108998D01*
X217811Y109689D01*
X218502Y110412D01*
X219159Y111167D01*
X219780Y111951D01*
X220364Y112763D01*
X220910Y113601D01*
X221417Y114463D01*
X221884Y115348D01*
X222309Y116254D01*
X222691Y117178D01*
X223031Y118119D01*
X223327Y119074D01*
X223578Y120043D01*
X223785Y121021D01*
X223946Y122009D01*
X224061Y123002D01*
X224130Y124000D01*
X224153Y125000D01*
Y171500D02*
X224130Y172500D01*
X224061Y173498D01*
X223946Y174492D01*
X223785Y175479D01*
X223578Y176458D01*
X223327Y177426D01*
X223031Y178381D01*
X222691Y179322D01*
X222308Y180246D01*
X221883Y181152D01*
X221417Y182037D01*
X220910Y182899D01*
X220364Y183737D01*
X219780Y184549D01*
X219159Y185333D01*
X218502Y186088D01*
X217811Y186811D01*
X217088Y187502D01*
X216333Y188159D01*
X215549Y188780D01*
X214737Y189364D01*
X213899Y189910D01*
X213037Y190417D01*
X212152Y190884D01*
X211246Y191308D01*
X210322Y191691D01*
X209381Y192031D01*
X208426Y192327D01*
X207458Y192578D01*
X206479Y192785D01*
X205492Y192946D01*
X204498Y193061D01*
X203500Y193130D01*
X202500Y193154D01*
X201500Y193130D01*
X200502Y193061D01*
X199508Y192946D01*
X198521Y192785D01*
X197542Y192578D01*
X196574Y192327D01*
X195619Y192031D01*
X194678Y191691D01*
X193754Y191308D01*
X192848Y190884D01*
X191963Y190417D01*
X191101Y189910D01*
X190263Y189364D01*
X189451Y188780D01*
X188667Y188159D01*
X187912Y187502D01*
X187189Y186811D01*
X186498Y186088D01*
X185841Y185333D01*
X185220Y184549D01*
X184636Y183737D01*
X184090Y182899D01*
X183583Y182037D01*
X183116Y181152D01*
X182692Y180246D01*
X182309Y179322D01*
X181969Y178381D01*
X181673Y177426D01*
X181422Y176458D01*
X181215Y175479D01*
X181054Y174492D01*
X180939Y173498D01*
X180870Y172500D01*
X180847Y171500D01*
X180870Y170500D01*
X180939Y169502D01*
X181054Y168508D01*
X181215Y167521D01*
X181422Y166542D01*
X181673Y165574D01*
X181969Y164619D01*
X182309Y163678D01*
X182692Y162754D01*
X183117Y161848D01*
X183583Y160963D01*
X184090Y160101D01*
X184636Y159263D01*
X185220Y158451D01*
X185841Y157667D01*
X186498Y156912D01*
X187189Y156189D01*
X187912Y155498D01*
X188667Y154841D01*
X189451Y154220D01*
X190263Y153636D01*
X191101Y153090D01*
X191963Y152583D01*
X192848Y152117D01*
X193754Y151691D01*
X194678Y151309D01*
X195619Y150969D01*
X196574Y150673D01*
X197543Y150422D01*
X198521Y150215D01*
X199509Y150054D01*
X200502Y149939D01*
X201500Y149870D01*
X202500Y149846D01*
X203500Y149870D01*
X204498Y149939D01*
X205492Y150054D01*
X206479Y150215D01*
X207458Y150422D01*
X208426Y150673D01*
X209381Y150969D01*
X210322Y151309D01*
X211246Y151691D01*
X212152Y152117D01*
X213037Y152583D01*
X213899Y153090D01*
X214737Y153636D01*
X215549Y154220D01*
X216333Y154841D01*
X217088Y155498D01*
X217811Y156189D01*
X218502Y156912D01*
X219159Y157667D01*
X219780Y158451D01*
X220364Y159263D01*
X220910Y160101D01*
X221417Y160963D01*
X221884Y161848D01*
X222309Y162754D01*
X222691Y163678D01*
X223031Y164619D01*
X223327Y165574D01*
X223578Y166543D01*
X223785Y167521D01*
X223946Y168509D01*
X224061Y169502D01*
X224130Y170500D01*
X224153Y171500D01*
X232000Y297800D02*
Y314100D01*
X214000Y297800D02*
X232000D01*
X214000Y314200D02*
X232000D01*
X214000Y297800D02*
Y314200D01*
X150500Y187275D02*
X177500D01*
Y158275D02*
Y187275D01*
X150500Y158275D02*
Y187275D01*
Y158275D02*
X177500D01*
X160700Y233400D02*
Y287800D01*
Y233400D02*
X220500D01*
Y287800D01*
X160700D02*
X220500D01*
X154100Y289401D02*
X183200D01*
X154100D02*
Y315301D01*
X183200D01*
Y289401D02*
Y315301D01*
X196300Y160300D02*
X225400D01*
Y134400D02*
Y160300D01*
X196300Y134400D02*
X225400D01*
X196300D02*
Y160300D01*
X340500Y101500D02*
X340500Y336000D01*
X125500Y336000D02*
X340500Y336000D01*
X125500Y101500D02*
X340500D01*
X125500Y336000D02*
X125500Y101500D01*
X351500Y107500D02*
X353500Y101500D01*
X355500Y107500D01*
X353500Y336000D02*
X355500Y330000D01*
X351500D02*
X353500Y336000D01*
Y101500D02*
Y196056D01*
Y238244D02*
Y336000D01*
X342000Y101500D02*
X354500D01*
X342000Y336000D02*
X354500D01*
X125500Y346500D02*
X131500Y348500D01*
X125500Y346500D02*
X131500Y344500D01*
X334500D02*
X340500Y346500D01*
X334500Y348500D02*
X340500Y346500D01*
X125500D02*
X210806D01*
X251994D02*
X340500D01*
X125500Y337500D02*
Y347500D01*
X340500Y337500D02*
Y347500D01*
D102*
X357099Y201655D02*
Y197656D01*
X353100Y201655D01*
X352101D01*
X351101Y200655D01*
Y198656D01*
X352101Y197656D01*
Y203654D02*
X351101Y204654D01*
Y206653D01*
X352101Y207653D01*
X353100D01*
X354100Y206653D01*
Y205654D01*
Y206653D01*
X355100Y207653D01*
X356099D01*
X357099Y206653D01*
Y204654D01*
X356099Y203654D01*
X357099Y212651D02*
X351101D01*
X354100Y209652D01*
Y213651D01*
X351101Y219649D02*
Y215651D01*
X354100D01*
X353100Y217650D01*
Y218650D01*
X354100Y219649D01*
X356099D01*
X357099Y218650D01*
Y216650D01*
X356099Y215651D01*
X357099Y221649D02*
X356099D01*
Y222648D01*
X357099D01*
Y221649D01*
X352101Y226647D02*
X351101Y227647D01*
Y229646D01*
X352101Y230646D01*
X356099D01*
X357099Y229646D01*
Y227647D01*
X356099Y226647D01*
X352101D01*
Y232645D02*
X351101Y233645D01*
Y235644D01*
X352101Y236644D01*
X356099D01*
X357099Y235644D01*
Y233645D01*
X356099Y232645D01*
X352101D01*
X216405Y342901D02*
X212406D01*
X216405Y346900D01*
Y347899D01*
X215405Y348899D01*
X213406D01*
X212406Y347899D01*
X218404Y342901D02*
X220404D01*
X219404D01*
Y348899D01*
X218404Y347899D01*
X227401Y348899D02*
X223403D01*
Y345900D01*
X225402Y346900D01*
X226402D01*
X227401Y345900D01*
Y343901D01*
X226402Y342901D01*
X224402D01*
X223403Y343901D01*
X229401Y347899D02*
X230400Y348899D01*
X232400D01*
X233399Y347899D01*
Y343901D01*
X232400Y342901D01*
X230400D01*
X229401Y343901D01*
Y347899D01*
X235399Y342901D02*
Y343901D01*
X236398D01*
Y342901D01*
X235399D01*
X240397Y347899D02*
X241397Y348899D01*
X243396D01*
X244396Y347899D01*
Y343901D01*
X243396Y342901D01*
X241397D01*
X240397Y343901D01*
Y347899D01*
X246395D02*
X247395Y348899D01*
X249394D01*
X250394Y347899D01*
Y343901D01*
X249394Y342901D01*
X247395D01*
X246395Y343901D01*
Y347899D01*
M02*
