G04*
G04 #@! TF.GenerationSoftware,Altium Limited,Altium Designer,20.1.12 (249)*
G04*
G04 Layer_Color=65535*
%FSLAX25Y25*%
%MOIN*%
G70*
G04*
G04 #@! TF.SameCoordinates,52F10900-DB58-4C41-AEEA-7F3F7A3DCA95*
G04*
G04*
G04 #@! TF.FilePolarity,Positive*
G04*
G01*
G75*
%ADD10C,0.01000*%
%ADD11C,0.00787*%
%ADD12C,0.00500*%
D10*
X189250Y206000D02*
X188884Y206884D01*
X188000Y207250D01*
X187116Y206884D01*
X186750Y206000D01*
X224547Y125000D02*
X224525Y125996D01*
X224457Y126990D01*
X224345Y127981D01*
X224188Y128965D01*
X223987Y129941D01*
X223741Y130906D01*
X223453Y131860D01*
X223121Y132800D01*
X222748Y133724D01*
X222333Y134630D01*
X221878Y135516D01*
X221382Y136381D01*
X220849Y137223D01*
X220278Y138040D01*
X219670Y138830D01*
X219028Y139591D01*
X218352Y140323D01*
X217643Y141024D01*
X216904Y141692D01*
X216135Y142326D01*
X215338Y142924D01*
X214515Y143486D01*
X213667Y144010D01*
X212797Y144495D01*
X211905Y144940D01*
X210995Y145345D01*
X210067Y145708D01*
X209123Y146029D01*
X208166Y146307D01*
X207197Y146541D01*
X206219Y146731D01*
X205234Y146877D01*
X204242Y146978D01*
X203247Y147035D01*
X202251Y147046D01*
X201255Y147012D01*
X200261Y146933D01*
X199273Y146810D01*
X198291Y146642D01*
X197317Y146429D01*
X196354Y146173D01*
X195403Y145874D01*
X194467Y145532D01*
X193548Y145148D01*
X192647Y144723D01*
X191765Y144257D01*
X190906Y143753D01*
X190071Y143210D01*
X189260Y142629D01*
X188477Y142013D01*
X187723Y141362D01*
X186999Y140678D01*
X186306Y139961D01*
X185646Y139214D01*
X185021Y138438D01*
X184432Y137634D01*
X183879Y136805D01*
X183365Y135952D01*
X182890Y135076D01*
X182455Y134179D01*
X182060Y133264D01*
X181708Y132332D01*
X181398Y131385D01*
X181131Y130425D01*
X180907Y129454D01*
X180728Y128473D01*
X180593Y127486D01*
X180503Y126494D01*
X180458Y125498D01*
Y124502D01*
X180503Y123506D01*
X180593Y122514D01*
X180728Y121526D01*
X180907Y120546D01*
X181131Y119575D01*
X181398Y118615D01*
X181708Y117668D01*
X182060Y116736D01*
X182455Y115821D01*
X182890Y114924D01*
X183365Y114048D01*
X183880Y113195D01*
X184432Y112365D01*
X185021Y111562D01*
X185646Y110786D01*
X186306Y110039D01*
X186999Y109322D01*
X187723Y108638D01*
X188477Y107987D01*
X189260Y107371D01*
X190071Y106790D01*
X190906Y106247D01*
X191765Y105743D01*
X192647Y105277D01*
X193548Y104852D01*
X194467Y104468D01*
X195403Y104126D01*
X196354Y103827D01*
X197317Y103571D01*
X198291Y103358D01*
X199273Y103190D01*
X200262Y103067D01*
X201255Y102988D01*
X202251Y102954D01*
X203247Y102965D01*
X204242Y103022D01*
X205234Y103123D01*
X206220Y103269D01*
X207198Y103459D01*
X208166Y103693D01*
X209123Y103971D01*
X210067Y104292D01*
X210995Y104655D01*
X211906Y105060D01*
X212797Y105505D01*
X213667Y105990D01*
X214515Y106514D01*
X215338Y107076D01*
X216135Y107675D01*
X216904Y108308D01*
X217643Y108976D01*
X218352Y109677D01*
X219028Y110409D01*
X219671Y111171D01*
X220278Y111961D01*
X220849Y112777D01*
X221383Y113619D01*
X221878Y114484D01*
X222333Y115370D01*
X222748Y116276D01*
X223121Y117200D01*
X223453Y118140D01*
X223741Y119094D01*
X223987Y120060D01*
X224188Y121036D01*
X224345Y122020D01*
X224457Y123010D01*
X224525Y124004D01*
X224547Y125000D01*
Y171500D02*
X224525Y172496D01*
X224457Y173491D01*
X224345Y174481D01*
X224188Y175465D01*
X223987Y176441D01*
X223741Y177407D01*
X223453Y178360D01*
X223121Y179300D01*
X222748Y180224D01*
X222333Y181130D01*
X221878Y182016D01*
X221382Y182881D01*
X220849Y183723D01*
X220278Y184539D01*
X219670Y185329D01*
X219028Y186091D01*
X218352Y186823D01*
X217643Y187524D01*
X216904Y188192D01*
X216135Y188826D01*
X215338Y189424D01*
X214515Y189986D01*
X213667Y190510D01*
X212797Y190995D01*
X211905Y191440D01*
X210995Y191845D01*
X210067Y192208D01*
X209123Y192529D01*
X208166Y192807D01*
X207197Y193041D01*
X206219Y193231D01*
X205234Y193377D01*
X204242Y193478D01*
X203247Y193535D01*
X202251Y193546D01*
X201255Y193512D01*
X200261Y193433D01*
X199273Y193310D01*
X198291Y193142D01*
X197317Y192929D01*
X196354Y192673D01*
X195403Y192374D01*
X194467Y192032D01*
X193548Y191648D01*
X192647Y191223D01*
X191765Y190757D01*
X190906Y190253D01*
X190071Y189710D01*
X189260Y189129D01*
X188477Y188513D01*
X187723Y187862D01*
X186999Y187178D01*
X186306Y186461D01*
X185646Y185714D01*
X185021Y184938D01*
X184432Y184134D01*
X183879Y183305D01*
X183365Y182452D01*
X182890Y181576D01*
X182455Y180679D01*
X182060Y179764D01*
X181708Y178832D01*
X181398Y177885D01*
X181131Y176925D01*
X180907Y175954D01*
X180728Y174973D01*
X180593Y173986D01*
X180503Y172994D01*
X180458Y171998D01*
Y171002D01*
X180503Y170006D01*
X180593Y169014D01*
X180728Y168026D01*
X180907Y167046D01*
X181131Y166075D01*
X181398Y165115D01*
X181708Y164168D01*
X182060Y163236D01*
X182455Y162321D01*
X182890Y161424D01*
X183365Y160548D01*
X183880Y159695D01*
X184432Y158865D01*
X185021Y158062D01*
X185646Y157286D01*
X186306Y156539D01*
X186999Y155822D01*
X187723Y155138D01*
X188477Y154487D01*
X189260Y153871D01*
X190071Y153290D01*
X190906Y152747D01*
X191765Y152243D01*
X192647Y151777D01*
X193548Y151352D01*
X194467Y150968D01*
X195403Y150626D01*
X196354Y150327D01*
X197317Y150071D01*
X198291Y149858D01*
X199273Y149690D01*
X200262Y149567D01*
X201255Y149488D01*
X202251Y149454D01*
X203247Y149465D01*
X204242Y149522D01*
X205234Y149623D01*
X206220Y149769D01*
X207198Y149959D01*
X208166Y150193D01*
X209123Y150471D01*
X210067Y150792D01*
X210995Y151155D01*
X211906Y151560D01*
X212797Y152005D01*
X213667Y152490D01*
X214515Y153014D01*
X215338Y153576D01*
X216135Y154174D01*
X216904Y154808D01*
X217643Y155476D01*
X218352Y156177D01*
X219028Y156909D01*
X219671Y157671D01*
X220278Y158461D01*
X220849Y159277D01*
X221383Y160119D01*
X221878Y160984D01*
X222333Y161870D01*
X222748Y162776D01*
X223121Y163700D01*
X223453Y164640D01*
X223741Y165594D01*
X223987Y166560D01*
X224188Y167535D01*
X224345Y168520D01*
X224457Y169510D01*
X224525Y170504D01*
X224547Y171500D01*
X235000Y103000D02*
Y221000D01*
X325000D01*
Y103000D02*
Y221000D01*
X235000Y103000D02*
X325000D01*
X149300Y190375D02*
X178600D01*
X149300Y155275D02*
Y190375D01*
Y155275D02*
X178600D01*
Y190375D01*
X147399Y148700D02*
X173399D01*
Y103200D02*
Y148700D01*
X147399Y103200D02*
X173399D01*
X147399D02*
Y148700D01*
X173399Y132200D02*
X176899D01*
Y118700D02*
Y132200D01*
X173399Y118700D02*
X176899D01*
X257600Y253600D02*
Y288500D01*
Y253600D02*
X324100Y253600D01*
Y288500D01*
X257600D02*
X324100D01*
X290000Y301000D02*
Y327000D01*
X244500Y301000D02*
X290000D01*
X244500D02*
Y327000D01*
X290000D01*
X273500Y297500D02*
Y301000D01*
X260000Y297500D02*
X273500D01*
X260000D02*
Y301000D01*
X298000Y290000D02*
X324000D01*
X298000D02*
Y335500D01*
X324000D01*
Y290000D02*
Y335500D01*
X294500Y306500D02*
X298000D01*
X294500D02*
Y320000D01*
X298000D01*
X243500Y222500D02*
Y252000D01*
X324000D01*
X243500Y222500D02*
X324000D01*
Y252000D01*
X140500Y229500D02*
X240500D01*
X140500Y329500D02*
X240500D01*
Y229500D02*
Y329500D01*
X140500Y229500D02*
Y329500D01*
X177900Y137300D02*
X181200D01*
X179500Y135700D02*
Y138900D01*
X177900Y183800D02*
X181200D01*
X179500Y182200D02*
Y185400D01*
X290401Y233202D02*
X294400D01*
Y236201D01*
X292401D01*
X294400D01*
Y239200D01*
X288402Y233202D02*
Y238200D01*
X287402Y239200D01*
X285403D01*
X284403Y238200D01*
Y233202D01*
X278405Y234202D02*
X279405Y233202D01*
X281404D01*
X282404Y234202D01*
Y235201D01*
X281404Y236201D01*
X279405D01*
X278405Y237201D01*
Y238200D01*
X279405Y239200D01*
X281404D01*
X282404Y238200D01*
X272407Y233202D02*
X276406D01*
Y239200D01*
X272407D01*
X276406Y236201D02*
X274407D01*
X245000Y297998D02*
Y293000D01*
Y295499D01*
X248332D01*
Y297998D01*
Y293000D01*
X252498D02*
Y297998D01*
X249998Y295499D01*
X253331D01*
X287000Y296998D02*
Y292000D01*
Y294499D01*
X290332D01*
Y296998D01*
Y292000D01*
X291998Y296165D02*
X292831Y296998D01*
X294498D01*
X295331Y296165D01*
Y295332D01*
X294498Y294499D01*
X293665D01*
X294498D01*
X295331Y293666D01*
Y292833D01*
X294498Y292000D01*
X292831D01*
X291998Y292833D01*
X252998Y270000D02*
X247000D01*
X249999D01*
Y266001D01*
X252998D01*
X247000D01*
Y260003D02*
Y264002D01*
X250999Y260003D01*
X251998D01*
X252998Y261003D01*
Y263002D01*
X251998Y264002D01*
X180498Y110200D02*
X175500D01*
X177999D01*
Y106868D01*
X180498D01*
X175500D01*
Y105202D02*
Y103535D01*
Y104369D01*
X180498D01*
X179665Y105202D01*
X156500Y214000D02*
X161498D01*
Y211501D01*
X160665Y210668D01*
X158999D01*
X158166Y211501D01*
Y214000D01*
Y212334D02*
X156500Y210668D01*
X160665Y209002D02*
X161498Y208169D01*
Y206502D01*
X160665Y205669D01*
X159832D01*
X158999Y206502D01*
Y207335D01*
Y206502D01*
X158166Y205669D01*
X157333D01*
X156500Y206502D01*
Y208169D01*
X157333Y209002D01*
X212000Y220314D02*
Y224313D01*
X213999D01*
X214666Y223647D01*
Y222314D01*
X213999Y221647D01*
X212000D01*
X213333D02*
X214666Y220314D01*
X218665D02*
X215999D01*
X218665Y222980D01*
Y223647D01*
X217998Y224313D01*
X216665D01*
X215999Y223647D01*
X149500Y214000D02*
X154498D01*
Y211501D01*
X153665Y210668D01*
X151999D01*
X151166Y211501D01*
Y214000D01*
Y212334D02*
X149500Y210668D01*
Y209002D02*
Y207335D01*
Y208169D01*
X154498D01*
X153665Y209002D01*
X177000Y151498D02*
Y145500D01*
X180999D01*
X182998D02*
X184997D01*
X183998D01*
Y151498D01*
X182998Y150498D01*
X184000Y199998D02*
Y195000D01*
X186499D01*
X187332Y195833D01*
Y199165D01*
X186499Y199998D01*
X184000D01*
X188998Y195000D02*
X190665D01*
X189831D01*
Y199998D01*
X188998Y199165D01*
X166166Y207832D02*
X165499Y208499D01*
X164166D01*
X163500Y207832D01*
Y205166D01*
X164166Y204500D01*
X165499D01*
X166166Y205166D01*
X167499Y207832D02*
X168165Y208499D01*
X169498D01*
X170165Y207832D01*
Y207166D01*
X169498Y206499D01*
X170165Y205833D01*
Y205166D01*
X169498Y204500D01*
X168165D01*
X167499Y205166D01*
Y205833D01*
X168165Y206499D01*
X167499Y207166D01*
Y207832D01*
X168165Y206499D02*
X169498D01*
X223832Y154665D02*
X222999Y155498D01*
X221333D01*
X220500Y154665D01*
Y151333D01*
X221333Y150500D01*
X222999D01*
X223832Y151333D01*
X225498Y155498D02*
X228831D01*
Y154665D01*
X225498Y151333D01*
Y150500D01*
X223832Y147165D02*
X222999Y147998D01*
X221333D01*
X220500Y147165D01*
Y143833D01*
X221333Y143000D01*
X222999D01*
X223832Y143833D01*
X228831Y147998D02*
X227165Y147165D01*
X225498Y145499D01*
Y143833D01*
X226331Y143000D01*
X227998D01*
X228831Y143833D01*
Y144666D01*
X227998Y145499D01*
X225498D01*
X220832Y201334D02*
X221499Y202001D01*
Y203333D01*
X220832Y204000D01*
X218166D01*
X217500Y203333D01*
Y202001D01*
X218166Y201334D01*
X217500Y200001D02*
Y198668D01*
Y199335D01*
X221499D01*
X220832Y200001D01*
D11*
X153976Y222106D02*
Y222894D01*
X151024Y222106D02*
Y222894D01*
X157524Y222106D02*
Y222894D01*
X160476Y222106D02*
Y222894D01*
X209476Y221606D02*
Y222394D01*
X206524Y221606D02*
Y222394D01*
D12*
X160634Y202697D02*
X177366D01*
X160634Y192303D02*
X177366D01*
M02*
