G04*
G04 #@! TF.GenerationSoftware,Altium Limited,Altium Designer,20.1.12 (249)*
G04*
G04 Layer_Color=8388736*
%FSLAX25Y25*%
%MOIN*%
G70*
G04*
G04 #@! TF.SameCoordinates,52F10900-DB58-4C41-AEEA-7F3F7A3DCA95*
G04*
G04*
G04 #@! TF.FilePolarity,Negative*
G04*
G01*
G75*
%ADD21R,0.15100X0.12450*%
%ADD22O,0.10249X0.03556*%
%ADD23R,0.10249X0.03556*%
%ADD24R,0.10249X0.13005*%
%ADD25R,0.04540X0.04343*%
%ADD26R,0.06706X0.06509*%
%ADD27R,0.13800X0.09461*%
%ADD28R,0.07300X0.07300*%
%ADD29C,0.13800*%
%ADD30C,0.07800*%
%ADD31O,0.09760X0.06400*%
%ADD32C,0.09800*%
%ADD33C,0.04800*%
G04:AMPARAMS|DCode=34|XSize=248mil|YSize=88mil|CornerRadius=24mil|HoleSize=0mil|Usage=FLASHONLY|Rotation=0.000|XOffset=0mil|YOffset=0mil|HoleType=Round|Shape=RoundedRectangle|*
%AMROUNDEDRECTD34*
21,1,0.24800,0.04000,0,0,0.0*
21,1,0.20000,0.08800,0,0,0.0*
1,1,0.04800,0.10000,-0.02000*
1,1,0.04800,-0.10000,-0.02000*
1,1,0.04800,-0.10000,0.02000*
1,1,0.04800,0.10000,0.02000*
%
%ADD34ROUNDEDRECTD34*%
%ADD35O,0.10800X0.09100*%
%ADD36C,0.06800*%
%ADD37R,0.06800X0.06800*%
%ADD38C,0.03800*%
%ADD39C,0.05800*%
D21*
X164000Y162050D02*
D03*
Y183500D02*
D03*
D22*
X176681Y223500D02*
D03*
Y218500D02*
D03*
Y213500D02*
D03*
Y208500D02*
D03*
X199319Y223500D02*
D03*
Y218500D02*
D03*
Y213500D02*
D03*
D23*
Y208500D02*
D03*
D24*
X188019Y216000D02*
D03*
D25*
X152500Y226142D02*
D03*
Y218858D02*
D03*
X159000D02*
D03*
Y226142D02*
D03*
X208000Y225642D02*
D03*
Y218358D02*
D03*
D26*
X166000Y213858D02*
D03*
Y221142D02*
D03*
X212000Y198858D02*
D03*
Y206142D02*
D03*
D27*
X163500Y197500D02*
D03*
D28*
X177500D02*
D03*
D29*
X315000Y212000D02*
D03*
Y182000D02*
D03*
X245000Y172000D02*
D03*
D30*
X260000Y122000D02*
D03*
X300000D02*
D03*
X260000Y143000D02*
D03*
D31*
X332000Y110000D02*
D03*
Y120000D02*
D03*
Y130000D02*
D03*
Y140000D02*
D03*
Y150000D02*
D03*
Y160000D02*
D03*
Y170000D02*
D03*
Y180000D02*
D03*
Y190000D02*
D03*
Y200000D02*
D03*
X132000Y240000D02*
D03*
Y250000D02*
D03*
Y260000D02*
D03*
Y270000D02*
D03*
Y280000D02*
D03*
Y290000D02*
D03*
Y300000D02*
D03*
Y310000D02*
D03*
Y320000D02*
D03*
Y330000D02*
D03*
X332000Y240000D02*
D03*
Y250000D02*
D03*
Y260000D02*
D03*
Y270000D02*
D03*
Y280000D02*
D03*
Y290000D02*
D03*
Y300000D02*
D03*
Y310000D02*
D03*
Y320000D02*
D03*
Y330000D02*
D03*
X132000Y110000D02*
D03*
Y120000D02*
D03*
Y130000D02*
D03*
Y140000D02*
D03*
Y150000D02*
D03*
Y160000D02*
D03*
Y170000D02*
D03*
Y180000D02*
D03*
Y190000D02*
D03*
Y200000D02*
D03*
D32*
X159899Y132000D02*
D03*
Y120200D02*
D03*
X273300Y314500D02*
D03*
X261500D02*
D03*
X311500Y306700D02*
D03*
Y318500D02*
D03*
X150500Y319500D02*
D03*
Y279500D02*
D03*
Y239500D02*
D03*
X230500D02*
D03*
Y269500D02*
D03*
Y289500D02*
D03*
D33*
X152199Y143800D02*
D03*
Y108400D02*
D03*
X285100Y322200D02*
D03*
X249700D02*
D03*
X319200Y294900D02*
D03*
Y330300D02*
D03*
D34*
X274000Y263000D02*
D03*
X305000D02*
D03*
D35*
X257200Y230500D02*
D03*
X257400Y243900D02*
D03*
X310200Y230500D02*
D03*
Y243900D02*
D03*
D36*
X192657Y125000D02*
D03*
Y171500D02*
D03*
X269000Y142500D02*
D03*
X300000Y160500D02*
D03*
Y142500D02*
D03*
X324000Y255000D02*
D03*
X315000Y155500D02*
D03*
D37*
X212343Y125000D02*
D03*
Y171500D02*
D03*
D38*
X286000Y152000D02*
D03*
X190319Y219500D02*
D03*
X185719D02*
D03*
X190319Y212500D02*
D03*
X185719D02*
D03*
X291500Y153000D02*
D03*
D39*
X272500Y184500D02*
D03*
X285500Y193500D02*
D03*
X272500Y191000D02*
D03*
Y177500D02*
D03*
X279000Y193500D02*
D03*
X188500Y260500D02*
D03*
X194500D02*
D03*
X223000Y209000D02*
D03*
Y219000D02*
D03*
X216500Y294000D02*
D03*
X209000D02*
D03*
X202000D02*
D03*
X199000Y198500D02*
D03*
X153000D02*
D03*
M02*
