G04*
G04 #@! TF.GenerationSoftware,Altium Limited,Altium Designer,20.1.12 (249)*
G04*
G04 Layer_Color=32896*
%FSLAX25Y25*%
%MOIN*%
G70*
G04*
G04 #@! TF.SameCoordinates,52F10900-DB58-4C41-AEEA-7F3F7A3DCA95*
G04*
G04*
G04 #@! TF.FilePolarity,Positive*
G04*
G01*
G75*
%ADD10C,0.01000*%
%ADD11C,0.00787*%
%ADD12C,0.00500*%
D10*
X293421Y151331D02*
X292929Y150839D01*
X293421Y150347D01*
X187100Y288101D02*
Y316701D01*
X150000Y293901D02*
Y310901D01*
X155800Y288101D02*
X187100D01*
X150000Y293901D02*
X155800Y288101D01*
Y316701D02*
X187100D01*
X150000Y310901D02*
X155800Y316701D01*
X192400Y133000D02*
Y161600D01*
X229500Y138800D02*
Y155800D01*
X192400Y161600D02*
X223700D01*
X229500Y155800D01*
X192400Y133000D02*
X223700D01*
X229500Y138800D01*
X293421Y147277D02*
Y150347D01*
Y151331D02*
Y154777D01*
X283579D02*
X293421D01*
X283579Y147277D02*
Y154777D01*
Y147277D02*
X293421D01*
X296470Y155177D02*
X300635D01*
X301468Y154344D01*
Y152678D01*
X300635Y151845D01*
X296470D01*
X297303Y150179D02*
X296470Y149346D01*
Y147680D01*
X297303Y146846D01*
X298136D01*
X298969Y147680D01*
Y148513D01*
Y147680D01*
X299802Y146846D01*
X300635D01*
X301468Y147680D01*
Y149346D01*
X300635Y150179D01*
X318500Y150000D02*
X313502D01*
Y147501D01*
X314335Y146668D01*
X316001D01*
X316834Y147501D01*
Y150000D01*
Y148334D02*
X318500Y146668D01*
X314335Y145002D02*
X313502Y144169D01*
Y142502D01*
X314335Y141669D01*
X315168D01*
X316001Y142502D01*
X316834Y141669D01*
X317667D01*
X318500Y142502D01*
Y144169D01*
X317667Y145002D01*
X316834D01*
X316001Y144169D01*
X315168Y145002D01*
X314335D01*
X316001Y144169D02*
Y142502D01*
X270000Y157500D02*
X265002D01*
Y155001D01*
X265835Y154168D01*
X267501D01*
X268334Y155001D01*
Y157500D01*
Y155834D02*
X270000Y154168D01*
X265002Y152502D02*
Y149169D01*
X265835D01*
X269167Y152502D01*
X270000D01*
X263000Y157500D02*
X258002D01*
Y155001D01*
X258835Y154168D01*
X260501D01*
X261334Y155001D01*
Y157500D01*
Y155834D02*
X263000Y154168D01*
X258002Y149169D02*
X258835Y150836D01*
X260501Y152502D01*
X262167D01*
X263000Y151669D01*
Y150002D01*
X262167Y149169D01*
X261334D01*
X260501Y150002D01*
Y152502D01*
X311000Y273642D02*
X315998D01*
Y276141D01*
X315165Y276974D01*
X313499D01*
X312666Y276141D01*
Y273642D01*
Y275308D02*
X311000Y276974D01*
X315998Y281972D02*
Y278640D01*
X313499D01*
X314332Y280306D01*
Y281139D01*
X313499Y281972D01*
X311833D01*
X311000Y281139D01*
Y279473D01*
X311833Y278640D01*
X304500Y192000D02*
Y196998D01*
X302001D01*
X301168Y196165D01*
Y194499D01*
X302001Y193666D01*
X304500D01*
X302834D02*
X301168Y192000D01*
X297002D02*
Y196998D01*
X299502Y194499D01*
X296169D01*
X310167Y147168D02*
X306835D01*
X306002Y148001D01*
Y149667D01*
X306835Y150500D01*
X310167D01*
X311000Y149667D01*
Y148001D01*
X309334Y148834D02*
X311000Y147168D01*
Y148001D02*
X310167Y147168D01*
X311000Y145502D02*
Y143835D01*
Y144669D01*
X306002D01*
X306835Y145502D01*
X242998Y301500D02*
X238000D01*
Y304832D01*
Y309831D02*
Y306498D01*
X241332Y309831D01*
X242165D01*
X242998Y308998D01*
Y307331D01*
X242165Y306498D01*
X284500Y135498D02*
Y130500D01*
X282001D01*
X281168Y131333D01*
Y134665D01*
X282001Y135498D01*
X284500D01*
X276169Y130500D02*
X279502D01*
X276169Y133832D01*
Y134665D01*
X277002Y135498D01*
X278669D01*
X279502Y134665D01*
X262832Y166835D02*
X261999Y166002D01*
X260333D01*
X259500Y166835D01*
Y170167D01*
X260333Y171000D01*
X261999D01*
X262832Y170167D01*
X264498Y171000D02*
X266164D01*
X265331D01*
Y166002D01*
X264498Y166835D01*
X271996Y166002D02*
X268664D01*
Y168501D01*
X270330Y167668D01*
X271163D01*
X271996Y168501D01*
Y170167D01*
X271163Y171000D01*
X269497D01*
X268664Y170167D01*
X147834Y290332D02*
X148501Y290999D01*
X149834D01*
X150500Y290332D01*
Y287666D01*
X149834Y287000D01*
X148501D01*
X147834Y287666D01*
X146501Y287000D02*
X145168D01*
X145835D01*
Y290999D01*
X146501Y290332D01*
X141170Y287000D02*
Y290999D01*
X143169Y288999D01*
X140503D01*
X150165Y257332D02*
X150998Y256499D01*
Y254833D01*
X150165Y254000D01*
X146833D01*
X146000Y254833D01*
Y256499D01*
X146833Y257332D01*
X146000Y258998D02*
Y260665D01*
Y259831D01*
X150998D01*
X150165Y258998D01*
Y263164D02*
X150998Y263997D01*
Y265663D01*
X150165Y266496D01*
X149332D01*
X148499Y265663D01*
Y264830D01*
Y265663D01*
X147666Y266496D01*
X146833D01*
X146000Y265663D01*
Y263997D01*
X146833Y263164D01*
X211168Y324665D02*
X212001Y325498D01*
X213667D01*
X214500Y324665D01*
Y321333D01*
X213667Y320500D01*
X212001D01*
X211168Y321333D01*
X209502Y320500D02*
X207836D01*
X208669D01*
Y325498D01*
X209502Y324665D01*
X202004Y320500D02*
X205336D01*
X202004Y323832D01*
Y324665D01*
X202837Y325498D01*
X204503D01*
X205336Y324665D01*
X199668Y316665D02*
X200501Y317498D01*
X202167D01*
X203000Y316665D01*
Y313333D01*
X202167Y312500D01*
X200501D01*
X199668Y313333D01*
X198002Y312500D02*
X196335D01*
X197169D01*
Y317498D01*
X198002Y316665D01*
X193836Y312500D02*
X192170D01*
X193003D01*
Y317498D01*
X193836Y316665D01*
X182501Y324998D02*
X183501Y325998D01*
X185500D01*
X186500Y324998D01*
Y321000D01*
X185500Y320000D01*
X183501D01*
X182501Y321000D01*
X180502D02*
X179502Y320000D01*
X177503D01*
X176503Y321000D01*
Y324998D01*
X177503Y325998D01*
X179502D01*
X180502Y324998D01*
Y323999D01*
X179502Y322999D01*
X176503D01*
X178499Y176502D02*
X177499Y175502D01*
X175500D01*
X174500Y176502D01*
Y180500D01*
X175500Y181500D01*
X177499D01*
X178499Y180500D01*
X184497Y175502D02*
X180498D01*
Y178501D01*
X182497Y177501D01*
X183497D01*
X184497Y178501D01*
Y180500D01*
X183497Y181500D01*
X181498D01*
X180498Y180500D01*
X178499Y185002D02*
X177499Y184002D01*
X175500D01*
X174500Y185002D01*
Y189000D01*
X175500Y190000D01*
X177499D01*
X178499Y189000D01*
X183497Y190000D02*
Y184002D01*
X180498Y187001D01*
X184497D01*
X202002Y219001D02*
X201002Y220001D01*
Y222000D01*
X202002Y223000D01*
X206000D01*
X207000Y222000D01*
Y220001D01*
X206000Y219001D01*
X202002Y217002D02*
X201002Y216002D01*
Y214003D01*
X202002Y213003D01*
X203001D01*
X204001Y214003D01*
Y215003D01*
Y214003D01*
X205001Y213003D01*
X206000D01*
X207000Y214003D01*
Y216002D01*
X206000Y217002D01*
X179978Y150501D02*
X178978Y151501D01*
Y153500D01*
X179978Y154500D01*
X183977D01*
X184976Y153500D01*
Y151501D01*
X183977Y150501D01*
X184976Y144503D02*
Y148502D01*
X180978Y144503D01*
X179978D01*
X178978Y145503D01*
Y147502D01*
X179978Y148502D01*
D11*
X266130Y122000D02*
X265342D01*
X266130D01*
X304024Y277748D02*
Y278535D01*
X306976Y277748D02*
Y278535D01*
X272524Y152606D02*
Y153394D01*
X275476Y152606D02*
Y153394D01*
X280976Y152606D02*
Y153394D01*
X278024Y152606D02*
Y153394D01*
X316476Y133106D02*
Y133894D01*
X313524Y133106D02*
Y133894D01*
D12*
X269496Y116252D02*
Y117689D01*
Y116252D02*
X291504D01*
Y117689D01*
Y126311D02*
Y127748D01*
X269496D02*
X291504D01*
X269496Y126311D02*
Y127748D01*
X209000Y213395D02*
Y225600D01*
X217000Y213395D02*
Y225600D01*
X191895Y309500D02*
X204100D01*
X191895Y301500D02*
X204100D01*
X219388Y318500D02*
X231593D01*
X219388Y326500D02*
X231593D01*
M02*
